<?xml version="1.0" encoding="us-ascii" standalone="no"?><svg xmlns="http://www.w3.org/2000/svg" xmlns:xlink="http://www.w3.org/1999/xlink" contentStyleType="text/css" height="617px" preserveAspectRatio="none" style="width:594px;height:617px;background:#FFFFFF;" version="1.1" viewBox="0 0 594 617" width="594px" zoomAndPan="magnify"><defs/><g><text fill="#000000" font-family="JetBrains Mono" font-size="14" font-weight="bold" lengthAdjust="spacing" textLength="144" x="221.5" y="29.2799">Find Task Sequence</text><rect fill="#FFFFFF" height="423.2402" style="stroke:#181818;stroke-width:1.0;" width="10" x="287" y="129.5998"/><rect fill="none" height="135.8001" style="stroke:#000000;stroke-width:1.5;" width="451" x="127" y="261.2398"/><line style="stroke:#181818;stroke-width:0.5;stroke-dasharray:5.0,5.0;" x1="292" x2="292" y1="96.4398" y2="561.84"/><rect fill="#E2E2F0" height="50.9598" rx="2.5" ry="2.5" style="stroke:#181818;stroke-width:0.5;" width="126" x="229" y="44.4799"/><text fill="#000000" font-family="JetBrains Mono" font-size="14" font-style="italic" lengthAdjust="spacing" textLength="88" x="248" y="65.7599">&#171;component&#187;</text><text fill="#000000" font-family="JetBrains Mono" font-size="14" lengthAdjust="spacing" textLength="112" x="236" y="84.2398">Prolog Backend</text><rect fill="#E2E2F0" height="50.9598" rx="2.5" ry="2.5" style="stroke:#181818;stroke-width:0.5;" width="126" x="229" y="560.84"/><text fill="#000000" font-family="JetBrains Mono" font-size="14" font-style="italic" lengthAdjust="spacing" textLength="88" x="248" y="582.1199">&#171;component&#187;</text><text fill="#000000" font-family="JetBrains Mono" font-size="14" lengthAdjust="spacing" textLength="112" x="236" y="600.5998">Prolog Backend</text><rect fill="#FFFFFF" height="423.2402" style="stroke:#181818;stroke-width:1.0;" width="10" x="287" y="129.5998"/><polygon fill="#181818" points="275,125.5998,285,129.5998,275,133.5998,279,129.5998" style="stroke:#181818;stroke-width:1.0;"/><line style="stroke:#181818;stroke-width:1.0;" x1="0" x2="281" y1="129.5998" y2="129.5998"/><text fill="#000000" font-family="JetBrains Mono" font-size="13" font-weight="bold" lengthAdjust="spacing" textLength="8" x="7" y="123.6998">1</text><text fill="#000000" font-family="JetBrains Mono" font-size="13" lengthAdjust="spacing" textLength="256" x="19" y="123.6998">GET taskSequence?robisepId={...}</text><polygon fill="#181818" points="576,156.7598,586,160.7598,576,164.7598,580,160.7598" style="stroke:#181818;stroke-width:1.0;"/><line style="stroke:#181818;stroke-width:1.0;" x1="297" x2="582" y1="160.7598" y2="160.7598"/><text fill="#000000" font-family="JetBrains Mono" font-size="13" font-weight="bold" lengthAdjust="spacing" textLength="8" x="304" y="154.8598">2</text><text fill="#000000" font-family="JetBrains Mono" font-size="13" lengthAdjust="spacing" textLength="144" x="316" y="154.8598">GET /prolog/campus</text><polygon fill="#181818" points="308,187.9198,298,191.9198,308,195.9198,304,191.9198" style="stroke:#181818;stroke-width:1.0;"/><line style="stroke:#181818;stroke-width:1.0;stroke-dasharray:2.0,2.0;" x1="302" x2="587" y1="191.9198" y2="191.9198"/><text fill="#000000" font-family="JetBrains Mono" font-size="13" font-weight="bold" lengthAdjust="spacing" textLength="8" x="314" y="186.0198">3</text><text fill="#000000" font-family="JetBrains Mono" font-size="13" lengthAdjust="spacing" textLength="64" x="326" y="186.0198">response</text><path d="M133,204.9198 L133,248.9198 L450,248.9198 L450,214.9198 L440,204.9198 L133,204.9198 " fill="#FEFFDD" style="stroke:#181818;stroke-width:0.5;"/><path d="M440,204.9198 L440,214.9198 L450,214.9198 L440,204.9198 " fill="#FEFFDD" style="stroke:#181818;stroke-width:0.5;"/><text fill="#000000" font-family="JetBrains Mono" font-size="13" lengthAdjust="spacing" textLength="296" x="139" y="223.1798">Campus data is processed and asserted</text><text fill="#000000" font-family="JetBrains Mono" font-size="13" lengthAdjust="spacing" textLength="136" x="139" y="240.3398">to knowledge base</text><path d="M127,261.2398 L204,261.2398 L204,270.3998 L194,280.3998 L127,280.3998 L127,261.2398 " fill="#EEEEEE" style="stroke:#000000;stroke-width:1.5;"/><rect fill="none" height="135.8001" style="stroke:#000000;stroke-width:1.5;" width="451" x="127" y="261.2398"/><text fill="#000000" font-family="JetBrains Mono" font-size="13" font-weight="bold" lengthAdjust="spacing" textLength="32" x="142" y="275.4998">loop</text><text fill="#000000" font-family="JetBrains Mono" font-size="11" font-weight="bold" lengthAdjust="spacing" textLength="112" x="219" y="274.4598">[for each floor]</text><polygon fill="#181818" points="576,299.5599,586,303.5599,576,307.5599,580,303.5599" style="stroke:#181818;stroke-width:1.0;"/><line style="stroke:#181818;stroke-width:1.0;" x1="297" x2="582" y1="303.5599" y2="303.5599"/><text fill="#000000" font-family="JetBrains Mono" font-size="13" font-weight="bold" lengthAdjust="spacing" textLength="8" x="304" y="297.6599">4</text><text fill="#000000" font-family="JetBrains Mono" font-size="13" lengthAdjust="spacing" textLength="248" x="316" y="297.6599">GET prolog/floorPlans/{floorId}</text><polygon fill="#181818" points="308,330.7199,298,334.7199,308,338.7199,304,334.7199" style="stroke:#181818;stroke-width:1.0;"/><line style="stroke:#181818;stroke-width:1.0;stroke-dasharray:2.0,2.0;" x1="302" x2="587" y1="334.7199" y2="334.7199"/><text fill="#000000" font-family="JetBrains Mono" font-size="13" font-weight="bold" lengthAdjust="spacing" textLength="8" x="314" y="328.8199">5</text><text fill="#000000" font-family="JetBrains Mono" font-size="13" lengthAdjust="spacing" textLength="64" x="326" y="328.8199">response</text><path d="M137,347.7199 L137,391.7199 L446,391.7199 L446,357.7199 L436,347.7199 L137,347.7199 " fill="#FEFFDD" style="stroke:#181818;stroke-width:0.5;"/><path d="M436,347.7199 L436,357.7199 L446,357.7199 L436,347.7199 " fill="#FEFFDD" style="stroke:#181818;stroke-width:0.5;"/><text fill="#000000" font-family="JetBrains Mono" font-size="13" lengthAdjust="spacing" textLength="288" x="143" y="365.9799">Floor data is processed and asserted</text><text fill="#000000" font-family="JetBrains Mono" font-size="13" lengthAdjust="spacing" textLength="136" x="143" y="383.1399">to knowledge base</text><polygon fill="#181818" points="576,423.1999,586,427.1999,576,431.1999,580,427.1999" style="stroke:#181818;stroke-width:1.0;"/><line style="stroke:#181818;stroke-width:1.0;" x1="297" x2="582" y1="427.1999" y2="427.1999"/><text fill="#000000" font-family="JetBrains Mono" font-size="13" font-weight="bold" lengthAdjust="spacing" textLength="8" x="304" y="421.2999">6</text><text fill="#000000" font-family="JetBrains Mono" font-size="13" lengthAdjust="spacing" textLength="232" x="316" y="421.2999">GET /prolog/tasks/{robisepId}</text><polygon fill="#181818" points="308,454.3599,298,458.3599,308,462.3599,304,458.3599" style="stroke:#181818;stroke-width:1.0;"/><line style="stroke:#181818;stroke-width:1.0;stroke-dasharray:2.0,2.0;" x1="302" x2="587" y1="458.3599" y2="458.3599"/><text fill="#000000" font-family="JetBrains Mono" font-size="13" font-weight="bold" lengthAdjust="spacing" textLength="8" x="314" y="452.4599">7</text><text fill="#000000" font-family="JetBrains Mono" font-size="13" lengthAdjust="spacing" textLength="64" x="326" y="452.4599">response</text><path d="M141,471.3599 L141,515.3599 L442,515.3599 L442,481.3599 L432,471.3599 L141,471.3599 " fill="#FEFFDD" style="stroke:#181818;stroke-width:0.5;"/><path d="M432,471.3599 L432,481.3599 L442,481.3599 L432,471.3599 " fill="#FEFFDD" style="stroke:#181818;stroke-width:0.5;"/><text fill="#000000" font-family="JetBrains Mono" font-size="13" lengthAdjust="spacing" textLength="280" x="147" y="489.62">Task data is processed and asserted</text><text fill="#000000" font-family="JetBrains Mono" font-size="13" lengthAdjust="spacing" textLength="144" x="147" y="506.78">to knowledge base.</text><polygon fill="#181818" points="11,539.84,1,543.84,11,547.84,7,543.84" style="stroke:#181818;stroke-width:1.0;"/><line style="stroke:#181818;stroke-width:1.0;stroke-dasharray:2.0,2.0;" x1="5" x2="286" y1="543.84" y2="543.84"/><text fill="#000000" font-family="JetBrains Mono" font-size="13" font-weight="bold" lengthAdjust="spacing" textLength="8" x="17" y="537.94">8</text><text fill="#000000" font-family="JetBrains Mono" font-size="13" lengthAdjust="spacing" textLength="64" x="29" y="537.94">response</text><!--SRC=[dL9VJm8n37_VfsXyvtWdY0a632OQ4lW2PIkutDrwRZsC8Nntkuc4A0_4FNLjVt_Q3NlXqBSRYYRLFdGOiOKEROqxMibdGn39oaNDqHRxHkOSv1LRWcUIQKGV4hnmO6F4YuBcFZXOOwfXHUyz1Kl6A5wyzHq6WRjbv8PtC5Kb2kuECC5q1kEnvRRZG44c4sC64qsEu6cs1b6k7wg7o1kVg5ku-qDLLKTZq8hVev2s6wCy2lo63RkYCxJOTdqgjV5WCDAXaieaTHLOORodcB6Wvx6qWaD1y0cKm59Av01r9DGe2hdIAGnru8-6t8vWWygceq0cDAPXxc3B4GZj6spr6Wlcqjp9Moak6mnfU2Znmkb8f-PVRdFsZ-DyvXbuY-dhndFsR3u7sV_rLUQNKAVdDpZUjDNo5_wpq-fYgIfIFiHPvmi0]--></g></svg>