<?xml version="1.0" encoding="us-ascii" standalone="no"?><svg xmlns="http://www.w3.org/2000/svg" xmlns:xlink="http://www.w3.org/1999/xlink" contentStyleType="text/css" height="902px" preserveAspectRatio="none" style="width:669px;height:902px;background:#FFFFFF;" version="1.1" viewBox="0 0 669 902" width="669px" zoomAndPan="magnify"><defs/><g><text fill="#000000" font-family="sans-serif" font-size="14" font-weight="bold" lengthAdjust="spacing" textLength="181" x="245" y="30.1074">Edit Floor/Load Floor Plan</text><rect fill="#FFFFFF" height="615.4707" style="stroke:#181818;stroke-width:1.0;" width="10" x="361" y="178.4453"/><rect fill="#FFFFFF" height="31.291" style="stroke:#181818;stroke-width:1.0;" width="10" x="601" y="236.0273"/><rect fill="#FFFFFF" height="31.291" style="stroke:#181818;stroke-width:1.0;" width="10" x="601" y="411.1133"/><rect fill="#FFFFFF" height="31.291" style="stroke:#181818;stroke-width:1.0;" width="10" x="601" y="586.1992"/><rect fill="none" height="592.4707" style="stroke:#000000;stroke-width:1.5;" width="659" x="3" y="193.4453"/><rect fill="none" height="98.5039" style="stroke:#000000;stroke-width:1.5;" width="423" x="3" y="282.3184"/><rect fill="none" height="98.5039" style="stroke:#000000;stroke-width:1.5;" width="423" x="3" y="457.4043"/><rect fill="none" height="98.5039" style="stroke:#000000;stroke-width:1.5;" width="423" x="3" y="632.4902"/><line style="stroke:#181818;stroke-width:0.5;stroke-dasharray:5.0,5.0;" x1="366" x2="366" y1="127.8633" y2="802.916"/><line style="stroke:#181818;stroke-width:0.5;stroke-dasharray:5.0,5.0;" x1="606" x2="606" y1="127.8633" y2="802.916"/><rect fill="#E2E2F0" height="51.2422" rx="2.5" ry="2.5" style="stroke:#181818;stroke-width:0.5;" width="100" x="316" y="75.6211"/><text fill="#000000" font-family="sans-serif" font-size="14" font-style="italic" lengthAdjust="spacing" textLength="86" x="323" y="97.7285">&#171;component&#187;</text><text fill="#000000" font-family="sans-serif" font-size="14" lengthAdjust="spacing" textLength="61" x="335.5" y="116.3496">Back-End</text><rect fill="#E2E2F0" height="51.2422" rx="2.5" ry="2.5" style="stroke:#181818;stroke-width:0.5;" width="100" x="316" y="801.916"/><text fill="#000000" font-family="sans-serif" font-size="14" font-style="italic" lengthAdjust="spacing" textLength="86" x="323" y="824.0234">&#171;component&#187;</text><text fill="#000000" font-family="sans-serif" font-size="14" lengthAdjust="spacing" textLength="61" x="335.5" y="842.6445">Back-End</text><text fill="#000000" font-family="sans-serif" font-size="14" font-style="italic" lengthAdjust="spacing" textLength="86" x="560" y="105.7285">&#171;component&#187;</text><text fill="#000000" font-family="sans-serif" font-size="14" lengthAdjust="spacing" textLength="62" x="572" y="124.3496">DataBase</text><path d="M588,54.6211 C588,44.6211 606,44.6211 606,44.6211 C606,44.6211 624,44.6211 624,54.6211 L624,80.6211 C624,90.6211 606,90.6211 606,90.6211 C606,90.6211 588,90.6211 588,80.6211 L588,54.6211 " fill="#E2E2F0" style="stroke:#181818;stroke-width:1.5;"/><path d="M588,54.6211 C588,64.6211 606,64.6211 606,64.6211 C606,64.6211 624,64.6211 624,54.6211 " fill="none" style="stroke:#181818;stroke-width:1.5;"/><text fill="#000000" font-family="sans-serif" font-size="14" font-style="italic" lengthAdjust="spacing" textLength="86" x="560" y="817.0234">&#171;component&#187;</text><text fill="#000000" font-family="sans-serif" font-size="14" lengthAdjust="spacing" textLength="62" x="572" y="835.6445">DataBase</text><path d="M588,849.1582 C588,839.1582 606,839.1582 606,839.1582 C606,839.1582 624,839.1582 624,849.1582 L624,875.1582 C624,885.1582 606,885.1582 606,885.1582 C606,885.1582 588,885.1582 588,875.1582 L588,849.1582 " fill="#E2E2F0" style="stroke:#181818;stroke-width:1.5;"/><path d="M588,849.1582 C588,859.1582 606,859.1582 606,859.1582 C606,859.1582 624,859.1582 624,849.1582 " fill="none" style="stroke:#181818;stroke-width:1.5;"/><rect fill="#FFFFFF" height="615.4707" style="stroke:#181818;stroke-width:1.0;" width="10" x="361" y="178.4453"/><rect fill="#FFFFFF" height="31.291" style="stroke:#181818;stroke-width:1.0;" width="10" x="601" y="236.0273"/><rect fill="#FFFFFF" height="31.291" style="stroke:#181818;stroke-width:1.0;" width="10" x="601" y="411.1133"/><rect fill="#FFFFFF" height="31.291" style="stroke:#181818;stroke-width:1.0;" width="10" x="601" y="586.1992"/><polygon fill="#181818" points="349,174.4453,359,178.4453,349,182.4453,353,178.4453" style="stroke:#181818;stroke-width:1.0;"/><line style="stroke:#181818;stroke-width:1.0;" x1="0" x2="355" y1="178.4453" y2="178.4453"/><text fill="#000000" font-family="sans-serif" font-size="13" font-weight="bold" lengthAdjust="spacing" textLength="7" x="7" y="164.5371">1</text><text fill="#000000" font-family="sans-serif" font-size="13" lengthAdjust="spacing" textLength="243" x="18" y="155.8916">PATCH floors/{floorNumber?: floorNumber,</text><text fill="#000000" font-family="sans-serif" font-size="13" lengthAdjust="spacing" textLength="320" x="22" y="173.1826">floorDescription?: floorDescription, floorPlan?: floorPlan}</text><path d="M3,193.4453 L64,193.4453 L64,202.7363 L54,212.7363 L3,212.7363 L3,193.4453 " fill="#EEEEEE" style="stroke:#000000;stroke-width:1.5;"/><rect fill="none" height="592.4707" style="stroke:#000000;stroke-width:1.5;" width="659" x="3" y="193.4453"/><text fill="#000000" font-family="sans-serif" font-size="13" font-weight="bold" lengthAdjust="spacing" textLength="16" x="18" y="208.4736">alt</text><text fill="#000000" font-family="sans-serif" font-size="11" font-weight="bold" lengthAdjust="spacing" textLength="96" x="79" y="207.3154">[user authorized]</text><polygon fill="#181818" points="589,232.0273,599,236.0273,589,240.0273,593,236.0273" style="stroke:#181818;stroke-width:1.0;"/><line style="stroke:#181818;stroke-width:1.0;" x1="371" x2="595" y1="236.0273" y2="236.0273"/><text fill="#000000" font-family="sans-serif" font-size="13" font-weight="bold" lengthAdjust="spacing" textLength="7" x="378" y="230.7646">2</text><text fill="#000000" font-family="sans-serif" font-size="13" lengthAdjust="spacing" textLength="80" x="389" y="230.7646">find by floor id</text><polygon fill="#181818" points="382,263.3184,372,267.3184,382,271.3184,378,267.3184" style="stroke:#181818;stroke-width:1.0;"/><line style="stroke:#181818;stroke-width:1.0;stroke-dasharray:2.0,2.0;" x1="376" x2="605" y1="267.3184" y2="267.3184"/><text fill="#000000" font-family="sans-serif" font-size="13" font-weight="bold" lengthAdjust="spacing" textLength="7" x="388" y="262.0557">3</text><text fill="#000000" font-family="sans-serif" font-size="13" lengthAdjust="spacing" textLength="4" x="399" y="262.0557">&#160;</text><path d="M3,282.3184 L64,282.3184 L64,291.6094 L54,301.6094 L3,301.6094 L3,282.3184 " fill="#EEEEEE" style="stroke:#000000;stroke-width:1.5;"/><rect fill="none" height="98.5039" style="stroke:#000000;stroke-width:1.5;" width="423" x="3" y="282.3184"/><text fill="#000000" font-family="sans-serif" font-size="13" font-weight="bold" lengthAdjust="spacing" textLength="16" x="18" y="297.3467">alt</text><text fill="#000000" font-family="sans-serif" font-size="11" font-weight="bold" lengthAdjust="spacing" textLength="90" x="79" y="296.1885">[floor not found]</text><polygon fill="#181818" points="11,320.9004,1,324.9004,11,328.9004,7,324.9004" style="stroke:#181818;stroke-width:1.0;"/><line style="stroke:#181818;stroke-width:1.0;stroke-dasharray:2.0,2.0;" x1="5" x2="360" y1="324.9004" y2="324.9004"/><text fill="#000000" font-family="sans-serif" font-size="13" font-weight="bold" lengthAdjust="spacing" textLength="7" x="17" y="319.6377">4</text><text fill="#000000" font-family="sans-serif" font-size="13" lengthAdjust="spacing" textLength="163" x="28" y="319.6377">Response status code - 404</text><line style="stroke:#000000;stroke-width:1.0;stroke-dasharray:2.0,2.0;" x1="3" x2="426" y1="333.9004" y2="333.9004"/><text fill="#000000" font-family="sans-serif" font-size="11" font-weight="bold" lengthAdjust="spacing" textLength="122" x="8" y="345.7705">[database unavailable]</text><polygon fill="#181818" points="11,368.8223,1,372.8223,11,376.8223,7,372.8223" style="stroke:#181818;stroke-width:1.0;"/><line style="stroke:#181818;stroke-width:1.0;stroke-dasharray:2.0,2.0;" x1="5" x2="360" y1="372.8223" y2="372.8223"/><text fill="#000000" font-family="sans-serif" font-size="13" font-weight="bold" lengthAdjust="spacing" textLength="7" x="17" y="367.5596">5</text><text fill="#000000" font-family="sans-serif" font-size="13" lengthAdjust="spacing" textLength="163" x="28" y="367.5596">Response status code - 503</text><polygon fill="#181818" points="589,407.1133,599,411.1133,589,415.1133,593,411.1133" style="stroke:#181818;stroke-width:1.0;"/><line style="stroke:#181818;stroke-width:1.0;" x1="371" x2="595" y1="411.1133" y2="411.1133"/><text fill="#000000" font-family="sans-serif" font-size="13" font-weight="bold" lengthAdjust="spacing" textLength="7" x="378" y="405.8506">6</text><text fill="#000000" font-family="sans-serif" font-size="13" lengthAdjust="spacing" textLength="200" x="389" y="405.8506">find by floor number and building id</text><polygon fill="#181818" points="382,438.4043,372,442.4043,382,446.4043,378,442.4043" style="stroke:#181818;stroke-width:1.0;"/><line style="stroke:#181818;stroke-width:1.0;stroke-dasharray:2.0,2.0;" x1="376" x2="605" y1="442.4043" y2="442.4043"/><text fill="#000000" font-family="sans-serif" font-size="13" font-weight="bold" lengthAdjust="spacing" textLength="7" x="388" y="437.1416">7</text><text fill="#000000" font-family="sans-serif" font-size="13" lengthAdjust="spacing" textLength="4" x="399" y="437.1416">&#160;</text><path d="M3,457.4043 L64,457.4043 L64,466.6953 L54,476.6953 L3,476.6953 L3,457.4043 " fill="#EEEEEE" style="stroke:#000000;stroke-width:1.5;"/><rect fill="none" height="98.5039" style="stroke:#000000;stroke-width:1.5;" width="423" x="3" y="457.4043"/><text fill="#000000" font-family="sans-serif" font-size="13" font-weight="bold" lengthAdjust="spacing" textLength="16" x="18" y="472.4326">alt</text><text fill="#000000" font-family="sans-serif" font-size="11" font-weight="bold" lengthAdjust="spacing" textLength="114" x="79" y="471.2744">[floor already exists]</text><polygon fill="#181818" points="11,495.9863,1,499.9863,11,503.9863,7,499.9863" style="stroke:#181818;stroke-width:1.0;"/><line style="stroke:#181818;stroke-width:1.0;stroke-dasharray:2.0,2.0;" x1="5" x2="360" y1="499.9863" y2="499.9863"/><text fill="#000000" font-family="sans-serif" font-size="13" font-weight="bold" lengthAdjust="spacing" textLength="7" x="17" y="494.7236">8</text><text fill="#000000" font-family="sans-serif" font-size="13" lengthAdjust="spacing" textLength="163" x="28" y="494.7236">Response status code - 409</text><line style="stroke:#000000;stroke-width:1.0;stroke-dasharray:2.0,2.0;" x1="3" x2="426" y1="508.9863" y2="508.9863"/><text fill="#000000" font-family="sans-serif" font-size="11" font-weight="bold" lengthAdjust="spacing" textLength="122" x="8" y="520.8564">[database unavailable]</text><polygon fill="#181818" points="11,543.9082,1,547.9082,11,551.9082,7,547.9082" style="stroke:#181818;stroke-width:1.0;"/><line style="stroke:#181818;stroke-width:1.0;stroke-dasharray:2.0,2.0;" x1="5" x2="360" y1="547.9082" y2="547.9082"/><text fill="#000000" font-family="sans-serif" font-size="13" font-weight="bold" lengthAdjust="spacing" textLength="7" x="17" y="542.6455">9</text><text fill="#000000" font-family="sans-serif" font-size="13" lengthAdjust="spacing" textLength="163" x="28" y="542.6455">Response status code - 503</text><polygon fill="#181818" points="589,582.1992,599,586.1992,589,590.1992,593,586.1992" style="stroke:#181818;stroke-width:1.0;"/><line style="stroke:#181818;stroke-width:1.0;" x1="371" x2="595" y1="586.1992" y2="586.1992"/><text fill="#000000" font-family="sans-serif" font-size="13" font-weight="bold" lengthAdjust="spacing" textLength="14" x="378" y="580.9365">10</text><text fill="#000000" font-family="sans-serif" font-size="13" lengthAdjust="spacing" textLength="26" x="396" y="580.9365">save</text><polygon fill="#181818" points="382,613.4902,372,617.4902,382,621.4902,378,617.4902" style="stroke:#181818;stroke-width:1.0;"/><line style="stroke:#181818;stroke-width:1.0;stroke-dasharray:2.0,2.0;" x1="376" x2="605" y1="617.4902" y2="617.4902"/><text fill="#000000" font-family="sans-serif" font-size="13" font-weight="bold" lengthAdjust="spacing" textLength="14" x="388" y="612.2275">11</text><text fill="#000000" font-family="sans-serif" font-size="13" lengthAdjust="spacing" textLength="4" x="406" y="612.2275">&#160;</text><path d="M3,632.4902 L64,632.4902 L64,641.7813 L54,651.7813 L3,651.7813 L3,632.4902 " fill="#EEEEEE" style="stroke:#000000;stroke-width:1.5;"/><rect fill="none" height="98.5039" style="stroke:#000000;stroke-width:1.5;" width="423" x="3" y="632.4902"/><text fill="#000000" font-family="sans-serif" font-size="13" font-weight="bold" lengthAdjust="spacing" textLength="16" x="18" y="647.5186">alt</text><text fill="#000000" font-family="sans-serif" font-size="11" font-weight="bold" lengthAdjust="spacing" textLength="91" x="79" y="646.3604">[floor persisted]</text><polygon fill="#181818" points="11,671.0723,1,675.0723,11,679.0723,7,675.0723" style="stroke:#181818;stroke-width:1.0;"/><line style="stroke:#181818;stroke-width:1.0;stroke-dasharray:2.0,2.0;" x1="5" x2="360" y1="675.0723" y2="675.0723"/><text fill="#000000" font-family="sans-serif" font-size="13" font-weight="bold" lengthAdjust="spacing" textLength="14" x="17" y="669.8096">12</text><text fill="#000000" font-family="sans-serif" font-size="13" lengthAdjust="spacing" textLength="163" x="35" y="669.8096">Response status code - 200</text><line style="stroke:#000000;stroke-width:1.0;stroke-dasharray:2.0,2.0;" x1="3" x2="426" y1="684.0723" y2="684.0723"/><text fill="#000000" font-family="sans-serif" font-size="11" font-weight="bold" lengthAdjust="spacing" textLength="122" x="8" y="695.9424">[database unavailable]</text><polygon fill="#181818" points="11,718.9941,1,722.9941,11,726.9941,7,722.9941" style="stroke:#181818;stroke-width:1.0;"/><line style="stroke:#181818;stroke-width:1.0;stroke-dasharray:2.0,2.0;" x1="5" x2="360" y1="722.9941" y2="722.9941"/><text fill="#000000" font-family="sans-serif" font-size="13" font-weight="bold" lengthAdjust="spacing" textLength="14" x="17" y="717.7314">13</text><text fill="#000000" font-family="sans-serif" font-size="13" lengthAdjust="spacing" textLength="163" x="35" y="717.7314">Response status code - 503</text><line style="stroke:#000000;stroke-width:1.0;stroke-dasharray:2.0,2.0;" x1="3" x2="662" y1="738.9941" y2="738.9941"/><text fill="#000000" font-family="sans-serif" font-size="11" font-weight="bold" lengthAdjust="spacing" textLength="110" x="8" y="750.8643">[user unauthorized]</text><polygon fill="#181818" points="11,773.916,1,777.916,11,781.916,7,777.916" style="stroke:#181818;stroke-width:1.0;"/><line style="stroke:#181818;stroke-width:1.0;stroke-dasharray:2.0,2.0;" x1="5" x2="360" y1="777.916" y2="777.916"/><text fill="#000000" font-family="sans-serif" font-size="13" font-weight="bold" lengthAdjust="spacing" textLength="14" x="17" y="772.6533">14</text><text fill="#000000" font-family="sans-serif" font-size="13" lengthAdjust="spacing" textLength="163" x="35" y="772.6533">Response status code - 401</text><!--SRC=[hL9DIyD04BtFhnXwyMAmVXsKKZ6ceY1IrAENQNRKnUrks9qKg_ZVdIIjr89GYwUydNtpPjxBKYt1rzC9HqYlrbSKQOeLbQ_qpFSoTuoHIm4GAuf7nWfUkX3YtaqWqq4SE_80sYgsj1LvmLwk2jd8cnvImdo4Wq4PfbNmx6Ku14D24qgClK9HhgZb5VaQ3xAXDf_Y-FpXuWgVcc5fxwFzthOxdvtYocaN7trtBZYLqLPYWrzILagxNQLPUtdRu4y0Se9rueXKoqk8zfqDmCwbzGOdyuNRws97YQNO6GdhUW3gJnSjSjLQC5jDj6Q5MEG0QZ3hB04O_d7LJEwwV50KQg_DY8CiQnEuuwIfQ699IEg4PJ2C6HxrZm3OQVqxqjhJZAoZYUCD18xxXohGp5gtsKMAvrhBQ-kCzSz_iDuzAQIcjkpUBWvoaSdCaTziahHH9YV_bialNXFDU1il5SUaBdYJNtlGx_-NZLQbVTQgiFAmDuXolvFu0W00]--></g></svg>