<?xml version="1.0" encoding="us-ascii" standalone="no"?><svg xmlns="http://www.w3.org/2000/svg" xmlns:xlink="http://www.w3.org/1999/xlink" contentStyleType="text/css" height="628px" preserveAspectRatio="none" style="width:620px;height:628px;background:#FFFFFF;" version="1.1" viewBox="0 0 620 628" width="620px" zoomAndPan="magnify"><defs/><g><text fill="#000000" font-family="sans-serif" font-size="14" font-weight="bold" lengthAdjust="spacing" textLength="234" x="194.75" y="30.1074">List Building Floors With Passage</text><rect fill="#FFFFFF" height="359.1719" style="stroke:#181818;stroke-width:1.0;" width="10" x="302" y="161.1543"/><rect fill="#FFFFFF" height="31.291" style="stroke:#181818;stroke-width:1.0;" width="10" x="557" y="192.4453"/><rect fill="#FFFFFF" height="31.291" style="stroke:#181818;stroke-width:1.0;" width="10" x="557" y="367.5313"/><rect fill="none" height="98.5039" style="stroke:#000000;stroke-width:1.5;" width="367" x="3" y="238.7363"/><rect fill="none" height="98.5039" style="stroke:#000000;stroke-width:1.5;" width="367" x="3" y="413.8223"/><line style="stroke:#181818;stroke-width:0.5;stroke-dasharray:5.0,5.0;" x1="307" x2="307" y1="127.8633" y2="529.3262"/><line style="stroke:#181818;stroke-width:0.5;stroke-dasharray:5.0,5.0;" x1="561.5" x2="561.5" y1="127.8633" y2="529.3262"/><rect fill="#E2E2F0" height="51.2422" rx="2.5" ry="2.5" style="stroke:#181818;stroke-width:0.5;" width="106" x="254" y="75.6211"/><text fill="#000000" font-family="sans-serif" font-size="14" font-style="italic" lengthAdjust="spacing" textLength="86" x="264" y="97.7285">&#171;component&#187;</text><text fill="#000000" font-family="sans-serif" font-size="14" lengthAdjust="spacing" textLength="92" x="261" y="116.3496">Node Backend</text><rect fill="#E2E2F0" height="51.2422" rx="2.5" ry="2.5" style="stroke:#181818;stroke-width:0.5;" width="106" x="254" y="528.3262"/><text fill="#000000" font-family="sans-serif" font-size="14" font-style="italic" lengthAdjust="spacing" textLength="86" x="264" y="550.4336">&#171;component&#187;</text><text fill="#000000" font-family="sans-serif" font-size="14" lengthAdjust="spacing" textLength="92" x="261" y="569.0547">Node Backend</text><text fill="#000000" font-family="sans-serif" font-size="14" font-style="italic" lengthAdjust="spacing" textLength="86" x="516" y="105.7285">&#171;component&#187;</text><text fill="#000000" font-family="sans-serif" font-size="14" lengthAdjust="spacing" textLength="109" x="504.5" y="124.3496">Mongo DataBase</text><path d="M544,54.6211 C544,44.6211 562,44.6211 562,44.6211 C562,44.6211 580,44.6211 580,54.6211 L580,80.6211 C580,90.6211 562,90.6211 562,90.6211 C562,90.6211 544,90.6211 544,80.6211 L544,54.6211 " fill="#E2E2F0" style="stroke:#181818;stroke-width:1.5;"/><path d="M544,54.6211 C544,64.6211 562,64.6211 562,64.6211 C562,64.6211 580,64.6211 580,54.6211 " fill="none" style="stroke:#181818;stroke-width:1.5;"/><text fill="#000000" font-family="sans-serif" font-size="14" font-style="italic" lengthAdjust="spacing" textLength="86" x="516" y="543.4336">&#171;component&#187;</text><text fill="#000000" font-family="sans-serif" font-size="14" lengthAdjust="spacing" textLength="109" x="504.5" y="562.0547">Mongo DataBase</text><path d="M544,575.5684 C544,565.5684 562,565.5684 562,565.5684 C562,565.5684 580,565.5684 580,575.5684 L580,601.5684 C580,611.5684 562,611.5684 562,611.5684 C562,611.5684 544,611.5684 544,601.5684 L544,575.5684 " fill="#E2E2F0" style="stroke:#181818;stroke-width:1.5;"/><path d="M544,575.5684 C544,585.5684 562,585.5684 562,585.5684 C562,585.5684 580,585.5684 580,575.5684 " fill="none" style="stroke:#181818;stroke-width:1.5;"/><rect fill="#FFFFFF" height="359.1719" style="stroke:#181818;stroke-width:1.0;" width="10" x="302" y="161.1543"/><rect fill="#FFFFFF" height="31.291" style="stroke:#181818;stroke-width:1.0;" width="10" x="557" y="192.4453"/><rect fill="#FFFFFF" height="31.291" style="stroke:#181818;stroke-width:1.0;" width="10" x="557" y="367.5313"/><polygon fill="#181818" points="290,157.1543,300,161.1543,290,165.1543,294,161.1543" style="stroke:#181818;stroke-width:1.0;"/><line style="stroke:#181818;stroke-width:1.0;" x1="0" x2="296" y1="161.1543" y2="161.1543"/><text fill="#000000" font-family="sans-serif" font-size="13" font-weight="bold" lengthAdjust="spacing" textLength="7" x="7" y="155.8916">1</text><text fill="#000000" font-family="sans-serif" font-size="13" lengthAdjust="spacing" textLength="265" x="18" y="155.8916">GET floors/inBuilding/{buildingId}/withPassage</text><polygon fill="#181818" points="545,188.4453,555,192.4453,545,196.4453,549,192.4453" style="stroke:#181818;stroke-width:1.0;"/><line style="stroke:#181818;stroke-width:1.0;" x1="312" x2="551" y1="192.4453" y2="192.4453"/><text fill="#000000" font-family="sans-serif" font-size="13" font-weight="bold" lengthAdjust="spacing" textLength="7" x="319" y="187.1826">2</text><text fill="#000000" font-family="sans-serif" font-size="13" lengthAdjust="spacing" textLength="100" x="330" y="187.1826">find by building id</text><polygon fill="#181818" points="323,219.7363,313,223.7363,323,227.7363,319,223.7363" style="stroke:#181818;stroke-width:1.0;"/><line style="stroke:#181818;stroke-width:1.0;stroke-dasharray:2.0,2.0;" x1="317" x2="561" y1="223.7363" y2="223.7363"/><text fill="#000000" font-family="sans-serif" font-size="13" font-weight="bold" lengthAdjust="spacing" textLength="7" x="329" y="218.4736">3</text><text fill="#000000" font-family="sans-serif" font-size="13" lengthAdjust="spacing" textLength="4" x="340" y="218.4736">&#160;</text><path d="M3,238.7363 L64,238.7363 L64,248.0273 L54,258.0273 L3,258.0273 L3,238.7363 " fill="#EEEEEE" style="stroke:#000000;stroke-width:1.5;"/><rect fill="none" height="98.5039" style="stroke:#000000;stroke-width:1.5;" width="367" x="3" y="238.7363"/><text fill="#000000" font-family="sans-serif" font-size="13" font-weight="bold" lengthAdjust="spacing" textLength="16" x="18" y="253.7646">alt</text><text fill="#000000" font-family="sans-serif" font-size="11" font-weight="bold" lengthAdjust="spacing" textLength="108" x="79" y="252.6064">[building not found]</text><polygon fill="#181818" points="11,277.3184,1,281.3184,11,285.3184,7,281.3184" style="stroke:#181818;stroke-width:1.0;"/><line style="stroke:#181818;stroke-width:1.0;stroke-dasharray:2.0,2.0;" x1="5" x2="301" y1="281.3184" y2="281.3184"/><text fill="#000000" font-family="sans-serif" font-size="13" font-weight="bold" lengthAdjust="spacing" textLength="7" x="17" y="276.0557">4</text><text fill="#000000" font-family="sans-serif" font-size="13" lengthAdjust="spacing" textLength="163" x="28" y="276.0557">Response status code - 404</text><line style="stroke:#000000;stroke-width:1.0;stroke-dasharray:2.0,2.0;" x1="3" x2="370" y1="290.3184" y2="290.3184"/><text fill="#000000" font-family="sans-serif" font-size="11" font-weight="bold" lengthAdjust="spacing" textLength="122" x="8" y="302.1885">[database unavailable]</text><polygon fill="#181818" points="11,325.2402,1,329.2402,11,333.2402,7,329.2402" style="stroke:#181818;stroke-width:1.0;"/><line style="stroke:#181818;stroke-width:1.0;stroke-dasharray:2.0,2.0;" x1="5" x2="301" y1="329.2402" y2="329.2402"/><text fill="#000000" font-family="sans-serif" font-size="13" font-weight="bold" lengthAdjust="spacing" textLength="7" x="17" y="323.9775">5</text><text fill="#000000" font-family="sans-serif" font-size="13" lengthAdjust="spacing" textLength="163" x="28" y="323.9775">Response status code - 503</text><polygon fill="#181818" points="545,363.5313,555,367.5313,545,371.5313,549,367.5313" style="stroke:#181818;stroke-width:1.0;"/><line style="stroke:#181818;stroke-width:1.0;" x1="312" x2="551" y1="367.5313" y2="367.5313"/><text fill="#000000" font-family="sans-serif" font-size="13" font-weight="bold" lengthAdjust="spacing" textLength="7" x="319" y="362.2686">6</text><text fill="#000000" font-family="sans-serif" font-size="13" lengthAdjust="spacing" textLength="215" x="330" y="362.2686">find floors with passage by building id</text><polygon fill="#181818" points="323,394.8223,313,398.8223,323,402.8223,319,398.8223" style="stroke:#181818;stroke-width:1.0;"/><line style="stroke:#181818;stroke-width:1.0;stroke-dasharray:2.0,2.0;" x1="317" x2="561" y1="398.8223" y2="398.8223"/><text fill="#000000" font-family="sans-serif" font-size="13" font-weight="bold" lengthAdjust="spacing" textLength="7" x="329" y="393.5596">7</text><text fill="#000000" font-family="sans-serif" font-size="13" lengthAdjust="spacing" textLength="4" x="340" y="393.5596">&#160;</text><path d="M3,413.8223 L64,413.8223 L64,423.1133 L54,433.1133 L3,433.1133 L3,413.8223 " fill="#EEEEEE" style="stroke:#000000;stroke-width:1.5;"/><rect fill="none" height="98.5039" style="stroke:#000000;stroke-width:1.5;" width="367" x="3" y="413.8223"/><text fill="#000000" font-family="sans-serif" font-size="13" font-weight="bold" lengthAdjust="spacing" textLength="16" x="18" y="428.8506">alt</text><text fill="#000000" font-family="sans-serif" font-size="11" font-weight="bold" lengthAdjust="spacing" textLength="152" x="79" y="427.6924">[floors with passage listed]</text><polygon fill="#181818" points="11,452.4043,1,456.4043,11,460.4043,7,456.4043" style="stroke:#181818;stroke-width:1.0;"/><line style="stroke:#181818;stroke-width:1.0;stroke-dasharray:2.0,2.0;" x1="5" x2="301" y1="456.4043" y2="456.4043"/><text fill="#000000" font-family="sans-serif" font-size="13" font-weight="bold" lengthAdjust="spacing" textLength="7" x="17" y="451.1416">8</text><text fill="#000000" font-family="sans-serif" font-size="13" lengthAdjust="spacing" textLength="163" x="28" y="451.1416">Response status code - 200</text><line style="stroke:#000000;stroke-width:1.0;stroke-dasharray:2.0,2.0;" x1="3" x2="370" y1="465.4043" y2="465.4043"/><text fill="#000000" font-family="sans-serif" font-size="11" font-weight="bold" lengthAdjust="spacing" textLength="122" x="8" y="477.2744">[database unavailable]</text><polygon fill="#181818" points="11,500.3262,1,504.3262,11,508.3262,7,504.3262" style="stroke:#181818;stroke-width:1.0;"/><line style="stroke:#181818;stroke-width:1.0;stroke-dasharray:2.0,2.0;" x1="5" x2="301" y1="504.3262" y2="504.3262"/><text fill="#000000" font-family="sans-serif" font-size="13" font-weight="bold" lengthAdjust="spacing" textLength="7" x="17" y="499.0635">9</text><text fill="#000000" font-family="sans-serif" font-size="13" lengthAdjust="spacing" textLength="163" x="28" y="499.0635">Response status code - 503</text><!--SRC=[hP9DRy8m38Rl_XKM5quLrSOk27682XFIDariqivk4xg8a5IDouIc_VUPyj5zS43QRdPYltxpnDHmyCqwDpN4bVKLrRJ6YeeLbUQ9jyvWRGe6OCiItzd8g1hhjFKbpbm8TSGNow_uI35A2u0ei2riHPwnzn2qGILgnkiUKaGrnV6u2EigUEDvCW5DJ3b5WxtxuCk0cUHAyhOwKp-g8Pc8n0Xlfy-uRASFh3_w6RpdXsYkFmPlukfagZ-pNcE-xRpFCvpxBbsOAaJBeTxs0QXWko4MvrC0SIn3CpN2vK7ZE0Mj_bARAG3nc-mT0cZpxOeSTuq-C2v3uwKVSPmaxPiM9iexXKHauYPYiMENu30T0XWdvoTKZQSDMKUvCnS8tAJN8h2RrM4uytEeVj5fgov7i_yGt86N3TgB_WNNEJqd2sWkmNQLfl-4xHC0]--></g></svg>