<?xml version="1.0" encoding="us-ascii" standalone="no"?><svg xmlns="http://www.w3.org/2000/svg" xmlns:xlink="http://www.w3.org/1999/xlink" contentStyleType="text/css" height="1188px" preserveAspectRatio="none" style="width:732px;height:1188px;background:#FFFFFF;" version="1.1" viewBox="0 0 732 1188" width="732px" zoomAndPan="magnify"><defs/><g><text fill="#000000" font-family="sans-serif" font-size="14" font-weight="bold" lengthAdjust="spacing" textLength="91" x="322.25" y="30.1074">Create Room</text><rect fill="#FFFFFF" height="884.4297" style="stroke:#181818;stroke-width:1.0;" width="10" x="429" y="195.7363"/><rect fill="#FFFFFF" height="31.291" style="stroke:#181818;stroke-width:1.0;" width="10" x="669" y="227.0273"/><rect fill="#FFFFFF" height="31.291" style="stroke:#181818;stroke-width:1.0;" width="10" x="669" y="402.1133"/><rect fill="#FFFFFF" height="31.291" style="stroke:#181818;stroke-width:1.0;" width="10" x="669" y="577.1992"/><rect fill="#FFFFFF" height="31.291" style="stroke:#181818;stroke-width:1.0;" width="10" x="669" y="752.2852"/><rect fill="#FFFFFF" height="31.291" style="stroke:#181818;stroke-width:1.0;" width="10" x="669" y="927.3711"/><rect fill="none" height="98.5039" style="stroke:#000000;stroke-width:1.5;" width="494" x="3" y="273.3184"/><rect fill="none" height="98.5039" style="stroke:#000000;stroke-width:1.5;" width="494" x="3" y="448.4043"/><rect fill="none" height="98.5039" style="stroke:#000000;stroke-width:1.5;" width="494" x="3" y="623.4902"/><rect fill="none" height="98.5039" style="stroke:#000000;stroke-width:1.5;" width="494" x="3" y="798.5762"/><rect fill="none" height="98.5039" style="stroke:#000000;stroke-width:1.5;" width="494" x="3" y="973.6621"/><line style="stroke:#181818;stroke-width:0.5;stroke-dasharray:5.0,5.0;" x1="434" x2="434" y1="127.8633" y2="1089.166"/><line style="stroke:#181818;stroke-width:0.5;stroke-dasharray:5.0,5.0;" x1="673.5" x2="673.5" y1="127.8633" y2="1089.166"/><rect fill="#E2E2F0" height="51.2422" rx="2.5" ry="2.5" style="stroke:#181818;stroke-width:0.5;" width="106" x="381" y="75.6211"/><text fill="#000000" font-family="sans-serif" font-size="14" font-style="italic" lengthAdjust="spacing" textLength="86" x="391" y="97.7285">&#171;component&#187;</text><text fill="#000000" font-family="sans-serif" font-size="14" lengthAdjust="spacing" textLength="92" x="388" y="116.3496">Node Backend</text><rect fill="#E2E2F0" height="51.2422" rx="2.5" ry="2.5" style="stroke:#181818;stroke-width:0.5;" width="106" x="381" y="1088.166"/><text fill="#000000" font-family="sans-serif" font-size="14" font-style="italic" lengthAdjust="spacing" textLength="86" x="391" y="1110.2734">&#171;component&#187;</text><text fill="#000000" font-family="sans-serif" font-size="14" lengthAdjust="spacing" textLength="92" x="388" y="1128.8945">Node Backend</text><text fill="#000000" font-family="sans-serif" font-size="14" font-style="italic" lengthAdjust="spacing" textLength="86" x="628" y="105.7285">&#171;component&#187;</text><text fill="#000000" font-family="sans-serif" font-size="14" lengthAdjust="spacing" textLength="109" x="616.5" y="124.3496">Mongo DataBase</text><path d="M656,54.6211 C656,44.6211 674,44.6211 674,44.6211 C674,44.6211 692,44.6211 692,54.6211 L692,80.6211 C692,90.6211 674,90.6211 674,90.6211 C674,90.6211 656,90.6211 656,80.6211 L656,54.6211 " fill="#E2E2F0" style="stroke:#181818;stroke-width:1.5;"/><path d="M656,54.6211 C656,64.6211 674,64.6211 674,64.6211 C674,64.6211 692,64.6211 692,54.6211 " fill="none" style="stroke:#181818;stroke-width:1.5;"/><text fill="#000000" font-family="sans-serif" font-size="14" font-style="italic" lengthAdjust="spacing" textLength="86" x="628" y="1103.2734">&#171;component&#187;</text><text fill="#000000" font-family="sans-serif" font-size="14" lengthAdjust="spacing" textLength="109" x="616.5" y="1121.8945">Mongo DataBase</text><path d="M656,1135.4082 C656,1125.4082 674,1125.4082 674,1125.4082 C674,1125.4082 692,1125.4082 692,1135.4082 L692,1161.4082 C692,1171.4082 674,1171.4082 674,1171.4082 C674,1171.4082 656,1171.4082 656,1161.4082 L656,1135.4082 " fill="#E2E2F0" style="stroke:#181818;stroke-width:1.5;"/><path d="M656,1135.4082 C656,1145.4082 674,1145.4082 674,1145.4082 C674,1145.4082 692,1145.4082 692,1135.4082 " fill="none" style="stroke:#181818;stroke-width:1.5;"/><rect fill="#FFFFFF" height="884.4297" style="stroke:#181818;stroke-width:1.0;" width="10" x="429" y="195.7363"/><rect fill="#FFFFFF" height="31.291" style="stroke:#181818;stroke-width:1.0;" width="10" x="669" y="227.0273"/><rect fill="#FFFFFF" height="31.291" style="stroke:#181818;stroke-width:1.0;" width="10" x="669" y="402.1133"/><rect fill="#FFFFFF" height="31.291" style="stroke:#181818;stroke-width:1.0;" width="10" x="669" y="577.1992"/><rect fill="#FFFFFF" height="31.291" style="stroke:#181818;stroke-width:1.0;" width="10" x="669" y="752.2852"/><rect fill="#FFFFFF" height="31.291" style="stroke:#181818;stroke-width:1.0;" width="10" x="669" y="927.3711"/><polygon fill="#181818" points="417,191.7363,427,195.7363,417,199.7363,421,195.7363" style="stroke:#181818;stroke-width:1.0;"/><line style="stroke:#181818;stroke-width:1.0;" x1="0" x2="423" y1="195.7363" y2="195.7363"/><text fill="#000000" font-family="sans-serif" font-size="13" font-weight="bold" lengthAdjust="spacing" textLength="7" x="7" y="173.1826">1</text><text fill="#000000" font-family="sans-serif" font-size="13" lengthAdjust="spacing" textLength="301" x="18" y="155.8916">POST room/{domainId?: domainId, name: buildingId,</text><text fill="#000000" font-family="sans-serif" font-size="13" lengthAdjust="spacing" textLength="306" x="22" y="173.1826">description: floorNumber, category?: floorDescription,</text><text fill="#000000" font-family="sans-serif" font-size="13" lengthAdjust="spacing" textLength="388" x="22" y="190.4736">dimensions: dimensions, doorPosition: doorPosition, floorId: floorId}</text><polygon fill="#181818" points="657,223.0273,667,227.0273,657,231.0273,661,227.0273" style="stroke:#181818;stroke-width:1.0;"/><line style="stroke:#181818;stroke-width:1.0;" x1="439" x2="663" y1="227.0273" y2="227.0273"/><text fill="#000000" font-family="sans-serif" font-size="13" font-weight="bold" lengthAdjust="spacing" textLength="7" x="446" y="221.7646">2</text><text fill="#000000" font-family="sans-serif" font-size="13" lengthAdjust="spacing" textLength="85" x="457" y="221.7646">find by room id</text><polygon fill="#181818" points="450,254.3184,440,258.3184,450,262.3184,446,258.3184" style="stroke:#181818;stroke-width:1.0;"/><line style="stroke:#181818;stroke-width:1.0;stroke-dasharray:2.0,2.0;" x1="444" x2="673" y1="258.3184" y2="258.3184"/><text fill="#000000" font-family="sans-serif" font-size="13" font-weight="bold" lengthAdjust="spacing" textLength="7" x="456" y="253.0557">3</text><text fill="#000000" font-family="sans-serif" font-size="13" lengthAdjust="spacing" textLength="4" x="467" y="253.0557">&#160;</text><path d="M3,273.3184 L64,273.3184 L64,282.6094 L54,292.6094 L3,292.6094 L3,273.3184 " fill="#EEEEEE" style="stroke:#000000;stroke-width:1.5;"/><rect fill="none" height="98.5039" style="stroke:#000000;stroke-width:1.5;" width="494" x="3" y="273.3184"/><text fill="#000000" font-family="sans-serif" font-size="13" font-weight="bold" lengthAdjust="spacing" textLength="16" x="18" y="288.3467">alt</text><text fill="#000000" font-family="sans-serif" font-size="11" font-weight="bold" lengthAdjust="spacing" textLength="191" x="79" y="287.1885">[room with given id already exists]</text><polygon fill="#181818" points="11,311.9004,1,315.9004,11,319.9004,7,315.9004" style="stroke:#181818;stroke-width:1.0;"/><line style="stroke:#181818;stroke-width:1.0;stroke-dasharray:2.0,2.0;" x1="5" x2="428" y1="315.9004" y2="315.9004"/><text fill="#000000" font-family="sans-serif" font-size="13" font-weight="bold" lengthAdjust="spacing" textLength="7" x="17" y="310.6377">4</text><text fill="#000000" font-family="sans-serif" font-size="13" lengthAdjust="spacing" textLength="163" x="28" y="310.6377">Response status code - 409</text><line style="stroke:#000000;stroke-width:1.0;stroke-dasharray:2.0,2.0;" x1="3" x2="497" y1="324.9004" y2="324.9004"/><text fill="#000000" font-family="sans-serif" font-size="11" font-weight="bold" lengthAdjust="spacing" textLength="123" x="8" y="336.7705">[database unaveilable]</text><polygon fill="#181818" points="11,359.8223,1,363.8223,11,367.8223,7,363.8223" style="stroke:#181818;stroke-width:1.0;"/><line style="stroke:#181818;stroke-width:1.0;stroke-dasharray:2.0,2.0;" x1="5" x2="428" y1="363.8223" y2="363.8223"/><text fill="#000000" font-family="sans-serif" font-size="13" font-weight="bold" lengthAdjust="spacing" textLength="7" x="17" y="358.5596">5</text><text fill="#000000" font-family="sans-serif" font-size="13" lengthAdjust="spacing" textLength="163" x="28" y="358.5596">Response status code - 503</text><polygon fill="#181818" points="657,398.1133,667,402.1133,657,406.1133,661,402.1133" style="stroke:#181818;stroke-width:1.0;"/><line style="stroke:#181818;stroke-width:1.0;" x1="439" x2="663" y1="402.1133" y2="402.1133"/><text fill="#000000" font-family="sans-serif" font-size="13" font-weight="bold" lengthAdjust="spacing" textLength="7" x="446" y="396.8506">6</text><text fill="#000000" font-family="sans-serif" font-size="13" lengthAdjust="spacing" textLength="80" x="457" y="396.8506">find by floor id</text><polygon fill="#181818" points="450,429.4043,440,433.4043,450,437.4043,446,433.4043" style="stroke:#181818;stroke-width:1.0;"/><line style="stroke:#181818;stroke-width:1.0;stroke-dasharray:2.0,2.0;" x1="444" x2="673" y1="433.4043" y2="433.4043"/><text fill="#000000" font-family="sans-serif" font-size="13" font-weight="bold" lengthAdjust="spacing" textLength="7" x="456" y="428.1416">7</text><text fill="#000000" font-family="sans-serif" font-size="13" lengthAdjust="spacing" textLength="4" x="467" y="428.1416">&#160;</text><path d="M3,448.4043 L64,448.4043 L64,457.6953 L54,467.6953 L3,467.6953 L3,448.4043 " fill="#EEEEEE" style="stroke:#000000;stroke-width:1.5;"/><rect fill="none" height="98.5039" style="stroke:#000000;stroke-width:1.5;" width="494" x="3" y="448.4043"/><text fill="#000000" font-family="sans-serif" font-size="13" font-weight="bold" lengthAdjust="spacing" textLength="16" x="18" y="463.4326">alt</text><text fill="#000000" font-family="sans-serif" font-size="11" font-weight="bold" lengthAdjust="spacing" textLength="114" x="79" y="462.2744">[floor already exists]</text><polygon fill="#181818" points="11,486.9863,1,490.9863,11,494.9863,7,490.9863" style="stroke:#181818;stroke-width:1.0;"/><line style="stroke:#181818;stroke-width:1.0;stroke-dasharray:2.0,2.0;" x1="5" x2="428" y1="490.9863" y2="490.9863"/><text fill="#000000" font-family="sans-serif" font-size="13" font-weight="bold" lengthAdjust="spacing" textLength="7" x="17" y="485.7236">8</text><text fill="#000000" font-family="sans-serif" font-size="13" lengthAdjust="spacing" textLength="163" x="28" y="485.7236">Response status code - 409</text><line style="stroke:#000000;stroke-width:1.0;stroke-dasharray:2.0,2.0;" x1="3" x2="497" y1="499.9863" y2="499.9863"/><text fill="#000000" font-family="sans-serif" font-size="11" font-weight="bold" lengthAdjust="spacing" textLength="123" x="8" y="511.8564">[database unaveilable]</text><polygon fill="#181818" points="11,534.9082,1,538.9082,11,542.9082,7,538.9082" style="stroke:#181818;stroke-width:1.0;"/><line style="stroke:#181818;stroke-width:1.0;stroke-dasharray:2.0,2.0;" x1="5" x2="428" y1="538.9082" y2="538.9082"/><text fill="#000000" font-family="sans-serif" font-size="13" font-weight="bold" lengthAdjust="spacing" textLength="7" x="17" y="533.6455">9</text><text fill="#000000" font-family="sans-serif" font-size="13" lengthAdjust="spacing" textLength="163" x="28" y="533.6455">Response status code - 503</text><polygon fill="#181818" points="657,573.1992,667,577.1992,657,581.1992,661,577.1992" style="stroke:#181818;stroke-width:1.0;"/><line style="stroke:#181818;stroke-width:1.0;" x1="439" x2="663" y1="577.1992" y2="577.1992"/><text fill="#000000" font-family="sans-serif" font-size="13" font-weight="bold" lengthAdjust="spacing" textLength="14" x="446" y="571.9365">10</text><text fill="#000000" font-family="sans-serif" font-size="13" lengthAdjust="spacing" textLength="74" x="464" y="571.9365">find by name</text><polygon fill="#181818" points="450,604.4902,440,608.4902,450,612.4902,446,608.4902" style="stroke:#181818;stroke-width:1.0;"/><line style="stroke:#181818;stroke-width:1.0;stroke-dasharray:2.0,2.0;" x1="444" x2="673" y1="608.4902" y2="608.4902"/><text fill="#000000" font-family="sans-serif" font-size="13" font-weight="bold" lengthAdjust="spacing" textLength="14" x="456" y="603.2275">11</text><text fill="#000000" font-family="sans-serif" font-size="13" lengthAdjust="spacing" textLength="4" x="474" y="603.2275">&#160;</text><path d="M3,623.4902 L64,623.4902 L64,632.7813 L54,642.7813 L3,642.7813 L3,623.4902 " fill="#EEEEEE" style="stroke:#000000;stroke-width:1.5;"/><rect fill="none" height="98.5039" style="stroke:#000000;stroke-width:1.5;" width="494" x="3" y="623.4902"/><text fill="#000000" font-family="sans-serif" font-size="13" font-weight="bold" lengthAdjust="spacing" textLength="16" x="18" y="638.5186">alt</text><text fill="#000000" font-family="sans-serif" font-size="11" font-weight="bold" lengthAdjust="spacing" textLength="212" x="79" y="637.3604">[room with given name already exists]</text><polygon fill="#181818" points="11,662.0723,1,666.0723,11,670.0723,7,666.0723" style="stroke:#181818;stroke-width:1.0;"/><line style="stroke:#181818;stroke-width:1.0;stroke-dasharray:2.0,2.0;" x1="5" x2="428" y1="666.0723" y2="666.0723"/><text fill="#000000" font-family="sans-serif" font-size="13" font-weight="bold" lengthAdjust="spacing" textLength="14" x="17" y="660.8096">12</text><text fill="#000000" font-family="sans-serif" font-size="13" lengthAdjust="spacing" textLength="163" x="35" y="660.8096">Response status code - 409</text><line style="stroke:#000000;stroke-width:1.0;stroke-dasharray:2.0,2.0;" x1="3" x2="497" y1="675.0723" y2="675.0723"/><text fill="#000000" font-family="sans-serif" font-size="11" font-weight="bold" lengthAdjust="spacing" textLength="123" x="8" y="686.9424">[database unaveilable]</text><polygon fill="#181818" points="11,709.9941,1,713.9941,11,717.9941,7,713.9941" style="stroke:#181818;stroke-width:1.0;"/><line style="stroke:#181818;stroke-width:1.0;stroke-dasharray:2.0,2.0;" x1="5" x2="428" y1="713.9941" y2="713.9941"/><text fill="#000000" font-family="sans-serif" font-size="13" font-weight="bold" lengthAdjust="spacing" textLength="14" x="17" y="708.7314">13</text><text fill="#000000" font-family="sans-serif" font-size="13" lengthAdjust="spacing" textLength="163" x="35" y="708.7314">Response status code - 503</text><polygon fill="#181818" points="657,748.2852,667,752.2852,657,756.2852,661,752.2852" style="stroke:#181818;stroke-width:1.0;"/><line style="stroke:#181818;stroke-width:1.0;" x1="439" x2="663" y1="752.2852" y2="752.2852"/><text fill="#000000" font-family="sans-serif" font-size="13" font-weight="bold" lengthAdjust="spacing" textLength="14" x="446" y="747.0225">14</text><text fill="#000000" font-family="sans-serif" font-size="13" lengthAdjust="spacing" textLength="193" x="464" y="747.0225">check if room exists in given area</text><polygon fill="#181818" points="450,779.5762,440,783.5762,450,787.5762,446,783.5762" style="stroke:#181818;stroke-width:1.0;"/><line style="stroke:#181818;stroke-width:1.0;stroke-dasharray:2.0,2.0;" x1="444" x2="673" y1="783.5762" y2="783.5762"/><text fill="#000000" font-family="sans-serif" font-size="13" font-weight="bold" lengthAdjust="spacing" textLength="14" x="456" y="778.3135">15</text><text fill="#000000" font-family="sans-serif" font-size="13" lengthAdjust="spacing" textLength="4" x="474" y="778.3135">&#160;</text><path d="M3,798.5762 L64,798.5762 L64,807.8672 L54,817.8672 L3,817.8672 L3,798.5762 " fill="#EEEEEE" style="stroke:#000000;stroke-width:1.5;"/><rect fill="none" height="98.5039" style="stroke:#000000;stroke-width:1.5;" width="494" x="3" y="798.5762"/><text fill="#000000" font-family="sans-serif" font-size="13" font-weight="bold" lengthAdjust="spacing" textLength="16" x="18" y="813.6045">alt</text><text fill="#000000" font-family="sans-serif" font-size="11" font-weight="bold" lengthAdjust="spacing" textLength="148" x="79" y="812.4463">[room exists in given area]</text><polygon fill="#181818" points="11,837.1582,1,841.1582,11,845.1582,7,841.1582" style="stroke:#181818;stroke-width:1.0;"/><line style="stroke:#181818;stroke-width:1.0;stroke-dasharray:2.0,2.0;" x1="5" x2="428" y1="841.1582" y2="841.1582"/><text fill="#000000" font-family="sans-serif" font-size="13" font-weight="bold" lengthAdjust="spacing" textLength="14" x="17" y="835.8955">16</text><text fill="#000000" font-family="sans-serif" font-size="13" lengthAdjust="spacing" textLength="163" x="35" y="835.8955">Response status code - 400</text><line style="stroke:#000000;stroke-width:1.0;stroke-dasharray:2.0,2.0;" x1="3" x2="497" y1="850.1582" y2="850.1582"/><text fill="#000000" font-family="sans-serif" font-size="11" font-weight="bold" lengthAdjust="spacing" textLength="123" x="8" y="862.0283">[database unaveilable]</text><polygon fill="#181818" points="11,885.0801,1,889.0801,11,893.0801,7,889.0801" style="stroke:#181818;stroke-width:1.0;"/><line style="stroke:#181818;stroke-width:1.0;stroke-dasharray:2.0,2.0;" x1="5" x2="428" y1="889.0801" y2="889.0801"/><text fill="#000000" font-family="sans-serif" font-size="13" font-weight="bold" lengthAdjust="spacing" textLength="14" x="17" y="883.8174">17</text><text fill="#000000" font-family="sans-serif" font-size="13" lengthAdjust="spacing" textLength="163" x="35" y="883.8174">Response status code - 503</text><polygon fill="#181818" points="657,923.3711,667,927.3711,657,931.3711,661,927.3711" style="stroke:#181818;stroke-width:1.0;"/><line style="stroke:#181818;stroke-width:1.0;" x1="439" x2="663" y1="927.3711" y2="927.3711"/><text fill="#000000" font-family="sans-serif" font-size="13" font-weight="bold" lengthAdjust="spacing" textLength="14" x="446" y="922.1084">18</text><text fill="#000000" font-family="sans-serif" font-size="13" lengthAdjust="spacing" textLength="26" x="464" y="922.1084">save</text><polygon fill="#181818" points="450,954.6621,440,958.6621,450,962.6621,446,958.6621" style="stroke:#181818;stroke-width:1.0;"/><line style="stroke:#181818;stroke-width:1.0;stroke-dasharray:2.0,2.0;" x1="444" x2="673" y1="958.6621" y2="958.6621"/><text fill="#000000" font-family="sans-serif" font-size="13" font-weight="bold" lengthAdjust="spacing" textLength="14" x="456" y="953.3994">19</text><text fill="#000000" font-family="sans-serif" font-size="13" lengthAdjust="spacing" textLength="4" x="474" y="953.3994">&#160;</text><path d="M3,973.6621 L64,973.6621 L64,982.9531 L54,992.9531 L3,992.9531 L3,973.6621 " fill="#EEEEEE" style="stroke:#000000;stroke-width:1.5;"/><rect fill="none" height="98.5039" style="stroke:#000000;stroke-width:1.5;" width="494" x="3" y="973.6621"/><text fill="#000000" font-family="sans-serif" font-size="13" font-weight="bold" lengthAdjust="spacing" textLength="16" x="18" y="988.6904">alt</text><text fill="#000000" font-family="sans-serif" font-size="11" font-weight="bold" lengthAdjust="spacing" textLength="95" x="79" y="987.5322">[room persisted]</text><polygon fill="#181818" points="11,1012.2441,1,1016.2441,11,1020.2441,7,1016.2441" style="stroke:#181818;stroke-width:1.0;"/><line style="stroke:#181818;stroke-width:1.0;stroke-dasharray:2.0,2.0;" x1="5" x2="428" y1="1016.2441" y2="1016.2441"/><text fill="#000000" font-family="sans-serif" font-size="13" font-weight="bold" lengthAdjust="spacing" textLength="14" x="17" y="1010.9814">20</text><text fill="#000000" font-family="sans-serif" font-size="13" lengthAdjust="spacing" textLength="163" x="35" y="1010.9814">Response status code - 201</text><line style="stroke:#000000;stroke-width:1.0;stroke-dasharray:2.0,2.0;" x1="3" x2="497" y1="1025.2441" y2="1025.2441"/><text fill="#000000" font-family="sans-serif" font-size="11" font-weight="bold" lengthAdjust="spacing" textLength="123" x="8" y="1037.1143">[database unaveilable]</text><polygon fill="#181818" points="11,1060.166,1,1064.166,11,1068.166,7,1064.166" style="stroke:#181818;stroke-width:1.0;"/><line style="stroke:#181818;stroke-width:1.0;stroke-dasharray:2.0,2.0;" x1="5" x2="428" y1="1064.166" y2="1064.166"/><text fill="#000000" font-family="sans-serif" font-size="13" font-weight="bold" lengthAdjust="spacing" textLength="14" x="17" y="1058.9033">21</text><text fill="#000000" font-family="sans-serif" font-size="13" lengthAdjust="spacing" textLength="163" x="35" y="1058.9033">Response status code - 503</text><!--SRC=[pLBBRjj03BppAmXVVB5GztMeO3Y0eWJmeMuGzzWBhMKKmjAkiBjoAnJzzr9ItBYFe6uQeBsHNCuiPqXgexDjlMKFOIUs8KyrDbJigEHDx2f6pqK4Y18rFlTCaV7QkHf0UwCKqf2DE5axmvWfZgsP80NCBd2nA5pTECisBfTWADAM0kFahREbmrppJFEXEyz-w8PagHGfNhtRl4Ul_ptxR5nDObVcBCL3E4DBDQUuRQKoOik-yi6YuL1uQQ8uc-9DvPnV3n9dMEZufVFTsLqzl-ySaLAp3Pg5z2YUwOVENxaW8-LnDXk9LYOz15y0ffTY3MwxmIbSvLC0AgBiU_Eo2m0rH_NbcMBk6dk9AEQeByy0r9PaD0B0y7TFLCKHz57YBPQoPwjuf4fNP3haJn9Y041S9CdWv3K7TLVz3v5Y6x3eDvRWg_aR0Awq_cr1hQKzIqNRYayWU3r_gGHMHx-NVTaxSPBkmRC_5ZwY_WEjMOThlS3Vw-plzE-MspFyMyamFR_bOeToCzxrE0IA7IP4qj4UDg8uGFtFK3jW7s7FhsbEC6N-T7UmKU33ieE-Fa9OmpweD3Od3FDY_lo9r7m5]--></g></svg>