<?xml version="1.0" encoding="us-ascii" standalone="no"?><svg xmlns="http://www.w3.org/2000/svg" xmlns:xlink="http://www.w3.org/1999/xlink" contentStyleType="text/css" height="1077px" preserveAspectRatio="none" style="width:707px;height:1077px;background:#FFFFFF;" version="1.1" viewBox="0 0 707 1077" width="707px" zoomAndPan="magnify"><defs/><g><text fill="#000000" font-family="sans-serif" font-size="14" font-weight="bold" lengthAdjust="spacing" textLength="88" x="310.5" y="30.1074">Create Floor</text><rect fill="#FFFFFF" height="790.5566" style="stroke:#181818;stroke-width:1.0;" width="10" x="392" y="178.4453"/><rect fill="#FFFFFF" height="31.291" style="stroke:#181818;stroke-width:1.0;" width="10" x="639" y="236.0273"/><rect fill="#FFFFFF" height="31.291" style="stroke:#181818;stroke-width:1.0;" width="10" x="639" y="411.1133"/><rect fill="#FFFFFF" height="31.291" style="stroke:#181818;stroke-width:1.0;" width="10" x="639" y="586.1992"/><rect fill="#FFFFFF" height="31.291" style="stroke:#181818;stroke-width:1.0;" width="10" x="639" y="761.2852"/><rect fill="none" height="767.5566" style="stroke:#000000;stroke-width:1.5;" width="697" x="3" y="193.4453"/><rect fill="none" height="98.5039" style="stroke:#000000;stroke-width:1.5;" width="454" x="3" y="282.3184"/><rect fill="none" height="98.5039" style="stroke:#000000;stroke-width:1.5;" width="454" x="3" y="457.4043"/><rect fill="none" height="98.5039" style="stroke:#000000;stroke-width:1.5;" width="454" x="3" y="632.4902"/><rect fill="none" height="98.5039" style="stroke:#000000;stroke-width:1.5;" width="454" x="3" y="807.5762"/><line style="stroke:#181818;stroke-width:0.5;stroke-dasharray:5.0,5.0;" x1="397" x2="397" y1="127.8633" y2="978.002"/><line style="stroke:#181818;stroke-width:0.5;stroke-dasharray:5.0,5.0;" x1="644" x2="644" y1="127.8633" y2="978.002"/><rect fill="#E2E2F0" height="51.2422" rx="2.5" ry="2.5" style="stroke:#181818;stroke-width:0.5;" width="100" x="347" y="75.6211"/><text fill="#000000" font-family="sans-serif" font-size="14" font-style="italic" lengthAdjust="spacing" textLength="86" x="354" y="97.7285">&#171;component&#187;</text><text fill="#000000" font-family="sans-serif" font-size="14" lengthAdjust="spacing" textLength="61" x="366.5" y="116.3496">Back-End</text><rect fill="#E2E2F0" height="51.2422" rx="2.5" ry="2.5" style="stroke:#181818;stroke-width:0.5;" width="100" x="347" y="977.002"/><text fill="#000000" font-family="sans-serif" font-size="14" font-style="italic" lengthAdjust="spacing" textLength="86" x="354" y="999.1094">&#171;component&#187;</text><text fill="#000000" font-family="sans-serif" font-size="14" lengthAdjust="spacing" textLength="61" x="366.5" y="1017.7305">Back-End</text><text fill="#000000" font-family="sans-serif" font-size="14" font-style="italic" lengthAdjust="spacing" textLength="86" x="598" y="105.7285">&#171;component&#187;</text><text fill="#000000" font-family="sans-serif" font-size="14" lengthAdjust="spacing" textLength="62" x="610" y="124.3496">DataBase</text><path d="M626,54.6211 C626,44.6211 644,44.6211 644,44.6211 C644,44.6211 662,44.6211 662,54.6211 L662,80.6211 C662,90.6211 644,90.6211 644,90.6211 C644,90.6211 626,90.6211 626,80.6211 L626,54.6211 " fill="#E2E2F0" style="stroke:#181818;stroke-width:1.5;"/><path d="M626,54.6211 C626,64.6211 644,64.6211 644,64.6211 C644,64.6211 662,64.6211 662,54.6211 " fill="none" style="stroke:#181818;stroke-width:1.5;"/><text fill="#000000" font-family="sans-serif" font-size="14" font-style="italic" lengthAdjust="spacing" textLength="86" x="598" y="992.1094">&#171;component&#187;</text><text fill="#000000" font-family="sans-serif" font-size="14" lengthAdjust="spacing" textLength="62" x="610" y="1010.7305">DataBase</text><path d="M626,1024.2441 C626,1014.2441 644,1014.2441 644,1014.2441 C644,1014.2441 662,1014.2441 662,1024.2441 L662,1050.2441 C662,1060.2441 644,1060.2441 644,1060.2441 C644,1060.2441 626,1060.2441 626,1050.2441 L626,1024.2441 " fill="#E2E2F0" style="stroke:#181818;stroke-width:1.5;"/><path d="M626,1024.2441 C626,1034.2441 644,1034.2441 644,1034.2441 C644,1034.2441 662,1034.2441 662,1024.2441 " fill="none" style="stroke:#181818;stroke-width:1.5;"/><rect fill="#FFFFFF" height="790.5566" style="stroke:#181818;stroke-width:1.0;" width="10" x="392" y="178.4453"/><rect fill="#FFFFFF" height="31.291" style="stroke:#181818;stroke-width:1.0;" width="10" x="639" y="236.0273"/><rect fill="#FFFFFF" height="31.291" style="stroke:#181818;stroke-width:1.0;" width="10" x="639" y="411.1133"/><rect fill="#FFFFFF" height="31.291" style="stroke:#181818;stroke-width:1.0;" width="10" x="639" y="586.1992"/><rect fill="#FFFFFF" height="31.291" style="stroke:#181818;stroke-width:1.0;" width="10" x="639" y="761.2852"/><polygon fill="#181818" points="380,174.4453,390,178.4453,380,182.4453,384,178.4453" style="stroke:#181818;stroke-width:1.0;"/><line style="stroke:#181818;stroke-width:1.0;" x1="0" x2="386" y1="178.4453" y2="178.4453"/><text fill="#000000" font-family="sans-serif" font-size="13" font-weight="bold" lengthAdjust="spacing" textLength="7" x="7" y="164.5371">1</text><text fill="#000000" font-family="sans-serif" font-size="13" lengthAdjust="spacing" textLength="325" x="18" y="155.8916">POST floors/{domainId?: domainId, buildingId: buildingId,</text><text fill="#000000" font-family="sans-serif" font-size="13" lengthAdjust="spacing" textLength="351" x="22" y="173.1826">floorNumber: floorNumber, floorDescription?: floorDescription}</text><path d="M3,193.4453 L64,193.4453 L64,202.7363 L54,212.7363 L3,212.7363 L3,193.4453 " fill="#EEEEEE" style="stroke:#000000;stroke-width:1.5;"/><rect fill="none" height="767.5566" style="stroke:#000000;stroke-width:1.5;" width="697" x="3" y="193.4453"/><text fill="#000000" font-family="sans-serif" font-size="13" font-weight="bold" lengthAdjust="spacing" textLength="16" x="18" y="208.4736">alt</text><text fill="#000000" font-family="sans-serif" font-size="11" font-weight="bold" lengthAdjust="spacing" textLength="96" x="79" y="207.3154">[user authorized]</text><polygon fill="#181818" points="627,232.0273,637,236.0273,627,240.0273,631,236.0273" style="stroke:#181818;stroke-width:1.0;"/><line style="stroke:#181818;stroke-width:1.0;" x1="402" x2="633" y1="236.0273" y2="236.0273"/><text fill="#000000" font-family="sans-serif" font-size="13" font-weight="bold" lengthAdjust="spacing" textLength="7" x="409" y="230.7646">2</text><text fill="#000000" font-family="sans-serif" font-size="13" lengthAdjust="spacing" textLength="100" x="420" y="230.7646">find by building id</text><polygon fill="#181818" points="413,263.3184,403,267.3184,413,271.3184,409,267.3184" style="stroke:#181818;stroke-width:1.0;"/><line style="stroke:#181818;stroke-width:1.0;stroke-dasharray:2.0,2.0;" x1="407" x2="643" y1="267.3184" y2="267.3184"/><text fill="#000000" font-family="sans-serif" font-size="13" font-weight="bold" lengthAdjust="spacing" textLength="7" x="419" y="262.0557">3</text><text fill="#000000" font-family="sans-serif" font-size="13" lengthAdjust="spacing" textLength="4" x="430" y="262.0557">&#160;</text><path d="M3,282.3184 L64,282.3184 L64,291.6094 L54,301.6094 L3,301.6094 L3,282.3184 " fill="#EEEEEE" style="stroke:#000000;stroke-width:1.5;"/><rect fill="none" height="98.5039" style="stroke:#000000;stroke-width:1.5;" width="454" x="3" y="282.3184"/><text fill="#000000" font-family="sans-serif" font-size="13" font-weight="bold" lengthAdjust="spacing" textLength="16" x="18" y="297.3467">alt</text><text fill="#000000" font-family="sans-serif" font-size="11" font-weight="bold" lengthAdjust="spacing" textLength="108" x="79" y="296.1885">[building not found]</text><polygon fill="#181818" points="11,320.9004,1,324.9004,11,328.9004,7,324.9004" style="stroke:#181818;stroke-width:1.0;"/><line style="stroke:#181818;stroke-width:1.0;stroke-dasharray:2.0,2.0;" x1="5" x2="391" y1="324.9004" y2="324.9004"/><text fill="#000000" font-family="sans-serif" font-size="13" font-weight="bold" lengthAdjust="spacing" textLength="7" x="17" y="319.6377">4</text><text fill="#000000" font-family="sans-serif" font-size="13" lengthAdjust="spacing" textLength="163" x="28" y="319.6377">Response status code - 404</text><line style="stroke:#000000;stroke-width:1.0;stroke-dasharray:2.0,2.0;" x1="3" x2="457" y1="333.9004" y2="333.9004"/><text fill="#000000" font-family="sans-serif" font-size="11" font-weight="bold" lengthAdjust="spacing" textLength="122" x="8" y="345.7705">[database unavailable]</text><polygon fill="#181818" points="11,368.8223,1,372.8223,11,376.8223,7,372.8223" style="stroke:#181818;stroke-width:1.0;"/><line style="stroke:#181818;stroke-width:1.0;stroke-dasharray:2.0,2.0;" x1="5" x2="391" y1="372.8223" y2="372.8223"/><text fill="#000000" font-family="sans-serif" font-size="13" font-weight="bold" lengthAdjust="spacing" textLength="7" x="17" y="367.5596">5</text><text fill="#000000" font-family="sans-serif" font-size="13" lengthAdjust="spacing" textLength="163" x="28" y="367.5596">Response status code - 503</text><polygon fill="#181818" points="627,407.1133,637,411.1133,627,415.1133,631,411.1133" style="stroke:#181818;stroke-width:1.0;"/><line style="stroke:#181818;stroke-width:1.0;" x1="402" x2="633" y1="411.1133" y2="411.1133"/><text fill="#000000" font-family="sans-serif" font-size="13" font-weight="bold" lengthAdjust="spacing" textLength="7" x="409" y="405.8506">6</text><text fill="#000000" font-family="sans-serif" font-size="13" lengthAdjust="spacing" textLength="80" x="420" y="405.8506">find by floor id</text><polygon fill="#181818" points="413,438.4043,403,442.4043,413,446.4043,409,442.4043" style="stroke:#181818;stroke-width:1.0;"/><line style="stroke:#181818;stroke-width:1.0;stroke-dasharray:2.0,2.0;" x1="407" x2="643" y1="442.4043" y2="442.4043"/><text fill="#000000" font-family="sans-serif" font-size="13" font-weight="bold" lengthAdjust="spacing" textLength="7" x="419" y="437.1416">7</text><text fill="#000000" font-family="sans-serif" font-size="13" lengthAdjust="spacing" textLength="4" x="430" y="437.1416">&#160;</text><path d="M3,457.4043 L64,457.4043 L64,466.6953 L54,476.6953 L3,476.6953 L3,457.4043 " fill="#EEEEEE" style="stroke:#000000;stroke-width:1.5;"/><rect fill="none" height="98.5039" style="stroke:#000000;stroke-width:1.5;" width="454" x="3" y="457.4043"/><text fill="#000000" font-family="sans-serif" font-size="13" font-weight="bold" lengthAdjust="spacing" textLength="16" x="18" y="472.4326">alt</text><text fill="#000000" font-family="sans-serif" font-size="11" font-weight="bold" lengthAdjust="spacing" textLength="114" x="79" y="471.2744">[floor already exists]</text><polygon fill="#181818" points="11,495.9863,1,499.9863,11,503.9863,7,499.9863" style="stroke:#181818;stroke-width:1.0;"/><line style="stroke:#181818;stroke-width:1.0;stroke-dasharray:2.0,2.0;" x1="5" x2="391" y1="499.9863" y2="499.9863"/><text fill="#000000" font-family="sans-serif" font-size="13" font-weight="bold" lengthAdjust="spacing" textLength="7" x="17" y="494.7236">8</text><text fill="#000000" font-family="sans-serif" font-size="13" lengthAdjust="spacing" textLength="163" x="28" y="494.7236">Response status code - 409</text><line style="stroke:#000000;stroke-width:1.0;stroke-dasharray:2.0,2.0;" x1="3" x2="457" y1="508.9863" y2="508.9863"/><text fill="#000000" font-family="sans-serif" font-size="11" font-weight="bold" lengthAdjust="spacing" textLength="122" x="8" y="520.8564">[database unavailable]</text><polygon fill="#181818" points="11,543.9082,1,547.9082,11,551.9082,7,547.9082" style="stroke:#181818;stroke-width:1.0;"/><line style="stroke:#181818;stroke-width:1.0;stroke-dasharray:2.0,2.0;" x1="5" x2="391" y1="547.9082" y2="547.9082"/><text fill="#000000" font-family="sans-serif" font-size="13" font-weight="bold" lengthAdjust="spacing" textLength="7" x="17" y="542.6455">9</text><text fill="#000000" font-family="sans-serif" font-size="13" lengthAdjust="spacing" textLength="163" x="28" y="542.6455">Response status code - 503</text><polygon fill="#181818" points="627,582.1992,637,586.1992,627,590.1992,631,586.1992" style="stroke:#181818;stroke-width:1.0;"/><line style="stroke:#181818;stroke-width:1.0;" x1="402" x2="633" y1="586.1992" y2="586.1992"/><text fill="#000000" font-family="sans-serif" font-size="13" font-weight="bold" lengthAdjust="spacing" textLength="14" x="409" y="580.9365">10</text><text fill="#000000" font-family="sans-serif" font-size="13" lengthAdjust="spacing" textLength="200" x="427" y="580.9365">find by floor number and building id</text><polygon fill="#181818" points="413,613.4902,403,617.4902,413,621.4902,409,617.4902" style="stroke:#181818;stroke-width:1.0;"/><line style="stroke:#181818;stroke-width:1.0;stroke-dasharray:2.0,2.0;" x1="407" x2="643" y1="617.4902" y2="617.4902"/><text fill="#000000" font-family="sans-serif" font-size="13" font-weight="bold" lengthAdjust="spacing" textLength="14" x="419" y="612.2275">11</text><text fill="#000000" font-family="sans-serif" font-size="13" lengthAdjust="spacing" textLength="4" x="437" y="612.2275">&#160;</text><path d="M3,632.4902 L64,632.4902 L64,641.7813 L54,651.7813 L3,651.7813 L3,632.4902 " fill="#EEEEEE" style="stroke:#000000;stroke-width:1.5;"/><rect fill="none" height="98.5039" style="stroke:#000000;stroke-width:1.5;" width="454" x="3" y="632.4902"/><text fill="#000000" font-family="sans-serif" font-size="13" font-weight="bold" lengthAdjust="spacing" textLength="16" x="18" y="647.5186">alt</text><text fill="#000000" font-family="sans-serif" font-size="11" font-weight="bold" lengthAdjust="spacing" textLength="114" x="79" y="646.3604">[floor already exists]</text><polygon fill="#181818" points="11,671.0723,1,675.0723,11,679.0723,7,675.0723" style="stroke:#181818;stroke-width:1.0;"/><line style="stroke:#181818;stroke-width:1.0;stroke-dasharray:2.0,2.0;" x1="5" x2="391" y1="675.0723" y2="675.0723"/><text fill="#000000" font-family="sans-serif" font-size="13" font-weight="bold" lengthAdjust="spacing" textLength="14" x="17" y="669.8096">12</text><text fill="#000000" font-family="sans-serif" font-size="13" lengthAdjust="spacing" textLength="163" x="35" y="669.8096">Response status code - 409</text><line style="stroke:#000000;stroke-width:1.0;stroke-dasharray:2.0,2.0;" x1="3" x2="457" y1="684.0723" y2="684.0723"/><text fill="#000000" font-family="sans-serif" font-size="11" font-weight="bold" lengthAdjust="spacing" textLength="122" x="8" y="695.9424">[database unavailable]</text><polygon fill="#181818" points="11,718.9941,1,722.9941,11,726.9941,7,722.9941" style="stroke:#181818;stroke-width:1.0;"/><line style="stroke:#181818;stroke-width:1.0;stroke-dasharray:2.0,2.0;" x1="5" x2="391" y1="722.9941" y2="722.9941"/><text fill="#000000" font-family="sans-serif" font-size="13" font-weight="bold" lengthAdjust="spacing" textLength="14" x="17" y="717.7314">13</text><text fill="#000000" font-family="sans-serif" font-size="13" lengthAdjust="spacing" textLength="163" x="35" y="717.7314">Response status code - 503</text><polygon fill="#181818" points="627,757.2852,637,761.2852,627,765.2852,631,761.2852" style="stroke:#181818;stroke-width:1.0;"/><line style="stroke:#181818;stroke-width:1.0;" x1="402" x2="633" y1="761.2852" y2="761.2852"/><text fill="#000000" font-family="sans-serif" font-size="13" font-weight="bold" lengthAdjust="spacing" textLength="14" x="409" y="756.0225">14</text><text fill="#000000" font-family="sans-serif" font-size="13" lengthAdjust="spacing" textLength="26" x="427" y="756.0225">save</text><polygon fill="#181818" points="413,788.5762,403,792.5762,413,796.5762,409,792.5762" style="stroke:#181818;stroke-width:1.0;"/><line style="stroke:#181818;stroke-width:1.0;stroke-dasharray:2.0,2.0;" x1="407" x2="643" y1="792.5762" y2="792.5762"/><text fill="#000000" font-family="sans-serif" font-size="13" font-weight="bold" lengthAdjust="spacing" textLength="14" x="419" y="787.3135">15</text><text fill="#000000" font-family="sans-serif" font-size="13" lengthAdjust="spacing" textLength="4" x="437" y="787.3135">&#160;</text><path d="M3,807.5762 L64,807.5762 L64,816.8672 L54,826.8672 L3,826.8672 L3,807.5762 " fill="#EEEEEE" style="stroke:#000000;stroke-width:1.5;"/><rect fill="none" height="98.5039" style="stroke:#000000;stroke-width:1.5;" width="454" x="3" y="807.5762"/><text fill="#000000" font-family="sans-serif" font-size="13" font-weight="bold" lengthAdjust="spacing" textLength="16" x="18" y="822.6045">alt</text><text fill="#000000" font-family="sans-serif" font-size="11" font-weight="bold" lengthAdjust="spacing" textLength="91" x="79" y="821.4463">[floor persisted]</text><polygon fill="#181818" points="11,846.1582,1,850.1582,11,854.1582,7,850.1582" style="stroke:#181818;stroke-width:1.0;"/><line style="stroke:#181818;stroke-width:1.0;stroke-dasharray:2.0,2.0;" x1="5" x2="391" y1="850.1582" y2="850.1582"/><text fill="#000000" font-family="sans-serif" font-size="13" font-weight="bold" lengthAdjust="spacing" textLength="14" x="17" y="844.8955">16</text><text fill="#000000" font-family="sans-serif" font-size="13" lengthAdjust="spacing" textLength="163" x="35" y="844.8955">Response status code - 201</text><line style="stroke:#000000;stroke-width:1.0;stroke-dasharray:2.0,2.0;" x1="3" x2="457" y1="859.1582" y2="859.1582"/><text fill="#000000" font-family="sans-serif" font-size="11" font-weight="bold" lengthAdjust="spacing" textLength="122" x="8" y="871.0283">[database unavailable]</text><polygon fill="#181818" points="11,894.0801,1,898.0801,11,902.0801,7,898.0801" style="stroke:#181818;stroke-width:1.0;"/><line style="stroke:#181818;stroke-width:1.0;stroke-dasharray:2.0,2.0;" x1="5" x2="391" y1="898.0801" y2="898.0801"/><text fill="#000000" font-family="sans-serif" font-size="13" font-weight="bold" lengthAdjust="spacing" textLength="14" x="17" y="892.8174">17</text><text fill="#000000" font-family="sans-serif" font-size="13" lengthAdjust="spacing" textLength="163" x="35" y="892.8174">Response status code - 503</text><line style="stroke:#000000;stroke-width:1.0;stroke-dasharray:2.0,2.0;" x1="3" x2="700" y1="914.0801" y2="914.0801"/><text fill="#000000" font-family="sans-serif" font-size="11" font-weight="bold" lengthAdjust="spacing" textLength="110" x="8" y="925.9502">[user unauthorized]</text><polygon fill="#181818" points="11,949.002,1,953.002,11,957.002,7,953.002" style="stroke:#181818;stroke-width:1.0;"/><line style="stroke:#181818;stroke-width:1.0;stroke-dasharray:2.0,2.0;" x1="5" x2="391" y1="953.002" y2="953.002"/><text fill="#000000" font-family="sans-serif" font-size="13" font-weight="bold" lengthAdjust="spacing" textLength="14" x="17" y="947.7393">18</text><text fill="#000000" font-family="sans-serif" font-size="13" lengthAdjust="spacing" textLength="163" x="35" y="947.7393">Response status code - 401</text><!--SRC=[pPDDRzim38Rl_1L4Bht4MDfrXnf1YgfEWLoseTsn5zfYEw6EP4Xqi6pOVnzjDscseO1RzD0RHV53pqkAMWc-NPSS8Jqutr2aDJPKFT0ztyYsPenS2O0uKVioCWdZLHr21D1WSPLho0jEZEPaIsydI0dD4kVpAgoRuDdBOW6MX4fAZ9D2BQDM7rUOV-8WMsXoZb-_t7p3kwvD-l3BXZKvlxBdEUxCAPQjgwtpzokR7zXJlFL3tkSUAZyyJ8T3mQcAhX4N_7d-d-it0DM2RUA8rCht4DrFjW17LyvRBBTe7flXgZZIs4hSfjF4B04KMzzV6Atw6Bnx6Jfx45iO04NF1bW0otzTTVttYJu8teNMQpxYFCjwUQuvgMGgPnAIDc4LB6E6fxDJ0AxLlzUxzRGXLrDPyuW2dsOVjK3Nwuct7_Oes5xA5vCEMLJhQjajyW-N98rYFNjZLhDZ7RO5BphVVjXsBF_mcv0wtskd_muqUOOrqOPVmz9mJ4h1OzRuP7RyLXXzbVulQuM3tpn2okEXn1y0]--></g></svg>