<?xml version="1.0" encoding="us-ascii" standalone="no"?><svg xmlns="http://www.w3.org/2000/svg" xmlns:xlink="http://www.w3.org/1999/xlink" contentStyleType="text/css" height="1538px" preserveAspectRatio="none" style="width:946px;height:1538px;background:#FFFFFF;" version="1.1" viewBox="0 0 946 1538" width="946px" zoomAndPan="magnify"><defs/><g><text fill="#000000" font-family="sans-serif" font-size="14" font-weight="bold" lengthAdjust="spacing" textLength="110" x="419.75" y="30.1074">Create Passage</text><rect fill="#FFFFFF" height="1234.6016" style="stroke:#181818;stroke-width:1.0;" width="10" x="576" y="195.7363"/><rect fill="#FFFFFF" height="31.291" style="stroke:#181818;stroke-width:1.0;" width="10" x="883" y="227.0273"/><rect fill="#FFFFFF" height="31.291" style="stroke:#181818;stroke-width:1.0;" width="10" x="883" y="402.1133"/><rect fill="#FFFFFF" height="31.291" style="stroke:#181818;stroke-width:1.0;" width="10" x="883" y="577.1992"/><rect fill="#FFFFFF" height="31.291" style="stroke:#181818;stroke-width:1.0;" width="10" x="883" y="752.2852"/><rect fill="#FFFFFF" height="31.291" style="stroke:#181818;stroke-width:1.0;" width="10" x="883" y="927.3711"/><rect fill="#FFFFFF" height="31.291" style="stroke:#181818;stroke-width:1.0;" width="10" x="883" y="1102.457"/><rect fill="#FFFFFF" height="31.291" style="stroke:#181818;stroke-width:1.0;" width="10" x="883" y="1277.543"/><rect fill="none" height="98.5039" style="stroke:#000000;stroke-width:1.5;" width="641" x="3" y="273.3184"/><rect fill="none" height="98.5039" style="stroke:#000000;stroke-width:1.5;" width="641" x="3" y="448.4043"/><rect fill="none" height="98.5039" style="stroke:#000000;stroke-width:1.5;" width="641" x="3" y="623.4902"/><rect fill="none" height="98.5039" style="stroke:#000000;stroke-width:1.5;" width="641" x="3" y="798.5762"/><rect fill="none" height="98.5039" style="stroke:#000000;stroke-width:1.5;" width="641" x="3" y="973.6621"/><rect fill="none" height="98.5039" style="stroke:#000000;stroke-width:1.5;" width="641" x="3" y="1148.748"/><rect fill="none" height="98.5039" style="stroke:#000000;stroke-width:1.5;" width="641" x="3" y="1323.834"/><line style="stroke:#181818;stroke-width:0.5;stroke-dasharray:5.0,5.0;" x1="581" x2="581" y1="127.8633" y2="1439.3379"/><line style="stroke:#181818;stroke-width:0.5;stroke-dasharray:5.0,5.0;" x1="887.5" x2="887.5" y1="127.8633" y2="1439.3379"/><rect fill="#E2E2F0" height="51.2422" rx="2.5" ry="2.5" style="stroke:#181818;stroke-width:0.5;" width="106" x="528" y="75.6211"/><text fill="#000000" font-family="sans-serif" font-size="14" font-style="italic" lengthAdjust="spacing" textLength="86" x="538" y="97.7285">&#171;component&#187;</text><text fill="#000000" font-family="sans-serif" font-size="14" lengthAdjust="spacing" textLength="92" x="535" y="116.3496">Node Backend</text><rect fill="#E2E2F0" height="51.2422" rx="2.5" ry="2.5" style="stroke:#181818;stroke-width:0.5;" width="106" x="528" y="1438.3379"/><text fill="#000000" font-family="sans-serif" font-size="14" font-style="italic" lengthAdjust="spacing" textLength="86" x="538" y="1460.4453">&#171;component&#187;</text><text fill="#000000" font-family="sans-serif" font-size="14" lengthAdjust="spacing" textLength="92" x="535" y="1479.0664">Node Backend</text><text fill="#000000" font-family="sans-serif" font-size="14" font-style="italic" lengthAdjust="spacing" textLength="86" x="842" y="105.7285">&#171;component&#187;</text><text fill="#000000" font-family="sans-serif" font-size="14" lengthAdjust="spacing" textLength="109" x="830.5" y="124.3496">Mongo DataBase</text><path d="M870,54.6211 C870,44.6211 888,44.6211 888,44.6211 C888,44.6211 906,44.6211 906,54.6211 L906,80.6211 C906,90.6211 888,90.6211 888,90.6211 C888,90.6211 870,90.6211 870,80.6211 L870,54.6211 " fill="#E2E2F0" style="stroke:#181818;stroke-width:1.5;"/><path d="M870,54.6211 C870,64.6211 888,64.6211 888,64.6211 C888,64.6211 906,64.6211 906,54.6211 " fill="none" style="stroke:#181818;stroke-width:1.5;"/><text fill="#000000" font-family="sans-serif" font-size="14" font-style="italic" lengthAdjust="spacing" textLength="86" x="842" y="1453.4453">&#171;component&#187;</text><text fill="#000000" font-family="sans-serif" font-size="14" lengthAdjust="spacing" textLength="109" x="830.5" y="1472.0664">Mongo DataBase</text><path d="M870,1485.5801 C870,1475.5801 888,1475.5801 888,1475.5801 C888,1475.5801 906,1475.5801 906,1485.5801 L906,1511.5801 C906,1521.5801 888,1521.5801 888,1521.5801 C888,1521.5801 870,1521.5801 870,1511.5801 L870,1485.5801 " fill="#E2E2F0" style="stroke:#181818;stroke-width:1.5;"/><path d="M870,1485.5801 C870,1495.5801 888,1495.5801 888,1495.5801 C888,1495.5801 906,1495.5801 906,1485.5801 " fill="none" style="stroke:#181818;stroke-width:1.5;"/><rect fill="#FFFFFF" height="1234.6016" style="stroke:#181818;stroke-width:1.0;" width="10" x="576" y="195.7363"/><rect fill="#FFFFFF" height="31.291" style="stroke:#181818;stroke-width:1.0;" width="10" x="883" y="227.0273"/><rect fill="#FFFFFF" height="31.291" style="stroke:#181818;stroke-width:1.0;" width="10" x="883" y="402.1133"/><rect fill="#FFFFFF" height="31.291" style="stroke:#181818;stroke-width:1.0;" width="10" x="883" y="577.1992"/><rect fill="#FFFFFF" height="31.291" style="stroke:#181818;stroke-width:1.0;" width="10" x="883" y="752.2852"/><rect fill="#FFFFFF" height="31.291" style="stroke:#181818;stroke-width:1.0;" width="10" x="883" y="927.3711"/><rect fill="#FFFFFF" height="31.291" style="stroke:#181818;stroke-width:1.0;" width="10" x="883" y="1102.457"/><rect fill="#FFFFFF" height="31.291" style="stroke:#181818;stroke-width:1.0;" width="10" x="883" y="1277.543"/><polygon fill="#181818" points="564,191.7363,574,195.7363,564,199.7363,568,195.7363" style="stroke:#181818;stroke-width:1.0;"/><line style="stroke:#181818;stroke-width:1.0;" x1="0" x2="570" y1="195.7363" y2="195.7363"/><text fill="#000000" font-family="sans-serif" font-size="13" font-weight="bold" lengthAdjust="spacing" textLength="7" x="7" y="173.1826">1</text><text fill="#000000" font-family="sans-serif" font-size="13" lengthAdjust="spacing" textLength="226" x="18" y="155.8916">POST passages/{domainId?: domainId,</text><text fill="#000000" font-family="sans-serif" font-size="13" lengthAdjust="spacing" textLength="535" x="18" y="173.1826">passageStartPoint: {floorId: floorId, firstCoordinates: {x: x, y: y}, lastCoordinates: {x: x, y: y}},</text><text fill="#000000" font-family="sans-serif" font-size="13" lengthAdjust="spacing" textLength="530" x="22" y="190.4736">passageEndPoint: {floorId: floorId, firstCoordinates: {x: x, y: y}, lastCoordinates: {x: x, y: y}}}</text><polygon fill="#181818" points="871,223.0273,881,227.0273,871,231.0273,875,227.0273" style="stroke:#181818;stroke-width:1.0;"/><line style="stroke:#181818;stroke-width:1.0;" x1="586" x2="877" y1="227.0273" y2="227.0273"/><text fill="#000000" font-family="sans-serif" font-size="13" font-weight="bold" lengthAdjust="spacing" textLength="7" x="593" y="221.7646">2</text><text fill="#000000" font-family="sans-serif" font-size="13" lengthAdjust="spacing" textLength="105" x="604" y="221.7646">find by passage id</text><polygon fill="#181818" points="597,254.3184,587,258.3184,597,262.3184,593,258.3184" style="stroke:#181818;stroke-width:1.0;"/><line style="stroke:#181818;stroke-width:1.0;stroke-dasharray:2.0,2.0;" x1="591" x2="887" y1="258.3184" y2="258.3184"/><text fill="#000000" font-family="sans-serif" font-size="13" font-weight="bold" lengthAdjust="spacing" textLength="7" x="603" y="253.0557">3</text><text fill="#000000" font-family="sans-serif" font-size="13" lengthAdjust="spacing" textLength="4" x="614" y="253.0557">&#160;</text><path d="M3,273.3184 L64,273.3184 L64,282.6094 L54,292.6094 L3,292.6094 L3,273.3184 " fill="#EEEEEE" style="stroke:#000000;stroke-width:1.5;"/><rect fill="none" height="98.5039" style="stroke:#000000;stroke-width:1.5;" width="641" x="3" y="273.3184"/><text fill="#000000" font-family="sans-serif" font-size="13" font-weight="bold" lengthAdjust="spacing" textLength="16" x="18" y="288.3467">alt</text><text fill="#000000" font-family="sans-serif" font-size="11" font-weight="bold" lengthAdjust="spacing" textLength="135" x="79" y="287.1885">[passage already exists]</text><polygon fill="#181818" points="11,311.9004,1,315.9004,11,319.9004,7,315.9004" style="stroke:#181818;stroke-width:1.0;"/><line style="stroke:#181818;stroke-width:1.0;stroke-dasharray:2.0,2.0;" x1="5" x2="575" y1="315.9004" y2="315.9004"/><text fill="#000000" font-family="sans-serif" font-size="13" font-weight="bold" lengthAdjust="spacing" textLength="7" x="17" y="310.6377">4</text><text fill="#000000" font-family="sans-serif" font-size="13" lengthAdjust="spacing" textLength="163" x="28" y="310.6377">Response status code - 409</text><line style="stroke:#000000;stroke-width:1.0;stroke-dasharray:2.0,2.0;" x1="3" x2="644" y1="324.9004" y2="324.9004"/><text fill="#000000" font-family="sans-serif" font-size="11" font-weight="bold" lengthAdjust="spacing" textLength="122" x="8" y="336.7705">[database unavailable]</text><polygon fill="#181818" points="11,359.8223,1,363.8223,11,367.8223,7,363.8223" style="stroke:#181818;stroke-width:1.0;"/><line style="stroke:#181818;stroke-width:1.0;stroke-dasharray:2.0,2.0;" x1="5" x2="575" y1="363.8223" y2="363.8223"/><text fill="#000000" font-family="sans-serif" font-size="13" font-weight="bold" lengthAdjust="spacing" textLength="7" x="17" y="358.5596">5</text><text fill="#000000" font-family="sans-serif" font-size="13" lengthAdjust="spacing" textLength="163" x="28" y="358.5596">Response status code - 503</text><polygon fill="#181818" points="871,398.1133,881,402.1133,871,406.1133,875,402.1133" style="stroke:#181818;stroke-width:1.0;"/><line style="stroke:#181818;stroke-width:1.0;" x1="586" x2="877" y1="402.1133" y2="402.1133"/><text fill="#000000" font-family="sans-serif" font-size="13" font-weight="bold" lengthAdjust="spacing" textLength="7" x="593" y="396.8506">6</text><text fill="#000000" font-family="sans-serif" font-size="13" lengthAdjust="spacing" textLength="80" x="604" y="396.8506">find by floor id</text><polygon fill="#181818" points="597,429.4043,587,433.4043,597,437.4043,593,433.4043" style="stroke:#181818;stroke-width:1.0;"/><line style="stroke:#181818;stroke-width:1.0;stroke-dasharray:2.0,2.0;" x1="591" x2="887" y1="433.4043" y2="433.4043"/><text fill="#000000" font-family="sans-serif" font-size="13" font-weight="bold" lengthAdjust="spacing" textLength="7" x="603" y="428.1416">7</text><text fill="#000000" font-family="sans-serif" font-size="13" lengthAdjust="spacing" textLength="4" x="614" y="428.1416">&#160;</text><path d="M3,448.4043 L64,448.4043 L64,457.6953 L54,467.6953 L3,467.6953 L3,448.4043 " fill="#EEEEEE" style="stroke:#000000;stroke-width:1.5;"/><rect fill="none" height="98.5039" style="stroke:#000000;stroke-width:1.5;" width="641" x="3" y="448.4043"/><text fill="#000000" font-family="sans-serif" font-size="13" font-weight="bold" lengthAdjust="spacing" textLength="16" x="18" y="463.4326">alt</text><text fill="#000000" font-family="sans-serif" font-size="11" font-weight="bold" lengthAdjust="spacing" textLength="90" x="79" y="462.2744">[floor not found]</text><polygon fill="#181818" points="11,486.9863,1,490.9863,11,494.9863,7,490.9863" style="stroke:#181818;stroke-width:1.0;"/><line style="stroke:#181818;stroke-width:1.0;stroke-dasharray:2.0,2.0;" x1="5" x2="575" y1="490.9863" y2="490.9863"/><text fill="#000000" font-family="sans-serif" font-size="13" font-weight="bold" lengthAdjust="spacing" textLength="7" x="17" y="485.7236">8</text><text fill="#000000" font-family="sans-serif" font-size="13" lengthAdjust="spacing" textLength="163" x="28" y="485.7236">Response status code - 404</text><line style="stroke:#000000;stroke-width:1.0;stroke-dasharray:2.0,2.0;" x1="3" x2="644" y1="499.9863" y2="499.9863"/><text fill="#000000" font-family="sans-serif" font-size="11" font-weight="bold" lengthAdjust="spacing" textLength="122" x="8" y="511.8564">[database unavailable]</text><polygon fill="#181818" points="11,534.9082,1,538.9082,11,542.9082,7,538.9082" style="stroke:#181818;stroke-width:1.0;"/><line style="stroke:#181818;stroke-width:1.0;stroke-dasharray:2.0,2.0;" x1="5" x2="575" y1="538.9082" y2="538.9082"/><text fill="#000000" font-family="sans-serif" font-size="13" font-weight="bold" lengthAdjust="spacing" textLength="7" x="17" y="533.6455">9</text><text fill="#000000" font-family="sans-serif" font-size="13" lengthAdjust="spacing" textLength="163" x="28" y="533.6455">Response status code - 503</text><polygon fill="#181818" points="871,573.1992,881,577.1992,871,581.1992,875,577.1992" style="stroke:#181818;stroke-width:1.0;"/><line style="stroke:#181818;stroke-width:1.0;" x1="586" x2="877" y1="577.1992" y2="577.1992"/><text fill="#000000" font-family="sans-serif" font-size="13" font-weight="bold" lengthAdjust="spacing" textLength="14" x="593" y="571.9365">10</text><text fill="#000000" font-family="sans-serif" font-size="13" lengthAdjust="spacing" textLength="80" x="611" y="571.9365">find by floor id</text><polygon fill="#181818" points="597,604.4902,587,608.4902,597,612.4902,593,608.4902" style="stroke:#181818;stroke-width:1.0;"/><line style="stroke:#181818;stroke-width:1.0;stroke-dasharray:2.0,2.0;" x1="591" x2="887" y1="608.4902" y2="608.4902"/><text fill="#000000" font-family="sans-serif" font-size="13" font-weight="bold" lengthAdjust="spacing" textLength="14" x="603" y="603.2275">11</text><text fill="#000000" font-family="sans-serif" font-size="13" lengthAdjust="spacing" textLength="4" x="621" y="603.2275">&#160;</text><path d="M3,623.4902 L64,623.4902 L64,632.7813 L54,642.7813 L3,642.7813 L3,623.4902 " fill="#EEEEEE" style="stroke:#000000;stroke-width:1.5;"/><rect fill="none" height="98.5039" style="stroke:#000000;stroke-width:1.5;" width="641" x="3" y="623.4902"/><text fill="#000000" font-family="sans-serif" font-size="13" font-weight="bold" lengthAdjust="spacing" textLength="16" x="18" y="638.5186">alt</text><text fill="#000000" font-family="sans-serif" font-size="11" font-weight="bold" lengthAdjust="spacing" textLength="90" x="79" y="637.3604">[floor not found]</text><polygon fill="#181818" points="11,662.0723,1,666.0723,11,670.0723,7,666.0723" style="stroke:#181818;stroke-width:1.0;"/><line style="stroke:#181818;stroke-width:1.0;stroke-dasharray:2.0,2.0;" x1="5" x2="575" y1="666.0723" y2="666.0723"/><text fill="#000000" font-family="sans-serif" font-size="13" font-weight="bold" lengthAdjust="spacing" textLength="14" x="17" y="660.8096">12</text><text fill="#000000" font-family="sans-serif" font-size="13" lengthAdjust="spacing" textLength="163" x="35" y="660.8096">Response status code - 404</text><line style="stroke:#000000;stroke-width:1.0;stroke-dasharray:2.0,2.0;" x1="3" x2="644" y1="675.0723" y2="675.0723"/><text fill="#000000" font-family="sans-serif" font-size="11" font-weight="bold" lengthAdjust="spacing" textLength="122" x="8" y="686.9424">[database unavailable]</text><polygon fill="#181818" points="11,709.9941,1,713.9941,11,717.9941,7,713.9941" style="stroke:#181818;stroke-width:1.0;"/><line style="stroke:#181818;stroke-width:1.0;stroke-dasharray:2.0,2.0;" x1="5" x2="575" y1="713.9941" y2="713.9941"/><text fill="#000000" font-family="sans-serif" font-size="13" font-weight="bold" lengthAdjust="spacing" textLength="14" x="17" y="708.7314">13</text><text fill="#000000" font-family="sans-serif" font-size="13" lengthAdjust="spacing" textLength="163" x="35" y="708.7314">Response status code - 503</text><polygon fill="#181818" points="871,748.2852,881,752.2852,871,756.2852,875,752.2852" style="stroke:#181818;stroke-width:1.0;"/><line style="stroke:#181818;stroke-width:1.0;" x1="586" x2="877" y1="752.2852" y2="752.2852"/><text fill="#000000" font-family="sans-serif" font-size="13" font-weight="bold" lengthAdjust="spacing" textLength="14" x="593" y="747.0225">14</text><text fill="#000000" font-family="sans-serif" font-size="13" lengthAdjust="spacing" textLength="73" x="611" y="747.0225">find by floors</text><polygon fill="#181818" points="597,779.5762,587,783.5762,597,787.5762,593,783.5762" style="stroke:#181818;stroke-width:1.0;"/><line style="stroke:#181818;stroke-width:1.0;stroke-dasharray:2.0,2.0;" x1="591" x2="887" y1="783.5762" y2="783.5762"/><text fill="#000000" font-family="sans-serif" font-size="13" font-weight="bold" lengthAdjust="spacing" textLength="14" x="603" y="778.3135">15</text><text fill="#000000" font-family="sans-serif" font-size="13" lengthAdjust="spacing" textLength="4" x="621" y="778.3135">&#160;</text><path d="M3,798.5762 L64,798.5762 L64,807.8672 L54,817.8672 L3,817.8672 L3,798.5762 " fill="#EEEEEE" style="stroke:#000000;stroke-width:1.5;"/><rect fill="none" height="98.5039" style="stroke:#000000;stroke-width:1.5;" width="641" x="3" y="798.5762"/><text fill="#000000" font-family="sans-serif" font-size="13" font-weight="bold" lengthAdjust="spacing" textLength="16" x="18" y="813.6045">alt</text><text fill="#000000" font-family="sans-serif" font-size="11" font-weight="bold" lengthAdjust="spacing" textLength="135" x="79" y="812.4463">[passage already exists]</text><polygon fill="#181818" points="11,837.1582,1,841.1582,11,845.1582,7,841.1582" style="stroke:#181818;stroke-width:1.0;"/><line style="stroke:#181818;stroke-width:1.0;stroke-dasharray:2.0,2.0;" x1="5" x2="575" y1="841.1582" y2="841.1582"/><text fill="#000000" font-family="sans-serif" font-size="13" font-weight="bold" lengthAdjust="spacing" textLength="14" x="17" y="835.8955">16</text><text fill="#000000" font-family="sans-serif" font-size="13" lengthAdjust="spacing" textLength="163" x="35" y="835.8955">Response status code - 409</text><line style="stroke:#000000;stroke-width:1.0;stroke-dasharray:2.0,2.0;" x1="3" x2="644" y1="850.1582" y2="850.1582"/><text fill="#000000" font-family="sans-serif" font-size="11" font-weight="bold" lengthAdjust="spacing" textLength="122" x="8" y="862.0283">[database unavailable]</text><polygon fill="#181818" points="11,885.0801,1,889.0801,11,893.0801,7,889.0801" style="stroke:#181818;stroke-width:1.0;"/><line style="stroke:#181818;stroke-width:1.0;stroke-dasharray:2.0,2.0;" x1="5" x2="575" y1="889.0801" y2="889.0801"/><text fill="#000000" font-family="sans-serif" font-size="13" font-weight="bold" lengthAdjust="spacing" textLength="14" x="17" y="883.8174">17</text><text fill="#000000" font-family="sans-serif" font-size="13" lengthAdjust="spacing" textLength="163" x="35" y="883.8174">Response status code - 503</text><polygon fill="#181818" points="871,923.3711,881,927.3711,871,931.3711,875,927.3711" style="stroke:#181818;stroke-width:1.0;"/><line style="stroke:#181818;stroke-width:1.0;" x1="586" x2="877" y1="927.3711" y2="927.3711"/><text fill="#000000" font-family="sans-serif" font-size="13" font-weight="bold" lengthAdjust="spacing" textLength="14" x="593" y="922.1084">18</text><text fill="#000000" font-family="sans-serif" font-size="13" lengthAdjust="spacing" textLength="260" x="611" y="922.1084">is there a passage between floor and building</text><polygon fill="#181818" points="597,954.6621,587,958.6621,597,962.6621,593,958.6621" style="stroke:#181818;stroke-width:1.0;"/><line style="stroke:#181818;stroke-width:1.0;stroke-dasharray:2.0,2.0;" x1="591" x2="887" y1="958.6621" y2="958.6621"/><text fill="#000000" font-family="sans-serif" font-size="13" font-weight="bold" lengthAdjust="spacing" textLength="14" x="603" y="953.3994">19</text><text fill="#000000" font-family="sans-serif" font-size="13" lengthAdjust="spacing" textLength="4" x="621" y="953.3994">&#160;</text><path d="M3,973.6621 L64,973.6621 L64,982.9531 L54,992.9531 L3,992.9531 L3,973.6621 " fill="#EEEEEE" style="stroke:#000000;stroke-width:1.5;"/><rect fill="none" height="98.5039" style="stroke:#000000;stroke-width:1.5;" width="641" x="3" y="973.6621"/><text fill="#000000" font-family="sans-serif" font-size="13" font-weight="bold" lengthAdjust="spacing" textLength="16" x="18" y="988.6904">alt</text><text fill="#000000" font-family="sans-serif" font-size="11" font-weight="bold" lengthAdjust="spacing" textLength="135" x="79" y="987.5322">[passage already exists]</text><polygon fill="#181818" points="11,1012.2441,1,1016.2441,11,1020.2441,7,1016.2441" style="stroke:#181818;stroke-width:1.0;"/><line style="stroke:#181818;stroke-width:1.0;stroke-dasharray:2.0,2.0;" x1="5" x2="575" y1="1016.2441" y2="1016.2441"/><text fill="#000000" font-family="sans-serif" font-size="13" font-weight="bold" lengthAdjust="spacing" textLength="14" x="17" y="1010.9814">20</text><text fill="#000000" font-family="sans-serif" font-size="13" lengthAdjust="spacing" textLength="163" x="35" y="1010.9814">Response status code - 409</text><line style="stroke:#000000;stroke-width:1.0;stroke-dasharray:2.0,2.0;" x1="3" x2="644" y1="1025.2441" y2="1025.2441"/><text fill="#000000" font-family="sans-serif" font-size="11" font-weight="bold" lengthAdjust="spacing" textLength="122" x="8" y="1037.1143">[database unavailable]</text><polygon fill="#181818" points="11,1060.166,1,1064.166,11,1068.166,7,1064.166" style="stroke:#181818;stroke-width:1.0;"/><line style="stroke:#181818;stroke-width:1.0;stroke-dasharray:2.0,2.0;" x1="5" x2="575" y1="1064.166" y2="1064.166"/><text fill="#000000" font-family="sans-serif" font-size="13" font-weight="bold" lengthAdjust="spacing" textLength="14" x="17" y="1058.9033">21</text><text fill="#000000" font-family="sans-serif" font-size="13" lengthAdjust="spacing" textLength="163" x="35" y="1058.9033">Response status code - 503</text><polygon fill="#181818" points="871,1098.457,881,1102.457,871,1106.457,875,1102.457" style="stroke:#181818;stroke-width:1.0;"/><line style="stroke:#181818;stroke-width:1.0;" x1="586" x2="877" y1="1102.457" y2="1102.457"/><text fill="#000000" font-family="sans-serif" font-size="13" font-weight="bold" lengthAdjust="spacing" textLength="14" x="593" y="1097.1943">22</text><text fill="#000000" font-family="sans-serif" font-size="13" lengthAdjust="spacing" textLength="260" x="611" y="1097.1943">is there a passage between floor and building</text><polygon fill="#181818" points="597,1129.748,587,1133.748,597,1137.748,593,1133.748" style="stroke:#181818;stroke-width:1.0;"/><line style="stroke:#181818;stroke-width:1.0;stroke-dasharray:2.0,2.0;" x1="591" x2="887" y1="1133.748" y2="1133.748"/><text fill="#000000" font-family="sans-serif" font-size="13" font-weight="bold" lengthAdjust="spacing" textLength="14" x="603" y="1128.4854">23</text><text fill="#000000" font-family="sans-serif" font-size="13" lengthAdjust="spacing" textLength="4" x="621" y="1128.4854">&#160;</text><path d="M3,1148.748 L64,1148.748 L64,1158.0391 L54,1168.0391 L3,1168.0391 L3,1148.748 " fill="#EEEEEE" style="stroke:#000000;stroke-width:1.5;"/><rect fill="none" height="98.5039" style="stroke:#000000;stroke-width:1.5;" width="641" x="3" y="1148.748"/><text fill="#000000" font-family="sans-serif" font-size="13" font-weight="bold" lengthAdjust="spacing" textLength="16" x="18" y="1163.7764">alt</text><text fill="#000000" font-family="sans-serif" font-size="11" font-weight="bold" lengthAdjust="spacing" textLength="156" x="79" y="1162.6182">[passage 409 already exists]</text><polygon fill="#181818" points="11,1187.3301,1,1191.3301,11,1195.3301,7,1191.3301" style="stroke:#181818;stroke-width:1.0;"/><line style="stroke:#181818;stroke-width:1.0;stroke-dasharray:2.0,2.0;" x1="5" x2="575" y1="1191.3301" y2="1191.3301"/><text fill="#000000" font-family="sans-serif" font-size="13" font-weight="bold" lengthAdjust="spacing" textLength="14" x="17" y="1186.0674">24</text><text fill="#000000" font-family="sans-serif" font-size="13" lengthAdjust="spacing" textLength="163" x="35" y="1186.0674">Response status code - 409</text><line style="stroke:#000000;stroke-width:1.0;stroke-dasharray:2.0,2.0;" x1="3" x2="644" y1="1200.3301" y2="1200.3301"/><text fill="#000000" font-family="sans-serif" font-size="11" font-weight="bold" lengthAdjust="spacing" textLength="122" x="8" y="1212.2002">[database unavailable]</text><polygon fill="#181818" points="11,1235.252,1,1239.252,11,1243.252,7,1239.252" style="stroke:#181818;stroke-width:1.0;"/><line style="stroke:#181818;stroke-width:1.0;stroke-dasharray:2.0,2.0;" x1="5" x2="575" y1="1239.252" y2="1239.252"/><text fill="#000000" font-family="sans-serif" font-size="13" font-weight="bold" lengthAdjust="spacing" textLength="14" x="17" y="1233.9893">25</text><text fill="#000000" font-family="sans-serif" font-size="13" lengthAdjust="spacing" textLength="163" x="35" y="1233.9893">Response status code - 503</text><polygon fill="#181818" points="871,1273.543,881,1277.543,871,1281.543,875,1277.543" style="stroke:#181818;stroke-width:1.0;"/><line style="stroke:#181818;stroke-width:1.0;" x1="586" x2="877" y1="1277.543" y2="1277.543"/><text fill="#000000" font-family="sans-serif" font-size="13" font-weight="bold" lengthAdjust="spacing" textLength="14" x="593" y="1272.2803">26</text><text fill="#000000" font-family="sans-serif" font-size="13" lengthAdjust="spacing" textLength="26" x="611" y="1272.2803">save</text><polygon fill="#181818" points="597,1304.834,587,1308.834,597,1312.834,593,1308.834" style="stroke:#181818;stroke-width:1.0;"/><line style="stroke:#181818;stroke-width:1.0;stroke-dasharray:2.0,2.0;" x1="591" x2="887" y1="1308.834" y2="1308.834"/><text fill="#000000" font-family="sans-serif" font-size="13" font-weight="bold" lengthAdjust="spacing" textLength="14" x="603" y="1303.5713">27</text><text fill="#000000" font-family="sans-serif" font-size="13" lengthAdjust="spacing" textLength="4" x="621" y="1303.5713">&#160;</text><path d="M3,1323.834 L64,1323.834 L64,1333.125 L54,1343.125 L3,1343.125 L3,1323.834 " fill="#EEEEEE" style="stroke:#000000;stroke-width:1.5;"/><rect fill="none" height="98.5039" style="stroke:#000000;stroke-width:1.5;" width="641" x="3" y="1323.834"/><text fill="#000000" font-family="sans-serif" font-size="13" font-weight="bold" lengthAdjust="spacing" textLength="16" x="18" y="1338.8623">alt</text><text fill="#000000" font-family="sans-serif" font-size="11" font-weight="bold" lengthAdjust="spacing" textLength="112" x="79" y="1337.7041">[passage persisted]</text><polygon fill="#181818" points="11,1362.416,1,1366.416,11,1370.416,7,1366.416" style="stroke:#181818;stroke-width:1.0;"/><line style="stroke:#181818;stroke-width:1.0;stroke-dasharray:2.0,2.0;" x1="5" x2="575" y1="1366.416" y2="1366.416"/><text fill="#000000" font-family="sans-serif" font-size="13" font-weight="bold" lengthAdjust="spacing" textLength="14" x="17" y="1361.1533">28</text><text fill="#000000" font-family="sans-serif" font-size="13" lengthAdjust="spacing" textLength="163" x="35" y="1361.1533">Response status code - 201</text><line style="stroke:#000000;stroke-width:1.0;stroke-dasharray:2.0,2.0;" x1="3" x2="644" y1="1375.416" y2="1375.416"/><text fill="#000000" font-family="sans-serif" font-size="11" font-weight="bold" lengthAdjust="spacing" textLength="122" x="8" y="1387.2861">[database unavailable]</text><polygon fill="#181818" points="11,1410.3379,1,1414.3379,11,1418.3379,7,1414.3379" style="stroke:#181818;stroke-width:1.0;"/><line style="stroke:#181818;stroke-width:1.0;stroke-dasharray:2.0,2.0;" x1="5" x2="575" y1="1414.3379" y2="1414.3379"/><text fill="#000000" font-family="sans-serif" font-size="13" font-weight="bold" lengthAdjust="spacing" textLength="14" x="17" y="1409.0752">29</text><text fill="#000000" font-family="sans-serif" font-size="13" lengthAdjust="spacing" textLength="163" x="35" y="1409.0752">Response status code - 503</text><!--SRC=[tPHDRzD048Rlyoj6kGIaM0Ge1wmegAvJAGSW8ZtsClPEmwhEhkLPXqHL_ZlZn4cXuiEWy7cRzSxEpFE-wwKwU5SlCwv0RgqhgQ8bbfJVqeBdOLCmLfm7W623nXSLKs2SaOZk0sXwiBajoGNilV66CT6Zx4mFIJ2Pu6YK-sNf7Rim7eEXG1a9O- -rTmkFgQuJNU-oq-H1DaHZBH7ZxEtyIaVQjPGdTyOloRgfUHNZ8HpWjMiJva57cddhGentDuNtrTJ4s0O3lB6LX0jT6EkKH3Hf7UDwW9iODzi15lIDxMtJvp39n9bVrMOBqB-qpc2sEKYDqxGFG7cmgyQ0P0AWwgf0QQ9jsznsChJcazGq0L1fexsO08O_sw8Y7CzHeVQQ3VBQIX00n54KxInunwAsg74IADI2UMDrX6V3bm1SwFUZixMZ5Tc2ie8x57WnVAu5dCvxJtpPYAYy-4WQByj6vCVVXzzf_yFe-rFEQ-JhPeuEp6UdOlu2idx_Zu5RuiETJbfowGWh_zwrxay5hzvpnNX-ZytX0xDhNJzNmAIsXJu5YuvNtWg6NKqwCcPjpRszr8ZMrZoDPd-rQ1r-cjyWcGhmPsNx6hlGYdyEgUHA58IxF1FFXazF1F8H]--></g></svg>