<?xml version="1.0" encoding="us-ascii" standalone="no"?><svg xmlns="http://www.w3.org/2000/svg" xmlns:xlink="http://www.w3.org/1999/xlink" contentStyleType="text/css" height="440px" preserveAspectRatio="none" style="width:516px;height:440px;background:#FFFFFF;" version="1.1" viewBox="0 0 516 440" width="516px" zoomAndPan="magnify"><defs/><g><text fill="#000000" font-family="sans-serif" font-size="14" font-weight="bold" lengthAdjust="spacing" textLength="165" x="174.75" y="30.1074">Accept SignUp Request</text><rect fill="#FFFFFF" height="169.0371" style="stroke:#181818;stroke-width:1.0;" width="10" x="30.5" y="151.8633"/><rect fill="#FFFFFF" height="128.4551" style="stroke:#181818;stroke-width:1.0;" width="10" x="275.5" y="192.4453"/><rect fill="#FFFFFF" height="31.291" style="stroke:#181818;stroke-width:1.0;" width="10" x="465.5" y="241.0273"/><line style="stroke:#181818;stroke-width:0.5;stroke-dasharray:5.0,5.0;" x1="35" x2="35" y1="141.8633" y2="338.9004"/><line style="stroke:#181818;stroke-width:0.5;stroke-dasharray:5.0,5.0;" x1="280.5" x2="280.5" y1="141.8633" y2="338.9004"/><line style="stroke:#181818;stroke-width:0.5;stroke-dasharray:5.0,5.0;" x1="470.5" x2="470.5" y1="141.8633" y2="338.9004"/><text fill="#000000" font-family="sans-serif" font-size="14" font-style="italic" lengthAdjust="spacing" textLength="55" x="5" y="119.7285">&#171;Admin&#187;</text><text fill="#000000" font-family="sans-serif" font-size="14" lengthAdjust="spacing" textLength="29" x="18" y="138.3496">User</text><ellipse cx="35.5" cy="53.1211" fill="#E2E2F0" rx="8" ry="8" style="stroke:#181818;stroke-width:0.5;"/><path d="M35.5,61.1211 L35.5,88.1211 M22.5,69.1211 L48.5,69.1211 M35.5,88.1211 L22.5,103.1211 M35.5,88.1211 L48.5,103.1211 " fill="none" style="stroke:#181818;stroke-width:0.5;"/><text fill="#000000" font-family="sans-serif" font-size="14" font-style="italic" lengthAdjust="spacing" textLength="55" x="5" y="353.0078">&#171;Admin&#187;</text><text fill="#000000" font-family="sans-serif" font-size="14" lengthAdjust="spacing" textLength="29" x="18" y="371.6289">User</text><ellipse cx="35.5" cy="383.6426" fill="#E2E2F0" rx="8" ry="8" style="stroke:#181818;stroke-width:0.5;"/><path d="M35.5,391.6426 L35.5,418.6426 M22.5,399.6426 L48.5,399.6426 M35.5,418.6426 L22.5,433.6426 M35.5,418.6426 L48.5,433.6426 " fill="none" style="stroke:#181818;stroke-width:0.5;"/><rect fill="#E2E2F0" height="51.2422" rx="2.5" ry="2.5" style="stroke:#181818;stroke-width:0.5;" width="106" x="227.5" y="89.6211"/><text fill="#000000" font-family="sans-serif" font-size="14" font-style="italic" lengthAdjust="spacing" textLength="92" x="234.5" y="111.7285">&#171;system (C4)&#187;</text><text fill="#000000" font-family="sans-serif" font-size="14" lengthAdjust="spacing" textLength="84" x="238.5" y="130.3496">RobDroneGo</text><rect fill="#E2E2F0" height="51.2422" rx="2.5" ry="2.5" style="stroke:#181818;stroke-width:0.5;" width="106" x="227.5" y="337.9004"/><text fill="#000000" font-family="sans-serif" font-size="14" font-style="italic" lengthAdjust="spacing" textLength="92" x="234.5" y="360.0078">&#171;system (C4)&#187;</text><text fill="#000000" font-family="sans-serif" font-size="14" lengthAdjust="spacing" textLength="84" x="238.5" y="378.6289">RobDroneGo</text><rect fill="#E2E2F0" height="51.2422" rx="2.5" ry="2.5" style="stroke:#181818;stroke-width:0.5;" width="80" x="430.5" y="89.6211"/><text fill="#000000" font-family="sans-serif" font-size="14" font-style="italic" lengthAdjust="spacing" textLength="66" x="437.5" y="111.7285">&#171;external&#187;</text><text fill="#000000" font-family="sans-serif" font-size="14" lengthAdjust="spacing" textLength="37" x="452" y="130.3496">Auth0</text><rect fill="#E2E2F0" height="51.2422" rx="2.5" ry="2.5" style="stroke:#181818;stroke-width:0.5;" width="80" x="430.5" y="337.9004"/><text fill="#000000" font-family="sans-serif" font-size="14" font-style="italic" lengthAdjust="spacing" textLength="66" x="437.5" y="360.0078">&#171;external&#187;</text><text fill="#000000" font-family="sans-serif" font-size="14" lengthAdjust="spacing" textLength="37" x="452" y="378.6289">Auth0</text><rect fill="#FFFFFF" height="169.0371" style="stroke:#181818;stroke-width:1.0;" width="10" x="30.5" y="151.8633"/><rect fill="#FFFFFF" height="128.4551" style="stroke:#181818;stroke-width:1.0;" width="10" x="275.5" y="192.4453"/><rect fill="#FFFFFF" height="31.291" style="stroke:#181818;stroke-width:1.0;" width="10" x="465.5" y="241.0273"/><polygon fill="#181818" points="263.5,188.4453,273.5,192.4453,263.5,196.4453,267.5,192.4453" style="stroke:#181818;stroke-width:1.0;"/><line style="stroke:#181818;stroke-width:1.0;" x1="40.5" x2="269.5" y1="192.4453" y2="192.4453"/><text fill="#000000" font-family="sans-serif" font-size="13" font-weight="bold" lengthAdjust="spacing" textLength="7" x="47.5" y="178.5371">1</text><text fill="#000000" font-family="sans-serif" font-size="13" lengthAdjust="spacing" textLength="189" x="58.5" y="169.8916">Selects a SignUp Request, adds</text><text fill="#000000" font-family="sans-serif" font-size="13" lengthAdjust="spacing" textLength="191" x="58.5" y="187.1826">a comment and clicks on Accept</text><polygon fill="#181818" points="453.5,237.0273,463.5,241.0273,453.5,245.0273,457.5,241.0273" style="stroke:#181818;stroke-width:1.0;"/><line style="stroke:#181818;stroke-width:1.0;stroke-dasharray:2.0,2.0;" x1="285.5" x2="459.5" y1="241.0273" y2="241.0273"/><text fill="#000000" font-family="sans-serif" font-size="13" font-weight="bold" lengthAdjust="spacing" textLength="7" x="292.5" y="227.1191">2</text><text fill="#000000" font-family="sans-serif" font-size="13" lengthAdjust="spacing" textLength="146" x="303.5" y="218.4736">Adds the "EndUser" Role</text><text fill="#000000" font-family="sans-serif" font-size="13" lengthAdjust="spacing" textLength="118" x="303.5" y="235.7646">to the user on Auth0</text><polygon fill="#181818" points="296.5,268.3184,286.5,272.3184,296.5,276.3184,292.5,272.3184" style="stroke:#181818;stroke-width:1.0;"/><line style="stroke:#181818;stroke-width:1.0;stroke-dasharray:2.0,2.0;" x1="290.5" x2="469.5" y1="272.3184" y2="272.3184"/><text fill="#000000" font-family="sans-serif" font-size="13" font-weight="bold" lengthAdjust="spacing" textLength="7" x="302.5" y="267.0557">3</text><text fill="#000000" font-family="sans-serif" font-size="13" lengthAdjust="spacing" textLength="98" x="313.5" y="267.0557">Returns success</text><polygon fill="#181818" points="46.5,316.9004,36.5,320.9004,46.5,324.9004,42.5,320.9004" style="stroke:#181818;stroke-width:1.0;"/><line style="stroke:#181818;stroke-width:1.0;stroke-dasharray:2.0,2.0;" x1="40.5" x2="279.5" y1="320.9004" y2="320.9004"/><text fill="#000000" font-family="sans-serif" font-size="13" font-weight="bold" lengthAdjust="spacing" textLength="7" x="52.5" y="306.9922">4</text><text fill="#000000" font-family="sans-serif" font-size="13" lengthAdjust="spacing" textLength="196" x="63.5" y="298.3467">Displays a success message and</text><text fill="#000000" font-family="sans-serif" font-size="13" lengthAdjust="spacing" textLength="194" x="63.5" y="315.6377">refreshes the SignUp Request list</text><!--SRC=[NP4nRm8n38Nt_0hhfbOg4aCdX92YKh4Vket5vDmISKckiLELVr_d0EbWYHBdwVDxDXP9iOGZPSDd7qVC6614TyPlsijb8CZan1ZnedVh78q2U_yTkn5Q-Yd4-ebEKeQcOyeD84C7wxNjWu-RZL6YUET7Z09DcuxRd2BjqgHhjpjLyeM50hnylBy-wssHqtAIsgKgwKyeHnnKLdlwNnI2pfWE5fiAMm7iQL2_3FXayWsmxnaE4S6b44Zf67jmWtTdXXHlqMPSvHbJ7IuKRfShi1KW9uBcC_RNh6tIeHoYfAbUj3QXgkiPoUf3_I_k9bkIaYC35-t9R7fwaDvxTYlOUXu7lDGuDp44FNGta_j3pFILYKzqDVOO6GPVbpEZJv5cRnsT-GS0]--></g></svg>