<?xml version="1.0" encoding="us-ascii" standalone="no"?><svg xmlns="http://www.w3.org/2000/svg" xmlns:xlink="http://www.w3.org/1999/xlink" contentStyleType="text/css" height="1005px" preserveAspectRatio="none" style="width:645px;height:1005px;background:#FFFFFF;" version="1.1" viewBox="0 0 645 1005" width="645px" zoomAndPan="magnify"><defs/><g><text fill="#000000" font-family="sans-serif" font-size="14" font-weight="bold" lengthAdjust="spacing" textLength="90" x="278.5" y="30.1074">Edit Elevator</text><rect fill="#FFFFFF" height="615.4707" style="stroke:#181818;stroke-width:1.0;" width="10" x="391" y="282.1914"/><rect fill="#FFFFFF" height="31.291" style="stroke:#181818;stroke-width:1.0;" width="10" x="577" y="339.7734"/><rect fill="#FFFFFF" height="31.291" style="stroke:#181818;stroke-width:1.0;" width="10" x="577" y="514.8594"/><rect fill="#FFFFFF" height="31.291" style="stroke:#181818;stroke-width:1.0;" width="10" x="577" y="689.9453"/><rect fill="none" height="592.4707" style="stroke:#000000;stroke-width:1.5;" width="635" x="3" y="297.1914"/><rect fill="none" height="98.5039" style="stroke:#000000;stroke-width:1.5;" width="453" x="3" y="386.0645"/><rect fill="none" height="98.5039" style="stroke:#000000;stroke-width:1.5;" width="453" x="3" y="561.1504"/><rect fill="none" height="98.5039" style="stroke:#000000;stroke-width:1.5;" width="453" x="3" y="736.2363"/><line style="stroke:#181818;stroke-width:0.5;stroke-dasharray:5.0,5.0;" x1="396" x2="396" y1="127.8633" y2="906.6621"/><line style="stroke:#181818;stroke-width:0.5;stroke-dasharray:5.0,5.0;" x1="582" x2="582" y1="127.8633" y2="906.6621"/><rect fill="#E2E2F0" height="51.2422" rx="2.5" ry="2.5" style="stroke:#181818;stroke-width:0.5;" width="100" x="346" y="75.6211"/><text fill="#000000" font-family="sans-serif" font-size="14" font-style="italic" lengthAdjust="spacing" textLength="86" x="353" y="97.7285">&#171;component&#187;</text><text fill="#000000" font-family="sans-serif" font-size="14" lengthAdjust="spacing" textLength="61" x="365.5" y="116.3496">Back-End</text><rect fill="#E2E2F0" height="51.2422" rx="2.5" ry="2.5" style="stroke:#181818;stroke-width:0.5;" width="100" x="346" y="905.6621"/><text fill="#000000" font-family="sans-serif" font-size="14" font-style="italic" lengthAdjust="spacing" textLength="86" x="353" y="927.7695">&#171;component&#187;</text><text fill="#000000" font-family="sans-serif" font-size="14" lengthAdjust="spacing" textLength="61" x="365.5" y="946.3906">Back-End</text><text fill="#000000" font-family="sans-serif" font-size="14" font-style="italic" lengthAdjust="spacing" textLength="86" x="536" y="105.7285">&#171;component&#187;</text><text fill="#000000" font-family="sans-serif" font-size="14" lengthAdjust="spacing" textLength="62" x="548" y="124.3496">DataBase</text><path d="M564,54.6211 C564,44.6211 582,44.6211 582,44.6211 C582,44.6211 600,44.6211 600,54.6211 L600,80.6211 C600,90.6211 582,90.6211 582,90.6211 C582,90.6211 564,90.6211 564,80.6211 L564,54.6211 " fill="#E2E2F0" style="stroke:#181818;stroke-width:1.5;"/><path d="M564,54.6211 C564,64.6211 582,64.6211 582,64.6211 C582,64.6211 600,64.6211 600,54.6211 " fill="none" style="stroke:#181818;stroke-width:1.5;"/><text fill="#000000" font-family="sans-serif" font-size="14" font-style="italic" lengthAdjust="spacing" textLength="86" x="536" y="920.7695">&#171;component&#187;</text><text fill="#000000" font-family="sans-serif" font-size="14" lengthAdjust="spacing" textLength="62" x="548" y="939.3906">DataBase</text><path d="M564,952.9043 C564,942.9043 582,942.9043 582,942.9043 C582,942.9043 600,942.9043 600,952.9043 L600,978.9043 C600,988.9043 582,988.9043 582,988.9043 C582,988.9043 564,988.9043 564,978.9043 L564,952.9043 " fill="#E2E2F0" style="stroke:#181818;stroke-width:1.5;"/><path d="M564,952.9043 C564,962.9043 582,962.9043 582,962.9043 C582,962.9043 600,962.9043 600,952.9043 " fill="none" style="stroke:#181818;stroke-width:1.5;"/><rect fill="#FFFFFF" height="615.4707" style="stroke:#181818;stroke-width:1.0;" width="10" x="391" y="282.1914"/><rect fill="#FFFFFF" height="31.291" style="stroke:#181818;stroke-width:1.0;" width="10" x="577" y="339.7734"/><rect fill="#FFFFFF" height="31.291" style="stroke:#181818;stroke-width:1.0;" width="10" x="577" y="514.8594"/><rect fill="#FFFFFF" height="31.291" style="stroke:#181818;stroke-width:1.0;" width="10" x="577" y="689.9453"/><polygon fill="#181818" points="379,278.1914,389,282.1914,379,286.1914,383,282.1914" style="stroke:#181818;stroke-width:1.0;"/><line style="stroke:#181818;stroke-width:1.0;" x1="0" x2="385" y1="282.1914" y2="282.1914"/><text fill="#000000" font-family="sans-serif" font-size="13" font-weight="bold" lengthAdjust="spacing" textLength="7" x="7" y="216.4102">1</text><text fill="#000000" font-family="sans-serif" font-size="13" lengthAdjust="spacing" textLength="106" x="18" y="155.8916">PATCH elevators/{</text><text fill="#000000" font-family="sans-serif" font-size="13" lengthAdjust="spacing" textLength="83" x="22" y="173.1826">brand?: brand,</text><text fill="#000000" font-family="sans-serif" font-size="13" lengthAdjust="spacing" textLength="89" x="22" y="190.4736">model?: model,</text><text fill="#000000" font-family="sans-serif" font-size="13" lengthAdjust="spacing" textLength="171" x="22" y="207.7646">serialNumber?: serialNumber,</text><text fill="#000000" font-family="sans-serif" font-size="13" lengthAdjust="spacing" textLength="145" x="22" y="225.0557">description?: description,</text><text fill="#000000" font-family="sans-serif" font-size="13" lengthAdjust="spacing" textLength="350" x="22" y="242.3467">elevatorPosition?: {xposition: xposition, yposition: yposition},</text><text fill="#000000" font-family="sans-serif" font-size="13" lengthAdjust="spacing" textLength="99" x="22" y="259.6377">floors?: [floorIds],</text><text fill="#000000" font-family="sans-serif" font-size="13" lengthAdjust="spacing" textLength="4" x="18" y="276.9287">}</text><path d="M3,297.1914 L64,297.1914 L64,306.4824 L54,316.4824 L3,316.4824 L3,297.1914 " fill="#EEEEEE" style="stroke:#000000;stroke-width:1.5;"/><rect fill="none" height="592.4707" style="stroke:#000000;stroke-width:1.5;" width="635" x="3" y="297.1914"/><text fill="#000000" font-family="sans-serif" font-size="13" font-weight="bold" lengthAdjust="spacing" textLength="16" x="18" y="312.2197">alt</text><text fill="#000000" font-family="sans-serif" font-size="11" font-weight="bold" lengthAdjust="spacing" textLength="107" x="79" y="311.0615">[user autothorized]</text><polygon fill="#181818" points="565,335.7734,575,339.7734,565,343.7734,569,339.7734" style="stroke:#181818;stroke-width:1.0;"/><line style="stroke:#181818;stroke-width:1.0;" x1="401" x2="571" y1="339.7734" y2="339.7734"/><text fill="#000000" font-family="sans-serif" font-size="13" font-weight="bold" lengthAdjust="spacing" textLength="7" x="408" y="334.5107">2</text><text fill="#000000" font-family="sans-serif" font-size="13" lengthAdjust="spacing" textLength="146" x="419" y="334.5107">find elevator by domain id</text><polygon fill="#181818" points="412,367.0645,402,371.0645,412,375.0645,408,371.0645" style="stroke:#181818;stroke-width:1.0;"/><line style="stroke:#181818;stroke-width:1.0;stroke-dasharray:2.0,2.0;" x1="406" x2="581" y1="371.0645" y2="371.0645"/><text fill="#000000" font-family="sans-serif" font-size="13" font-weight="bold" lengthAdjust="spacing" textLength="7" x="418" y="365.8018">3</text><text fill="#000000" font-family="sans-serif" font-size="13" lengthAdjust="spacing" textLength="4" x="429" y="365.8018">&#160;</text><path d="M3,386.0645 L64,386.0645 L64,395.3555 L54,405.3555 L3,405.3555 L3,386.0645 " fill="#EEEEEE" style="stroke:#000000;stroke-width:1.5;"/><rect fill="none" height="98.5039" style="stroke:#000000;stroke-width:1.5;" width="453" x="3" y="386.0645"/><text fill="#000000" font-family="sans-serif" font-size="13" font-weight="bold" lengthAdjust="spacing" textLength="16" x="18" y="401.0928">alt</text><text fill="#000000" font-family="sans-serif" font-size="11" font-weight="bold" lengthAdjust="spacing" textLength="109" x="79" y="399.9346">[elevator not found]</text><polygon fill="#181818" points="11,424.6465,1,428.6465,11,432.6465,7,428.6465" style="stroke:#181818;stroke-width:1.0;"/><line style="stroke:#181818;stroke-width:1.0;stroke-dasharray:2.0,2.0;" x1="5" x2="390" y1="428.6465" y2="428.6465"/><text fill="#000000" font-family="sans-serif" font-size="13" font-weight="bold" lengthAdjust="spacing" textLength="7" x="17" y="423.3838">4</text><text fill="#000000" font-family="sans-serif" font-size="13" lengthAdjust="spacing" textLength="163" x="28" y="423.3838">Response status code - 404</text><line style="stroke:#000000;stroke-width:1.0;stroke-dasharray:2.0,2.0;" x1="3" x2="456" y1="437.6465" y2="437.6465"/><text fill="#000000" font-family="sans-serif" font-size="11" font-weight="bold" lengthAdjust="spacing" textLength="122" x="8" y="449.5166">[database unavailable]</text><polygon fill="#181818" points="11,472.5684,1,476.5684,11,480.5684,7,476.5684" style="stroke:#181818;stroke-width:1.0;"/><line style="stroke:#181818;stroke-width:1.0;stroke-dasharray:2.0,2.0;" x1="5" x2="390" y1="476.5684" y2="476.5684"/><text fill="#000000" font-family="sans-serif" font-size="13" font-weight="bold" lengthAdjust="spacing" textLength="7" x="17" y="471.3057">5</text><text fill="#000000" font-family="sans-serif" font-size="13" lengthAdjust="spacing" textLength="163" x="28" y="471.3057">Response status code - 503</text><polygon fill="#181818" points="565,510.8594,575,514.8594,565,518.8594,569,514.8594" style="stroke:#181818;stroke-width:1.0;"/><line style="stroke:#181818;stroke-width:1.0;" x1="401" x2="571" y1="514.8594" y2="514.8594"/><text fill="#000000" font-family="sans-serif" font-size="13" font-weight="bold" lengthAdjust="spacing" textLength="7" x="408" y="509.5967">6</text><text fill="#000000" font-family="sans-serif" font-size="13" lengthAdjust="spacing" textLength="108" x="419" y="509.5967">find floor by floor id</text><polygon fill="#181818" points="412,542.1504,402,546.1504,412,550.1504,408,546.1504" style="stroke:#181818;stroke-width:1.0;"/><line style="stroke:#181818;stroke-width:1.0;stroke-dasharray:2.0,2.0;" x1="406" x2="581" y1="546.1504" y2="546.1504"/><text fill="#000000" font-family="sans-serif" font-size="13" font-weight="bold" lengthAdjust="spacing" textLength="7" x="418" y="540.8877">7</text><text fill="#000000" font-family="sans-serif" font-size="13" lengthAdjust="spacing" textLength="4" x="429" y="540.8877">&#160;</text><path d="M3,561.1504 L64,561.1504 L64,570.4414 L54,580.4414 L3,580.4414 L3,561.1504 " fill="#EEEEEE" style="stroke:#000000;stroke-width:1.5;"/><rect fill="none" height="98.5039" style="stroke:#000000;stroke-width:1.5;" width="453" x="3" y="561.1504"/><text fill="#000000" font-family="sans-serif" font-size="13" font-weight="bold" lengthAdjust="spacing" textLength="16" x="18" y="576.1787">alt</text><text fill="#000000" font-family="sans-serif" font-size="11" font-weight="bold" lengthAdjust="spacing" textLength="90" x="79" y="575.0205">[floor not found]</text><polygon fill="#181818" points="11,599.7324,1,603.7324,11,607.7324,7,603.7324" style="stroke:#181818;stroke-width:1.0;"/><line style="stroke:#181818;stroke-width:1.0;stroke-dasharray:2.0,2.0;" x1="5" x2="390" y1="603.7324" y2="603.7324"/><text fill="#000000" font-family="sans-serif" font-size="13" font-weight="bold" lengthAdjust="spacing" textLength="7" x="17" y="598.4697">8</text><text fill="#000000" font-family="sans-serif" font-size="13" lengthAdjust="spacing" textLength="163" x="28" y="598.4697">Response status code - 404</text><line style="stroke:#000000;stroke-width:1.0;stroke-dasharray:2.0,2.0;" x1="3" x2="456" y1="612.7324" y2="612.7324"/><text fill="#000000" font-family="sans-serif" font-size="11" font-weight="bold" lengthAdjust="spacing" textLength="122" x="8" y="624.6025">[database unavailable]</text><polygon fill="#181818" points="11,647.6543,1,651.6543,11,655.6543,7,651.6543" style="stroke:#181818;stroke-width:1.0;"/><line style="stroke:#181818;stroke-width:1.0;stroke-dasharray:2.0,2.0;" x1="5" x2="390" y1="651.6543" y2="651.6543"/><text fill="#000000" font-family="sans-serif" font-size="13" font-weight="bold" lengthAdjust="spacing" textLength="7" x="17" y="646.3916">9</text><text fill="#000000" font-family="sans-serif" font-size="13" lengthAdjust="spacing" textLength="163" x="28" y="646.3916">Response status code - 503</text><polygon fill="#181818" points="565,685.9453,575,689.9453,565,693.9453,569,689.9453" style="stroke:#181818;stroke-width:1.0;"/><line style="stroke:#181818;stroke-width:1.0;" x1="401" x2="571" y1="689.9453" y2="689.9453"/><text fill="#000000" font-family="sans-serif" font-size="13" font-weight="bold" lengthAdjust="spacing" textLength="14" x="408" y="684.6826">10</text><text fill="#000000" font-family="sans-serif" font-size="13" lengthAdjust="spacing" textLength="26" x="426" y="684.6826">save</text><polygon fill="#181818" points="412,717.2363,402,721.2363,412,725.2363,408,721.2363" style="stroke:#181818;stroke-width:1.0;"/><line style="stroke:#181818;stroke-width:1.0;stroke-dasharray:2.0,2.0;" x1="406" x2="581" y1="721.2363" y2="721.2363"/><text fill="#000000" font-family="sans-serif" font-size="13" font-weight="bold" lengthAdjust="spacing" textLength="14" x="418" y="715.9736">11</text><text fill="#000000" font-family="sans-serif" font-size="13" lengthAdjust="spacing" textLength="4" x="436" y="715.9736">&#160;</text><path d="M3,736.2363 L64,736.2363 L64,745.5273 L54,755.5273 L3,755.5273 L3,736.2363 " fill="#EEEEEE" style="stroke:#000000;stroke-width:1.5;"/><rect fill="none" height="98.5039" style="stroke:#000000;stroke-width:1.5;" width="453" x="3" y="736.2363"/><text fill="#000000" font-family="sans-serif" font-size="13" font-weight="bold" lengthAdjust="spacing" textLength="16" x="18" y="751.2646">alt</text><text fill="#000000" font-family="sans-serif" font-size="11" font-weight="bold" lengthAdjust="spacing" textLength="110" x="79" y="750.1064">[elevator persisted]</text><polygon fill="#181818" points="11,774.8184,1,778.8184,11,782.8184,7,778.8184" style="stroke:#181818;stroke-width:1.0;"/><line style="stroke:#181818;stroke-width:1.0;stroke-dasharray:2.0,2.0;" x1="5" x2="390" y1="778.8184" y2="778.8184"/><text fill="#000000" font-family="sans-serif" font-size="13" font-weight="bold" lengthAdjust="spacing" textLength="14" x="17" y="773.5557">12</text><text fill="#000000" font-family="sans-serif" font-size="13" lengthAdjust="spacing" textLength="163" x="35" y="773.5557">Response status code - 200</text><line style="stroke:#000000;stroke-width:1.0;stroke-dasharray:2.0,2.0;" x1="3" x2="456" y1="787.8184" y2="787.8184"/><text fill="#000000" font-family="sans-serif" font-size="11" font-weight="bold" lengthAdjust="spacing" textLength="123" x="8" y="799.6885">[database unaveilable]</text><polygon fill="#181818" points="11,822.7402,1,826.7402,11,830.7402,7,826.7402" style="stroke:#181818;stroke-width:1.0;"/><line style="stroke:#181818;stroke-width:1.0;stroke-dasharray:2.0,2.0;" x1="5" x2="390" y1="826.7402" y2="826.7402"/><text fill="#000000" font-family="sans-serif" font-size="13" font-weight="bold" lengthAdjust="spacing" textLength="14" x="17" y="821.4775">13</text><text fill="#000000" font-family="sans-serif" font-size="13" lengthAdjust="spacing" textLength="163" x="35" y="821.4775">Response status code - 503</text><line style="stroke:#000000;stroke-width:1.0;stroke-dasharray:2.0,2.0;" x1="3" x2="638" y1="842.7402" y2="842.7402"/><text fill="#000000" font-family="sans-serif" font-size="11" font-weight="bold" lengthAdjust="spacing" textLength="110" x="8" y="854.6104">[user unauthorized]</text><polygon fill="#181818" points="11,877.6621,1,881.6621,11,885.6621,7,881.6621" style="stroke:#181818;stroke-width:1.0;"/><line style="stroke:#181818;stroke-width:1.0;stroke-dasharray:2.0,2.0;" x1="5" x2="390" y1="881.6621" y2="881.6621"/><text fill="#000000" font-family="sans-serif" font-size="13" font-weight="bold" lengthAdjust="spacing" textLength="14" x="17" y="876.3994">14</text><text fill="#000000" font-family="sans-serif" font-size="13" lengthAdjust="spacing" textLength="163" x="35" y="876.3994">Response status code - 401</text><!--SRC=[nLB1JXj13BtxAwnSk6JLjAMNA0fYkq5mGQXmQtlmxZZjYDcPrOmt8aNyUxsx8GG48d3XD1xRxutVyr0hmRTroH7IjVKDHQgneUgQ_l2bh1rZv4e0n8h62sC55uvN9242QBVOoZRa1KUvWhA5DoEaXFa2PxCgr4tmx6K-1qD29IN6KQ5Hhb7VL-HF-Y2RAtYA5yTNtq-HDq-bJxU_F9QHl3cQ3kSODLC7mqup_JdMHE9eoPttWZI_U-tAXbCLRICsUAtktBhY_MCN8TbDn-rDixbCSHkESVsGtOPt7SNI1HrMWJ_xwCoatvg-0o0dsEeqIEgt_0tH_cC3S71YlS5oZKMeoNeyAmwqjnAhWx3w0A16gYD5FiLbrte_OuSn0yQQ7KYH0wYdsU0YWE57fMwCBOKFWilGUiKZphAiz_q79zs5xYa9IPkmKcSnmyF98G0xpMyNsNfQaNLKEjw3uDlagnBuNSqddKMlI-wTxFg7uAro1zG7QOKNfILQyJltrd1CDWdle-NBPFAS5dw7bfwb_yFAq3xyuJty_3nG_0S0]--></g></svg>