<?xml version="1.0" encoding="us-ascii" standalone="no"?><svg xmlns="http://www.w3.org/2000/svg" xmlns:xlink="http://www.w3.org/1999/xlink" contentStyleType="text/css" height="1261px" preserveAspectRatio="none" style="width:649px;height:1261px;background:#FFFFFF;" version="1.1" viewBox="0 0 649 1261" width="649px" zoomAndPan="magnify"><defs/><g><text fill="#000000" font-family="sans-serif" font-size="14" font-weight="bold" lengthAdjust="spacing" textLength="110" x="271.25" y="30.1074">Create Elevator</text><rect fill="#FFFFFF" height="836.5078" style="stroke:#181818;stroke-width:1.0;" width="10" x="384" y="316.7734"/><rect fill="#FFFFFF" height="31.291" style="stroke:#181818;stroke-width:1.0;" width="10" x="586" y="348.0645"/><rect fill="#FFFFFF" height="31.291" style="stroke:#181818;stroke-width:1.0;" width="10" x="586" y="523.1504"/><rect fill="#FFFFFF" height="31.291" style="stroke:#181818;stroke-width:1.0;" width="10" x="586" y="698.2363"/><rect fill="#FFFFFF" height="31.291" style="stroke:#181818;stroke-width:1.0;" width="10" x="586" y="825.4004"/><rect fill="#FFFFFF" height="31.291" style="stroke:#181818;stroke-width:1.0;" width="10" x="586" y="1000.4863"/><rect fill="none" height="98.5039" style="stroke:#000000;stroke-width:1.5;" width="449" x="3" y="394.3555"/><rect fill="none" height="98.5039" style="stroke:#000000;stroke-width:1.5;" width="449" x="3" y="569.4414"/><rect fill="none" height="50.582" style="stroke:#000000;stroke-width:1.5;" width="449" x="3" y="744.5273"/><rect fill="none" height="98.5039" style="stroke:#000000;stroke-width:1.5;" width="449" x="3" y="871.6914"/><rect fill="none" height="98.5039" style="stroke:#000000;stroke-width:1.5;" width="449" x="3" y="1046.7773"/><line style="stroke:#181818;stroke-width:0.5;stroke-dasharray:5.0,5.0;" x1="389" x2="389" y1="127.8633" y2="1162.2813"/><line style="stroke:#181818;stroke-width:0.5;stroke-dasharray:5.0,5.0;" x1="590.5" x2="590.5" y1="127.8633" y2="1162.2813"/><rect fill="#E2E2F0" height="51.2422" rx="2.5" ry="2.5" style="stroke:#181818;stroke-width:0.5;" width="106" x="336" y="75.6211"/><text fill="#000000" font-family="sans-serif" font-size="14" font-style="italic" lengthAdjust="spacing" textLength="86" x="346" y="97.7285">&#171;component&#187;</text><text fill="#000000" font-family="sans-serif" font-size="14" lengthAdjust="spacing" textLength="92" x="343" y="116.3496">Node Backend</text><rect fill="#E2E2F0" height="51.2422" rx="2.5" ry="2.5" style="stroke:#181818;stroke-width:0.5;" width="106" x="336" y="1161.2813"/><text fill="#000000" font-family="sans-serif" font-size="14" font-style="italic" lengthAdjust="spacing" textLength="86" x="346" y="1183.3887">&#171;component&#187;</text><text fill="#000000" font-family="sans-serif" font-size="14" lengthAdjust="spacing" textLength="92" x="343" y="1202.0098">Node Backend</text><text fill="#000000" font-family="sans-serif" font-size="14" font-style="italic" lengthAdjust="spacing" textLength="86" x="545" y="105.7285">&#171;component&#187;</text><text fill="#000000" font-family="sans-serif" font-size="14" lengthAdjust="spacing" textLength="109" x="533.5" y="124.3496">Mongo DataBase</text><path d="M573,54.6211 C573,44.6211 591,44.6211 591,44.6211 C591,44.6211 609,44.6211 609,54.6211 L609,80.6211 C609,90.6211 591,90.6211 591,90.6211 C591,90.6211 573,90.6211 573,80.6211 L573,54.6211 " fill="#E2E2F0" style="stroke:#181818;stroke-width:1.5;"/><path d="M573,54.6211 C573,64.6211 591,64.6211 591,64.6211 C591,64.6211 609,64.6211 609,54.6211 " fill="none" style="stroke:#181818;stroke-width:1.5;"/><text fill="#000000" font-family="sans-serif" font-size="14" font-style="italic" lengthAdjust="spacing" textLength="86" x="545" y="1176.3887">&#171;component&#187;</text><text fill="#000000" font-family="sans-serif" font-size="14" lengthAdjust="spacing" textLength="109" x="533.5" y="1195.0098">Mongo DataBase</text><path d="M573,1208.5234 C573,1198.5234 591,1198.5234 591,1198.5234 C591,1198.5234 609,1198.5234 609,1208.5234 L609,1234.5234 C609,1244.5234 591,1244.5234 591,1244.5234 C591,1244.5234 573,1244.5234 573,1234.5234 L573,1208.5234 " fill="#E2E2F0" style="stroke:#181818;stroke-width:1.5;"/><path d="M573,1208.5234 C573,1218.5234 591,1218.5234 591,1218.5234 C591,1218.5234 609,1218.5234 609,1208.5234 " fill="none" style="stroke:#181818;stroke-width:1.5;"/><rect fill="#FFFFFF" height="836.5078" style="stroke:#181818;stroke-width:1.0;" width="10" x="384" y="316.7734"/><rect fill="#FFFFFF" height="31.291" style="stroke:#181818;stroke-width:1.0;" width="10" x="586" y="348.0645"/><rect fill="#FFFFFF" height="31.291" style="stroke:#181818;stroke-width:1.0;" width="10" x="586" y="523.1504"/><rect fill="#FFFFFF" height="31.291" style="stroke:#181818;stroke-width:1.0;" width="10" x="586" y="698.2363"/><rect fill="#FFFFFF" height="31.291" style="stroke:#181818;stroke-width:1.0;" width="10" x="586" y="825.4004"/><rect fill="#FFFFFF" height="31.291" style="stroke:#181818;stroke-width:1.0;" width="10" x="586" y="1000.4863"/><polygon fill="#181818" points="372,312.7734,382,316.7734,372,320.7734,376,316.7734" style="stroke:#181818;stroke-width:1.0;"/><line style="stroke:#181818;stroke-width:1.0;" x1="0" x2="378" y1="316.7734" y2="316.7734"/><text fill="#000000" font-family="sans-serif" font-size="13" font-weight="bold" lengthAdjust="spacing" textLength="7" x="7" y="233.7012">1</text><text fill="#000000" font-family="sans-serif" font-size="13" lengthAdjust="spacing" textLength="98" x="18" y="155.8916">POST elevators/{</text><text fill="#000000" font-family="sans-serif" font-size="13" lengthAdjust="spacing" textLength="123" x="22" y="173.1826">domainId?: domainId,</text><text fill="#000000" font-family="sans-serif" font-size="13" lengthAdjust="spacing" textLength="83" x="22" y="190.4736">brand?: brand,</text><text fill="#000000" font-family="sans-serif" font-size="13" lengthAdjust="spacing" textLength="89" x="22" y="207.7646">model?: model,</text><text fill="#000000" font-family="sans-serif" font-size="13" lengthAdjust="spacing" textLength="171" x="22" y="225.0557">serialNumber?: serialNumber,</text><text fill="#000000" font-family="sans-serif" font-size="13" lengthAdjust="spacing" textLength="145" x="22" y="242.3467">description?: description,</text><text fill="#000000" font-family="sans-serif" font-size="13" lengthAdjust="spacing" textLength="343" x="22" y="259.6377">elevatorPosition: {xposition: xposition, yposition: yposition},</text><text fill="#000000" font-family="sans-serif" font-size="13" lengthAdjust="spacing" textLength="92" x="22" y="276.9287">floors: [floorIds],</text><text fill="#000000" font-family="sans-serif" font-size="13" lengthAdjust="spacing" textLength="106" x="22" y="294.2197">building: buildingId</text><text fill="#000000" font-family="sans-serif" font-size="13" lengthAdjust="spacing" textLength="4" x="18" y="311.5107">}</text><polygon fill="#181818" points="574,344.0645,584,348.0645,574,352.0645,578,348.0645" style="stroke:#181818;stroke-width:1.0;"/><line style="stroke:#181818;stroke-width:1.0;" x1="394" x2="580" y1="348.0645" y2="348.0645"/><text fill="#000000" font-family="sans-serif" font-size="13" font-weight="bold" lengthAdjust="spacing" textLength="7" x="401" y="342.8018">2</text><text fill="#000000" font-family="sans-serif" font-size="13" lengthAdjust="spacing" textLength="146" x="412" y="342.8018">find elevator by domain id</text><polygon fill="#181818" points="405,375.3555,395,379.3555,405,383.3555,401,379.3555" style="stroke:#181818;stroke-width:1.0;"/><line style="stroke:#181818;stroke-width:1.0;stroke-dasharray:2.0,2.0;" x1="399" x2="590" y1="379.3555" y2="379.3555"/><text fill="#000000" font-family="sans-serif" font-size="13" font-weight="bold" lengthAdjust="spacing" textLength="7" x="411" y="374.0928">3</text><text fill="#000000" font-family="sans-serif" font-size="13" lengthAdjust="spacing" textLength="4" x="422" y="374.0928">&#160;</text><path d="M3,394.3555 L64,394.3555 L64,403.6465 L54,413.6465 L3,413.6465 L3,394.3555 " fill="#EEEEEE" style="stroke:#000000;stroke-width:1.5;"/><rect fill="none" height="98.5039" style="stroke:#000000;stroke-width:1.5;" width="449" x="3" y="394.3555"/><text fill="#000000" font-family="sans-serif" font-size="13" font-weight="bold" lengthAdjust="spacing" textLength="16" x="18" y="409.3838">alt</text><text fill="#000000" font-family="sans-serif" font-size="11" font-weight="bold" lengthAdjust="spacing" textLength="142" x="79" y="408.2256">[domain Id already exists]</text><polygon fill="#181818" points="11,432.9375,1,436.9375,11,440.9375,7,436.9375" style="stroke:#181818;stroke-width:1.0;"/><line style="stroke:#181818;stroke-width:1.0;stroke-dasharray:2.0,2.0;" x1="5" x2="383" y1="436.9375" y2="436.9375"/><text fill="#000000" font-family="sans-serif" font-size="13" font-weight="bold" lengthAdjust="spacing" textLength="7" x="17" y="431.6748">4</text><text fill="#000000" font-family="sans-serif" font-size="13" lengthAdjust="spacing" textLength="163" x="28" y="431.6748">Response status code - 409</text><line style="stroke:#000000;stroke-width:1.0;stroke-dasharray:2.0,2.0;" x1="3" x2="452" y1="445.9375" y2="445.9375"/><text fill="#000000" font-family="sans-serif" font-size="11" font-weight="bold" lengthAdjust="spacing" textLength="122" x="8" y="457.8076">[database unavailable]</text><polygon fill="#181818" points="11,480.8594,1,484.8594,11,488.8594,7,484.8594" style="stroke:#181818;stroke-width:1.0;"/><line style="stroke:#181818;stroke-width:1.0;stroke-dasharray:2.0,2.0;" x1="5" x2="383" y1="484.8594" y2="484.8594"/><text fill="#000000" font-family="sans-serif" font-size="13" font-weight="bold" lengthAdjust="spacing" textLength="7" x="17" y="479.5967">5</text><text fill="#000000" font-family="sans-serif" font-size="13" lengthAdjust="spacing" textLength="163" x="28" y="479.5967">Response status code - 503</text><polygon fill="#181818" points="574,519.1504,584,523.1504,574,527.1504,578,523.1504" style="stroke:#181818;stroke-width:1.0;"/><line style="stroke:#181818;stroke-width:1.0;" x1="394" x2="580" y1="523.1504" y2="523.1504"/><text fill="#000000" font-family="sans-serif" font-size="13" font-weight="bold" lengthAdjust="spacing" textLength="7" x="401" y="517.8877">6</text><text fill="#000000" font-family="sans-serif" font-size="13" lengthAdjust="spacing" textLength="148" x="412" y="517.8877">find building by building id</text><polygon fill="#181818" points="405,550.4414,395,554.4414,405,558.4414,401,554.4414" style="stroke:#181818;stroke-width:1.0;"/><line style="stroke:#181818;stroke-width:1.0;stroke-dasharray:2.0,2.0;" x1="399" x2="590" y1="554.4414" y2="554.4414"/><text fill="#000000" font-family="sans-serif" font-size="13" font-weight="bold" lengthAdjust="spacing" textLength="7" x="411" y="549.1787">7</text><text fill="#000000" font-family="sans-serif" font-size="13" lengthAdjust="spacing" textLength="4" x="422" y="549.1787">&#160;</text><path d="M3,569.4414 L64,569.4414 L64,578.7324 L54,588.7324 L3,588.7324 L3,569.4414 " fill="#EEEEEE" style="stroke:#000000;stroke-width:1.5;"/><rect fill="none" height="98.5039" style="stroke:#000000;stroke-width:1.5;" width="449" x="3" y="569.4414"/><text fill="#000000" font-family="sans-serif" font-size="13" font-weight="bold" lengthAdjust="spacing" textLength="16" x="18" y="584.4697">alt</text><text fill="#000000" font-family="sans-serif" font-size="11" font-weight="bold" lengthAdjust="spacing" textLength="108" x="79" y="583.3115">[building not found]</text><polygon fill="#181818" points="11,608.0234,1,612.0234,11,616.0234,7,612.0234" style="stroke:#181818;stroke-width:1.0;"/><line style="stroke:#181818;stroke-width:1.0;stroke-dasharray:2.0,2.0;" x1="5" x2="383" y1="612.0234" y2="612.0234"/><text fill="#000000" font-family="sans-serif" font-size="13" font-weight="bold" lengthAdjust="spacing" textLength="7" x="17" y="606.7607">8</text><text fill="#000000" font-family="sans-serif" font-size="13" lengthAdjust="spacing" textLength="163" x="28" y="606.7607">Response status code - 404</text><line style="stroke:#000000;stroke-width:1.0;stroke-dasharray:2.0,2.0;" x1="3" x2="452" y1="621.0234" y2="621.0234"/><text fill="#000000" font-family="sans-serif" font-size="11" font-weight="bold" lengthAdjust="spacing" textLength="122" x="8" y="632.8936">[database unavailable]</text><polygon fill="#181818" points="11,655.9453,1,659.9453,11,663.9453,7,659.9453" style="stroke:#181818;stroke-width:1.0;"/><line style="stroke:#181818;stroke-width:1.0;stroke-dasharray:2.0,2.0;" x1="5" x2="383" y1="659.9453" y2="659.9453"/><text fill="#000000" font-family="sans-serif" font-size="13" font-weight="bold" lengthAdjust="spacing" textLength="7" x="17" y="654.6826">9</text><text fill="#000000" font-family="sans-serif" font-size="13" lengthAdjust="spacing" textLength="163" x="28" y="654.6826">Response status code - 503</text><polygon fill="#181818" points="574,694.2363,584,698.2363,574,702.2363,578,698.2363" style="stroke:#181818;stroke-width:1.0;"/><line style="stroke:#181818;stroke-width:1.0;" x1="394" x2="580" y1="698.2363" y2="698.2363"/><text fill="#000000" font-family="sans-serif" font-size="13" font-weight="bold" lengthAdjust="spacing" textLength="14" x="401" y="692.9736">10</text><text fill="#000000" font-family="sans-serif" font-size="13" lengthAdjust="spacing" textLength="155" x="419" y="692.9736">find elevators by building id</text><polygon fill="#181818" points="405,725.5273,395,729.5273,405,733.5273,401,729.5273" style="stroke:#181818;stroke-width:1.0;"/><line style="stroke:#181818;stroke-width:1.0;stroke-dasharray:2.0,2.0;" x1="399" x2="590" y1="729.5273" y2="729.5273"/><text fill="#000000" font-family="sans-serif" font-size="13" font-weight="bold" lengthAdjust="spacing" textLength="14" x="411" y="724.2646">11</text><text fill="#000000" font-family="sans-serif" font-size="13" lengthAdjust="spacing" textLength="4" x="429" y="724.2646">&#160;</text><path d="M3,744.5273 L64,744.5273 L64,753.8184 L54,763.8184 L3,763.8184 L3,744.5273 " fill="#EEEEEE" style="stroke:#000000;stroke-width:1.5;"/><rect fill="none" height="50.582" style="stroke:#000000;stroke-width:1.5;" width="449" x="3" y="744.5273"/><text fill="#000000" font-family="sans-serif" font-size="13" font-weight="bold" lengthAdjust="spacing" textLength="16" x="18" y="759.5557">alt</text><text fill="#000000" font-family="sans-serif" font-size="11" font-weight="bold" lengthAdjust="spacing" textLength="122" x="79" y="758.3975">[database unavailable]</text><polygon fill="#181818" points="11,783.1094,1,787.1094,11,791.1094,7,787.1094" style="stroke:#181818;stroke-width:1.0;"/><line style="stroke:#181818;stroke-width:1.0;stroke-dasharray:2.0,2.0;" x1="5" x2="383" y1="787.1094" y2="787.1094"/><text fill="#000000" font-family="sans-serif" font-size="13" font-weight="bold" lengthAdjust="spacing" textLength="14" x="17" y="781.8467">12</text><text fill="#000000" font-family="sans-serif" font-size="13" lengthAdjust="spacing" textLength="163" x="35" y="781.8467">Response status code - 503</text><polygon fill="#181818" points="574,821.4004,584,825.4004,574,829.4004,578,825.4004" style="stroke:#181818;stroke-width:1.0;"/><line style="stroke:#181818;stroke-width:1.0;" x1="394" x2="580" y1="825.4004" y2="825.4004"/><text fill="#000000" font-family="sans-serif" font-size="13" font-weight="bold" lengthAdjust="spacing" textLength="14" x="401" y="820.1377">13</text><text fill="#000000" font-family="sans-serif" font-size="13" lengthAdjust="spacing" textLength="108" x="419" y="820.1377">find floor by floor id</text><polygon fill="#181818" points="405,852.6914,395,856.6914,405,860.6914,401,856.6914" style="stroke:#181818;stroke-width:1.0;"/><line style="stroke:#181818;stroke-width:1.0;stroke-dasharray:2.0,2.0;" x1="399" x2="590" y1="856.6914" y2="856.6914"/><text fill="#000000" font-family="sans-serif" font-size="13" font-weight="bold" lengthAdjust="spacing" textLength="14" x="411" y="851.4287">14</text><text fill="#000000" font-family="sans-serif" font-size="13" lengthAdjust="spacing" textLength="4" x="429" y="851.4287">&#160;</text><path d="M3,871.6914 L64,871.6914 L64,880.9824 L54,890.9824 L3,890.9824 L3,871.6914 " fill="#EEEEEE" style="stroke:#000000;stroke-width:1.5;"/><rect fill="none" height="98.5039" style="stroke:#000000;stroke-width:1.5;" width="449" x="3" y="871.6914"/><text fill="#000000" font-family="sans-serif" font-size="13" font-weight="bold" lengthAdjust="spacing" textLength="16" x="18" y="886.7197">alt</text><text fill="#000000" font-family="sans-serif" font-size="11" font-weight="bold" lengthAdjust="spacing" textLength="90" x="79" y="885.5615">[floor not found]</text><polygon fill="#181818" points="11,910.2734,1,914.2734,11,918.2734,7,914.2734" style="stroke:#181818;stroke-width:1.0;"/><line style="stroke:#181818;stroke-width:1.0;stroke-dasharray:2.0,2.0;" x1="5" x2="383" y1="914.2734" y2="914.2734"/><text fill="#000000" font-family="sans-serif" font-size="13" font-weight="bold" lengthAdjust="spacing" textLength="14" x="17" y="909.0107">15</text><text fill="#000000" font-family="sans-serif" font-size="13" lengthAdjust="spacing" textLength="163" x="35" y="909.0107">Response status code - 404</text><line style="stroke:#000000;stroke-width:1.0;stroke-dasharray:2.0,2.0;" x1="3" x2="452" y1="923.2734" y2="923.2734"/><text fill="#000000" font-family="sans-serif" font-size="11" font-weight="bold" lengthAdjust="spacing" textLength="122" x="8" y="935.1436">[database unavailable]</text><polygon fill="#181818" points="11,958.1953,1,962.1953,11,966.1953,7,962.1953" style="stroke:#181818;stroke-width:1.0;"/><line style="stroke:#181818;stroke-width:1.0;stroke-dasharray:2.0,2.0;" x1="5" x2="383" y1="962.1953" y2="962.1953"/><text fill="#000000" font-family="sans-serif" font-size="13" font-weight="bold" lengthAdjust="spacing" textLength="14" x="17" y="956.9326">16</text><text fill="#000000" font-family="sans-serif" font-size="13" lengthAdjust="spacing" textLength="163" x="35" y="956.9326">Response status code - 503</text><polygon fill="#181818" points="574,996.4863,584,1000.4863,574,1004.4863,578,1000.4863" style="stroke:#181818;stroke-width:1.0;"/><line style="stroke:#181818;stroke-width:1.0;" x1="394" x2="580" y1="1000.4863" y2="1000.4863"/><text fill="#000000" font-family="sans-serif" font-size="13" font-weight="bold" lengthAdjust="spacing" textLength="14" x="401" y="995.2236">17</text><text fill="#000000" font-family="sans-serif" font-size="13" lengthAdjust="spacing" textLength="26" x="419" y="995.2236">save</text><polygon fill="#181818" points="405,1027.7773,395,1031.7773,405,1035.7773,401,1031.7773" style="stroke:#181818;stroke-width:1.0;"/><line style="stroke:#181818;stroke-width:1.0;stroke-dasharray:2.0,2.0;" x1="399" x2="590" y1="1031.7773" y2="1031.7773"/><text fill="#000000" font-family="sans-serif" font-size="13" font-weight="bold" lengthAdjust="spacing" textLength="14" x="411" y="1026.5146">18</text><text fill="#000000" font-family="sans-serif" font-size="13" lengthAdjust="spacing" textLength="4" x="429" y="1026.5146">&#160;</text><path d="M3,1046.7773 L64,1046.7773 L64,1056.0684 L54,1066.0684 L3,1066.0684 L3,1046.7773 " fill="#EEEEEE" style="stroke:#000000;stroke-width:1.5;"/><rect fill="none" height="98.5039" style="stroke:#000000;stroke-width:1.5;" width="449" x="3" y="1046.7773"/><text fill="#000000" font-family="sans-serif" font-size="13" font-weight="bold" lengthAdjust="spacing" textLength="16" x="18" y="1061.8057">alt</text><text fill="#000000" font-family="sans-serif" font-size="11" font-weight="bold" lengthAdjust="spacing" textLength="110" x="79" y="1060.6475">[elevator persisted]</text><polygon fill="#181818" points="11,1085.3594,1,1089.3594,11,1093.3594,7,1089.3594" style="stroke:#181818;stroke-width:1.0;"/><line style="stroke:#181818;stroke-width:1.0;stroke-dasharray:2.0,2.0;" x1="5" x2="383" y1="1089.3594" y2="1089.3594"/><text fill="#000000" font-family="sans-serif" font-size="13" font-weight="bold" lengthAdjust="spacing" textLength="14" x="17" y="1084.0967">19</text><text fill="#000000" font-family="sans-serif" font-size="13" lengthAdjust="spacing" textLength="163" x="35" y="1084.0967">Response status code - 201</text><line style="stroke:#000000;stroke-width:1.0;stroke-dasharray:2.0,2.0;" x1="3" x2="452" y1="1098.3594" y2="1098.3594"/><text fill="#000000" font-family="sans-serif" font-size="11" font-weight="bold" lengthAdjust="spacing" textLength="123" x="8" y="1110.2295">[database unaveilable]</text><polygon fill="#181818" points="11,1133.2813,1,1137.2813,11,1141.2813,7,1137.2813" style="stroke:#181818;stroke-width:1.0;"/><line style="stroke:#181818;stroke-width:1.0;stroke-dasharray:2.0,2.0;" x1="5" x2="383" y1="1137.2813" y2="1137.2813"/><text fill="#000000" font-family="sans-serif" font-size="13" font-weight="bold" lengthAdjust="spacing" textLength="14" x="17" y="1132.0186">20</text><text fill="#000000" font-family="sans-serif" font-size="13" lengthAdjust="spacing" textLength="163" x="35" y="1132.0186">Response status code - 503</text><!--SRC=[nLF1Rjim3BtpAuXSUacmREiECu8Cy9m2FgmhrjtQ7cYB2OJAac79GOEY_pxAQPHiwD04FVIafoUIVeyqgG_Ezat57VXxRLlggC6MwdjQyNNO6CQEwm0GT13ylMCAZ0l3Qmgk0v3ue6lTaWqukdIACPTSjcg4v35Vu6nMkwPrbcsOpq5He8eyu-Y7iok7XTnpkG_HHVvFD4pcKYB3gv_Nlv6Vl-a_FDvQLAuXRKlrBKjmB7JLaOtSS8vHc4Oq6M66CuPuxZIPoy6oy8VN-ApOrvrkWtOsrjxVukDEmvNpEd8PFZwq2ISunisUJV0fLbWQ9nOol1b0gVpT8BlNHccxoX8grQrz0ZYxq5PXjS5YC8bbSGP0TT3hE8Py0I0jbYuLUORB6BfJ67EsZK6j3bAA743wFDbs5a3nNqzamYwjL4X6ngqso0_Q1m-0E9jCXedyOYzJaZdwGA7tMCV9J_1y-XM0ZV1fqBsbDMb3bU4Z2doPVfO2LXqupvyxyhhtNUzYLiAdka-9rWLSkZvgESBt-JlwJfln9kDlLhwNVX7_xTTr3oiGuxVWLC7Rh7SQ4_pNcgSrdsOaxMpBdPTDusEyV9f-VCaBd-xb3m00]--></g></svg>