<?xml version="1.0" encoding="us-ascii" standalone="no"?><svg xmlns="http://www.w3.org/2000/svg" xmlns:xlink="http://www.w3.org/1999/xlink" contentStyleType="text/css" height="477px" preserveAspectRatio="none" style="width:409px;height:477px;background:#FFFFFF;" version="1.1" viewBox="0 0 409 477" width="409px" zoomAndPan="magnify"><defs/><g><text fill="#000000" font-family="sans-serif" font-size="14" font-weight="bold" lengthAdjust="spacing" textLength="137" x="135.25" y="30.1074">Login in the System</text><rect fill="#FFFFFF" height="151.7461" style="stroke:#181818;stroke-width:1.0;" width="10" x="39.5" y="151.8633"/><rect fill="#FFFFFF" height="128.4551" style="stroke:#181818;stroke-width:1.0;" width="10" x="255.5" y="175.1543"/><rect fill="#FFFFFF" height="65.873" style="stroke:#181818;stroke-width:1.0;" width="10" x="358.5" y="237.7363"/><line style="stroke:#181818;stroke-width:0.5;stroke-dasharray:5.0,5.0;" x1="44" x2="44" y1="141.8633" y2="376.1914"/><line style="stroke:#181818;stroke-width:0.5;stroke-dasharray:5.0,5.0;" x1="260.5" x2="260.5" y1="141.8633" y2="376.1914"/><line style="stroke:#181818;stroke-width:0.5;stroke-dasharray:5.0,5.0;" x1="363.5" x2="363.5" y1="141.8633" y2="376.1914"/><text fill="#000000" font-family="sans-serif" font-size="14" font-style="italic" lengthAdjust="spacing" textLength="73" x="5" y="119.7285">&#171;DEI User&#187;</text><text fill="#000000" font-family="sans-serif" font-size="14" lengthAdjust="spacing" textLength="29" x="27" y="138.3496">User</text><ellipse cx="44.5" cy="53.1211" fill="#E2E2F0" rx="8" ry="8" style="stroke:#181818;stroke-width:0.5;"/><path d="M44.5,61.1211 L44.5,88.1211 M31.5,69.1211 L57.5,69.1211 M44.5,88.1211 L31.5,103.1211 M44.5,88.1211 L57.5,103.1211 " fill="none" style="stroke:#181818;stroke-width:0.5;"/><text fill="#000000" font-family="sans-serif" font-size="14" font-style="italic" lengthAdjust="spacing" textLength="73" x="5" y="390.2988">&#171;DEI User&#187;</text><text fill="#000000" font-family="sans-serif" font-size="14" lengthAdjust="spacing" textLength="29" x="27" y="408.9199">User</text><ellipse cx="44.5" cy="420.9336" fill="#E2E2F0" rx="8" ry="8" style="stroke:#181818;stroke-width:0.5;"/><path d="M44.5,428.9336 L44.5,455.9336 M31.5,436.9336 L57.5,436.9336 M44.5,455.9336 L31.5,470.9336 M44.5,455.9336 L57.5,470.9336 " fill="none" style="stroke:#181818;stroke-width:0.5;"/><rect fill="#E2E2F0" height="51.2422" rx="2.5" ry="2.5" style="stroke:#181818;stroke-width:0.5;" width="106" x="207.5" y="89.6211"/><text fill="#000000" font-family="sans-serif" font-size="14" font-style="italic" lengthAdjust="spacing" textLength="92" x="214.5" y="111.7285">&#171;system (C4)&#187;</text><text fill="#000000" font-family="sans-serif" font-size="14" lengthAdjust="spacing" textLength="84" x="218.5" y="130.3496">RobDroneGo</text><rect fill="#E2E2F0" height="51.2422" rx="2.5" ry="2.5" style="stroke:#181818;stroke-width:0.5;" width="106" x="207.5" y="375.1914"/><text fill="#000000" font-family="sans-serif" font-size="14" font-style="italic" lengthAdjust="spacing" textLength="92" x="214.5" y="397.2988">&#171;system (C4)&#187;</text><text fill="#000000" font-family="sans-serif" font-size="14" lengthAdjust="spacing" textLength="84" x="218.5" y="415.9199">RobDroneGo</text><rect fill="#E2E2F0" height="51.2422" rx="2.5" ry="2.5" style="stroke:#181818;stroke-width:0.5;" width="80" x="323.5" y="89.6211"/><text fill="#000000" font-family="sans-serif" font-size="14" font-style="italic" lengthAdjust="spacing" textLength="66" x="330.5" y="111.7285">&#171;external&#187;</text><text fill="#000000" font-family="sans-serif" font-size="14" lengthAdjust="spacing" textLength="37" x="345" y="130.3496">Auth0</text><rect fill="#E2E2F0" height="51.2422" rx="2.5" ry="2.5" style="stroke:#181818;stroke-width:0.5;" width="80" x="323.5" y="375.1914"/><text fill="#000000" font-family="sans-serif" font-size="14" font-style="italic" lengthAdjust="spacing" textLength="66" x="330.5" y="397.2988">&#171;external&#187;</text><text fill="#000000" font-family="sans-serif" font-size="14" lengthAdjust="spacing" textLength="37" x="345" y="415.9199">Auth0</text><rect fill="#FFFFFF" height="151.7461" style="stroke:#181818;stroke-width:1.0;" width="10" x="39.5" y="151.8633"/><rect fill="#FFFFFF" height="128.4551" style="stroke:#181818;stroke-width:1.0;" width="10" x="255.5" y="175.1543"/><rect fill="#FFFFFF" height="65.873" style="stroke:#181818;stroke-width:1.0;" width="10" x="358.5" y="237.7363"/><polygon fill="#181818" points="243.5,171.1543,253.5,175.1543,243.5,179.1543,247.5,175.1543" style="stroke:#181818;stroke-width:1.0;"/><line style="stroke:#181818;stroke-width:1.0;" x1="49.5" x2="249.5" y1="175.1543" y2="175.1543"/><text fill="#000000" font-family="sans-serif" font-size="13" font-weight="bold" lengthAdjust="spacing" textLength="7" x="56.5" y="169.8916">1</text><text fill="#000000" font-family="sans-serif" font-size="13" lengthAdjust="spacing" textLength="148" x="67.5" y="169.8916">Asks Login in the system</text><polygon fill="#181818" points="60.5,202.4453,50.5,206.4453,60.5,210.4453,56.5,206.4453" style="stroke:#181818;stroke-width:1.0;"/><line style="stroke:#181818;stroke-width:1.0;stroke-dasharray:2.0,2.0;" x1="54.5" x2="254.5" y1="206.4453" y2="206.4453"/><text fill="#000000" font-family="sans-serif" font-size="13" font-weight="bold" lengthAdjust="spacing" textLength="7" x="66.5" y="201.1826">2</text><text fill="#000000" font-family="sans-serif" font-size="13" lengthAdjust="spacing" textLength="171" x="77.5" y="201.1826">Redirects to Auth0 Auth page</text><polygon fill="#181818" points="346.5,233.7363,356.5,237.7363,346.5,241.7363,350.5,237.7363" style="stroke:#181818;stroke-width:1.0;"/><line style="stroke:#181818;stroke-width:1.0;" x1="49.5" x2="352.5" y1="237.7363" y2="237.7363"/><text fill="#000000" font-family="sans-serif" font-size="13" font-weight="bold" lengthAdjust="spacing" textLength="7" x="56.5" y="232.4736">3</text><text fill="#000000" font-family="sans-serif" font-size="13" lengthAdjust="spacing" textLength="145" x="67.5" y="232.4736">Authenticates with Auth0</text><polygon fill="#181818" points="55.5,299.6094,45.5,303.6094,55.5,307.6094,51.5,303.6094" style="stroke:#181818;stroke-width:1.0;"/><line style="stroke:#181818;stroke-width:1.0;stroke-dasharray:2.0,2.0;" x1="49.5" x2="362.5" y1="303.6094" y2="303.6094"/><text fill="#000000" font-family="sans-serif" font-size="13" font-weight="bold" lengthAdjust="spacing" textLength="7" x="61.5" y="281.0557">4</text><text fill="#000000" font-family="sans-serif" font-size="13" lengthAdjust="spacing" textLength="148" x="72.5" y="263.7646">Redirects to RobDroneGo</text><text fill="#000000" font-family="sans-serif" font-size="13" lengthAdjust="spacing" textLength="121" x="76.5" y="281.0557">page and adds token</text><text fill="#000000" font-family="sans-serif" font-size="13" lengthAdjust="spacing" textLength="82" x="72.5" y="298.3467">to the browser</text><path d="M148,316.6094 L148,360.6094 L372,360.6094 L372,326.6094 L362,316.6094 L148,316.6094 " fill="#FEFFDD" style="stroke:#181818;stroke-width:0.5;"/><path d="M362,316.6094 L362,326.6094 L372,326.6094 L362,316.6094 " fill="#FEFFDD" style="stroke:#181818;stroke-width:0.5;"/><text fill="#000000" font-family="sans-serif" font-size="13" lengthAdjust="spacing" textLength="199" x="154" y="335.6377">once on the RobDroneGo the User</text><text fill="#000000" font-family="sans-serif" font-size="13" lengthAdjust="spacing" textLength="189" x="154" y="352.9287">is redirected according to its role</text><!--SRC=[RP51QyCm38Nl-XMYf-rGo66dK0fX7QMmKqjklRYEI4rQATXgk_xxoUuWtHY4EBAVl_Uak8iANyu7Yf26mAEBxeoZyuFhQQVt4s4ahm0QrBu_fG-CzkYHS7TFIcS0vrKYpjf4SOOkOOkBnUfZWtbZkGH3Ql1XTAmusyfX5OLfBKMwNQrDd0e8NzxVNl_gcuiUgo9jAbFIbr9aTp9PjWrNfuGjG8lpPORLY4qQqk-SQShvk612W6mzjrjjZLlgGkuoeGeMn_AsCVJqmswgkkmHMpPZ9Bm5KnJn16ug0Clv7tPgVCy5Z8uxT5sNJmTYtBEfSjn3b9jD3ZfwvhBOAbUA9Rsmj-hHtaGkPPuwGaZstnxsP3RUI-m2zpb9i41HJWHa0J8MuDch3EUfjkd2Dm00]--></g></svg>