<?xml version="1.0" encoding="us-ascii" standalone="no"?><svg xmlns="http://www.w3.org/2000/svg" xmlns:xlink="http://www.w3.org/1999/xlink" contentStyleType="text/css" height="671px" preserveAspectRatio="none" style="width:564px;height:671px;background:#FFFFFF;" version="1.1" viewBox="0 0 564 671" width="564px" zoomAndPan="magnify"><defs/><g><text fill="#000000" font-family="sans-serif" font-size="14" font-weight="bold" lengthAdjust="spacing" textLength="337" x="122.75" y="30.1074">Get all robisep with given nickname or task type</text><rect fill="#FFFFFF" height="402.0938" style="stroke:#181818;stroke-width:1.0;" width="10" x="363" y="161.1543"/><rect fill="#FFFFFF" height="31.291" style="stroke:#181818;stroke-width:1.0;" width="10" x="501" y="218.7363"/><rect fill="#FFFFFF" height="31.291" style="stroke:#181818;stroke-width:1.0;" width="10" x="501" y="410.4531"/><rect fill="none" height="98.5039" style="stroke:#000000;stroke-width:1.5;" width="428" x="3" y="265.0273"/><rect fill="none" height="98.5039" style="stroke:#000000;stroke-width:1.5;" width="428" x="3" y="456.7441"/><line style="stroke:#181818;stroke-width:0.5;stroke-dasharray:5.0,5.0;" x1="368" x2="368" y1="127.8633" y2="572.248"/><line style="stroke:#181818;stroke-width:0.5;stroke-dasharray:5.0,5.0;" x1="505.5" x2="505.5" y1="127.8633" y2="572.248"/><rect fill="#E2E2F0" height="51.2422" rx="2.5" ry="2.5" style="stroke:#181818;stroke-width:0.5;" width="106" x="315" y="75.6211"/><text fill="#000000" font-family="sans-serif" font-size="14" font-style="italic" lengthAdjust="spacing" textLength="86" x="325" y="97.7285">&#171;component&#187;</text><text fill="#000000" font-family="sans-serif" font-size="14" lengthAdjust="spacing" textLength="92" x="322" y="116.3496">Node Backend</text><rect fill="#E2E2F0" height="51.2422" rx="2.5" ry="2.5" style="stroke:#181818;stroke-width:0.5;" width="106" x="315" y="571.248"/><text fill="#000000" font-family="sans-serif" font-size="14" font-style="italic" lengthAdjust="spacing" textLength="86" x="325" y="593.3555">&#171;component&#187;</text><text fill="#000000" font-family="sans-serif" font-size="14" lengthAdjust="spacing" textLength="92" x="322" y="611.9766">Node Backend</text><text fill="#000000" font-family="sans-serif" font-size="14" font-style="italic" lengthAdjust="spacing" textLength="86" x="460" y="105.7285">&#171;component&#187;</text><text fill="#000000" font-family="sans-serif" font-size="14" lengthAdjust="spacing" textLength="109" x="448.5" y="124.3496">Mongo DataBase</text><path d="M488,54.6211 C488,44.6211 506,44.6211 506,44.6211 C506,44.6211 524,44.6211 524,54.6211 L524,80.6211 C524,90.6211 506,90.6211 506,90.6211 C506,90.6211 488,90.6211 488,80.6211 L488,54.6211 " fill="#E2E2F0" style="stroke:#181818;stroke-width:1.5;"/><path d="M488,54.6211 C488,64.6211 506,64.6211 506,64.6211 C506,64.6211 524,64.6211 524,54.6211 " fill="none" style="stroke:#181818;stroke-width:1.5;"/><text fill="#000000" font-family="sans-serif" font-size="14" font-style="italic" lengthAdjust="spacing" textLength="86" x="460" y="586.3555">&#171;component&#187;</text><text fill="#000000" font-family="sans-serif" font-size="14" lengthAdjust="spacing" textLength="109" x="448.5" y="604.9766">Mongo DataBase</text><path d="M488,618.4902 C488,608.4902 506,608.4902 506,608.4902 C506,608.4902 524,608.4902 524,618.4902 L524,644.4902 C524,654.4902 506,654.4902 506,654.4902 C506,654.4902 488,654.4902 488,644.4902 L488,618.4902 " fill="#E2E2F0" style="stroke:#181818;stroke-width:1.5;"/><path d="M488,618.4902 C488,628.4902 506,628.4902 506,628.4902 C506,628.4902 524,628.4902 524,618.4902 " fill="none" style="stroke:#181818;stroke-width:1.5;"/><rect fill="#FFFFFF" height="402.0938" style="stroke:#181818;stroke-width:1.0;" width="10" x="363" y="161.1543"/><rect fill="#FFFFFF" height="31.291" style="stroke:#181818;stroke-width:1.0;" width="10" x="501" y="218.7363"/><rect fill="#FFFFFF" height="31.291" style="stroke:#181818;stroke-width:1.0;" width="10" x="501" y="410.4531"/><polygon fill="#181818" points="351,157.1543,361,161.1543,351,165.1543,355,161.1543" style="stroke:#181818;stroke-width:1.0;"/><line style="stroke:#181818;stroke-width:1.0;" x1="0" x2="357" y1="161.1543" y2="161.1543"/><text fill="#000000" font-family="sans-serif" font-size="13" font-weight="bold" lengthAdjust="spacing" textLength="7" x="7" y="155.8916">1</text><text fill="#000000" font-family="sans-serif" font-size="13" lengthAdjust="spacing" textLength="326" x="18" y="155.8916">GET robisep/{nickname: nickname, taskType: taskType}</text><polygon fill="#181818" points="489,214.7363,499,218.7363,489,222.7363,493,218.7363" style="stroke:#181818;stroke-width:1.0;"/><line style="stroke:#181818;stroke-width:1.0;" x1="373" x2="495" y1="218.7363" y2="218.7363"/><text fill="#000000" font-family="sans-serif" font-size="13" font-weight="bold" lengthAdjust="spacing" textLength="7" x="380" y="213.4736">2</text><text fill="#000000" font-family="sans-serif" font-size="13" lengthAdjust="spacing" textLength="98" x="391" y="213.4736">find by nickname</text><polygon fill="#181818" points="384,246.0273,374,250.0273,384,254.0273,380,250.0273" style="stroke:#181818;stroke-width:1.0;"/><line style="stroke:#181818;stroke-width:1.0;stroke-dasharray:2.0,2.0;" x1="378" x2="505" y1="250.0273" y2="250.0273"/><text fill="#000000" font-family="sans-serif" font-size="13" font-weight="bold" lengthAdjust="spacing" textLength="7" x="390" y="244.7646">3</text><text fill="#000000" font-family="sans-serif" font-size="13" lengthAdjust="spacing" textLength="4" x="401" y="244.7646">&#160;</text><path d="M3,265.0273 L64,265.0273 L64,274.3184 L54,284.3184 L3,284.3184 L3,265.0273 " fill="#EEEEEE" style="stroke:#000000;stroke-width:1.5;"/><rect fill="none" height="98.5039" style="stroke:#000000;stroke-width:1.5;" width="428" x="3" y="265.0273"/><text fill="#000000" font-family="sans-serif" font-size="13" font-weight="bold" lengthAdjust="spacing" textLength="16" x="18" y="280.0557">alt</text><text fill="#000000" font-family="sans-serif" font-size="11" font-weight="bold" lengthAdjust="spacing" textLength="55" x="79" y="278.8975">[success]</text><polygon fill="#181818" points="11,303.6094,1,307.6094,11,311.6094,7,307.6094" style="stroke:#181818;stroke-width:1.0;"/><line style="stroke:#181818;stroke-width:1.0;stroke-dasharray:2.0,2.0;" x1="5" x2="362" y1="307.6094" y2="307.6094"/><text fill="#000000" font-family="sans-serif" font-size="13" font-weight="bold" lengthAdjust="spacing" textLength="7" x="17" y="302.3467">4</text><text fill="#000000" font-family="sans-serif" font-size="13" lengthAdjust="spacing" textLength="163" x="28" y="302.3467">Response status code - 200</text><line style="stroke:#000000;stroke-width:1.0;stroke-dasharray:2.0,2.0;" x1="3" x2="431" y1="316.6094" y2="316.6094"/><text fill="#000000" font-family="sans-serif" font-size="11" font-weight="bold" lengthAdjust="spacing" textLength="122" x="8" y="328.4795">[database unavailable]</text><polygon fill="#181818" points="11,351.5313,1,355.5313,11,359.5313,7,355.5313" style="stroke:#181818;stroke-width:1.0;"/><line style="stroke:#181818;stroke-width:1.0;stroke-dasharray:2.0,2.0;" x1="5" x2="362" y1="355.5313" y2="355.5313"/><text fill="#000000" font-family="sans-serif" font-size="13" font-weight="bold" lengthAdjust="spacing" textLength="7" x="17" y="350.2686">5</text><text fill="#000000" font-family="sans-serif" font-size="13" lengthAdjust="spacing" textLength="163" x="28" y="350.2686">Response status code - 503</text><polygon fill="#181818" points="489,406.4531,499,410.4531,489,414.4531,493,410.4531" style="stroke:#181818;stroke-width:1.0;"/><line style="stroke:#181818;stroke-width:1.0;" x1="373" x2="495" y1="410.4531" y2="410.4531"/><text fill="#000000" font-family="sans-serif" font-size="13" font-weight="bold" lengthAdjust="spacing" textLength="7" x="380" y="405.1904">6</text><text fill="#000000" font-family="sans-serif" font-size="13" lengthAdjust="spacing" textLength="96" x="391" y="405.1904">find by task type</text><polygon fill="#181818" points="384,437.7441,374,441.7441,384,445.7441,380,441.7441" style="stroke:#181818;stroke-width:1.0;"/><line style="stroke:#181818;stroke-width:1.0;stroke-dasharray:2.0,2.0;" x1="378" x2="505" y1="441.7441" y2="441.7441"/><text fill="#000000" font-family="sans-serif" font-size="13" font-weight="bold" lengthAdjust="spacing" textLength="7" x="390" y="436.4814">7</text><text fill="#000000" font-family="sans-serif" font-size="13" lengthAdjust="spacing" textLength="4" x="401" y="436.4814">&#160;</text><path d="M3,456.7441 L64,456.7441 L64,466.0352 L54,476.0352 L3,476.0352 L3,456.7441 " fill="#EEEEEE" style="stroke:#000000;stroke-width:1.5;"/><rect fill="none" height="98.5039" style="stroke:#000000;stroke-width:1.5;" width="428" x="3" y="456.7441"/><text fill="#000000" font-family="sans-serif" font-size="13" font-weight="bold" lengthAdjust="spacing" textLength="16" x="18" y="471.7725">alt</text><text fill="#000000" font-family="sans-serif" font-size="11" font-weight="bold" lengthAdjust="spacing" textLength="55" x="79" y="470.6143">[success]</text><polygon fill="#181818" points="11,495.3262,1,499.3262,11,503.3262,7,499.3262" style="stroke:#181818;stroke-width:1.0;"/><line style="stroke:#181818;stroke-width:1.0;stroke-dasharray:2.0,2.0;" x1="5" x2="362" y1="499.3262" y2="499.3262"/><text fill="#000000" font-family="sans-serif" font-size="13" font-weight="bold" lengthAdjust="spacing" textLength="7" x="17" y="494.0635">8</text><text fill="#000000" font-family="sans-serif" font-size="13" lengthAdjust="spacing" textLength="163" x="28" y="494.0635">Response status code - 200</text><line style="stroke:#000000;stroke-width:1.0;stroke-dasharray:2.0,2.0;" x1="3" x2="431" y1="508.3262" y2="508.3262"/><text fill="#000000" font-family="sans-serif" font-size="11" font-weight="bold" lengthAdjust="spacing" textLength="122" x="8" y="520.1963">[database unavailable]</text><polygon fill="#181818" points="11,543.248,1,547.248,11,551.248,7,547.248" style="stroke:#181818;stroke-width:1.0;"/><line style="stroke:#181818;stroke-width:1.0;stroke-dasharray:2.0,2.0;" x1="5" x2="362" y1="547.248" y2="547.248"/><text fill="#000000" font-family="sans-serif" font-size="13" font-weight="bold" lengthAdjust="spacing" textLength="7" x="17" y="541.9854">9</text><text fill="#000000" font-family="sans-serif" font-size="13" lengthAdjust="spacing" textLength="163" x="28" y="541.9854">Response status code - 503</text><!--SRC=[nP6nJiD038PtFuNLfGiH5OYbgZf4APrWWBw0Sp7bb8iloZb55UBTSGiDeGlTsCvtrd_VPrElKVgcv0vIxQMbZXfioTMqvMVT1yQEdGAeLpklMP52m2wMFd6BRrvVSUjtB2ZUrK8DO-nGATMe-vO1B52zyos9ukGnLeovXRDK4wI4-GeN2nURDWgBBfTGaL99YN7o46KRiR0wj_hONUHdtP0jBMAEwzNcX7JzVWAP3qXNHw2DySo7qmV0zDvBXUL-w9i2KD0V4ubMz27OjLE_8pNu5O11sxz5FiUNiu1HOv4366_sHGXGyQ-dmp-fTuvJ0a1SPDbHv8cJoPb-Kj8-eJiCBCERsGo0WzqFy-c5TkG3bO4l2BYRtLg0L00ZxM5Bq-_mqsn6ud-gZrRzN-wNsty2]--></g></svg>