<?xml version="1.0" encoding="us-ascii" standalone="no"?><svg xmlns="http://www.w3.org/2000/svg" xmlns:xlink="http://www.w3.org/1999/xlink" contentStyleType="text/css" height="945px" preserveAspectRatio="none" style="width:982px;height:945px;background:#FFFFFF;" version="1.1" viewBox="0 0 982 945" width="982.8px" zoomAndPan="magnify"><defs/><g><text fill="#000000" font-family="sans-serif" font-size="12.6" font-weight="bold" lengthAdjust="spacing" textLength="74.7" x="452.7" y="27.0967">Create Task</text><rect fill="#FFFFFF" height="687.5332" style="stroke:#181818;stroke-width:0.9;" width="9" x="490.5" y="160.6008"/><rect fill="#FFFFFF" height="28.1619" style="stroke:#181818;stroke-width:0.9;" width="9" x="640.8" y="237.8865"/><rect fill="#FFFFFF" height="28.1619" style="stroke:#181818;stroke-width:0.9;" width="9" x="640.8" y="395.4639"/><rect fill="#FFFFFF" height="28.1619" style="stroke:#181818;stroke-width:0.9;" width="9" x="640.8" y="553.0412"/><rect fill="#FFFFFF" height="28.1619" style="stroke:#181818;stroke-width:0.9;" width="9" x="640.8" y="710.6186"/><rect fill="none" height="88.6535" style="stroke:#000000;stroke-width:1.35;" width="549" x="2.7" y="279.5484"/><rect fill="none" height="88.6535" style="stroke:#000000;stroke-width:1.35;" width="549" x="2.7" y="437.1258"/><rect fill="none" height="88.6535" style="stroke:#000000;stroke-width:1.35;" width="549" x="2.7" y="594.7031"/><rect fill="none" height="88.6535" style="stroke:#000000;stroke-width:1.35;" width="549" x="2.7" y="752.2805"/><line style="stroke:#181818;stroke-width:0.45;stroke-dasharray:5.0,5.0;" x1="495" x2="495" y1="115.077" y2="856.234"/><line style="stroke:#181818;stroke-width:0.45;stroke-dasharray:5.0,5.0;" x1="644.85" x2="644.85" y1="115.077" y2="856.234"/><rect fill="#E2E2F0" height="46.118" rx="2.25" ry="2.25" style="stroke:#181818;stroke-width:0.45;" width="95.4" x="447.3" y="68.059"/><text fill="#000000" font-family="sans-serif" font-size="12.6" font-style="italic" lengthAdjust="spacing" textLength="77.4" x="456.3" y="87.9557">&#171;component&#187;</text><text fill="#000000" font-family="sans-serif" font-size="12.6" lengthAdjust="spacing" textLength="82.8" x="453.6" y="104.7146">Node Backend</text><rect fill="#E2E2F0" height="46.118" rx="2.25" ry="2.25" style="stroke:#181818;stroke-width:0.45;" width="95.4" x="447.3" y="855.334"/><text fill="#000000" font-family="sans-serif" font-size="12.6" font-style="italic" lengthAdjust="spacing" textLength="77.4" x="456.3" y="875.2307">&#171;component&#187;</text><text fill="#000000" font-family="sans-serif" font-size="12.6" lengthAdjust="spacing" textLength="82.8" x="453.6" y="891.9896">Node Backend</text><text fill="#000000" font-family="sans-serif" font-size="12.6" font-style="italic" lengthAdjust="spacing" textLength="77.4" x="603.9" y="95.1557">&#171;component&#187;</text><text fill="#000000" font-family="sans-serif" font-size="12.6" lengthAdjust="spacing" textLength="98.1" x="593.55" y="111.9146">Mongo DataBase</text><path d="M629.1,49.159 C629.1,40.159 645.3,40.159 645.3,40.159 C645.3,40.159 661.5,40.159 661.5,49.159 L661.5,72.559 C661.5,81.559 645.3,81.559 645.3,81.559 C645.3,81.559 629.1,81.559 629.1,72.559 L629.1,49.159 " fill="#E2E2F0" style="stroke:#181818;stroke-width:1.35;"/><path d="M629.1,49.159 C629.1,58.159 645.3,58.159 645.3,58.159 C645.3,58.159 661.5,58.159 661.5,49.159 " fill="none" style="stroke:#181818;stroke-width:1.35;"/><text fill="#000000" font-family="sans-serif" font-size="12.6" font-style="italic" lengthAdjust="spacing" textLength="77.4" x="603.9" y="868.9307">&#171;component&#187;</text><text fill="#000000" font-family="sans-serif" font-size="12.6" lengthAdjust="spacing" textLength="98.1" x="593.55" y="885.6896">Mongo DataBase</text><path d="M629.1,897.852 C629.1,888.852 645.3,888.852 645.3,888.852 C645.3,888.852 661.5,888.852 661.5,897.852 L661.5,921.252 C661.5,930.252 645.3,930.252 645.3,930.252 C645.3,930.252 629.1,930.252 629.1,921.252 L629.1,897.852 " fill="#E2E2F0" style="stroke:#181818;stroke-width:1.35;"/><path d="M629.1,897.852 C629.1,906.852 645.3,906.852 645.3,906.852 C645.3,906.852 661.5,906.852 661.5,897.852 " fill="none" style="stroke:#181818;stroke-width:1.35;"/><rect fill="#FFFFFF" height="687.5332" style="stroke:#181818;stroke-width:0.9;" width="9" x="490.5" y="160.6008"/><rect fill="#FFFFFF" height="28.1619" style="stroke:#181818;stroke-width:0.9;" width="9" x="640.8" y="237.8865"/><rect fill="#FFFFFF" height="28.1619" style="stroke:#181818;stroke-width:0.9;" width="9" x="640.8" y="395.4639"/><rect fill="#FFFFFF" height="28.1619" style="stroke:#181818;stroke-width:0.9;" width="9" x="640.8" y="553.0412"/><rect fill="#FFFFFF" height="28.1619" style="stroke:#181818;stroke-width:0.9;" width="9" x="640.8" y="710.6186"/><polygon fill="#181818" points="479.7,157.0008,488.7,160.6008,479.7,164.2008,483.3,160.6008" style="stroke:#181818;stroke-width:0.9;"/><line style="stroke:#181818;stroke-width:0.9;" x1="0" x2="485.1" y1="160.6008" y2="160.6008"/><text fill="#000000" font-family="sans-serif" font-size="11.7" font-weight="bold" lengthAdjust="spacing" textLength="6.3" x="6.3" y="148.0834">1</text><text fill="#000000" font-family="sans-serif" font-size="11.7" lengthAdjust="spacing" textLength="331.2" x="16.2" y="140.3024">POST tasks/{domainId?: domainId, robisepType: robisepTypeId,</text><text fill="#000000" font-family="sans-serif" font-size="11.7" lengthAdjust="spacing" textLength="453.6" x="19.8" y="155.8644">pickUpAndDeliveryTask?: pickUpAndDeliveryTask, surveillanceTask?: surveillanceTask}</text><path d="M504,172.3008 L504,211.9008 L976.5,211.9008 L976.5,181.3008 L967.5,172.3008 L504,172.3008 " fill="#FEFFDD" style="stroke:#181818;stroke-width:0.45;"/><path d="M967.5,172.3008 L967.5,181.3008 L976.5,181.3008 L967.5,172.3008 " fill="#FEFFDD" style="stroke:#181818;stroke-width:0.45;"/><text fill="#000000" font-family="sans-serif" font-size="11.7" lengthAdjust="spacing" textLength="453.6" x="509.4" y="189.4263">Create a new task. Task can either be a pickup and delivery task or a surveillance task.</text><text fill="#000000" font-family="sans-serif" font-size="11.7" lengthAdjust="spacing" textLength="383.4" x="509.4" y="204.9882">Either way, both tasks creation make the same calls to Mongo Database.</text><polygon fill="#181818" points="630,234.2865,639,237.8865,630,241.4865,633.6,237.8865" style="stroke:#181818;stroke-width:0.9;"/><line style="stroke:#181818;stroke-width:0.9;" x1="499.5" x2="635.4" y1="237.8865" y2="237.8865"/><text fill="#000000" font-family="sans-serif" font-size="11.7" font-weight="bold" lengthAdjust="spacing" textLength="6.3" x="505.8" y="233.1501">2</text><text fill="#000000" font-family="sans-serif" font-size="11.7" lengthAdjust="spacing" textLength="114.3" x="515.7" y="233.1501">find by robisep type id</text><polygon fill="#181818" points="509.4,262.4484,500.4,266.0484,509.4,269.6484,505.8,266.0484" style="stroke:#181818;stroke-width:0.9;"/><line style="stroke:#181818;stroke-width:0.9;stroke-dasharray:2.0,2.0;" x1="504" x2="644.4" y1="266.0484" y2="266.0484"/><text fill="#000000" font-family="sans-serif" font-size="11.7" font-weight="bold" lengthAdjust="spacing" textLength="6.3" x="514.8" y="261.312">3</text><text fill="#000000" font-family="sans-serif" font-size="11.7" lengthAdjust="spacing" textLength="3.6" x="524.7" y="261.312">&#160;</text><path d="M2.7,279.5484 L57.6,279.5484 L57.6,287.9104 L48.6,296.9104 L2.7,296.9104 L2.7,279.5484 " fill="#EEEEEE" style="stroke:#000000;stroke-width:1.35;"/><rect fill="none" height="88.6535" style="stroke:#000000;stroke-width:1.35;" width="549" x="2.7" y="279.5484"/><text fill="#000000" font-family="sans-serif" font-size="11.7" font-weight="bold" lengthAdjust="spacing" textLength="14.4" x="16.2" y="293.0739">alt</text><text fill="#000000" font-family="sans-serif" font-size="9.9" font-weight="bold" lengthAdjust="spacing" textLength="120.6" x="71.1" y="292.0315">[robisep type not found]</text><polygon fill="#181818" points="9.9,314.2723,0.9,317.8723,9.9,321.4723,6.3,317.8723" style="stroke:#181818;stroke-width:0.9;"/><line style="stroke:#181818;stroke-width:0.9;stroke-dasharray:2.0,2.0;" x1="4.5" x2="489.6" y1="317.8723" y2="317.8723"/><text fill="#000000" font-family="sans-serif" font-size="11.7" font-weight="bold" lengthAdjust="spacing" textLength="6.3" x="15.3" y="313.1358">4</text><text fill="#000000" font-family="sans-serif" font-size="11.7" lengthAdjust="spacing" textLength="146.7" x="25.2" y="313.1358">Response status code - 404</text><line style="stroke:#000000;stroke-width:0.9;stroke-dasharray:2.0,2.0;" x1="2.7" x2="551.7" y1="325.9723" y2="325.9723"/><text fill="#000000" font-family="sans-serif" font-size="9.9" font-weight="bold" lengthAdjust="spacing" textLength="109.8" x="7.2" y="336.6554">[database unavailable]</text><polygon fill="#181818" points="9.9,357.402,0.9,361.002,9.9,364.602,6.3,361.002" style="stroke:#181818;stroke-width:0.9;"/><line style="stroke:#181818;stroke-width:0.9;stroke-dasharray:2.0,2.0;" x1="4.5" x2="489.6" y1="361.002" y2="361.002"/><text fill="#000000" font-family="sans-serif" font-size="11.7" font-weight="bold" lengthAdjust="spacing" textLength="6.3" x="15.3" y="356.2655">5</text><text fill="#000000" font-family="sans-serif" font-size="11.7" lengthAdjust="spacing" textLength="146.7" x="25.2" y="356.2655">Response status code - 503</text><polygon fill="#181818" points="630,391.8639,639,395.4639,630,399.0639,633.6,395.4639" style="stroke:#181818;stroke-width:0.9;"/><line style="stroke:#181818;stroke-width:0.9;" x1="499.5" x2="635.4" y1="395.4639" y2="395.4639"/><text fill="#000000" font-family="sans-serif" font-size="11.7" font-weight="bold" lengthAdjust="spacing" textLength="6.3" x="505.8" y="390.7274">6</text><text fill="#000000" font-family="sans-serif" font-size="11.7" lengthAdjust="spacing" textLength="76.5" x="515.7" y="390.7274">find by room id</text><polygon fill="#181818" points="509.4,420.0258,500.4,423.6258,509.4,427.2258,505.8,423.6258" style="stroke:#181818;stroke-width:0.9;"/><line style="stroke:#181818;stroke-width:0.9;stroke-dasharray:2.0,2.0;" x1="504" x2="644.4" y1="423.6258" y2="423.6258"/><text fill="#000000" font-family="sans-serif" font-size="11.7" font-weight="bold" lengthAdjust="spacing" textLength="6.3" x="514.8" y="418.8894">7</text><text fill="#000000" font-family="sans-serif" font-size="11.7" lengthAdjust="spacing" textLength="3.6" x="524.7" y="418.8894">&#160;</text><path d="M2.7,437.1258 L57.6,437.1258 L57.6,445.4877 L48.6,454.4877 L2.7,454.4877 L2.7,437.1258 " fill="#EEEEEE" style="stroke:#000000;stroke-width:1.35;"/><rect fill="none" height="88.6535" style="stroke:#000000;stroke-width:1.35;" width="549" x="2.7" y="437.1258"/><text fill="#000000" font-family="sans-serif" font-size="11.7" font-weight="bold" lengthAdjust="spacing" textLength="14.4" x="16.2" y="450.6513">alt</text><text fill="#000000" font-family="sans-serif" font-size="9.9" font-weight="bold" lengthAdjust="spacing" textLength="84.6" x="71.1" y="449.6089">[room not found]</text><polygon fill="#181818" points="9.9,471.8496,0.9,475.4496,9.9,479.0496,6.3,475.4496" style="stroke:#181818;stroke-width:0.9;"/><line style="stroke:#181818;stroke-width:0.9;stroke-dasharray:2.0,2.0;" x1="4.5" x2="489.6" y1="475.4496" y2="475.4496"/><text fill="#000000" font-family="sans-serif" font-size="11.7" font-weight="bold" lengthAdjust="spacing" textLength="6.3" x="15.3" y="470.7132">8</text><text fill="#000000" font-family="sans-serif" font-size="11.7" lengthAdjust="spacing" textLength="146.7" x="25.2" y="470.7132">Response status code - 404</text><line style="stroke:#000000;stroke-width:0.9;stroke-dasharray:2.0,2.0;" x1="2.7" x2="551.7" y1="483.5496" y2="483.5496"/><text fill="#000000" font-family="sans-serif" font-size="9.9" font-weight="bold" lengthAdjust="spacing" textLength="109.8" x="7.2" y="494.2327">[database unavailable]</text><polygon fill="#181818" points="9.9,514.9793,0.9,518.5793,9.9,522.1793,6.3,518.5793" style="stroke:#181818;stroke-width:0.9;"/><line style="stroke:#181818;stroke-width:0.9;stroke-dasharray:2.0,2.0;" x1="4.5" x2="489.6" y1="518.5793" y2="518.5793"/><text fill="#000000" font-family="sans-serif" font-size="11.7" font-weight="bold" lengthAdjust="spacing" textLength="6.3" x="15.3" y="513.8429">9</text><text fill="#000000" font-family="sans-serif" font-size="11.7" lengthAdjust="spacing" textLength="146.7" x="25.2" y="513.8429">Response status code - 503</text><polygon fill="#181818" points="630,549.4412,639,553.0412,630,556.6412,633.6,553.0412" style="stroke:#181818;stroke-width:0.9;"/><line style="stroke:#181818;stroke-width:0.9;" x1="499.5" x2="635.4" y1="553.0412" y2="553.0412"/><text fill="#000000" font-family="sans-serif" font-size="11.7" font-weight="bold" lengthAdjust="spacing" textLength="12.6" x="505.8" y="548.3048">10</text><text fill="#000000" font-family="sans-serif" font-size="11.7" lengthAdjust="spacing" textLength="76.5" x="522" y="548.3048">find by room id</text><polygon fill="#181818" points="509.4,577.6031,500.4,581.2031,509.4,584.8031,505.8,581.2031" style="stroke:#181818;stroke-width:0.9;"/><line style="stroke:#181818;stroke-width:0.9;stroke-dasharray:2.0,2.0;" x1="504" x2="644.4" y1="581.2031" y2="581.2031"/><text fill="#000000" font-family="sans-serif" font-size="11.7" font-weight="bold" lengthAdjust="spacing" textLength="12.6" x="514.8" y="576.4667">11</text><text fill="#000000" font-family="sans-serif" font-size="11.7" lengthAdjust="spacing" textLength="3.6" x="531" y="576.4667">&#160;</text><path d="M2.7,594.7031 L57.6,594.7031 L57.6,603.065 L48.6,612.065 L2.7,612.065 L2.7,594.7031 " fill="#EEEEEE" style="stroke:#000000;stroke-width:1.35;"/><rect fill="none" height="88.6535" style="stroke:#000000;stroke-width:1.35;" width="549" x="2.7" y="594.7031"/><text fill="#000000" font-family="sans-serif" font-size="11.7" font-weight="bold" lengthAdjust="spacing" textLength="14.4" x="16.2" y="608.2286">alt</text><text fill="#000000" font-family="sans-serif" font-size="9.9" font-weight="bold" lengthAdjust="spacing" textLength="84.6" x="71.1" y="607.1862">[room not found]</text><polygon fill="#181818" points="9.9,629.427,0.9,633.027,9.9,636.627,6.3,633.027" style="stroke:#181818;stroke-width:0.9;"/><line style="stroke:#181818;stroke-width:0.9;stroke-dasharray:2.0,2.0;" x1="4.5" x2="489.6" y1="633.027" y2="633.027"/><text fill="#000000" font-family="sans-serif" font-size="11.7" font-weight="bold" lengthAdjust="spacing" textLength="12.6" x="15.3" y="628.2905">12</text><text fill="#000000" font-family="sans-serif" font-size="11.7" lengthAdjust="spacing" textLength="146.7" x="31.5" y="628.2905">Response status code - 404</text><line style="stroke:#000000;stroke-width:0.9;stroke-dasharray:2.0,2.0;" x1="2.7" x2="551.7" y1="641.127" y2="641.127"/><text fill="#000000" font-family="sans-serif" font-size="9.9" font-weight="bold" lengthAdjust="spacing" textLength="109.8" x="7.2" y="651.8101">[database unavailable]</text><polygon fill="#181818" points="9.9,672.5566,0.9,676.1566,9.9,679.7566,6.3,676.1566" style="stroke:#181818;stroke-width:0.9;"/><line style="stroke:#181818;stroke-width:0.9;stroke-dasharray:2.0,2.0;" x1="4.5" x2="489.6" y1="676.1566" y2="676.1566"/><text fill="#000000" font-family="sans-serif" font-size="11.7" font-weight="bold" lengthAdjust="spacing" textLength="12.6" x="15.3" y="671.4202">13</text><text fill="#000000" font-family="sans-serif" font-size="11.7" lengthAdjust="spacing" textLength="146.7" x="31.5" y="671.4202">Response status code - 503</text><polygon fill="#181818" points="630,707.0186,639,710.6186,630,714.2186,633.6,710.6186" style="stroke:#181818;stroke-width:0.9;"/><line style="stroke:#181818;stroke-width:0.9;" x1="499.5" x2="635.4" y1="710.6186" y2="710.6186"/><text fill="#000000" font-family="sans-serif" font-size="11.7" font-weight="bold" lengthAdjust="spacing" textLength="12.6" x="505.8" y="705.8821">14</text><text fill="#000000" font-family="sans-serif" font-size="11.7" lengthAdjust="spacing" textLength="23.4" x="522" y="705.8821">save</text><polygon fill="#181818" points="509.4,735.1805,500.4,738.7805,509.4,742.3805,505.8,738.7805" style="stroke:#181818;stroke-width:0.9;"/><line style="stroke:#181818;stroke-width:0.9;stroke-dasharray:2.0,2.0;" x1="504" x2="644.4" y1="738.7805" y2="738.7805"/><text fill="#000000" font-family="sans-serif" font-size="11.7" font-weight="bold" lengthAdjust="spacing" textLength="12.6" x="514.8" y="734.044">15</text><text fill="#000000" font-family="sans-serif" font-size="11.7" lengthAdjust="spacing" textLength="3.6" x="531" y="734.044">&#160;</text><path d="M2.7,752.2805 L57.6,752.2805 L57.6,760.6424 L48.6,769.6424 L2.7,769.6424 L2.7,752.2805 " fill="#EEEEEE" style="stroke:#000000;stroke-width:1.35;"/><rect fill="none" height="88.6535" style="stroke:#000000;stroke-width:1.35;" width="549" x="2.7" y="752.2805"/><text fill="#000000" font-family="sans-serif" font-size="11.7" font-weight="bold" lengthAdjust="spacing" textLength="14.4" x="16.2" y="765.806">alt</text><text fill="#000000" font-family="sans-serif" font-size="9.9" font-weight="bold" lengthAdjust="spacing" textLength="80.1" x="71.1" y="764.7636">[task persisted]</text><polygon fill="#181818" points="9.9,787.0043,0.9,790.6043,9.9,794.2043,6.3,790.6043" style="stroke:#181818;stroke-width:0.9;"/><line style="stroke:#181818;stroke-width:0.9;stroke-dasharray:2.0,2.0;" x1="4.5" x2="489.6" y1="790.6043" y2="790.6043"/><text fill="#000000" font-family="sans-serif" font-size="11.7" font-weight="bold" lengthAdjust="spacing" textLength="12.6" x="15.3" y="785.8679">16</text><text fill="#000000" font-family="sans-serif" font-size="11.7" lengthAdjust="spacing" textLength="146.7" x="31.5" y="785.8679">Response status code - 201</text><line style="stroke:#000000;stroke-width:0.9;stroke-dasharray:2.0,2.0;" x1="2.7" x2="551.7" y1="798.7043" y2="798.7043"/><text fill="#000000" font-family="sans-serif" font-size="9.9" font-weight="bold" lengthAdjust="spacing" textLength="109.8" x="7.2" y="809.3874">[database unavailable]</text><polygon fill="#181818" points="9.9,830.134,0.9,833.734,9.9,837.334,6.3,833.734" style="stroke:#181818;stroke-width:0.9;"/><line style="stroke:#181818;stroke-width:0.9;stroke-dasharray:2.0,2.0;" x1="4.5" x2="489.6" y1="833.734" y2="833.734"/><text fill="#000000" font-family="sans-serif" font-size="11.7" font-weight="bold" lengthAdjust="spacing" textLength="12.6" x="15.3" y="828.9976">17</text><text fill="#000000" font-family="sans-serif" font-size="11.7" lengthAdjust="spacing" textLength="146.7" x="31.5" y="828.9976">Response status code - 503</text><!--SRC=[tLDDRzD04BtFhnZbqajS0fHB50LX7AGU-50RRhsCxKcoihrhxOvTMOZ_pgoTGbg1b4f8IDoyE-_Dc_TcJPquspKvUmYLiIrvQh2beg8ztyfGCtek142CwFTxpoICMmeLW6B55AObApZxv4h6L7bionbIm7I3grNXcjPPjh9UGqb2EGN6sKTdzmupFQTw7j5P-WGDoLfRBF7BvzijYkg55zzArv2nr-NR9Jvypj6xt0HkjqFBozE3rkuijgQelhRlR9bnRNhsGnnT-R-zdsFeVC-chiaMV4G-lVeEO9rcuCt-8EXsuvJ7N0Wjtu_JNeuPOK4MsSY1FUQn76Mx5icMM1w5HpWwhzLJgQdBdTrCx7iQvfWxEKnPO145ZRFOKANO0sEWXbMlhWEAmryHnyWl0Iu-61ND1xoP8iAO4Lvd5m1KYEdZ-Ea6GDUcoMVf4dT7mZ5Jb4WmvGa-Im5qSScqAe2I7vMebiTapGrthhFQ0t6L96DqDnnqwVeiWf1qwYm-f0Il5bS0NElzptVJMUh9r9JNV4Q3DulNsY1gdLXtpPcM5VXygqhwfnRJ_zdYdmm5wlbvBiOVhcKVJ10-nyMhnSk_vE87]--></g></svg>