<?xml version="1.0" encoding="us-ascii" standalone="no"?><svg xmlns="http://www.w3.org/2000/svg" xmlns:xlink="http://www.w3.org/1999/xlink" contentStyleType="text/css" height="820px" preserveAspectRatio="none" style="width:640px;height:820px;background:#FFFFFF;" version="1.1" viewBox="0 0 640 820" width="640px" zoomAndPan="magnify"><defs/><g><text fill="#000000" font-family="sans-serif" font-size="14" font-weight="bold" lengthAdjust="spacing" textLength="142" x="250.75" y="30.1074">Create RobisepType</text><rect fill="#FFFFFF" height="534.2578" style="stroke:#181818;stroke-width:1.0;" width="10" x="429" y="178.4453"/><rect fill="#FFFFFF" height="31.291" style="stroke:#181818;stroke-width:1.0;" width="10" x="577" y="209.7363"/><rect fill="#FFFFFF" height="31.291" style="stroke:#181818;stroke-width:1.0;" width="10" x="577" y="384.8223"/><rect fill="#FFFFFF" height="31.291" style="stroke:#181818;stroke-width:1.0;" width="10" x="577" y="559.9082"/><rect fill="none" height="98.5039" style="stroke:#000000;stroke-width:1.5;" width="494" x="3" y="256.0273"/><rect fill="none" height="98.5039" style="stroke:#000000;stroke-width:1.5;" width="494" x="3" y="431.1133"/><rect fill="none" height="98.5039" style="stroke:#000000;stroke-width:1.5;" width="494" x="3" y="606.1992"/><line style="stroke:#181818;stroke-width:0.5;stroke-dasharray:5.0,5.0;" x1="434" x2="434" y1="127.8633" y2="721.7031"/><line style="stroke:#181818;stroke-width:0.5;stroke-dasharray:5.0,5.0;" x1="581.5" x2="581.5" y1="127.8633" y2="721.7031"/><rect fill="#E2E2F0" height="51.2422" rx="2.5" ry="2.5" style="stroke:#181818;stroke-width:0.5;" width="106" x="381" y="75.6211"/><text fill="#000000" font-family="sans-serif" font-size="14" font-style="italic" lengthAdjust="spacing" textLength="86" x="391" y="97.7285">&#171;component&#187;</text><text fill="#000000" font-family="sans-serif" font-size="14" lengthAdjust="spacing" textLength="92" x="388" y="116.3496">Node Backend</text><rect fill="#E2E2F0" height="51.2422" rx="2.5" ry="2.5" style="stroke:#181818;stroke-width:0.5;" width="106" x="381" y="720.7031"/><text fill="#000000" font-family="sans-serif" font-size="14" font-style="italic" lengthAdjust="spacing" textLength="86" x="391" y="742.8105">&#171;component&#187;</text><text fill="#000000" font-family="sans-serif" font-size="14" lengthAdjust="spacing" textLength="92" x="388" y="761.4316">Node Backend</text><text fill="#000000" font-family="sans-serif" font-size="14" font-style="italic" lengthAdjust="spacing" textLength="86" x="536" y="105.7285">&#171;component&#187;</text><text fill="#000000" font-family="sans-serif" font-size="14" lengthAdjust="spacing" textLength="109" x="524.5" y="124.3496">Mongo DataBase</text><path d="M564,54.6211 C564,44.6211 582,44.6211 582,44.6211 C582,44.6211 600,44.6211 600,54.6211 L600,80.6211 C600,90.6211 582,90.6211 582,90.6211 C582,90.6211 564,90.6211 564,80.6211 L564,54.6211 " fill="#E2E2F0" style="stroke:#181818;stroke-width:1.5;"/><path d="M564,54.6211 C564,64.6211 582,64.6211 582,64.6211 C582,64.6211 600,64.6211 600,54.6211 " fill="none" style="stroke:#181818;stroke-width:1.5;"/><text fill="#000000" font-family="sans-serif" font-size="14" font-style="italic" lengthAdjust="spacing" textLength="86" x="536" y="735.8105">&#171;component&#187;</text><text fill="#000000" font-family="sans-serif" font-size="14" lengthAdjust="spacing" textLength="109" x="524.5" y="754.4316">Mongo DataBase</text><path d="M564,767.9453 C564,757.9453 582,757.9453 582,757.9453 C582,757.9453 600,757.9453 600,767.9453 L600,793.9453 C600,803.9453 582,803.9453 582,803.9453 C582,803.9453 564,803.9453 564,793.9453 L564,767.9453 " fill="#E2E2F0" style="stroke:#181818;stroke-width:1.5;"/><path d="M564,767.9453 C564,777.9453 582,777.9453 582,777.9453 C582,777.9453 600,777.9453 600,767.9453 " fill="none" style="stroke:#181818;stroke-width:1.5;"/><rect fill="#FFFFFF" height="534.2578" style="stroke:#181818;stroke-width:1.0;" width="10" x="429" y="178.4453"/><rect fill="#FFFFFF" height="31.291" style="stroke:#181818;stroke-width:1.0;" width="10" x="577" y="209.7363"/><rect fill="#FFFFFF" height="31.291" style="stroke:#181818;stroke-width:1.0;" width="10" x="577" y="384.8223"/><rect fill="#FFFFFF" height="31.291" style="stroke:#181818;stroke-width:1.0;" width="10" x="577" y="559.9082"/><polygon fill="#181818" points="417,174.4453,427,178.4453,417,182.4453,421,178.4453" style="stroke:#181818;stroke-width:1.0;"/><line style="stroke:#181818;stroke-width:1.0;" x1="0" x2="423" y1="178.4453" y2="178.4453"/><text fill="#000000" font-family="sans-serif" font-size="13" font-weight="bold" lengthAdjust="spacing" textLength="7" x="7" y="164.5371">1</text><text fill="#000000" font-family="sans-serif" font-size="13" lengthAdjust="spacing" textLength="388" x="18" y="155.8916">POST robisepType/{domainId?: domainId, designation: designation,</text><text fill="#000000" font-family="sans-serif" font-size="13" lengthAdjust="spacing" textLength="298" x="22" y="173.1826">brand: brand, model: model, tasksType: tasksType}</text><polygon fill="#181818" points="565,205.7363,575,209.7363,565,213.7363,569,209.7363" style="stroke:#181818;stroke-width:1.0;"/><line style="stroke:#181818;stroke-width:1.0;" x1="439" x2="571" y1="209.7363" y2="209.7363"/><text fill="#000000" font-family="sans-serif" font-size="13" font-weight="bold" lengthAdjust="spacing" textLength="7" x="446" y="204.4736">2</text><text fill="#000000" font-family="sans-serif" font-size="13" lengthAdjust="spacing" textLength="98" x="457" y="204.4736">find by domain Id</text><polygon fill="#181818" points="450,237.0273,440,241.0273,450,245.0273,446,241.0273" style="stroke:#181818;stroke-width:1.0;"/><line style="stroke:#181818;stroke-width:1.0;stroke-dasharray:2.0,2.0;" x1="444" x2="581" y1="241.0273" y2="241.0273"/><text fill="#000000" font-family="sans-serif" font-size="13" font-weight="bold" lengthAdjust="spacing" textLength="7" x="456" y="235.7646">3</text><text fill="#000000" font-family="sans-serif" font-size="13" lengthAdjust="spacing" textLength="4" x="467" y="235.7646">&#160;</text><path d="M3,256.0273 L64,256.0273 L64,265.3184 L54,275.3184 L3,275.3184 L3,256.0273 " fill="#EEEEEE" style="stroke:#000000;stroke-width:1.5;"/><rect fill="none" height="98.5039" style="stroke:#000000;stroke-width:1.5;" width="494" x="3" y="256.0273"/><text fill="#000000" font-family="sans-serif" font-size="13" font-weight="bold" lengthAdjust="spacing" textLength="16" x="18" y="271.0557">alt</text><text fill="#000000" font-family="sans-serif" font-size="11" font-weight="bold" lengthAdjust="spacing" textLength="272" x="79" y="269.8975">[robisep type with given domainId already exists]</text><polygon fill="#181818" points="11,294.6094,1,298.6094,11,302.6094,7,298.6094" style="stroke:#181818;stroke-width:1.0;"/><line style="stroke:#181818;stroke-width:1.0;stroke-dasharray:2.0,2.0;" x1="5" x2="428" y1="298.6094" y2="298.6094"/><text fill="#000000" font-family="sans-serif" font-size="13" font-weight="bold" lengthAdjust="spacing" textLength="7" x="17" y="293.3467">4</text><text fill="#000000" font-family="sans-serif" font-size="13" lengthAdjust="spacing" textLength="163" x="28" y="293.3467">Response status code - 409</text><line style="stroke:#000000;stroke-width:1.0;stroke-dasharray:2.0,2.0;" x1="3" x2="497" y1="307.6094" y2="307.6094"/><text fill="#000000" font-family="sans-serif" font-size="11" font-weight="bold" lengthAdjust="spacing" textLength="123" x="8" y="319.4795">[database unaveilable]</text><polygon fill="#181818" points="11,342.5313,1,346.5313,11,350.5313,7,346.5313" style="stroke:#181818;stroke-width:1.0;"/><line style="stroke:#181818;stroke-width:1.0;stroke-dasharray:2.0,2.0;" x1="5" x2="428" y1="346.5313" y2="346.5313"/><text fill="#000000" font-family="sans-serif" font-size="13" font-weight="bold" lengthAdjust="spacing" textLength="7" x="17" y="341.2686">5</text><text fill="#000000" font-family="sans-serif" font-size="13" lengthAdjust="spacing" textLength="163" x="28" y="341.2686">Response status code - 503</text><polygon fill="#181818" points="565,380.8223,575,384.8223,565,388.8223,569,384.8223" style="stroke:#181818;stroke-width:1.0;"/><line style="stroke:#181818;stroke-width:1.0;" x1="439" x2="571" y1="384.8223" y2="384.8223"/><text fill="#000000" font-family="sans-serif" font-size="13" font-weight="bold" lengthAdjust="spacing" textLength="7" x="446" y="379.5596">6</text><text fill="#000000" font-family="sans-serif" font-size="13" lengthAdjust="spacing" textLength="108" x="457" y="379.5596">find by designation</text><polygon fill="#181818" points="450,412.1133,440,416.1133,450,420.1133,446,416.1133" style="stroke:#181818;stroke-width:1.0;"/><line style="stroke:#181818;stroke-width:1.0;stroke-dasharray:2.0,2.0;" x1="444" x2="581" y1="416.1133" y2="416.1133"/><text fill="#000000" font-family="sans-serif" font-size="13" font-weight="bold" lengthAdjust="spacing" textLength="7" x="456" y="410.8506">7</text><text fill="#000000" font-family="sans-serif" font-size="13" lengthAdjust="spacing" textLength="4" x="467" y="410.8506">&#160;</text><path d="M3,431.1133 L64,431.1133 L64,440.4043 L54,450.4043 L3,450.4043 L3,431.1133 " fill="#EEEEEE" style="stroke:#000000;stroke-width:1.5;"/><rect fill="none" height="98.5039" style="stroke:#000000;stroke-width:1.5;" width="494" x="3" y="431.1133"/><text fill="#000000" font-family="sans-serif" font-size="13" font-weight="bold" lengthAdjust="spacing" textLength="16" x="18" y="446.1416">alt</text><text fill="#000000" font-family="sans-serif" font-size="11" font-weight="bold" lengthAdjust="spacing" textLength="286" x="79" y="444.9834">[robisep type with given designation already exists]</text><polygon fill="#181818" points="11,469.6953,1,473.6953,11,477.6953,7,473.6953" style="stroke:#181818;stroke-width:1.0;"/><line style="stroke:#181818;stroke-width:1.0;stroke-dasharray:2.0,2.0;" x1="5" x2="428" y1="473.6953" y2="473.6953"/><text fill="#000000" font-family="sans-serif" font-size="13" font-weight="bold" lengthAdjust="spacing" textLength="7" x="17" y="468.4326">8</text><text fill="#000000" font-family="sans-serif" font-size="13" lengthAdjust="spacing" textLength="163" x="28" y="468.4326">Response status code - 409</text><line style="stroke:#000000;stroke-width:1.0;stroke-dasharray:2.0,2.0;" x1="3" x2="497" y1="482.6953" y2="482.6953"/><text fill="#000000" font-family="sans-serif" font-size="11" font-weight="bold" lengthAdjust="spacing" textLength="123" x="8" y="494.5654">[database unaveilable]</text><polygon fill="#181818" points="11,517.6172,1,521.6172,11,525.6172,7,521.6172" style="stroke:#181818;stroke-width:1.0;"/><line style="stroke:#181818;stroke-width:1.0;stroke-dasharray:2.0,2.0;" x1="5" x2="428" y1="521.6172" y2="521.6172"/><text fill="#000000" font-family="sans-serif" font-size="13" font-weight="bold" lengthAdjust="spacing" textLength="7" x="17" y="516.3545">9</text><text fill="#000000" font-family="sans-serif" font-size="13" lengthAdjust="spacing" textLength="163" x="28" y="516.3545">Response status code - 503</text><polygon fill="#181818" points="565,555.9082,575,559.9082,565,563.9082,569,559.9082" style="stroke:#181818;stroke-width:1.0;"/><line style="stroke:#181818;stroke-width:1.0;" x1="439" x2="571" y1="559.9082" y2="559.9082"/><text fill="#000000" font-family="sans-serif" font-size="13" font-weight="bold" lengthAdjust="spacing" textLength="14" x="446" y="554.6455">10</text><text fill="#000000" font-family="sans-serif" font-size="13" lengthAdjust="spacing" textLength="26" x="464" y="554.6455">save</text><polygon fill="#181818" points="450,587.1992,440,591.1992,450,595.1992,446,591.1992" style="stroke:#181818;stroke-width:1.0;"/><line style="stroke:#181818;stroke-width:1.0;stroke-dasharray:2.0,2.0;" x1="444" x2="581" y1="591.1992" y2="591.1992"/><text fill="#000000" font-family="sans-serif" font-size="13" font-weight="bold" lengthAdjust="spacing" textLength="14" x="456" y="585.9365">11</text><text fill="#000000" font-family="sans-serif" font-size="13" lengthAdjust="spacing" textLength="4" x="474" y="585.9365">&#160;</text><path d="M3,606.1992 L64,606.1992 L64,615.4902 L54,625.4902 L3,625.4902 L3,606.1992 " fill="#EEEEEE" style="stroke:#000000;stroke-width:1.5;"/><rect fill="none" height="98.5039" style="stroke:#000000;stroke-width:1.5;" width="494" x="3" y="606.1992"/><text fill="#000000" font-family="sans-serif" font-size="13" font-weight="bold" lengthAdjust="spacing" textLength="16" x="18" y="621.2275">alt</text><text fill="#000000" font-family="sans-serif" font-size="11" font-weight="bold" lengthAdjust="spacing" textLength="135" x="79" y="620.0693">[robisep type persisted]</text><polygon fill="#181818" points="11,644.7813,1,648.7813,11,652.7813,7,648.7813" style="stroke:#181818;stroke-width:1.0;"/><line style="stroke:#181818;stroke-width:1.0;stroke-dasharray:2.0,2.0;" x1="5" x2="428" y1="648.7813" y2="648.7813"/><text fill="#000000" font-family="sans-serif" font-size="13" font-weight="bold" lengthAdjust="spacing" textLength="14" x="17" y="643.5186">12</text><text fill="#000000" font-family="sans-serif" font-size="13" lengthAdjust="spacing" textLength="163" x="35" y="643.5186">Response status code - 201</text><line style="stroke:#000000;stroke-width:1.0;stroke-dasharray:2.0,2.0;" x1="3" x2="497" y1="657.7813" y2="657.7813"/><text fill="#000000" font-family="sans-serif" font-size="11" font-weight="bold" lengthAdjust="spacing" textLength="123" x="8" y="669.6514">[database unaveilable]</text><polygon fill="#181818" points="11,692.7031,1,696.7031,11,700.7031,7,696.7031" style="stroke:#181818;stroke-width:1.0;"/><line style="stroke:#181818;stroke-width:1.0;stroke-dasharray:2.0,2.0;" x1="5" x2="428" y1="696.7031" y2="696.7031"/><text fill="#000000" font-family="sans-serif" font-size="13" font-weight="bold" lengthAdjust="spacing" textLength="14" x="17" y="691.4404">13</text><text fill="#000000" font-family="sans-serif" font-size="13" lengthAdjust="spacing" textLength="163" x="35" y="691.4404">Response status code - 503</text><!--SRC=[nP5DJy9048RlyoicNBZGY5y76u99BIOS_0Xmz3BjZhYXtMsw0qgC_zq1XAA92OaaddPc- -uxypwbkNWtBpEk8SoigwYc4YlAPpJbiImBnffp0H0hMj_KJC8uyfaDN4sM5GFe4x6vhSW9jkwzOKpqEJlJGWgO3B3NotrPUSTE-dqm99HHO6pTUJVrc6gVQBzMfyaFDKHzjOZnyM4ymRePU_9kV4dM3SrrZDkoWuQ3dJeIwrsyttJmoM5MapFnvkXWgPiMyURee52OXPLnt9GV0ErRwmncIqpN8t1esW2KYrsiC2G30CsdAwP9ZCzVKhELxYdJ142pHPiq08Q_VQ92jk5GT3A-Mdd1gLsmsuL3AXI-MIA_sI010B4NHMiu8muAJ9468Pa7p5S_8SABxXK05tg_Opvtj61RK5Rm0GQNtNCrS1fa3qG3zG0KZVX8C1h3_-NnI_2WTdz8Md4TD0oR0vOvwvuUASqd]--></g></svg>