<?xml version="1.0" encoding="us-ascii" standalone="no"?><svg xmlns="http://www.w3.org/2000/svg" xmlns:xlink="http://www.w3.org/1999/xlink" contentStyleType="text/css" height="468px" preserveAspectRatio="none" style="width:460px;height:468px;background:#FFFFFF;" version="1.1" viewBox="0 0 460 468" width="460px" zoomAndPan="magnify"><defs/><g><text fill="#000000" font-family="sans-serif" font-size="14" font-weight="bold" lengthAdjust="spacing" textLength="113" x="172.75" y="30.1074">Request SignUp</text><rect fill="#FFFFFF" height="197.0371" style="stroke:#181818;stroke-width:1.0;" width="10" x="39.5" y="151.8633"/><rect fill="#FFFFFF" height="173.7461" style="stroke:#181818;stroke-width:1.0;" width="10" x="306.5" y="175.1543"/><rect fill="#FFFFFF" height="48.582" style="stroke:#181818;stroke-width:1.0;" width="10" x="409.5" y="237.7363"/><line style="stroke:#181818;stroke-width:0.5;stroke-dasharray:5.0,5.0;" x1="44" x2="44" y1="141.8633" y2="366.9004"/><line style="stroke:#181818;stroke-width:0.5;stroke-dasharray:5.0,5.0;" x1="311.5" x2="311.5" y1="141.8633" y2="366.9004"/><line style="stroke:#181818;stroke-width:0.5;stroke-dasharray:5.0,5.0;" x1="414.5" x2="414.5" y1="141.8633" y2="366.9004"/><text fill="#000000" font-family="sans-serif" font-size="14" font-style="italic" lengthAdjust="spacing" textLength="73" x="5" y="119.7285">&#171;DEI User&#187;</text><text fill="#000000" font-family="sans-serif" font-size="14" lengthAdjust="spacing" textLength="29" x="27" y="138.3496">User</text><ellipse cx="44.5" cy="53.1211" fill="#E2E2F0" rx="8" ry="8" style="stroke:#181818;stroke-width:0.5;"/><path d="M44.5,61.1211 L44.5,88.1211 M31.5,69.1211 L57.5,69.1211 M44.5,88.1211 L31.5,103.1211 M44.5,88.1211 L57.5,103.1211 " fill="none" style="stroke:#181818;stroke-width:0.5;"/><text fill="#000000" font-family="sans-serif" font-size="14" font-style="italic" lengthAdjust="spacing" textLength="73" x="5" y="381.0078">&#171;DEI User&#187;</text><text fill="#000000" font-family="sans-serif" font-size="14" lengthAdjust="spacing" textLength="29" x="27" y="399.6289">User</text><ellipse cx="44.5" cy="411.6426" fill="#E2E2F0" rx="8" ry="8" style="stroke:#181818;stroke-width:0.5;"/><path d="M44.5,419.6426 L44.5,446.6426 M31.5,427.6426 L57.5,427.6426 M44.5,446.6426 L31.5,461.6426 M44.5,446.6426 L57.5,461.6426 " fill="none" style="stroke:#181818;stroke-width:0.5;"/><rect fill="#E2E2F0" height="51.2422" rx="2.5" ry="2.5" style="stroke:#181818;stroke-width:0.5;" width="106" x="258.5" y="89.6211"/><text fill="#000000" font-family="sans-serif" font-size="14" font-style="italic" lengthAdjust="spacing" textLength="92" x="265.5" y="111.7285">&#171;system (C4)&#187;</text><text fill="#000000" font-family="sans-serif" font-size="14" lengthAdjust="spacing" textLength="84" x="269.5" y="130.3496">RobDroneGo</text><rect fill="#E2E2F0" height="51.2422" rx="2.5" ry="2.5" style="stroke:#181818;stroke-width:0.5;" width="106" x="258.5" y="365.9004"/><text fill="#000000" font-family="sans-serif" font-size="14" font-style="italic" lengthAdjust="spacing" textLength="92" x="265.5" y="388.0078">&#171;system (C4)&#187;</text><text fill="#000000" font-family="sans-serif" font-size="14" lengthAdjust="spacing" textLength="84" x="269.5" y="406.6289">RobDroneGo</text><rect fill="#E2E2F0" height="51.2422" rx="2.5" ry="2.5" style="stroke:#181818;stroke-width:0.5;" width="80" x="374.5" y="89.6211"/><text fill="#000000" font-family="sans-serif" font-size="14" font-style="italic" lengthAdjust="spacing" textLength="66" x="381.5" y="111.7285">&#171;external&#187;</text><text fill="#000000" font-family="sans-serif" font-size="14" lengthAdjust="spacing" textLength="37" x="396" y="130.3496">Auth0</text><rect fill="#E2E2F0" height="51.2422" rx="2.5" ry="2.5" style="stroke:#181818;stroke-width:0.5;" width="80" x="374.5" y="365.9004"/><text fill="#000000" font-family="sans-serif" font-size="14" font-style="italic" lengthAdjust="spacing" textLength="66" x="381.5" y="388.0078">&#171;external&#187;</text><text fill="#000000" font-family="sans-serif" font-size="14" lengthAdjust="spacing" textLength="37" x="396" y="406.6289">Auth0</text><rect fill="#FFFFFF" height="197.0371" style="stroke:#181818;stroke-width:1.0;" width="10" x="39.5" y="151.8633"/><rect fill="#FFFFFF" height="173.7461" style="stroke:#181818;stroke-width:1.0;" width="10" x="306.5" y="175.1543"/><rect fill="#FFFFFF" height="48.582" style="stroke:#181818;stroke-width:1.0;" width="10" x="409.5" y="237.7363"/><polygon fill="#181818" points="294.5,171.1543,304.5,175.1543,294.5,179.1543,298.5,175.1543" style="stroke:#181818;stroke-width:1.0;"/><line style="stroke:#181818;stroke-width:1.0;" x1="49.5" x2="300.5" y1="175.1543" y2="175.1543"/><text fill="#000000" font-family="sans-serif" font-size="13" font-weight="bold" lengthAdjust="spacing" textLength="7" x="56.5" y="169.8916">1</text><text fill="#000000" font-family="sans-serif" font-size="13" lengthAdjust="spacing" textLength="159" x="67.5" y="169.8916">Asks SignUp in the system</text><polygon fill="#181818" points="60.5,202.4453,50.5,206.4453,60.5,210.4453,56.5,206.4453" style="stroke:#181818;stroke-width:1.0;"/><line style="stroke:#181818;stroke-width:1.0;stroke-dasharray:2.0,2.0;" x1="54.5" x2="305.5" y1="206.4453" y2="206.4453"/><text fill="#000000" font-family="sans-serif" font-size="13" font-weight="bold" lengthAdjust="spacing" textLength="7" x="66.5" y="201.1826">2</text><text fill="#000000" font-family="sans-serif" font-size="13" lengthAdjust="spacing" textLength="171" x="77.5" y="201.1826">Redirects to Auth0 Auth page</text><polygon fill="#181818" points="397.5,233.7363,407.5,237.7363,397.5,241.7363,401.5,237.7363" style="stroke:#181818;stroke-width:1.0;"/><line style="stroke:#181818;stroke-width:1.0;" x1="49.5" x2="403.5" y1="237.7363" y2="237.7363"/><text fill="#000000" font-family="sans-serif" font-size="13" font-weight="bold" lengthAdjust="spacing" textLength="7" x="56.5" y="232.4736">3</text><text fill="#000000" font-family="sans-serif" font-size="13" lengthAdjust="spacing" textLength="94" x="67.5" y="232.4736">SignUp in Auth0</text><polygon fill="#181818" points="60.5,282.3184,50.5,286.3184,60.5,290.3184,56.5,286.3184" style="stroke:#181818;stroke-width:1.0;"/><line style="stroke:#181818;stroke-width:1.0;stroke-dasharray:2.0,2.0;" x1="54.5" x2="413.5" y1="286.3184" y2="286.3184"/><text fill="#000000" font-family="sans-serif" font-size="13" font-weight="bold" lengthAdjust="spacing" textLength="7" x="66.5" y="272.4102">4</text><text fill="#000000" font-family="sans-serif" font-size="13" lengthAdjust="spacing" textLength="194" x="77.5" y="263.7646">Redirects to RobDroneGo SignUp</text><text fill="#000000" font-family="sans-serif" font-size="13" lengthAdjust="spacing" textLength="207" x="81.5" y="281.0557">page and adds token to the browser</text><polygon fill="#181818" points="294.5,313.6094,304.5,317.6094,294.5,321.6094,298.5,317.6094" style="stroke:#181818;stroke-width:1.0;"/><line style="stroke:#181818;stroke-width:1.0;" x1="49.5" x2="300.5" y1="317.6094" y2="317.6094"/><text fill="#000000" font-family="sans-serif" font-size="13" font-weight="bold" lengthAdjust="spacing" textLength="7" x="56.5" y="312.3467">5</text><text fill="#000000" font-family="sans-serif" font-size="13" lengthAdjust="spacing" textLength="208" x="67.5" y="312.3467">Fills with personal data and submits</text><polygon fill="#181818" points="55.5,344.9004,45.5,348.9004,55.5,352.9004,51.5,348.9004" style="stroke:#181818;stroke-width:1.0;"/><line style="stroke:#181818;stroke-width:1.0;" x1="49.5" x2="310.5" y1="348.9004" y2="348.9004"/><text fill="#000000" font-family="sans-serif" font-size="13" font-weight="bold" lengthAdjust="spacing" textLength="7" x="61.5" y="343.6377">6</text><text fill="#000000" font-family="sans-serif" font-size="13" lengthAdjust="spacing" textLength="222" x="72.5" y="343.6377">Informs that he has to wait for approval</text><!--SRC=[RP0zRuCm48Rt-nMdJEqGYQ5J54L2JHDb9MBhSi0rM81DxIDf_dtFBb9erSN2vhdtusWIPwUXOW-XCtOaJmEEL7TquRFSUqRFjG284Vqk-7FY87Ws5rkE05IByxWg0_iLKi0IjzlzsmdZmsu7gYQcDYDPmLNXghrtbeykeSN-g72u1-41drvVdl_o-IHjbj0yKvA_XBsbNh5eQwuaZ2L0YUjT5DiWvg4BSpGq5gLb_D5VJ2W94BtNEbPkj55ZOiE0uZ1PfbDNSE5PFCys2zN4FFJo343p_QVsA3oFlziaYsGRfAQ9KCSseZ5gvTrDrmOD_n9_z3kOlWzuCp4T- -1q6TYGKD8BKpKO2NEt5EPaFvmVrAKbGJLeASMwaH7KFqZZwDsLUbXQflqixhfX-0O0]--></g></svg>