<?xml version="1.0" encoding="us-ascii" standalone="no"?><svg xmlns="http://www.w3.org/2000/svg" xmlns:xlink="http://www.w3.org/1999/xlink" contentStyleType="text/css" height="788px" preserveAspectRatio="none" style="width:964px;height:788px;background:#FFFFFF;" version="1.1" viewBox="0 0 964 788" width="964px" zoomAndPan="magnify"><defs/><g><text fill="#000000" font-family="JetBrains Mono" font-size="14" font-weight="bold" lengthAdjust="spacing" textLength="104" x="431" y="29.2799">Edit Building</text><rect fill="#FFFFFF" height="502.7999" style="stroke:#181818;stroke-width:1.0;" width="10" x="702" y="177.7598"/><rect fill="#FFFFFF" height="31.16" style="stroke:#181818;stroke-width:1.0;" width="10" x="895" y="235.0798"/><rect fill="#FFFFFF" height="31.16" style="stroke:#181818;stroke-width:1.0;" width="10" x="895" y="473.7198"/><rect fill="none" height="479.7999" style="stroke:#000000;stroke-width:1.5;" width="954" x="3" y="192.7598"/><rect fill="none" height="97.9999" style="stroke:#000000;stroke-width:1.5;" width="765" x="3" y="281.2398"/><rect fill="none" height="50.32" style="stroke:#000000;stroke-width:1.5;" width="765" x="3" y="393.2398"/><rect fill="none" height="97.9999" style="stroke:#000000;stroke-width:1.5;" width="765" x="3" y="519.8798"/><line style="stroke:#181818;stroke-width:0.5;stroke-dasharray:5.0,5.0;" x1="707" x2="707" y1="127.4398" y2="689.5597"/><line style="stroke:#181818;stroke-width:0.5;stroke-dasharray:5.0,5.0;" x1="900" x2="900" y1="127.4398" y2="689.5597"/><rect fill="#E2E2F0" height="50.9598" rx="2.5" ry="2.5" style="stroke:#181818;stroke-width:0.5;" width="102" x="656" y="75.4799"/><text fill="#000000" font-family="JetBrains Mono" font-size="14" font-style="italic" lengthAdjust="spacing" textLength="88" x="663" y="96.7599">&#171;component&#187;</text><text fill="#000000" font-family="JetBrains Mono" font-size="14" lengthAdjust="spacing" textLength="64" x="675" y="115.2398">Back-End</text><rect fill="#E2E2F0" height="50.9598" rx="2.5" ry="2.5" style="stroke:#181818;stroke-width:0.5;" width="102" x="656" y="688.5597"/><text fill="#000000" font-family="JetBrains Mono" font-size="14" font-style="italic" lengthAdjust="spacing" textLength="88" x="663" y="709.8396">&#171;component&#187;</text><text fill="#000000" font-family="JetBrains Mono" font-size="14" lengthAdjust="spacing" textLength="64" x="675" y="728.3195">Back-End</text><text fill="#000000" font-family="JetBrains Mono" font-size="14" font-style="italic" lengthAdjust="spacing" textLength="88" x="853" y="104.7599">&#171;component&#187;</text><text fill="#000000" font-family="JetBrains Mono" font-size="14" lengthAdjust="spacing" textLength="64" x="865" y="123.2398">DataBase</text><path d="M882,54.4799 C882,44.4799 900,44.4799 900,44.4799 C900,44.4799 918,44.4799 918,54.4799 L918,80.4799 C918,90.4799 900,90.4799 900,90.4799 C900,90.4799 882,90.4799 882,80.4799 L882,54.4799 " fill="#E2E2F0" style="stroke:#181818;stroke-width:1.5;"/><path d="M882,54.4799 C882,64.4799 900,64.4799 900,64.4799 C900,64.4799 918,64.4799 918,54.4799 " fill="none" style="stroke:#181818;stroke-width:1.5;"/><text fill="#000000" font-family="JetBrains Mono" font-size="14" font-style="italic" lengthAdjust="spacing" textLength="88" x="853" y="702.8396">&#171;component&#187;</text><text fill="#000000" font-family="JetBrains Mono" font-size="14" lengthAdjust="spacing" textLength="64" x="865" y="721.3195">DataBase</text><path d="M882,735.5195 C882,725.5195 900,725.5195 900,725.5195 C900,725.5195 918,725.5195 918,735.5195 L918,761.5195 C918,771.5195 900,771.5195 900,771.5195 C900,771.5195 882,771.5195 882,761.5195 L882,735.5195 " fill="#E2E2F0" style="stroke:#181818;stroke-width:1.5;"/><path d="M882,735.5195 C882,745.5195 900,745.5195 900,745.5195 C900,745.5195 918,745.5195 918,735.5195 " fill="none" style="stroke:#181818;stroke-width:1.5;"/><rect fill="#FFFFFF" height="502.7999" style="stroke:#181818;stroke-width:1.0;" width="10" x="702" y="177.7598"/><rect fill="#FFFFFF" height="31.16" style="stroke:#181818;stroke-width:1.0;" width="10" x="895" y="235.0798"/><rect fill="#FFFFFF" height="31.16" style="stroke:#181818;stroke-width:1.0;" width="10" x="895" y="473.7198"/><polygon fill="#181818" points="690,173.7598,700,177.7598,690,181.7598,694,177.7598" style="stroke:#181818;stroke-width:1.0;"/><line style="stroke:#181818;stroke-width:1.0;" x1="0" x2="696" y1="177.7598" y2="177.7598"/><text fill="#000000" font-family="JetBrains Mono" font-size="13" font-weight="bold" lengthAdjust="spacing" textLength="8" x="7" y="163.2798">1</text><text fill="#000000" font-family="JetBrains Mono" font-size="13" lengthAdjust="spacing" textLength="464" x="19" y="154.6998">PATCH buildings/{buildingId}/{buildingName?: buildingName,</text><text fill="#000000" font-family="JetBrains Mono" font-size="13" lengthAdjust="spacing" textLength="656" x="27" y="171.8598">buildingDimensions?: buildingDimensions,buildingDescription?: buildingDescription}</text><path d="M3,192.7598 L72,192.7598 L72,201.9198 L62,211.9198 L3,211.9198 L3,192.7598 " fill="#EEEEEE" style="stroke:#000000;stroke-width:1.5;"/><rect fill="none" height="479.7999" style="stroke:#000000;stroke-width:1.5;" width="954" x="3" y="192.7598"/><text fill="#000000" font-family="JetBrains Mono" font-size="13" font-weight="bold" lengthAdjust="spacing" textLength="24" x="18" y="207.0198">alt</text><text fill="#000000" font-family="JetBrains Mono" font-size="11" font-weight="bold" lengthAdjust="spacing" textLength="119" x="87" y="205.9797">[user authorized]</text><polygon fill="#181818" points="883,231.0798,893,235.0798,883,239.0798,887,235.0798" style="stroke:#181818;stroke-width:1.0;"/><line style="stroke:#181818;stroke-width:1.0;" x1="712" x2="889" y1="235.0798" y2="235.0798"/><text fill="#000000" font-family="JetBrains Mono" font-size="13" font-weight="bold" lengthAdjust="spacing" textLength="8" x="719" y="229.1798">2</text><text fill="#000000" font-family="JetBrains Mono" font-size="13" lengthAdjust="spacing" textLength="152" x="731" y="229.1798">find by building Id</text><polygon fill="#181818" points="723,262.2398,713,266.2398,723,270.2398,719,266.2398" style="stroke:#181818;stroke-width:1.0;"/><line style="stroke:#181818;stroke-width:1.0;stroke-dasharray:2.0,2.0;" x1="717" x2="899" y1="266.2398" y2="266.2398"/><text fill="#000000" font-family="JetBrains Mono" font-size="13" font-weight="bold" lengthAdjust="spacing" textLength="8" x="729" y="260.3398">3</text><text fill="#000000" font-family="JetBrains Mono" font-size="13" lengthAdjust="spacing" textLength="8" x="741" y="260.3398">&#160;</text><path d="M3,281.2398 L72,281.2398 L72,290.3998 L62,300.3998 L3,300.3998 L3,281.2398 " fill="#EEEEEE" style="stroke:#000000;stroke-width:1.5;"/><rect fill="none" height="97.9999" style="stroke:#000000;stroke-width:1.5;" width="765" x="3" y="281.2398"/><text fill="#000000" font-family="JetBrains Mono" font-size="13" font-weight="bold" lengthAdjust="spacing" textLength="24" x="18" y="295.4998">alt</text><text fill="#000000" font-family="JetBrains Mono" font-size="11" font-weight="bold" lengthAdjust="spacing" textLength="266" x="87" y="294.4598">[building with that id does not exist]</text><polygon fill="#181818" points="11,319.5599,1,323.5599,11,327.5599,7,323.5599" style="stroke:#181818;stroke-width:1.0;"/><line style="stroke:#181818;stroke-width:1.0;stroke-dasharray:2.0,2.0;" x1="5" x2="701" y1="323.5599" y2="323.5599"/><text fill="#000000" font-family="JetBrains Mono" font-size="13" font-weight="bold" lengthAdjust="spacing" textLength="8" x="17" y="317.6599">4</text><text fill="#000000" font-family="JetBrains Mono" font-size="13" lengthAdjust="spacing" textLength="208" x="29" y="317.6599">Response status code - 404</text><line style="stroke:#000000;stroke-width:1.0;stroke-dasharray:2.0,2.0;" x1="3" x2="768" y1="332.5599" y2="332.5599"/><text fill="#000000" font-family="JetBrains Mono" font-size="11" font-weight="bold" lengthAdjust="spacing" textLength="154" x="8" y="343.7798">[database unavailable]</text><polygon fill="#181818" points="11,367.2398,1,371.2398,11,375.2398,7,371.2398" style="stroke:#181818;stroke-width:1.0;"/><line style="stroke:#181818;stroke-width:1.0;stroke-dasharray:2.0,2.0;" x1="5" x2="701" y1="371.2398" y2="371.2398"/><text fill="#000000" font-family="JetBrains Mono" font-size="13" font-weight="bold" lengthAdjust="spacing" textLength="8" x="17" y="365.3398">5</text><text fill="#000000" font-family="JetBrains Mono" font-size="13" lengthAdjust="spacing" textLength="208" x="29" y="365.3398">Response status code - 503</text><path d="M3,393.2398 L72,393.2398 L72,402.3998 L62,412.3998 L3,412.3998 L3,393.2398 " fill="#EEEEEE" style="stroke:#000000;stroke-width:1.5;"/><rect fill="none" height="50.32" style="stroke:#000000;stroke-width:1.5;" width="765" x="3" y="393.2398"/><text fill="#000000" font-family="JetBrains Mono" font-size="13" font-weight="bold" lengthAdjust="spacing" textLength="24" x="18" y="407.4998">alt</text><text fill="#000000" font-family="JetBrains Mono" font-size="11" font-weight="bold" lengthAdjust="spacing" textLength="161" x="87" y="406.4597">[user input is invalid]</text><polygon fill="#181818" points="11,431.5598,1,435.5598,11,439.5598,7,435.5598" style="stroke:#181818;stroke-width:1.0;"/><line style="stroke:#181818;stroke-width:1.0;stroke-dasharray:2.0,2.0;" x1="5" x2="701" y1="435.5598" y2="435.5598"/><text fill="#000000" font-family="JetBrains Mono" font-size="13" font-weight="bold" lengthAdjust="spacing" textLength="8" x="17" y="429.6598">6</text><text fill="#000000" font-family="JetBrains Mono" font-size="13" lengthAdjust="spacing" textLength="208" x="29" y="429.6598">Response status code - 400</text><polygon fill="#181818" points="883,469.7198,893,473.7198,883,477.7198,887,473.7198" style="stroke:#181818;stroke-width:1.0;"/><line style="stroke:#181818;stroke-width:1.0;" x1="712" x2="889" y1="473.7198" y2="473.7198"/><text fill="#000000" font-family="JetBrains Mono" font-size="13" font-weight="bold" lengthAdjust="spacing" textLength="8" x="719" y="467.8198">7</text><text fill="#000000" font-family="JetBrains Mono" font-size="13" lengthAdjust="spacing" textLength="32" x="731" y="467.8198">save</text><polygon fill="#181818" points="723,500.8798,713,504.8798,723,508.8798,719,504.8798" style="stroke:#181818;stroke-width:1.0;"/><line style="stroke:#181818;stroke-width:1.0;stroke-dasharray:2.0,2.0;" x1="717" x2="899" y1="504.8798" y2="504.8798"/><text fill="#000000" font-family="JetBrains Mono" font-size="13" font-weight="bold" lengthAdjust="spacing" textLength="8" x="729" y="498.9798">8</text><text fill="#000000" font-family="JetBrains Mono" font-size="13" lengthAdjust="spacing" textLength="8" x="741" y="498.9798">&#160;</text><path d="M3,519.8798 L72,519.8798 L72,529.0398 L62,539.0398 L3,539.0398 L3,519.8798 " fill="#EEEEEE" style="stroke:#000000;stroke-width:1.5;"/><rect fill="none" height="97.9999" style="stroke:#000000;stroke-width:1.5;" width="765" x="3" y="519.8798"/><text fill="#000000" font-family="JetBrains Mono" font-size="13" font-weight="bold" lengthAdjust="spacing" textLength="24" x="18" y="534.1398">alt</text><text fill="#000000" font-family="JetBrains Mono" font-size="11" font-weight="bold" lengthAdjust="spacing" textLength="126" x="87" y="533.0997">[building updated]</text><polygon fill="#181818" points="11,558.1999,1,562.1999,11,566.1999,7,562.1999" style="stroke:#181818;stroke-width:1.0;"/><line style="stroke:#181818;stroke-width:1.0;stroke-dasharray:2.0,2.0;" x1="5" x2="701" y1="562.1999" y2="562.1999"/><text fill="#000000" font-family="JetBrains Mono" font-size="13" font-weight="bold" lengthAdjust="spacing" textLength="8" x="17" y="556.2999">9</text><text fill="#000000" font-family="JetBrains Mono" font-size="13" lengthAdjust="spacing" textLength="208" x="29" y="556.2999">Response status code - 200</text><line style="stroke:#000000;stroke-width:1.0;stroke-dasharray:2.0,2.0;" x1="3" x2="768" y1="571.1999" y2="571.1999"/><text fill="#000000" font-family="JetBrains Mono" font-size="11" font-weight="bold" lengthAdjust="spacing" textLength="154" x="8" y="582.4198">[database unavailable]</text><polygon fill="#181818" points="11,605.8798,1,609.8798,11,613.8798,7,609.8798" style="stroke:#181818;stroke-width:1.0;"/><line style="stroke:#181818;stroke-width:1.0;stroke-dasharray:2.0,2.0;" x1="5" x2="701" y1="609.8798" y2="609.8798"/><text fill="#000000" font-family="JetBrains Mono" font-size="13" font-weight="bold" lengthAdjust="spacing" textLength="16" x="17" y="603.9798">10</text><text fill="#000000" font-family="JetBrains Mono" font-size="13" lengthAdjust="spacing" textLength="208" x="37" y="603.9798">Response status code - 503</text><line style="stroke:#000000;stroke-width:1.0;stroke-dasharray:2.0,2.0;" x1="3" x2="957" y1="625.8798" y2="625.8798"/><text fill="#000000" font-family="JetBrains Mono" font-size="11" font-weight="bold" lengthAdjust="spacing" textLength="133" x="8" y="637.0997">[user unauthorized]</text><polygon fill="#181818" points="11,660.5597,1,664.5597,11,668.5597,7,664.5597" style="stroke:#181818;stroke-width:1.0;"/><line style="stroke:#181818;stroke-width:1.0;stroke-dasharray:2.0,2.0;" x1="5" x2="701" y1="664.5597" y2="664.5597"/><text fill="#000000" font-family="JetBrains Mono" font-size="13" font-weight="bold" lengthAdjust="spacing" textLength="16" x="17" y="658.6597">11</text><text fill="#000000" font-family="JetBrains Mono" font-size="13" lengthAdjust="spacing" textLength="208" x="37" y="658.6597">Response status code - 401</text><!--SRC=[ZPB1JXj138RlVWeh5owi6bfwYQ9KNJQ88BMgMevSl3k6MEpEh7OyQMd5kzTi81auG6wsv_S_zZT3IODFNSq3n3lnFGtKOK_D7TtoBxrl6GTkD3jpV4EfrVFWzJjrZ9UivK3Y8tuBFW2eg3KjdIYMILed_XR0MbKQwSahJafpBvRUJP0YbakSpvlGzS6pryK272dL51adbKMbHQEkAb_fe5XOymn_VBqwky3wwQhuuTzpk78F- -Hnr2yppDFZQx_BA-dOHma-Pg9zyNXNujWCqgiLS-6- -W10hMAAF20bNOT1_h83E3eNxx2-nofq1WjNrH5Gex8XPLi338FjKvKpl7aIFflZoksLLGa6ejYk3expW_7YNTTlqJNgcXJ5eGiSqGT5_YDH0N5U52EydnmDgC6EIfeYDi4n5dWwFGLkhRnxZEHfGz9ItVBxxP-ddu2zor3OvqasIRHWGwsuGqQORZtW1QSCLAGDmmiqEPituQJU5djybdV7-6XZl87YC1RRHKQNaOOvP5_Z01GdMul_]--></g></svg>