<?xml version="1.0" encoding="us-ascii" standalone="no"?><svg xmlns="http://www.w3.org/2000/svg" xmlns:xlink="http://www.w3.org/1999/xlink" contentStyleType="text/css" height="460px" preserveAspectRatio="none" style="width:311px;height:460px;background:#FFFFFF;" version="1.1" viewBox="0 0 311 460" width="311px" zoomAndPan="magnify"><defs/><g><text fill="#000000" font-family="sans-serif" font-size="14" font-weight="bold" lengthAdjust="spacing" textLength="119" x="97.25" y="30.1074">Create Resource</text><rect fill="#FFFFFF" height="265.2695" style="stroke:#181818;stroke-width:1.0;" width="10" x="200" y="130.1543"/><rect fill="none" height="242.2695" style="stroke:#000000;stroke-width:1.5;" width="301.5" x="3" y="145.1543"/><line style="stroke:#181818;stroke-width:0.5;stroke-dasharray:5.0,5.0;" x1="204.5" x2="204.5" y1="96.8633" y2="404.4238"/><rect fill="#E2E2F0" height="51.2422" rx="2.5" ry="2.5" style="stroke:#181818;stroke-width:0.5;" width="179" x="115.5" y="44.6211"/><text fill="#000000" font-family="sans-serif" font-size="14" font-style="italic" lengthAdjust="spacing" textLength="86" x="162" y="66.7285">&#171;component&#187;</text><text fill="#000000" font-family="sans-serif" font-size="14" lengthAdjust="spacing" textLength="165" x="122.5" y="85.3496">DataAdministrationModule</text><rect fill="#E2E2F0" height="51.2422" rx="2.5" ry="2.5" style="stroke:#181818;stroke-width:0.5;" width="179" x="115.5" y="403.4238"/><text fill="#000000" font-family="sans-serif" font-size="14" font-style="italic" lengthAdjust="spacing" textLength="86" x="162" y="425.5313">&#171;component&#187;</text><text fill="#000000" font-family="sans-serif" font-size="14" lengthAdjust="spacing" textLength="165" x="122.5" y="444.1523">DataAdministrationModule</text><rect fill="#FFFFFF" height="265.2695" style="stroke:#181818;stroke-width:1.0;" width="10" x="200" y="130.1543"/><polygon fill="#181818" points="188,126.1543,198,130.1543,188,134.1543,192,130.1543" style="stroke:#181818;stroke-width:1.0;"/><line style="stroke:#181818;stroke-width:1.0;" x1="0" x2="194" y1="130.1543" y2="130.1543"/><text fill="#000000" font-family="sans-serif" font-size="13" font-weight="bold" lengthAdjust="spacing" textLength="7" x="7" y="124.8916">1</text><text fill="#000000" font-family="sans-serif" font-size="13" lengthAdjust="spacing" textLength="120" x="18" y="124.8916">POST resources/{...}</text><path d="M3,145.1543 L64,145.1543 L64,154.4453 L54,164.4453 L3,164.4453 L3,145.1543 " fill="#EEEEEE" style="stroke:#000000;stroke-width:1.5;"/><rect fill="none" height="242.2695" style="stroke:#000000;stroke-width:1.5;" width="301.5" x="3" y="145.1543"/><text fill="#000000" font-family="sans-serif" font-size="13" font-weight="bold" lengthAdjust="spacing" textLength="16" x="18" y="160.1826">alt</text><text fill="#000000" font-family="sans-serif" font-size="11" font-weight="bold" lengthAdjust="spacing" textLength="106" x="79" y="159.0244">[resource Created]</text><polygon fill="#181818" points="11,183.7363,1,187.7363,11,191.7363,7,187.7363" style="stroke:#181818;stroke-width:1.0;"/><line style="stroke:#181818;stroke-width:1.0;stroke-dasharray:2.0,2.0;" x1="5" x2="199" y1="187.7363" y2="187.7363"/><text fill="#000000" font-family="sans-serif" font-size="13" font-weight="bold" lengthAdjust="spacing" textLength="7" x="17" y="182.4736">2</text><text fill="#000000" font-family="sans-serif" font-size="13" lengthAdjust="spacing" textLength="163" x="28" y="182.4736">Response status code - 201</text><line style="stroke:#000000;stroke-width:1.0;stroke-dasharray:2.0,2.0;" x1="3" x2="304.5" y1="196.7363" y2="196.7363"/><text fill="#000000" font-family="sans-serif" font-size="11" font-weight="bold" lengthAdjust="spacing" textLength="74" x="8" y="208.6064">[invalid input]</text><polygon fill="#181818" points="11,231.6582,1,235.6582,11,239.6582,7,235.6582" style="stroke:#181818;stroke-width:1.0;"/><line style="stroke:#181818;stroke-width:1.0;stroke-dasharray:2.0,2.0;" x1="5" x2="199" y1="235.6582" y2="235.6582"/><text fill="#000000" font-family="sans-serif" font-size="13" font-weight="bold" lengthAdjust="spacing" textLength="7" x="17" y="230.3955">3</text><text fill="#000000" font-family="sans-serif" font-size="13" lengthAdjust="spacing" textLength="163" x="28" y="230.3955">Response status code - 400</text><line style="stroke:#000000;stroke-width:1.0;stroke-dasharray:2.0,2.0;" x1="3" x2="304.5" y1="244.6582" y2="244.6582"/><text fill="#000000" font-family="sans-serif" font-size="11" font-weight="bold" lengthAdjust="spacing" textLength="81" x="8" y="256.5283">[unauthorized]</text><polygon fill="#181818" points="11,279.5801,1,283.5801,11,287.5801,7,283.5801" style="stroke:#181818;stroke-width:1.0;"/><line style="stroke:#181818;stroke-width:1.0;stroke-dasharray:2.0,2.0;" x1="5" x2="199" y1="283.5801" y2="283.5801"/><text fill="#000000" font-family="sans-serif" font-size="13" font-weight="bold" lengthAdjust="spacing" textLength="7" x="17" y="278.3174">4</text><text fill="#000000" font-family="sans-serif" font-size="13" lengthAdjust="spacing" textLength="163" x="28" y="278.3174">Response status code - 401</text><line style="stroke:#000000;stroke-width:1.0;stroke-dasharray:2.0,2.0;" x1="3" x2="304.5" y1="292.5801" y2="292.5801"/><text fill="#000000" font-family="sans-serif" font-size="11" font-weight="bold" lengthAdjust="spacing" textLength="139" x="8" y="304.4502">[resource already exists]</text><polygon fill="#181818" points="11,327.502,1,331.502,11,335.502,7,331.502" style="stroke:#181818;stroke-width:1.0;"/><line style="stroke:#181818;stroke-width:1.0;stroke-dasharray:2.0,2.0;" x1="5" x2="199" y1="331.502" y2="331.502"/><text fill="#000000" font-family="sans-serif" font-size="13" font-weight="bold" lengthAdjust="spacing" textLength="7" x="17" y="326.2393">5</text><text fill="#000000" font-family="sans-serif" font-size="13" lengthAdjust="spacing" textLength="163" x="28" y="326.2393">Response status code - 409</text><line style="stroke:#000000;stroke-width:1.0;stroke-dasharray:2.0,2.0;" x1="3" x2="304.5" y1="340.502" y2="340.502"/><text fill="#000000" font-family="sans-serif" font-size="11" font-weight="bold" lengthAdjust="spacing" textLength="122" x="8" y="352.3721">[database unavailable]</text><polygon fill="#181818" points="11,375.4238,1,379.4238,11,383.4238,7,379.4238" style="stroke:#181818;stroke-width:1.0;"/><line style="stroke:#181818;stroke-width:1.0;stroke-dasharray:2.0,2.0;" x1="5" x2="199" y1="379.4238" y2="379.4238"/><text fill="#000000" font-family="sans-serif" font-size="13" font-weight="bold" lengthAdjust="spacing" textLength="7" x="17" y="374.1611">6</text><text fill="#000000" font-family="sans-serif" font-size="13" lengthAdjust="spacing" textLength="163" x="28" y="374.1611">Response status code - 503</text><!--SRC=[ZP3FJiCm3CRlVWfhzvO2um2gAatiEe4OB-0c5ekM9bNYL0p4k-EfrSuz-Oy-_xvFfY8nbA7d1FdimaY91Xp9dEcBZtBnZ8cD08WJxLyJap1-S8ub6GPGlJZZHWg2cpq9xUpWWikII5mCXsYBvmrInltkW6rhuZ36m46w3g3ghjiNV7yxVghDpCntltLT_m6G4JTTtLIZavURP8bX0H3RgfeXcad9cJ4BISbeecMiyA6v1s2lUnScyivg7OkiETqspN9Q0XKvnUH-rfbkRwQtoEGrixqWV-jpyZh8ymAn-jUUvXmJEK-zvpM4f-PH2S72Fm00]--></g></svg>