<?xml version="1.0" encoding="us-ascii" standalone="no"?><svg xmlns="http://www.w3.org/2000/svg" xmlns:xlink="http://www.w3.org/1999/xlink" contentStyleType="text/css" height="535px" preserveAspectRatio="none" style="width:650px;height:535px;background:#FFFFFF;" version="1.1" viewBox="0 0 650 535" width="650px" zoomAndPan="magnify"><defs/><g><text fill="#000000" font-family="JetBrains Mono" font-size="14" font-weight="bold" lengthAdjust="spacing" textLength="152" x="245.5" y="29.2799">Find Optimized Path</text><rect fill="#FFFFFF" height="306.6002" style="stroke:#181818;stroke-width:1.0;" width="10" x="343" y="163.9198"/><rect fill="none" height="135.8001" style="stroke:#000000;stroke-width:1.5;" width="451" x="183" y="295.5599"/><line style="stroke:#181818;stroke-width:0.5;stroke-dasharray:5.0,5.0;" x1="348" x2="348" y1="96.4398" y2="479.52"/><rect fill="#E2E2F0" height="50.9598" rx="2.5" ry="2.5" style="stroke:#181818;stroke-width:0.5;" width="102" x="297" y="44.4799"/><text fill="#000000" font-family="JetBrains Mono" font-size="14" font-style="italic" lengthAdjust="spacing" textLength="88" x="304" y="65.7599">&#171;component&#187;</text><text fill="#000000" font-family="JetBrains Mono" font-size="14" lengthAdjust="spacing" textLength="64" x="316" y="84.2398">Back-End</text><rect fill="#E2E2F0" height="50.9598" rx="2.5" ry="2.5" style="stroke:#181818;stroke-width:0.5;" width="102" x="297" y="478.52"/><text fill="#000000" font-family="JetBrains Mono" font-size="14" font-style="italic" lengthAdjust="spacing" textLength="88" x="304" y="499.7999">&#171;component&#187;</text><text fill="#000000" font-family="JetBrains Mono" font-size="14" lengthAdjust="spacing" textLength="64" x="316" y="518.2798">Back-End</text><rect fill="#FFFFFF" height="306.6002" style="stroke:#181818;stroke-width:1.0;" width="10" x="343" y="163.9198"/><polygon fill="#181818" points="331,159.9198,341,163.9198,331,167.9198,335,163.9198" style="stroke:#181818;stroke-width:1.0;"/><line style="stroke:#181818;stroke-width:1.0;" x1="0" x2="337" y1="163.9198" y2="163.9198"/><text fill="#000000" font-family="JetBrains Mono" font-size="13" font-weight="bold" lengthAdjust="spacing" textLength="8" x="7" y="140.8598">1</text><text fill="#000000" font-family="JetBrains Mono" font-size="13" lengthAdjust="spacing" textLength="216" x="19" y="123.6998">GET paths?originFloor={...}</text><text fill="#000000" font-family="JetBrains Mono" font-size="13" lengthAdjust="spacing" textLength="312" x="19" y="140.8598">&amp;destinationFloor={...}&amp;originCel={...}</text><text fill="#000000" font-family="JetBrains Mono" font-size="13" lengthAdjust="spacing" textLength="168" x="19" y="158.0198">&amp;destinationCel={...}</text><polygon fill="#181818" points="632,191.0798,642,195.0798,632,199.0798,636,195.0798" style="stroke:#181818;stroke-width:1.0;"/><line style="stroke:#181818;stroke-width:1.0;" x1="353" x2="638" y1="195.0798" y2="195.0798"/><text fill="#000000" font-family="JetBrains Mono" font-size="13" font-weight="bold" lengthAdjust="spacing" textLength="8" x="360" y="189.1798">2</text><text fill="#000000" font-family="JetBrains Mono" font-size="13" lengthAdjust="spacing" textLength="144" x="372" y="189.1798">GET /prolog/campus</text><polygon fill="#181818" points="364,222.2398,354,226.2398,364,230.2398,360,226.2398" style="stroke:#181818;stroke-width:1.0;"/><line style="stroke:#181818;stroke-width:1.0;stroke-dasharray:2.0,2.0;" x1="358" x2="643" y1="226.2398" y2="226.2398"/><text fill="#000000" font-family="JetBrains Mono" font-size="13" font-weight="bold" lengthAdjust="spacing" textLength="8" x="370" y="220.3398">3</text><text fill="#000000" font-family="JetBrains Mono" font-size="13" lengthAdjust="spacing" textLength="64" x="382" y="220.3398">response</text><path d="M189,239.2398 L189,283.2398 L506,283.2398 L506,249.2398 L496,239.2398 L189,239.2398 " fill="#FEFFDD" style="stroke:#181818;stroke-width:0.5;"/><path d="M496,239.2398 L496,249.2398 L506,249.2398 L496,239.2398 " fill="#FEFFDD" style="stroke:#181818;stroke-width:0.5;"/><text fill="#000000" font-family="JetBrains Mono" font-size="13" lengthAdjust="spacing" textLength="296" x="195" y="257.4998">Campus data is processed and asserted</text><text fill="#000000" font-family="JetBrains Mono" font-size="13" lengthAdjust="spacing" textLength="136" x="195" y="274.6599">to knowledge base</text><path d="M183,295.5599 L260,295.5599 L260,304.7199 L250,314.7199 L183,314.7199 L183,295.5599 " fill="#EEEEEE" style="stroke:#000000;stroke-width:1.5;"/><rect fill="none" height="135.8001" style="stroke:#000000;stroke-width:1.5;" width="451" x="183" y="295.5599"/><text fill="#000000" font-family="JetBrains Mono" font-size="13" font-weight="bold" lengthAdjust="spacing" textLength="32" x="198" y="309.8199">loop</text><text fill="#000000" font-family="JetBrains Mono" font-size="11" font-weight="bold" lengthAdjust="spacing" textLength="112" x="275" y="308.7798">[for each floor]</text><polygon fill="#181818" points="632,333.8799,642,337.8799,632,341.8799,636,337.8799" style="stroke:#181818;stroke-width:1.0;"/><line style="stroke:#181818;stroke-width:1.0;" x1="353" x2="638" y1="337.8799" y2="337.8799"/><text fill="#000000" font-family="JetBrains Mono" font-size="13" font-weight="bold" lengthAdjust="spacing" textLength="8" x="360" y="331.9799">4</text><text fill="#000000" font-family="JetBrains Mono" font-size="13" lengthAdjust="spacing" textLength="248" x="372" y="331.9799">GET prolog/floorPlans/{floorId}</text><polygon fill="#181818" points="364,365.0399,354,369.0399,364,373.0399,360,369.0399" style="stroke:#181818;stroke-width:1.0;"/><line style="stroke:#181818;stroke-width:1.0;stroke-dasharray:2.0,2.0;" x1="358" x2="643" y1="369.0399" y2="369.0399"/><text fill="#000000" font-family="JetBrains Mono" font-size="13" font-weight="bold" lengthAdjust="spacing" textLength="8" x="370" y="363.1399">5</text><text fill="#000000" font-family="JetBrains Mono" font-size="13" lengthAdjust="spacing" textLength="64" x="382" y="363.1399">response</text><path d="M193,382.0399 L193,426.0399 L502,426.0399 L502,392.0399 L492,382.0399 L193,382.0399 " fill="#FEFFDD" style="stroke:#181818;stroke-width:0.5;"/><path d="M492,382.0399 L492,392.0399 L502,392.0399 L492,382.0399 " fill="#FEFFDD" style="stroke:#181818;stroke-width:0.5;"/><text fill="#000000" font-family="JetBrains Mono" font-size="13" lengthAdjust="spacing" textLength="288" x="199" y="400.2999">Floor data is processed and asserted</text><text fill="#000000" font-family="JetBrains Mono" font-size="13" lengthAdjust="spacing" textLength="136" x="199" y="417.4599">to knowledge base</text><polygon fill="#181818" points="11,457.52,1,461.52,11,465.52,7,461.52" style="stroke:#181818;stroke-width:1.0;"/><line style="stroke:#181818;stroke-width:1.0;stroke-dasharray:2.0,2.0;" x1="5" x2="342" y1="461.52" y2="461.52"/><text fill="#000000" font-family="JetBrains Mono" font-size="13" font-weight="bold" lengthAdjust="spacing" textLength="8" x="17" y="455.62">6</text><text fill="#000000" font-family="JetBrains Mono" font-size="13" lengthAdjust="spacing" textLength="64" x="29" y="455.62">response</text><!--SRC=[ZP71JW9138RlVOg60xU5Eq5C860qKKdqwANCb6N2xdGpqyKeyTtjBeGGzU2SclPl_wyTQbLYMsyuGTw7s52Y6XjoUohvHJygniHEhsgUjzHMkfAeJrGpFh3E4uMOyL6Y06XGQrg5wF6vqL27J_Qu9jq1s00DBZGK5GTpyoYMqG-GCiwNE9qwgHk977Ks0oXcbfpWtVBLQ7INRoM5CiHL9P9kZgFHwEij3Zrd3P4qo7LXU98kkFfBU4a3aDDm86Lp0Z04ypmvZfiabPHZHtNJvhusBOg9dI8ROMQ0ADOc1qvTBzfRz5Bqf8GXemrmdBEjJdO8iYWf-rwfWliexnNxad53DerDqWq4i2KQt4f29hV3RRTJttCDTsRhY-kAOXuV-_ZUsqfdyG_QBlkBk7lzrVu3_JTubxt0Tq773s3k_UTT0Bu1]--></g></svg>