<?xml version="1.0" encoding="us-ascii" standalone="no"?><svg xmlns="http://www.w3.org/2000/svg" xmlns:xlink="http://www.w3.org/1999/xlink" contentStyleType="text/css" height="1188px" preserveAspectRatio="none" style="width:791px;height:1188px;background:#FFFFFF;" version="1.1" viewBox="0 0 791 1188" width="791px" zoomAndPan="magnify"><defs/><g><text fill="#000000" font-family="sans-serif" font-size="14" font-weight="bold" lengthAdjust="spacing" textLength="109" x="342.75" y="30.1074">Create Robisep</text><rect fill="#FFFFFF" height="884.4297" style="stroke:#181818;stroke-width:1.0;" width="10" x="430" y="195.7363"/><rect fill="#FFFFFF" height="31.291" style="stroke:#181818;stroke-width:1.0;" width="10" x="728" y="227.0273"/><rect fill="#FFFFFF" height="31.291" style="stroke:#181818;stroke-width:1.0;" width="10" x="728" y="402.1133"/><rect fill="#FFFFFF" height="31.291" style="stroke:#181818;stroke-width:1.0;" width="10" x="728" y="577.1992"/><rect fill="#FFFFFF" height="31.291" style="stroke:#181818;stroke-width:1.0;" width="10" x="728" y="752.2852"/><rect fill="#FFFFFF" height="31.291" style="stroke:#181818;stroke-width:1.0;" width="10" x="728" y="927.3711"/><rect fill="none" height="98.5039" style="stroke:#000000;stroke-width:1.5;" width="495" x="3" y="273.3184"/><rect fill="none" height="98.5039" style="stroke:#000000;stroke-width:1.5;" width="495" x="3" y="448.4043"/><rect fill="none" height="98.5039" style="stroke:#000000;stroke-width:1.5;" width="495" x="3" y="623.4902"/><rect fill="none" height="98.5039" style="stroke:#000000;stroke-width:1.5;" width="495" x="3" y="798.5762"/><rect fill="none" height="98.5039" style="stroke:#000000;stroke-width:1.5;" width="495" x="3" y="973.6621"/><line style="stroke:#181818;stroke-width:0.5;stroke-dasharray:5.0,5.0;" x1="435" x2="435" y1="127.8633" y2="1089.166"/><line style="stroke:#181818;stroke-width:0.5;stroke-dasharray:5.0,5.0;" x1="732.5" x2="732.5" y1="127.8633" y2="1089.166"/><rect fill="#E2E2F0" height="51.2422" rx="2.5" ry="2.5" style="stroke:#181818;stroke-width:0.5;" width="106" x="382" y="75.6211"/><text fill="#000000" font-family="sans-serif" font-size="14" font-style="italic" lengthAdjust="spacing" textLength="86" x="392" y="97.7285">&#171;component&#187;</text><text fill="#000000" font-family="sans-serif" font-size="14" lengthAdjust="spacing" textLength="92" x="389" y="116.3496">Node Backend</text><rect fill="#E2E2F0" height="51.2422" rx="2.5" ry="2.5" style="stroke:#181818;stroke-width:0.5;" width="106" x="382" y="1088.166"/><text fill="#000000" font-family="sans-serif" font-size="14" font-style="italic" lengthAdjust="spacing" textLength="86" x="392" y="1110.2734">&#171;component&#187;</text><text fill="#000000" font-family="sans-serif" font-size="14" lengthAdjust="spacing" textLength="92" x="389" y="1128.8945">Node Backend</text><text fill="#000000" font-family="sans-serif" font-size="14" font-style="italic" lengthAdjust="spacing" textLength="86" x="687" y="105.7285">&#171;component&#187;</text><text fill="#000000" font-family="sans-serif" font-size="14" lengthAdjust="spacing" textLength="109" x="675.5" y="124.3496">Mongo DataBase</text><path d="M715,54.6211 C715,44.6211 733,44.6211 733,44.6211 C733,44.6211 751,44.6211 751,54.6211 L751,80.6211 C751,90.6211 733,90.6211 733,90.6211 C733,90.6211 715,90.6211 715,80.6211 L715,54.6211 " fill="#E2E2F0" style="stroke:#181818;stroke-width:1.5;"/><path d="M715,54.6211 C715,64.6211 733,64.6211 733,64.6211 C733,64.6211 751,64.6211 751,54.6211 " fill="none" style="stroke:#181818;stroke-width:1.5;"/><text fill="#000000" font-family="sans-serif" font-size="14" font-style="italic" lengthAdjust="spacing" textLength="86" x="687" y="1103.2734">&#171;component&#187;</text><text fill="#000000" font-family="sans-serif" font-size="14" lengthAdjust="spacing" textLength="109" x="675.5" y="1121.8945">Mongo DataBase</text><path d="M715,1135.4082 C715,1125.4082 733,1125.4082 733,1125.4082 C733,1125.4082 751,1125.4082 751,1135.4082 L751,1161.4082 C751,1171.4082 733,1171.4082 733,1171.4082 C733,1171.4082 715,1171.4082 715,1161.4082 L715,1135.4082 " fill="#E2E2F0" style="stroke:#181818;stroke-width:1.5;"/><path d="M715,1135.4082 C715,1145.4082 733,1145.4082 733,1145.4082 C733,1145.4082 751,1145.4082 751,1135.4082 " fill="none" style="stroke:#181818;stroke-width:1.5;"/><rect fill="#FFFFFF" height="884.4297" style="stroke:#181818;stroke-width:1.0;" width="10" x="430" y="195.7363"/><rect fill="#FFFFFF" height="31.291" style="stroke:#181818;stroke-width:1.0;" width="10" x="728" y="227.0273"/><rect fill="#FFFFFF" height="31.291" style="stroke:#181818;stroke-width:1.0;" width="10" x="728" y="402.1133"/><rect fill="#FFFFFF" height="31.291" style="stroke:#181818;stroke-width:1.0;" width="10" x="728" y="577.1992"/><rect fill="#FFFFFF" height="31.291" style="stroke:#181818;stroke-width:1.0;" width="10" x="728" y="752.2852"/><rect fill="#FFFFFF" height="31.291" style="stroke:#181818;stroke-width:1.0;" width="10" x="728" y="927.3711"/><polygon fill="#181818" points="418,191.7363,428,195.7363,418,199.7363,422,195.7363" style="stroke:#181818;stroke-width:1.0;"/><line style="stroke:#181818;stroke-width:1.0;" x1="0" x2="424" y1="195.7363" y2="195.7363"/><text fill="#000000" font-family="sans-serif" font-size="13" font-weight="bold" lengthAdjust="spacing" textLength="7" x="7" y="173.1826">1</text><text fill="#000000" font-family="sans-serif" font-size="13" lengthAdjust="spacing" textLength="344" x="18" y="155.8916">POST robisep/{domainId?: domainId,  nickname: nickname,</text><text fill="#000000" font-family="sans-serif" font-size="13" lengthAdjust="spacing" textLength="385" x="22" y="173.1826">serialNumber: serialNumber, code: code, description?: description,</text><text fill="#000000" font-family="sans-serif" font-size="13" lengthAdjust="spacing" textLength="246" x="22" y="190.4736">state: state, robisepTypeId: robisepTypeId}</text><polygon fill="#181818" points="716,223.0273,726,227.0273,716,231.0273,720,227.0273" style="stroke:#181818;stroke-width:1.0;"/><line style="stroke:#181818;stroke-width:1.0;" x1="440" x2="722" y1="227.0273" y2="227.0273"/><text fill="#000000" font-family="sans-serif" font-size="13" font-weight="bold" lengthAdjust="spacing" textLength="7" x="447" y="221.7646">2</text><text fill="#000000" font-family="sans-serif" font-size="13" lengthAdjust="spacing" textLength="98" x="458" y="221.7646">find by robisep id</text><polygon fill="#181818" points="451,254.3184,441,258.3184,451,262.3184,447,258.3184" style="stroke:#181818;stroke-width:1.0;"/><line style="stroke:#181818;stroke-width:1.0;stroke-dasharray:2.0,2.0;" x1="445" x2="732" y1="258.3184" y2="258.3184"/><text fill="#000000" font-family="sans-serif" font-size="13" font-weight="bold" lengthAdjust="spacing" textLength="7" x="457" y="253.0557">3</text><text fill="#000000" font-family="sans-serif" font-size="13" lengthAdjust="spacing" textLength="4" x="468" y="253.0557">&#160;</text><path d="M3,273.3184 L64,273.3184 L64,282.6094 L54,292.6094 L3,292.6094 L3,273.3184 " fill="#EEEEEE" style="stroke:#000000;stroke-width:1.5;"/><rect fill="none" height="98.5039" style="stroke:#000000;stroke-width:1.5;" width="495" x="3" y="273.3184"/><text fill="#000000" font-family="sans-serif" font-size="13" font-weight="bold" lengthAdjust="spacing" textLength="16" x="18" y="288.3467">alt</text><text fill="#000000" font-family="sans-serif" font-size="11" font-weight="bold" lengthAdjust="spacing" textLength="204" x="79" y="287.1885">[robisep with given id already exists]</text><polygon fill="#181818" points="11,311.9004,1,315.9004,11,319.9004,7,315.9004" style="stroke:#181818;stroke-width:1.0;"/><line style="stroke:#181818;stroke-width:1.0;stroke-dasharray:2.0,2.0;" x1="5" x2="429" y1="315.9004" y2="315.9004"/><text fill="#000000" font-family="sans-serif" font-size="13" font-weight="bold" lengthAdjust="spacing" textLength="7" x="17" y="310.6377">4</text><text fill="#000000" font-family="sans-serif" font-size="13" lengthAdjust="spacing" textLength="163" x="28" y="310.6377">Response status code - 409</text><line style="stroke:#000000;stroke-width:1.0;stroke-dasharray:2.0,2.0;" x1="3" x2="498" y1="324.9004" y2="324.9004"/><text fill="#000000" font-family="sans-serif" font-size="11" font-weight="bold" lengthAdjust="spacing" textLength="123" x="8" y="336.7705">[database unaveilable]</text><polygon fill="#181818" points="11,359.8223,1,363.8223,11,367.8223,7,363.8223" style="stroke:#181818;stroke-width:1.0;"/><line style="stroke:#181818;stroke-width:1.0;stroke-dasharray:2.0,2.0;" x1="5" x2="429" y1="363.8223" y2="363.8223"/><text fill="#000000" font-family="sans-serif" font-size="13" font-weight="bold" lengthAdjust="spacing" textLength="7" x="17" y="358.5596">5</text><text fill="#000000" font-family="sans-serif" font-size="13" lengthAdjust="spacing" textLength="163" x="28" y="358.5596">Response status code - 503</text><polygon fill="#181818" points="716,398.1133,726,402.1133,716,406.1133,720,402.1133" style="stroke:#181818;stroke-width:1.0;"/><line style="stroke:#181818;stroke-width:1.0;" x1="440" x2="722" y1="402.1133" y2="402.1133"/><text fill="#000000" font-family="sans-serif" font-size="13" font-weight="bold" lengthAdjust="spacing" textLength="7" x="447" y="396.8506">6</text><text fill="#000000" font-family="sans-serif" font-size="13" lengthAdjust="spacing" textLength="127" x="458" y="396.8506">find by robisep type id</text><polygon fill="#181818" points="451,429.4043,441,433.4043,451,437.4043,447,433.4043" style="stroke:#181818;stroke-width:1.0;"/><line style="stroke:#181818;stroke-width:1.0;stroke-dasharray:2.0,2.0;" x1="445" x2="732" y1="433.4043" y2="433.4043"/><text fill="#000000" font-family="sans-serif" font-size="13" font-weight="bold" lengthAdjust="spacing" textLength="7" x="457" y="428.1416">7</text><text fill="#000000" font-family="sans-serif" font-size="13" lengthAdjust="spacing" textLength="4" x="468" y="428.1416">&#160;</text><path d="M3,448.4043 L64,448.4043 L64,457.6953 L54,467.6953 L3,467.6953 L3,448.4043 " fill="#EEEEEE" style="stroke:#000000;stroke-width:1.5;"/><rect fill="none" height="98.5039" style="stroke:#000000;stroke-width:1.5;" width="495" x="3" y="448.4043"/><text fill="#000000" font-family="sans-serif" font-size="13" font-weight="bold" lengthAdjust="spacing" textLength="16" x="18" y="463.4326">alt</text><text fill="#000000" font-family="sans-serif" font-size="11" font-weight="bold" lengthAdjust="spacing" textLength="134" x="79" y="462.2744">[robisep type not found]</text><polygon fill="#181818" points="11,486.9863,1,490.9863,11,494.9863,7,490.9863" style="stroke:#181818;stroke-width:1.0;"/><line style="stroke:#181818;stroke-width:1.0;stroke-dasharray:2.0,2.0;" x1="5" x2="429" y1="490.9863" y2="490.9863"/><text fill="#000000" font-family="sans-serif" font-size="13" font-weight="bold" lengthAdjust="spacing" textLength="7" x="17" y="485.7236">8</text><text fill="#000000" font-family="sans-serif" font-size="13" lengthAdjust="spacing" textLength="163" x="28" y="485.7236">Response status code - 404</text><line style="stroke:#000000;stroke-width:1.0;stroke-dasharray:2.0,2.0;" x1="3" x2="498" y1="499.9863" y2="499.9863"/><text fill="#000000" font-family="sans-serif" font-size="11" font-weight="bold" lengthAdjust="spacing" textLength="123" x="8" y="511.8564">[database unaveilable]</text><polygon fill="#181818" points="11,534.9082,1,538.9082,11,542.9082,7,538.9082" style="stroke:#181818;stroke-width:1.0;"/><line style="stroke:#181818;stroke-width:1.0;stroke-dasharray:2.0,2.0;" x1="5" x2="429" y1="538.9082" y2="538.9082"/><text fill="#000000" font-family="sans-serif" font-size="13" font-weight="bold" lengthAdjust="spacing" textLength="7" x="17" y="533.6455">9</text><text fill="#000000" font-family="sans-serif" font-size="13" lengthAdjust="spacing" textLength="163" x="28" y="533.6455">Response status code - 503</text><polygon fill="#181818" points="716,573.1992,726,577.1992,716,581.1992,720,577.1992" style="stroke:#181818;stroke-width:1.0;"/><line style="stroke:#181818;stroke-width:1.0;" x1="440" x2="722" y1="577.1992" y2="577.1992"/><text fill="#000000" font-family="sans-serif" font-size="13" font-weight="bold" lengthAdjust="spacing" textLength="14" x="447" y="571.9365">10</text><text fill="#000000" font-family="sans-serif" font-size="13" lengthAdjust="spacing" textLength="70" x="465" y="571.9365">find by code</text><polygon fill="#181818" points="451,604.4902,441,608.4902,451,612.4902,447,608.4902" style="stroke:#181818;stroke-width:1.0;"/><line style="stroke:#181818;stroke-width:1.0;stroke-dasharray:2.0,2.0;" x1="445" x2="732" y1="608.4902" y2="608.4902"/><text fill="#000000" font-family="sans-serif" font-size="13" font-weight="bold" lengthAdjust="spacing" textLength="14" x="457" y="603.2275">11</text><text fill="#000000" font-family="sans-serif" font-size="13" lengthAdjust="spacing" textLength="4" x="475" y="603.2275">&#160;</text><path d="M3,623.4902 L64,623.4902 L64,632.7813 L54,642.7813 L3,642.7813 L3,623.4902 " fill="#EEEEEE" style="stroke:#000000;stroke-width:1.5;"/><rect fill="none" height="98.5039" style="stroke:#000000;stroke-width:1.5;" width="495" x="3" y="623.4902"/><text fill="#000000" font-family="sans-serif" font-size="13" font-weight="bold" lengthAdjust="spacing" textLength="16" x="18" y="638.5186">alt</text><text fill="#000000" font-family="sans-serif" font-size="11" font-weight="bold" lengthAdjust="spacing" textLength="221" x="79" y="637.3604">[robisep with given code already exists]</text><polygon fill="#181818" points="11,662.0723,1,666.0723,11,670.0723,7,666.0723" style="stroke:#181818;stroke-width:1.0;"/><line style="stroke:#181818;stroke-width:1.0;stroke-dasharray:2.0,2.0;" x1="5" x2="429" y1="666.0723" y2="666.0723"/><text fill="#000000" font-family="sans-serif" font-size="13" font-weight="bold" lengthAdjust="spacing" textLength="14" x="17" y="660.8096">12</text><text fill="#000000" font-family="sans-serif" font-size="13" lengthAdjust="spacing" textLength="163" x="35" y="660.8096">Response status code - 409</text><line style="stroke:#000000;stroke-width:1.0;stroke-dasharray:2.0,2.0;" x1="3" x2="498" y1="675.0723" y2="675.0723"/><text fill="#000000" font-family="sans-serif" font-size="11" font-weight="bold" lengthAdjust="spacing" textLength="123" x="8" y="686.9424">[database unaveilable]</text><polygon fill="#181818" points="11,709.9941,1,713.9941,11,717.9941,7,713.9941" style="stroke:#181818;stroke-width:1.0;"/><line style="stroke:#181818;stroke-width:1.0;stroke-dasharray:2.0,2.0;" x1="5" x2="429" y1="713.9941" y2="713.9941"/><text fill="#000000" font-family="sans-serif" font-size="13" font-weight="bold" lengthAdjust="spacing" textLength="14" x="17" y="708.7314">13</text><text fill="#000000" font-family="sans-serif" font-size="13" lengthAdjust="spacing" textLength="163" x="35" y="708.7314">Response status code - 503</text><polygon fill="#181818" points="716,748.2852,726,752.2852,716,756.2852,720,752.2852" style="stroke:#181818;stroke-width:1.0;"/><line style="stroke:#181818;stroke-width:1.0;" x1="440" x2="722" y1="752.2852" y2="752.2852"/><text fill="#000000" font-family="sans-serif" font-size="13" font-weight="bold" lengthAdjust="spacing" textLength="14" x="447" y="747.0225">14</text><text fill="#000000" font-family="sans-serif" font-size="13" lengthAdjust="spacing" textLength="251" x="465" y="747.0225">find by serial number withing the same type</text><polygon fill="#181818" points="451,779.5762,441,783.5762,451,787.5762,447,783.5762" style="stroke:#181818;stroke-width:1.0;"/><line style="stroke:#181818;stroke-width:1.0;stroke-dasharray:2.0,2.0;" x1="445" x2="732" y1="783.5762" y2="783.5762"/><text fill="#000000" font-family="sans-serif" font-size="13" font-weight="bold" lengthAdjust="spacing" textLength="14" x="457" y="778.3135">15</text><text fill="#000000" font-family="sans-serif" font-size="13" lengthAdjust="spacing" textLength="4" x="475" y="778.3135">&#160;</text><path d="M3,798.5762 L64,798.5762 L64,807.8672 L54,817.8672 L3,817.8672 L3,798.5762 " fill="#EEEEEE" style="stroke:#000000;stroke-width:1.5;"/><rect fill="none" height="98.5039" style="stroke:#000000;stroke-width:1.5;" width="495" x="3" y="798.5762"/><text fill="#000000" font-family="sans-serif" font-size="13" font-weight="bold" lengthAdjust="spacing" textLength="16" x="18" y="813.6045">alt</text><text fill="#000000" font-family="sans-serif" font-size="11" font-weight="bold" lengthAdjust="spacing" textLength="272" x="79" y="812.4463">[robisep with given serial number already exists]</text><polygon fill="#181818" points="11,837.1582,1,841.1582,11,845.1582,7,841.1582" style="stroke:#181818;stroke-width:1.0;"/><line style="stroke:#181818;stroke-width:1.0;stroke-dasharray:2.0,2.0;" x1="5" x2="429" y1="841.1582" y2="841.1582"/><text fill="#000000" font-family="sans-serif" font-size="13" font-weight="bold" lengthAdjust="spacing" textLength="14" x="17" y="835.8955">16</text><text fill="#000000" font-family="sans-serif" font-size="13" lengthAdjust="spacing" textLength="163" x="35" y="835.8955">Response status code - 409</text><line style="stroke:#000000;stroke-width:1.0;stroke-dasharray:2.0,2.0;" x1="3" x2="498" y1="850.1582" y2="850.1582"/><text fill="#000000" font-family="sans-serif" font-size="11" font-weight="bold" lengthAdjust="spacing" textLength="123" x="8" y="862.0283">[database unaveilable]</text><polygon fill="#181818" points="11,885.0801,1,889.0801,11,893.0801,7,889.0801" style="stroke:#181818;stroke-width:1.0;"/><line style="stroke:#181818;stroke-width:1.0;stroke-dasharray:2.0,2.0;" x1="5" x2="429" y1="889.0801" y2="889.0801"/><text fill="#000000" font-family="sans-serif" font-size="13" font-weight="bold" lengthAdjust="spacing" textLength="14" x="17" y="883.8174">17</text><text fill="#000000" font-family="sans-serif" font-size="13" lengthAdjust="spacing" textLength="163" x="35" y="883.8174">Response status code - 503</text><polygon fill="#181818" points="716,923.3711,726,927.3711,716,931.3711,720,927.3711" style="stroke:#181818;stroke-width:1.0;"/><line style="stroke:#181818;stroke-width:1.0;" x1="440" x2="722" y1="927.3711" y2="927.3711"/><text fill="#000000" font-family="sans-serif" font-size="13" font-weight="bold" lengthAdjust="spacing" textLength="14" x="447" y="922.1084">18</text><text fill="#000000" font-family="sans-serif" font-size="13" lengthAdjust="spacing" textLength="26" x="465" y="922.1084">save</text><polygon fill="#181818" points="451,954.6621,441,958.6621,451,962.6621,447,958.6621" style="stroke:#181818;stroke-width:1.0;"/><line style="stroke:#181818;stroke-width:1.0;stroke-dasharray:2.0,2.0;" x1="445" x2="732" y1="958.6621" y2="958.6621"/><text fill="#000000" font-family="sans-serif" font-size="13" font-weight="bold" lengthAdjust="spacing" textLength="14" x="457" y="953.3994">19</text><text fill="#000000" font-family="sans-serif" font-size="13" lengthAdjust="spacing" textLength="4" x="475" y="953.3994">&#160;</text><path d="M3,973.6621 L64,973.6621 L64,982.9531 L54,992.9531 L3,992.9531 L3,973.6621 " fill="#EEEEEE" style="stroke:#000000;stroke-width:1.5;"/><rect fill="none" height="98.5039" style="stroke:#000000;stroke-width:1.5;" width="495" x="3" y="973.6621"/><text fill="#000000" font-family="sans-serif" font-size="13" font-weight="bold" lengthAdjust="spacing" textLength="16" x="18" y="988.6904">alt</text><text fill="#000000" font-family="sans-serif" font-size="11" font-weight="bold" lengthAdjust="spacing" textLength="108" x="79" y="987.5322">[robisep persisted]</text><polygon fill="#181818" points="11,1012.2441,1,1016.2441,11,1020.2441,7,1016.2441" style="stroke:#181818;stroke-width:1.0;"/><line style="stroke:#181818;stroke-width:1.0;stroke-dasharray:2.0,2.0;" x1="5" x2="429" y1="1016.2441" y2="1016.2441"/><text fill="#000000" font-family="sans-serif" font-size="13" font-weight="bold" lengthAdjust="spacing" textLength="14" x="17" y="1010.9814">20</text><text fill="#000000" font-family="sans-serif" font-size="13" lengthAdjust="spacing" textLength="163" x="35" y="1010.9814">Response status code - 201</text><line style="stroke:#000000;stroke-width:1.0;stroke-dasharray:2.0,2.0;" x1="3" x2="498" y1="1025.2441" y2="1025.2441"/><text fill="#000000" font-family="sans-serif" font-size="11" font-weight="bold" lengthAdjust="spacing" textLength="123" x="8" y="1037.1143">[database unaveilable]</text><polygon fill="#181818" points="11,1060.166,1,1064.166,11,1068.166,7,1064.166" style="stroke:#181818;stroke-width:1.0;"/><line style="stroke:#181818;stroke-width:1.0;stroke-dasharray:2.0,2.0;" x1="5" x2="429" y1="1064.166" y2="1064.166"/><text fill="#000000" font-family="sans-serif" font-size="13" font-weight="bold" lengthAdjust="spacing" textLength="14" x="17" y="1058.9033">21</text><text fill="#000000" font-family="sans-serif" font-size="13" lengthAdjust="spacing" textLength="163" x="35" y="1058.9033">Response status code - 503</text><!--SRC=[nPCzRzj038Pt_Wh2InO9TTjqg62uWA8KyD2qY3DcEUaOvs299-WejqBH_rvAifswHHFd0yWY7NNaApulGTEAvxRAgO6mTboRnbHOcs9jLhIKhYHig100SQBdiuQC45xwt0Mg0JHTNE5gmuAJ2sy9KoqbjXCq0TDpdCqANzMUYMK-1sl4v2OGJhvuNddCD4ur7hApzAziYESgaU2thyihRCPVllbfVMKSB-od17V7295TiMPJKR8_HNZD6AXnfhmO-9A3AC92sqs6PuIMGj6uMfpdNlSk6bL4ePFn5UqwkUfgMjZaCFm5SFBPiSMysvc4Y-m4m1JYDhrrwJc0-g9eMPhWpJPtAuBE_f6QfG1gIZpQ063fuCgKig_xxkGMLsv3h19eIXsJxP1-k201074MnuELbnJKNXr0pzA6WHvZF9r-1A1Il-ydrBBPa2jDNj8H0X-cxrM0xR_ulI-Fia3wWgVwC1Ip5xpnRT_D4UIdBqM-HKyxFDEhXu5xWMTFU-ZYDUTzHxqSjWl7zHfwTBn2kTLQNSTXD0-RCgueyZqYp_Riy1-lQzvI2__lIj3Rf-7Mr0JbeMDsuDtqxGi1_GO0]--></g></svg>