<?xml version="1.0" encoding="us-ascii" standalone="no"?><svg xmlns="http://www.w3.org/2000/svg" xmlns:xlink="http://www.w3.org/1999/xlink" contentStyleType="text/css" height="479px" preserveAspectRatio="none" style="width:358px;height:479px;background:#FFFFFF;" version="1.1" viewBox="0 0 358 479" width="358px" zoomAndPan="magnify"><defs/><g><text fill="#000000" font-family="sans-serif" font-size="14" font-weight="bold" lengthAdjust="spacing" textLength="103" x="136.5" y="30.1074">Get all robisep</text><rect fill="#FFFFFF" height="210.377" style="stroke:#181818;stroke-width:1.0;" width="10" x="200" y="161.1543"/><rect fill="#FFFFFF" height="31.291" style="stroke:#181818;stroke-width:1.0;" width="10" x="306" y="218.7363"/><rect fill="none" height="98.5039" style="stroke:#000000;stroke-width:1.5;" width="262" x="3" y="265.0273"/><line style="stroke:#181818;stroke-width:0.5;stroke-dasharray:5.0,5.0;" x1="205" x2="205" y1="127.8633" y2="380.5313"/><line style="stroke:#181818;stroke-width:0.5;stroke-dasharray:5.0,5.0;" x1="311" x2="311" y1="127.8633" y2="380.5313"/><rect fill="#E2E2F0" height="51.2422" rx="2.5" ry="2.5" style="stroke:#181818;stroke-width:0.5;" width="100" x="155" y="75.6211"/><text fill="#000000" font-family="sans-serif" font-size="14" font-style="italic" lengthAdjust="spacing" textLength="86" x="162" y="97.7285">&#171;component&#187;</text><text fill="#000000" font-family="sans-serif" font-size="14" lengthAdjust="spacing" textLength="61" x="174.5" y="116.3496">Back-End</text><rect fill="#E2E2F0" height="51.2422" rx="2.5" ry="2.5" style="stroke:#181818;stroke-width:0.5;" width="100" x="155" y="379.5313"/><text fill="#000000" font-family="sans-serif" font-size="14" font-style="italic" lengthAdjust="spacing" textLength="86" x="162" y="401.6387">&#171;component&#187;</text><text fill="#000000" font-family="sans-serif" font-size="14" lengthAdjust="spacing" textLength="61" x="174.5" y="420.2598">Back-End</text><text fill="#000000" font-family="sans-serif" font-size="14" font-style="italic" lengthAdjust="spacing" textLength="86" x="265" y="105.7285">&#171;component&#187;</text><text fill="#000000" font-family="sans-serif" font-size="14" lengthAdjust="spacing" textLength="62" x="277" y="124.3496">DataBase</text><path d="M293,54.6211 C293,44.6211 311,44.6211 311,44.6211 C311,44.6211 329,44.6211 329,54.6211 L329,80.6211 C329,90.6211 311,90.6211 311,90.6211 C311,90.6211 293,90.6211 293,80.6211 L293,54.6211 " fill="#E2E2F0" style="stroke:#181818;stroke-width:1.5;"/><path d="M293,54.6211 C293,64.6211 311,64.6211 311,64.6211 C311,64.6211 329,64.6211 329,54.6211 " fill="none" style="stroke:#181818;stroke-width:1.5;"/><text fill="#000000" font-family="sans-serif" font-size="14" font-style="italic" lengthAdjust="spacing" textLength="86" x="265" y="394.6387">&#171;component&#187;</text><text fill="#000000" font-family="sans-serif" font-size="14" lengthAdjust="spacing" textLength="62" x="277" y="413.2598">DataBase</text><path d="M293,426.7734 C293,416.7734 311,416.7734 311,416.7734 C311,416.7734 329,416.7734 329,426.7734 L329,452.7734 C329,462.7734 311,462.7734 311,462.7734 C311,462.7734 293,462.7734 293,452.7734 L293,426.7734 " fill="#E2E2F0" style="stroke:#181818;stroke-width:1.5;"/><path d="M293,426.7734 C293,436.7734 311,436.7734 311,436.7734 C311,436.7734 329,436.7734 329,426.7734 " fill="none" style="stroke:#181818;stroke-width:1.5;"/><rect fill="#FFFFFF" height="210.377" style="stroke:#181818;stroke-width:1.0;" width="10" x="200" y="161.1543"/><rect fill="#FFFFFF" height="31.291" style="stroke:#181818;stroke-width:1.0;" width="10" x="306" y="218.7363"/><polygon fill="#181818" points="188,157.1543,198,161.1543,188,165.1543,192,161.1543" style="stroke:#181818;stroke-width:1.0;"/><line style="stroke:#181818;stroke-width:1.0;" x1="0" x2="194" y1="161.1543" y2="161.1543"/><text fill="#000000" font-family="sans-serif" font-size="13" font-weight="bold" lengthAdjust="spacing" textLength="7" x="7" y="155.8916">1</text><text fill="#000000" font-family="sans-serif" font-size="13" lengthAdjust="spacing" textLength="76" x="18" y="155.8916">GET robisep/</text><polygon fill="#181818" points="294,214.7363,304,218.7363,294,222.7363,298,218.7363" style="stroke:#181818;stroke-width:1.0;"/><line style="stroke:#181818;stroke-width:1.0;" x1="210" x2="300" y1="218.7363" y2="218.7363"/><text fill="#000000" font-family="sans-serif" font-size="13" font-weight="bold" lengthAdjust="spacing" textLength="7" x="217" y="213.4736">2</text><text fill="#000000" font-family="sans-serif" font-size="13" lengthAdjust="spacing" textLength="37" x="228" y="213.4736">find all</text><polygon fill="#181818" points="221,246.0273,211,250.0273,221,254.0273,217,250.0273" style="stroke:#181818;stroke-width:1.0;"/><line style="stroke:#181818;stroke-width:1.0;stroke-dasharray:2.0,2.0;" x1="215" x2="310" y1="250.0273" y2="250.0273"/><text fill="#000000" font-family="sans-serif" font-size="13" font-weight="bold" lengthAdjust="spacing" textLength="7" x="227" y="244.7646">3</text><text fill="#000000" font-family="sans-serif" font-size="13" lengthAdjust="spacing" textLength="4" x="238" y="244.7646">&#160;</text><path d="M3,265.0273 L64,265.0273 L64,274.3184 L54,284.3184 L3,284.3184 L3,265.0273 " fill="#EEEEEE" style="stroke:#000000;stroke-width:1.5;"/><rect fill="none" height="98.5039" style="stroke:#000000;stroke-width:1.5;" width="262" x="3" y="265.0273"/><text fill="#000000" font-family="sans-serif" font-size="13" font-weight="bold" lengthAdjust="spacing" textLength="16" x="18" y="280.0557">alt</text><text fill="#000000" font-family="sans-serif" font-size="11" font-weight="bold" lengthAdjust="spacing" textLength="123" x="79" y="278.8975">[database unaveilable]</text><polygon fill="#181818" points="11,303.6094,1,307.6094,11,311.6094,7,307.6094" style="stroke:#181818;stroke-width:1.0;"/><line style="stroke:#181818;stroke-width:1.0;stroke-dasharray:2.0,2.0;" x1="5" x2="199" y1="307.6094" y2="307.6094"/><text fill="#000000" font-family="sans-serif" font-size="13" font-weight="bold" lengthAdjust="spacing" textLength="7" x="17" y="302.3467">4</text><text fill="#000000" font-family="sans-serif" font-size="13" lengthAdjust="spacing" textLength="163" x="28" y="302.3467">Response status code - 503</text><line style="stroke:#000000;stroke-width:1.0;stroke-dasharray:2.0,2.0;" x1="3" x2="265" y1="316.6094" y2="316.6094"/><text fill="#000000" font-family="sans-serif" font-size="11" font-weight="bold" lengthAdjust="spacing" textLength="55" x="8" y="328.4795">[success]</text><polygon fill="#181818" points="11,351.5313,1,355.5313,11,359.5313,7,355.5313" style="stroke:#181818;stroke-width:1.0;"/><line style="stroke:#181818;stroke-width:1.0;stroke-dasharray:2.0,2.0;" x1="5" x2="199" y1="355.5313" y2="355.5313"/><text fill="#000000" font-family="sans-serif" font-size="13" font-weight="bold" lengthAdjust="spacing" textLength="7" x="17" y="350.2686">5</text><text fill="#000000" font-family="sans-serif" font-size="13" lengthAdjust="spacing" textLength="163" x="28" y="350.2686">Response status code - 200</text><!--SRC=[XOwxJiGm44Nx-OhHDbjPH22QLPJ2IjWU-869FO2rZXtPuvNWwvai3m4DtPNd7DzBJN9goym5wYcabGejk98xqJC_o6jaBEm4G89eFh8WnOWbpw7o2g2y11TMIe8xgvgPajyXLRGJzhtBoveJ9na6y2GqKsNSZPgifWitsZySc47b0nwdnw-UAm2AWgroGTB1yf9BU6CF0FkxaFosQQ-Cat0cOTK1j5y_6kq1dpw97y1e0RJOV5G1UFvrsig-vxP4PmwHviW0YBqnbtdtN7MotgkGj8ekUqQ3jzqD0CVjlJd7jMxElzPrrwcLFBm3]--></g></svg>