<?xml version="1.0" encoding="us-ascii" standalone="no"?><svg xmlns="http://www.w3.org/2000/svg" xmlns:xlink="http://www.w3.org/1999/xlink" contentStyleType="text/css" height="1059px" preserveAspectRatio="none" style="width:464px;height:1059px;background:#FFFFFF;" version="1.1" viewBox="0 0 464 1059" width="464px" zoomAndPan="magnify"><defs/><g><text fill="#000000" font-family="sans-serif" font-size="14" font-weight="bold" lengthAdjust="spacing" textLength="100" x="183" y="30.1074">List Floor Plan</text><rect fill="#FFFFFF" height="790.5566" style="stroke:#181818;stroke-width:1.0;" width="10" x="209" y="161.1543"/><rect fill="#FFFFFF" height="31.291" style="stroke:#181818;stroke-width:1.0;" width="10" x="396" y="218.7363"/><rect fill="#FFFFFF" height="31.291" style="stroke:#181818;stroke-width:1.0;" width="10" x="396" y="393.8223"/><rect fill="#FFFFFF" height="31.291" style="stroke:#181818;stroke-width:1.0;" width="10" x="396" y="568.9082"/><rect fill="#FFFFFF" height="31.291" style="stroke:#181818;stroke-width:1.0;" width="10" x="396" y="743.9941"/><rect fill="none" height="767.5566" style="stroke:#000000;stroke-width:1.5;" width="454" x="3" y="176.1543"/><rect fill="none" height="98.5039" style="stroke:#000000;stroke-width:1.5;" width="271" x="3" y="265.0273"/><rect fill="none" height="98.5039" style="stroke:#000000;stroke-width:1.5;" width="271" x="3" y="440.1133"/><rect fill="none" height="98.5039" style="stroke:#000000;stroke-width:1.5;" width="271" x="3" y="615.1992"/><rect fill="none" height="98.5039" style="stroke:#000000;stroke-width:1.5;" width="271" x="3" y="790.2852"/><line style="stroke:#181818;stroke-width:0.5;stroke-dasharray:5.0,5.0;" x1="214" x2="214" y1="127.8633" y2="960.7109"/><line style="stroke:#181818;stroke-width:0.5;stroke-dasharray:5.0,5.0;" x1="401" x2="401" y1="127.8633" y2="960.7109"/><rect fill="#E2E2F0" height="51.2422" rx="2.5" ry="2.5" style="stroke:#181818;stroke-width:0.5;" width="100" x="164" y="75.6211"/><text fill="#000000" font-family="sans-serif" font-size="14" font-style="italic" lengthAdjust="spacing" textLength="86" x="171" y="97.7285">&#171;component&#187;</text><text fill="#000000" font-family="sans-serif" font-size="14" lengthAdjust="spacing" textLength="61" x="183.5" y="116.3496">Back-End</text><rect fill="#E2E2F0" height="51.2422" rx="2.5" ry="2.5" style="stroke:#181818;stroke-width:0.5;" width="100" x="164" y="959.7109"/><text fill="#000000" font-family="sans-serif" font-size="14" font-style="italic" lengthAdjust="spacing" textLength="86" x="171" y="981.8184">&#171;component&#187;</text><text fill="#000000" font-family="sans-serif" font-size="14" lengthAdjust="spacing" textLength="61" x="183.5" y="1000.4395">Back-End</text><text fill="#000000" font-family="sans-serif" font-size="14" font-style="italic" lengthAdjust="spacing" textLength="86" x="355" y="105.7285">&#171;component&#187;</text><text fill="#000000" font-family="sans-serif" font-size="14" lengthAdjust="spacing" textLength="62" x="367" y="124.3496">DataBase</text><path d="M383,54.6211 C383,44.6211 401,44.6211 401,44.6211 C401,44.6211 419,44.6211 419,54.6211 L419,80.6211 C419,90.6211 401,90.6211 401,90.6211 C401,90.6211 383,90.6211 383,80.6211 L383,54.6211 " fill="#E2E2F0" style="stroke:#181818;stroke-width:1.5;"/><path d="M383,54.6211 C383,64.6211 401,64.6211 401,64.6211 C401,64.6211 419,64.6211 419,54.6211 " fill="none" style="stroke:#181818;stroke-width:1.5;"/><text fill="#000000" font-family="sans-serif" font-size="14" font-style="italic" lengthAdjust="spacing" textLength="86" x="355" y="974.8184">&#171;component&#187;</text><text fill="#000000" font-family="sans-serif" font-size="14" lengthAdjust="spacing" textLength="62" x="367" y="993.4395">DataBase</text><path d="M383,1006.9531 C383,996.9531 401,996.9531 401,996.9531 C401,996.9531 419,996.9531 419,1006.9531 L419,1032.9531 C419,1042.9531 401,1042.9531 401,1042.9531 C401,1042.9531 383,1042.9531 383,1032.9531 L383,1006.9531 " fill="#E2E2F0" style="stroke:#181818;stroke-width:1.5;"/><path d="M383,1006.9531 C383,1016.9531 401,1016.9531 401,1016.9531 C401,1016.9531 419,1016.9531 419,1006.9531 " fill="none" style="stroke:#181818;stroke-width:1.5;"/><rect fill="#FFFFFF" height="790.5566" style="stroke:#181818;stroke-width:1.0;" width="10" x="209" y="161.1543"/><rect fill="#FFFFFF" height="31.291" style="stroke:#181818;stroke-width:1.0;" width="10" x="396" y="218.7363"/><rect fill="#FFFFFF" height="31.291" style="stroke:#181818;stroke-width:1.0;" width="10" x="396" y="393.8223"/><rect fill="#FFFFFF" height="31.291" style="stroke:#181818;stroke-width:1.0;" width="10" x="396" y="568.9082"/><rect fill="#FFFFFF" height="31.291" style="stroke:#181818;stroke-width:1.0;" width="10" x="396" y="743.9941"/><polygon fill="#181818" points="197,157.1543,207,161.1543,197,165.1543,201,161.1543" style="stroke:#181818;stroke-width:1.0;"/><line style="stroke:#181818;stroke-width:1.0;" x1="0" x2="203" y1="161.1543" y2="161.1543"/><text fill="#000000" font-family="sans-serif" font-size="13" font-weight="bold" lengthAdjust="spacing" textLength="7" x="7" y="155.8916">1</text><text fill="#000000" font-family="sans-serif" font-size="13" lengthAdjust="spacing" textLength="172" x="18" y="155.8916">GET floors/floorPlants/{floorId}</text><path d="M3,176.1543 L64,176.1543 L64,185.4453 L54,195.4453 L3,195.4453 L3,176.1543 " fill="#EEEEEE" style="stroke:#000000;stroke-width:1.5;"/><rect fill="none" height="767.5566" style="stroke:#000000;stroke-width:1.5;" width="454" x="3" y="176.1543"/><text fill="#000000" font-family="sans-serif" font-size="13" font-weight="bold" lengthAdjust="spacing" textLength="16" x="18" y="191.1826">alt</text><text fill="#000000" font-family="sans-serif" font-size="11" font-weight="bold" lengthAdjust="spacing" textLength="96" x="79" y="190.0244">[user authorized]</text><polygon fill="#181818" points="384,214.7363,394,218.7363,384,222.7363,388,218.7363" style="stroke:#181818;stroke-width:1.0;"/><line style="stroke:#181818;stroke-width:1.0;" x1="219" x2="390" y1="218.7363" y2="218.7363"/><text fill="#000000" font-family="sans-serif" font-size="13" font-weight="bold" lengthAdjust="spacing" textLength="7" x="226" y="213.4736">2</text><text fill="#000000" font-family="sans-serif" font-size="13" lengthAdjust="spacing" textLength="80" x="237" y="213.4736">find floor by id</text><polygon fill="#181818" points="230,246.0273,220,250.0273,230,254.0273,226,250.0273" style="stroke:#181818;stroke-width:1.0;"/><line style="stroke:#181818;stroke-width:1.0;stroke-dasharray:2.0,2.0;" x1="224" x2="400" y1="250.0273" y2="250.0273"/><text fill="#000000" font-family="sans-serif" font-size="13" font-weight="bold" lengthAdjust="spacing" textLength="7" x="236" y="244.7646">3</text><text fill="#000000" font-family="sans-serif" font-size="13" lengthAdjust="spacing" textLength="4" x="247" y="244.7646">&#160;</text><path d="M3,265.0273 L64,265.0273 L64,274.3184 L54,284.3184 L3,284.3184 L3,265.0273 " fill="#EEEEEE" style="stroke:#000000;stroke-width:1.5;"/><rect fill="none" height="98.5039" style="stroke:#000000;stroke-width:1.5;" width="271" x="3" y="265.0273"/><text fill="#000000" font-family="sans-serif" font-size="13" font-weight="bold" lengthAdjust="spacing" textLength="16" x="18" y="280.0557">alt</text><text fill="#000000" font-family="sans-serif" font-size="11" font-weight="bold" lengthAdjust="spacing" textLength="90" x="79" y="278.8975">[floor not found]</text><polygon fill="#181818" points="11,303.6094,1,307.6094,11,311.6094,7,307.6094" style="stroke:#181818;stroke-width:1.0;"/><line style="stroke:#181818;stroke-width:1.0;stroke-dasharray:2.0,2.0;" x1="5" x2="208" y1="307.6094" y2="307.6094"/><text fill="#000000" font-family="sans-serif" font-size="13" font-weight="bold" lengthAdjust="spacing" textLength="7" x="17" y="302.3467">4</text><text fill="#000000" font-family="sans-serif" font-size="13" lengthAdjust="spacing" textLength="163" x="28" y="302.3467">Response status code - 404</text><line style="stroke:#000000;stroke-width:1.0;stroke-dasharray:2.0,2.0;" x1="3" x2="274" y1="316.6094" y2="316.6094"/><text fill="#000000" font-family="sans-serif" font-size="11" font-weight="bold" lengthAdjust="spacing" textLength="122" x="8" y="328.4795">[database unavailable]</text><polygon fill="#181818" points="11,351.5313,1,355.5313,11,359.5313,7,355.5313" style="stroke:#181818;stroke-width:1.0;"/><line style="stroke:#181818;stroke-width:1.0;stroke-dasharray:2.0,2.0;" x1="5" x2="208" y1="355.5313" y2="355.5313"/><text fill="#000000" font-family="sans-serif" font-size="13" font-weight="bold" lengthAdjust="spacing" textLength="7" x="17" y="350.2686">5</text><text fill="#000000" font-family="sans-serif" font-size="13" lengthAdjust="spacing" textLength="163" x="28" y="350.2686">Response status code - 503</text><polygon fill="#181818" points="384,389.8223,394,393.8223,384,397.8223,388,393.8223" style="stroke:#181818;stroke-width:1.0;"/><line style="stroke:#181818;stroke-width:1.0;" x1="219" x2="390" y1="393.8223" y2="393.8223"/><text fill="#000000" font-family="sans-serif" font-size="13" font-weight="bold" lengthAdjust="spacing" textLength="7" x="226" y="388.5596">6</text><text fill="#000000" font-family="sans-serif" font-size="13" lengthAdjust="spacing" textLength="120" x="237" y="388.5596">find rooms by floor id</text><polygon fill="#181818" points="230,421.1133,220,425.1133,230,429.1133,226,425.1133" style="stroke:#181818;stroke-width:1.0;"/><line style="stroke:#181818;stroke-width:1.0;stroke-dasharray:2.0,2.0;" x1="224" x2="400" y1="425.1133" y2="425.1133"/><text fill="#000000" font-family="sans-serif" font-size="13" font-weight="bold" lengthAdjust="spacing" textLength="7" x="236" y="419.8506">7</text><text fill="#000000" font-family="sans-serif" font-size="13" lengthAdjust="spacing" textLength="4" x="247" y="419.8506">&#160;</text><path d="M3,440.1133 L64,440.1133 L64,449.4043 L54,459.4043 L3,459.4043 L3,440.1133 " fill="#EEEEEE" style="stroke:#000000;stroke-width:1.5;"/><rect fill="none" height="98.5039" style="stroke:#000000;stroke-width:1.5;" width="271" x="3" y="440.1133"/><text fill="#000000" font-family="sans-serif" font-size="13" font-weight="bold" lengthAdjust="spacing" textLength="16" x="18" y="455.1416">alt</text><text fill="#000000" font-family="sans-serif" font-size="11" font-weight="bold" lengthAdjust="spacing" textLength="80" x="79" y="453.9834">[rooms found]</text><polygon fill="#181818" points="11,478.6953,1,482.6953,11,486.6953,7,482.6953" style="stroke:#181818;stroke-width:1.0;"/><line style="stroke:#181818;stroke-width:1.0;stroke-dasharray:2.0,2.0;" x1="5" x2="208" y1="482.6953" y2="482.6953"/><text fill="#000000" font-family="sans-serif" font-size="13" font-weight="bold" lengthAdjust="spacing" textLength="7" x="17" y="477.4326">8</text><text fill="#000000" font-family="sans-serif" font-size="13" lengthAdjust="spacing" textLength="163" x="28" y="477.4326">Response status code - 200</text><line style="stroke:#000000;stroke-width:1.0;stroke-dasharray:2.0,2.0;" x1="3" x2="274" y1="491.6953" y2="491.6953"/><text fill="#000000" font-family="sans-serif" font-size="11" font-weight="bold" lengthAdjust="spacing" textLength="122" x="8" y="503.5654">[database unavailable]</text><polygon fill="#181818" points="11,526.6172,1,530.6172,11,534.6172,7,530.6172" style="stroke:#181818;stroke-width:1.0;"/><line style="stroke:#181818;stroke-width:1.0;stroke-dasharray:2.0,2.0;" x1="5" x2="208" y1="530.6172" y2="530.6172"/><text fill="#000000" font-family="sans-serif" font-size="13" font-weight="bold" lengthAdjust="spacing" textLength="7" x="17" y="525.3545">9</text><text fill="#000000" font-family="sans-serif" font-size="13" lengthAdjust="spacing" textLength="163" x="28" y="525.3545">Response status code - 503</text><polygon fill="#181818" points="384,564.9082,394,568.9082,384,572.9082,388,568.9082" style="stroke:#181818;stroke-width:1.0;"/><line style="stroke:#181818;stroke-width:1.0;" x1="219" x2="390" y1="568.9082" y2="568.9082"/><text fill="#000000" font-family="sans-serif" font-size="13" font-weight="bold" lengthAdjust="spacing" textLength="14" x="226" y="563.6455">10</text><text fill="#000000" font-family="sans-serif" font-size="13" lengthAdjust="spacing" textLength="140" x="244" y="563.6455">find passages by floor id</text><polygon fill="#181818" points="230,596.1992,220,600.1992,230,604.1992,226,600.1992" style="stroke:#181818;stroke-width:1.0;"/><line style="stroke:#181818;stroke-width:1.0;stroke-dasharray:2.0,2.0;" x1="224" x2="400" y1="600.1992" y2="600.1992"/><text fill="#000000" font-family="sans-serif" font-size="13" font-weight="bold" lengthAdjust="spacing" textLength="14" x="236" y="594.9365">11</text><text fill="#000000" font-family="sans-serif" font-size="13" lengthAdjust="spacing" textLength="4" x="254" y="594.9365">&#160;</text><path d="M3,615.1992 L64,615.1992 L64,624.4902 L54,634.4902 L3,634.4902 L3,615.1992 " fill="#EEEEEE" style="stroke:#000000;stroke-width:1.5;"/><rect fill="none" height="98.5039" style="stroke:#000000;stroke-width:1.5;" width="271" x="3" y="615.1992"/><text fill="#000000" font-family="sans-serif" font-size="13" font-weight="bold" lengthAdjust="spacing" textLength="16" x="18" y="630.2275">alt</text><text fill="#000000" font-family="sans-serif" font-size="11" font-weight="bold" lengthAdjust="spacing" textLength="97" x="79" y="629.0693">[passages found]</text><polygon fill="#181818" points="11,653.7813,1,657.7813,11,661.7813,7,657.7813" style="stroke:#181818;stroke-width:1.0;"/><line style="stroke:#181818;stroke-width:1.0;stroke-dasharray:2.0,2.0;" x1="5" x2="208" y1="657.7813" y2="657.7813"/><text fill="#000000" font-family="sans-serif" font-size="13" font-weight="bold" lengthAdjust="spacing" textLength="14" x="17" y="652.5186">12</text><text fill="#000000" font-family="sans-serif" font-size="13" lengthAdjust="spacing" textLength="163" x="35" y="652.5186">Response status code - 200</text><line style="stroke:#000000;stroke-width:1.0;stroke-dasharray:2.0,2.0;" x1="3" x2="274" y1="666.7813" y2="666.7813"/><text fill="#000000" font-family="sans-serif" font-size="11" font-weight="bold" lengthAdjust="spacing" textLength="122" x="8" y="678.6514">[database unavailable]</text><polygon fill="#181818" points="11,701.7031,1,705.7031,11,709.7031,7,705.7031" style="stroke:#181818;stroke-width:1.0;"/><line style="stroke:#181818;stroke-width:1.0;stroke-dasharray:2.0,2.0;" x1="5" x2="208" y1="705.7031" y2="705.7031"/><text fill="#000000" font-family="sans-serif" font-size="13" font-weight="bold" lengthAdjust="spacing" textLength="14" x="17" y="700.4404">13</text><text fill="#000000" font-family="sans-serif" font-size="13" lengthAdjust="spacing" textLength="163" x="35" y="700.4404">Response status code - 503</text><polygon fill="#181818" points="384,739.9941,394,743.9941,384,747.9941,388,743.9941" style="stroke:#181818;stroke-width:1.0;"/><line style="stroke:#181818;stroke-width:1.0;" x1="219" x2="390" y1="743.9941" y2="743.9941"/><text fill="#000000" font-family="sans-serif" font-size="13" font-weight="bold" lengthAdjust="spacing" textLength="14" x="226" y="738.7314">14</text><text fill="#000000" font-family="sans-serif" font-size="13" lengthAdjust="spacing" textLength="135" x="244" y="738.7314">find elevators by floor id</text><polygon fill="#181818" points="230,771.2852,220,775.2852,230,779.2852,226,775.2852" style="stroke:#181818;stroke-width:1.0;"/><line style="stroke:#181818;stroke-width:1.0;stroke-dasharray:2.0,2.0;" x1="224" x2="400" y1="775.2852" y2="775.2852"/><text fill="#000000" font-family="sans-serif" font-size="13" font-weight="bold" lengthAdjust="spacing" textLength="14" x="236" y="770.0225">15</text><text fill="#000000" font-family="sans-serif" font-size="13" lengthAdjust="spacing" textLength="4" x="254" y="770.0225">&#160;</text><path d="M3,790.2852 L64,790.2852 L64,799.5762 L54,809.5762 L3,809.5762 L3,790.2852 " fill="#EEEEEE" style="stroke:#000000;stroke-width:1.5;"/><rect fill="none" height="98.5039" style="stroke:#000000;stroke-width:1.5;" width="271" x="3" y="790.2852"/><text fill="#000000" font-family="sans-serif" font-size="13" font-weight="bold" lengthAdjust="spacing" textLength="16" x="18" y="805.3135">alt</text><text fill="#000000" font-family="sans-serif" font-size="11" font-weight="bold" lengthAdjust="spacing" textLength="95" x="79" y="804.1553">[elevators found]</text><polygon fill="#181818" points="11,828.8672,1,832.8672,11,836.8672,7,832.8672" style="stroke:#181818;stroke-width:1.0;"/><line style="stroke:#181818;stroke-width:1.0;stroke-dasharray:2.0,2.0;" x1="5" x2="208" y1="832.8672" y2="832.8672"/><text fill="#000000" font-family="sans-serif" font-size="13" font-weight="bold" lengthAdjust="spacing" textLength="14" x="17" y="827.6045">16</text><text fill="#000000" font-family="sans-serif" font-size="13" lengthAdjust="spacing" textLength="163" x="35" y="827.6045">Response status code - 200</text><line style="stroke:#000000;stroke-width:1.0;stroke-dasharray:2.0,2.0;" x1="3" x2="274" y1="841.8672" y2="841.8672"/><text fill="#000000" font-family="sans-serif" font-size="11" font-weight="bold" lengthAdjust="spacing" textLength="122" x="8" y="853.7373">[database unavailable]</text><polygon fill="#181818" points="11,876.7891,1,880.7891,11,884.7891,7,880.7891" style="stroke:#181818;stroke-width:1.0;"/><line style="stroke:#181818;stroke-width:1.0;stroke-dasharray:2.0,2.0;" x1="5" x2="208" y1="880.7891" y2="880.7891"/><text fill="#000000" font-family="sans-serif" font-size="13" font-weight="bold" lengthAdjust="spacing" textLength="14" x="17" y="875.5264">17</text><text fill="#000000" font-family="sans-serif" font-size="13" lengthAdjust="spacing" textLength="163" x="35" y="875.5264">Response status code - 503</text><line style="stroke:#000000;stroke-width:1.0;stroke-dasharray:2.0,2.0;" x1="3" x2="457" y1="896.7891" y2="896.7891"/><text fill="#000000" font-family="sans-serif" font-size="11" font-weight="bold" lengthAdjust="spacing" textLength="110" x="8" y="908.6592">[user unauthorized]</text><polygon fill="#181818" points="11,931.7109,1,935.7109,11,939.7109,7,935.7109" style="stroke:#181818;stroke-width:1.0;"/><line style="stroke:#181818;stroke-width:1.0;stroke-dasharray:2.0,2.0;" x1="5" x2="208" y1="935.7109" y2="935.7109"/><text fill="#000000" font-family="sans-serif" font-size="13" font-weight="bold" lengthAdjust="spacing" textLength="14" x="17" y="930.4482">18</text><text fill="#000000" font-family="sans-serif" font-size="13" lengthAdjust="spacing" textLength="163" x="35" y="930.4482">Response status code - 401</text><!--SRC=[pPF1JiCm38RlVWfhzse5ncMQTgWw41871Bo0stWGBKsgnfaq4E-EsqfZS66019pg9lv__vyKKvBWKrDn1t5ZVKiTDTXIlQ47lfETO-ou5W2nelMrZO8NBeGERnnv0EqNMzkMlE2aK5csycQ25B5OuM9HXwODdhqibs18gAB8E2crAhGQ-ihYGnzaInNFyN9rZ-j-L9mEdtwWnEdpy7DbNW382QR87LAInz3P9pPwM8lTah1w06W8TIkBEQwjDwCTLZkqXurb0Q0fid4kWE5tL_sKKUY3LY5v5ICkico8USjHeojM598KiGw6CSDPFWDWf-TxxkHfIzPHvVW8W_FyJ0ty9qHT24tiYSQ4N-KQvSSodURvRp2r5AE-lXzWxHt-6HaxrYjzqTz7UxFu0xR1PTWuTJZOkIEsuMIqU0K0]--></g></svg>