<?xml version="1.0" encoding="us-ascii" standalone="no"?><svg xmlns="http://www.w3.org/2000/svg" xmlns:xlink="http://www.w3.org/1999/xlink" contentStyleType="text/css" height="878px" preserveAspectRatio="none" style="width:679px;height:878px;background:#FFFFFF;" version="1.1" viewBox="0 0 679 878" width="679px" zoomAndPan="magnify"><defs/><g><text fill="#000000" font-family="sans-serif" font-size="14" font-weight="bold" lengthAdjust="spacing" textLength="174" x="253.5" y="30.1074">List Filtered {Resources}</text><rect fill="#FFFFFF" height="614.4219" style="stroke:#181818;stroke-width:1.0;" width="10" x="64.5" y="151.8633"/><rect fill="#FFFFFF" height="576.1309" style="stroke:#181818;stroke-width:1.0;" width="10" x="334.5" y="175.1543"/><rect fill="#FFFFFF" height="381.3848" style="stroke:#181818;stroke-width:1.0;" width="10" x="549.5" y="331.6094"/><rect fill="none" height="412.6758" style="stroke:#000000;stroke-width:1.5;" width="662" x="10" y="346.6094"/><rect fill="none" height="98.5039" style="stroke:#000000;stroke-width:1.5;" width="379.5" x="20" y="404.1914"/><rect fill="none" height="187.668" style="stroke:#000000;stroke-width:1.5;" width="382.5" x="279.5" y="533.3262"/><line style="stroke:#181818;stroke-width:0.5;stroke-dasharray:5.0,5.0;" x1="69" x2="69" y1="141.8633" y2="776.2852"/><line style="stroke:#181818;stroke-width:0.5;stroke-dasharray:5.0,5.0;" x1="339.5" x2="339.5" y1="141.8633" y2="776.2852"/><line style="stroke:#181818;stroke-width:0.5;stroke-dasharray:5.0,5.0;" x1="554" x2="554" y1="141.8633" y2="776.2852"/><text fill="#000000" font-family="sans-serif" font-size="14" font-style="italic" lengthAdjust="spacing" textLength="73" x="30" y="119.7285">&#171;DEI User&#187;</text><text fill="#000000" font-family="sans-serif" font-size="14" lengthAdjust="spacing" textLength="29" x="52" y="138.3496">User</text><ellipse cx="69.5" cy="53.1211" fill="#E2E2F0" rx="8" ry="8" style="stroke:#181818;stroke-width:0.5;"/><path d="M69.5,61.1211 L69.5,88.1211 M56.5,69.1211 L82.5,69.1211 M69.5,88.1211 L56.5,103.1211 M69.5,88.1211 L82.5,103.1211 " fill="none" style="stroke:#181818;stroke-width:0.5;"/><text fill="#000000" font-family="sans-serif" font-size="14" font-style="italic" lengthAdjust="spacing" textLength="73" x="30" y="790.3926">&#171;DEI User&#187;</text><text fill="#000000" font-family="sans-serif" font-size="14" lengthAdjust="spacing" textLength="29" x="52" y="809.0137">User</text><ellipse cx="69.5" cy="821.0273" fill="#E2E2F0" rx="8" ry="8" style="stroke:#181818;stroke-width:0.5;"/><path d="M69.5,829.0273 L69.5,856.0273 M56.5,837.0273 L82.5,837.0273 M69.5,856.0273 L56.5,871.0273 M69.5,856.0273 L82.5,871.0273 " fill="none" style="stroke:#181818;stroke-width:0.5;"/><rect fill="#E2E2F0" height="51.2422" rx="2.5" ry="2.5" style="stroke:#181818;stroke-width:0.5;" width="100" x="289.5" y="89.6211"/><text fill="#000000" font-family="sans-serif" font-size="14" font-style="italic" lengthAdjust="spacing" textLength="86" x="296.5" y="111.7285">&#171;component&#187;</text><text fill="#000000" font-family="sans-serif" font-size="14" lengthAdjust="spacing" textLength="83" x="298" y="130.3496">PortalModule</text><rect fill="#E2E2F0" height="51.2422" rx="2.5" ry="2.5" style="stroke:#181818;stroke-width:0.5;" width="100" x="289.5" y="775.2852"/><text fill="#000000" font-family="sans-serif" font-size="14" font-style="italic" lengthAdjust="spacing" textLength="86" x="296.5" y="797.3926">&#171;component&#187;</text><text fill="#000000" font-family="sans-serif" font-size="14" lengthAdjust="spacing" textLength="83" x="298" y="816.0137">PortalModule</text><rect fill="#E2E2F0" height="51.2422" rx="2.5" ry="2.5" style="stroke:#181818;stroke-width:0.5;" width="179" x="465" y="89.6211"/><text fill="#000000" font-family="sans-serif" font-size="14" font-style="italic" lengthAdjust="spacing" textLength="86" x="511.5" y="111.7285">&#171;component&#187;</text><text fill="#000000" font-family="sans-serif" font-size="14" lengthAdjust="spacing" textLength="165" x="472" y="130.3496">DataAdministrationModule</text><rect fill="#E2E2F0" height="51.2422" rx="2.5" ry="2.5" style="stroke:#181818;stroke-width:0.5;" width="179" x="465" y="775.2852"/><text fill="#000000" font-family="sans-serif" font-size="14" font-style="italic" lengthAdjust="spacing" textLength="86" x="511.5" y="797.3926">&#171;component&#187;</text><text fill="#000000" font-family="sans-serif" font-size="14" lengthAdjust="spacing" textLength="165" x="472" y="816.0137">DataAdministrationModule</text><rect fill="#FFFFFF" height="614.4219" style="stroke:#181818;stroke-width:1.0;" width="10" x="64.5" y="151.8633"/><rect fill="#FFFFFF" height="576.1309" style="stroke:#181818;stroke-width:1.0;" width="10" x="334.5" y="175.1543"/><rect fill="#FFFFFF" height="381.3848" style="stroke:#181818;stroke-width:1.0;" width="10" x="549.5" y="331.6094"/><polygon fill="#181818" points="322.5,171.1543,332.5,175.1543,322.5,179.1543,326.5,175.1543" style="stroke:#181818;stroke-width:1.0;"/><line style="stroke:#181818;stroke-width:1.0;" x1="74.5" x2="328.5" y1="175.1543" y2="175.1543"/><text fill="#000000" font-family="sans-serif" font-size="13" font-weight="bold" lengthAdjust="spacing" textLength="7" x="81.5" y="169.8916">1</text><text fill="#000000" font-family="sans-serif" font-size="13" lengthAdjust="spacing" textLength="182" x="92.5" y="169.8916">Asks to list filtered {Resources}</text><polygon fill="#181818" points="85.5,202.4453,75.5,206.4453,85.5,210.4453,81.5,206.4453" style="stroke:#181818;stroke-width:1.0;"/><line style="stroke:#181818;stroke-width:1.0;stroke-dasharray:2.0,2.0;" x1="79.5" x2="333.5" y1="206.4453" y2="206.4453"/><text fill="#000000" font-family="sans-serif" font-size="13" font-weight="bold" lengthAdjust="spacing" textLength="7" x="91.5" y="201.1826">2</text><text fill="#000000" font-family="sans-serif" font-size="13" lengthAdjust="spacing" textLength="185" x="102.5" y="201.1826">Asks the user to select the filter</text><polygon fill="#181818" points="322.5,233.7363,332.5,237.7363,322.5,241.7363,326.5,237.7363" style="stroke:#181818;stroke-width:1.0;"/><line style="stroke:#181818;stroke-width:1.0;" x1="74.5" x2="328.5" y1="237.7363" y2="237.7363"/><text fill="#000000" font-family="sans-serif" font-size="13" font-weight="bold" lengthAdjust="spacing" textLength="7" x="81.5" y="232.4736">3</text><text fill="#000000" font-family="sans-serif" font-size="13" lengthAdjust="spacing" textLength="94" x="92.5" y="232.4736">Selects the filter</text><polygon fill="#181818" points="85.5,265.0273,75.5,269.0273,85.5,273.0273,81.5,269.0273" style="stroke:#181818;stroke-width:1.0;"/><line style="stroke:#181818;stroke-width:1.0;stroke-dasharray:2.0,2.0;" x1="79.5" x2="333.5" y1="269.0273" y2="269.0273"/><text fill="#000000" font-family="sans-serif" font-size="13" font-weight="bold" lengthAdjust="spacing" textLength="7" x="91.5" y="263.7646">4</text><text fill="#000000" font-family="sans-serif" font-size="13" lengthAdjust="spacing" textLength="225" x="102.5" y="263.7646">Asks the user to select the filter values</text><polygon fill="#181818" points="322.5,296.3184,332.5,300.3184,322.5,304.3184,326.5,300.3184" style="stroke:#181818;stroke-width:1.0;"/><line style="stroke:#181818;stroke-width:1.0;" x1="74.5" x2="328.5" y1="300.3184" y2="300.3184"/><text fill="#000000" font-family="sans-serif" font-size="13" font-weight="bold" lengthAdjust="spacing" textLength="7" x="81.5" y="295.0557">5</text><text fill="#000000" font-family="sans-serif" font-size="13" lengthAdjust="spacing" textLength="157" x="92.5" y="295.0557">Input/select the filter values</text><polygon fill="#181818" points="537.5,327.6094,547.5,331.6094,537.5,335.6094,541.5,331.6094" style="stroke:#181818;stroke-width:1.0;"/><line style="stroke:#181818;stroke-width:1.0;" x1="344.5" x2="543.5" y1="331.6094" y2="331.6094"/><text fill="#000000" font-family="sans-serif" font-size="13" font-weight="bold" lengthAdjust="spacing" textLength="7" x="351.5" y="326.3467">6</text><text fill="#000000" font-family="sans-serif" font-size="13" lengthAdjust="spacing" textLength="111" x="362.5" y="326.3467">GET resources/{...}</text><path d="M10,346.6094 L71,346.6094 L71,355.9004 L61,365.9004 L10,365.9004 L10,346.6094 " fill="#EEEEEE" style="stroke:#000000;stroke-width:1.5;"/><rect fill="none" height="412.6758" style="stroke:#000000;stroke-width:1.5;" width="662" x="10" y="346.6094"/><text fill="#000000" font-family="sans-serif" font-size="13" font-weight="bold" lengthAdjust="spacing" textLength="16" x="25" y="361.6377">alt</text><text fill="#000000" font-family="sans-serif" font-size="11" font-weight="bold" lengthAdjust="spacing" textLength="55" x="86" y="360.4795">[success]</text><polygon fill="#181818" points="355.5,385.1914,345.5,389.1914,355.5,393.1914,351.5,389.1914" style="stroke:#181818;stroke-width:1.0;"/><line style="stroke:#181818;stroke-width:1.0;stroke-dasharray:2.0,2.0;" x1="349.5" x2="548.5" y1="389.1914" y2="389.1914"/><text fill="#000000" font-family="sans-serif" font-size="13" font-weight="bold" lengthAdjust="spacing" textLength="7" x="361.5" y="383.9287">7</text><text fill="#000000" font-family="sans-serif" font-size="13" lengthAdjust="spacing" textLength="163" x="372.5" y="383.9287">Response status code - 200</text><path d="M20,404.1914 L81,404.1914 L81,413.4824 L71,423.4824 L20,423.4824 L20,404.1914 " fill="#EEEEEE" style="stroke:#000000;stroke-width:1.5;"/><rect fill="none" height="98.5039" style="stroke:#000000;stroke-width:1.5;" width="379.5" x="20" y="404.1914"/><text fill="#000000" font-family="sans-serif" font-size="13" font-weight="bold" lengthAdjust="spacing" textLength="16" x="35" y="419.2197">alt</text><polygon fill="#181818" points="85.5,442.7734,75.5,446.7734,85.5,450.7734,81.5,446.7734" style="stroke:#181818;stroke-width:1.0;"/><line style="stroke:#181818;stroke-width:1.0;stroke-dasharray:2.0,2.0;" x1="79.5" x2="333.5" y1="446.7734" y2="446.7734"/><text fill="#000000" font-family="sans-serif" font-size="13" font-weight="bold" lengthAdjust="spacing" textLength="7" x="91.5" y="441.5107">8</text><text fill="#000000" font-family="sans-serif" font-size="13" lengthAdjust="spacing" textLength="178" x="102.5" y="441.5107">display filtered {Resources} list</text><line style="stroke:#000000;stroke-width:1.0;stroke-dasharray:2.0,2.0;" x1="20" x2="399.5" y1="455.7734" y2="455.7734"/><text fill="#000000" font-family="sans-serif" font-size="11" font-weight="bold" lengthAdjust="spacing" textLength="133" x="25" y="467.6436">[no resources available]</text><polygon fill="#181818" points="85.5,490.6953,75.5,494.6953,85.5,498.6953,81.5,494.6953" style="stroke:#181818;stroke-width:1.0;"/><line style="stroke:#181818;stroke-width:1.0;stroke-dasharray:2.0,2.0;" x1="79.5" x2="333.5" y1="494.6953" y2="494.6953"/><text fill="#000000" font-family="sans-serif" font-size="13" font-weight="bold" lengthAdjust="spacing" textLength="7" x="91.5" y="489.4326">9</text><text fill="#000000" font-family="sans-serif" font-size="13" lengthAdjust="spacing" textLength="190" x="102.5" y="489.4326">display no {Resources} message</text><line style="stroke:#000000;stroke-width:1.0;stroke-dasharray:2.0,2.0;" x1="10" x2="672" y1="510.6953" y2="510.6953"/><text fill="#000000" font-family="sans-serif" font-size="11" font-weight="bold" lengthAdjust="spacing" textLength="83" x="15" y="522.5654">[unsuccessful]</text><path d="M279.5,533.3262 L340.5,533.3262 L340.5,542.6172 L330.5,552.6172 L279.5,552.6172 L279.5,533.3262 " fill="#EEEEEE" style="stroke:#000000;stroke-width:1.5;"/><rect fill="none" height="187.668" style="stroke:#000000;stroke-width:1.5;" width="382.5" x="279.5" y="533.3262"/><text fill="#000000" font-family="sans-serif" font-size="13" font-weight="bold" lengthAdjust="spacing" textLength="16" x="294.5" y="548.3545">alt</text><text fill="#000000" font-family="sans-serif" font-size="11" font-weight="bold" lengthAdjust="spacing" textLength="95" x="355.5" y="547.1963">[entity not found]</text><path d="M456,557.6172 L456,636.6172 L652,636.6172 L652,567.6172 L642,557.6172 L456,557.6172 " fill="#FEFFDD" style="stroke:#181818;stroke-width:0.5;"/><path d="M642,557.6172 L642,567.6172 L652,567.6172 L642,557.6172 " fill="#FEFFDD" style="stroke:#181818;stroke-width:0.5;"/><text fill="#000000" font-family="sans-serif" font-size="13" lengthAdjust="spacing" textLength="175" x="462" y="576.6455">This happens when some filter</text><text fill="#000000" font-family="sans-serif" font-size="13" lengthAdjust="spacing" textLength="129" x="466" y="593.9365">parameter is not found</text><text fill="#000000" font-family="sans-serif" font-size="13" lengthAdjust="spacing" textLength="172" x="462" y="611.2275">(e.g. a building provided in the</text><text fill="#000000" font-family="sans-serif" font-size="13" lengthAdjust="spacing" textLength="165" x="466" y="628.5186">search query does not exist)</text><polygon fill="#181818" points="355.5,661.0723,345.5,665.0723,355.5,669.0723,351.5,665.0723" style="stroke:#181818;stroke-width:1.0;"/><line style="stroke:#181818;stroke-width:1.0;stroke-dasharray:2.0,2.0;" x1="349.5" x2="548.5" y1="665.0723" y2="665.0723"/><text fill="#000000" font-family="sans-serif" font-size="13" font-weight="bold" lengthAdjust="spacing" textLength="14" x="361.5" y="659.8096">10</text><text fill="#000000" font-family="sans-serif" font-size="13" lengthAdjust="spacing" textLength="163" x="379.5" y="659.8096">Response status code - 404</text><line style="stroke:#000000;stroke-width:1.0;stroke-dasharray:2.0,2.0;" x1="279.5" x2="662" y1="674.0723" y2="674.0723"/><text fill="#000000" font-family="sans-serif" font-size="11" font-weight="bold" lengthAdjust="spacing" textLength="122" x="284.5" y="685.9424">[database unavailable]</text><polygon fill="#181818" points="355.5,708.9941,345.5,712.9941,355.5,716.9941,351.5,712.9941" style="stroke:#181818;stroke-width:1.0;"/><line style="stroke:#181818;stroke-width:1.0;stroke-dasharray:2.0,2.0;" x1="349.5" x2="553.5" y1="712.9941" y2="712.9941"/><text fill="#000000" font-family="sans-serif" font-size="13" font-weight="bold" lengthAdjust="spacing" textLength="14" x="361.5" y="707.7314">11</text><text fill="#000000" font-family="sans-serif" font-size="13" lengthAdjust="spacing" textLength="163" x="379.5" y="707.7314">Response status code - 503</text><polygon fill="#181818" points="85.5,747.2852,75.5,751.2852,85.5,755.2852,81.5,751.2852" style="stroke:#181818;stroke-width:1.0;"/><line style="stroke:#181818;stroke-width:1.0;stroke-dasharray:2.0,2.0;" x1="79.5" x2="338.5" y1="751.2852" y2="751.2852"/><text fill="#000000" font-family="sans-serif" font-size="13" font-weight="bold" lengthAdjust="spacing" textLength="14" x="91.5" y="746.0225">12</text><text fill="#000000" font-family="sans-serif" font-size="13" lengthAdjust="spacing" textLength="128" x="109.5" y="746.0225">display error message</text><!--SRC=[bLF1Rjim3BthAuYSjaFIOEikHH0WGDgYm0eKRVq1ZCKcGcJ94wbiGR5_7sLtYvEsG7UJnVUU-1vfp193RbQK36zTQ35X0otMMrpJW-mzGQ9QZ14dUlxkME3AUQ545fxlYMDEDV5lOx2Mc61KCQKH84C5izdoyWRAnNnkL5XSxLeC0gExc0JzRRJPKmU-lxjLU1sRDWOASefVek32DYxeymd5nJ3WBXUdtDABsw4GLCPKC9uN_Gk01MyP988lBfxUSz4pbL6ui_6u9_VS3K5MFqM4oMimtLKlTVJKGrVba_9_gC4EVIO-4hq9RPQpzw4bHGLh81TmVVceatinTlOycKo6xXHYq0jmhhNC7RCqrr4r3usI2LXGCaCTBS4Olaodff26FgpZrkF-pJ2xc0rv5Ghnq0lW3ft7bQUtX1Gvb6YqELr4Gy6QNYg7bvwVik_Q0PsvayBKcSQiG3qHn9q6Ksm-RXp31jkM0iFF3GNWsFmR2dGBJoL5XHqqFj5aFG64LNRUkh26DiMTi-hGXHAzqObXgZVm8rFQWutKi-cNclvS-YsVP0ny9DhpwNdlpkgYhx2pUOZfGnBVfb-DfQC1bz2WUXKnfQG_wjzapP1Lbhwm1bUL-GC0]--></g></svg>