<?xml version="1.0" encoding="us-ascii" standalone="no"?><svg xmlns="http://www.w3.org/2000/svg" xmlns:xlink="http://www.w3.org/1999/xlink" contentStyleType="text/css" height="532px" preserveAspectRatio="none" style="width:406px;height:532px;background:#FFFFFF;" version="1.1" viewBox="0 0 406 532" width="406px" zoomAndPan="magnify"><defs/><g><text fill="#000000" font-family="sans-serif" font-size="14" font-weight="bold" lengthAdjust="spacing" textLength="174" x="117.25" y="30.1074">List Filtered {Resources}</text><rect fill="#FFFFFF" height="268.959" style="stroke:#181818;stroke-width:1.0;" width="10" x="54.5" y="151.8633"/><rect fill="#FFFFFF" height="230.668" style="stroke:#181818;stroke-width:1.0;" width="10" x="331.5" y="175.1543"/><rect fill="none" height="98.5039" style="stroke:#000000;stroke-width:1.5;" width="389.5" x="10" y="315.3184"/><line style="stroke:#181818;stroke-width:0.5;stroke-dasharray:5.0,5.0;" x1="59" x2="59" y1="141.8633" y2="430.8223"/><line style="stroke:#181818;stroke-width:0.5;stroke-dasharray:5.0,5.0;" x1="336.5" x2="336.5" y1="141.8633" y2="430.8223"/><text fill="#000000" font-family="sans-serif" font-size="14" font-style="italic" lengthAdjust="spacing" textLength="73" x="20" y="119.7285">&#171;DEI User&#187;</text><text fill="#000000" font-family="sans-serif" font-size="14" lengthAdjust="spacing" textLength="29" x="42" y="138.3496">User</text><ellipse cx="59.5" cy="53.1211" fill="#E2E2F0" rx="8" ry="8" style="stroke:#181818;stroke-width:0.5;"/><path d="M59.5,61.1211 L59.5,88.1211 M46.5,69.1211 L72.5,69.1211 M59.5,88.1211 L46.5,103.1211 M59.5,88.1211 L72.5,103.1211 " fill="none" style="stroke:#181818;stroke-width:0.5;"/><text fill="#000000" font-family="sans-serif" font-size="14" font-style="italic" lengthAdjust="spacing" textLength="73" x="20" y="444.9297">&#171;DEI User&#187;</text><text fill="#000000" font-family="sans-serif" font-size="14" lengthAdjust="spacing" textLength="29" x="42" y="463.5508">User</text><ellipse cx="59.5" cy="475.5645" fill="#E2E2F0" rx="8" ry="8" style="stroke:#181818;stroke-width:0.5;"/><path d="M59.5,483.5645 L59.5,510.5645 M46.5,491.5645 L72.5,491.5645 M59.5,510.5645 L46.5,525.5645 M59.5,510.5645 L72.5,525.5645 " fill="none" style="stroke:#181818;stroke-width:0.5;"/><rect fill="#E2E2F0" height="51.2422" rx="2.5" ry="2.5" style="stroke:#181818;stroke-width:0.5;" width="106" x="283.5" y="89.6211"/><text fill="#000000" font-family="sans-serif" font-size="14" font-style="italic" lengthAdjust="spacing" textLength="92" x="290.5" y="111.7285">&#171;system (C4)&#187;</text><text fill="#000000" font-family="sans-serif" font-size="14" lengthAdjust="spacing" textLength="84" x="294.5" y="130.3496">RobDroneGo</text><rect fill="#E2E2F0" height="51.2422" rx="2.5" ry="2.5" style="stroke:#181818;stroke-width:0.5;" width="106" x="283.5" y="429.8223"/><text fill="#000000" font-family="sans-serif" font-size="14" font-style="italic" lengthAdjust="spacing" textLength="92" x="290.5" y="451.9297">&#171;system (C4)&#187;</text><text fill="#000000" font-family="sans-serif" font-size="14" lengthAdjust="spacing" textLength="84" x="294.5" y="470.5508">RobDroneGo</text><rect fill="#FFFFFF" height="268.959" style="stroke:#181818;stroke-width:1.0;" width="10" x="54.5" y="151.8633"/><rect fill="#FFFFFF" height="230.668" style="stroke:#181818;stroke-width:1.0;" width="10" x="331.5" y="175.1543"/><polygon fill="#181818" points="319.5,171.1543,329.5,175.1543,319.5,179.1543,323.5,175.1543" style="stroke:#181818;stroke-width:1.0;"/><line style="stroke:#181818;stroke-width:1.0;" x1="64.5" x2="325.5" y1="175.1543" y2="175.1543"/><text fill="#000000" font-family="sans-serif" font-size="13" font-weight="bold" lengthAdjust="spacing" textLength="7" x="71.5" y="169.8916">1</text><text fill="#000000" font-family="sans-serif" font-size="13" lengthAdjust="spacing" textLength="182" x="82.5" y="169.8916">Asks to list filtered {Resources}</text><polygon fill="#181818" points="75.5,202.4453,65.5,206.4453,75.5,210.4453,71.5,206.4453" style="stroke:#181818;stroke-width:1.0;"/><line style="stroke:#181818;stroke-width:1.0;stroke-dasharray:2.0,2.0;" x1="69.5" x2="330.5" y1="206.4453" y2="206.4453"/><text fill="#000000" font-family="sans-serif" font-size="13" font-weight="bold" lengthAdjust="spacing" textLength="7" x="81.5" y="201.1826">2</text><text fill="#000000" font-family="sans-serif" font-size="13" lengthAdjust="spacing" textLength="185" x="92.5" y="201.1826">Asks the user to select the filter</text><polygon fill="#181818" points="319.5,233.7363,329.5,237.7363,319.5,241.7363,323.5,237.7363" style="stroke:#181818;stroke-width:1.0;"/><line style="stroke:#181818;stroke-width:1.0;" x1="64.5" x2="325.5" y1="237.7363" y2="237.7363"/><text fill="#000000" font-family="sans-serif" font-size="13" font-weight="bold" lengthAdjust="spacing" textLength="7" x="71.5" y="232.4736">3</text><text fill="#000000" font-family="sans-serif" font-size="13" lengthAdjust="spacing" textLength="94" x="82.5" y="232.4736">Selects the filter</text><polygon fill="#181818" points="75.5,265.0273,65.5,269.0273,75.5,273.0273,71.5,269.0273" style="stroke:#181818;stroke-width:1.0;"/><line style="stroke:#181818;stroke-width:1.0;stroke-dasharray:2.0,2.0;" x1="69.5" x2="330.5" y1="269.0273" y2="269.0273"/><text fill="#000000" font-family="sans-serif" font-size="13" font-weight="bold" lengthAdjust="spacing" textLength="7" x="81.5" y="263.7646">4</text><text fill="#000000" font-family="sans-serif" font-size="13" lengthAdjust="spacing" textLength="225" x="92.5" y="263.7646">Asks the user to select the filter values</text><polygon fill="#181818" points="319.5,296.3184,329.5,300.3184,319.5,304.3184,323.5,300.3184" style="stroke:#181818;stroke-width:1.0;"/><line style="stroke:#181818;stroke-width:1.0;" x1="64.5" x2="325.5" y1="300.3184" y2="300.3184"/><text fill="#000000" font-family="sans-serif" font-size="13" font-weight="bold" lengthAdjust="spacing" textLength="7" x="71.5" y="295.0557">5</text><text fill="#000000" font-family="sans-serif" font-size="13" lengthAdjust="spacing" textLength="157" x="82.5" y="295.0557">Input/select the filter values</text><path d="M10,315.3184 L71,315.3184 L71,324.6094 L61,334.6094 L10,334.6094 L10,315.3184 " fill="#EEEEEE" style="stroke:#000000;stroke-width:1.5;"/><rect fill="none" height="98.5039" style="stroke:#000000;stroke-width:1.5;" width="389.5" x="10" y="315.3184"/><text fill="#000000" font-family="sans-serif" font-size="13" font-weight="bold" lengthAdjust="spacing" textLength="16" x="25" y="330.3467">alt</text><polygon fill="#181818" points="75.5,353.9004,65.5,357.9004,75.5,361.9004,71.5,357.9004" style="stroke:#181818;stroke-width:1.0;"/><line style="stroke:#181818;stroke-width:1.0;stroke-dasharray:2.0,2.0;" x1="69.5" x2="330.5" y1="357.9004" y2="357.9004"/><text fill="#000000" font-family="sans-serif" font-size="13" font-weight="bold" lengthAdjust="spacing" textLength="7" x="81.5" y="352.6377">6</text><text fill="#000000" font-family="sans-serif" font-size="13" lengthAdjust="spacing" textLength="178" x="92.5" y="352.6377">display filtered {Resources} list</text><line style="stroke:#000000;stroke-width:1.0;stroke-dasharray:2.0,2.0;" x1="10" x2="399.5" y1="366.9004" y2="366.9004"/><text fill="#000000" font-family="sans-serif" font-size="11" font-weight="bold" lengthAdjust="spacing" textLength="133" x="15" y="378.7705">[no resources available]</text><polygon fill="#181818" points="75.5,401.8223,65.5,405.8223,75.5,409.8223,71.5,405.8223" style="stroke:#181818;stroke-width:1.0;"/><line style="stroke:#181818;stroke-width:1.0;stroke-dasharray:2.0,2.0;" x1="69.5" x2="335.5" y1="405.8223" y2="405.8223"/><text fill="#000000" font-family="sans-serif" font-size="13" font-weight="bold" lengthAdjust="spacing" textLength="7" x="81.5" y="400.5596">7</text><text fill="#000000" font-family="sans-serif" font-size="13" lengthAdjust="spacing" textLength="232" x="92.5" y="400.5596">display no filtered {Resources} message</text><!--SRC=[bP7FIiGm4CRlUOfXJteeNZn9AOXrbmLFNVe0qtRKq3GfcKcXYEzkqdhOIlVWBNpvlj_ymo3EXg4XhxZNTaIF0upOzlX15vaDWQTMb18jyVscMU2eZP2d3hugOXTyI_oj5BRYF1ng9dy0PAWXpylNCoIXA5G4YsxrY5RWKBcczCxIoItMgZn5CyyiDC3To-Dzz2UUdb08QgLgo8haUW9uvfv179ZKoVkjJjPaJAHidcLhUCr-4eJOKu8mcJZS8gseJQdByij_llz1WmbD8Dv0ptOCyd3Rgj38TPLEysXmtXrrMO8YmmJMnJlzwe0JQeEDeJrGTEwo1cAEDrSTRVP7jbFNMhp63m00]--></g></svg>