<?xml version="1.0" encoding="us-ascii" standalone="no"?><svg xmlns="http://www.w3.org/2000/svg" xmlns:xlink="http://www.w3.org/1999/xlink" contentStyleType="text/css" height="1777px" preserveAspectRatio="none" style="width:1161px;height:1777px;background:#FFFFFF;" version="1.1" viewBox="0 0 1161 1777" width="1161px" zoomAndPan="magnify"><defs/><g><text fill="#000000" font-family="sans-serif" font-size="14" font-weight="bold" lengthAdjust="spacing" textLength="90" x="536.5" y="30.1074">Edit Passage</text><rect fill="#FFFFFF" height="1490.9004" style="stroke:#181818;stroke-width:1.0;" width="10" x="786" y="178.4453"/><rect fill="#FFFFFF" height="31.291" style="stroke:#181818;stroke-width:1.0;" width="10" x="1093" y="236.0273"/><rect fill="#FFFFFF" height="31.291" style="stroke:#181818;stroke-width:1.0;" width="10" x="1093" y="411.1133"/><rect fill="#FFFFFF" height="31.291" style="stroke:#181818;stroke-width:1.0;" width="10" x="1093" y="586.1992"/><rect fill="#FFFFFF" height="31.291" style="stroke:#181818;stroke-width:1.0;" width="10" x="1093" y="761.2852"/><rect fill="#FFFFFF" height="31.291" style="stroke:#181818;stroke-width:1.0;" width="10" x="1093" y="936.3711"/><rect fill="#FFFFFF" height="31.291" style="stroke:#181818;stroke-width:1.0;" width="10" x="1093" y="1111.457"/><rect fill="#FFFFFF" height="31.291" style="stroke:#181818;stroke-width:1.0;" width="10" x="1093" y="1286.543"/><rect fill="#FFFFFF" height="31.291" style="stroke:#181818;stroke-width:1.0;" width="10" x="1093" y="1461.6289"/><rect fill="none" height="1467.9004" style="stroke:#000000;stroke-width:1.5;" width="1151" x="3" y="193.4453"/><rect fill="none" height="98.5039" style="stroke:#000000;stroke-width:1.5;" width="848" x="3" y="282.3184"/><rect fill="none" height="98.5039" style="stroke:#000000;stroke-width:1.5;" width="848" x="3" y="457.4043"/><rect fill="none" height="98.5039" style="stroke:#000000;stroke-width:1.5;" width="848" x="3" y="632.4902"/><rect fill="none" height="98.5039" style="stroke:#000000;stroke-width:1.5;" width="848" x="3" y="807.5762"/><rect fill="none" height="98.5039" style="stroke:#000000;stroke-width:1.5;" width="848" x="3" y="982.6621"/><rect fill="none" height="98.5039" style="stroke:#000000;stroke-width:1.5;" width="848" x="3" y="1157.748"/><rect fill="none" height="98.5039" style="stroke:#000000;stroke-width:1.5;" width="848" x="3" y="1332.834"/><rect fill="none" height="98.5039" style="stroke:#000000;stroke-width:1.5;" width="848" x="3" y="1507.9199"/><line style="stroke:#181818;stroke-width:0.5;stroke-dasharray:5.0,5.0;" x1="791" x2="791" y1="127.8633" y2="1678.3457"/><line style="stroke:#181818;stroke-width:0.5;stroke-dasharray:5.0,5.0;" x1="1098" x2="1098" y1="127.8633" y2="1678.3457"/><rect fill="#E2E2F0" height="51.2422" rx="2.5" ry="2.5" style="stroke:#181818;stroke-width:0.5;" width="100" x="741" y="75.6211"/><text fill="#000000" font-family="sans-serif" font-size="14" font-style="italic" lengthAdjust="spacing" textLength="86" x="748" y="97.7285">&#171;component&#187;</text><text fill="#000000" font-family="sans-serif" font-size="14" lengthAdjust="spacing" textLength="61" x="760.5" y="116.3496">Back-End</text><rect fill="#E2E2F0" height="51.2422" rx="2.5" ry="2.5" style="stroke:#181818;stroke-width:0.5;" width="100" x="741" y="1677.3457"/><text fill="#000000" font-family="sans-serif" font-size="14" font-style="italic" lengthAdjust="spacing" textLength="86" x="748" y="1699.4531">&#171;component&#187;</text><text fill="#000000" font-family="sans-serif" font-size="14" lengthAdjust="spacing" textLength="61" x="760.5" y="1718.0742">Back-End</text><text fill="#000000" font-family="sans-serif" font-size="14" font-style="italic" lengthAdjust="spacing" textLength="86" x="1052" y="105.7285">&#171;component&#187;</text><text fill="#000000" font-family="sans-serif" font-size="14" lengthAdjust="spacing" textLength="62" x="1064" y="124.3496">DataBase</text><path d="M1080,54.6211 C1080,44.6211 1098,44.6211 1098,44.6211 C1098,44.6211 1116,44.6211 1116,54.6211 L1116,80.6211 C1116,90.6211 1098,90.6211 1098,90.6211 C1098,90.6211 1080,90.6211 1080,80.6211 L1080,54.6211 " fill="#E2E2F0" style="stroke:#181818;stroke-width:1.5;"/><path d="M1080,54.6211 C1080,64.6211 1098,64.6211 1098,64.6211 C1098,64.6211 1116,64.6211 1116,54.6211 " fill="none" style="stroke:#181818;stroke-width:1.5;"/><text fill="#000000" font-family="sans-serif" font-size="14" font-style="italic" lengthAdjust="spacing" textLength="86" x="1052" y="1692.4531">&#171;component&#187;</text><text fill="#000000" font-family="sans-serif" font-size="14" lengthAdjust="spacing" textLength="62" x="1064" y="1711.0742">DataBase</text><path d="M1080,1724.5879 C1080,1714.5879 1098,1714.5879 1098,1714.5879 C1098,1714.5879 1116,1714.5879 1116,1724.5879 L1116,1750.5879 C1116,1760.5879 1098,1760.5879 1098,1760.5879 C1098,1760.5879 1080,1760.5879 1080,1750.5879 L1080,1724.5879 " fill="#E2E2F0" style="stroke:#181818;stroke-width:1.5;"/><path d="M1080,1724.5879 C1080,1734.5879 1098,1734.5879 1098,1734.5879 C1098,1734.5879 1116,1734.5879 1116,1724.5879 " fill="none" style="stroke:#181818;stroke-width:1.5;"/><rect fill="#FFFFFF" height="1490.9004" style="stroke:#181818;stroke-width:1.0;" width="10" x="786" y="178.4453"/><rect fill="#FFFFFF" height="31.291" style="stroke:#181818;stroke-width:1.0;" width="10" x="1093" y="236.0273"/><rect fill="#FFFFFF" height="31.291" style="stroke:#181818;stroke-width:1.0;" width="10" x="1093" y="411.1133"/><rect fill="#FFFFFF" height="31.291" style="stroke:#181818;stroke-width:1.0;" width="10" x="1093" y="586.1992"/><rect fill="#FFFFFF" height="31.291" style="stroke:#181818;stroke-width:1.0;" width="10" x="1093" y="761.2852"/><rect fill="#FFFFFF" height="31.291" style="stroke:#181818;stroke-width:1.0;" width="10" x="1093" y="936.3711"/><rect fill="#FFFFFF" height="31.291" style="stroke:#181818;stroke-width:1.0;" width="10" x="1093" y="1111.457"/><rect fill="#FFFFFF" height="31.291" style="stroke:#181818;stroke-width:1.0;" width="10" x="1093" y="1286.543"/><rect fill="#FFFFFF" height="31.291" style="stroke:#181818;stroke-width:1.0;" width="10" x="1093" y="1461.6289"/><polygon fill="#181818" points="774,174.4453,784,178.4453,774,182.4453,778,178.4453" style="stroke:#181818;stroke-width:1.0;"/><line style="stroke:#181818;stroke-width:1.0;" x1="0" x2="780" y1="178.4453" y2="178.4453"/><text fill="#000000" font-family="sans-serif" font-size="13" font-weight="bold" lengthAdjust="spacing" textLength="7" x="7" y="164.5371">1</text><text fill="#000000" font-family="sans-serif" font-size="13" lengthAdjust="spacing" textLength="745" x="18" y="155.8916">PATCH passages/{passageId}/{passageStartPoint?: {floorId?: floorId, firstCoordinates?: {x: x, y: y}, lastCoordinates?: {x: x, y: y}},</text><text fill="#000000" font-family="sans-serif" font-size="13" lengthAdjust="spacing" textLength="558" x="22" y="173.1826">passageEndPoint?: {floorId?: floorId, firstCoordinates?: {x: x, y: y}, lastCoordinates?: {x: x, y: y}}}</text><path d="M3,193.4453 L64,193.4453 L64,202.7363 L54,212.7363 L3,212.7363 L3,193.4453 " fill="#EEEEEE" style="stroke:#000000;stroke-width:1.5;"/><rect fill="none" height="1467.9004" style="stroke:#000000;stroke-width:1.5;" width="1151" x="3" y="193.4453"/><text fill="#000000" font-family="sans-serif" font-size="13" font-weight="bold" lengthAdjust="spacing" textLength="16" x="18" y="208.4736">alt</text><text fill="#000000" font-family="sans-serif" font-size="11" font-weight="bold" lengthAdjust="spacing" textLength="96" x="79" y="207.3154">[user authorized]</text><polygon fill="#181818" points="1081,232.0273,1091,236.0273,1081,240.0273,1085,236.0273" style="stroke:#181818;stroke-width:1.0;"/><line style="stroke:#181818;stroke-width:1.0;" x1="796" x2="1087" y1="236.0273" y2="236.0273"/><text fill="#000000" font-family="sans-serif" font-size="13" font-weight="bold" lengthAdjust="spacing" textLength="7" x="803" y="230.7646">2</text><text fill="#000000" font-family="sans-serif" font-size="13" lengthAdjust="spacing" textLength="105" x="814" y="230.7646">find by passage id</text><polygon fill="#181818" points="807,263.3184,797,267.3184,807,271.3184,803,267.3184" style="stroke:#181818;stroke-width:1.0;"/><line style="stroke:#181818;stroke-width:1.0;stroke-dasharray:2.0,2.0;" x1="801" x2="1097" y1="267.3184" y2="267.3184"/><text fill="#000000" font-family="sans-serif" font-size="13" font-weight="bold" lengthAdjust="spacing" textLength="7" x="813" y="262.0557">3</text><text fill="#000000" font-family="sans-serif" font-size="13" lengthAdjust="spacing" textLength="4" x="824" y="262.0557">&#160;</text><path d="M3,282.3184 L64,282.3184 L64,291.6094 L54,301.6094 L3,301.6094 L3,282.3184 " fill="#EEEEEE" style="stroke:#000000;stroke-width:1.5;"/><rect fill="none" height="98.5039" style="stroke:#000000;stroke-width:1.5;" width="848" x="3" y="282.3184"/><text fill="#000000" font-family="sans-serif" font-size="13" font-weight="bold" lengthAdjust="spacing" textLength="16" x="18" y="297.3467">alt</text><text fill="#000000" font-family="sans-serif" font-size="11" font-weight="bold" lengthAdjust="spacing" textLength="111" x="79" y="296.1885">[passage not found]</text><polygon fill="#181818" points="11,320.9004,1,324.9004,11,328.9004,7,324.9004" style="stroke:#181818;stroke-width:1.0;"/><line style="stroke:#181818;stroke-width:1.0;stroke-dasharray:2.0,2.0;" x1="5" x2="785" y1="324.9004" y2="324.9004"/><text fill="#000000" font-family="sans-serif" font-size="13" font-weight="bold" lengthAdjust="spacing" textLength="7" x="17" y="319.6377">4</text><text fill="#000000" font-family="sans-serif" font-size="13" lengthAdjust="spacing" textLength="163" x="28" y="319.6377">Response status code - 404</text><line style="stroke:#000000;stroke-width:1.0;stroke-dasharray:2.0,2.0;" x1="3" x2="851" y1="333.9004" y2="333.9004"/><text fill="#000000" font-family="sans-serif" font-size="11" font-weight="bold" lengthAdjust="spacing" textLength="122" x="8" y="345.7705">[database unavailable]</text><polygon fill="#181818" points="11,368.8223,1,372.8223,11,376.8223,7,372.8223" style="stroke:#181818;stroke-width:1.0;"/><line style="stroke:#181818;stroke-width:1.0;stroke-dasharray:2.0,2.0;" x1="5" x2="785" y1="372.8223" y2="372.8223"/><text fill="#000000" font-family="sans-serif" font-size="13" font-weight="bold" lengthAdjust="spacing" textLength="7" x="17" y="367.5596">5</text><text fill="#000000" font-family="sans-serif" font-size="13" lengthAdjust="spacing" textLength="163" x="28" y="367.5596">Response status code - 503</text><polygon fill="#181818" points="1081,407.1133,1091,411.1133,1081,415.1133,1085,411.1133" style="stroke:#181818;stroke-width:1.0;"/><line style="stroke:#181818;stroke-width:1.0;" x1="796" x2="1087" y1="411.1133" y2="411.1133"/><text fill="#000000" font-family="sans-serif" font-size="13" font-weight="bold" lengthAdjust="spacing" textLength="7" x="803" y="405.8506">6</text><text fill="#000000" font-family="sans-serif" font-size="13" lengthAdjust="spacing" textLength="80" x="814" y="405.8506">find by floor id</text><polygon fill="#181818" points="807,438.4043,797,442.4043,807,446.4043,803,442.4043" style="stroke:#181818;stroke-width:1.0;"/><line style="stroke:#181818;stroke-width:1.0;stroke-dasharray:2.0,2.0;" x1="801" x2="1097" y1="442.4043" y2="442.4043"/><text fill="#000000" font-family="sans-serif" font-size="13" font-weight="bold" lengthAdjust="spacing" textLength="7" x="813" y="437.1416">7</text><text fill="#000000" font-family="sans-serif" font-size="13" lengthAdjust="spacing" textLength="4" x="824" y="437.1416">&#160;</text><path d="M3,457.4043 L64,457.4043 L64,466.6953 L54,476.6953 L3,476.6953 L3,457.4043 " fill="#EEEEEE" style="stroke:#000000;stroke-width:1.5;"/><rect fill="none" height="98.5039" style="stroke:#000000;stroke-width:1.5;" width="848" x="3" y="457.4043"/><text fill="#000000" font-family="sans-serif" font-size="13" font-weight="bold" lengthAdjust="spacing" textLength="16" x="18" y="472.4326">alt</text><text fill="#000000" font-family="sans-serif" font-size="11" font-weight="bold" lengthAdjust="spacing" textLength="90" x="79" y="471.2744">[floor not found]</text><polygon fill="#181818" points="11,495.9863,1,499.9863,11,503.9863,7,499.9863" style="stroke:#181818;stroke-width:1.0;"/><line style="stroke:#181818;stroke-width:1.0;stroke-dasharray:2.0,2.0;" x1="5" x2="785" y1="499.9863" y2="499.9863"/><text fill="#000000" font-family="sans-serif" font-size="13" font-weight="bold" lengthAdjust="spacing" textLength="7" x="17" y="494.7236">8</text><text fill="#000000" font-family="sans-serif" font-size="13" lengthAdjust="spacing" textLength="163" x="28" y="494.7236">Response status code - 404</text><line style="stroke:#000000;stroke-width:1.0;stroke-dasharray:2.0,2.0;" x1="3" x2="851" y1="508.9863" y2="508.9863"/><text fill="#000000" font-family="sans-serif" font-size="11" font-weight="bold" lengthAdjust="spacing" textLength="122" x="8" y="520.8564">[database unavailable]</text><polygon fill="#181818" points="11,543.9082,1,547.9082,11,551.9082,7,547.9082" style="stroke:#181818;stroke-width:1.0;"/><line style="stroke:#181818;stroke-width:1.0;stroke-dasharray:2.0,2.0;" x1="5" x2="785" y1="547.9082" y2="547.9082"/><text fill="#000000" font-family="sans-serif" font-size="13" font-weight="bold" lengthAdjust="spacing" textLength="7" x="17" y="542.6455">9</text><text fill="#000000" font-family="sans-serif" font-size="13" lengthAdjust="spacing" textLength="163" x="28" y="542.6455">Response status code - 503</text><polygon fill="#181818" points="1081,582.1992,1091,586.1992,1081,590.1992,1085,586.1992" style="stroke:#181818;stroke-width:1.0;"/><line style="stroke:#181818;stroke-width:1.0;" x1="796" x2="1087" y1="586.1992" y2="586.1992"/><text fill="#000000" font-family="sans-serif" font-size="13" font-weight="bold" lengthAdjust="spacing" textLength="14" x="803" y="580.9365">10</text><text fill="#000000" font-family="sans-serif" font-size="13" lengthAdjust="spacing" textLength="260" x="821" y="580.9365">is there a passage between floor and building</text><polygon fill="#181818" points="807,613.4902,797,617.4902,807,621.4902,803,617.4902" style="stroke:#181818;stroke-width:1.0;"/><line style="stroke:#181818;stroke-width:1.0;stroke-dasharray:2.0,2.0;" x1="801" x2="1097" y1="617.4902" y2="617.4902"/><text fill="#000000" font-family="sans-serif" font-size="13" font-weight="bold" lengthAdjust="spacing" textLength="14" x="813" y="612.2275">11</text><text fill="#000000" font-family="sans-serif" font-size="13" lengthAdjust="spacing" textLength="4" x="831" y="612.2275">&#160;</text><path d="M3,632.4902 L64,632.4902 L64,641.7813 L54,651.7813 L3,651.7813 L3,632.4902 " fill="#EEEEEE" style="stroke:#000000;stroke-width:1.5;"/><rect fill="none" height="98.5039" style="stroke:#000000;stroke-width:1.5;" width="848" x="3" y="632.4902"/><text fill="#000000" font-family="sans-serif" font-size="13" font-weight="bold" lengthAdjust="spacing" textLength="16" x="18" y="647.5186">alt</text><text fill="#000000" font-family="sans-serif" font-size="11" font-weight="bold" lengthAdjust="spacing" textLength="135" x="79" y="646.3604">[passage already exists]</text><polygon fill="#181818" points="11,671.0723,1,675.0723,11,679.0723,7,675.0723" style="stroke:#181818;stroke-width:1.0;"/><line style="stroke:#181818;stroke-width:1.0;stroke-dasharray:2.0,2.0;" x1="5" x2="785" y1="675.0723" y2="675.0723"/><text fill="#000000" font-family="sans-serif" font-size="13" font-weight="bold" lengthAdjust="spacing" textLength="14" x="17" y="669.8096">12</text><text fill="#000000" font-family="sans-serif" font-size="13" lengthAdjust="spacing" textLength="163" x="35" y="669.8096">Response status code - 409</text><line style="stroke:#000000;stroke-width:1.0;stroke-dasharray:2.0,2.0;" x1="3" x2="851" y1="684.0723" y2="684.0723"/><text fill="#000000" font-family="sans-serif" font-size="11" font-weight="bold" lengthAdjust="spacing" textLength="122" x="8" y="695.9424">[database unavailable]</text><polygon fill="#181818" points="11,718.9941,1,722.9941,11,726.9941,7,722.9941" style="stroke:#181818;stroke-width:1.0;"/><line style="stroke:#181818;stroke-width:1.0;stroke-dasharray:2.0,2.0;" x1="5" x2="785" y1="722.9941" y2="722.9941"/><text fill="#000000" font-family="sans-serif" font-size="13" font-weight="bold" lengthAdjust="spacing" textLength="14" x="17" y="717.7314">13</text><text fill="#000000" font-family="sans-serif" font-size="13" lengthAdjust="spacing" textLength="163" x="35" y="717.7314">Response status code - 503</text><polygon fill="#181818" points="1081,757.2852,1091,761.2852,1081,765.2852,1085,761.2852" style="stroke:#181818;stroke-width:1.0;"/><line style="stroke:#181818;stroke-width:1.0;" x1="796" x2="1087" y1="761.2852" y2="761.2852"/><text fill="#000000" font-family="sans-serif" font-size="13" font-weight="bold" lengthAdjust="spacing" textLength="14" x="803" y="756.0225">14</text><text fill="#000000" font-family="sans-serif" font-size="13" lengthAdjust="spacing" textLength="73" x="821" y="756.0225">find by floors</text><polygon fill="#181818" points="807,788.5762,797,792.5762,807,796.5762,803,792.5762" style="stroke:#181818;stroke-width:1.0;"/><line style="stroke:#181818;stroke-width:1.0;stroke-dasharray:2.0,2.0;" x1="801" x2="1097" y1="792.5762" y2="792.5762"/><text fill="#000000" font-family="sans-serif" font-size="13" font-weight="bold" lengthAdjust="spacing" textLength="14" x="813" y="787.3135">15</text><text fill="#000000" font-family="sans-serif" font-size="13" lengthAdjust="spacing" textLength="4" x="831" y="787.3135">&#160;</text><path d="M3,807.5762 L64,807.5762 L64,816.8672 L54,826.8672 L3,826.8672 L3,807.5762 " fill="#EEEEEE" style="stroke:#000000;stroke-width:1.5;"/><rect fill="none" height="98.5039" style="stroke:#000000;stroke-width:1.5;" width="848" x="3" y="807.5762"/><text fill="#000000" font-family="sans-serif" font-size="13" font-weight="bold" lengthAdjust="spacing" textLength="16" x="18" y="822.6045">alt</text><text fill="#000000" font-family="sans-serif" font-size="11" font-weight="bold" lengthAdjust="spacing" textLength="135" x="79" y="821.4463">[passage already exists]</text><polygon fill="#181818" points="11,846.1582,1,850.1582,11,854.1582,7,850.1582" style="stroke:#181818;stroke-width:1.0;"/><line style="stroke:#181818;stroke-width:1.0;stroke-dasharray:2.0,2.0;" x1="5" x2="785" y1="850.1582" y2="850.1582"/><text fill="#000000" font-family="sans-serif" font-size="13" font-weight="bold" lengthAdjust="spacing" textLength="14" x="17" y="844.8955">16</text><text fill="#000000" font-family="sans-serif" font-size="13" lengthAdjust="spacing" textLength="163" x="35" y="844.8955">Response status code - 409</text><line style="stroke:#000000;stroke-width:1.0;stroke-dasharray:2.0,2.0;" x1="3" x2="851" y1="859.1582" y2="859.1582"/><text fill="#000000" font-family="sans-serif" font-size="11" font-weight="bold" lengthAdjust="spacing" textLength="122" x="8" y="871.0283">[database unavailable]</text><polygon fill="#181818" points="11,894.0801,1,898.0801,11,902.0801,7,898.0801" style="stroke:#181818;stroke-width:1.0;"/><line style="stroke:#181818;stroke-width:1.0;stroke-dasharray:2.0,2.0;" x1="5" x2="785" y1="898.0801" y2="898.0801"/><text fill="#000000" font-family="sans-serif" font-size="13" font-weight="bold" lengthAdjust="spacing" textLength="14" x="17" y="892.8174">17</text><text fill="#000000" font-family="sans-serif" font-size="13" lengthAdjust="spacing" textLength="163" x="35" y="892.8174">Response status code - 503</text><polygon fill="#181818" points="1081,932.3711,1091,936.3711,1081,940.3711,1085,936.3711" style="stroke:#181818;stroke-width:1.0;"/><line style="stroke:#181818;stroke-width:1.0;" x1="796" x2="1087" y1="936.3711" y2="936.3711"/><text fill="#000000" font-family="sans-serif" font-size="13" font-weight="bold" lengthAdjust="spacing" textLength="14" x="803" y="931.1084">18</text><text fill="#000000" font-family="sans-serif" font-size="13" lengthAdjust="spacing" textLength="80" x="821" y="931.1084">find by floor id</text><polygon fill="#181818" points="807,963.6621,797,967.6621,807,971.6621,803,967.6621" style="stroke:#181818;stroke-width:1.0;"/><line style="stroke:#181818;stroke-width:1.0;stroke-dasharray:2.0,2.0;" x1="801" x2="1097" y1="967.6621" y2="967.6621"/><text fill="#000000" font-family="sans-serif" font-size="13" font-weight="bold" lengthAdjust="spacing" textLength="14" x="813" y="962.3994">19</text><text fill="#000000" font-family="sans-serif" font-size="13" lengthAdjust="spacing" textLength="4" x="831" y="962.3994">&#160;</text><path d="M3,982.6621 L64,982.6621 L64,991.9531 L54,1001.9531 L3,1001.9531 L3,982.6621 " fill="#EEEEEE" style="stroke:#000000;stroke-width:1.5;"/><rect fill="none" height="98.5039" style="stroke:#000000;stroke-width:1.5;" width="848" x="3" y="982.6621"/><text fill="#000000" font-family="sans-serif" font-size="13" font-weight="bold" lengthAdjust="spacing" textLength="16" x="18" y="997.6904">alt</text><text fill="#000000" font-family="sans-serif" font-size="11" font-weight="bold" lengthAdjust="spacing" textLength="90" x="79" y="996.5322">[floor not found]</text><polygon fill="#181818" points="11,1021.2441,1,1025.2441,11,1029.2441,7,1025.2441" style="stroke:#181818;stroke-width:1.0;"/><line style="stroke:#181818;stroke-width:1.0;stroke-dasharray:2.0,2.0;" x1="5" x2="785" y1="1025.2441" y2="1025.2441"/><text fill="#000000" font-family="sans-serif" font-size="13" font-weight="bold" lengthAdjust="spacing" textLength="14" x="17" y="1019.9814">20</text><text fill="#000000" font-family="sans-serif" font-size="13" lengthAdjust="spacing" textLength="163" x="35" y="1019.9814">Response status code - 404</text><line style="stroke:#000000;stroke-width:1.0;stroke-dasharray:2.0,2.0;" x1="3" x2="851" y1="1034.2441" y2="1034.2441"/><text fill="#000000" font-family="sans-serif" font-size="11" font-weight="bold" lengthAdjust="spacing" textLength="122" x="8" y="1046.1143">[database unavailable]</text><polygon fill="#181818" points="11,1069.166,1,1073.166,11,1077.166,7,1073.166" style="stroke:#181818;stroke-width:1.0;"/><line style="stroke:#181818;stroke-width:1.0;stroke-dasharray:2.0,2.0;" x1="5" x2="785" y1="1073.166" y2="1073.166"/><text fill="#000000" font-family="sans-serif" font-size="13" font-weight="bold" lengthAdjust="spacing" textLength="14" x="17" y="1067.9033">21</text><text fill="#000000" font-family="sans-serif" font-size="13" lengthAdjust="spacing" textLength="163" x="35" y="1067.9033">Response status code - 503</text><polygon fill="#181818" points="1081,1107.457,1091,1111.457,1081,1115.457,1085,1111.457" style="stroke:#181818;stroke-width:1.0;"/><line style="stroke:#181818;stroke-width:1.0;" x1="796" x2="1087" y1="1111.457" y2="1111.457"/><text fill="#000000" font-family="sans-serif" font-size="13" font-weight="bold" lengthAdjust="spacing" textLength="14" x="803" y="1106.1943">22</text><text fill="#000000" font-family="sans-serif" font-size="13" lengthAdjust="spacing" textLength="260" x="821" y="1106.1943">is there a passage between floor and building</text><polygon fill="#181818" points="807,1138.748,797,1142.748,807,1146.748,803,1142.748" style="stroke:#181818;stroke-width:1.0;"/><line style="stroke:#181818;stroke-width:1.0;stroke-dasharray:2.0,2.0;" x1="801" x2="1097" y1="1142.748" y2="1142.748"/><text fill="#000000" font-family="sans-serif" font-size="13" font-weight="bold" lengthAdjust="spacing" textLength="14" x="813" y="1137.4854">23</text><text fill="#000000" font-family="sans-serif" font-size="13" lengthAdjust="spacing" textLength="4" x="831" y="1137.4854">&#160;</text><path d="M3,1157.748 L64,1157.748 L64,1167.0391 L54,1177.0391 L3,1177.0391 L3,1157.748 " fill="#EEEEEE" style="stroke:#000000;stroke-width:1.5;"/><rect fill="none" height="98.5039" style="stroke:#000000;stroke-width:1.5;" width="848" x="3" y="1157.748"/><text fill="#000000" font-family="sans-serif" font-size="13" font-weight="bold" lengthAdjust="spacing" textLength="16" x="18" y="1172.7764">alt</text><text fill="#000000" font-family="sans-serif" font-size="11" font-weight="bold" lengthAdjust="spacing" textLength="135" x="79" y="1171.6182">[passage already exists]</text><polygon fill="#181818" points="11,1196.3301,1,1200.3301,11,1204.3301,7,1200.3301" style="stroke:#181818;stroke-width:1.0;"/><line style="stroke:#181818;stroke-width:1.0;stroke-dasharray:2.0,2.0;" x1="5" x2="785" y1="1200.3301" y2="1200.3301"/><text fill="#000000" font-family="sans-serif" font-size="13" font-weight="bold" lengthAdjust="spacing" textLength="14" x="17" y="1195.0674">24</text><text fill="#000000" font-family="sans-serif" font-size="13" lengthAdjust="spacing" textLength="163" x="35" y="1195.0674">Response status code - 409</text><line style="stroke:#000000;stroke-width:1.0;stroke-dasharray:2.0,2.0;" x1="3" x2="851" y1="1209.3301" y2="1209.3301"/><text fill="#000000" font-family="sans-serif" font-size="11" font-weight="bold" lengthAdjust="spacing" textLength="122" x="8" y="1221.2002">[database unavailable]</text><polygon fill="#181818" points="11,1244.252,1,1248.252,11,1252.252,7,1248.252" style="stroke:#181818;stroke-width:1.0;"/><line style="stroke:#181818;stroke-width:1.0;stroke-dasharray:2.0,2.0;" x1="5" x2="785" y1="1248.252" y2="1248.252"/><text fill="#000000" font-family="sans-serif" font-size="13" font-weight="bold" lengthAdjust="spacing" textLength="14" x="17" y="1242.9893">25</text><text fill="#000000" font-family="sans-serif" font-size="13" lengthAdjust="spacing" textLength="163" x="35" y="1242.9893">Response status code - 503</text><polygon fill="#181818" points="1081,1282.543,1091,1286.543,1081,1290.543,1085,1286.543" style="stroke:#181818;stroke-width:1.0;"/><line style="stroke:#181818;stroke-width:1.0;" x1="796" x2="1087" y1="1286.543" y2="1286.543"/><text fill="#000000" font-family="sans-serif" font-size="13" font-weight="bold" lengthAdjust="spacing" textLength="14" x="803" y="1281.2803">26</text><text fill="#000000" font-family="sans-serif" font-size="13" lengthAdjust="spacing" textLength="73" x="821" y="1281.2803">find by floors</text><polygon fill="#181818" points="807,1313.834,797,1317.834,807,1321.834,803,1317.834" style="stroke:#181818;stroke-width:1.0;"/><line style="stroke:#181818;stroke-width:1.0;stroke-dasharray:2.0,2.0;" x1="801" x2="1097" y1="1317.834" y2="1317.834"/><text fill="#000000" font-family="sans-serif" font-size="13" font-weight="bold" lengthAdjust="spacing" textLength="14" x="813" y="1312.5713">27</text><text fill="#000000" font-family="sans-serif" font-size="13" lengthAdjust="spacing" textLength="4" x="831" y="1312.5713">&#160;</text><path d="M3,1332.834 L64,1332.834 L64,1342.125 L54,1352.125 L3,1352.125 L3,1332.834 " fill="#EEEEEE" style="stroke:#000000;stroke-width:1.5;"/><rect fill="none" height="98.5039" style="stroke:#000000;stroke-width:1.5;" width="848" x="3" y="1332.834"/><text fill="#000000" font-family="sans-serif" font-size="13" font-weight="bold" lengthAdjust="spacing" textLength="16" x="18" y="1347.8623">alt</text><text fill="#000000" font-family="sans-serif" font-size="11" font-weight="bold" lengthAdjust="spacing" textLength="135" x="79" y="1346.7041">[passage already exists]</text><polygon fill="#181818" points="11,1371.416,1,1375.416,11,1379.416,7,1375.416" style="stroke:#181818;stroke-width:1.0;"/><line style="stroke:#181818;stroke-width:1.0;stroke-dasharray:2.0,2.0;" x1="5" x2="785" y1="1375.416" y2="1375.416"/><text fill="#000000" font-family="sans-serif" font-size="13" font-weight="bold" lengthAdjust="spacing" textLength="14" x="17" y="1370.1533">28</text><text fill="#000000" font-family="sans-serif" font-size="13" lengthAdjust="spacing" textLength="163" x="35" y="1370.1533">Response status code - 409</text><line style="stroke:#000000;stroke-width:1.0;stroke-dasharray:2.0,2.0;" x1="3" x2="851" y1="1384.416" y2="1384.416"/><text fill="#000000" font-family="sans-serif" font-size="11" font-weight="bold" lengthAdjust="spacing" textLength="122" x="8" y="1396.2861">[database unavailable]</text><polygon fill="#181818" points="11,1419.3379,1,1423.3379,11,1427.3379,7,1423.3379" style="stroke:#181818;stroke-width:1.0;"/><line style="stroke:#181818;stroke-width:1.0;stroke-dasharray:2.0,2.0;" x1="5" x2="785" y1="1423.3379" y2="1423.3379"/><text fill="#000000" font-family="sans-serif" font-size="13" font-weight="bold" lengthAdjust="spacing" textLength="14" x="17" y="1418.0752">29</text><text fill="#000000" font-family="sans-serif" font-size="13" lengthAdjust="spacing" textLength="163" x="35" y="1418.0752">Response status code - 503</text><polygon fill="#181818" points="1081,1457.6289,1091,1461.6289,1081,1465.6289,1085,1461.6289" style="stroke:#181818;stroke-width:1.0;"/><line style="stroke:#181818;stroke-width:1.0;" x1="796" x2="1087" y1="1461.6289" y2="1461.6289"/><text fill="#000000" font-family="sans-serif" font-size="13" font-weight="bold" lengthAdjust="spacing" textLength="14" x="803" y="1456.3662">30</text><text fill="#000000" font-family="sans-serif" font-size="13" lengthAdjust="spacing" textLength="26" x="821" y="1456.3662">save</text><polygon fill="#181818" points="807,1488.9199,797,1492.9199,807,1496.9199,803,1492.9199" style="stroke:#181818;stroke-width:1.0;"/><line style="stroke:#181818;stroke-width:1.0;stroke-dasharray:2.0,2.0;" x1="801" x2="1097" y1="1492.9199" y2="1492.9199"/><text fill="#000000" font-family="sans-serif" font-size="13" font-weight="bold" lengthAdjust="spacing" textLength="14" x="813" y="1487.6572">31</text><text fill="#000000" font-family="sans-serif" font-size="13" lengthAdjust="spacing" textLength="4" x="831" y="1487.6572">&#160;</text><path d="M3,1507.9199 L64,1507.9199 L64,1517.2109 L54,1527.2109 L3,1527.2109 L3,1507.9199 " fill="#EEEEEE" style="stroke:#000000;stroke-width:1.5;"/><rect fill="none" height="98.5039" style="stroke:#000000;stroke-width:1.5;" width="848" x="3" y="1507.9199"/><text fill="#000000" font-family="sans-serif" font-size="13" font-weight="bold" lengthAdjust="spacing" textLength="16" x="18" y="1522.9482">alt</text><text fill="#000000" font-family="sans-serif" font-size="11" font-weight="bold" lengthAdjust="spacing" textLength="112" x="79" y="1521.79">[passage persisted]</text><polygon fill="#181818" points="11,1546.502,1,1550.502,11,1554.502,7,1550.502" style="stroke:#181818;stroke-width:1.0;"/><line style="stroke:#181818;stroke-width:1.0;stroke-dasharray:2.0,2.0;" x1="5" x2="785" y1="1550.502" y2="1550.502"/><text fill="#000000" font-family="sans-serif" font-size="13" font-weight="bold" lengthAdjust="spacing" textLength="14" x="17" y="1545.2393">32</text><text fill="#000000" font-family="sans-serif" font-size="13" lengthAdjust="spacing" textLength="163" x="35" y="1545.2393">Response status code - 200</text><line style="stroke:#000000;stroke-width:1.0;stroke-dasharray:2.0,2.0;" x1="3" x2="851" y1="1559.502" y2="1559.502"/><text fill="#000000" font-family="sans-serif" font-size="11" font-weight="bold" lengthAdjust="spacing" textLength="122" x="8" y="1571.3721">[database unavailable]</text><polygon fill="#181818" points="11,1594.4238,1,1598.4238,11,1602.4238,7,1598.4238" style="stroke:#181818;stroke-width:1.0;"/><line style="stroke:#181818;stroke-width:1.0;stroke-dasharray:2.0,2.0;" x1="5" x2="785" y1="1598.4238" y2="1598.4238"/><text fill="#000000" font-family="sans-serif" font-size="13" font-weight="bold" lengthAdjust="spacing" textLength="14" x="17" y="1593.1611">33</text><text fill="#000000" font-family="sans-serif" font-size="13" lengthAdjust="spacing" textLength="163" x="35" y="1593.1611">Response status code - 503</text><line style="stroke:#000000;stroke-width:1.0;stroke-dasharray:2.0,2.0;" x1="3" x2="1154" y1="1614.4238" y2="1614.4238"/><text fill="#000000" font-family="sans-serif" font-size="11" font-weight="bold" lengthAdjust="spacing" textLength="110" x="8" y="1626.2939">[user unauthorized]</text><polygon fill="#181818" points="11,1649.3457,1,1653.3457,11,1657.3457,7,1653.3457" style="stroke:#181818;stroke-width:1.0;"/><line style="stroke:#181818;stroke-width:1.0;stroke-dasharray:2.0,2.0;" x1="5" x2="785" y1="1653.3457" y2="1653.3457"/><text fill="#000000" font-family="sans-serif" font-size="13" font-weight="bold" lengthAdjust="spacing" textLength="14" x="17" y="1648.083">34</text><text fill="#000000" font-family="sans-serif" font-size="13" lengthAdjust="spacing" textLength="163" x="35" y="1648.083">Response status code - 401</text><!--SRC=[xLN1Rjf04BtFLuouSC4gRTD34IB2CL6veIR7NiRU8Ld5x2BlcE96_7i7OonIAPKRqVJGtCRUDs_slNdIKYdUbQkK2mWFrgsfe1MkANkWExwHAcSiE1C0iQBrp5Z11OMWfm0A5flPDJd1NgmzqSoP7bB0U8RZSUPNQ-_OoMG2XeHI2eozHAjOgngNnB_W89feymWNqzkhBtgFUb9uzzXKSxDhwnlHyGjldLoEy76PUr_CZPPDDS2bBO9SwOUnZeJ37hOTuNQ0rGYhtG1p-jsv0hwvunLKsDySjGEWNB0CN22LSkyB-uCDGF_QEeDfTVGSvqbVePdOZTAeKm1gjNgMn7gR1jjS6QqvWIOnWBeT7Vm5CFpaQ3_zsEUyuDANJjiHnr5KB-Gh1rsIBZ08IHamyuOnmelX1G3d-h_TSEbeGpQdDESE19-67vN0dMgzthlQIMdj_n_hF7JzAvNpWBVtN31EswN6BD-PNIDygjhYqkOQbRl-SmxOW5ApKBksj64voAEzGmtBos90US5aAkIj3HAWaqsVpnk6rg0c5A7VAH7XF89VN-zR-D_2_n-6_nbPWJRyCZ5hBeBAu2xn_Z0Sdaj7pLA_uSfmyeftyFBzWU8d]--></g></svg>