<?xml version="1.0" encoding="us-ascii" standalone="no"?><svg xmlns="http://www.w3.org/2000/svg" xmlns:xlink="http://www.w3.org/1999/xlink" contentStyleType="text/css" height="455px" preserveAspectRatio="none" style="width:517px;height:455px;background:#FFFFFF;" version="1.1" viewBox="0 0 517 455" width="517px" zoomAndPan="magnify"><defs/><g><text fill="#000000" font-family="sans-serif" font-size="14" font-weight="bold" lengthAdjust="spacing" textLength="129" x="195.25" y="30.1074">Create {Resource}</text><rect fill="#FFFFFF" height="191.7168" style="stroke:#181818;stroke-width:1.0;" width="10" x="54.5" y="151.8633"/><rect fill="#FFFFFF" height="153.4258" style="stroke:#181818;stroke-width:1.0;" width="10" x="442.5" y="175.1543"/><rect fill="none" height="146.4258" style="stroke:#000000;stroke-width:1.5;" width="500.5" x="10" y="190.1543"/><line style="stroke:#181818;stroke-width:0.5;stroke-dasharray:5.0,5.0;" x1="59" x2="59" y1="141.8633" y2="353.5801"/><line style="stroke:#181818;stroke-width:0.5;stroke-dasharray:5.0,5.0;" x1="447.5" x2="447.5" y1="141.8633" y2="353.5801"/><text fill="#000000" font-family="sans-serif" font-size="14" font-style="italic" lengthAdjust="spacing" textLength="73" x="20" y="119.7285">&#171;DEI User&#187;</text><text fill="#000000" font-family="sans-serif" font-size="14" lengthAdjust="spacing" textLength="29" x="42" y="138.3496">User</text><ellipse cx="59.5" cy="53.1211" fill="#E2E2F0" rx="8" ry="8" style="stroke:#181818;stroke-width:0.5;"/><path d="M59.5,61.1211 L59.5,88.1211 M46.5,69.1211 L72.5,69.1211 M59.5,88.1211 L46.5,103.1211 M59.5,88.1211 L72.5,103.1211 " fill="none" style="stroke:#181818;stroke-width:0.5;"/><text fill="#000000" font-family="sans-serif" font-size="14" font-style="italic" lengthAdjust="spacing" textLength="73" x="20" y="367.6875">&#171;DEI User&#187;</text><text fill="#000000" font-family="sans-serif" font-size="14" lengthAdjust="spacing" textLength="29" x="42" y="386.3086">User</text><ellipse cx="59.5" cy="398.3223" fill="#E2E2F0" rx="8" ry="8" style="stroke:#181818;stroke-width:0.5;"/><path d="M59.5,406.3223 L59.5,433.3223 M46.5,414.3223 L72.5,414.3223 M59.5,433.3223 L46.5,448.3223 M59.5,433.3223 L72.5,448.3223 " fill="none" style="stroke:#181818;stroke-width:0.5;"/><rect fill="#E2E2F0" height="51.2422" rx="2.5" ry="2.5" style="stroke:#181818;stroke-width:0.5;" width="106" x="394.5" y="89.6211"/><text fill="#000000" font-family="sans-serif" font-size="14" font-style="italic" lengthAdjust="spacing" textLength="92" x="401.5" y="111.7285">&#171;system (C4)&#187;</text><text fill="#000000" font-family="sans-serif" font-size="14" lengthAdjust="spacing" textLength="84" x="405.5" y="130.3496">RobDroneGo</text><rect fill="#E2E2F0" height="51.2422" rx="2.5" ry="2.5" style="stroke:#181818;stroke-width:0.5;" width="106" x="394.5" y="352.5801"/><text fill="#000000" font-family="sans-serif" font-size="14" font-style="italic" lengthAdjust="spacing" textLength="92" x="401.5" y="374.6875">&#171;system (C4)&#187;</text><text fill="#000000" font-family="sans-serif" font-size="14" lengthAdjust="spacing" textLength="84" x="405.5" y="393.3086">RobDroneGo</text><rect fill="#FFFFFF" height="191.7168" style="stroke:#181818;stroke-width:1.0;" width="10" x="54.5" y="151.8633"/><rect fill="#FFFFFF" height="153.4258" style="stroke:#181818;stroke-width:1.0;" width="10" x="442.5" y="175.1543"/><polygon fill="#181818" points="430.5,171.1543,440.5,175.1543,430.5,179.1543,434.5,175.1543" style="stroke:#181818;stroke-width:1.0;"/><line style="stroke:#181818;stroke-width:1.0;" x1="64.5" x2="436.5" y1="175.1543" y2="175.1543"/><text fill="#000000" font-family="sans-serif" font-size="13" font-weight="bold" lengthAdjust="spacing" textLength="7" x="71.5" y="169.8916">1</text><text fill="#000000" font-family="sans-serif" font-size="13" lengthAdjust="spacing" textLength="264" x="82.5" y="169.8916">Fills and submits the {Resource} Create Form</text><path d="M10,190.1543 L71,190.1543 L71,199.4453 L61,209.4453 L10,209.4453 L10,190.1543 " fill="#EEEEEE" style="stroke:#000000;stroke-width:1.5;"/><rect fill="none" height="146.4258" style="stroke:#000000;stroke-width:1.5;" width="500.5" x="10" y="190.1543"/><text fill="#000000" font-family="sans-serif" font-size="13" font-weight="bold" lengthAdjust="spacing" textLength="16" x="25" y="205.1826">alt</text><polygon fill="#181818" points="75.5,228.7363,65.5,232.7363,75.5,236.7363,71.5,232.7363" style="stroke:#181818;stroke-width:1.0;"/><line style="stroke:#181818;stroke-width:1.0;stroke-dasharray:2.0,2.0;" x1="69.5" x2="441.5" y1="232.7363" y2="232.7363"/><text fill="#000000" font-family="sans-serif" font-size="13" font-weight="bold" lengthAdjust="spacing" textLength="7" x="81.5" y="227.4736">2</text><text fill="#000000" font-family="sans-serif" font-size="13" lengthAdjust="spacing" textLength="343" x="92.5" y="227.4736">displays success message and updates the {Resource} list</text><line style="stroke:#000000;stroke-width:1.0;stroke-dasharray:2.0,2.0;" x1="10" x2="510.5" y1="241.7363" y2="241.7363"/><text fill="#000000" font-family="sans-serif" font-size="11" font-weight="bold" lengthAdjust="spacing" textLength="159" x="15" y="253.6064">[required fields are missing]</text><polygon fill="#181818" points="75.5,276.6582,65.5,280.6582,75.5,284.6582,71.5,280.6582" style="stroke:#181818;stroke-width:1.0;"/><line style="stroke:#181818;stroke-width:1.0;stroke-dasharray:2.0,2.0;" x1="69.5" x2="441.5" y1="280.6582" y2="280.6582"/><text fill="#000000" font-family="sans-serif" font-size="13" font-weight="bold" lengthAdjust="spacing" textLength="7" x="81.5" y="275.3955">3</text><text fill="#000000" font-family="sans-serif" font-size="13" lengthAdjust="spacing" textLength="153" x="92.5" y="275.3955">displays warning message</text><line style="stroke:#000000;stroke-width:1.0;stroke-dasharray:2.0,2.0;" x1="10" x2="510.5" y1="289.6582" y2="289.6582"/><text fill="#000000" font-family="sans-serif" font-size="11" font-weight="bold" lengthAdjust="spacing" textLength="121" x="15" y="301.5283">[invalid data provided]</text><polygon fill="#181818" points="75.5,324.5801,65.5,328.5801,75.5,332.5801,71.5,328.5801" style="stroke:#181818;stroke-width:1.0;"/><line style="stroke:#181818;stroke-width:1.0;stroke-dasharray:2.0,2.0;" x1="69.5" x2="446.5" y1="328.5801" y2="328.5801"/><text fill="#000000" font-family="sans-serif" font-size="13" font-weight="bold" lengthAdjust="spacing" textLength="7" x="81.5" y="323.3174">4</text><text fill="#000000" font-family="sans-serif" font-size="13" lengthAdjust="spacing" textLength="135" x="92.5" y="323.3174">displays error message</text><!--SRC=[RP3DJa9138NtynGDArsmSsK86n3Yzfhx06McOiFyNDjU336-kxqe2KOsavdEETzfYwErEfOTIT03rm452mmO3xYd5pjb0g5e8HYRtrT2Q0IV7MaR9T9N21Yj2Snw9Pa1AlImMAoVdc4gB9V1WSQH1wm6iwxjrj8gRTjPsgstBjQJ6XMuMptSktxYyN4AwKFeORwSL8y06yvP0Mi27NU5JS7UhXkvjBPfKguWRlPNjecrcCz_O8bro7XIHyL8gb3yy7dF-758Rlo7pwmEeQpJGjv75ahmofIJDoK4XLMvxc_7VA1K_xp4_6Au7Z5p0ez36AGTEL6w3I0Ht_75dkZlU5JTTbNqnOLl]--></g></svg>