<?xml version="1.0" encoding="us-ascii" standalone="no"?><svg xmlns="http://www.w3.org/2000/svg" xmlns:xlink="http://www.w3.org/1999/xlink" contentStyleType="text/css" height="452px" preserveAspectRatio="none" style="width:616px;height:452px;background:#FFFFFF;" version="1.1" viewBox="0 0 616 452" width="616px" zoomAndPan="magnify"><defs/><g><text fill="#000000" font-family="JetBrains Mono" font-size="14" font-weight="bold" lengthAdjust="spacing" textLength="296" x="161.5" y="29.2799">GET Buildings with min and max floors</text><rect fill="#FFFFFF" height="183.9601" style="stroke:#181818;stroke-width:1.0;" width="10" x="390" y="160.5998"/><rect fill="#FFFFFF" height="31.16" style="stroke:#181818;stroke-width:1.0;" width="10" x="551" y="208.9198"/><rect fill="none" height="50.32" style="stroke:#000000;stroke-width:1.5;" width="457" x="3" y="286.2398"/><line style="stroke:#181818;stroke-width:0.5;stroke-dasharray:5.0,5.0;" x1="395" x2="395" y1="127.4398" y2="353.5599"/><line style="stroke:#181818;stroke-width:0.5;stroke-dasharray:5.0,5.0;" x1="556" x2="556" y1="127.4398" y2="353.5599"/><rect fill="#E2E2F0" height="50.9598" rx="2.5" ry="2.5" style="stroke:#181818;stroke-width:0.5;" width="110" x="340" y="75.4799"/><text fill="#000000" font-family="JetBrains Mono" font-size="14" font-style="italic" lengthAdjust="spacing" textLength="88" x="351" y="96.7599">&#171;component&#187;</text><text fill="#000000" font-family="JetBrains Mono" font-size="14" lengthAdjust="spacing" textLength="96" x="347" y="115.2398">Node Backend</text><rect fill="#E2E2F0" height="50.9598" rx="2.5" ry="2.5" style="stroke:#181818;stroke-width:0.5;" width="110" x="340" y="352.5599"/><text fill="#000000" font-family="JetBrains Mono" font-size="14" font-style="italic" lengthAdjust="spacing" textLength="88" x="351" y="373.8398">&#171;component&#187;</text><text fill="#000000" font-family="JetBrains Mono" font-size="14" lengthAdjust="spacing" textLength="96" x="347" y="392.3197">Node Backend</text><text fill="#000000" font-family="JetBrains Mono" font-size="14" font-style="italic" lengthAdjust="spacing" textLength="88" x="509" y="104.7599">&#171;component&#187;</text><text fill="#000000" font-family="JetBrains Mono" font-size="14" lengthAdjust="spacing" textLength="112" x="497" y="123.2398">Mongo DataBase</text><path d="M538,54.4799 C538,44.4799 556,44.4799 556,44.4799 C556,44.4799 574,44.4799 574,54.4799 L574,80.4799 C574,90.4799 556,90.4799 556,90.4799 C556,90.4799 538,90.4799 538,80.4799 L538,54.4799 " fill="#E2E2F0" style="stroke:#181818;stroke-width:1.5;"/><path d="M538,54.4799 C538,64.4799 556,64.4799 556,64.4799 C556,64.4799 574,64.4799 574,54.4799 " fill="none" style="stroke:#181818;stroke-width:1.5;"/><text fill="#000000" font-family="JetBrains Mono" font-size="14" font-style="italic" lengthAdjust="spacing" textLength="88" x="509" y="366.8398">&#171;component&#187;</text><text fill="#000000" font-family="JetBrains Mono" font-size="14" lengthAdjust="spacing" textLength="112" x="497" y="385.3197">Mongo DataBase</text><path d="M538,399.5197 C538,389.5197 556,389.5197 556,389.5197 C556,389.5197 574,389.5197 574,399.5197 L574,425.5197 C574,435.5197 556,435.5197 556,435.5197 C556,435.5197 538,435.5197 538,425.5197 L538,399.5197 " fill="#E2E2F0" style="stroke:#181818;stroke-width:1.5;"/><path d="M538,399.5197 C538,409.5197 556,409.5197 556,409.5197 C556,409.5197 574,409.5197 574,399.5197 " fill="none" style="stroke:#181818;stroke-width:1.5;"/><rect fill="#FFFFFF" height="183.9601" style="stroke:#181818;stroke-width:1.0;" width="10" x="390" y="160.5998"/><rect fill="#FFFFFF" height="31.16" style="stroke:#181818;stroke-width:1.0;" width="10" x="551" y="208.9198"/><polygon fill="#181818" points="378,156.5998,388,160.5998,378,164.5998,382,160.5998" style="stroke:#181818;stroke-width:1.0;"/><line style="stroke:#181818;stroke-width:1.0;" x1="0" x2="384" y1="160.5998" y2="160.5998"/><text fill="#000000" font-family="JetBrains Mono" font-size="13" font-weight="bold" lengthAdjust="spacing" textLength="8" x="7" y="154.6998">1</text><text fill="#000000" font-family="JetBrains Mono" font-size="13" lengthAdjust="spacing" textLength="352" x="19" y="154.6998">GET buildings/filter?minFloors=1&amp;maxFloors=5</text><polygon fill="#181818" points="539,204.9198,549,208.9198,539,212.9198,543,208.9198" style="stroke:#181818;stroke-width:1.0;"/><line style="stroke:#181818;stroke-width:1.0;" x1="400" x2="545" y1="208.9198" y2="208.9198"/><text fill="#000000" font-family="JetBrains Mono" font-size="13" font-weight="bold" lengthAdjust="spacing" textLength="8" x="407" y="194.4398">2</text><text fill="#000000" font-family="JetBrains Mono" font-size="13" lengthAdjust="spacing" textLength="104" x="419" y="185.8598">find with min</text><text fill="#000000" font-family="JetBrains Mono" font-size="13" lengthAdjust="spacing" textLength="112" x="427" y="203.0198">and max floors</text><polygon fill="#181818" points="411,236.0798,401,240.0798,411,244.0798,407,240.0798" style="stroke:#181818;stroke-width:1.0;"/><line style="stroke:#181818;stroke-width:1.0;stroke-dasharray:2.0,2.0;" x1="405" x2="555" y1="240.0798" y2="240.0798"/><text fill="#000000" font-family="JetBrains Mono" font-size="13" font-weight="bold" lengthAdjust="spacing" textLength="8" x="417" y="234.1798">3</text><text fill="#000000" font-family="JetBrains Mono" font-size="13" lengthAdjust="spacing" textLength="8" x="429" y="234.1798">&#160;</text><polygon fill="#181818" points="11,267.2398,1,271.2398,11,275.2398,7,271.2398" style="stroke:#181818;stroke-width:1.0;"/><line style="stroke:#181818;stroke-width:1.0;stroke-dasharray:2.0,2.0;" x1="5" x2="389" y1="271.2398" y2="271.2398"/><text fill="#000000" font-family="JetBrains Mono" font-size="13" font-weight="bold" lengthAdjust="spacing" textLength="8" x="17" y="265.3398">4</text><text fill="#000000" font-family="JetBrains Mono" font-size="13" lengthAdjust="spacing" textLength="208" x="29" y="265.3398">Response status code - 200</text><path d="M3,286.2398 L72,286.2398 L72,295.3998 L62,305.3998 L3,305.3998 L3,286.2398 " fill="#EEEEEE" style="stroke:#000000;stroke-width:1.5;"/><rect fill="none" height="50.32" style="stroke:#000000;stroke-width:1.5;" width="457" x="3" y="286.2398"/><text fill="#000000" font-family="JetBrains Mono" font-size="13" font-weight="bold" lengthAdjust="spacing" textLength="24" x="18" y="300.4998">alt</text><text fill="#000000" font-family="JetBrains Mono" font-size="11" font-weight="bold" lengthAdjust="spacing" textLength="154" x="87" y="299.4598">[database unavailable]</text><polygon fill="#181818" points="11,324.5599,1,328.5599,11,332.5599,7,328.5599" style="stroke:#181818;stroke-width:1.0;"/><line style="stroke:#181818;stroke-width:1.0;stroke-dasharray:2.0,2.0;" x1="5" x2="389" y1="328.5599" y2="328.5599"/><text fill="#000000" font-family="JetBrains Mono" font-size="13" font-weight="bold" lengthAdjust="spacing" textLength="8" x="17" y="322.6599">5</text><text fill="#000000" font-family="JetBrains Mono" font-size="13" lengthAdjust="spacing" textLength="208" x="29" y="322.6599">Response status code - 503</text><!--SRC=[ZP0nJyD038Lt_mgh0vqY2gXB5OeufK52eWCmiZWvfvnwkOjoJe5_Znje1NHXi-Ndv- -P1ebXQ2lk8MrTwAYd5ZkgjxJX9_dmZ3tNycDckQ71Inc3hAbbl6SnFRcGy266221ETEbkzOncSDwwi4duvkGLMnUGWiMMth7nCVO9G2t5rQwZ83XPHyjez3G7Eq5AQ5QOvtLiknWuo789beGgIemJlRM9M6Xlj1_LXVcZXcof5ekHfJgmd3VE2_StIbEE4DSNPqhqNSy1fgLJo5llfm1KYzkHADKAG6dKi30BRFQAGwQNqrJ7jS80A5Rs1G9W-TS8CS-o4V6Has9hi2GaGy9w_ueCBsSpTVE2n-13e1qvJvNdV-pFPrS0-atu1000]--></g></svg>