<?xml version="1.0" encoding="us-ascii" standalone="no"?><svg xmlns="http://www.w3.org/2000/svg" xmlns:xlink="http://www.w3.org/1999/xlink" contentStyleType="text/css" height="707px" preserveAspectRatio="none" style="width:960px;height:707px;background:#FFFFFF;" version="1.1" viewBox="0 0 960 707" width="960px" zoomAndPan="magnify"><defs/><g><text fill="#000000" font-family="JetBrains Mono" font-size="14" font-weight="bold" lengthAdjust="spacing" textLength="104" x="429.5" y="29.2799">Edit Building</text><rect fill="#FFFFFF" height="421.96" style="stroke:#181818;stroke-width:1.0;" width="10" x="702" y="177.7598"/><rect fill="#FFFFFF" height="31.16" style="stroke:#181818;stroke-width:1.0;" width="10" x="895" y="208.9198"/><rect fill="#FFFFFF" height="31.16" style="stroke:#181818;stroke-width:1.0;" width="10" x="895" y="447.5598"/><rect fill="none" height="97.9999" style="stroke:#000000;stroke-width:1.5;" width="769" x="3" y="255.0798"/><rect fill="none" height="50.32" style="stroke:#000000;stroke-width:1.5;" width="769" x="3" y="367.0798"/><rect fill="none" height="97.9999" style="stroke:#000000;stroke-width:1.5;" width="769" x="3" y="493.7198"/><line style="stroke:#181818;stroke-width:0.5;stroke-dasharray:5.0,5.0;" x1="707" x2="707" y1="127.4398" y2="608.7198"/><line style="stroke:#181818;stroke-width:0.5;stroke-dasharray:5.0,5.0;" x1="900" x2="900" y1="127.4398" y2="608.7198"/><rect fill="#E2E2F0" height="50.9598" rx="2.5" ry="2.5" style="stroke:#181818;stroke-width:0.5;" width="110" x="652" y="75.4799"/><text fill="#000000" font-family="JetBrains Mono" font-size="14" font-style="italic" lengthAdjust="spacing" textLength="88" x="663" y="96.7599">&#171;component&#187;</text><text fill="#000000" font-family="JetBrains Mono" font-size="14" lengthAdjust="spacing" textLength="96" x="659" y="115.2398">Node Backend</text><rect fill="#E2E2F0" height="50.9598" rx="2.5" ry="2.5" style="stroke:#181818;stroke-width:0.5;" width="110" x="652" y="607.7198"/><text fill="#000000" font-family="JetBrains Mono" font-size="14" font-style="italic" lengthAdjust="spacing" textLength="88" x="663" y="628.9997">&#171;component&#187;</text><text fill="#000000" font-family="JetBrains Mono" font-size="14" lengthAdjust="spacing" textLength="96" x="659" y="647.4796">Node Backend</text><text fill="#000000" font-family="JetBrains Mono" font-size="14" font-style="italic" lengthAdjust="spacing" textLength="88" x="853" y="104.7599">&#171;component&#187;</text><text fill="#000000" font-family="JetBrains Mono" font-size="14" lengthAdjust="spacing" textLength="112" x="841" y="123.2398">Mongo DataBase</text><path d="M882,54.4799 C882,44.4799 900,44.4799 900,44.4799 C900,44.4799 918,44.4799 918,54.4799 L918,80.4799 C918,90.4799 900,90.4799 900,90.4799 C900,90.4799 882,90.4799 882,80.4799 L882,54.4799 " fill="#E2E2F0" style="stroke:#181818;stroke-width:1.5;"/><path d="M882,54.4799 C882,64.4799 900,64.4799 900,64.4799 C900,64.4799 918,64.4799 918,54.4799 " fill="none" style="stroke:#181818;stroke-width:1.5;"/><text fill="#000000" font-family="JetBrains Mono" font-size="14" font-style="italic" lengthAdjust="spacing" textLength="88" x="853" y="621.9997">&#171;component&#187;</text><text fill="#000000" font-family="JetBrains Mono" font-size="14" lengthAdjust="spacing" textLength="112" x="841" y="640.4796">Mongo DataBase</text><path d="M882,654.6796 C882,644.6796 900,644.6796 900,644.6796 C900,644.6796 918,644.6796 918,654.6796 L918,680.6796 C918,690.6796 900,690.6796 900,690.6796 C900,690.6796 882,690.6796 882,680.6796 L882,654.6796 " fill="#E2E2F0" style="stroke:#181818;stroke-width:1.5;"/><path d="M882,654.6796 C882,664.6796 900,664.6796 900,664.6796 C900,664.6796 918,664.6796 918,654.6796 " fill="none" style="stroke:#181818;stroke-width:1.5;"/><rect fill="#FFFFFF" height="421.96" style="stroke:#181818;stroke-width:1.0;" width="10" x="702" y="177.7598"/><rect fill="#FFFFFF" height="31.16" style="stroke:#181818;stroke-width:1.0;" width="10" x="895" y="208.9198"/><rect fill="#FFFFFF" height="31.16" style="stroke:#181818;stroke-width:1.0;" width="10" x="895" y="447.5598"/><polygon fill="#181818" points="690,173.7598,700,177.7598,690,181.7598,694,177.7598" style="stroke:#181818;stroke-width:1.0;"/><line style="stroke:#181818;stroke-width:1.0;" x1="0" x2="696" y1="177.7598" y2="177.7598"/><text fill="#000000" font-family="JetBrains Mono" font-size="13" font-weight="bold" lengthAdjust="spacing" textLength="8" x="7" y="163.2798">1</text><text fill="#000000" font-family="JetBrains Mono" font-size="13" lengthAdjust="spacing" textLength="464" x="19" y="154.6998">PATCH buildings/{buildingId}/{buildingName?: buildingName,</text><text fill="#000000" font-family="JetBrains Mono" font-size="13" lengthAdjust="spacing" textLength="656" x="27" y="171.8598">buildingDimensions?: buildingDimensions,buildingDescription?: buildingDescription}</text><polygon fill="#181818" points="883,204.9198,893,208.9198,883,212.9198,887,208.9198" style="stroke:#181818;stroke-width:1.0;"/><line style="stroke:#181818;stroke-width:1.0;" x1="712" x2="889" y1="208.9198" y2="208.9198"/><text fill="#000000" font-family="JetBrains Mono" font-size="13" font-weight="bold" lengthAdjust="spacing" textLength="8" x="719" y="203.0198">2</text><text fill="#000000" font-family="JetBrains Mono" font-size="13" lengthAdjust="spacing" textLength="152" x="731" y="203.0198">find by building Id</text><polygon fill="#181818" points="723,236.0798,713,240.0798,723,244.0798,719,240.0798" style="stroke:#181818;stroke-width:1.0;"/><line style="stroke:#181818;stroke-width:1.0;stroke-dasharray:2.0,2.0;" x1="717" x2="899" y1="240.0798" y2="240.0798"/><text fill="#000000" font-family="JetBrains Mono" font-size="13" font-weight="bold" lengthAdjust="spacing" textLength="8" x="729" y="234.1798">3</text><text fill="#000000" font-family="JetBrains Mono" font-size="13" lengthAdjust="spacing" textLength="8" x="741" y="234.1798">&#160;</text><path d="M3,255.0798 L72,255.0798 L72,264.2398 L62,274.2398 L3,274.2398 L3,255.0798 " fill="#EEEEEE" style="stroke:#000000;stroke-width:1.5;"/><rect fill="none" height="97.9999" style="stroke:#000000;stroke-width:1.5;" width="769" x="3" y="255.0798"/><text fill="#000000" font-family="JetBrains Mono" font-size="13" font-weight="bold" lengthAdjust="spacing" textLength="24" x="18" y="269.3398">alt</text><text fill="#000000" font-family="JetBrains Mono" font-size="11" font-weight="bold" lengthAdjust="spacing" textLength="266" x="87" y="268.2997">[building with that id does not exist]</text><polygon fill="#181818" points="11,293.3998,1,297.3998,11,301.3998,7,297.3998" style="stroke:#181818;stroke-width:1.0;"/><line style="stroke:#181818;stroke-width:1.0;stroke-dasharray:2.0,2.0;" x1="5" x2="701" y1="297.3998" y2="297.3998"/><text fill="#000000" font-family="JetBrains Mono" font-size="13" font-weight="bold" lengthAdjust="spacing" textLength="8" x="17" y="291.4998">4</text><text fill="#000000" font-family="JetBrains Mono" font-size="13" lengthAdjust="spacing" textLength="208" x="29" y="291.4998">Response status code - 404</text><line style="stroke:#000000;stroke-width:1.0;stroke-dasharray:2.0,2.0;" x1="3" x2="772" y1="306.3998" y2="306.3998"/><text fill="#000000" font-family="JetBrains Mono" font-size="11" font-weight="bold" lengthAdjust="spacing" textLength="154" x="8" y="317.6198">[database unavailable]</text><polygon fill="#181818" points="11,341.0798,1,345.0798,11,349.0798,7,345.0798" style="stroke:#181818;stroke-width:1.0;"/><line style="stroke:#181818;stroke-width:1.0;stroke-dasharray:2.0,2.0;" x1="5" x2="701" y1="345.0798" y2="345.0798"/><text fill="#000000" font-family="JetBrains Mono" font-size="13" font-weight="bold" lengthAdjust="spacing" textLength="8" x="17" y="339.1798">5</text><text fill="#000000" font-family="JetBrains Mono" font-size="13" lengthAdjust="spacing" textLength="208" x="29" y="339.1798">Response status code - 503</text><path d="M3,367.0798 L72,367.0798 L72,376.2398 L62,386.2398 L3,386.2398 L3,367.0798 " fill="#EEEEEE" style="stroke:#000000;stroke-width:1.5;"/><rect fill="none" height="50.32" style="stroke:#000000;stroke-width:1.5;" width="769" x="3" y="367.0798"/><text fill="#000000" font-family="JetBrains Mono" font-size="13" font-weight="bold" lengthAdjust="spacing" textLength="24" x="18" y="381.3398">alt</text><text fill="#000000" font-family="JetBrains Mono" font-size="11" font-weight="bold" lengthAdjust="spacing" textLength="161" x="87" y="380.2997">[user input is invalid]</text><polygon fill="#181818" points="11,405.3998,1,409.3998,11,413.3998,7,409.3998" style="stroke:#181818;stroke-width:1.0;"/><line style="stroke:#181818;stroke-width:1.0;stroke-dasharray:2.0,2.0;" x1="5" x2="701" y1="409.3998" y2="409.3998"/><text fill="#000000" font-family="JetBrains Mono" font-size="13" font-weight="bold" lengthAdjust="spacing" textLength="8" x="17" y="403.4998">6</text><text fill="#000000" font-family="JetBrains Mono" font-size="13" lengthAdjust="spacing" textLength="208" x="29" y="403.4998">Response status code - 400</text><polygon fill="#181818" points="883,443.5598,893,447.5598,883,451.5598,887,447.5598" style="stroke:#181818;stroke-width:1.0;"/><line style="stroke:#181818;stroke-width:1.0;" x1="712" x2="889" y1="447.5598" y2="447.5598"/><text fill="#000000" font-family="JetBrains Mono" font-size="13" font-weight="bold" lengthAdjust="spacing" textLength="8" x="719" y="441.6598">7</text><text fill="#000000" font-family="JetBrains Mono" font-size="13" lengthAdjust="spacing" textLength="32" x="731" y="441.6598">save</text><polygon fill="#181818" points="723,474.7198,713,478.7198,723,482.7198,719,478.7198" style="stroke:#181818;stroke-width:1.0;"/><line style="stroke:#181818;stroke-width:1.0;stroke-dasharray:2.0,2.0;" x1="717" x2="899" y1="478.7198" y2="478.7198"/><text fill="#000000" font-family="JetBrains Mono" font-size="13" font-weight="bold" lengthAdjust="spacing" textLength="8" x="729" y="472.8198">8</text><text fill="#000000" font-family="JetBrains Mono" font-size="13" lengthAdjust="spacing" textLength="8" x="741" y="472.8198">&#160;</text><path d="M3,493.7198 L72,493.7198 L72,502.8798 L62,512.8798 L3,512.8798 L3,493.7198 " fill="#EEEEEE" style="stroke:#000000;stroke-width:1.5;"/><rect fill="none" height="97.9999" style="stroke:#000000;stroke-width:1.5;" width="769" x="3" y="493.7198"/><text fill="#000000" font-family="JetBrains Mono" font-size="13" font-weight="bold" lengthAdjust="spacing" textLength="24" x="18" y="507.9798">alt</text><text fill="#000000" font-family="JetBrains Mono" font-size="11" font-weight="bold" lengthAdjust="spacing" textLength="126" x="87" y="506.9397">[building updated]</text><polygon fill="#181818" points="11,532.0398,1,536.0398,11,540.0398,7,536.0398" style="stroke:#181818;stroke-width:1.0;"/><line style="stroke:#181818;stroke-width:1.0;stroke-dasharray:2.0,2.0;" x1="5" x2="701" y1="536.0398" y2="536.0398"/><text fill="#000000" font-family="JetBrains Mono" font-size="13" font-weight="bold" lengthAdjust="spacing" textLength="8" x="17" y="530.1398">9</text><text fill="#000000" font-family="JetBrains Mono" font-size="13" lengthAdjust="spacing" textLength="208" x="29" y="530.1398">Response status code - 200</text><line style="stroke:#000000;stroke-width:1.0;stroke-dasharray:2.0,2.0;" x1="3" x2="772" y1="545.0398" y2="545.0398"/><text fill="#000000" font-family="JetBrains Mono" font-size="11" font-weight="bold" lengthAdjust="spacing" textLength="154" x="8" y="556.2598">[database unavailable]</text><polygon fill="#181818" points="11,579.7198,1,583.7198,11,587.7198,7,583.7198" style="stroke:#181818;stroke-width:1.0;"/><line style="stroke:#181818;stroke-width:1.0;stroke-dasharray:2.0,2.0;" x1="5" x2="701" y1="583.7198" y2="583.7198"/><text fill="#000000" font-family="JetBrains Mono" font-size="13" font-weight="bold" lengthAdjust="spacing" textLength="16" x="17" y="577.8197">10</text><text fill="#000000" font-family="JetBrains Mono" font-size="13" lengthAdjust="spacing" textLength="208" x="37" y="577.8197">Response status code - 503</text><!--SRC=[ZPB1JkD038RlVWgh5owDje9ogQgk22cYI8jMktlSYvCnnIAPYJAUBWZnxcjQQ58EbDlOyzl-_SrGqk1JKt87yK5yInqrs5BrG6l-hKyrOyUL3kuStr6gzIfulQM6yOOrxqXyn1_11m0LjQAb4yKyIUt4hm6iLAMIbhpYw3Ounjn6i7SZf8Zv4kVpAZHjyEnriG17IYL5nf7rN0SiBCujtggB_8CQieMrcE7FYp-NrrY-3OtVdj-FA_VI1w-clyzm68x_-drSICC-Il1n8EgJutsAOzL9gvOS2lli2y39bNY7vHCMeJ52k2fEW2gL3Qa1M8BjRTQBV8PtRyBtFhXolRB8mNRETbk2u-45KArzrJ_HUzHxKXI7Bd147nJvKQ82uZpBjfn-SJHsHZSgQOfOlRv7XjF95BYsz9v-yhGXgQci-NZv-UGCx45tZbBa3kt797CIxR2XMjnNB4nsFU20qm1Kf0t30PeXcq_XfDOMOsj-rCQfsVW4nTTOR1Vv3m00]--></g></svg>