<?xml version="1.0" encoding="us-ascii" standalone="no"?><svg xmlns="http://www.w3.org/2000/svg" xmlns:xlink="http://www.w3.org/1999/xlink" contentStyleType="text/css" height="1619px" preserveAspectRatio="none" style="width:951px;height:1619px;background:#FFFFFF;" version="1.1" viewBox="0 0 951 1619" width="951px" zoomAndPan="magnify"><defs/><g><text fill="#000000" font-family="sans-serif" font-size="14" font-weight="bold" lengthAdjust="spacing" textLength="110" x="421.5" y="30.1074">Create Passage</text><rect fill="#FFFFFF" height="1315.8145" style="stroke:#181818;stroke-width:1.0;" width="10" x="576" y="195.7363"/><rect fill="#FFFFFF" height="31.291" style="stroke:#181818;stroke-width:1.0;" width="10" x="883" y="253.3184"/><rect fill="#FFFFFF" height="31.291" style="stroke:#181818;stroke-width:1.0;" width="10" x="883" y="428.4043"/><rect fill="#FFFFFF" height="31.291" style="stroke:#181818;stroke-width:1.0;" width="10" x="883" y="603.4902"/><rect fill="#FFFFFF" height="31.291" style="stroke:#181818;stroke-width:1.0;" width="10" x="883" y="778.5762"/><rect fill="#FFFFFF" height="31.291" style="stroke:#181818;stroke-width:1.0;" width="10" x="883" y="953.6621"/><rect fill="#FFFFFF" height="31.291" style="stroke:#181818;stroke-width:1.0;" width="10" x="883" y="1128.748"/><rect fill="#FFFFFF" height="31.291" style="stroke:#181818;stroke-width:1.0;" width="10" x="883" y="1303.834"/><rect fill="none" height="1292.8145" style="stroke:#000000;stroke-width:1.5;" width="941" x="3" y="210.7363"/><rect fill="none" height="98.5039" style="stroke:#000000;stroke-width:1.5;" width="638" x="3" y="299.6094"/><rect fill="none" height="98.5039" style="stroke:#000000;stroke-width:1.5;" width="638" x="3" y="474.6953"/><rect fill="none" height="98.5039" style="stroke:#000000;stroke-width:1.5;" width="638" x="3" y="649.7813"/><rect fill="none" height="98.5039" style="stroke:#000000;stroke-width:1.5;" width="638" x="3" y="824.8672"/><rect fill="none" height="98.5039" style="stroke:#000000;stroke-width:1.5;" width="638" x="3" y="999.9531"/><rect fill="none" height="98.5039" style="stroke:#000000;stroke-width:1.5;" width="638" x="3" y="1175.0391"/><rect fill="none" height="98.5039" style="stroke:#000000;stroke-width:1.5;" width="638" x="3" y="1350.125"/><line style="stroke:#181818;stroke-width:0.5;stroke-dasharray:5.0,5.0;" x1="581" x2="581" y1="127.8633" y2="1520.5508"/><line style="stroke:#181818;stroke-width:0.5;stroke-dasharray:5.0,5.0;" x1="888" x2="888" y1="127.8633" y2="1520.5508"/><rect fill="#E2E2F0" height="51.2422" rx="2.5" ry="2.5" style="stroke:#181818;stroke-width:0.5;" width="100" x="531" y="75.6211"/><text fill="#000000" font-family="sans-serif" font-size="14" font-style="italic" lengthAdjust="spacing" textLength="86" x="538" y="97.7285">&#171;component&#187;</text><text fill="#000000" font-family="sans-serif" font-size="14" lengthAdjust="spacing" textLength="61" x="550.5" y="116.3496">Back-End</text><rect fill="#E2E2F0" height="51.2422" rx="2.5" ry="2.5" style="stroke:#181818;stroke-width:0.5;" width="100" x="531" y="1519.5508"/><text fill="#000000" font-family="sans-serif" font-size="14" font-style="italic" lengthAdjust="spacing" textLength="86" x="538" y="1541.6582">&#171;component&#187;</text><text fill="#000000" font-family="sans-serif" font-size="14" lengthAdjust="spacing" textLength="61" x="550.5" y="1560.2793">Back-End</text><text fill="#000000" font-family="sans-serif" font-size="14" font-style="italic" lengthAdjust="spacing" textLength="86" x="842" y="105.7285">&#171;component&#187;</text><text fill="#000000" font-family="sans-serif" font-size="14" lengthAdjust="spacing" textLength="62" x="854" y="124.3496">DataBase</text><path d="M870,54.6211 C870,44.6211 888,44.6211 888,44.6211 C888,44.6211 906,44.6211 906,54.6211 L906,80.6211 C906,90.6211 888,90.6211 888,90.6211 C888,90.6211 870,90.6211 870,80.6211 L870,54.6211 " fill="#E2E2F0" style="stroke:#181818;stroke-width:1.5;"/><path d="M870,54.6211 C870,64.6211 888,64.6211 888,64.6211 C888,64.6211 906,64.6211 906,54.6211 " fill="none" style="stroke:#181818;stroke-width:1.5;"/><text fill="#000000" font-family="sans-serif" font-size="14" font-style="italic" lengthAdjust="spacing" textLength="86" x="842" y="1534.6582">&#171;component&#187;</text><text fill="#000000" font-family="sans-serif" font-size="14" lengthAdjust="spacing" textLength="62" x="854" y="1553.2793">DataBase</text><path d="M870,1566.793 C870,1556.793 888,1556.793 888,1556.793 C888,1556.793 906,1556.793 906,1566.793 L906,1592.793 C906,1602.793 888,1602.793 888,1602.793 C888,1602.793 870,1602.793 870,1592.793 L870,1566.793 " fill="#E2E2F0" style="stroke:#181818;stroke-width:1.5;"/><path d="M870,1566.793 C870,1576.793 888,1576.793 888,1576.793 C888,1576.793 906,1576.793 906,1566.793 " fill="none" style="stroke:#181818;stroke-width:1.5;"/><rect fill="#FFFFFF" height="1315.8145" style="stroke:#181818;stroke-width:1.0;" width="10" x="576" y="195.7363"/><rect fill="#FFFFFF" height="31.291" style="stroke:#181818;stroke-width:1.0;" width="10" x="883" y="253.3184"/><rect fill="#FFFFFF" height="31.291" style="stroke:#181818;stroke-width:1.0;" width="10" x="883" y="428.4043"/><rect fill="#FFFFFF" height="31.291" style="stroke:#181818;stroke-width:1.0;" width="10" x="883" y="603.4902"/><rect fill="#FFFFFF" height="31.291" style="stroke:#181818;stroke-width:1.0;" width="10" x="883" y="778.5762"/><rect fill="#FFFFFF" height="31.291" style="stroke:#181818;stroke-width:1.0;" width="10" x="883" y="953.6621"/><rect fill="#FFFFFF" height="31.291" style="stroke:#181818;stroke-width:1.0;" width="10" x="883" y="1128.748"/><rect fill="#FFFFFF" height="31.291" style="stroke:#181818;stroke-width:1.0;" width="10" x="883" y="1303.834"/><polygon fill="#181818" points="564,191.7363,574,195.7363,564,199.7363,568,195.7363" style="stroke:#181818;stroke-width:1.0;"/><line style="stroke:#181818;stroke-width:1.0;" x1="0" x2="570" y1="195.7363" y2="195.7363"/><text fill="#000000" font-family="sans-serif" font-size="13" font-weight="bold" lengthAdjust="spacing" textLength="7" x="7" y="173.1826">1</text><text fill="#000000" font-family="sans-serif" font-size="13" lengthAdjust="spacing" textLength="226" x="18" y="155.8916">POST passages/{domainId?: domainId,</text><text fill="#000000" font-family="sans-serif" font-size="13" lengthAdjust="spacing" textLength="535" x="18" y="173.1826">passageStartPoint: {floorId: floorId, firstCoordinates: {x: x, y: y}, lastCoordinates: {x: x, y: y}},</text><text fill="#000000" font-family="sans-serif" font-size="13" lengthAdjust="spacing" textLength="530" x="22" y="190.4736">passageEndPoint: {floorId: floorId, firstCoordinates: {x: x, y: y}, lastCoordinates: {x: x, y: y}}}</text><path d="M3,210.7363 L64,210.7363 L64,220.0273 L54,230.0273 L3,230.0273 L3,210.7363 " fill="#EEEEEE" style="stroke:#000000;stroke-width:1.5;"/><rect fill="none" height="1292.8145" style="stroke:#000000;stroke-width:1.5;" width="941" x="3" y="210.7363"/><text fill="#000000" font-family="sans-serif" font-size="13" font-weight="bold" lengthAdjust="spacing" textLength="16" x="18" y="225.7646">alt</text><text fill="#000000" font-family="sans-serif" font-size="11" font-weight="bold" lengthAdjust="spacing" textLength="96" x="79" y="224.6064">[user authorized]</text><polygon fill="#181818" points="871,249.3184,881,253.3184,871,257.3184,875,253.3184" style="stroke:#181818;stroke-width:1.0;"/><line style="stroke:#181818;stroke-width:1.0;" x1="586" x2="877" y1="253.3184" y2="253.3184"/><text fill="#000000" font-family="sans-serif" font-size="13" font-weight="bold" lengthAdjust="spacing" textLength="7" x="593" y="248.0557">2</text><text fill="#000000" font-family="sans-serif" font-size="13" lengthAdjust="spacing" textLength="105" x="604" y="248.0557">find by passage id</text><polygon fill="#181818" points="597,280.6094,587,284.6094,597,288.6094,593,284.6094" style="stroke:#181818;stroke-width:1.0;"/><line style="stroke:#181818;stroke-width:1.0;stroke-dasharray:2.0,2.0;" x1="591" x2="887" y1="284.6094" y2="284.6094"/><text fill="#000000" font-family="sans-serif" font-size="13" font-weight="bold" lengthAdjust="spacing" textLength="7" x="603" y="279.3467">3</text><text fill="#000000" font-family="sans-serif" font-size="13" lengthAdjust="spacing" textLength="4" x="614" y="279.3467">&#160;</text><path d="M3,299.6094 L64,299.6094 L64,308.9004 L54,318.9004 L3,318.9004 L3,299.6094 " fill="#EEEEEE" style="stroke:#000000;stroke-width:1.5;"/><rect fill="none" height="98.5039" style="stroke:#000000;stroke-width:1.5;" width="638" x="3" y="299.6094"/><text fill="#000000" font-family="sans-serif" font-size="13" font-weight="bold" lengthAdjust="spacing" textLength="16" x="18" y="314.6377">alt</text><text fill="#000000" font-family="sans-serif" font-size="11" font-weight="bold" lengthAdjust="spacing" textLength="135" x="79" y="313.4795">[passage already exists]</text><polygon fill="#181818" points="11,338.1914,1,342.1914,11,346.1914,7,342.1914" style="stroke:#181818;stroke-width:1.0;"/><line style="stroke:#181818;stroke-width:1.0;stroke-dasharray:2.0,2.0;" x1="5" x2="575" y1="342.1914" y2="342.1914"/><text fill="#000000" font-family="sans-serif" font-size="13" font-weight="bold" lengthAdjust="spacing" textLength="7" x="17" y="336.9287">4</text><text fill="#000000" font-family="sans-serif" font-size="13" lengthAdjust="spacing" textLength="163" x="28" y="336.9287">Response status code - 409</text><line style="stroke:#000000;stroke-width:1.0;stroke-dasharray:2.0,2.0;" x1="3" x2="641" y1="351.1914" y2="351.1914"/><text fill="#000000" font-family="sans-serif" font-size="11" font-weight="bold" lengthAdjust="spacing" textLength="122" x="8" y="363.0615">[database unavailable]</text><polygon fill="#181818" points="11,386.1133,1,390.1133,11,394.1133,7,390.1133" style="stroke:#181818;stroke-width:1.0;"/><line style="stroke:#181818;stroke-width:1.0;stroke-dasharray:2.0,2.0;" x1="5" x2="575" y1="390.1133" y2="390.1133"/><text fill="#000000" font-family="sans-serif" font-size="13" font-weight="bold" lengthAdjust="spacing" textLength="7" x="17" y="384.8506">5</text><text fill="#000000" font-family="sans-serif" font-size="13" lengthAdjust="spacing" textLength="163" x="28" y="384.8506">Response status code - 503</text><polygon fill="#181818" points="871,424.4043,881,428.4043,871,432.4043,875,428.4043" style="stroke:#181818;stroke-width:1.0;"/><line style="stroke:#181818;stroke-width:1.0;" x1="586" x2="877" y1="428.4043" y2="428.4043"/><text fill="#000000" font-family="sans-serif" font-size="13" font-weight="bold" lengthAdjust="spacing" textLength="7" x="593" y="423.1416">6</text><text fill="#000000" font-family="sans-serif" font-size="13" lengthAdjust="spacing" textLength="80" x="604" y="423.1416">find by floor id</text><polygon fill="#181818" points="597,455.6953,587,459.6953,597,463.6953,593,459.6953" style="stroke:#181818;stroke-width:1.0;"/><line style="stroke:#181818;stroke-width:1.0;stroke-dasharray:2.0,2.0;" x1="591" x2="887" y1="459.6953" y2="459.6953"/><text fill="#000000" font-family="sans-serif" font-size="13" font-weight="bold" lengthAdjust="spacing" textLength="7" x="603" y="454.4326">7</text><text fill="#000000" font-family="sans-serif" font-size="13" lengthAdjust="spacing" textLength="4" x="614" y="454.4326">&#160;</text><path d="M3,474.6953 L64,474.6953 L64,483.9863 L54,493.9863 L3,493.9863 L3,474.6953 " fill="#EEEEEE" style="stroke:#000000;stroke-width:1.5;"/><rect fill="none" height="98.5039" style="stroke:#000000;stroke-width:1.5;" width="638" x="3" y="474.6953"/><text fill="#000000" font-family="sans-serif" font-size="13" font-weight="bold" lengthAdjust="spacing" textLength="16" x="18" y="489.7236">alt</text><text fill="#000000" font-family="sans-serif" font-size="11" font-weight="bold" lengthAdjust="spacing" textLength="90" x="79" y="488.5654">[floor not found]</text><polygon fill="#181818" points="11,513.2773,1,517.2773,11,521.2773,7,517.2773" style="stroke:#181818;stroke-width:1.0;"/><line style="stroke:#181818;stroke-width:1.0;stroke-dasharray:2.0,2.0;" x1="5" x2="575" y1="517.2773" y2="517.2773"/><text fill="#000000" font-family="sans-serif" font-size="13" font-weight="bold" lengthAdjust="spacing" textLength="7" x="17" y="512.0146">8</text><text fill="#000000" font-family="sans-serif" font-size="13" lengthAdjust="spacing" textLength="163" x="28" y="512.0146">Response status code - 404</text><line style="stroke:#000000;stroke-width:1.0;stroke-dasharray:2.0,2.0;" x1="3" x2="641" y1="526.2773" y2="526.2773"/><text fill="#000000" font-family="sans-serif" font-size="11" font-weight="bold" lengthAdjust="spacing" textLength="122" x="8" y="538.1475">[database unavailable]</text><polygon fill="#181818" points="11,561.1992,1,565.1992,11,569.1992,7,565.1992" style="stroke:#181818;stroke-width:1.0;"/><line style="stroke:#181818;stroke-width:1.0;stroke-dasharray:2.0,2.0;" x1="5" x2="575" y1="565.1992" y2="565.1992"/><text fill="#000000" font-family="sans-serif" font-size="13" font-weight="bold" lengthAdjust="spacing" textLength="7" x="17" y="559.9365">9</text><text fill="#000000" font-family="sans-serif" font-size="13" lengthAdjust="spacing" textLength="163" x="28" y="559.9365">Response status code - 503</text><polygon fill="#181818" points="871,599.4902,881,603.4902,871,607.4902,875,603.4902" style="stroke:#181818;stroke-width:1.0;"/><line style="stroke:#181818;stroke-width:1.0;" x1="586" x2="877" y1="603.4902" y2="603.4902"/><text fill="#000000" font-family="sans-serif" font-size="13" font-weight="bold" lengthAdjust="spacing" textLength="14" x="593" y="598.2275">10</text><text fill="#000000" font-family="sans-serif" font-size="13" lengthAdjust="spacing" textLength="80" x="611" y="598.2275">find by floor id</text><polygon fill="#181818" points="597,630.7813,587,634.7813,597,638.7813,593,634.7813" style="stroke:#181818;stroke-width:1.0;"/><line style="stroke:#181818;stroke-width:1.0;stroke-dasharray:2.0,2.0;" x1="591" x2="887" y1="634.7813" y2="634.7813"/><text fill="#000000" font-family="sans-serif" font-size="13" font-weight="bold" lengthAdjust="spacing" textLength="14" x="603" y="629.5186">11</text><text fill="#000000" font-family="sans-serif" font-size="13" lengthAdjust="spacing" textLength="4" x="621" y="629.5186">&#160;</text><path d="M3,649.7813 L64,649.7813 L64,659.0723 L54,669.0723 L3,669.0723 L3,649.7813 " fill="#EEEEEE" style="stroke:#000000;stroke-width:1.5;"/><rect fill="none" height="98.5039" style="stroke:#000000;stroke-width:1.5;" width="638" x="3" y="649.7813"/><text fill="#000000" font-family="sans-serif" font-size="13" font-weight="bold" lengthAdjust="spacing" textLength="16" x="18" y="664.8096">alt</text><text fill="#000000" font-family="sans-serif" font-size="11" font-weight="bold" lengthAdjust="spacing" textLength="90" x="79" y="663.6514">[floor not found]</text><polygon fill="#181818" points="11,688.3633,1,692.3633,11,696.3633,7,692.3633" style="stroke:#181818;stroke-width:1.0;"/><line style="stroke:#181818;stroke-width:1.0;stroke-dasharray:2.0,2.0;" x1="5" x2="575" y1="692.3633" y2="692.3633"/><text fill="#000000" font-family="sans-serif" font-size="13" font-weight="bold" lengthAdjust="spacing" textLength="14" x="17" y="687.1006">12</text><text fill="#000000" font-family="sans-serif" font-size="13" lengthAdjust="spacing" textLength="163" x="35" y="687.1006">Response status code - 404</text><line style="stroke:#000000;stroke-width:1.0;stroke-dasharray:2.0,2.0;" x1="3" x2="641" y1="701.3633" y2="701.3633"/><text fill="#000000" font-family="sans-serif" font-size="11" font-weight="bold" lengthAdjust="spacing" textLength="122" x="8" y="713.2334">[database unavailable]</text><polygon fill="#181818" points="11,736.2852,1,740.2852,11,744.2852,7,740.2852" style="stroke:#181818;stroke-width:1.0;"/><line style="stroke:#181818;stroke-width:1.0;stroke-dasharray:2.0,2.0;" x1="5" x2="575" y1="740.2852" y2="740.2852"/><text fill="#000000" font-family="sans-serif" font-size="13" font-weight="bold" lengthAdjust="spacing" textLength="14" x="17" y="735.0225">13</text><text fill="#000000" font-family="sans-serif" font-size="13" lengthAdjust="spacing" textLength="163" x="35" y="735.0225">Response status code - 503</text><polygon fill="#181818" points="871,774.5762,881,778.5762,871,782.5762,875,778.5762" style="stroke:#181818;stroke-width:1.0;"/><line style="stroke:#181818;stroke-width:1.0;" x1="586" x2="877" y1="778.5762" y2="778.5762"/><text fill="#000000" font-family="sans-serif" font-size="13" font-weight="bold" lengthAdjust="spacing" textLength="14" x="593" y="773.3135">14</text><text fill="#000000" font-family="sans-serif" font-size="13" lengthAdjust="spacing" textLength="73" x="611" y="773.3135">find by floors</text><polygon fill="#181818" points="597,805.8672,587,809.8672,597,813.8672,593,809.8672" style="stroke:#181818;stroke-width:1.0;"/><line style="stroke:#181818;stroke-width:1.0;stroke-dasharray:2.0,2.0;" x1="591" x2="887" y1="809.8672" y2="809.8672"/><text fill="#000000" font-family="sans-serif" font-size="13" font-weight="bold" lengthAdjust="spacing" textLength="14" x="603" y="804.6045">15</text><text fill="#000000" font-family="sans-serif" font-size="13" lengthAdjust="spacing" textLength="4" x="621" y="804.6045">&#160;</text><path d="M3,824.8672 L64,824.8672 L64,834.1582 L54,844.1582 L3,844.1582 L3,824.8672 " fill="#EEEEEE" style="stroke:#000000;stroke-width:1.5;"/><rect fill="none" height="98.5039" style="stroke:#000000;stroke-width:1.5;" width="638" x="3" y="824.8672"/><text fill="#000000" font-family="sans-serif" font-size="13" font-weight="bold" lengthAdjust="spacing" textLength="16" x="18" y="839.8955">alt</text><text fill="#000000" font-family="sans-serif" font-size="11" font-weight="bold" lengthAdjust="spacing" textLength="135" x="79" y="838.7373">[passage already exists]</text><polygon fill="#181818" points="11,863.4492,1,867.4492,11,871.4492,7,867.4492" style="stroke:#181818;stroke-width:1.0;"/><line style="stroke:#181818;stroke-width:1.0;stroke-dasharray:2.0,2.0;" x1="5" x2="575" y1="867.4492" y2="867.4492"/><text fill="#000000" font-family="sans-serif" font-size="13" font-weight="bold" lengthAdjust="spacing" textLength="14" x="17" y="862.1865">16</text><text fill="#000000" font-family="sans-serif" font-size="13" lengthAdjust="spacing" textLength="163" x="35" y="862.1865">Response status code - 409</text><line style="stroke:#000000;stroke-width:1.0;stroke-dasharray:2.0,2.0;" x1="3" x2="641" y1="876.4492" y2="876.4492"/><text fill="#000000" font-family="sans-serif" font-size="11" font-weight="bold" lengthAdjust="spacing" textLength="122" x="8" y="888.3193">[database unavailable]</text><polygon fill="#181818" points="11,911.3711,1,915.3711,11,919.3711,7,915.3711" style="stroke:#181818;stroke-width:1.0;"/><line style="stroke:#181818;stroke-width:1.0;stroke-dasharray:2.0,2.0;" x1="5" x2="575" y1="915.3711" y2="915.3711"/><text fill="#000000" font-family="sans-serif" font-size="13" font-weight="bold" lengthAdjust="spacing" textLength="14" x="17" y="910.1084">17</text><text fill="#000000" font-family="sans-serif" font-size="13" lengthAdjust="spacing" textLength="163" x="35" y="910.1084">Response status code - 503</text><polygon fill="#181818" points="871,949.6621,881,953.6621,871,957.6621,875,953.6621" style="stroke:#181818;stroke-width:1.0;"/><line style="stroke:#181818;stroke-width:1.0;" x1="586" x2="877" y1="953.6621" y2="953.6621"/><text fill="#000000" font-family="sans-serif" font-size="13" font-weight="bold" lengthAdjust="spacing" textLength="14" x="593" y="948.3994">18</text><text fill="#000000" font-family="sans-serif" font-size="13" lengthAdjust="spacing" textLength="260" x="611" y="948.3994">is there a passage between floor and building</text><polygon fill="#181818" points="597,980.9531,587,984.9531,597,988.9531,593,984.9531" style="stroke:#181818;stroke-width:1.0;"/><line style="stroke:#181818;stroke-width:1.0;stroke-dasharray:2.0,2.0;" x1="591" x2="887" y1="984.9531" y2="984.9531"/><text fill="#000000" font-family="sans-serif" font-size="13" font-weight="bold" lengthAdjust="spacing" textLength="14" x="603" y="979.6904">19</text><text fill="#000000" font-family="sans-serif" font-size="13" lengthAdjust="spacing" textLength="4" x="621" y="979.6904">&#160;</text><path d="M3,999.9531 L64,999.9531 L64,1009.2441 L54,1019.2441 L3,1019.2441 L3,999.9531 " fill="#EEEEEE" style="stroke:#000000;stroke-width:1.5;"/><rect fill="none" height="98.5039" style="stroke:#000000;stroke-width:1.5;" width="638" x="3" y="999.9531"/><text fill="#000000" font-family="sans-serif" font-size="13" font-weight="bold" lengthAdjust="spacing" textLength="16" x="18" y="1014.9814">alt</text><text fill="#000000" font-family="sans-serif" font-size="11" font-weight="bold" lengthAdjust="spacing" textLength="135" x="79" y="1013.8232">[passage already exists]</text><polygon fill="#181818" points="11,1038.5352,1,1042.5352,11,1046.5352,7,1042.5352" style="stroke:#181818;stroke-width:1.0;"/><line style="stroke:#181818;stroke-width:1.0;stroke-dasharray:2.0,2.0;" x1="5" x2="575" y1="1042.5352" y2="1042.5352"/><text fill="#000000" font-family="sans-serif" font-size="13" font-weight="bold" lengthAdjust="spacing" textLength="14" x="17" y="1037.2725">20</text><text fill="#000000" font-family="sans-serif" font-size="13" lengthAdjust="spacing" textLength="163" x="35" y="1037.2725">Response status code - 409</text><line style="stroke:#000000;stroke-width:1.0;stroke-dasharray:2.0,2.0;" x1="3" x2="641" y1="1051.5352" y2="1051.5352"/><text fill="#000000" font-family="sans-serif" font-size="11" font-weight="bold" lengthAdjust="spacing" textLength="122" x="8" y="1063.4053">[database unavailable]</text><polygon fill="#181818" points="11,1086.457,1,1090.457,11,1094.457,7,1090.457" style="stroke:#181818;stroke-width:1.0;"/><line style="stroke:#181818;stroke-width:1.0;stroke-dasharray:2.0,2.0;" x1="5" x2="575" y1="1090.457" y2="1090.457"/><text fill="#000000" font-family="sans-serif" font-size="13" font-weight="bold" lengthAdjust="spacing" textLength="14" x="17" y="1085.1943">21</text><text fill="#000000" font-family="sans-serif" font-size="13" lengthAdjust="spacing" textLength="163" x="35" y="1085.1943">Response status code - 503</text><polygon fill="#181818" points="871,1124.748,881,1128.748,871,1132.748,875,1128.748" style="stroke:#181818;stroke-width:1.0;"/><line style="stroke:#181818;stroke-width:1.0;" x1="586" x2="877" y1="1128.748" y2="1128.748"/><text fill="#000000" font-family="sans-serif" font-size="13" font-weight="bold" lengthAdjust="spacing" textLength="14" x="593" y="1123.4854">22</text><text fill="#000000" font-family="sans-serif" font-size="13" lengthAdjust="spacing" textLength="260" x="611" y="1123.4854">is there a passage between floor and building</text><polygon fill="#181818" points="597,1156.0391,587,1160.0391,597,1164.0391,593,1160.0391" style="stroke:#181818;stroke-width:1.0;"/><line style="stroke:#181818;stroke-width:1.0;stroke-dasharray:2.0,2.0;" x1="591" x2="887" y1="1160.0391" y2="1160.0391"/><text fill="#000000" font-family="sans-serif" font-size="13" font-weight="bold" lengthAdjust="spacing" textLength="14" x="603" y="1154.7764">23</text><text fill="#000000" font-family="sans-serif" font-size="13" lengthAdjust="spacing" textLength="4" x="621" y="1154.7764">&#160;</text><path d="M3,1175.0391 L64,1175.0391 L64,1184.3301 L54,1194.3301 L3,1194.3301 L3,1175.0391 " fill="#EEEEEE" style="stroke:#000000;stroke-width:1.5;"/><rect fill="none" height="98.5039" style="stroke:#000000;stroke-width:1.5;" width="638" x="3" y="1175.0391"/><text fill="#000000" font-family="sans-serif" font-size="13" font-weight="bold" lengthAdjust="spacing" textLength="16" x="18" y="1190.0674">alt</text><text fill="#000000" font-family="sans-serif" font-size="11" font-weight="bold" lengthAdjust="spacing" textLength="156" x="79" y="1188.9092">[passage 409 already exists]</text><polygon fill="#181818" points="11,1213.6211,1,1217.6211,11,1221.6211,7,1217.6211" style="stroke:#181818;stroke-width:1.0;"/><line style="stroke:#181818;stroke-width:1.0;stroke-dasharray:2.0,2.0;" x1="5" x2="575" y1="1217.6211" y2="1217.6211"/><text fill="#000000" font-family="sans-serif" font-size="13" font-weight="bold" lengthAdjust="spacing" textLength="14" x="17" y="1212.3584">24</text><text fill="#000000" font-family="sans-serif" font-size="13" lengthAdjust="spacing" textLength="163" x="35" y="1212.3584">Response status code - 409</text><line style="stroke:#000000;stroke-width:1.0;stroke-dasharray:2.0,2.0;" x1="3" x2="641" y1="1226.6211" y2="1226.6211"/><text fill="#000000" font-family="sans-serif" font-size="11" font-weight="bold" lengthAdjust="spacing" textLength="122" x="8" y="1238.4912">[database unavailable]</text><polygon fill="#181818" points="11,1261.543,1,1265.543,11,1269.543,7,1265.543" style="stroke:#181818;stroke-width:1.0;"/><line style="stroke:#181818;stroke-width:1.0;stroke-dasharray:2.0,2.0;" x1="5" x2="575" y1="1265.543" y2="1265.543"/><text fill="#000000" font-family="sans-serif" font-size="13" font-weight="bold" lengthAdjust="spacing" textLength="14" x="17" y="1260.2803">25</text><text fill="#000000" font-family="sans-serif" font-size="13" lengthAdjust="spacing" textLength="163" x="35" y="1260.2803">Response status code - 503</text><polygon fill="#181818" points="871,1299.834,881,1303.834,871,1307.834,875,1303.834" style="stroke:#181818;stroke-width:1.0;"/><line style="stroke:#181818;stroke-width:1.0;" x1="586" x2="877" y1="1303.834" y2="1303.834"/><text fill="#000000" font-family="sans-serif" font-size="13" font-weight="bold" lengthAdjust="spacing" textLength="14" x="593" y="1298.5713">26</text><text fill="#000000" font-family="sans-serif" font-size="13" lengthAdjust="spacing" textLength="26" x="611" y="1298.5713">save</text><polygon fill="#181818" points="597,1331.125,587,1335.125,597,1339.125,593,1335.125" style="stroke:#181818;stroke-width:1.0;"/><line style="stroke:#181818;stroke-width:1.0;stroke-dasharray:2.0,2.0;" x1="591" x2="887" y1="1335.125" y2="1335.125"/><text fill="#000000" font-family="sans-serif" font-size="13" font-weight="bold" lengthAdjust="spacing" textLength="14" x="603" y="1329.8623">27</text><text fill="#000000" font-family="sans-serif" font-size="13" lengthAdjust="spacing" textLength="4" x="621" y="1329.8623">&#160;</text><path d="M3,1350.125 L64,1350.125 L64,1359.416 L54,1369.416 L3,1369.416 L3,1350.125 " fill="#EEEEEE" style="stroke:#000000;stroke-width:1.5;"/><rect fill="none" height="98.5039" style="stroke:#000000;stroke-width:1.5;" width="638" x="3" y="1350.125"/><text fill="#000000" font-family="sans-serif" font-size="13" font-weight="bold" lengthAdjust="spacing" textLength="16" x="18" y="1365.1533">alt</text><text fill="#000000" font-family="sans-serif" font-size="11" font-weight="bold" lengthAdjust="spacing" textLength="112" x="79" y="1363.9951">[passage persisted]</text><polygon fill="#181818" points="11,1388.707,1,1392.707,11,1396.707,7,1392.707" style="stroke:#181818;stroke-width:1.0;"/><line style="stroke:#181818;stroke-width:1.0;stroke-dasharray:2.0,2.0;" x1="5" x2="575" y1="1392.707" y2="1392.707"/><text fill="#000000" font-family="sans-serif" font-size="13" font-weight="bold" lengthAdjust="spacing" textLength="14" x="17" y="1387.4443">28</text><text fill="#000000" font-family="sans-serif" font-size="13" lengthAdjust="spacing" textLength="163" x="35" y="1387.4443">Response status code - 201</text><line style="stroke:#000000;stroke-width:1.0;stroke-dasharray:2.0,2.0;" x1="3" x2="641" y1="1401.707" y2="1401.707"/><text fill="#000000" font-family="sans-serif" font-size="11" font-weight="bold" lengthAdjust="spacing" textLength="122" x="8" y="1413.5771">[database unavailable]</text><polygon fill="#181818" points="11,1436.6289,1,1440.6289,11,1444.6289,7,1440.6289" style="stroke:#181818;stroke-width:1.0;"/><line style="stroke:#181818;stroke-width:1.0;stroke-dasharray:2.0,2.0;" x1="5" x2="575" y1="1440.6289" y2="1440.6289"/><text fill="#000000" font-family="sans-serif" font-size="13" font-weight="bold" lengthAdjust="spacing" textLength="14" x="17" y="1435.3662">29</text><text fill="#000000" font-family="sans-serif" font-size="13" lengthAdjust="spacing" textLength="163" x="35" y="1435.3662">Response status code - 503</text><line style="stroke:#000000;stroke-width:1.0;stroke-dasharray:2.0,2.0;" x1="3" x2="944" y1="1456.6289" y2="1456.6289"/><text fill="#000000" font-family="sans-serif" font-size="11" font-weight="bold" lengthAdjust="spacing" textLength="110" x="8" y="1468.499">[user unauthorized]</text><polygon fill="#181818" points="11,1491.5508,1,1495.5508,11,1499.5508,7,1495.5508" style="stroke:#181818;stroke-width:1.0;"/><line style="stroke:#181818;stroke-width:1.0;stroke-dasharray:2.0,2.0;" x1="5" x2="575" y1="1495.5508" y2="1495.5508"/><text fill="#000000" font-family="sans-serif" font-size="13" font-weight="bold" lengthAdjust="spacing" textLength="14" x="17" y="1490.2881">30</text><text fill="#000000" font-family="sans-serif" font-size="13" lengthAdjust="spacing" textLength="163" x="35" y="1490.2881">Response status code - 401</text><!--SRC=[tPLDRzim38Rl-XL4Bjc064ktxZ0Zo53NAP3JWgN7NHYBROKwac7IMRmY_tsquxJTi0zlo3vlj4HHVDvNbh2IuAlrYah3jyuNME8Q2inkyPgMKkS49MLYZ3ZH-Bma5885CkkyCPekBdC5Ue51egkYcRS3G8Pa1fD95jP5yEHbEZKM1LV818DKeqIZDYzDFiipqLGNnx1uixpKHjgD-DcT3MjqVcvVnt08H_3ETmbBqKOMmNc9uUug3w6SsnYwO0HNhcGvrm_hlFRFchIDOJk2EePwDu8Slp6zQ_OvTA9ulsgRdJ6O2rHC9M0bDw5q7yWQCxnmtiAgFgWEytIegPcuJUD5CZD6nLRLqaHxwNAxTi7PHwbfOepg7UqLDiRI9rFDxeTrcAlJjWRQEXOs1c0IHQqlRudLA_MH1QLYo88bYE1q_CeOodNytkZAumPTZgkSUXHuENwX1Rps-q1yqIYhlF246uEBHlcdtuTl3VbXzFqg7pGALTD73-RJOp5_0Ld7_sFWZlXmffEEd7l2yhzth8TpXiiRAWdE7h19tXFvplKp1Kmgb-lzSDtpo3i6QMlYFUEggxct5nlHkfh7qUol5gt7J_CR95C1_gniNsDdtD3F8HLKie9GdslY-VZaM21jbVP9r0gF7iKUOfxiItm4]--></g></svg>