<?xml version="1.0" encoding="us-ascii" standalone="no"?><svg xmlns="http://www.w3.org/2000/svg" xmlns:xlink="http://www.w3.org/1999/xlink" contentStyleType="text/css" height="694px" preserveAspectRatio="none" style="width:688px;height:694px;background:#FFFFFF;" version="1.1" viewBox="0 0 688 694" width="688px" zoomAndPan="magnify"><defs/><g><text fill="#000000" font-family="sans-serif" font-size="14" font-weight="bold" lengthAdjust="spacing" textLength="129" x="280.5" y="30.1074">Create {Resource}</text><rect fill="#FFFFFF" height="431.3555" style="stroke:#181818;stroke-width:1.0;" width="10" x="54.5" y="151.8633"/><rect fill="#FFFFFF" height="393.0645" style="stroke:#181818;stroke-width:1.0;" width="10" x="358.5" y="175.1543"/><rect fill="#FFFFFF" height="323.4824" style="stroke:#181818;stroke-width:1.0;" width="10" x="566.5" y="206.4453"/><rect fill="none" height="354.7734" style="stroke:#000000;stroke-width:1.5;" width="671" x="10" y="221.4453"/><rect fill="none" height="210.9785" style="stroke:#000000;stroke-width:1.5;" width="367.5" x="303.5" y="326.9492"/><line style="stroke:#181818;stroke-width:0.5;stroke-dasharray:5.0,5.0;" x1="59" x2="59" y1="141.8633" y2="593.2188"/><line style="stroke:#181818;stroke-width:0.5;stroke-dasharray:5.0,5.0;" x1="363.5" x2="363.5" y1="141.8633" y2="593.2188"/><line style="stroke:#181818;stroke-width:0.5;stroke-dasharray:5.0,5.0;" x1="571" x2="571" y1="141.8633" y2="593.2188"/><text fill="#000000" font-family="sans-serif" font-size="14" font-style="italic" lengthAdjust="spacing" textLength="73" x="20" y="119.7285">&#171;DEI User&#187;</text><text fill="#000000" font-family="sans-serif" font-size="14" lengthAdjust="spacing" textLength="29" x="42" y="138.3496">User</text><ellipse cx="59.5" cy="53.1211" fill="#E2E2F0" rx="8" ry="8" style="stroke:#181818;stroke-width:0.5;"/><path d="M59.5,61.1211 L59.5,88.1211 M46.5,69.1211 L72.5,69.1211 M59.5,88.1211 L46.5,103.1211 M59.5,88.1211 L72.5,103.1211 " fill="none" style="stroke:#181818;stroke-width:0.5;"/><text fill="#000000" font-family="sans-serif" font-size="14" font-style="italic" lengthAdjust="spacing" textLength="73" x="20" y="607.3262">&#171;DEI User&#187;</text><text fill="#000000" font-family="sans-serif" font-size="14" lengthAdjust="spacing" textLength="29" x="42" y="625.9473">User</text><ellipse cx="59.5" cy="637.9609" fill="#E2E2F0" rx="8" ry="8" style="stroke:#181818;stroke-width:0.5;"/><path d="M59.5,645.9609 L59.5,672.9609 M46.5,653.9609 L72.5,653.9609 M59.5,672.9609 L46.5,687.9609 M59.5,672.9609 L72.5,687.9609 " fill="none" style="stroke:#181818;stroke-width:0.5;"/><rect fill="#E2E2F0" height="51.2422" rx="2.5" ry="2.5" style="stroke:#181818;stroke-width:0.5;" width="100" x="313.5" y="89.6211"/><text fill="#000000" font-family="sans-serif" font-size="14" font-style="italic" lengthAdjust="spacing" textLength="86" x="320.5" y="111.7285">&#171;component&#187;</text><text fill="#000000" font-family="sans-serif" font-size="14" lengthAdjust="spacing" textLength="83" x="322" y="130.3496">PortalModule</text><rect fill="#E2E2F0" height="51.2422" rx="2.5" ry="2.5" style="stroke:#181818;stroke-width:0.5;" width="100" x="313.5" y="592.2188"/><text fill="#000000" font-family="sans-serif" font-size="14" font-style="italic" lengthAdjust="spacing" textLength="86" x="320.5" y="614.3262">&#171;component&#187;</text><text fill="#000000" font-family="sans-serif" font-size="14" lengthAdjust="spacing" textLength="83" x="322" y="632.9473">PortalModule</text><rect fill="#E2E2F0" height="51.2422" rx="2.5" ry="2.5" style="stroke:#181818;stroke-width:0.5;" width="179" x="482" y="89.6211"/><text fill="#000000" font-family="sans-serif" font-size="14" font-style="italic" lengthAdjust="spacing" textLength="86" x="528.5" y="111.7285">&#171;component&#187;</text><text fill="#000000" font-family="sans-serif" font-size="14" lengthAdjust="spacing" textLength="165" x="489" y="130.3496">DataAdministrationModule</text><rect fill="#E2E2F0" height="51.2422" rx="2.5" ry="2.5" style="stroke:#181818;stroke-width:0.5;" width="179" x="482" y="592.2188"/><text fill="#000000" font-family="sans-serif" font-size="14" font-style="italic" lengthAdjust="spacing" textLength="86" x="528.5" y="614.3262">&#171;component&#187;</text><text fill="#000000" font-family="sans-serif" font-size="14" lengthAdjust="spacing" textLength="165" x="489" y="632.9473">DataAdministrationModule</text><rect fill="#FFFFFF" height="431.3555" style="stroke:#181818;stroke-width:1.0;" width="10" x="54.5" y="151.8633"/><rect fill="#FFFFFF" height="393.0645" style="stroke:#181818;stroke-width:1.0;" width="10" x="358.5" y="175.1543"/><rect fill="#FFFFFF" height="323.4824" style="stroke:#181818;stroke-width:1.0;" width="10" x="566.5" y="206.4453"/><polygon fill="#181818" points="346.5,171.1543,356.5,175.1543,346.5,179.1543,350.5,175.1543" style="stroke:#181818;stroke-width:1.0;"/><line style="stroke:#181818;stroke-width:1.0;" x1="64.5" x2="352.5" y1="175.1543" y2="175.1543"/><text fill="#000000" font-family="sans-serif" font-size="13" font-weight="bold" lengthAdjust="spacing" textLength="7" x="71.5" y="169.8916">1</text><text fill="#000000" font-family="sans-serif" font-size="13" lengthAdjust="spacing" textLength="264" x="82.5" y="169.8916">Fills and submits the {Resource} Create Form</text><polygon fill="#181818" points="554.5,202.4453,564.5,206.4453,554.5,210.4453,558.5,206.4453" style="stroke:#181818;stroke-width:1.0;"/><line style="stroke:#181818;stroke-width:1.0;" x1="368.5" x2="560.5" y1="206.4453" y2="206.4453"/><text fill="#000000" font-family="sans-serif" font-size="13" font-weight="bold" lengthAdjust="spacing" textLength="7" x="375.5" y="201.1826">2</text><text fill="#000000" font-family="sans-serif" font-size="13" lengthAdjust="spacing" textLength="106" x="386.5" y="201.1826">POST /{Resource}</text><path d="M10,221.4453 L71,221.4453 L71,230.7363 L61,240.7363 L10,240.7363 L10,221.4453 " fill="#EEEEEE" style="stroke:#000000;stroke-width:1.5;"/><rect fill="none" height="354.7734" style="stroke:#000000;stroke-width:1.5;" width="671" x="10" y="221.4453"/><text fill="#000000" font-family="sans-serif" font-size="13" font-weight="bold" lengthAdjust="spacing" textLength="16" x="25" y="236.4736">alt</text><text fill="#000000" font-family="sans-serif" font-size="11" font-weight="bold" lengthAdjust="spacing" textLength="55" x="86" y="235.3154">[success]</text><polygon fill="#181818" points="379.5,260.0273,369.5,264.0273,379.5,268.0273,375.5,264.0273" style="stroke:#181818;stroke-width:1.0;"/><line style="stroke:#181818;stroke-width:1.0;stroke-dasharray:2.0,2.0;" x1="373.5" x2="565.5" y1="264.0273" y2="264.0273"/><text fill="#000000" font-family="sans-serif" font-size="13" font-weight="bold" lengthAdjust="spacing" textLength="7" x="385.5" y="258.7646">3</text><text fill="#000000" font-family="sans-serif" font-size="13" lengthAdjust="spacing" textLength="163" x="396.5" y="258.7646">Response status code - 201</text><polygon fill="#181818" points="75.5,291.3184,65.5,295.3184,75.5,299.3184,71.5,295.3184" style="stroke:#181818;stroke-width:1.0;"/><line style="stroke:#181818;stroke-width:1.0;stroke-dasharray:2.0,2.0;" x1="69.5" x2="357.5" y1="295.3184" y2="295.3184"/><text fill="#000000" font-family="sans-serif" font-size="13" font-weight="bold" lengthAdjust="spacing" textLength="7" x="81.5" y="290.0557">4</text><text fill="#000000" font-family="sans-serif" font-size="13" lengthAdjust="spacing" textLength="158" x="92.5" y="290.0557">displays success message</text><line style="stroke:#000000;stroke-width:1.0;stroke-dasharray:2.0,2.0;" x1="10" x2="681" y1="304.3184" y2="304.3184"/><text fill="#000000" font-family="sans-serif" font-size="11" font-weight="bold" lengthAdjust="spacing" textLength="83" x="15" y="316.1885">[unsuccessful]</text><path d="M303.5,326.9492 L364.5,326.9492 L364.5,336.2402 L354.5,346.2402 L303.5,346.2402 L303.5,326.9492 " fill="#EEEEEE" style="stroke:#000000;stroke-width:1.5;"/><rect fill="none" height="210.9785" style="stroke:#000000;stroke-width:1.5;" width="367.5" x="303.5" y="326.9492"/><text fill="#000000" font-family="sans-serif" font-size="13" font-weight="bold" lengthAdjust="spacing" textLength="16" x="318.5" y="341.9775">alt</text><line style="stroke:#000000;stroke-width:1.0;stroke-dasharray:2.0,2.0;" x1="303.5" x2="671" y1="347.2402" y2="347.2402"/><text fill="#000000" font-family="sans-serif" font-size="11" font-weight="bold" lengthAdjust="spacing" textLength="69" x="308.5" y="359.1104">[invalid data]</text><polygon fill="#181818" points="379.5,382.1621,369.5,386.1621,379.5,390.1621,375.5,386.1621" style="stroke:#181818;stroke-width:1.0;"/><line style="stroke:#181818;stroke-width:1.0;stroke-dasharray:2.0,2.0;" x1="373.5" x2="565.5" y1="386.1621" y2="386.1621"/><text fill="#000000" font-family="sans-serif" font-size="13" font-weight="bold" lengthAdjust="spacing" textLength="7" x="385.5" y="380.8994">5</text><text fill="#000000" font-family="sans-serif" font-size="13" lengthAdjust="spacing" textLength="163" x="396.5" y="380.8994">Response status code - 400</text><line style="stroke:#000000;stroke-width:1.0;stroke-dasharray:2.0,2.0;" x1="303.5" x2="671" y1="395.1621" y2="395.1621"/><text fill="#000000" font-family="sans-serif" font-size="11" font-weight="bold" lengthAdjust="spacing" textLength="115" x="308.5" y="407.0322">[resource not found]</text><polygon fill="#181818" points="379.5,430.084,369.5,434.084,379.5,438.084,375.5,434.084" style="stroke:#181818;stroke-width:1.0;"/><line style="stroke:#181818;stroke-width:1.0;stroke-dasharray:2.0,2.0;" x1="373.5" x2="565.5" y1="434.084" y2="434.084"/><text fill="#000000" font-family="sans-serif" font-size="13" font-weight="bold" lengthAdjust="spacing" textLength="7" x="385.5" y="428.8213">6</text><text fill="#000000" font-family="sans-serif" font-size="13" lengthAdjust="spacing" textLength="163" x="396.5" y="428.8213">Response status code - 404</text><line style="stroke:#000000;stroke-width:1.0;stroke-dasharray:2.0,2.0;" x1="303.5" x2="671" y1="443.084" y2="443.084"/><text fill="#000000" font-family="sans-serif" font-size="11" font-weight="bold" lengthAdjust="spacing" textLength="119" x="308.5" y="454.9541">[entity already exists]</text><polygon fill="#181818" points="379.5,478.0059,369.5,482.0059,379.5,486.0059,375.5,482.0059" style="stroke:#181818;stroke-width:1.0;"/><line style="stroke:#181818;stroke-width:1.0;stroke-dasharray:2.0,2.0;" x1="373.5" x2="565.5" y1="482.0059" y2="482.0059"/><text fill="#000000" font-family="sans-serif" font-size="13" font-weight="bold" lengthAdjust="spacing" textLength="7" x="385.5" y="476.7432">7</text><text fill="#000000" font-family="sans-serif" font-size="13" lengthAdjust="spacing" textLength="163" x="396.5" y="476.7432">Response status code - 409</text><line style="stroke:#000000;stroke-width:1.0;stroke-dasharray:2.0,2.0;" x1="303.5" x2="671" y1="491.0059" y2="491.0059"/><text fill="#000000" font-family="sans-serif" font-size="11" font-weight="bold" lengthAdjust="spacing" textLength="122" x="308.5" y="502.876">[database unavailable]</text><polygon fill="#181818" points="379.5,525.9277,369.5,529.9277,379.5,533.9277,375.5,529.9277" style="stroke:#181818;stroke-width:1.0;"/><line style="stroke:#181818;stroke-width:1.0;stroke-dasharray:2.0,2.0;" x1="373.5" x2="570.5" y1="529.9277" y2="529.9277"/><text fill="#000000" font-family="sans-serif" font-size="13" font-weight="bold" lengthAdjust="spacing" textLength="7" x="385.5" y="524.665">8</text><text fill="#000000" font-family="sans-serif" font-size="13" lengthAdjust="spacing" textLength="163" x="396.5" y="524.665">Response status code - 503</text><polygon fill="#181818" points="75.5,564.2188,65.5,568.2188,75.5,572.2188,71.5,568.2188" style="stroke:#181818;stroke-width:1.0;"/><line style="stroke:#181818;stroke-width:1.0;stroke-dasharray:2.0,2.0;" x1="69.5" x2="362.5" y1="568.2188" y2="568.2188"/><text fill="#000000" font-family="sans-serif" font-size="13" font-weight="bold" lengthAdjust="spacing" textLength="7" x="81.5" y="562.9561">9</text><text fill="#000000" font-family="sans-serif" font-size="13" lengthAdjust="spacing" textLength="128" x="92.5" y="562.9561">display error message</text><!--SRC=[ZPB1JW8n48RlVOe9zuseU90G4YAIU20IS1zWQ0TjwBQRTaeandTtoa94l73PR6Rd_-R_PnOp1v-RDKMLjjQt6B615lKMtsd5UqSGIRDIR5dUdo8X4tmjAOKSDNqhXPf3X5wTAFO04zGm6asVNw0KncCbGBRQjkWPUeiG6TqycEpeqBnSpALTXwODdZnVza-HSM8QwstYY6o3FzDE9vVQuiNkYi5QgHggSU4F0MRMkGJe3QIyRYmdu8_p4ATOin2RNuPeLV4d61arXCNhwWrkBg9thV9TeMF1Qqqf7MIZgkfq8X27YI0nSawWWo6euAv_MqoMjeDBOrFhS9zE46Za8KTGYfo8ip_MDzcLMLtL-XqwQy38eXHSCtRGxtVIUCm1FZ1iGlRcMi2W0yZEBUy1dIpFx84-vKZfMiPZnoY-rtY8Xpkq3jUEhaCyzEyL6Ffp0YeP_gyKA4RvHK_xF1EL4nVHUQrMFm00]--></g></svg>