<?xml version="1.0" encoding="us-ascii" standalone="no"?><svg xmlns="http://www.w3.org/2000/svg" xmlns:xlink="http://www.w3.org/1999/xlink" contentStyleType="text/css" height="579.2px" preserveAspectRatio="none" style="width:333px;height:579px;background:#FFFFFF;" version="1.1" viewBox="0 0 333 579" width="333.6px" zoomAndPan="magnify"><defs/><g><text fill="#000000" font-family="sans-serif" font-size="11.2" font-weight="bold" lengthAdjust="spacing" textLength="91.2" x="122" y="24.0859">Disable Robisep</text><rect fill="#FFFFFF" height="363.7172" style="stroke:#181818;stroke-width:0.8000000000000002;" width="8" x="168.8" y="128.9234"/><rect fill="#FFFFFF" height="25.0328" style="stroke:#181818;stroke-width:0.8000000000000002;" width="8" x="279.2" y="174.9891"/><rect fill="#FFFFFF" height="25.0328" style="stroke:#181818;stroke-width:0.8000000000000002;" width="8" x="279.2" y="315.0578"/><rect fill="none" height="345.3172" style="stroke:#000000;stroke-width:1.2000000000000002;" width="325.6" x="2.4" y="140.9234"/><rect fill="none" height="78.8031" style="stroke:#000000;stroke-width:1.2000000000000002;" width="218.4" x="2.4" y="212.0219"/><rect fill="none" height="90.2125" style="stroke:#000000;stroke-width:1.2000000000000002;" width="218.4" x="2.4" y="352.0906"/><line style="stroke:#181818;stroke-width:0.4000000000000001;stroke-dasharray:5.0,5.0;" x1="172.8" x2="172.8" y1="102.2906" y2="499.8406"/><line style="stroke:#181818;stroke-width:0.4000000000000001;stroke-dasharray:5.0,5.0;" x1="283.2" x2="283.2" y1="102.2906" y2="499.8406"/><rect fill="#E2E2F0" height="40.9938" rx="2" ry="2" style="stroke:#181818;stroke-width:0.4000000000000001;" width="80" x="132.8" y="60.4969"/><text fill="#000000" font-family="sans-serif" font-size="11.2" font-style="italic" lengthAdjust="spacing" textLength="68.8" x="138.4" y="78.1828">&#171;component&#187;</text><text fill="#000000" font-family="sans-serif" font-size="11.2" lengthAdjust="spacing" textLength="48.8" x="148.4" y="93.0797">Back-End</text><rect fill="#E2E2F0" height="40.9938" rx="2" ry="2" style="stroke:#181818;stroke-width:0.4000000000000001;" width="80" x="132.8" y="499.0406"/><text fill="#000000" font-family="sans-serif" font-size="11.2" font-style="italic" lengthAdjust="spacing" textLength="68.8" x="138.4" y="516.7266">&#171;component&#187;</text><text fill="#000000" font-family="sans-serif" font-size="11.2" lengthAdjust="spacing" textLength="48.8" x="148.4" y="531.6234">Back-End</text><text fill="#000000" font-family="sans-serif" font-size="11.2" font-style="italic" lengthAdjust="spacing" textLength="68.8" x="246.4" y="84.5828">&#171;component&#187;</text><text fill="#000000" font-family="sans-serif" font-size="11.2" lengthAdjust="spacing" textLength="49.6" x="256" y="99.4797">DataBase</text><path d="M268.8,43.6969 C268.8,35.6969 283.2,35.6969 283.2,35.6969 C283.2,35.6969 297.6,35.6969 297.6,43.6969 L297.6,64.4969 C297.6,72.4969 283.2,72.4969 283.2,72.4969 C283.2,72.4969 268.8,72.4969 268.8,64.4969 L268.8,43.6969 " fill="#E2E2F0" style="stroke:#181818;stroke-width:1.2000000000000002;"/><path d="M268.8,43.6969 C268.8,51.6969 283.2,51.6969 283.2,51.6969 C283.2,51.6969 297.6,51.6969 297.6,43.6969 " fill="none" style="stroke:#181818;stroke-width:1.2000000000000002;"/><text fill="#000000" font-family="sans-serif" font-size="11.2" font-style="italic" lengthAdjust="spacing" textLength="68.8" x="246.4" y="511.1266">&#171;component&#187;</text><text fill="#000000" font-family="sans-serif" font-size="11.2" lengthAdjust="spacing" textLength="49.6" x="256" y="526.0234">DataBase</text><path d="M268.8,536.8344 C268.8,528.8344 283.2,528.8344 283.2,528.8344 C283.2,528.8344 297.6,528.8344 297.6,536.8344 L297.6,557.6344 C297.6,565.6344 283.2,565.6344 283.2,565.6344 C283.2,565.6344 268.8,565.6344 268.8,557.6344 L268.8,536.8344 " fill="#E2E2F0" style="stroke:#181818;stroke-width:1.2000000000000002;"/><path d="M268.8,536.8344 C268.8,544.8344 283.2,544.8344 283.2,544.8344 C283.2,544.8344 297.6,544.8344 297.6,536.8344 " fill="none" style="stroke:#181818;stroke-width:1.2000000000000002;"/><rect fill="#FFFFFF" height="363.7172" style="stroke:#181818;stroke-width:0.8000000000000002;" width="8" x="168.8" y="128.9234"/><rect fill="#FFFFFF" height="25.0328" style="stroke:#181818;stroke-width:0.8000000000000002;" width="8" x="279.2" y="174.9891"/><rect fill="#FFFFFF" height="25.0328" style="stroke:#181818;stroke-width:0.8000000000000002;" width="8" x="279.2" y="315.0578"/><polygon fill="#181818" points="159.2,125.7234,167.2,128.9234,159.2,132.1234,162.4,128.9234" style="stroke:#181818;stroke-width:0.8000000000000002;"/><line style="stroke:#181818;stroke-width:0.8000000000000002;" x1="0" x2="164" y1="128.9234" y2="128.9234"/><text fill="#000000" font-family="sans-serif" font-size="10.4" font-weight="bold" lengthAdjust="spacing" textLength="5.6" x="5.6" y="124.7133">1</text><text fill="#000000" font-family="sans-serif" font-size="10.4" lengthAdjust="spacing" textLength="139.2" x="14.4" y="124.7133">PATCH robiseps/{state: state}</text><path d="M2.4,140.9234 L51.2,140.9234 L51.2,148.3563 L43.2,156.3563 L2.4,156.3563 L2.4,140.9234 " fill="#EEEEEE" style="stroke:#000000;stroke-width:1.2000000000000002;"/><rect fill="none" height="345.3172" style="stroke:#000000;stroke-width:1.2000000000000002;" width="325.6" x="2.4" y="140.9234"/><text fill="#000000" font-family="sans-serif" font-size="10.4" font-weight="bold" lengthAdjust="spacing" textLength="12.8" x="14.4" y="152.9461">alt</text><text fill="#000000" font-family="sans-serif" font-size="8.8" font-weight="bold" lengthAdjust="spacing" textLength="76.8" x="63.2" y="152.0195">[user authorized]</text><polygon fill="#181818" points="269.6,171.7891,277.6,174.9891,269.6,178.1891,272.8,174.9891" style="stroke:#181818;stroke-width:0.8000000000000002;"/><line style="stroke:#181818;stroke-width:0.8000000000000002;" x1="176.8" x2="274.4" y1="174.9891" y2="174.9891"/><text fill="#000000" font-family="sans-serif" font-size="10.4" font-weight="bold" lengthAdjust="spacing" textLength="5.6" x="182.4" y="170.7789">2</text><text fill="#000000" font-family="sans-serif" font-size="10.4" lengthAdjust="spacing" textLength="78.4" x="191.2" y="170.7789">find by robisep id</text><polygon fill="#181818" points="185.6,196.8219,177.6,200.0219,185.6,203.2219,182.4,200.0219" style="stroke:#181818;stroke-width:0.8000000000000002;"/><line style="stroke:#181818;stroke-width:0.8000000000000002;stroke-dasharray:2.0,2.0;" x1="180.8" x2="282.4" y1="200.0219" y2="200.0219"/><text fill="#000000" font-family="sans-serif" font-size="10.4" font-weight="bold" lengthAdjust="spacing" textLength="5.6" x="190.4" y="195.8117">3</text><text fill="#000000" font-family="sans-serif" font-size="10.4" lengthAdjust="spacing" textLength="3.2" x="199.2" y="195.8117">&#160;</text><path d="M2.4,212.0219 L51.2,212.0219 L51.2,219.4547 L43.2,227.4547 L2.4,227.4547 L2.4,212.0219 " fill="#EEEEEE" style="stroke:#000000;stroke-width:1.2000000000000002;"/><rect fill="none" height="78.8031" style="stroke:#000000;stroke-width:1.2000000000000002;" width="218.4" x="2.4" y="212.0219"/><text fill="#000000" font-family="sans-serif" font-size="10.4" font-weight="bold" lengthAdjust="spacing" textLength="12.8" x="14.4" y="224.0445">alt</text><text fill="#000000" font-family="sans-serif" font-size="8.8" font-weight="bold" lengthAdjust="spacing" textLength="85.6" x="63.2" y="223.118">[robisep not found]</text><polygon fill="#181818" points="8.8,242.8875,0.8,246.0875,8.8,249.2875,5.6,246.0875" style="stroke:#181818;stroke-width:0.8000000000000002;"/><line style="stroke:#181818;stroke-width:0.8000000000000002;stroke-dasharray:2.0,2.0;" x1="4" x2="168" y1="246.0875" y2="246.0875"/><text fill="#000000" font-family="sans-serif" font-size="10.4" font-weight="bold" lengthAdjust="spacing" textLength="5.6" x="13.6" y="241.8773">4</text><text fill="#000000" font-family="sans-serif" font-size="10.4" lengthAdjust="spacing" textLength="130.4" x="22.4" y="241.8773">Response status code - 404</text><line style="stroke:#000000;stroke-width:0.8000000000000002;stroke-dasharray:2.0,2.0;" x1="2.4" x2="220.8" y1="253.2875" y2="253.2875"/><text fill="#000000" font-family="sans-serif" font-size="8.8" font-weight="bold" lengthAdjust="spacing" textLength="97.6" x="6.4" y="262.7836">[database unavailable]</text><polygon fill="#181818" points="8.8,281.225,0.8,284.425,8.8,287.625,5.6,284.425" style="stroke:#181818;stroke-width:0.8000000000000002;"/><line style="stroke:#181818;stroke-width:0.8000000000000002;stroke-dasharray:2.0,2.0;" x1="4" x2="168" y1="284.425" y2="284.425"/><text fill="#000000" font-family="sans-serif" font-size="10.4" font-weight="bold" lengthAdjust="spacing" textLength="5.6" x="13.6" y="280.2148">5</text><text fill="#000000" font-family="sans-serif" font-size="10.4" lengthAdjust="spacing" textLength="130.4" x="22.4" y="280.2148">Response status code - 503</text><polygon fill="#181818" points="269.6,311.8578,277.6,315.0578,269.6,318.2578,272.8,315.0578" style="stroke:#181818;stroke-width:0.8000000000000002;"/><line style="stroke:#181818;stroke-width:0.8000000000000002;" x1="176.8" x2="274.4" y1="315.0578" y2="315.0578"/><text fill="#000000" font-family="sans-serif" font-size="10.4" font-weight="bold" lengthAdjust="spacing" textLength="5.6" x="182.4" y="310.8477">6</text><text fill="#000000" font-family="sans-serif" font-size="10.4" lengthAdjust="spacing" textLength="20.8" x="191.2" y="310.8477">save</text><polygon fill="#181818" points="185.6,336.8906,177.6,340.0906,185.6,343.2906,182.4,340.0906" style="stroke:#181818;stroke-width:0.8000000000000002;"/><line style="stroke:#181818;stroke-width:0.8000000000000002;stroke-dasharray:2.0,2.0;" x1="180.8" x2="282.4" y1="340.0906" y2="340.0906"/><text fill="#000000" font-family="sans-serif" font-size="10.4" font-weight="bold" lengthAdjust="spacing" textLength="5.6" x="190.4" y="335.8805">7</text><text fill="#000000" font-family="sans-serif" font-size="10.4" lengthAdjust="spacing" textLength="3.2" x="199.2" y="335.8805">&#160;</text><path d="M2.4,352.0906 L51.2,352.0906 L51.2,359.5234 L43.2,367.5234 L2.4,367.5234 L2.4,352.0906 " fill="#EEEEEE" style="stroke:#000000;stroke-width:1.2000000000000002;"/><rect fill="none" height="90.2125" style="stroke:#000000;stroke-width:1.2000000000000002;" width="218.4" x="2.4" y="352.0906"/><text fill="#000000" font-family="sans-serif" font-size="10.4" font-weight="bold" lengthAdjust="spacing" textLength="12.8" x="14.4" y="364.1133">alt</text><text fill="#000000" font-family="sans-serif" font-size="8.8" font-weight="bold" lengthAdjust="spacing" textLength="83.2" x="63.2" y="363.1867">[robisep persisted</text><text fill="#000000" font-family="sans-serif" font-size="8.8" font-weight="bold" lengthAdjust="spacing" textLength="85.6" x="65.6" y="374.8914">with state updated]</text><polygon fill="#181818" points="8.8,394.3656,0.8,397.5656,8.8,400.7656,5.6,397.5656" style="stroke:#181818;stroke-width:0.8000000000000002;"/><line style="stroke:#181818;stroke-width:0.8000000000000002;stroke-dasharray:2.0,2.0;" x1="4" x2="168" y1="397.5656" y2="397.5656"/><text fill="#000000" font-family="sans-serif" font-size="10.4" font-weight="bold" lengthAdjust="spacing" textLength="5.6" x="13.6" y="393.3555">8</text><text fill="#000000" font-family="sans-serif" font-size="10.4" lengthAdjust="spacing" textLength="130.4" x="22.4" y="393.3555">Response status code - 200</text><line style="stroke:#000000;stroke-width:0.8000000000000002;stroke-dasharray:2.0,2.0;" x1="2.4" x2="220.8" y1="404.7656" y2="404.7656"/><text fill="#000000" font-family="sans-serif" font-size="8.8" font-weight="bold" lengthAdjust="spacing" textLength="97.6" x="6.4" y="414.2617">[database unavailable]</text><polygon fill="#181818" points="8.8,432.7031,0.8,435.9031,8.8,439.1031,5.6,435.9031" style="stroke:#181818;stroke-width:0.8000000000000002;"/><line style="stroke:#181818;stroke-width:0.8000000000000002;stroke-dasharray:2.0,2.0;" x1="4" x2="168" y1="435.9031" y2="435.9031"/><text fill="#000000" font-family="sans-serif" font-size="10.4" font-weight="bold" lengthAdjust="spacing" textLength="5.6" x="13.6" y="431.693">9</text><text fill="#000000" font-family="sans-serif" font-size="10.4" lengthAdjust="spacing" textLength="130.4" x="22.4" y="431.693">Response status code - 503</text><line style="stroke:#000000;stroke-width:0.8000000000000002;stroke-dasharray:2.0,2.0;" x1="2.4" x2="328" y1="448.7031" y2="448.7031"/><text fill="#000000" font-family="sans-serif" font-size="8.8" font-weight="bold" lengthAdjust="spacing" textLength="88" x="6.4" y="458.1992">[user unauthorized]</text><polygon fill="#181818" points="8.8,476.6406,0.8,479.8406,8.8,483.0406,5.6,479.8406" style="stroke:#181818;stroke-width:0.8000000000000002;"/><line style="stroke:#181818;stroke-width:0.8000000000000002;stroke-dasharray:2.0,2.0;" x1="4" x2="168" y1="479.8406" y2="479.8406"/><text fill="#000000" font-family="sans-serif" font-size="10.4" font-weight="bold" lengthAdjust="spacing" textLength="11.2" x="13.6" y="475.6305">10</text><text fill="#000000" font-family="sans-serif" font-size="10.4" lengthAdjust="spacing" textLength="130.4" x="28" y="475.6305">Response status code - 401</text><!--SRC=[hL6zJiCm4DxlAKvTCaK4A4jLLIAa23PKO6Evn5TgDRMZ-5nK4E_E9MbHOQeGaq_sztkcADx5JSajXBLr3RMqmOQgDRtoe-ngnfOh0H0hEXSsKAddmfSsS0EWUB6LRSW9ZdAbfNDdHaW1ypbEfvNVDDwnazaC30cL51X7XKwvJZsko7_X89qfUO8FrqytTzWEJk7i8mW9Jx0_FW6e5eo1MwGeAz_QTpO0oQrr1ilT8I3U5ub2Ax5RPQaiWEPIWoAVu7AFtLkWDKVG8WVGQEaG1i3mZwVE_S1pNd3ferCwuZHD-_GB3jf8stPvOy3A6yOKnzaOW6kz_rv7TBGbMtTxFK7WAhjKWSuhUMvC5wTVI7BKAz2M_zQauJRO86nU7BvPMGtQ67kZK-fTPDb_rUjL-WzMXQClFc75vuF45m00]--></g></svg>