<?xml version="1.0" encoding="us-ascii" standalone="no"?><svg xmlns="http://www.w3.org/2000/svg" xmlns:xlink="http://www.w3.org/1999/xlink" contentStyleType="text/css" height="899px" preserveAspectRatio="none" style="width:793px;height:899px;background:#FFFFFF;" version="1.1" viewBox="0 0 793 899" width="793px" zoomAndPan="magnify"><defs/><g><text fill="#000000" font-family="sans-serif" font-size="14" font-weight="bold" lengthAdjust="spacing" textLength="232" x="281.5" y="30.1074">List Passages Between Buildings</text><rect fill="#FFFFFF" height="629.7324" style="stroke:#181818;stroke-width:1.0;" width="10" x="491" y="161.1543"/><rect fill="#FFFFFF" height="31.291" style="stroke:#181818;stroke-width:1.0;" width="10" x="725" y="218.7363"/><rect fill="#FFFFFF" height="31.291" style="stroke:#181818;stroke-width:1.0;" width="10" x="725" y="393.8223"/><rect fill="#FFFFFF" height="31.291" style="stroke:#181818;stroke-width:1.0;" width="10" x="725" y="568.9082"/><rect fill="none" height="606.7324" style="stroke:#000000;stroke-width:1.5;" width="783" x="3" y="176.1543"/><rect fill="none" height="98.5039" style="stroke:#000000;stroke-width:1.5;" width="553" x="3" y="265.0273"/><rect fill="none" height="98.5039" style="stroke:#000000;stroke-width:1.5;" width="553" x="3" y="440.1133"/><rect fill="none" height="112.7656" style="stroke:#000000;stroke-width:1.5;" width="553" x="3" y="615.1992"/><line style="stroke:#181818;stroke-width:0.5;stroke-dasharray:5.0,5.0;" x1="496" x2="496" y1="127.8633" y2="799.8867"/><line style="stroke:#181818;stroke-width:0.5;stroke-dasharray:5.0,5.0;" x1="730" x2="730" y1="127.8633" y2="799.8867"/><rect fill="#E2E2F0" height="51.2422" rx="2.5" ry="2.5" style="stroke:#181818;stroke-width:0.5;" width="100" x="446" y="75.6211"/><text fill="#000000" font-family="sans-serif" font-size="14" font-style="italic" lengthAdjust="spacing" textLength="86" x="453" y="97.7285">&#171;component&#187;</text><text fill="#000000" font-family="sans-serif" font-size="14" lengthAdjust="spacing" textLength="61" x="465.5" y="116.3496">Back-End</text><rect fill="#E2E2F0" height="51.2422" rx="2.5" ry="2.5" style="stroke:#181818;stroke-width:0.5;" width="100" x="446" y="798.8867"/><text fill="#000000" font-family="sans-serif" font-size="14" font-style="italic" lengthAdjust="spacing" textLength="86" x="453" y="820.9941">&#171;component&#187;</text><text fill="#000000" font-family="sans-serif" font-size="14" lengthAdjust="spacing" textLength="61" x="465.5" y="839.6152">Back-End</text><text fill="#000000" font-family="sans-serif" font-size="14" font-style="italic" lengthAdjust="spacing" textLength="86" x="684" y="105.7285">&#171;component&#187;</text><text fill="#000000" font-family="sans-serif" font-size="14" lengthAdjust="spacing" textLength="62" x="696" y="124.3496">DataBase</text><path d="M712,54.6211 C712,44.6211 730,44.6211 730,44.6211 C730,44.6211 748,44.6211 748,54.6211 L748,80.6211 C748,90.6211 730,90.6211 730,90.6211 C730,90.6211 712,90.6211 712,80.6211 L712,54.6211 " fill="#E2E2F0" style="stroke:#181818;stroke-width:1.5;"/><path d="M712,54.6211 C712,64.6211 730,64.6211 730,64.6211 C730,64.6211 748,64.6211 748,54.6211 " fill="none" style="stroke:#181818;stroke-width:1.5;"/><text fill="#000000" font-family="sans-serif" font-size="14" font-style="italic" lengthAdjust="spacing" textLength="86" x="684" y="813.9941">&#171;component&#187;</text><text fill="#000000" font-family="sans-serif" font-size="14" lengthAdjust="spacing" textLength="62" x="696" y="832.6152">DataBase</text><path d="M712,846.1289 C712,836.1289 730,836.1289 730,836.1289 C730,836.1289 748,836.1289 748,846.1289 L748,872.1289 C748,882.1289 730,882.1289 730,882.1289 C730,882.1289 712,882.1289 712,872.1289 L712,846.1289 " fill="#E2E2F0" style="stroke:#181818;stroke-width:1.5;"/><path d="M712,846.1289 C712,856.1289 730,856.1289 730,856.1289 C730,856.1289 748,856.1289 748,846.1289 " fill="none" style="stroke:#181818;stroke-width:1.5;"/><rect fill="#FFFFFF" height="629.7324" style="stroke:#181818;stroke-width:1.0;" width="10" x="491" y="161.1543"/><rect fill="#FFFFFF" height="31.291" style="stroke:#181818;stroke-width:1.0;" width="10" x="725" y="218.7363"/><rect fill="#FFFFFF" height="31.291" style="stroke:#181818;stroke-width:1.0;" width="10" x="725" y="393.8223"/><rect fill="#FFFFFF" height="31.291" style="stroke:#181818;stroke-width:1.0;" width="10" x="725" y="568.9082"/><polygon fill="#181818" points="479,157.1543,489,161.1543,479,165.1543,483,161.1543" style="stroke:#181818;stroke-width:1.0;"/><line style="stroke:#181818;stroke-width:1.0;" x1="0" x2="485" y1="161.1543" y2="161.1543"/><text fill="#000000" font-family="sans-serif" font-size="13" font-weight="bold" lengthAdjust="spacing" textLength="7" x="7" y="155.8916">1</text><text fill="#000000" font-family="sans-serif" font-size="13" lengthAdjust="spacing" textLength="454" x="18" y="155.8916">GET passages/filter?firstBuildingId=firstBuildingId&amp;lastBuildingId=lastBuildingId</text><path d="M3,176.1543 L64,176.1543 L64,185.4453 L54,195.4453 L3,195.4453 L3,176.1543 " fill="#EEEEEE" style="stroke:#000000;stroke-width:1.5;"/><rect fill="none" height="606.7324" style="stroke:#000000;stroke-width:1.5;" width="783" x="3" y="176.1543"/><text fill="#000000" font-family="sans-serif" font-size="13" font-weight="bold" lengthAdjust="spacing" textLength="16" x="18" y="191.1826">alt</text><text fill="#000000" font-family="sans-serif" font-size="11" font-weight="bold" lengthAdjust="spacing" textLength="96" x="79" y="190.0244">[user authorized]</text><polygon fill="#181818" points="713,214.7363,723,218.7363,713,222.7363,717,218.7363" style="stroke:#181818;stroke-width:1.0;"/><line style="stroke:#181818;stroke-width:1.0;" x1="501" x2="719" y1="218.7363" y2="218.7363"/><text fill="#000000" font-family="sans-serif" font-size="13" font-weight="bold" lengthAdjust="spacing" textLength="7" x="508" y="213.4736">2</text><text fill="#000000" font-family="sans-serif" font-size="13" lengthAdjust="spacing" textLength="100" x="519" y="213.4736">find by building id</text><polygon fill="#181818" points="512,246.0273,502,250.0273,512,254.0273,508,250.0273" style="stroke:#181818;stroke-width:1.0;"/><line style="stroke:#181818;stroke-width:1.0;stroke-dasharray:2.0,2.0;" x1="506" x2="729" y1="250.0273" y2="250.0273"/><text fill="#000000" font-family="sans-serif" font-size="13" font-weight="bold" lengthAdjust="spacing" textLength="7" x="518" y="244.7646">3</text><text fill="#000000" font-family="sans-serif" font-size="13" lengthAdjust="spacing" textLength="4" x="529" y="244.7646">&#160;</text><path d="M3,265.0273 L64,265.0273 L64,274.3184 L54,284.3184 L3,284.3184 L3,265.0273 " fill="#EEEEEE" style="stroke:#000000;stroke-width:1.5;"/><rect fill="none" height="98.5039" style="stroke:#000000;stroke-width:1.5;" width="553" x="3" y="265.0273"/><text fill="#000000" font-family="sans-serif" font-size="13" font-weight="bold" lengthAdjust="spacing" textLength="16" x="18" y="280.0557">alt</text><text fill="#000000" font-family="sans-serif" font-size="11" font-weight="bold" lengthAdjust="spacing" textLength="108" x="79" y="278.8975">[building not found]</text><polygon fill="#181818" points="11,303.6094,1,307.6094,11,311.6094,7,307.6094" style="stroke:#181818;stroke-width:1.0;"/><line style="stroke:#181818;stroke-width:1.0;stroke-dasharray:2.0,2.0;" x1="5" x2="490" y1="307.6094" y2="307.6094"/><text fill="#000000" font-family="sans-serif" font-size="13" font-weight="bold" lengthAdjust="spacing" textLength="7" x="17" y="302.3467">4</text><text fill="#000000" font-family="sans-serif" font-size="13" lengthAdjust="spacing" textLength="163" x="28" y="302.3467">Response status code - 404</text><line style="stroke:#000000;stroke-width:1.0;stroke-dasharray:2.0,2.0;" x1="3" x2="556" y1="316.6094" y2="316.6094"/><text fill="#000000" font-family="sans-serif" font-size="11" font-weight="bold" lengthAdjust="spacing" textLength="122" x="8" y="328.4795">[database unavailable]</text><polygon fill="#181818" points="11,351.5313,1,355.5313,11,359.5313,7,355.5313" style="stroke:#181818;stroke-width:1.0;"/><line style="stroke:#181818;stroke-width:1.0;stroke-dasharray:2.0,2.0;" x1="5" x2="490" y1="355.5313" y2="355.5313"/><text fill="#000000" font-family="sans-serif" font-size="13" font-weight="bold" lengthAdjust="spacing" textLength="7" x="17" y="350.2686">5</text><text fill="#000000" font-family="sans-serif" font-size="13" lengthAdjust="spacing" textLength="163" x="28" y="350.2686">Response status code - 503</text><polygon fill="#181818" points="713,389.8223,723,393.8223,713,397.8223,717,393.8223" style="stroke:#181818;stroke-width:1.0;"/><line style="stroke:#181818;stroke-width:1.0;" x1="501" x2="719" y1="393.8223" y2="393.8223"/><text fill="#000000" font-family="sans-serif" font-size="13" font-weight="bold" lengthAdjust="spacing" textLength="7" x="508" y="388.5596">6</text><text fill="#000000" font-family="sans-serif" font-size="13" lengthAdjust="spacing" textLength="100" x="519" y="388.5596">find by building id</text><polygon fill="#181818" points="512,421.1133,502,425.1133,512,429.1133,508,425.1133" style="stroke:#181818;stroke-width:1.0;"/><line style="stroke:#181818;stroke-width:1.0;stroke-dasharray:2.0,2.0;" x1="506" x2="729" y1="425.1133" y2="425.1133"/><text fill="#000000" font-family="sans-serif" font-size="13" font-weight="bold" lengthAdjust="spacing" textLength="7" x="518" y="419.8506">7</text><text fill="#000000" font-family="sans-serif" font-size="13" lengthAdjust="spacing" textLength="4" x="529" y="419.8506">&#160;</text><path d="M3,440.1133 L64,440.1133 L64,449.4043 L54,459.4043 L3,459.4043 L3,440.1133 " fill="#EEEEEE" style="stroke:#000000;stroke-width:1.5;"/><rect fill="none" height="98.5039" style="stroke:#000000;stroke-width:1.5;" width="553" x="3" y="440.1133"/><text fill="#000000" font-family="sans-serif" font-size="13" font-weight="bold" lengthAdjust="spacing" textLength="16" x="18" y="455.1416">alt</text><text fill="#000000" font-family="sans-serif" font-size="11" font-weight="bold" lengthAdjust="spacing" textLength="108" x="79" y="453.9834">[building not found]</text><polygon fill="#181818" points="11,478.6953,1,482.6953,11,486.6953,7,482.6953" style="stroke:#181818;stroke-width:1.0;"/><line style="stroke:#181818;stroke-width:1.0;stroke-dasharray:2.0,2.0;" x1="5" x2="490" y1="482.6953" y2="482.6953"/><text fill="#000000" font-family="sans-serif" font-size="13" font-weight="bold" lengthAdjust="spacing" textLength="7" x="17" y="477.4326">8</text><text fill="#000000" font-family="sans-serif" font-size="13" lengthAdjust="spacing" textLength="163" x="28" y="477.4326">Response status code - 404</text><line style="stroke:#000000;stroke-width:1.0;stroke-dasharray:2.0,2.0;" x1="3" x2="556" y1="491.6953" y2="491.6953"/><text fill="#000000" font-family="sans-serif" font-size="11" font-weight="bold" lengthAdjust="spacing" textLength="122" x="8" y="503.5654">[database unavailable]</text><polygon fill="#181818" points="11,526.6172,1,530.6172,11,534.6172,7,530.6172" style="stroke:#181818;stroke-width:1.0;"/><line style="stroke:#181818;stroke-width:1.0;stroke-dasharray:2.0,2.0;" x1="5" x2="490" y1="530.6172" y2="530.6172"/><text fill="#000000" font-family="sans-serif" font-size="13" font-weight="bold" lengthAdjust="spacing" textLength="7" x="17" y="525.3545">9</text><text fill="#000000" font-family="sans-serif" font-size="13" lengthAdjust="spacing" textLength="163" x="28" y="525.3545">Response status code - 503</text><polygon fill="#181818" points="713,564.9082,723,568.9082,713,572.9082,717,568.9082" style="stroke:#181818;stroke-width:1.0;"/><line style="stroke:#181818;stroke-width:1.0;" x1="501" x2="719" y1="568.9082" y2="568.9082"/><text fill="#000000" font-family="sans-serif" font-size="13" font-weight="bold" lengthAdjust="spacing" textLength="14" x="508" y="563.6455">10</text><text fill="#000000" font-family="sans-serif" font-size="13" lengthAdjust="spacing" textLength="187" x="526" y="563.6455">find passages between buildings</text><polygon fill="#181818" points="512,596.1992,502,600.1992,512,604.1992,508,600.1992" style="stroke:#181818;stroke-width:1.0;"/><line style="stroke:#181818;stroke-width:1.0;stroke-dasharray:2.0,2.0;" x1="506" x2="729" y1="600.1992" y2="600.1992"/><text fill="#000000" font-family="sans-serif" font-size="13" font-weight="bold" lengthAdjust="spacing" textLength="14" x="518" y="594.9365">11</text><text fill="#000000" font-family="sans-serif" font-size="13" lengthAdjust="spacing" textLength="4" x="536" y="594.9365">&#160;</text><path d="M3,615.1992 L64,615.1992 L64,624.4902 L54,634.4902 L3,634.4902 L3,615.1992 " fill="#EEEEEE" style="stroke:#000000;stroke-width:1.5;"/><rect fill="none" height="112.7656" style="stroke:#000000;stroke-width:1.5;" width="553" x="3" y="615.1992"/><text fill="#000000" font-family="sans-serif" font-size="13" font-weight="bold" lengthAdjust="spacing" textLength="16" x="18" y="630.2275">alt</text><text fill="#000000" font-family="sans-serif" font-size="11" font-weight="bold" lengthAdjust="spacing" textLength="110" x="79" y="629.0693">[passages between</text><text fill="#000000" font-family="sans-serif" font-size="11" font-weight="bold" lengthAdjust="spacing" textLength="128" x="79" y="643.7002">buildings will be listed]</text><polygon fill="#181818" points="11,668.043,1,672.043,11,676.043,7,672.043" style="stroke:#181818;stroke-width:1.0;"/><line style="stroke:#181818;stroke-width:1.0;stroke-dasharray:2.0,2.0;" x1="5" x2="490" y1="672.043" y2="672.043"/><text fill="#000000" font-family="sans-serif" font-size="13" font-weight="bold" lengthAdjust="spacing" textLength="14" x="17" y="666.7803">12</text><text fill="#000000" font-family="sans-serif" font-size="13" lengthAdjust="spacing" textLength="163" x="35" y="666.7803">Response status code - 200</text><line style="stroke:#000000;stroke-width:1.0;stroke-dasharray:2.0,2.0;" x1="3" x2="556" y1="681.043" y2="681.043"/><text fill="#000000" font-family="sans-serif" font-size="11" font-weight="bold" lengthAdjust="spacing" textLength="122" x="8" y="692.9131">[database unavailable]</text><polygon fill="#181818" points="11,715.9648,1,719.9648,11,723.9648,7,719.9648" style="stroke:#181818;stroke-width:1.0;"/><line style="stroke:#181818;stroke-width:1.0;stroke-dasharray:2.0,2.0;" x1="5" x2="490" y1="719.9648" y2="719.9648"/><text fill="#000000" font-family="sans-serif" font-size="13" font-weight="bold" lengthAdjust="spacing" textLength="14" x="17" y="714.7021">13</text><text fill="#000000" font-family="sans-serif" font-size="13" lengthAdjust="spacing" textLength="163" x="35" y="714.7021">Response status code - 503</text><line style="stroke:#000000;stroke-width:1.0;stroke-dasharray:2.0,2.0;" x1="3" x2="786" y1="735.9648" y2="735.9648"/><text fill="#000000" font-family="sans-serif" font-size="11" font-weight="bold" lengthAdjust="spacing" textLength="110" x="8" y="747.835">[user unauthorized]</text><polygon fill="#181818" points="11,770.8867,1,774.8867,11,778.8867,7,774.8867" style="stroke:#181818;stroke-width:1.0;"/><line style="stroke:#181818;stroke-width:1.0;stroke-dasharray:2.0,2.0;" x1="5" x2="490" y1="774.8867" y2="774.8867"/><text fill="#000000" font-family="sans-serif" font-size="13" font-weight="bold" lengthAdjust="spacing" textLength="14" x="17" y="769.624">14</text><text fill="#000000" font-family="sans-serif" font-size="13" lengthAdjust="spacing" textLength="163" x="35" y="769.624">Response status code - 401</text><!--SRC=[tLF1Ji904BtFLqmuY1uQg-A582PDqP1uCEhHoxITuePbstId4Fnwnm8LC4HCF7cRtPdtPjxR7QgbSFKiuGhyrBYIAffXIUcK9lmiIyjOSIe0OaJZ1-C57ybxpNgCM1RC3gFQsCouYGTGl9ZKbEG4Ev7I12ENTP2qU8I3GLhCoiAna-4GCX9Ao3DsOeqYZPgwEDghWs2eu3xUZrvqi5NhyznOuUesDvMNJVjnThDtFh6qazuz0f0Lh3rNIBMy5PLvPxtitXcNOR9iPU4unbClggmiZ9EphW9JCNCIri40L9cE64TzpDV8P8CqsLPj706ekc2b1o3ZdTJdC2tG5O9vKJl58mw2e77WYRsweexfC59xJ8kCCS1Us0DWg_UjfRMZEHbBYUKZ2Ax3AoLm1xLhwjyhNqi__BT_qBxvcPYiWSdNKlp6XsyyhwvbmeMnLXDeTGtv68Ckm_2l36fOccLHXgrrEUAHBbOK7m00]--></g></svg>