<?xml version="1.0" encoding="us-ascii" standalone="no"?><svg xmlns="http://www.w3.org/2000/svg" xmlns:xlink="http://www.w3.org/1999/xlink" contentStyleType="text/css" height="453px" preserveAspectRatio="none" style="width:440px;height:453px;background:#FFFFFF;" version="1.1" viewBox="0 0 440 453" width="440px" zoomAndPan="magnify"><defs/><g><text fill="#000000" font-family="sans-serif" font-size="14" font-weight="bold" lengthAdjust="spacing" textLength="150" x="146.5" y="30.1074">List Requested Tasks</text><rect fill="#FFFFFF" height="184.0859" style="stroke:#181818;stroke-width:1.0;" width="10" x="256" y="161.1543"/><rect fill="#FFFFFF" height="31.291" style="stroke:#181818;stroke-width:1.0;" width="10" x="376.5" y="192.4453"/><rect fill="none" height="98.5039" style="stroke:#000000;stroke-width:1.5;" width="321" x="3" y="238.7363"/><line style="stroke:#181818;stroke-width:0.5;stroke-dasharray:5.0,5.0;" x1="261" x2="261" y1="127.8633" y2="354.2402"/><line style="stroke:#181818;stroke-width:0.5;stroke-dasharray:5.0,5.0;" x1="381" x2="381" y1="127.8633" y2="354.2402"/><rect fill="#E2E2F0" height="51.2422" rx="2.5" ry="2.5" style="stroke:#181818;stroke-width:0.5;" width="106" x="208" y="75.6211"/><text fill="#000000" font-family="sans-serif" font-size="14" font-style="italic" lengthAdjust="spacing" textLength="86" x="218" y="97.7285">&#171;component&#187;</text><text fill="#000000" font-family="sans-serif" font-size="14" lengthAdjust="spacing" textLength="92" x="215" y="116.3496">Node Backend</text><rect fill="#E2E2F0" height="51.2422" rx="2.5" ry="2.5" style="stroke:#181818;stroke-width:0.5;" width="106" x="208" y="353.2402"/><text fill="#000000" font-family="sans-serif" font-size="14" font-style="italic" lengthAdjust="spacing" textLength="86" x="218" y="375.3477">&#171;component&#187;</text><text fill="#000000" font-family="sans-serif" font-size="14" lengthAdjust="spacing" textLength="92" x="215" y="393.9688">Node Backend</text><text fill="#000000" font-family="sans-serif" font-size="14" font-style="italic" lengthAdjust="spacing" textLength="86" x="335.5" y="105.7285">&#171;component&#187;</text><text fill="#000000" font-family="sans-serif" font-size="14" lengthAdjust="spacing" textLength="109" x="324" y="124.3496">Mongo DataBase</text><path d="M363.5,54.6211 C363.5,44.6211 381.5,44.6211 381.5,44.6211 C381.5,44.6211 399.5,44.6211 399.5,54.6211 L399.5,80.6211 C399.5,90.6211 381.5,90.6211 381.5,90.6211 C381.5,90.6211 363.5,90.6211 363.5,80.6211 L363.5,54.6211 " fill="#E2E2F0" style="stroke:#181818;stroke-width:1.5;"/><path d="M363.5,54.6211 C363.5,64.6211 381.5,64.6211 381.5,64.6211 C381.5,64.6211 399.5,64.6211 399.5,54.6211 " fill="none" style="stroke:#181818;stroke-width:1.5;"/><text fill="#000000" font-family="sans-serif" font-size="14" font-style="italic" lengthAdjust="spacing" textLength="86" x="335.5" y="368.3477">&#171;component&#187;</text><text fill="#000000" font-family="sans-serif" font-size="14" lengthAdjust="spacing" textLength="109" x="324" y="386.9688">Mongo DataBase</text><path d="M363.5,400.4824 C363.5,390.4824 381.5,390.4824 381.5,390.4824 C381.5,390.4824 399.5,390.4824 399.5,400.4824 L399.5,426.4824 C399.5,436.4824 381.5,436.4824 381.5,436.4824 C381.5,436.4824 363.5,436.4824 363.5,426.4824 L363.5,400.4824 " fill="#E2E2F0" style="stroke:#181818;stroke-width:1.5;"/><path d="M363.5,400.4824 C363.5,410.4824 381.5,410.4824 381.5,410.4824 C381.5,410.4824 399.5,410.4824 399.5,400.4824 " fill="none" style="stroke:#181818;stroke-width:1.5;"/><rect fill="#FFFFFF" height="184.0859" style="stroke:#181818;stroke-width:1.0;" width="10" x="256" y="161.1543"/><rect fill="#FFFFFF" height="31.291" style="stroke:#181818;stroke-width:1.0;" width="10" x="376.5" y="192.4453"/><polygon fill="#181818" points="244,157.1543,254,161.1543,244,165.1543,248,161.1543" style="stroke:#181818;stroke-width:1.0;"/><line style="stroke:#181818;stroke-width:1.0;" x1="0" x2="250" y1="161.1543" y2="161.1543"/><text fill="#000000" font-family="sans-serif" font-size="13" font-weight="bold" lengthAdjust="spacing" textLength="7" x="7" y="155.8916">1</text><text fill="#000000" font-family="sans-serif" font-size="13" lengthAdjust="spacing" textLength="219" x="18" y="155.8916">GET tasks/state?state=REQUESTED</text><polygon fill="#181818" points="364.5,188.4453,374.5,192.4453,364.5,196.4453,368.5,192.4453" style="stroke:#181818;stroke-width:1.0;"/><line style="stroke:#181818;stroke-width:1.0;" x1="266" x2="370.5" y1="192.4453" y2="192.4453"/><text fill="#000000" font-family="sans-serif" font-size="13" font-weight="bold" lengthAdjust="spacing" textLength="7" x="273" y="187.1826">2</text><text fill="#000000" font-family="sans-serif" font-size="13" lengthAdjust="spacing" textLength="71" x="284" y="187.1826">find by state</text><polygon fill="#181818" points="277,219.7363,267,223.7363,277,227.7363,273,223.7363" style="stroke:#181818;stroke-width:1.0;"/><line style="stroke:#181818;stroke-width:1.0;stroke-dasharray:2.0,2.0;" x1="271" x2="380.5" y1="223.7363" y2="223.7363"/><text fill="#000000" font-family="sans-serif" font-size="13" font-weight="bold" lengthAdjust="spacing" textLength="7" x="283" y="218.4736">3</text><text fill="#000000" font-family="sans-serif" font-size="13" lengthAdjust="spacing" textLength="4" x="294" y="218.4736">&#160;</text><path d="M3,238.7363 L64,238.7363 L64,248.0273 L54,258.0273 L3,258.0273 L3,238.7363 " fill="#EEEEEE" style="stroke:#000000;stroke-width:1.5;"/><rect fill="none" height="98.5039" style="stroke:#000000;stroke-width:1.5;" width="321" x="3" y="238.7363"/><text fill="#000000" font-family="sans-serif" font-size="13" font-weight="bold" lengthAdjust="spacing" textLength="16" x="18" y="253.7646">alt</text><text fill="#000000" font-family="sans-serif" font-size="11" font-weight="bold" lengthAdjust="spacing" textLength="196" x="79" y="252.6064">[tasks with state REQUESTED found]</text><polygon fill="#181818" points="11,277.3184,1,281.3184,11,285.3184,7,281.3184" style="stroke:#181818;stroke-width:1.0;"/><line style="stroke:#181818;stroke-width:1.0;stroke-dasharray:2.0,2.0;" x1="5" x2="255" y1="281.3184" y2="281.3184"/><text fill="#000000" font-family="sans-serif" font-size="13" font-weight="bold" lengthAdjust="spacing" textLength="7" x="17" y="276.0557">4</text><text fill="#000000" font-family="sans-serif" font-size="13" lengthAdjust="spacing" textLength="163" x="28" y="276.0557">Response status code - 200</text><line style="stroke:#000000;stroke-width:1.0;stroke-dasharray:2.0,2.0;" x1="3" x2="324" y1="290.3184" y2="290.3184"/><text fill="#000000" font-family="sans-serif" font-size="11" font-weight="bold" lengthAdjust="spacing" textLength="122" x="8" y="302.1885">[database unavailable]</text><polygon fill="#181818" points="11,325.2402,1,329.2402,11,333.2402,7,329.2402" style="stroke:#181818;stroke-width:1.0;"/><line style="stroke:#181818;stroke-width:1.0;stroke-dasharray:2.0,2.0;" x1="5" x2="255" y1="329.2402" y2="329.2402"/><text fill="#000000" font-family="sans-serif" font-size="13" font-weight="bold" lengthAdjust="spacing" textLength="7" x="17" y="323.9775">5</text><text fill="#000000" font-family="sans-serif" font-size="13" lengthAdjust="spacing" textLength="163" x="28" y="323.9775">Response status code - 503</text><!--SRC=[ZP31JiCm38RlVWfhby6XOW9ncSQGeXQ414XivG7SnXjHswGqpj3U7gz34-p49OgJ___ysvGa-DHLF41idEzfe0vxgXlQybhsBUF0jG284xq_koYuui_4KTXYIR6906eILxkUlE3aDLX6em3sTe8KqHIuMDIXwuDdByibM1AgA39ENeBV1iorDbgFwjoSgI5RAcAEZqM9SkXt5OM4xyVpRbMylHVhiiW1fW_EMwpsQ99hhVDRVChnGcM3zC5vkPm2K2rkfpub0cWmPUTcZfiVvyZyfSeDW0RAZX40BF_vebQEaV3BoSVHZQT4k0d9Mm34HPQD8wmuwbWw-46P8jQ7LMLuFPi1SAllfyqaJpjoBLKj_mDmExjHWFRw1W00]--></g></svg>