<?xml version="1.0" encoding="us-ascii" standalone="no"?><svg xmlns="http://www.w3.org/2000/svg" xmlns:xlink="http://www.w3.org/1999/xlink" contentStyleType="text/css" height="709px" preserveAspectRatio="none" style="width:470px;height:709px;background:#FFFFFF;" version="1.1" viewBox="0 0 470 709" width="470px" zoomAndPan="magnify"><defs/><g><text fill="#000000" font-family="sans-serif" font-size="14" font-weight="bold" lengthAdjust="spacing" textLength="158" x="157" y="30.1074">List Building Elevators</text><rect fill="#FFFFFF" height="440.3848" style="stroke:#181818;stroke-width:1.0;" width="10" x="207" y="161.1543"/><rect fill="#FFFFFF" height="31.291" style="stroke:#181818;stroke-width:1.0;" width="10" x="402" y="218.7363"/><rect fill="#FFFFFF" height="31.291" style="stroke:#181818;stroke-width:1.0;" width="10" x="402" y="393.8223"/><rect fill="none" height="417.3848" style="stroke:#000000;stroke-width:1.5;" width="460" x="3" y="176.1543"/><rect fill="none" height="98.5039" style="stroke:#000000;stroke-width:1.5;" width="269" x="3" y="265.0273"/><rect fill="none" height="98.5039" style="stroke:#000000;stroke-width:1.5;" width="269" x="3" y="440.1133"/><line style="stroke:#181818;stroke-width:0.5;stroke-dasharray:5.0,5.0;" x1="212" x2="212" y1="127.8633" y2="610.5391"/><line style="stroke:#181818;stroke-width:0.5;stroke-dasharray:5.0,5.0;" x1="407" x2="407" y1="127.8633" y2="610.5391"/><rect fill="#E2E2F0" height="51.2422" rx="2.5" ry="2.5" style="stroke:#181818;stroke-width:0.5;" width="100" x="162" y="75.6211"/><text fill="#000000" font-family="sans-serif" font-size="14" font-style="italic" lengthAdjust="spacing" textLength="86" x="169" y="97.7285">&#171;component&#187;</text><text fill="#000000" font-family="sans-serif" font-size="14" lengthAdjust="spacing" textLength="61" x="181.5" y="116.3496">Back-End</text><rect fill="#E2E2F0" height="51.2422" rx="2.5" ry="2.5" style="stroke:#181818;stroke-width:0.5;" width="100" x="162" y="609.5391"/><text fill="#000000" font-family="sans-serif" font-size="14" font-style="italic" lengthAdjust="spacing" textLength="86" x="169" y="631.6465">&#171;component&#187;</text><text fill="#000000" font-family="sans-serif" font-size="14" lengthAdjust="spacing" textLength="61" x="181.5" y="650.2676">Back-End</text><text fill="#000000" font-family="sans-serif" font-size="14" font-style="italic" lengthAdjust="spacing" textLength="86" x="361" y="105.7285">&#171;component&#187;</text><text fill="#000000" font-family="sans-serif" font-size="14" lengthAdjust="spacing" textLength="62" x="373" y="124.3496">DataBase</text><path d="M389,54.6211 C389,44.6211 407,44.6211 407,44.6211 C407,44.6211 425,44.6211 425,54.6211 L425,80.6211 C425,90.6211 407,90.6211 407,90.6211 C407,90.6211 389,90.6211 389,80.6211 L389,54.6211 " fill="#E2E2F0" style="stroke:#181818;stroke-width:1.5;"/><path d="M389,54.6211 C389,64.6211 407,64.6211 407,64.6211 C407,64.6211 425,64.6211 425,54.6211 " fill="none" style="stroke:#181818;stroke-width:1.5;"/><text fill="#000000" font-family="sans-serif" font-size="14" font-style="italic" lengthAdjust="spacing" textLength="86" x="361" y="624.6465">&#171;component&#187;</text><text fill="#000000" font-family="sans-serif" font-size="14" lengthAdjust="spacing" textLength="62" x="373" y="643.2676">DataBase</text><path d="M389,656.7813 C389,646.7813 407,646.7813 407,646.7813 C407,646.7813 425,646.7813 425,656.7813 L425,682.7813 C425,692.7813 407,692.7813 407,692.7813 C407,692.7813 389,692.7813 389,682.7813 L389,656.7813 " fill="#E2E2F0" style="stroke:#181818;stroke-width:1.5;"/><path d="M389,656.7813 C389,666.7813 407,666.7813 407,666.7813 C407,666.7813 425,666.7813 425,656.7813 " fill="none" style="stroke:#181818;stroke-width:1.5;"/><rect fill="#FFFFFF" height="440.3848" style="stroke:#181818;stroke-width:1.0;" width="10" x="207" y="161.1543"/><rect fill="#FFFFFF" height="31.291" style="stroke:#181818;stroke-width:1.0;" width="10" x="402" y="218.7363"/><rect fill="#FFFFFF" height="31.291" style="stroke:#181818;stroke-width:1.0;" width="10" x="402" y="393.8223"/><polygon fill="#181818" points="195,157.1543,205,161.1543,195,165.1543,199,161.1543" style="stroke:#181818;stroke-width:1.0;"/><line style="stroke:#181818;stroke-width:1.0;" x1="0" x2="201" y1="161.1543" y2="161.1543"/><text fill="#000000" font-family="sans-serif" font-size="13" font-weight="bold" lengthAdjust="spacing" textLength="7" x="7" y="155.8916">1</text><text fill="#000000" font-family="sans-serif" font-size="13" lengthAdjust="spacing" textLength="147" x="18" y="155.8916">GET elevators/{buildingId}</text><path d="M3,176.1543 L64,176.1543 L64,185.4453 L54,195.4453 L3,195.4453 L3,176.1543 " fill="#EEEEEE" style="stroke:#000000;stroke-width:1.5;"/><rect fill="none" height="417.3848" style="stroke:#000000;stroke-width:1.5;" width="460" x="3" y="176.1543"/><text fill="#000000" font-family="sans-serif" font-size="13" font-weight="bold" lengthAdjust="spacing" textLength="16" x="18" y="191.1826">alt</text><text fill="#000000" font-family="sans-serif" font-size="11" font-weight="bold" lengthAdjust="spacing" textLength="107" x="79" y="190.0244">[user autothorized]</text><polygon fill="#181818" points="390,214.7363,400,218.7363,390,222.7363,394,218.7363" style="stroke:#181818;stroke-width:1.0;"/><line style="stroke:#181818;stroke-width:1.0;" x1="217" x2="396" y1="218.7363" y2="218.7363"/><text fill="#000000" font-family="sans-serif" font-size="13" font-weight="bold" lengthAdjust="spacing" textLength="7" x="224" y="213.4736">2</text><text fill="#000000" font-family="sans-serif" font-size="13" lengthAdjust="spacing" textLength="146" x="235" y="213.4736">find building by domain id</text><polygon fill="#181818" points="228,246.0273,218,250.0273,228,254.0273,224,250.0273" style="stroke:#181818;stroke-width:1.0;"/><line style="stroke:#181818;stroke-width:1.0;stroke-dasharray:2.0,2.0;" x1="222" x2="406" y1="250.0273" y2="250.0273"/><text fill="#000000" font-family="sans-serif" font-size="13" font-weight="bold" lengthAdjust="spacing" textLength="7" x="234" y="244.7646">3</text><text fill="#000000" font-family="sans-serif" font-size="13" lengthAdjust="spacing" textLength="4" x="245" y="244.7646">&#160;</text><path d="M3,265.0273 L64,265.0273 L64,274.3184 L54,284.3184 L3,284.3184 L3,265.0273 " fill="#EEEEEE" style="stroke:#000000;stroke-width:1.5;"/><rect fill="none" height="98.5039" style="stroke:#000000;stroke-width:1.5;" width="269" x="3" y="265.0273"/><text fill="#000000" font-family="sans-serif" font-size="13" font-weight="bold" lengthAdjust="spacing" textLength="16" x="18" y="280.0557">alt</text><text fill="#000000" font-family="sans-serif" font-size="11" font-weight="bold" lengthAdjust="spacing" textLength="108" x="79" y="278.8975">[building not found]</text><polygon fill="#181818" points="11,303.6094,1,307.6094,11,311.6094,7,307.6094" style="stroke:#181818;stroke-width:1.0;"/><line style="stroke:#181818;stroke-width:1.0;stroke-dasharray:2.0,2.0;" x1="5" x2="206" y1="307.6094" y2="307.6094"/><text fill="#000000" font-family="sans-serif" font-size="13" font-weight="bold" lengthAdjust="spacing" textLength="7" x="17" y="302.3467">4</text><text fill="#000000" font-family="sans-serif" font-size="13" lengthAdjust="spacing" textLength="163" x="28" y="302.3467">Response status code - 404</text><line style="stroke:#000000;stroke-width:1.0;stroke-dasharray:2.0,2.0;" x1="3" x2="272" y1="316.6094" y2="316.6094"/><text fill="#000000" font-family="sans-serif" font-size="11" font-weight="bold" lengthAdjust="spacing" textLength="122" x="8" y="328.4795">[database unavailable]</text><polygon fill="#181818" points="11,351.5313,1,355.5313,11,359.5313,7,355.5313" style="stroke:#181818;stroke-width:1.0;"/><line style="stroke:#181818;stroke-width:1.0;stroke-dasharray:2.0,2.0;" x1="5" x2="206" y1="355.5313" y2="355.5313"/><text fill="#000000" font-family="sans-serif" font-size="13" font-weight="bold" lengthAdjust="spacing" textLength="7" x="17" y="350.2686">5</text><text fill="#000000" font-family="sans-serif" font-size="13" lengthAdjust="spacing" textLength="163" x="28" y="350.2686">Response status code - 503</text><polygon fill="#181818" points="390,389.8223,400,393.8223,390,397.8223,394,393.8223" style="stroke:#181818;stroke-width:1.0;"/><line style="stroke:#181818;stroke-width:1.0;" x1="217" x2="396" y1="393.8223" y2="393.8223"/><text fill="#000000" font-family="sans-serif" font-size="13" font-weight="bold" lengthAdjust="spacing" textLength="7" x="224" y="388.5596">6</text><text fill="#000000" font-family="sans-serif" font-size="13" lengthAdjust="spacing" textLength="155" x="235" y="388.5596">find elevators by building id</text><polygon fill="#181818" points="228,421.1133,218,425.1133,228,429.1133,224,425.1133" style="stroke:#181818;stroke-width:1.0;"/><line style="stroke:#181818;stroke-width:1.0;stroke-dasharray:2.0,2.0;" x1="222" x2="406" y1="425.1133" y2="425.1133"/><text fill="#000000" font-family="sans-serif" font-size="13" font-weight="bold" lengthAdjust="spacing" textLength="7" x="234" y="419.8506">7</text><text fill="#000000" font-family="sans-serif" font-size="13" lengthAdjust="spacing" textLength="4" x="245" y="419.8506">&#160;</text><path d="M3,440.1133 L64,440.1133 L64,449.4043 L54,459.4043 L3,459.4043 L3,440.1133 " fill="#EEEEEE" style="stroke:#000000;stroke-width:1.5;"/><rect fill="none" height="98.5039" style="stroke:#000000;stroke-width:1.5;" width="269" x="3" y="440.1133"/><text fill="#000000" font-family="sans-serif" font-size="13" font-weight="bold" lengthAdjust="spacing" textLength="16" x="18" y="455.1416">alt</text><text fill="#000000" font-family="sans-serif" font-size="11" font-weight="bold" lengthAdjust="spacing" textLength="94" x="79" y="453.9834">[elevators listed]</text><polygon fill="#181818" points="11,478.6953,1,482.6953,11,486.6953,7,482.6953" style="stroke:#181818;stroke-width:1.0;"/><line style="stroke:#181818;stroke-width:1.0;stroke-dasharray:2.0,2.0;" x1="5" x2="206" y1="482.6953" y2="482.6953"/><text fill="#000000" font-family="sans-serif" font-size="13" font-weight="bold" lengthAdjust="spacing" textLength="7" x="17" y="477.4326">8</text><text fill="#000000" font-family="sans-serif" font-size="13" lengthAdjust="spacing" textLength="163" x="28" y="477.4326">Response status code - 200</text><line style="stroke:#000000;stroke-width:1.0;stroke-dasharray:2.0,2.0;" x1="3" x2="272" y1="491.6953" y2="491.6953"/><text fill="#000000" font-family="sans-serif" font-size="11" font-weight="bold" lengthAdjust="spacing" textLength="122" x="8" y="503.5654">[database unavailable]</text><polygon fill="#181818" points="11,526.6172,1,530.6172,11,534.6172,7,530.6172" style="stroke:#181818;stroke-width:1.0;"/><line style="stroke:#181818;stroke-width:1.0;stroke-dasharray:2.0,2.0;" x1="5" x2="206" y1="530.6172" y2="530.6172"/><text fill="#000000" font-family="sans-serif" font-size="13" font-weight="bold" lengthAdjust="spacing" textLength="7" x="17" y="525.3545">9</text><text fill="#000000" font-family="sans-serif" font-size="13" lengthAdjust="spacing" textLength="163" x="28" y="525.3545">Response status code - 503</text><line style="stroke:#000000;stroke-width:1.0;stroke-dasharray:2.0,2.0;" x1="3" x2="463" y1="546.6172" y2="546.6172"/><text fill="#000000" font-family="sans-serif" font-size="11" font-weight="bold" lengthAdjust="spacing" textLength="110" x="8" y="558.4873">[user unauthorized]</text><polygon fill="#181818" points="11,581.5391,1,585.5391,11,589.5391,7,585.5391" style="stroke:#181818;stroke-width:1.0;"/><line style="stroke:#181818;stroke-width:1.0;stroke-dasharray:2.0,2.0;" x1="5" x2="206" y1="585.5391" y2="585.5391"/><text fill="#000000" font-family="sans-serif" font-size="13" font-weight="bold" lengthAdjust="spacing" textLength="14" x="17" y="580.2764">10</text><text fill="#000000" font-family="sans-serif" font-size="13" lengthAdjust="spacing" textLength="163" x="35" y="580.2764">Response status code - 401</text><!--SRC=[hPB1JiCm38RlVWfhbvqg2epBDErGjQ19d80NS1jlH4kJgd4d3SIxutMZ7LmO4ZShoVVR_nzJ9y5tTSajnAtr3RLKOqFLbZRyB7l7s78b0695wqSR1RFEEcFz1Wl7EvBGHW3bn5Qs8IyuoHHF2cycI16p0XUBAjHDyEnbkGH3GYL5nackLQPL_oxFVho3PAdm71-A5-IlJbVlvQdxodm0a1Fi8hT8QaDUGslVs030zDvwCmvQxZ4FDLcFgtogL2LMvLZb0NG-RPHdSrmVcFACCKV6cZCapm1qrEGu783XRrU7WGO97mJNeVFA8owIfBVpn54jglqe95t4AXZ616Vf382TdW_vT9vsP1sLZYyGk4jlLS2FxeVVELWPelWr03x71Yj_pM1KSReoV4a2DsdwRmdqClrYg4GtBiO5tt1zqlW4]--></g></svg>