<?xml version="1.0" encoding="us-ascii" standalone="no"?><svg xmlns="http://www.w3.org/2000/svg" xmlns:xlink="http://www.w3.org/1999/xlink" contentStyleType="text/css" height="549px" preserveAspectRatio="none" style="width:551px;height:549px;background:#FFFFFF;" version="1.1" viewBox="0 0 551 549" width="551px" zoomAndPan="magnify"><defs/><g><text fill="#000000" font-family="sans-serif" font-size="14" font-weight="bold" lengthAdjust="spacing" textLength="109" x="217.75" y="30.1074">Edit {Resource}</text><rect fill="#FFFFFF" height="287.25" style="stroke:#181818;stroke-width:1.0;" width="10" x="54.5" y="151.8633"/><rect fill="#FFFFFF" height="262.959" style="stroke:#181818;stroke-width:1.0;" width="10" x="316.5" y="175.1543"/><rect fill="none" height="115.7949" style="stroke:#000000;stroke-width:1.5;" width="371.5" x="10" y="315.3184"/><line style="stroke:#181818;stroke-width:0.5;stroke-dasharray:5.0,5.0;" x1="59" x2="59" y1="141.8633" y2="448.1133"/><line style="stroke:#181818;stroke-width:0.5;stroke-dasharray:5.0,5.0;" x1="321.5" x2="321.5" y1="141.8633" y2="448.1133"/><text fill="#000000" font-family="sans-serif" font-size="14" font-style="italic" lengthAdjust="spacing" textLength="73" x="20" y="119.7285">&#171;DEI User&#187;</text><text fill="#000000" font-family="sans-serif" font-size="14" lengthAdjust="spacing" textLength="29" x="42" y="138.3496">User</text><ellipse cx="59.5" cy="53.1211" fill="#E2E2F0" rx="8" ry="8" style="stroke:#181818;stroke-width:0.5;"/><path d="M59.5,61.1211 L59.5,88.1211 M46.5,69.1211 L72.5,69.1211 M59.5,88.1211 L46.5,103.1211 M59.5,88.1211 L72.5,103.1211 " fill="none" style="stroke:#181818;stroke-width:0.5;"/><text fill="#000000" font-family="sans-serif" font-size="14" font-style="italic" lengthAdjust="spacing" textLength="73" x="20" y="462.2207">&#171;DEI User&#187;</text><text fill="#000000" font-family="sans-serif" font-size="14" lengthAdjust="spacing" textLength="29" x="42" y="480.8418">User</text><ellipse cx="59.5" cy="492.8555" fill="#E2E2F0" rx="8" ry="8" style="stroke:#181818;stroke-width:0.5;"/><path d="M59.5,500.8555 L59.5,527.8555 M46.5,508.8555 L72.5,508.8555 M59.5,527.8555 L46.5,542.8555 M59.5,527.8555 L72.5,542.8555 " fill="none" style="stroke:#181818;stroke-width:0.5;"/><rect fill="#E2E2F0" height="51.2422" rx="2.5" ry="2.5" style="stroke:#181818;stroke-width:0.5;" width="100" x="271.5" y="89.6211"/><text fill="#000000" font-family="sans-serif" font-size="14" font-style="italic" lengthAdjust="spacing" textLength="86" x="278.5" y="111.7285">&#171;component&#187;</text><text fill="#000000" font-family="sans-serif" font-size="14" lengthAdjust="spacing" textLength="58" x="292.5" y="130.3496">Frontend</text><rect fill="#E2E2F0" height="51.2422" rx="2.5" ry="2.5" style="stroke:#181818;stroke-width:0.5;" width="100" x="271.5" y="447.1133"/><text fill="#000000" font-family="sans-serif" font-size="14" font-style="italic" lengthAdjust="spacing" textLength="86" x="278.5" y="469.2207">&#171;component&#187;</text><text fill="#000000" font-family="sans-serif" font-size="14" lengthAdjust="spacing" textLength="58" x="292.5" y="487.8418">Frontend</text><rect fill="#FFFFFF" height="287.25" style="stroke:#181818;stroke-width:1.0;" width="10" x="54.5" y="151.8633"/><rect fill="#FFFFFF" height="262.959" style="stroke:#181818;stroke-width:1.0;" width="10" x="316.5" y="175.1543"/><polygon fill="#181818" points="304.5,171.1543,314.5,175.1543,304.5,179.1543,308.5,175.1543" style="stroke:#181818;stroke-width:1.0;"/><line style="stroke:#181818;stroke-width:1.0;" x1="64.5" x2="310.5" y1="175.1543" y2="175.1543"/><text fill="#000000" font-family="sans-serif" font-size="13" font-weight="bold" lengthAdjust="spacing" textLength="7" x="71.5" y="169.8916">1</text><text fill="#000000" font-family="sans-serif" font-size="13" lengthAdjust="spacing" textLength="123" x="82.5" y="169.8916">ask to edit {resource}</text><polygon fill="#181818" points="75.5,202.4453,65.5,206.4453,75.5,210.4453,71.5,206.4453" style="stroke:#181818;stroke-width:1.0;"/><line style="stroke:#181818;stroke-width:1.0;stroke-dasharray:2.0,2.0;" x1="69.5" x2="315.5" y1="206.4453" y2="206.4453"/><text fill="#000000" font-family="sans-serif" font-size="13" font-weight="bold" lengthAdjust="spacing" textLength="7" x="81.5" y="201.1826">2</text><text fill="#000000" font-family="sans-serif" font-size="13" lengthAdjust="spacing" textLength="171" x="92.5" y="201.1826">displays {resource} Edit Form</text><polygon fill="#181818" points="304.5,233.7363,314.5,237.7363,304.5,241.7363,308.5,237.7363" style="stroke:#181818;stroke-width:1.0;"/><line style="stroke:#181818;stroke-width:1.0;" x1="64.5" x2="310.5" y1="237.7363" y2="237.7363"/><text fill="#000000" font-family="sans-serif" font-size="13" font-weight="bold" lengthAdjust="spacing" textLength="7" x="71.5" y="232.4736">3</text><text fill="#000000" font-family="sans-serif" font-size="13" lengthAdjust="spacing" textLength="217" x="82.5" y="232.4736">fills and submits {resource} Edit Form</text><polygon fill="#181818" points="533.5,265.0273,543.5,269.0273,533.5,273.0273,537.5,269.0273" style="stroke:#181818;stroke-width:1.0;"/><line style="stroke:#181818;stroke-width:1.0;" x1="326.5" x2="539.5" y1="269.0273" y2="269.0273"/><text fill="#000000" font-family="sans-serif" font-size="13" font-weight="bold" lengthAdjust="spacing" textLength="7" x="333.5" y="263.7646">4</text><text fill="#000000" font-family="sans-serif" font-size="13" lengthAdjust="spacing" textLength="184" x="344.5" y="263.7646">PATCH {resources}/{resourceId}</text><polygon fill="#181818" points="337.5,296.3184,327.5,300.3184,337.5,304.3184,333.5,300.3184" style="stroke:#181818;stroke-width:1.0;"/><line style="stroke:#181818;stroke-width:1.0;stroke-dasharray:2.0,2.0;" x1="331.5" x2="544.5" y1="300.3184" y2="300.3184"/><text fill="#000000" font-family="sans-serif" font-size="13" font-weight="bold" lengthAdjust="spacing" textLength="7" x="343.5" y="295.0557">5</text><text fill="#000000" font-family="sans-serif" font-size="13" lengthAdjust="spacing" textLength="89" x="354.5" y="295.0557">HTTP response</text><path d="M10,315.3184 L71,315.3184 L71,324.6094 L61,334.6094 L10,334.6094 L10,315.3184 " fill="#EEEEEE" style="stroke:#000000;stroke-width:1.5;"/><rect fill="none" height="115.7949" style="stroke:#000000;stroke-width:1.5;" width="371.5" x="10" y="315.3184"/><text fill="#000000" font-family="sans-serif" font-size="13" font-weight="bold" lengthAdjust="spacing" textLength="16" x="25" y="330.3467">alt</text><text fill="#000000" font-family="sans-serif" font-size="11" font-weight="bold" lengthAdjust="spacing" textLength="55" x="86" y="329.1885">[success]</text><polygon fill="#181818" points="75.5,371.1914,65.5,375.1914,75.5,379.1914,71.5,375.1914" style="stroke:#181818;stroke-width:1.0;"/><line style="stroke:#181818;stroke-width:1.0;stroke-dasharray:2.0,2.0;" x1="69.5" x2="315.5" y1="375.1914" y2="375.1914"/><text fill="#000000" font-family="sans-serif" font-size="13" font-weight="bold" lengthAdjust="spacing" textLength="7" x="81.5" y="361.2832">6</text><text fill="#000000" font-family="sans-serif" font-size="13" lengthAdjust="spacing" textLength="158" x="92.5" y="352.6377">displays success message</text><text fill="#000000" font-family="sans-serif" font-size="13" lengthAdjust="spacing" textLength="164" x="96.5" y="369.9287">and refreshes the listed data</text><line style="stroke:#000000;stroke-width:1.0;stroke-dasharray:2.0,2.0;" x1="10" x2="381.5" y1="384.1914" y2="384.1914"/><text fill="#000000" font-family="sans-serif" font-size="11" font-weight="bold" lengthAdjust="spacing" textLength="83" x="15" y="396.0615">[unsuccessful]</text><polygon fill="#181818" points="75.5,419.1133,65.5,423.1133,75.5,427.1133,71.5,423.1133" style="stroke:#181818;stroke-width:1.0;"/><line style="stroke:#181818;stroke-width:1.0;stroke-dasharray:2.0,2.0;" x1="69.5" x2="315.5" y1="423.1133" y2="423.1133"/><text fill="#000000" font-family="sans-serif" font-size="13" font-weight="bold" lengthAdjust="spacing" textLength="7" x="81.5" y="417.8506">7</text><text fill="#000000" font-family="sans-serif" font-size="13" lengthAdjust="spacing" textLength="128" x="92.5" y="417.8506">display error message</text><!--SRC=[TP51QyCm38Nl_XKYzx9x286n9RItiZMtNLHRNKqSErZAe8p-zobPQ7lOBaROttjwad6I5AVXIDbmx-E86GSOqVRuIUzo2GIPh1WZNhHkd1VuVYDEKxPqDGQjf0n5nvGBG8OEgkgrsS5yKTT6xSHRFs8KADgSeb1q2zWsIjeqZ2bI54LdA_-5Gj0Pqsrg9Ke5Uv04jBJDjxOtj6sKXMgpMMZdUGnuuGVqDt6RyZ23g-l9Xy20qG5Fny7BVmBDg8eIzi-7b-sTuUlJhTwvwupD2KhO7WvxNHVhJ4mwK11jO5N0zvJm47DzX44FNVT7N39bEgd7cHZaJ10y2pbmA6WC1IQOugexJU4lNw2SzKzMKnL5PuoZnvtz0000]--></g></svg>