<?xml version="1.0" encoding="us-ascii" standalone="no"?><svg xmlns="http://www.w3.org/2000/svg" xmlns:xlink="http://www.w3.org/1999/xlink" contentStyleType="text/css" height="628px" preserveAspectRatio="none" style="width:403px;height:628px;background:#FFFFFF;" version="1.1" viewBox="0 0 403 628" width="403px" zoomAndPan="magnify"><defs/><g><text fill="#000000" font-family="sans-serif" font-size="14" font-weight="bold" lengthAdjust="spacing" textLength="136" x="135.25" y="30.1074">List Building Floors</text><rect fill="#FFFFFF" height="359.1719" style="stroke:#181818;stroke-width:1.0;" width="10" x="200" y="161.1543"/><rect fill="#FFFFFF" height="31.291" style="stroke:#181818;stroke-width:1.0;" width="10" x="340" y="192.4453"/><rect fill="#FFFFFF" height="31.291" style="stroke:#181818;stroke-width:1.0;" width="10" x="340" y="367.5313"/><rect fill="none" height="98.5039" style="stroke:#000000;stroke-width:1.5;" width="265" x="3" y="238.7363"/><rect fill="none" height="98.5039" style="stroke:#000000;stroke-width:1.5;" width="265" x="3" y="413.8223"/><line style="stroke:#181818;stroke-width:0.5;stroke-dasharray:5.0,5.0;" x1="205" x2="205" y1="127.8633" y2="529.3262"/><line style="stroke:#181818;stroke-width:0.5;stroke-dasharray:5.0,5.0;" x1="344.5" x2="344.5" y1="127.8633" y2="529.3262"/><rect fill="#E2E2F0" height="51.2422" rx="2.5" ry="2.5" style="stroke:#181818;stroke-width:0.5;" width="106" x="152" y="75.6211"/><text fill="#000000" font-family="sans-serif" font-size="14" font-style="italic" lengthAdjust="spacing" textLength="86" x="162" y="97.7285">&#171;component&#187;</text><text fill="#000000" font-family="sans-serif" font-size="14" lengthAdjust="spacing" textLength="92" x="159" y="116.3496">Node Backend</text><rect fill="#E2E2F0" height="51.2422" rx="2.5" ry="2.5" style="stroke:#181818;stroke-width:0.5;" width="106" x="152" y="528.3262"/><text fill="#000000" font-family="sans-serif" font-size="14" font-style="italic" lengthAdjust="spacing" textLength="86" x="162" y="550.4336">&#171;component&#187;</text><text fill="#000000" font-family="sans-serif" font-size="14" lengthAdjust="spacing" textLength="92" x="159" y="569.0547">Node Backend</text><text fill="#000000" font-family="sans-serif" font-size="14" font-style="italic" lengthAdjust="spacing" textLength="86" x="299" y="105.7285">&#171;component&#187;</text><text fill="#000000" font-family="sans-serif" font-size="14" lengthAdjust="spacing" textLength="109" x="287.5" y="124.3496">Mongo DataBase</text><path d="M327,54.6211 C327,44.6211 345,44.6211 345,44.6211 C345,44.6211 363,44.6211 363,54.6211 L363,80.6211 C363,90.6211 345,90.6211 345,90.6211 C345,90.6211 327,90.6211 327,80.6211 L327,54.6211 " fill="#E2E2F0" style="stroke:#181818;stroke-width:1.5;"/><path d="M327,54.6211 C327,64.6211 345,64.6211 345,64.6211 C345,64.6211 363,64.6211 363,54.6211 " fill="none" style="stroke:#181818;stroke-width:1.5;"/><text fill="#000000" font-family="sans-serif" font-size="14" font-style="italic" lengthAdjust="spacing" textLength="86" x="299" y="543.4336">&#171;component&#187;</text><text fill="#000000" font-family="sans-serif" font-size="14" lengthAdjust="spacing" textLength="109" x="287.5" y="562.0547">Mongo DataBase</text><path d="M327,575.5684 C327,565.5684 345,565.5684 345,565.5684 C345,565.5684 363,565.5684 363,575.5684 L363,601.5684 C363,611.5684 345,611.5684 345,611.5684 C345,611.5684 327,611.5684 327,601.5684 L327,575.5684 " fill="#E2E2F0" style="stroke:#181818;stroke-width:1.5;"/><path d="M327,575.5684 C327,585.5684 345,585.5684 345,585.5684 C345,585.5684 363,585.5684 363,575.5684 " fill="none" style="stroke:#181818;stroke-width:1.5;"/><rect fill="#FFFFFF" height="359.1719" style="stroke:#181818;stroke-width:1.0;" width="10" x="200" y="161.1543"/><rect fill="#FFFFFF" height="31.291" style="stroke:#181818;stroke-width:1.0;" width="10" x="340" y="192.4453"/><rect fill="#FFFFFF" height="31.291" style="stroke:#181818;stroke-width:1.0;" width="10" x="340" y="367.5313"/><polygon fill="#181818" points="188,157.1543,198,161.1543,188,165.1543,192,161.1543" style="stroke:#181818;stroke-width:1.0;"/><line style="stroke:#181818;stroke-width:1.0;" x1="0" x2="194" y1="161.1543" y2="161.1543"/><text fill="#000000" font-family="sans-serif" font-size="13" font-weight="bold" lengthAdjust="spacing" textLength="7" x="7" y="155.8916">1</text><text fill="#000000" font-family="sans-serif" font-size="13" lengthAdjust="spacing" textLength="143" x="18" y="155.8916">GET floors/{byBuildingId}</text><polygon fill="#181818" points="328,188.4453,338,192.4453,328,196.4453,332,192.4453" style="stroke:#181818;stroke-width:1.0;"/><line style="stroke:#181818;stroke-width:1.0;" x1="210" x2="334" y1="192.4453" y2="192.4453"/><text fill="#000000" font-family="sans-serif" font-size="13" font-weight="bold" lengthAdjust="spacing" textLength="7" x="217" y="187.1826">2</text><text fill="#000000" font-family="sans-serif" font-size="13" lengthAdjust="spacing" textLength="100" x="228" y="187.1826">find by building id</text><polygon fill="#181818" points="221,219.7363,211,223.7363,221,227.7363,217,223.7363" style="stroke:#181818;stroke-width:1.0;"/><line style="stroke:#181818;stroke-width:1.0;stroke-dasharray:2.0,2.0;" x1="215" x2="344" y1="223.7363" y2="223.7363"/><text fill="#000000" font-family="sans-serif" font-size="13" font-weight="bold" lengthAdjust="spacing" textLength="7" x="227" y="218.4736">3</text><text fill="#000000" font-family="sans-serif" font-size="13" lengthAdjust="spacing" textLength="4" x="238" y="218.4736">&#160;</text><path d="M3,238.7363 L64,238.7363 L64,248.0273 L54,258.0273 L3,258.0273 L3,238.7363 " fill="#EEEEEE" style="stroke:#000000;stroke-width:1.5;"/><rect fill="none" height="98.5039" style="stroke:#000000;stroke-width:1.5;" width="265" x="3" y="238.7363"/><text fill="#000000" font-family="sans-serif" font-size="13" font-weight="bold" lengthAdjust="spacing" textLength="16" x="18" y="253.7646">alt</text><text fill="#000000" font-family="sans-serif" font-size="11" font-weight="bold" lengthAdjust="spacing" textLength="108" x="79" y="252.6064">[building not found]</text><polygon fill="#181818" points="11,277.3184,1,281.3184,11,285.3184,7,281.3184" style="stroke:#181818;stroke-width:1.0;"/><line style="stroke:#181818;stroke-width:1.0;stroke-dasharray:2.0,2.0;" x1="5" x2="199" y1="281.3184" y2="281.3184"/><text fill="#000000" font-family="sans-serif" font-size="13" font-weight="bold" lengthAdjust="spacing" textLength="7" x="17" y="276.0557">4</text><text fill="#000000" font-family="sans-serif" font-size="13" lengthAdjust="spacing" textLength="163" x="28" y="276.0557">Response status code - 404</text><line style="stroke:#000000;stroke-width:1.0;stroke-dasharray:2.0,2.0;" x1="3" x2="268" y1="290.3184" y2="290.3184"/><text fill="#000000" font-family="sans-serif" font-size="11" font-weight="bold" lengthAdjust="spacing" textLength="122" x="8" y="302.1885">[database unavailable]</text><polygon fill="#181818" points="11,325.2402,1,329.2402,11,333.2402,7,329.2402" style="stroke:#181818;stroke-width:1.0;"/><line style="stroke:#181818;stroke-width:1.0;stroke-dasharray:2.0,2.0;" x1="5" x2="199" y1="329.2402" y2="329.2402"/><text fill="#000000" font-family="sans-serif" font-size="13" font-weight="bold" lengthAdjust="spacing" textLength="7" x="17" y="323.9775">5</text><text fill="#000000" font-family="sans-serif" font-size="13" lengthAdjust="spacing" textLength="163" x="28" y="323.9775">Response status code - 503</text><polygon fill="#181818" points="328,363.5313,338,367.5313,328,371.5313,332,367.5313" style="stroke:#181818;stroke-width:1.0;"/><line style="stroke:#181818;stroke-width:1.0;" x1="210" x2="334" y1="367.5313" y2="367.5313"/><text fill="#000000" font-family="sans-serif" font-size="13" font-weight="bold" lengthAdjust="spacing" textLength="7" x="217" y="362.2686">6</text><text fill="#000000" font-family="sans-serif" font-size="13" lengthAdjust="spacing" textLength="100" x="228" y="362.2686">find by building id</text><polygon fill="#181818" points="221,394.8223,211,398.8223,221,402.8223,217,398.8223" style="stroke:#181818;stroke-width:1.0;"/><line style="stroke:#181818;stroke-width:1.0;stroke-dasharray:2.0,2.0;" x1="215" x2="344" y1="398.8223" y2="398.8223"/><text fill="#000000" font-family="sans-serif" font-size="13" font-weight="bold" lengthAdjust="spacing" textLength="7" x="227" y="393.5596">7</text><text fill="#000000" font-family="sans-serif" font-size="13" lengthAdjust="spacing" textLength="4" x="238" y="393.5596">&#160;</text><path d="M3,413.8223 L64,413.8223 L64,423.1133 L54,433.1133 L3,433.1133 L3,413.8223 " fill="#EEEEEE" style="stroke:#000000;stroke-width:1.5;"/><rect fill="none" height="98.5039" style="stroke:#000000;stroke-width:1.5;" width="265" x="3" y="413.8223"/><text fill="#000000" font-family="sans-serif" font-size="13" font-weight="bold" lengthAdjust="spacing" textLength="16" x="18" y="428.8506">alt</text><text fill="#000000" font-family="sans-serif" font-size="11" font-weight="bold" lengthAdjust="spacing" textLength="75" x="79" y="427.6924">[floors listed]</text><polygon fill="#181818" points="11,452.4043,1,456.4043,11,460.4043,7,456.4043" style="stroke:#181818;stroke-width:1.0;"/><line style="stroke:#181818;stroke-width:1.0;stroke-dasharray:2.0,2.0;" x1="5" x2="199" y1="456.4043" y2="456.4043"/><text fill="#000000" font-family="sans-serif" font-size="13" font-weight="bold" lengthAdjust="spacing" textLength="7" x="17" y="451.1416">8</text><text fill="#000000" font-family="sans-serif" font-size="13" lengthAdjust="spacing" textLength="163" x="28" y="451.1416">Response status code - 200</text><line style="stroke:#000000;stroke-width:1.0;stroke-dasharray:2.0,2.0;" x1="3" x2="268" y1="465.4043" y2="465.4043"/><text fill="#000000" font-family="sans-serif" font-size="11" font-weight="bold" lengthAdjust="spacing" textLength="122" x="8" y="477.2744">[database unavailable]</text><polygon fill="#181818" points="11,500.3262,1,504.3262,11,508.3262,7,504.3262" style="stroke:#181818;stroke-width:1.0;"/><line style="stroke:#181818;stroke-width:1.0;stroke-dasharray:2.0,2.0;" x1="5" x2="199" y1="504.3262" y2="504.3262"/><text fill="#000000" font-family="sans-serif" font-size="13" font-weight="bold" lengthAdjust="spacing" textLength="7" x="17" y="499.0635">9</text><text fill="#000000" font-family="sans-serif" font-size="13" lengthAdjust="spacing" textLength="163" x="28" y="499.0635">Response status code - 503</text><!--SRC=[lLB1JW913BttAnekd3Pk52-4SDWi61BrWFv0TwUG2KDdizCbsHZ_tG8YQZnmCDocCtslxxqETHgbsrRSGjfuQQYbBJPKRsZDBze7nfPh1L2lTdxqIR7eV71UrZWFCRO9m43gQz-GA0wUesCiZ8353P0I5ZESJEguRQAmw7GAZfGgIeo3foZhYANLXTM7xhBurGtPr2Z6-31xnTLXuCrRrPyqBDmxm73knM7LdvKjIbp8kLno4vFNsFP30AhLxqXDv0p0n1b_MOnnzSbHdK3UVUij2m2JbXt503Z-yKH1pq29YglOYU4H9rbsaB_aP9RCT5BIBc6zZod3KJu2u63tNwbqGZloWQh05n3SvtT6i9_rTmnUZckwJWR71M6mRyANsB_Dyt-o_m40]--></g></svg>