<?xml version="1.0" encoding="us-ascii" standalone="no"?><svg xmlns="http://www.w3.org/2000/svg" xmlns:xlink="http://www.w3.org/1999/xlink" contentStyleType="text/css" height="928px" preserveAspectRatio="none" style="width:806px;height:928px;background:#FFFFFF;" version="1.1" viewBox="0 0 806 928" width="806px" zoomAndPan="magnify"><defs/><g><text fill="#000000" font-family="sans-serif" font-size="14" font-weight="bold" lengthAdjust="spacing" textLength="177" x="315.75" y="30.1074">Approve SignUp Request</text><rect fill="#FFFFFF" height="665.3926" style="stroke:#181818;stroke-width:1.0;" width="10" x="45.5" y="151.8633"/><rect fill="#FFFFFF" height="609.8105" style="stroke:#181818;stroke-width:1.0;" width="10" x="290.5" y="192.4453"/><rect fill="#FFFFFF" height="540.2285" style="stroke:#181818;stroke-width:1.0;" width="10" x="505.5" y="223.7363"/><rect fill="#FFFFFF" height="28" style="stroke:#181818;stroke-width:1.0;" width="10" x="510.5" y="479.0352"/><rect fill="#FFFFFF" height="259.668" style="stroke:#181818;stroke-width:1.0;" width="10" x="744.5" y="382.1621"/><rect fill="none" height="113.1348" style="stroke:#000000;stroke-width:1.5;" width="596" x="10" y="238.7363"/><rect fill="none" height="413.0938" style="stroke:#000000;stroke-width:1.5;" width="789.5" x="10" y="397.1621"/><rect fill="none" height="115.1348" style="stroke:#000000;stroke-width:1.5;" width="370.5" x="235.5" y="656.8301"/><line style="stroke:#181818;stroke-width:0.5;stroke-dasharray:5.0,5.0;" x1="50" x2="50" y1="141.8633" y2="827.2559"/><line style="stroke:#181818;stroke-width:0.5;stroke-dasharray:5.0,5.0;" x1="295.5" x2="295.5" y1="141.8633" y2="827.2559"/><line style="stroke:#181818;stroke-width:0.5;stroke-dasharray:5.0,5.0;" x1="510" x2="510" y1="141.8633" y2="827.2559"/><line style="stroke:#181818;stroke-width:0.5;stroke-dasharray:5.0,5.0;" x1="749.5" x2="749.5" y1="141.8633" y2="827.2559"/><text fill="#000000" font-family="sans-serif" font-size="14" font-style="italic" lengthAdjust="spacing" textLength="55" x="20" y="119.7285">&#171;Admin&#187;</text><text fill="#000000" font-family="sans-serif" font-size="14" lengthAdjust="spacing" textLength="29" x="33" y="138.3496">User</text><ellipse cx="50.5" cy="53.1211" fill="#E2E2F0" rx="8" ry="8" style="stroke:#181818;stroke-width:0.5;"/><path d="M50.5,61.1211 L50.5,88.1211 M37.5,69.1211 L63.5,69.1211 M50.5,88.1211 L37.5,103.1211 M50.5,88.1211 L63.5,103.1211 " fill="none" style="stroke:#181818;stroke-width:0.5;"/><text fill="#000000" font-family="sans-serif" font-size="14" font-style="italic" lengthAdjust="spacing" textLength="55" x="20" y="841.3633">&#171;Admin&#187;</text><text fill="#000000" font-family="sans-serif" font-size="14" lengthAdjust="spacing" textLength="29" x="33" y="859.9844">User</text><ellipse cx="50.5" cy="871.998" fill="#E2E2F0" rx="8" ry="8" style="stroke:#181818;stroke-width:0.5;"/><path d="M50.5,879.998 L50.5,906.998 M37.5,887.998 L63.5,887.998 M50.5,906.998 L37.5,921.998 M50.5,906.998 L63.5,921.998 " fill="none" style="stroke:#181818;stroke-width:0.5;"/><rect fill="#E2E2F0" height="51.2422" rx="2.5" ry="2.5" style="stroke:#181818;stroke-width:0.5;" width="100" x="245.5" y="89.6211"/><text fill="#000000" font-family="sans-serif" font-size="14" font-style="italic" lengthAdjust="spacing" textLength="86" x="252.5" y="111.7285">&#171;component&#187;</text><text fill="#000000" font-family="sans-serif" font-size="14" lengthAdjust="spacing" textLength="83" x="254" y="130.3496">PortalModule</text><rect fill="#E2E2F0" height="51.2422" rx="2.5" ry="2.5" style="stroke:#181818;stroke-width:0.5;" width="100" x="245.5" y="826.2559"/><text fill="#000000" font-family="sans-serif" font-size="14" font-style="italic" lengthAdjust="spacing" textLength="86" x="252.5" y="848.3633">&#171;component&#187;</text><text fill="#000000" font-family="sans-serif" font-size="14" lengthAdjust="spacing" textLength="83" x="254" y="866.9844">PortalModule</text><rect fill="#E2E2F0" height="51.2422" rx="2.5" ry="2.5" style="stroke:#181818;stroke-width:0.5;" width="171" x="425" y="89.6211"/><text fill="#000000" font-family="sans-serif" font-size="14" font-style="italic" lengthAdjust="spacing" textLength="86" x="467.5" y="111.7285">&#171;component&#187;</text><text fill="#000000" font-family="sans-serif" font-size="14" lengthAdjust="spacing" textLength="157" x="432" y="130.3496">UserManagementModule</text><rect fill="#E2E2F0" height="51.2422" rx="2.5" ry="2.5" style="stroke:#181818;stroke-width:0.5;" width="171" x="425" y="826.2559"/><text fill="#000000" font-family="sans-serif" font-size="14" font-style="italic" lengthAdjust="spacing" textLength="86" x="467.5" y="848.3633">&#171;component&#187;</text><text fill="#000000" font-family="sans-serif" font-size="14" lengthAdjust="spacing" textLength="157" x="432" y="866.9844">UserManagementModule</text><rect fill="#E2E2F0" height="51.2422" rx="2.5" ry="2.5" style="stroke:#181818;stroke-width:0.5;" width="80" x="709.5" y="89.6211"/><text fill="#000000" font-family="sans-serif" font-size="14" font-style="italic" lengthAdjust="spacing" textLength="66" x="716.5" y="111.7285">&#171;external&#187;</text><text fill="#000000" font-family="sans-serif" font-size="14" lengthAdjust="spacing" textLength="37" x="731" y="130.3496">Auth0</text><rect fill="#E2E2F0" height="51.2422" rx="2.5" ry="2.5" style="stroke:#181818;stroke-width:0.5;" width="80" x="709.5" y="826.2559"/><text fill="#000000" font-family="sans-serif" font-size="14" font-style="italic" lengthAdjust="spacing" textLength="66" x="716.5" y="848.3633">&#171;external&#187;</text><text fill="#000000" font-family="sans-serif" font-size="14" lengthAdjust="spacing" textLength="37" x="731" y="866.9844">Auth0</text><rect fill="#FFFFFF" height="665.3926" style="stroke:#181818;stroke-width:1.0;" width="10" x="45.5" y="151.8633"/><rect fill="#FFFFFF" height="609.8105" style="stroke:#181818;stroke-width:1.0;" width="10" x="290.5" y="192.4453"/><rect fill="#FFFFFF" height="540.2285" style="stroke:#181818;stroke-width:1.0;" width="10" x="505.5" y="223.7363"/><rect fill="#FFFFFF" height="28" style="stroke:#181818;stroke-width:1.0;" width="10" x="510.5" y="479.0352"/><rect fill="#FFFFFF" height="259.668" style="stroke:#181818;stroke-width:1.0;" width="10" x="744.5" y="382.1621"/><polygon fill="#181818" points="278.5,188.4453,288.5,192.4453,278.5,196.4453,282.5,192.4453" style="stroke:#181818;stroke-width:1.0;"/><line style="stroke:#181818;stroke-width:1.0;" x1="55.5" x2="284.5" y1="192.4453" y2="192.4453"/><text fill="#000000" font-family="sans-serif" font-size="13" font-weight="bold" lengthAdjust="spacing" textLength="7" x="62.5" y="178.5371">1</text><text fill="#000000" font-family="sans-serif" font-size="13" lengthAdjust="spacing" textLength="189" x="73.5" y="169.8916">Selects a SignUp Request, adds</text><text fill="#000000" font-family="sans-serif" font-size="13" lengthAdjust="spacing" textLength="191" x="73.5" y="187.1826">a comment and clicks on Accept</text><polygon fill="#181818" points="493.5,219.7363,503.5,223.7363,493.5,227.7363,497.5,223.7363" style="stroke:#181818;stroke-width:1.0;"/><line style="stroke:#181818;stroke-width:1.0;" x1="300.5" x2="499.5" y1="223.7363" y2="223.7363"/><text fill="#000000" font-family="sans-serif" font-size="13" font-weight="bold" lengthAdjust="spacing" textLength="7" x="307.5" y="218.4736">2</text><text fill="#000000" font-family="sans-serif" font-size="13" lengthAdjust="spacing" textLength="166" x="318.5" y="218.4736">PATCH SignUpRequests/{id}</text><path d="M10,238.7363 L71,238.7363 L71,248.0273 L61,258.0273 L10,258.0273 L10,238.7363 " fill="#EEEEEE" style="stroke:#000000;stroke-width:1.5;"/><rect fill="none" height="113.1348" style="stroke:#000000;stroke-width:1.5;" width="596" x="10" y="238.7363"/><text fill="#000000" font-family="sans-serif" font-size="13" font-weight="bold" lengthAdjust="spacing" textLength="16" x="25" y="253.7646">alt</text><text fill="#000000" font-family="sans-serif" font-size="11" font-weight="bold" lengthAdjust="spacing" textLength="102" x="86" y="252.6064">[signup not found]</text><polygon fill="#181818" points="311.5,277.3184,301.5,281.3184,311.5,285.3184,307.5,281.3184" style="stroke:#181818;stroke-width:1.0;"/><line style="stroke:#181818;stroke-width:1.0;stroke-dasharray:2.0,2.0;" x1="305.5" x2="504.5" y1="281.3184" y2="281.3184"/><text fill="#000000" font-family="sans-serif" font-size="13" font-weight="bold" lengthAdjust="spacing" textLength="7" x="317.5" y="276.0557">3</text><text fill="#000000" font-family="sans-serif" font-size="13" lengthAdjust="spacing" textLength="163" x="328.5" y="276.0557">Response status code - 404</text><polygon fill="#181818" points="66.5,308.6094,56.5,312.6094,66.5,316.6094,62.5,312.6094" style="stroke:#181818;stroke-width:1.0;"/><line style="stroke:#181818;stroke-width:1.0;stroke-dasharray:2.0,2.0;" x1="60.5" x2="289.5" y1="312.6094" y2="312.6094"/><text fill="#000000" font-family="sans-serif" font-size="13" font-weight="bold" lengthAdjust="spacing" textLength="7" x="72.5" y="307.3467">4</text><text fill="#000000" font-family="sans-serif" font-size="13" lengthAdjust="spacing" textLength="135" x="83.5" y="307.3467">displays error message</text><line style="stroke:#000000;stroke-width:1.0;stroke-dasharray:2.0,2.0;" x1="10" x2="606" y1="321.6094" y2="321.6094"/><text fill="#000000" font-family="sans-serif" font-size="11" font-weight="bold" lengthAdjust="spacing" textLength="162" x="15" y="333.4795">[user with same unique data*</text><text fill="#000000" font-family="sans-serif" font-size="11" font-weight="bold" lengthAdjust="spacing" textLength="172" x="15" y="348.1104">already exists on the database]</text><polygon fill="#181818" points="732.5,378.1621,742.5,382.1621,732.5,386.1621,736.5,382.1621" style="stroke:#181818;stroke-width:1.0;"/><line style="stroke:#181818;stroke-width:1.0;" x1="515.5" x2="738.5" y1="382.1621" y2="382.1621"/><text fill="#000000" font-family="sans-serif" font-size="13" font-weight="bold" lengthAdjust="spacing" textLength="7" x="522.5" y="376.8994">5</text><text fill="#000000" font-family="sans-serif" font-size="13" lengthAdjust="spacing" textLength="199" x="533.5" y="376.8994">PATCH /api/v2/users/{userId}/roles</text><path d="M10,397.1621 L71,397.1621 L71,406.4531 L61,416.4531 L10,416.4531 L10,397.1621 " fill="#EEEEEE" style="stroke:#000000;stroke-width:1.5;"/><rect fill="none" height="413.0938" style="stroke:#000000;stroke-width:1.5;" width="789.5" x="10" y="397.1621"/><text fill="#000000" font-family="sans-serif" font-size="13" font-weight="bold" lengthAdjust="spacing" textLength="16" x="25" y="412.1904">alt</text><text fill="#000000" font-family="sans-serif" font-size="11" font-weight="bold" lengthAdjust="spacing" textLength="55" x="86" y="411.0322">[success]</text><polygon fill="#181818" points="526.5,435.7441,516.5,439.7441,526.5,443.7441,522.5,439.7441" style="stroke:#181818;stroke-width:1.0;"/><line style="stroke:#181818;stroke-width:1.0;stroke-dasharray:2.0,2.0;" x1="520.5" x2="743.5" y1="439.7441" y2="439.7441"/><text fill="#000000" font-family="sans-serif" font-size="13" font-weight="bold" lengthAdjust="spacing" textLength="7" x="532.5" y="434.4814">6</text><text fill="#000000" font-family="sans-serif" font-size="13" lengthAdjust="spacing" textLength="163" x="543.5" y="434.4814">Response status code - 200</text><line style="stroke:#181818;stroke-width:1.0;" x1="520.5" x2="562.5" y1="471.0352" y2="471.0352"/><line style="stroke:#181818;stroke-width:1.0;" x1="562.5" x2="562.5" y1="471.0352" y2="484.0352"/><line style="stroke:#181818;stroke-width:1.0;" x1="521.5" x2="562.5" y1="484.0352" y2="484.0352"/><polygon fill="#181818" points="531.5,480.0352,521.5,484.0352,531.5,488.0352,527.5,484.0352" style="stroke:#181818;stroke-width:1.0;"/><text fill="#000000" font-family="sans-serif" font-size="13" font-weight="bold" lengthAdjust="spacing" textLength="7" x="527.5" y="465.7725">7</text><text fill="#000000" font-family="sans-serif" font-size="13" lengthAdjust="spacing" textLength="140" x="538.5" y="465.7725">Create User in database</text><polygon fill="#181818" points="311.5,541.3262,301.5,545.3262,311.5,549.3262,307.5,545.3262" style="stroke:#181818;stroke-width:1.0;"/><line style="stroke:#181818;stroke-width:1.0;stroke-dasharray:2.0,2.0;" x1="305.5" x2="504.5" y1="545.3262" y2="545.3262"/><text fill="#000000" font-family="sans-serif" font-size="13" font-weight="bold" lengthAdjust="spacing" textLength="7" x="317.5" y="540.0635">8</text><text fill="#000000" font-family="sans-serif" font-size="13" lengthAdjust="spacing" textLength="163" x="328.5" y="540.0635">Response status code - 200</text><polygon fill="#181818" points="66.5,589.9082,56.5,593.9082,66.5,597.9082,62.5,593.9082" style="stroke:#181818;stroke-width:1.0;"/><line style="stroke:#181818;stroke-width:1.0;stroke-dasharray:2.0,2.0;" x1="60.5" x2="289.5" y1="593.9082" y2="593.9082"/><text fill="#000000" font-family="sans-serif" font-size="13" font-weight="bold" lengthAdjust="spacing" textLength="7" x="72.5" y="580">9</text><text fill="#000000" font-family="sans-serif" font-size="13" lengthAdjust="spacing" textLength="196" x="83.5" y="571.3545">Displays a success message and</text><text fill="#000000" font-family="sans-serif" font-size="13" lengthAdjust="spacing" textLength="194" x="83.5" y="588.6455">refreshes the SignUp Request list</text><line style="stroke:#000000;stroke-width:1.0;stroke-dasharray:2.0,2.0;" x1="10" x2="799.5" y1="602.9082" y2="602.9082"/><text fill="#000000" font-family="sans-serif" font-size="11" font-weight="bold" lengthAdjust="spacing" textLength="83" x="15" y="614.7783">[unsuccessful]</text><polygon fill="#181818" points="526.5,637.8301,516.5,641.8301,526.5,645.8301,522.5,641.8301" style="stroke:#181818;stroke-width:1.0;"/><line style="stroke:#181818;stroke-width:1.0;stroke-dasharray:2.0,2.0;" x1="520.5" x2="748.5" y1="641.8301" y2="641.8301"/><text fill="#000000" font-family="sans-serif" font-size="13" font-weight="bold" lengthAdjust="spacing" textLength="14" x="532.5" y="636.5674">10</text><text fill="#000000" font-family="sans-serif" font-size="13" lengthAdjust="spacing" textLength="153" x="550.5" y="636.5674">Response error code - XXX</text><path d="M235.5,656.8301 L296.5,656.8301 L296.5,666.1211 L286.5,676.1211 L235.5,676.1211 L235.5,656.8301 " fill="#EEEEEE" style="stroke:#000000;stroke-width:1.5;"/><rect fill="none" height="115.1348" style="stroke:#000000;stroke-width:1.5;" width="370.5" x="235.5" y="656.8301"/><text fill="#000000" font-family="sans-serif" font-size="13" font-weight="bold" lengthAdjust="spacing" textLength="16" x="250.5" y="671.8584">alt</text><line style="stroke:#000000;stroke-width:1.0;stroke-dasharray:2.0,2.0;" x1="235.5" x2="606" y1="677.1211" y2="677.1211"/><text fill="#000000" font-family="sans-serif" font-size="11" font-weight="bold" lengthAdjust="spacing" textLength="167" x="240.5" y="688.9912">[role not found on Auth0 (404)]</text><polygon fill="#181818" points="311.5,712.043,301.5,716.043,311.5,720.043,307.5,716.043" style="stroke:#181818;stroke-width:1.0;"/><line style="stroke:#181818;stroke-width:1.0;stroke-dasharray:2.0,2.0;" x1="305.5" x2="504.5" y1="716.043" y2="716.043"/><text fill="#000000" font-family="sans-serif" font-size="13" font-weight="bold" lengthAdjust="spacing" textLength="14" x="317.5" y="710.7803">11</text><text fill="#000000" font-family="sans-serif" font-size="13" lengthAdjust="spacing" textLength="163" x="335.5" y="710.7803">Response status code - 404</text><line style="stroke:#000000;stroke-width:1.0;stroke-dasharray:2.0,2.0;" x1="235.5" x2="606" y1="725.043" y2="725.043"/><text fill="#000000" font-family="sans-serif" font-size="11" font-weight="bold" lengthAdjust="spacing" textLength="104" x="240.5" y="736.9131">[Auth0 unavailable]</text><polygon fill="#181818" points="311.5,759.9648,301.5,763.9648,311.5,767.9648,307.5,763.9648" style="stroke:#181818;stroke-width:1.0;"/><line style="stroke:#181818;stroke-width:1.0;stroke-dasharray:2.0,2.0;" x1="305.5" x2="509.5" y1="763.9648" y2="763.9648"/><text fill="#000000" font-family="sans-serif" font-size="13" font-weight="bold" lengthAdjust="spacing" textLength="14" x="317.5" y="758.7021">12</text><text fill="#000000" font-family="sans-serif" font-size="13" lengthAdjust="spacing" textLength="163" x="335.5" y="758.7021">Response status code - 503</text><polygon fill="#181818" points="66.5,798.2559,56.5,802.2559,66.5,806.2559,62.5,802.2559" style="stroke:#181818;stroke-width:1.0;"/><line style="stroke:#181818;stroke-width:1.0;stroke-dasharray:2.0,2.0;" x1="60.5" x2="294.5" y1="802.2559" y2="802.2559"/><text fill="#000000" font-family="sans-serif" font-size="13" font-weight="bold" lengthAdjust="spacing" textLength="14" x="72.5" y="796.9932">13</text><text fill="#000000" font-family="sans-serif" font-size="13" lengthAdjust="spacing" textLength="128" x="90.5" y="796.9932">display error message</text><!--SRC=[ZLFBZjf04BpFLxGu9L4ihCtcWX2IjNj83aW8Oed3NXfFiumOZvtfCLaKxR-dnuzWK1vx0dkgQwggozY4oZNbZhpYet4rUYoXnkA8pxG9PqlWgGXA1HFaVrRNlZeHRCoposjOq_U6M4wn29M7ISxa9u0CESpdcIwDMooKK0PJc1fTWCcgyW7jijADfHQvNYq5MrHbNJbouHOV6PVeH4mffwEvn-oVSraJ3caBp5B1qKiWxz0AB6er9mm4kL8v98ieOGQm8Ij66V36t4T0hHcU78BS5bK0EWs5DSMHeNAG5GNLuK8hT4f5Mq8jAcUmohuzVEbPUrAU_ZJwTQH5W0fj01PKKuEh0kohncaLVIQ3o3Mns6K23XWQ5a6Q887xzBwxK73v3BJXskAPWRoNhPJ4BFafiZBOI9xmmuG3C9Row8pe0Oq1FuX3wmdr6UZ5YCJeBHowmnso48WSrGbQIAo3iIdMPdgwcqPgyHL_lkhNgQyiySXXbdO66ucBMSbQaY6WlzYwIzFVrxMu1v4NznOz67SHTfMYfgl7RXNp9Fd_LNaBQuD-72B4GV0GOxly9-TfxuaFn6r4ruq1Q-8tqUNj-lbzO__ikLjIhsExtOuDI6Onj9uh9dffHbkzs79u9_j_h-0jFcDJMgv-j75uGcDnP-bj19_JJmfk8ewzW55uVVzkwZSQYbz8MwRHkrpz0W00]--></g></svg>