<?xml version="1.0" encoding="us-ascii" standalone="no"?><svg xmlns="http://www.w3.org/2000/svg" xmlns:xlink="http://www.w3.org/1999/xlink" contentStyleType="text/css" height="1437px" preserveAspectRatio="none" style="width:574px;height:1437px;background:#FFFFFF;" version="1.1" viewBox="0 0 574 1437" width="574px" zoomAndPan="magnify"><defs/><g><text fill="#000000" font-family="sans-serif" font-size="14" font-weight="bold" lengthAdjust="spacing" textLength="164" x="201.75" y="30.1074">Accept Signup Request</text><rect fill="#FFFFFF" height="1073.4375" style="stroke:#181818;stroke-width:1.0;" width="10" x="250" y="161.1543"/><rect fill="#FFFFFF" height="28" style="stroke:#181818;stroke-width:1.0;" width="10" x="255" y="550.6172"/><rect fill="#FFFFFF" height="136.7949" style="stroke:#181818;stroke-width:1.0;" width="10" x="503" y="192.4453"/><rect fill="#FFFFFF" height="136.7949" style="stroke:#181818;stroke-width:1.0;" width="10" x="503" y="367.5313"/><rect fill="#FFFFFF" height="31.291" style="stroke:#181818;stroke-width:1.0;" width="10" x="503" y="616.9082"/><rect fill="#FFFFFF" height="31.291" style="stroke:#181818;stroke-width:1.0;" width="10" x="503" y="768.3633"/><rect fill="#FFFFFF" height="31.291" style="stroke:#181818;stroke-width:1.0;" width="10" x="503" y="848.2363"/><rect fill="none" height="129.7949" style="stroke:#000000;stroke-width:1.5;" width="555.5" x="3" y="207.4453"/><rect fill="none" height="129.7949" style="stroke:#000000;stroke-width:1.5;" width="555.5" x="3" y="382.5313"/><rect fill="none" height="626.9746" style="stroke:#000000;stroke-width:1.5;" width="555.5" x="3" y="694.4902"/><rect fill="none" height="210.9785" style="stroke:#000000;stroke-width:1.5;" width="312" x="3" y="1031.6133"/><line style="stroke:#181818;stroke-width:0.5;stroke-dasharray:5.0,5.0;" x1="255" x2="255" y1="127.8633" y2="1338.4648"/><line style="stroke:#181818;stroke-width:0.5;stroke-dasharray:5.0,5.0;" x1="507.5" x2="507.5" y1="127.8633" y2="1338.4648"/><rect fill="#E2E2F0" height="51.2422" rx="2.5" ry="2.5" style="stroke:#181818;stroke-width:0.5;" width="100" x="205" y="75.6211"/><text fill="#000000" font-family="sans-serif" font-size="14" font-style="italic" lengthAdjust="spacing" textLength="86" x="212" y="97.7285">&#171;component&#187;</text><text fill="#000000" font-family="sans-serif" font-size="14" lengthAdjust="spacing" textLength="77" x="216.5" y="116.3496">C# Backend</text><rect fill="#E2E2F0" height="51.2422" rx="2.5" ry="2.5" style="stroke:#181818;stroke-width:0.5;" width="100" x="205" y="1337.4648"/><text fill="#000000" font-family="sans-serif" font-size="14" font-style="italic" lengthAdjust="spacing" textLength="86" x="212" y="1359.5723">&#171;component&#187;</text><text fill="#000000" font-family="sans-serif" font-size="14" lengthAdjust="spacing" textLength="77" x="216.5" y="1378.1934">C# Backend</text><text fill="#000000" font-family="sans-serif" font-size="14" font-style="italic" lengthAdjust="spacing" textLength="75" x="467.5" y="105.7285">&#171;database&#187;</text><text fill="#000000" font-family="sans-serif" font-size="14" lengthAdjust="spacing" textLength="46" x="482" y="124.3496">MySQL</text><path d="M490,54.6211 C490,44.6211 508,44.6211 508,44.6211 C508,44.6211 526,44.6211 526,54.6211 L526,80.6211 C526,90.6211 508,90.6211 508,90.6211 C508,90.6211 490,90.6211 490,80.6211 L490,54.6211 " fill="#E2E2F0" style="stroke:#181818;stroke-width:1.5;"/><path d="M490,54.6211 C490,64.6211 508,64.6211 508,64.6211 C508,64.6211 526,64.6211 526,54.6211 " fill="none" style="stroke:#181818;stroke-width:1.5;"/><text fill="#000000" font-family="sans-serif" font-size="14" font-style="italic" lengthAdjust="spacing" textLength="75" x="467.5" y="1352.5723">&#171;database&#187;</text><text fill="#000000" font-family="sans-serif" font-size="14" lengthAdjust="spacing" textLength="46" x="482" y="1371.1934">MySQL</text><path d="M490,1384.707 C490,1374.707 508,1374.707 508,1374.707 C508,1374.707 526,1374.707 526,1384.707 L526,1410.707 C526,1420.707 508,1420.707 508,1420.707 C508,1420.707 490,1420.707 490,1410.707 L490,1384.707 " fill="#E2E2F0" style="stroke:#181818;stroke-width:1.5;"/><path d="M490,1384.707 C490,1394.707 508,1394.707 508,1394.707 C508,1394.707 526,1394.707 526,1384.707 " fill="none" style="stroke:#181818;stroke-width:1.5;"/><rect fill="#FFFFFF" height="1073.4375" style="stroke:#181818;stroke-width:1.0;" width="10" x="250" y="161.1543"/><rect fill="#FFFFFF" height="28" style="stroke:#181818;stroke-width:1.0;" width="10" x="255" y="550.6172"/><rect fill="#FFFFFF" height="136.7949" style="stroke:#181818;stroke-width:1.0;" width="10" x="503" y="192.4453"/><rect fill="#FFFFFF" height="136.7949" style="stroke:#181818;stroke-width:1.0;" width="10" x="503" y="367.5313"/><rect fill="#FFFFFF" height="31.291" style="stroke:#181818;stroke-width:1.0;" width="10" x="503" y="616.9082"/><rect fill="#FFFFFF" height="31.291" style="stroke:#181818;stroke-width:1.0;" width="10" x="503" y="768.3633"/><rect fill="#FFFFFF" height="31.291" style="stroke:#181818;stroke-width:1.0;" width="10" x="503" y="848.2363"/><polygon fill="#181818" points="238,157.1543,248,161.1543,238,165.1543,242,161.1543" style="stroke:#181818;stroke-width:1.0;"/><line style="stroke:#181818;stroke-width:1.0;" x1="0" x2="244" y1="161.1543" y2="161.1543"/><text fill="#000000" font-family="sans-serif" font-size="13" font-weight="bold" lengthAdjust="spacing" textLength="7" x="7" y="155.8916">1</text><text fill="#000000" font-family="sans-serif" font-size="13" lengthAdjust="spacing" textLength="213" x="18" y="155.8916">PATCH /SignUpRequests/{id}/accept</text><polygon fill="#181818" points="491,188.4453,501,192.4453,491,196.4453,495,192.4453" style="stroke:#181818;stroke-width:1.0;"/><line style="stroke:#181818;stroke-width:1.0;" x1="260" x2="497" y1="192.4453" y2="192.4453"/><text fill="#000000" font-family="sans-serif" font-size="13" font-weight="bold" lengthAdjust="spacing" textLength="7" x="267" y="187.1826">2</text><text fill="#000000" font-family="sans-serif" font-size="13" lengthAdjust="spacing" textLength="147" x="278" y="187.1826">Get SignUpRequest by id</text><path d="M3,207.4453 L64,207.4453 L64,216.7363 L54,226.7363 L3,226.7363 L3,207.4453 " fill="#EEEEEE" style="stroke:#000000;stroke-width:1.5;"/><rect fill="none" height="129.7949" style="stroke:#000000;stroke-width:1.5;" width="555.5" x="3" y="207.4453"/><text fill="#000000" font-family="sans-serif" font-size="13" font-weight="bold" lengthAdjust="spacing" textLength="16" x="18" y="222.4736">alt</text><text fill="#000000" font-family="sans-serif" font-size="11" font-weight="bold" lengthAdjust="spacing" textLength="149" x="79" y="221.3154">[signup request not found]</text><polygon fill="#181818" points="271,246.0273,261,250.0273,271,254.0273,267,250.0273" style="stroke:#181818;stroke-width:1.0;"/><line style="stroke:#181818;stroke-width:1.0;stroke-dasharray:2.0,2.0;" x1="265" x2="502" y1="250.0273" y2="250.0273"/><text fill="#000000" font-family="sans-serif" font-size="13" font-weight="bold" lengthAdjust="spacing" textLength="7" x="277" y="244.7646">3</text><text fill="#000000" font-family="sans-serif" font-size="13" lengthAdjust="spacing" textLength="64" x="288" y="244.7646">returns null</text><polygon fill="#181818" points="11,277.3184,1,281.3184,11,285.3184,7,281.3184" style="stroke:#181818;stroke-width:1.0;"/><line style="stroke:#181818;stroke-width:1.0;stroke-dasharray:2.0,2.0;" x1="5" x2="249" y1="281.3184" y2="281.3184"/><text fill="#000000" font-family="sans-serif" font-size="13" font-weight="bold" lengthAdjust="spacing" textLength="7" x="17" y="276.0557">4</text><text fill="#000000" font-family="sans-serif" font-size="13" lengthAdjust="spacing" textLength="163" x="28" y="276.0557">Response status code - 404</text><line style="stroke:#000000;stroke-width:1.0;stroke-dasharray:2.0,2.0;" x1="3" x2="558.5" y1="290.3184" y2="290.3184"/><text fill="#000000" font-family="sans-serif" font-size="11" font-weight="bold" lengthAdjust="spacing" textLength="55" x="8" y="302.1885">[success]</text><polygon fill="#181818" points="271,325.2402,261,329.2402,271,333.2402,267,329.2402" style="stroke:#181818;stroke-width:1.0;"/><line style="stroke:#181818;stroke-width:1.0;stroke-dasharray:2.0,2.0;" x1="265" x2="507" y1="329.2402" y2="329.2402"/><text fill="#000000" font-family="sans-serif" font-size="13" font-weight="bold" lengthAdjust="spacing" textLength="7" x="277" y="323.9775">5</text><text fill="#000000" font-family="sans-serif" font-size="13" lengthAdjust="spacing" textLength="134" x="288" y="323.9775">returns SignUpRequest</text><polygon fill="#181818" points="491,363.5313,501,367.5313,491,371.5313,495,367.5313" style="stroke:#181818;stroke-width:1.0;"/><line style="stroke:#181818;stroke-width:1.0;" x1="260" x2="497" y1="367.5313" y2="367.5313"/><text fill="#000000" font-family="sans-serif" font-size="13" font-weight="bold" lengthAdjust="spacing" textLength="7" x="267" y="362.2686">6</text><text fill="#000000" font-family="sans-serif" font-size="13" lengthAdjust="spacing" textLength="136" x="278" y="362.2686">Get Actioner User by id</text><path d="M3,382.5313 L64,382.5313 L64,391.8223 L54,401.8223 L3,401.8223 L3,382.5313 " fill="#EEEEEE" style="stroke:#000000;stroke-width:1.5;"/><rect fill="none" height="129.7949" style="stroke:#000000;stroke-width:1.5;" width="555.5" x="3" y="382.5313"/><text fill="#000000" font-family="sans-serif" font-size="13" font-weight="bold" lengthAdjust="spacing" textLength="16" x="18" y="397.5596">alt</text><text fill="#000000" font-family="sans-serif" font-size="11" font-weight="bold" lengthAdjust="spacing" textLength="90" x="79" y="396.4014">[user not found]</text><polygon fill="#181818" points="271,421.1133,261,425.1133,271,429.1133,267,425.1133" style="stroke:#181818;stroke-width:1.0;"/><line style="stroke:#181818;stroke-width:1.0;stroke-dasharray:2.0,2.0;" x1="265" x2="502" y1="425.1133" y2="425.1133"/><text fill="#000000" font-family="sans-serif" font-size="13" font-weight="bold" lengthAdjust="spacing" textLength="7" x="277" y="419.8506">7</text><text fill="#000000" font-family="sans-serif" font-size="13" lengthAdjust="spacing" textLength="64" x="288" y="419.8506">returns null</text><polygon fill="#181818" points="11,452.4043,1,456.4043,11,460.4043,7,456.4043" style="stroke:#181818;stroke-width:1.0;"/><line style="stroke:#181818;stroke-width:1.0;stroke-dasharray:2.0,2.0;" x1="5" x2="249" y1="456.4043" y2="456.4043"/><text fill="#000000" font-family="sans-serif" font-size="13" font-weight="bold" lengthAdjust="spacing" textLength="7" x="17" y="451.1416">8</text><text fill="#000000" font-family="sans-serif" font-size="13" lengthAdjust="spacing" textLength="163" x="28" y="451.1416">Response status code - 404</text><line style="stroke:#000000;stroke-width:1.0;stroke-dasharray:2.0,2.0;" x1="3" x2="558.5" y1="465.4043" y2="465.4043"/><text fill="#000000" font-family="sans-serif" font-size="11" font-weight="bold" lengthAdjust="spacing" textLength="55" x="8" y="477.2744">[success]</text><polygon fill="#181818" points="271,500.3262,261,504.3262,271,508.3262,267,504.3262" style="stroke:#181818;stroke-width:1.0;"/><line style="stroke:#181818;stroke-width:1.0;stroke-dasharray:2.0,2.0;" x1="265" x2="507" y1="504.3262" y2="504.3262"/><text fill="#000000" font-family="sans-serif" font-size="13" font-weight="bold" lengthAdjust="spacing" textLength="7" x="277" y="499.0635">9</text><text fill="#000000" font-family="sans-serif" font-size="13" lengthAdjust="spacing" textLength="71" x="288" y="499.0635">returns User</text><line style="stroke:#181818;stroke-width:1.0;" x1="265" x2="307" y1="542.6172" y2="542.6172"/><line style="stroke:#181818;stroke-width:1.0;" x1="307" x2="307" y1="542.6172" y2="555.6172"/><line style="stroke:#181818;stroke-width:1.0;" x1="266" x2="307" y1="555.6172" y2="555.6172"/><polygon fill="#181818" points="276,551.6172,266,555.6172,276,559.6172,272,555.6172" style="stroke:#181818;stroke-width:1.0;"/><text fill="#000000" font-family="sans-serif" font-size="13" font-weight="bold" lengthAdjust="spacing" textLength="14" x="272" y="537.3545">10</text><text fill="#000000" font-family="sans-serif" font-size="13" lengthAdjust="spacing" textLength="69" x="290" y="537.3545">Create User</text><polygon fill="#181818" points="491,612.9082,501,616.9082,491,620.9082,495,616.9082" style="stroke:#181818;stroke-width:1.0;"/><line style="stroke:#181818;stroke-width:1.0;" x1="260" x2="497" y1="616.9082" y2="616.9082"/><text fill="#000000" font-family="sans-serif" font-size="13" font-weight="bold" lengthAdjust="spacing" textLength="14" x="267" y="611.6455">11</text><text fill="#000000" font-family="sans-serif" font-size="13" lengthAdjust="spacing" textLength="59" x="285" y="611.6455">Save User</text><polygon fill="#181818" points="271,644.1992,261,648.1992,271,652.1992,267,648.1992" style="stroke:#181818;stroke-width:1.0;"/><line style="stroke:#181818;stroke-width:1.0;stroke-dasharray:2.0,2.0;" x1="265" x2="507" y1="648.1992" y2="648.1992"/><text fill="#000000" font-family="sans-serif" font-size="13" font-weight="bold" lengthAdjust="spacing" textLength="14" x="277" y="642.9365">12</text><text fill="#000000" font-family="sans-serif" font-size="13" lengthAdjust="spacing" textLength="93" x="295" y="642.9365">returns success</text><polygon fill="#181818" points="556.5,675.4902,566.5,679.4902,556.5,683.4902,560.5,679.4902" style="stroke:#181818;stroke-width:1.0;"/><line style="stroke:#181818;stroke-width:1.0;" x1="260" x2="562.5" y1="679.4902" y2="679.4902"/><text fill="#000000" font-family="sans-serif" font-size="13" font-weight="bold" lengthAdjust="spacing" textLength="14" x="267" y="674.2275">13</text><text fill="#000000" font-family="sans-serif" font-size="13" lengthAdjust="spacing" textLength="199" x="285" y="674.2275">PATCH /api/v2/users/{userId}/roles</text><path d="M3,694.4902 L64,694.4902 L64,703.7813 L54,713.7813 L3,713.7813 L3,694.4902 " fill="#EEEEEE" style="stroke:#000000;stroke-width:1.5;"/><rect fill="none" height="626.9746" style="stroke:#000000;stroke-width:1.5;" width="555.5" x="3" y="694.4902"/><text fill="#000000" font-family="sans-serif" font-size="13" font-weight="bold" lengthAdjust="spacing" textLength="16" x="18" y="709.5186">alt</text><text fill="#000000" font-family="sans-serif" font-size="11" font-weight="bold" lengthAdjust="spacing" textLength="55" x="79" y="708.3604">[success]</text><polygon fill="#181818" points="271,733.0723,261,737.0723,271,741.0723,267,737.0723" style="stroke:#181818;stroke-width:1.0;"/><line style="stroke:#181818;stroke-width:1.0;stroke-dasharray:2.0,2.0;" x1="265" x2="567.5" y1="737.0723" y2="737.0723"/><text fill="#000000" font-family="sans-serif" font-size="13" font-weight="bold" lengthAdjust="spacing" textLength="14" x="277" y="731.8096">14</text><text fill="#000000" font-family="sans-serif" font-size="13" lengthAdjust="spacing" textLength="163" x="295" y="731.8096">Response status code - 204</text><polygon fill="#181818" points="491,764.3633,501,768.3633,491,772.3633,495,768.3633" style="stroke:#181818;stroke-width:1.0;"/><line style="stroke:#181818;stroke-width:1.0;" x1="260" x2="497" y1="768.3633" y2="768.3633"/><text fill="#000000" font-family="sans-serif" font-size="13" font-weight="bold" lengthAdjust="spacing" textLength="14" x="267" y="763.1006">15</text><text fill="#000000" font-family="sans-serif" font-size="13" lengthAdjust="spacing" textLength="57" x="285" y="763.1006">Save user</text><polygon fill="#181818" points="271,795.6543,261,799.6543,271,803.6543,267,799.6543" style="stroke:#181818;stroke-width:1.0;"/><line style="stroke:#181818;stroke-width:1.0;stroke-dasharray:2.0,2.0;" x1="265" x2="507" y1="799.6543" y2="799.6543"/><text fill="#000000" font-family="sans-serif" font-size="13" font-weight="bold" lengthAdjust="spacing" textLength="14" x="277" y="794.3916">16</text><text fill="#000000" font-family="sans-serif" font-size="13" lengthAdjust="spacing" textLength="93" x="295" y="794.3916">returns success</text><polygon fill="#181818" points="491,844.2363,501,848.2363,491,852.2363,495,848.2363" style="stroke:#181818;stroke-width:1.0;"/><line style="stroke:#181818;stroke-width:1.0;" x1="260" x2="497" y1="848.2363" y2="848.2363"/><text fill="#000000" font-family="sans-serif" font-size="13" font-weight="bold" lengthAdjust="spacing" textLength="14" x="267" y="834.3281">17</text><text fill="#000000" font-family="sans-serif" font-size="13" lengthAdjust="spacing" textLength="202" x="285" y="825.6826">Update SignUpRequest with status</text><text fill="#000000" font-family="sans-serif" font-size="13" lengthAdjust="spacing" textLength="200" x="285" y="842.9736">ACCEPTED and the Actioner User</text><polygon fill="#181818" points="271,875.5273,261,879.5273,271,883.5273,267,879.5273" style="stroke:#181818;stroke-width:1.0;"/><line style="stroke:#181818;stroke-width:1.0;stroke-dasharray:2.0,2.0;" x1="265" x2="507" y1="879.5273" y2="879.5273"/><text fill="#000000" font-family="sans-serif" font-size="13" font-weight="bold" lengthAdjust="spacing" textLength="14" x="277" y="874.2646">18</text><text fill="#000000" font-family="sans-serif" font-size="13" lengthAdjust="spacing" textLength="93" x="295" y="874.2646">returns success</text><line style="stroke:#000000;stroke-width:1.0;stroke-dasharray:2.0,2.0;" x1="3" x2="558.5" y1="888.5273" y2="888.5273"/><text fill="#000000" font-family="sans-serif" font-size="11" font-weight="bold" lengthAdjust="spacing" textLength="83" x="8" y="900.3975">[unsuccessful]</text><polygon fill="#181818" points="271,923.4492,261,927.4492,271,931.4492,267,927.4492" style="stroke:#181818;stroke-width:1.0;"/><line style="stroke:#181818;stroke-width:1.0;stroke-dasharray:2.0,2.0;" x1="265" x2="567.5" y1="927.4492" y2="927.4492"/><text fill="#000000" font-family="sans-serif" font-size="13" font-weight="bold" lengthAdjust="spacing" textLength="14" x="277" y="922.1865">19</text><text fill="#000000" font-family="sans-serif" font-size="13" lengthAdjust="spacing" textLength="163" x="295" y="922.1865">Response status code - XXX</text><path d="M104,940.4492 L104,1019.4492 L405,1019.4492 L405,950.4492 L395,940.4492 L104,940.4492 " fill="#FEFFDD" style="stroke:#181818;stroke-width:0.5;"/><path d="M395,940.4492 L395,950.4492 L405,950.4492 L395,940.4492 " fill="#FEFFDD" style="stroke:#181818;stroke-width:0.5;"/><text fill="#000000" font-family="sans-serif" font-size="13" lengthAdjust="spacing" textLength="249" x="110" y="959.4775">Here we have all the error handling from the</text><text fill="#000000" font-family="sans-serif" font-size="13" lengthAdjust="spacing" textLength="253" x="110" y="976.7686">User entity creation, signup request update,</text><text fill="#000000" font-family="sans-serif" font-size="13" lengthAdjust="spacing" textLength="280" x="110" y="994.0596">Auth0 add role action &amp; save and update actions</text><text fill="#000000" font-family="sans-serif" font-size="13" lengthAdjust="spacing" textLength="104" x="110" y="1011.3506">from the database</text><path d="M3,1031.6133 L64,1031.6133 L64,1040.9043 L54,1050.9043 L3,1050.9043 L3,1031.6133 " fill="#EEEEEE" style="stroke:#000000;stroke-width:1.5;"/><rect fill="none" height="210.9785" style="stroke:#000000;stroke-width:1.5;" width="312" x="3" y="1031.6133"/><text fill="#000000" font-family="sans-serif" font-size="13" font-weight="bold" lengthAdjust="spacing" textLength="16" x="18" y="1046.6416">alt</text><line style="stroke:#000000;stroke-width:1.0;stroke-dasharray:2.0,2.0;" x1="3" x2="315" y1="1051.9043" y2="1051.9043"/><text fill="#000000" font-family="sans-serif" font-size="11" font-weight="bold" lengthAdjust="spacing" textLength="69" x="8" y="1063.7744">[invalid data]</text><polygon fill="#181818" points="11,1086.8262,1,1090.8262,11,1094.8262,7,1090.8262" style="stroke:#181818;stroke-width:1.0;"/><line style="stroke:#181818;stroke-width:1.0;stroke-dasharray:2.0,2.0;" x1="5" x2="249" y1="1090.8262" y2="1090.8262"/><text fill="#000000" font-family="sans-serif" font-size="13" font-weight="bold" lengthAdjust="spacing" textLength="14" x="17" y="1085.5635">20</text><text fill="#000000" font-family="sans-serif" font-size="13" lengthAdjust="spacing" textLength="163" x="35" y="1085.5635">Response status code - 400</text><line style="stroke:#000000;stroke-width:1.0;stroke-dasharray:2.0,2.0;" x1="3" x2="315" y1="1099.8262" y2="1099.8262"/><text fill="#000000" font-family="sans-serif" font-size="11" font-weight="bold" lengthAdjust="spacing" textLength="138" x="8" y="1111.6963">[role not found on Auth0]</text><polygon fill="#181818" points="11,1134.748,1,1138.748,11,1142.748,7,1138.748" style="stroke:#181818;stroke-width:1.0;"/><line style="stroke:#181818;stroke-width:1.0;stroke-dasharray:2.0,2.0;" x1="5" x2="249" y1="1138.748" y2="1138.748"/><text fill="#000000" font-family="sans-serif" font-size="13" font-weight="bold" lengthAdjust="spacing" textLength="14" x="17" y="1133.4854">21</text><text fill="#000000" font-family="sans-serif" font-size="13" lengthAdjust="spacing" textLength="163" x="35" y="1133.4854">Response status code - 404</text><line style="stroke:#000000;stroke-width:1.0;stroke-dasharray:2.0,2.0;" x1="3" x2="315" y1="1147.748" y2="1147.748"/><text fill="#000000" font-family="sans-serif" font-size="11" font-weight="bold" lengthAdjust="spacing" textLength="114" x="8" y="1159.6182">[user already exists]</text><polygon fill="#181818" points="11,1182.6699,1,1186.6699,11,1190.6699,7,1186.6699" style="stroke:#181818;stroke-width:1.0;"/><line style="stroke:#181818;stroke-width:1.0;stroke-dasharray:2.0,2.0;" x1="5" x2="249" y1="1186.6699" y2="1186.6699"/><text fill="#000000" font-family="sans-serif" font-size="13" font-weight="bold" lengthAdjust="spacing" textLength="14" x="17" y="1181.4072">22</text><text fill="#000000" font-family="sans-serif" font-size="13" lengthAdjust="spacing" textLength="163" x="35" y="1181.4072">Response status code - 409</text><line style="stroke:#000000;stroke-width:1.0;stroke-dasharray:2.0,2.0;" x1="3" x2="315" y1="1195.6699" y2="1195.6699"/><text fill="#000000" font-family="sans-serif" font-size="11" font-weight="bold" lengthAdjust="spacing" textLength="172" x="8" y="1207.54">[database or Auth0 unavailable]</text><polygon fill="#181818" points="11,1230.5918,1,1234.5918,11,1238.5918,7,1234.5918" style="stroke:#181818;stroke-width:1.0;"/><line style="stroke:#181818;stroke-width:1.0;stroke-dasharray:2.0,2.0;" x1="5" x2="254" y1="1234.5918" y2="1234.5918"/><text fill="#000000" font-family="sans-serif" font-size="13" font-weight="bold" lengthAdjust="spacing" textLength="14" x="17" y="1229.3291">23</text><text fill="#000000" font-family="sans-serif" font-size="13" lengthAdjust="spacing" textLength="163" x="35" y="1229.3291">Response status code - 503</text><path d="M71,1254.5918 L71,1315.5918 L439,1315.5918 L439,1264.5918 L429,1254.5918 L71,1254.5918 " fill="#FEFFDD" style="stroke:#181818;stroke-width:0.5;"/><path d="M429,1254.5918 L429,1264.5918 L439,1264.5918 L429,1254.5918 " fill="#FEFFDD" style="stroke:#181818;stroke-width:0.5;"/><text fill="#000000" font-family="sans-serif" font-size="13" lengthAdjust="spacing" textLength="334" x="77" y="1273.6201">If there exists any kind of error, when performing database</text><text fill="#000000" font-family="sans-serif" font-size="13" lengthAdjust="spacing" textLength="347" x="77" y="1290.9111">operations there is a remove role action that will be triggered</text><text fill="#000000" font-family="sans-serif" font-size="13" lengthAdjust="spacing" textLength="194" x="77" y="1308.2021">to the role from the user on Auth0</text><!--SRC=[lLLDJnin4BtxLuoer1EhH9GUYX1I4b11AX8b877ePRAU91QElVL7Q5JrltTiPrTPI0NYq4iIpUURzsOSZC6Qk9gH4_vHcGOThg31-X4ND0qRJU2e3a845VZtgAwf2J1L2nCRkAMVaJmxEIkeMZLe0XnCFi2Oyyd80q0FvwDhE3sjxQgnXamuEnCI0yxG4nnSRwRVlvMeCGUr3euHrLdAF86RqTta4WQfutspRUW7lvNyCy0CHc0Tr1e3fNYHkgNKyGbyfGAqIuFP1fJSYHyBr05y6SPjWumDCBVHIC6OgXQ6en2TyM2YrkAqgehrbZnFnPFuW25wgAqagE1uU2n89tDaYDxlhTI39YJjmcBknFDHHknd1XtSU_xOFqfChlyrGCAn1tSBEuLE72LFZkp9j9lMLssAwnS9uxtzMsnz26sjRdEmKOFrqI1HmtkJlgvuTvpLv8lyxOXfJwlgdvmSCISlWCRt0zqfTT_8PEmlwvCAonR23pEQJ2vkxYxE0Os4iAJ-EhoNgo9oD5ltFEfNQNXuU12yOGHspSsJU9Va29u8beaGr3h38-UiOvEHMfa5p9rT9Rl8oylFW0eRgDDsy127pqymPZuEnIY6vH1GIaXo0UQHuIFut8c9A85RXnTj5sWVahIGwHv89AdBjCgiKIkPOmJ0wwSmB7aPGdTRm40oF05lFgPydQXvQha1-gNu8NjBzfUItRsQp6iX9XfSez8uq_HwdS_3JmAUdLqwrxwML_F47-jPu3796-1_1HvtNYGzXASb6MZ8pQrR9MaxhYqRivv-MqDnFckwukez0SCIqthpfim8WbEB1KTB4MpMBaTsIcREEguxEVC3-HS0]--></g></svg>