<?xml version="1.0" encoding="us-ascii" standalone="no"?><svg xmlns="http://www.w3.org/2000/svg" xmlns:xlink="http://www.w3.org/1999/xlink" contentStyleType="text/css" height="364px" preserveAspectRatio="none" style="width:275px;height:364px;background:#FFFFFF;" version="1.1" viewBox="0 0 275 364" width="275px" zoomAndPan="magnify"><defs/><g><text fill="#000000" font-family="sans-serif" font-size="14" font-weight="bold" lengthAdjust="spacing" textLength="141" x="68" y="30.1074">Retrieve Resources</text><rect fill="#FFFFFF" height="169.4258" style="stroke:#181818;stroke-width:1.0;" width="10" x="200" y="130.1543"/><rect fill="none" height="146.4258" style="stroke:#000000;stroke-width:1.5;" width="265" x="3" y="145.1543"/><line style="stroke:#181818;stroke-width:0.5;stroke-dasharray:5.0,5.0;" x1="205" x2="205" y1="96.8633" y2="308.5801"/><rect fill="#E2E2F0" height="51.2422" rx="2.5" ry="2.5" style="stroke:#181818;stroke-width:0.5;" width="106" x="152" y="44.6211"/><text fill="#000000" font-family="sans-serif" font-size="14" font-style="italic" lengthAdjust="spacing" textLength="92" x="159" y="66.7285">&#171;system (C4)&#187;</text><text fill="#000000" font-family="sans-serif" font-size="14" lengthAdjust="spacing" textLength="84" x="163" y="85.3496">RobDroneGo</text><rect fill="#E2E2F0" height="51.2422" rx="2.5" ry="2.5" style="stroke:#181818;stroke-width:0.5;" width="106" x="152" y="307.5801"/><text fill="#000000" font-family="sans-serif" font-size="14" font-style="italic" lengthAdjust="spacing" textLength="92" x="159" y="329.6875">&#171;system (C4)&#187;</text><text fill="#000000" font-family="sans-serif" font-size="14" lengthAdjust="spacing" textLength="84" x="163" y="348.3086">RobDroneGo</text><rect fill="#FFFFFF" height="169.4258" style="stroke:#181818;stroke-width:1.0;" width="10" x="200" y="130.1543"/><polygon fill="#181818" points="188,126.1543,198,130.1543,188,134.1543,192,130.1543" style="stroke:#181818;stroke-width:1.0;"/><line style="stroke:#181818;stroke-width:1.0;" x1="0" x2="194" y1="130.1543" y2="130.1543"/><text fill="#000000" font-family="sans-serif" font-size="13" font-weight="bold" lengthAdjust="spacing" textLength="7" x="7" y="124.8916">1</text><text fill="#000000" font-family="sans-serif" font-size="13" lengthAdjust="spacing" textLength="111" x="18" y="124.8916">GET resources/{...}</text><path d="M3,145.1543 L64,145.1543 L64,154.4453 L54,164.4453 L3,164.4453 L3,145.1543 " fill="#EEEEEE" style="stroke:#000000;stroke-width:1.5;"/><rect fill="none" height="146.4258" style="stroke:#000000;stroke-width:1.5;" width="265" x="3" y="145.1543"/><text fill="#000000" font-family="sans-serif" font-size="13" font-weight="bold" lengthAdjust="spacing" textLength="16" x="18" y="160.1826">alt</text><text fill="#000000" font-family="sans-serif" font-size="11" font-weight="bold" lengthAdjust="spacing" textLength="120" x="79" y="159.0244">[resources retrieved]</text><polygon fill="#181818" points="11,183.7363,1,187.7363,11,191.7363,7,187.7363" style="stroke:#181818;stroke-width:1.0;"/><line style="stroke:#181818;stroke-width:1.0;stroke-dasharray:2.0,2.0;" x1="5" x2="199" y1="187.7363" y2="187.7363"/><text fill="#000000" font-family="sans-serif" font-size="13" font-weight="bold" lengthAdjust="spacing" textLength="7" x="17" y="182.4736">2</text><text fill="#000000" font-family="sans-serif" font-size="13" lengthAdjust="spacing" textLength="163" x="28" y="182.4736">Response status code - 200</text><line style="stroke:#000000;stroke-width:1.0;stroke-dasharray:2.0,2.0;" x1="3" x2="268" y1="196.7363" y2="196.7363"/><text fill="#000000" font-family="sans-serif" font-size="11" font-weight="bold" lengthAdjust="spacing" textLength="81" x="8" y="208.6064">[unauthorized]</text><polygon fill="#181818" points="11,231.6582,1,235.6582,11,239.6582,7,235.6582" style="stroke:#181818;stroke-width:1.0;"/><line style="stroke:#181818;stroke-width:1.0;stroke-dasharray:2.0,2.0;" x1="5" x2="199" y1="235.6582" y2="235.6582"/><text fill="#000000" font-family="sans-serif" font-size="13" font-weight="bold" lengthAdjust="spacing" textLength="7" x="17" y="230.3955">3</text><text fill="#000000" font-family="sans-serif" font-size="13" lengthAdjust="spacing" textLength="163" x="28" y="230.3955">Response status code - 401</text><line style="stroke:#000000;stroke-width:1.0;stroke-dasharray:2.0,2.0;" x1="3" x2="268" y1="244.6582" y2="244.6582"/><text fill="#000000" font-family="sans-serif" font-size="11" font-weight="bold" lengthAdjust="spacing" textLength="122" x="8" y="256.5283">[database unavailable]</text><polygon fill="#181818" points="11,279.5801,1,283.5801,11,287.5801,7,283.5801" style="stroke:#181818;stroke-width:1.0;"/><line style="stroke:#181818;stroke-width:1.0;stroke-dasharray:2.0,2.0;" x1="5" x2="199" y1="283.5801" y2="283.5801"/><text fill="#000000" font-family="sans-serif" font-size="13" font-weight="bold" lengthAdjust="spacing" textLength="7" x="17" y="278.3174">4</text><text fill="#000000" font-family="sans-serif" font-size="13" lengthAdjust="spacing" textLength="163" x="28" y="278.3174">Response status code - 503</text><!--SRC=[ZOwnRiCm34HtVWMHgHtiE6sw58QN9l3kvWTecMY5o98XKWQIeFyU6GxGDTlnSFTub3JuDFOSGSxMJnHfn8dCcNxuMo-ECR9H0BMQTSSQBS-Ba92YOG785RN6JkGLDrte3p5uRiC6IR0xj5ZNSX7b4L- -zgzD0r0qY_-9xV6KuG_EzbQMvHy06RKpAI-HV3dzZsIrVXy04EkYM35voXIyC8gI9a4J1iO2tweAW5tsawUalo7QwtFDVRLxD0TIwcb5p6GTzOwV8NnKxvdW1xW3]--></g></svg>