<?xml version="1.0" encoding="us-ascii" standalone="no"?><svg xmlns="http://www.w3.org/2000/svg" xmlns:xlink="http://www.w3.org/1999/xlink" contentStyleType="text/css" height="680px" preserveAspectRatio="none" style="width:402px;height:680px;background:#FFFFFF;" version="1.1" viewBox="0 0 402 680" width="402px" zoomAndPan="magnify"><defs/><g><text fill="#000000" font-family="sans-serif" font-size="14" font-weight="bold" lengthAdjust="spacing" textLength="63" x="171.25" y="30.1074">Edit Task</text><rect fill="#FFFFFF" height="410.7246" style="stroke:#181818;stroke-width:1.0;" width="10" x="200" y="161.1543"/><rect fill="#FFFFFF" height="31.291" style="stroke:#181818;stroke-width:1.0;" width="10" x="339" y="229.7363"/><rect fill="#FFFFFF" height="31.291" style="stroke:#181818;stroke-width:1.0;" width="10" x="339" y="404.8223"/><rect fill="none" height="98.5039" style="stroke:#000000;stroke-width:1.5;" width="265" x="3" y="276.0273"/><rect fill="none" height="112.7656" style="stroke:#000000;stroke-width:1.5;" width="265" x="3" y="451.1133"/><line style="stroke:#181818;stroke-width:0.5;stroke-dasharray:5.0,5.0;" x1="205" x2="205" y1="127.8633" y2="580.8789"/><line style="stroke:#181818;stroke-width:0.5;stroke-dasharray:5.0,5.0;" x1="343.5" x2="343.5" y1="127.8633" y2="580.8789"/><rect fill="#E2E2F0" height="51.2422" rx="2.5" ry="2.5" style="stroke:#181818;stroke-width:0.5;" width="106" x="152" y="75.6211"/><text fill="#000000" font-family="sans-serif" font-size="14" font-style="italic" lengthAdjust="spacing" textLength="86" x="162" y="97.7285">&#171;component&#187;</text><text fill="#000000" font-family="sans-serif" font-size="14" lengthAdjust="spacing" textLength="92" x="159" y="116.3496">Node Backend</text><rect fill="#E2E2F0" height="51.2422" rx="2.5" ry="2.5" style="stroke:#181818;stroke-width:0.5;" width="106" x="152" y="579.8789"/><text fill="#000000" font-family="sans-serif" font-size="14" font-style="italic" lengthAdjust="spacing" textLength="86" x="162" y="601.9863">&#171;component&#187;</text><text fill="#000000" font-family="sans-serif" font-size="14" lengthAdjust="spacing" textLength="92" x="159" y="620.6074">Node Backend</text><text fill="#000000" font-family="sans-serif" font-size="14" font-style="italic" lengthAdjust="spacing" textLength="86" x="298" y="105.7285">&#171;component&#187;</text><text fill="#000000" font-family="sans-serif" font-size="14" lengthAdjust="spacing" textLength="109" x="286.5" y="124.3496">Mongo DataBase</text><path d="M326,54.6211 C326,44.6211 344,44.6211 344,44.6211 C344,44.6211 362,44.6211 362,54.6211 L362,80.6211 C362,90.6211 344,90.6211 344,90.6211 C344,90.6211 326,90.6211 326,80.6211 L326,54.6211 " fill="#E2E2F0" style="stroke:#181818;stroke-width:1.5;"/><path d="M326,54.6211 C326,64.6211 344,64.6211 344,64.6211 C344,64.6211 362,64.6211 362,54.6211 " fill="none" style="stroke:#181818;stroke-width:1.5;"/><text fill="#000000" font-family="sans-serif" font-size="14" font-style="italic" lengthAdjust="spacing" textLength="86" x="298" y="594.9863">&#171;component&#187;</text><text fill="#000000" font-family="sans-serif" font-size="14" lengthAdjust="spacing" textLength="109" x="286.5" y="613.6074">Mongo DataBase</text><path d="M326,627.1211 C326,617.1211 344,617.1211 344,617.1211 C344,617.1211 362,617.1211 362,627.1211 L362,653.1211 C362,663.1211 344,663.1211 344,663.1211 C344,663.1211 326,663.1211 326,653.1211 L326,627.1211 " fill="#E2E2F0" style="stroke:#181818;stroke-width:1.5;"/><path d="M326,627.1211 C326,637.1211 344,637.1211 344,637.1211 C344,637.1211 362,637.1211 362,627.1211 " fill="none" style="stroke:#181818;stroke-width:1.5;"/><rect fill="#FFFFFF" height="410.7246" style="stroke:#181818;stroke-width:1.0;" width="10" x="200" y="161.1543"/><rect fill="#FFFFFF" height="31.291" style="stroke:#181818;stroke-width:1.0;" width="10" x="339" y="229.7363"/><rect fill="#FFFFFF" height="31.291" style="stroke:#181818;stroke-width:1.0;" width="10" x="339" y="404.8223"/><polygon fill="#181818" points="188,157.1543,198,161.1543,188,165.1543,192,161.1543" style="stroke:#181818;stroke-width:1.0;"/><line style="stroke:#181818;stroke-width:1.0;" x1="0" x2="194" y1="161.1543" y2="161.1543"/><text fill="#000000" font-family="sans-serif" font-size="13" font-weight="bold" lengthAdjust="spacing" textLength="7" x="7" y="155.8916">1</text><text fill="#000000" font-family="sans-serif" font-size="13" lengthAdjust="spacing" textLength="157" x="18" y="155.8916">PATCH tasks/{state: state}</text><path d="M215,174.1543 L215,201.1543 L325,201.1543 L325,184.1543 L315,174.1543 L215,174.1543 " fill="#FEFFDD" style="stroke:#181818;stroke-width:0.5;"/><path d="M315,174.1543 L315,184.1543 L325,184.1543 L315,174.1543 " fill="#FEFFDD" style="stroke:#181818;stroke-width:0.5;"/><text fill="#000000" font-family="sans-serif" font-size="13" lengthAdjust="spacing" textLength="89" x="221" y="193.1826">Edit task state.</text><polygon fill="#181818" points="327,225.7363,337,229.7363,327,233.7363,331,229.7363" style="stroke:#181818;stroke-width:1.0;"/><line style="stroke:#181818;stroke-width:1.0;" x1="210" x2="333" y1="229.7363" y2="229.7363"/><text fill="#000000" font-family="sans-serif" font-size="13" font-weight="bold" lengthAdjust="spacing" textLength="7" x="217" y="224.4736">2</text><text fill="#000000" font-family="sans-serif" font-size="13" lengthAdjust="spacing" textLength="99" x="228" y="224.4736">find by task code</text><polygon fill="#181818" points="221,257.0273,211,261.0273,221,265.0273,217,261.0273" style="stroke:#181818;stroke-width:1.0;"/><line style="stroke:#181818;stroke-width:1.0;stroke-dasharray:2.0,2.0;" x1="215" x2="343" y1="261.0273" y2="261.0273"/><text fill="#000000" font-family="sans-serif" font-size="13" font-weight="bold" lengthAdjust="spacing" textLength="7" x="227" y="255.7646">3</text><text fill="#000000" font-family="sans-serif" font-size="13" lengthAdjust="spacing" textLength="4" x="238" y="255.7646">&#160;</text><path d="M3,276.0273 L64,276.0273 L64,285.3184 L54,295.3184 L3,295.3184 L3,276.0273 " fill="#EEEEEE" style="stroke:#000000;stroke-width:1.5;"/><rect fill="none" height="98.5039" style="stroke:#000000;stroke-width:1.5;" width="265" x="3" y="276.0273"/><text fill="#000000" font-family="sans-serif" font-size="13" font-weight="bold" lengthAdjust="spacing" textLength="16" x="18" y="291.0557">alt</text><text fill="#000000" font-family="sans-serif" font-size="11" font-weight="bold" lengthAdjust="spacing" textLength="88" x="79" y="289.8975">[task not found]</text><polygon fill="#181818" points="11,314.6094,1,318.6094,11,322.6094,7,318.6094" style="stroke:#181818;stroke-width:1.0;"/><line style="stroke:#181818;stroke-width:1.0;stroke-dasharray:2.0,2.0;" x1="5" x2="199" y1="318.6094" y2="318.6094"/><text fill="#000000" font-family="sans-serif" font-size="13" font-weight="bold" lengthAdjust="spacing" textLength="7" x="17" y="313.3467">4</text><text fill="#000000" font-family="sans-serif" font-size="13" lengthAdjust="spacing" textLength="163" x="28" y="313.3467">Response status code - 404</text><line style="stroke:#000000;stroke-width:1.0;stroke-dasharray:2.0,2.0;" x1="3" x2="268" y1="327.6094" y2="327.6094"/><text fill="#000000" font-family="sans-serif" font-size="11" font-weight="bold" lengthAdjust="spacing" textLength="122" x="8" y="339.4795">[database unavailable]</text><polygon fill="#181818" points="11,362.5313,1,366.5313,11,370.5313,7,366.5313" style="stroke:#181818;stroke-width:1.0;"/><line style="stroke:#181818;stroke-width:1.0;stroke-dasharray:2.0,2.0;" x1="5" x2="199" y1="366.5313" y2="366.5313"/><text fill="#000000" font-family="sans-serif" font-size="13" font-weight="bold" lengthAdjust="spacing" textLength="7" x="17" y="361.2686">5</text><text fill="#000000" font-family="sans-serif" font-size="13" lengthAdjust="spacing" textLength="163" x="28" y="361.2686">Response status code - 503</text><polygon fill="#181818" points="327,400.8223,337,404.8223,327,408.8223,331,404.8223" style="stroke:#181818;stroke-width:1.0;"/><line style="stroke:#181818;stroke-width:1.0;" x1="210" x2="333" y1="404.8223" y2="404.8223"/><text fill="#000000" font-family="sans-serif" font-size="13" font-weight="bold" lengthAdjust="spacing" textLength="7" x="217" y="399.5596">6</text><text fill="#000000" font-family="sans-serif" font-size="13" lengthAdjust="spacing" textLength="39" x="228" y="399.5596">update</text><polygon fill="#181818" points="221,432.1133,211,436.1133,221,440.1133,217,436.1133" style="stroke:#181818;stroke-width:1.0;"/><line style="stroke:#181818;stroke-width:1.0;stroke-dasharray:2.0,2.0;" x1="215" x2="343" y1="436.1133" y2="436.1133"/><text fill="#000000" font-family="sans-serif" font-size="13" font-weight="bold" lengthAdjust="spacing" textLength="7" x="227" y="430.8506">7</text><text fill="#000000" font-family="sans-serif" font-size="13" lengthAdjust="spacing" textLength="4" x="238" y="430.8506">&#160;</text><path d="M3,451.1133 L64,451.1133 L64,460.4043 L54,470.4043 L3,470.4043 L3,451.1133 " fill="#EEEEEE" style="stroke:#000000;stroke-width:1.5;"/><rect fill="none" height="112.7656" style="stroke:#000000;stroke-width:1.5;" width="265" x="3" y="451.1133"/><text fill="#000000" font-family="sans-serif" font-size="13" font-weight="bold" lengthAdjust="spacing" textLength="16" x="18" y="466.1416">alt</text><text fill="#000000" font-family="sans-serif" font-size="11" font-weight="bold" lengthAdjust="spacing" textLength="85" x="79" y="464.9834">[task persisted</text><text fill="#000000" font-family="sans-serif" font-size="11" font-weight="bold" lengthAdjust="spacing" textLength="107" x="82" y="479.6143">with state updated]</text><polygon fill="#181818" points="11,503.957,1,507.957,11,511.957,7,507.957" style="stroke:#181818;stroke-width:1.0;"/><line style="stroke:#181818;stroke-width:1.0;stroke-dasharray:2.0,2.0;" x1="5" x2="199" y1="507.957" y2="507.957"/><text fill="#000000" font-family="sans-serif" font-size="13" font-weight="bold" lengthAdjust="spacing" textLength="7" x="17" y="502.6943">8</text><text fill="#000000" font-family="sans-serif" font-size="13" lengthAdjust="spacing" textLength="163" x="28" y="502.6943">Response status code - 200</text><line style="stroke:#000000;stroke-width:1.0;stroke-dasharray:2.0,2.0;" x1="3" x2="268" y1="516.957" y2="516.957"/><text fill="#000000" font-family="sans-serif" font-size="11" font-weight="bold" lengthAdjust="spacing" textLength="122" x="8" y="528.8271">[database unavailable]</text><polygon fill="#181818" points="11,551.8789,1,555.8789,11,559.8789,7,555.8789" style="stroke:#181818;stroke-width:1.0;"/><line style="stroke:#181818;stroke-width:1.0;stroke-dasharray:2.0,2.0;" x1="5" x2="199" y1="555.8789" y2="555.8789"/><text fill="#000000" font-family="sans-serif" font-size="13" font-weight="bold" lengthAdjust="spacing" textLength="7" x="17" y="550.6162">9</text><text fill="#000000" font-family="sans-serif" font-size="13" lengthAdjust="spacing" textLength="163" x="28" y="550.6162">Response status code - 503</text><!--SRC=[hP11ImCn48Nlyok6NdfQNRHUIYcuRaKFYjGUlSnkfcteDWcRsKeH_xkpQH4LX2AUaac-UVFUK2VUTTkAMuWRwmArjCL0zOPM_2pxXh7bMW34YjvdnWekA6u0b1HRsq1ESF3e3MEXNUpC02bYCSF9fFRRu1qxcKx1a515aN7muDtAOwbreNMYo-873TbK9SRuTBsukKFHWV7yBGe9Zp4Txm3EYvgpgxMWNoOwkUlX0tC6CBorpc2rnxclREI0YtrWl2-705IBtIcbdG1gLoUMnHYNnuOaKskiBsHP0AZLx60EmF2tBsgEqzKPBdtd303Y9CkIkJb7ZQSBwBrrCMbZXgDy1C2Dldzkg7Eq8zjGrV090bVvfGhqitv9r0LL_akCm6sqKTYyE7oriZvizQXtIhQBFF-dR1y0]--></g></svg>