<?xml version="1.0" encoding="us-ascii" standalone="no"?><svg xmlns="http://www.w3.org/2000/svg" xmlns:xlink="http://www.w3.org/1999/xlink" contentStyleType="text/css" height="518px" preserveAspectRatio="none" style="width:400px;height:518px;background:#FFFFFF;" version="1.1" viewBox="0 0 400 518" width="400px" zoomAndPan="magnify"><defs/><g><text fill="#000000" font-family="sans-serif" font-size="14" font-weight="bold" lengthAdjust="spacing" textLength="104" x="149" y="30.1074">GET resources</text><rect fill="#FFFFFF" height="248.668" style="stroke:#181818;stroke-width:1.0;" width="10" x="200" y="161.1543"/><rect fill="#FFFFFF" height="31.291" style="stroke:#181818;stroke-width:1.0;" width="10" x="320.5" y="218.7363"/><rect fill="none" height="225.668" style="stroke:#000000;stroke-width:1.5;" width="390" x="3" y="176.1543"/><rect fill="none" height="50.582" style="stroke:#000000;stroke-width:1.5;" width="265" x="3" y="296.3184"/><line style="stroke:#181818;stroke-width:0.5;stroke-dasharray:5.0,5.0;" x1="205" x2="205" y1="127.8633" y2="418.8223"/><line style="stroke:#181818;stroke-width:0.5;stroke-dasharray:5.0,5.0;" x1="325" x2="325" y1="127.8633" y2="418.8223"/><rect fill="#E2E2F0" height="51.2422" rx="2.5" ry="2.5" style="stroke:#181818;stroke-width:0.5;" width="106" x="152" y="75.6211"/><text fill="#000000" font-family="sans-serif" font-size="14" font-style="italic" lengthAdjust="spacing" textLength="86" x="162" y="97.7285">&#171;component&#187;</text><text fill="#000000" font-family="sans-serif" font-size="14" lengthAdjust="spacing" textLength="92" x="159" y="116.3496">Node Backend</text><rect fill="#E2E2F0" height="51.2422" rx="2.5" ry="2.5" style="stroke:#181818;stroke-width:0.5;" width="106" x="152" y="417.8223"/><text fill="#000000" font-family="sans-serif" font-size="14" font-style="italic" lengthAdjust="spacing" textLength="86" x="162" y="439.9297">&#171;component&#187;</text><text fill="#000000" font-family="sans-serif" font-size="14" lengthAdjust="spacing" textLength="92" x="159" y="458.5508">Node Backend</text><text fill="#000000" font-family="sans-serif" font-size="14" font-style="italic" lengthAdjust="spacing" textLength="86" x="279.5" y="105.7285">&#171;component&#187;</text><text fill="#000000" font-family="sans-serif" font-size="14" lengthAdjust="spacing" textLength="109" x="268" y="124.3496">Mongo DataBase</text><path d="M307.5,54.6211 C307.5,44.6211 325.5,44.6211 325.5,44.6211 C325.5,44.6211 343.5,44.6211 343.5,54.6211 L343.5,80.6211 C343.5,90.6211 325.5,90.6211 325.5,90.6211 C325.5,90.6211 307.5,90.6211 307.5,80.6211 L307.5,54.6211 " fill="#E2E2F0" style="stroke:#181818;stroke-width:1.5;"/><path d="M307.5,54.6211 C307.5,64.6211 325.5,64.6211 325.5,64.6211 C325.5,64.6211 343.5,64.6211 343.5,54.6211 " fill="none" style="stroke:#181818;stroke-width:1.5;"/><text fill="#000000" font-family="sans-serif" font-size="14" font-style="italic" lengthAdjust="spacing" textLength="86" x="279.5" y="432.9297">&#171;component&#187;</text><text fill="#000000" font-family="sans-serif" font-size="14" lengthAdjust="spacing" textLength="109" x="268" y="451.5508">Mongo DataBase</text><path d="M307.5,465.0645 C307.5,455.0645 325.5,455.0645 325.5,455.0645 C325.5,455.0645 343.5,455.0645 343.5,465.0645 L343.5,491.0645 C343.5,501.0645 325.5,501.0645 325.5,501.0645 C325.5,501.0645 307.5,501.0645 307.5,491.0645 L307.5,465.0645 " fill="#E2E2F0" style="stroke:#181818;stroke-width:1.5;"/><path d="M307.5,465.0645 C307.5,475.0645 325.5,475.0645 325.5,475.0645 C325.5,475.0645 343.5,475.0645 343.5,465.0645 " fill="none" style="stroke:#181818;stroke-width:1.5;"/><rect fill="#FFFFFF" height="248.668" style="stroke:#181818;stroke-width:1.0;" width="10" x="200" y="161.1543"/><rect fill="#FFFFFF" height="31.291" style="stroke:#181818;stroke-width:1.0;" width="10" x="320.5" y="218.7363"/><polygon fill="#181818" points="188,157.1543,198,161.1543,188,165.1543,192,161.1543" style="stroke:#181818;stroke-width:1.0;"/><line style="stroke:#181818;stroke-width:1.0;" x1="0" x2="194" y1="161.1543" y2="161.1543"/><text fill="#000000" font-family="sans-serif" font-size="13" font-weight="bold" lengthAdjust="spacing" textLength="7" x="7" y="155.8916">1</text><text fill="#000000" font-family="sans-serif" font-size="13" lengthAdjust="spacing" textLength="87" x="18" y="155.8916">GET resources</text><path d="M3,176.1543 L64,176.1543 L64,185.4453 L54,195.4453 L3,195.4453 L3,176.1543 " fill="#EEEEEE" style="stroke:#000000;stroke-width:1.5;"/><rect fill="none" height="225.668" style="stroke:#000000;stroke-width:1.5;" width="390" x="3" y="176.1543"/><text fill="#000000" font-family="sans-serif" font-size="13" font-weight="bold" lengthAdjust="spacing" textLength="16" x="18" y="191.1826">alt</text><text fill="#000000" font-family="sans-serif" font-size="11" font-weight="bold" lengthAdjust="spacing" textLength="96" x="79" y="190.0244">[user authorized]</text><polygon fill="#181818" points="308.5,214.7363,318.5,218.7363,308.5,222.7363,312.5,218.7363" style="stroke:#181818;stroke-width:1.0;"/><line style="stroke:#181818;stroke-width:1.0;" x1="210" x2="314.5" y1="218.7363" y2="218.7363"/><text fill="#000000" font-family="sans-serif" font-size="13" font-weight="bold" lengthAdjust="spacing" textLength="7" x="217" y="213.4736">2</text><text fill="#000000" font-family="sans-serif" font-size="13" lengthAdjust="spacing" textLength="37" x="228" y="213.4736">find all</text><polygon fill="#181818" points="221,246.0273,211,250.0273,221,254.0273,217,250.0273" style="stroke:#181818;stroke-width:1.0;"/><line style="stroke:#181818;stroke-width:1.0;stroke-dasharray:2.0,2.0;" x1="215" x2="324.5" y1="250.0273" y2="250.0273"/><text fill="#000000" font-family="sans-serif" font-size="13" font-weight="bold" lengthAdjust="spacing" textLength="7" x="227" y="244.7646">3</text><text fill="#000000" font-family="sans-serif" font-size="13" lengthAdjust="spacing" textLength="4" x="238" y="244.7646">&#160;</text><polygon fill="#181818" points="11,277.3184,1,281.3184,11,285.3184,7,281.3184" style="stroke:#181818;stroke-width:1.0;"/><line style="stroke:#181818;stroke-width:1.0;stroke-dasharray:2.0,2.0;" x1="5" x2="199" y1="281.3184" y2="281.3184"/><text fill="#000000" font-family="sans-serif" font-size="13" font-weight="bold" lengthAdjust="spacing" textLength="7" x="17" y="276.0557">4</text><text fill="#000000" font-family="sans-serif" font-size="13" lengthAdjust="spacing" textLength="163" x="28" y="276.0557">Response status code - 200</text><path d="M3,296.3184 L64,296.3184 L64,305.6094 L54,315.6094 L3,315.6094 L3,296.3184 " fill="#EEEEEE" style="stroke:#000000;stroke-width:1.5;"/><rect fill="none" height="50.582" style="stroke:#000000;stroke-width:1.5;" width="265" x="3" y="296.3184"/><text fill="#000000" font-family="sans-serif" font-size="13" font-weight="bold" lengthAdjust="spacing" textLength="16" x="18" y="311.3467">alt</text><text fill="#000000" font-family="sans-serif" font-size="11" font-weight="bold" lengthAdjust="spacing" textLength="122" x="79" y="310.1885">[database unavailable]</text><polygon fill="#181818" points="11,334.9004,1,338.9004,11,342.9004,7,338.9004" style="stroke:#181818;stroke-width:1.0;"/><line style="stroke:#181818;stroke-width:1.0;stroke-dasharray:2.0,2.0;" x1="5" x2="199" y1="338.9004" y2="338.9004"/><text fill="#000000" font-family="sans-serif" font-size="13" font-weight="bold" lengthAdjust="spacing" textLength="7" x="17" y="333.6377">5</text><text fill="#000000" font-family="sans-serif" font-size="13" lengthAdjust="spacing" textLength="163" x="28" y="333.6377">Response status code - 503</text><line style="stroke:#000000;stroke-width:1.0;stroke-dasharray:2.0,2.0;" x1="3" x2="393" y1="354.9004" y2="354.9004"/><text fill="#000000" font-family="sans-serif" font-size="11" font-weight="bold" lengthAdjust="spacing" textLength="110" x="8" y="366.7705">[user unauthorized]</text><polygon fill="#181818" points="11,389.8223,1,393.8223,11,397.8223,7,393.8223" style="stroke:#181818;stroke-width:1.0;"/><line style="stroke:#181818;stroke-width:1.0;stroke-dasharray:2.0,2.0;" x1="5" x2="199" y1="393.8223" y2="393.8223"/><text fill="#000000" font-family="sans-serif" font-size="13" font-weight="bold" lengthAdjust="spacing" textLength="7" x="17" y="388.5596">6</text><text fill="#000000" font-family="sans-serif" font-size="13" lengthAdjust="spacing" textLength="163" x="28" y="388.5596">Response status code - 401</text><!--SRC=[ZL2zJiCm4DxlAKvTEaKAVqiLHS9AO881U86BSxHM7JkopvNWwRcq29Kki5Z-vE_NL2I6CWsS8EzTc2dHX3FPFMtvLJuyOs8h0E94xu_zc-8SIxAS0PGjphgPWk3gEOwCHfKSnXLIHjDZqzWupJ5maBQ5aOG6oeohfnYs4Jl5Hl6HtPaBDbIjMcmkCyaBbim9gSWk9lV98y3wmOKHxxrVAy6AEv1ebnv0EwXDPpRulZ38-pD2Pm0qjZe50OpywmcngQfZXHVEMakBPo4f6UqojSBhkZxr-HbM0Xt8UHey_qD_Lzy0w6_fuHVniaeTpdRzQN5RNtrRV040]--></g></svg>