<?xml version="1.0" encoding="us-ascii" standalone="no"?><svg xmlns="http://www.w3.org/2000/svg" xmlns:xlink="http://www.w3.org/1999/xlink" contentStyleType="text/css" height="491px" preserveAspectRatio="none" style="width:546px;height:491px;background:#FFFFFF;" version="1.1" viewBox="0 0 546 491" width="546px" zoomAndPan="magnify"><defs/><g><text fill="#000000" font-family="sans-serif" font-size="14" font-weight="bold" lengthAdjust="spacing" textLength="136" x="206.25" y="30.1074">List All {Resources}</text><rect fill="#FFFFFF" height="280.5898" style="stroke:#181818;stroke-width:1.0;" width="10" x="227" y="130.1543"/><rect fill="#FFFFFF" height="249.2988" style="stroke:#181818;stroke-width:1.0;" width="10" x="435" y="161.4453"/><rect fill="none" height="242.2988" style="stroke:#000000;stroke-width:1.5;" width="536.5" x="3" y="176.4453"/><rect fill="none" height="98.5039" style="stroke:#000000;stroke-width:1.5;" width="289" x="3" y="234.0273"/><line style="stroke:#181818;stroke-width:0.5;stroke-dasharray:5.0,5.0;" x1="232" x2="232" y1="96.8633" y2="435.7441"/><line style="stroke:#181818;stroke-width:0.5;stroke-dasharray:5.0,5.0;" x1="439.5" x2="439.5" y1="96.8633" y2="435.7441"/><rect fill="#E2E2F0" height="51.2422" rx="2.5" ry="2.5" style="stroke:#181818;stroke-width:0.5;" width="100" x="182" y="44.6211"/><text fill="#000000" font-family="sans-serif" font-size="14" font-style="italic" lengthAdjust="spacing" textLength="86" x="189" y="66.7285">&#171;component&#187;</text><text fill="#000000" font-family="sans-serif" font-size="14" lengthAdjust="spacing" textLength="83" x="190.5" y="85.3496">PortalModule</text><rect fill="#E2E2F0" height="51.2422" rx="2.5" ry="2.5" style="stroke:#181818;stroke-width:0.5;" width="100" x="182" y="434.7441"/><text fill="#000000" font-family="sans-serif" font-size="14" font-style="italic" lengthAdjust="spacing" textLength="86" x="189" y="456.8516">&#171;component&#187;</text><text fill="#000000" font-family="sans-serif" font-size="14" lengthAdjust="spacing" textLength="83" x="190.5" y="475.4727">PortalModule</text><rect fill="#E2E2F0" height="51.2422" rx="2.5" ry="2.5" style="stroke:#181818;stroke-width:0.5;" width="179" x="350.5" y="44.6211"/><text fill="#000000" font-family="sans-serif" font-size="14" font-style="italic" lengthAdjust="spacing" textLength="86" x="397" y="66.7285">&#171;component&#187;</text><text fill="#000000" font-family="sans-serif" font-size="14" lengthAdjust="spacing" textLength="165" x="357.5" y="85.3496">DataAdministrationModule</text><rect fill="#E2E2F0" height="51.2422" rx="2.5" ry="2.5" style="stroke:#181818;stroke-width:0.5;" width="179" x="350.5" y="434.7441"/><text fill="#000000" font-family="sans-serif" font-size="14" font-style="italic" lengthAdjust="spacing" textLength="86" x="397" y="456.8516">&#171;component&#187;</text><text fill="#000000" font-family="sans-serif" font-size="14" lengthAdjust="spacing" textLength="165" x="357.5" y="475.4727">DataAdministrationModule</text><rect fill="#FFFFFF" height="280.5898" style="stroke:#181818;stroke-width:1.0;" width="10" x="227" y="130.1543"/><rect fill="#FFFFFF" height="249.2988" style="stroke:#181818;stroke-width:1.0;" width="10" x="435" y="161.4453"/><polygon fill="#181818" points="215,126.1543,225,130.1543,215,134.1543,219,130.1543" style="stroke:#181818;stroke-width:1.0;"/><line style="stroke:#181818;stroke-width:1.0;" x1="0" x2="221" y1="130.1543" y2="130.1543"/><text fill="#000000" font-family="sans-serif" font-size="13" font-weight="bold" lengthAdjust="spacing" textLength="7" x="7" y="124.8916">1</text><text fill="#000000" font-family="sans-serif" font-size="13" lengthAdjust="spacing" textLength="150" x="18" y="124.8916">onLoad {Resources} Page</text><polygon fill="#181818" points="423,157.4453,433,161.4453,423,165.4453,427,161.4453" style="stroke:#181818;stroke-width:1.0;"/><line style="stroke:#181818;stroke-width:1.0;" x1="237" x2="429" y1="161.4453" y2="161.4453"/><text fill="#000000" font-family="sans-serif" font-size="13" font-weight="bold" lengthAdjust="spacing" textLength="7" x="244" y="156.1826">2</text><text fill="#000000" font-family="sans-serif" font-size="13" lengthAdjust="spacing" textLength="111" x="255" y="156.1826">GET resources/{...}</text><path d="M3,176.4453 L64,176.4453 L64,185.7363 L54,195.7363 L3,195.7363 L3,176.4453 " fill="#EEEEEE" style="stroke:#000000;stroke-width:1.5;"/><rect fill="none" height="242.2988" style="stroke:#000000;stroke-width:1.5;" width="536.5" x="3" y="176.4453"/><text fill="#000000" font-family="sans-serif" font-size="13" font-weight="bold" lengthAdjust="spacing" textLength="16" x="18" y="191.4736">alt</text><text fill="#000000" font-family="sans-serif" font-size="11" font-weight="bold" lengthAdjust="spacing" textLength="55" x="79" y="190.3154">[success]</text><polygon fill="#181818" points="248,215.0273,238,219.0273,248,223.0273,244,219.0273" style="stroke:#181818;stroke-width:1.0;"/><line style="stroke:#181818;stroke-width:1.0;stroke-dasharray:2.0,2.0;" x1="242" x2="434" y1="219.0273" y2="219.0273"/><text fill="#000000" font-family="sans-serif" font-size="13" font-weight="bold" lengthAdjust="spacing" textLength="7" x="254" y="213.7646">3</text><text fill="#000000" font-family="sans-serif" font-size="13" lengthAdjust="spacing" textLength="163" x="265" y="213.7646">Response status code - 200</text><path d="M3,234.0273 L64,234.0273 L64,243.3184 L54,253.3184 L3,253.3184 L3,234.0273 " fill="#EEEEEE" style="stroke:#000000;stroke-width:1.5;"/><rect fill="none" height="98.5039" style="stroke:#000000;stroke-width:1.5;" width="289" x="3" y="234.0273"/><text fill="#000000" font-family="sans-serif" font-size="13" font-weight="bold" lengthAdjust="spacing" textLength="16" x="18" y="249.0557">alt</text><polygon fill="#181818" points="11,272.6094,1,276.6094,11,280.6094,7,276.6094" style="stroke:#181818;stroke-width:1.0;"/><line style="stroke:#181818;stroke-width:1.0;stroke-dasharray:2.0,2.0;" x1="5" x2="226" y1="276.6094" y2="276.6094"/><text fill="#000000" font-family="sans-serif" font-size="13" font-weight="bold" lengthAdjust="spacing" textLength="7" x="17" y="271.3467">4</text><text fill="#000000" font-family="sans-serif" font-size="13" lengthAdjust="spacing" textLength="136" x="28" y="271.3467">display {Resources} list</text><line style="stroke:#000000;stroke-width:1.0;stroke-dasharray:2.0,2.0;" x1="3" x2="292" y1="285.6094" y2="285.6094"/><text fill="#000000" font-family="sans-serif" font-size="11" font-weight="bold" lengthAdjust="spacing" textLength="133" x="8" y="297.4795">[no resources available]</text><polygon fill="#181818" points="11,320.5313,1,324.5313,11,328.5313,7,324.5313" style="stroke:#181818;stroke-width:1.0;"/><line style="stroke:#181818;stroke-width:1.0;stroke-dasharray:2.0,2.0;" x1="5" x2="226" y1="324.5313" y2="324.5313"/><text fill="#000000" font-family="sans-serif" font-size="13" font-weight="bold" lengthAdjust="spacing" textLength="7" x="17" y="319.2686">5</text><text fill="#000000" font-family="sans-serif" font-size="13" lengthAdjust="spacing" textLength="190" x="28" y="319.2686">display no {Resources} message</text><line style="stroke:#000000;stroke-width:1.0;stroke-dasharray:2.0,2.0;" x1="3" x2="539.5" y1="340.5313" y2="340.5313"/><text fill="#000000" font-family="sans-serif" font-size="11" font-weight="bold" lengthAdjust="spacing" textLength="122" x="8" y="352.4014">[database unavailable]</text><polygon fill="#181818" points="248,375.4531,238,379.4531,248,383.4531,244,379.4531" style="stroke:#181818;stroke-width:1.0;"/><line style="stroke:#181818;stroke-width:1.0;stroke-dasharray:2.0,2.0;" x1="242" x2="434" y1="379.4531" y2="379.4531"/><text fill="#000000" font-family="sans-serif" font-size="13" font-weight="bold" lengthAdjust="spacing" textLength="7" x="254" y="374.1904">6</text><text fill="#000000" font-family="sans-serif" font-size="13" lengthAdjust="spacing" textLength="163" x="265" y="374.1904">Response status code - 503</text><polygon fill="#181818" points="11,406.7441,1,410.7441,11,414.7441,7,410.7441" style="stroke:#181818;stroke-width:1.0;"/><line style="stroke:#181818;stroke-width:1.0;stroke-dasharray:2.0,2.0;" x1="5" x2="231" y1="410.7441" y2="410.7441"/><text fill="#000000" font-family="sans-serif" font-size="13" font-weight="bold" lengthAdjust="spacing" textLength="7" x="17" y="405.4814">7</text><text fill="#000000" font-family="sans-serif" font-size="13" lengthAdjust="spacing" textLength="128" x="28" y="405.4814">display error message</text><!--SRC=[ZP3DQW8n4CVlynI3zxNIqek885XwKLXiNs1CXXBC9aio4KHyzqwqrDrwQKuX-N_yPgX83ANRSu9ySA6dH1tsP0xqnHzoyeo9ZG284xrlN1PSUO_d7UTOak5y0L2JEEDw2eAJDYOXlussU9uWPTorMrmiJEpw63Z8SZdMhqbePJiND3gHk1W6tlNghnUQPKsS8yQmYMI79DWgD00PSKSIhZg0MgyUJPhZ-zkdZlCZVpfFfzFBGAuI82-OYz7lV7KkckPcrHPbo8nPI4f64orZWy-p6LGJLE6LoxhSUpgDkBpE1kpL7U8T0Eb8pjFUywDRTSE0JddgR1mim2t9wjxsf9SIxZdu7-RNsGlWGoEd5DDl4Q3bqM963tMnDnGztm00]--></g></svg>