<?xml version="1.0" encoding="us-ascii" standalone="no"?><svg xmlns="http://www.w3.org/2000/svg" xmlns:xlink="http://www.w3.org/1999/xlink" contentStyleType="text/css" height="514.4px" preserveAspectRatio="none" style="width:395px;height:514px;background:#FFFFFF;" version="1.1" viewBox="0 0 395 514" width="395.2px" zoomAndPan="magnify"><defs/><g><text fill="#000000" font-family="sans-serif" font-size="11.2" font-weight="bold" lengthAdjust="spacing" textLength="139.2" x="125.4" y="24.0859">List Filtered {Resources}</text><rect fill="#FFFFFF" height="303.5703" style="stroke:#181818;stroke-width:0.8000000000000002;" width="8" x="43.6" y="121.4906"/><rect fill="#FFFFFF" height="284.9375" style="stroke:#181818;stroke-width:0.8000000000000002;" width="8" x="259.6" y="140.1234"/><rect fill="none" height="117.1406" style="stroke:#000000;stroke-width:1.2000000000000002;" width="303.6" x="8" y="302.3203"/><line style="stroke:#181818;stroke-width:0.4000000000000001;stroke-dasharray:5.0,5.0;" x1="47.2" x2="47.2" y1="113.4906" y2="433.0609"/><line style="stroke:#181818;stroke-width:0.4000000000000001;stroke-dasharray:5.0,5.0;" x1="263.6" x2="263.6" y1="113.4906" y2="433.0609"/><text fill="#000000" font-family="sans-serif" font-size="11.2" font-style="italic" lengthAdjust="spacing" textLength="58.4" x="16" y="95.7828">&#171;DEI User&#187;</text><text fill="#000000" font-family="sans-serif" font-size="11.2" lengthAdjust="spacing" textLength="23.2" x="33.6" y="110.6797">User</text><ellipse cx="47.6" cy="42.4969" fill="#E2E2F0" rx="6.4" ry="6.4" style="stroke:#181818;stroke-width:0.4000000000000001;"/><path d="M47.6,48.8969 L47.6,70.4969 M37.2,55.2969 L58,55.2969 M47.6,70.4969 L37.2,82.4969 M47.6,70.4969 L58,82.4969 " fill="none" style="stroke:#181818;stroke-width:0.4000000000000001;"/><text fill="#000000" font-family="sans-serif" font-size="11.2" font-style="italic" lengthAdjust="spacing" textLength="58.4" x="16" y="444.3469">&#171;DEI User&#187;</text><text fill="#000000" font-family="sans-serif" font-size="11.2" lengthAdjust="spacing" textLength="23.2" x="33.6" y="459.2438">User</text><ellipse cx="47.6" cy="468.8547" fill="#E2E2F0" rx="6.4" ry="6.4" style="stroke:#181818;stroke-width:0.4000000000000001;"/><path d="M47.6,475.2547 L47.6,496.8547 M37.2,481.6547 L58,481.6547 M47.6,496.8547 L37.2,508.8547 M47.6,496.8547 L58,508.8547 " fill="none" style="stroke:#181818;stroke-width:0.4000000000000001;"/><rect fill="#E2E2F0" height="40.9938" rx="2" ry="2" style="stroke:#181818;stroke-width:0.4000000000000001;" width="80" x="223.6" y="71.6969"/><text fill="#000000" font-family="sans-serif" font-size="11.2" font-style="italic" lengthAdjust="spacing" textLength="68.8" x="229.2" y="89.3828">&#171;component&#187;</text><text fill="#000000" font-family="sans-serif" font-size="11.2" lengthAdjust="spacing" textLength="46.4" x="240.4" y="104.2797">Frontend</text><rect fill="#E2E2F0" height="40.9938" rx="2" ry="2" style="stroke:#181818;stroke-width:0.4000000000000001;" width="80" x="223.6" y="432.2609"/><text fill="#000000" font-family="sans-serif" font-size="11.2" font-style="italic" lengthAdjust="spacing" textLength="68.8" x="229.2" y="449.9469">&#171;component&#187;</text><text fill="#000000" font-family="sans-serif" font-size="11.2" lengthAdjust="spacing" textLength="46.4" x="240.4" y="464.8438">Frontend</text><rect fill="#FFFFFF" height="303.5703" style="stroke:#181818;stroke-width:0.8000000000000002;" width="8" x="43.6" y="121.4906"/><rect fill="#FFFFFF" height="284.9375" style="stroke:#181818;stroke-width:0.8000000000000002;" width="8" x="259.6" y="140.1234"/><polygon fill="#181818" points="250,136.9234,258,140.1234,250,143.3234,253.2,140.1234" style="stroke:#181818;stroke-width:0.8000000000000002;"/><line style="stroke:#181818;stroke-width:0.8000000000000002;" x1="51.6" x2="254.8" y1="140.1234" y2="140.1234"/><text fill="#000000" font-family="sans-serif" font-size="10.4" font-weight="bold" lengthAdjust="spacing" textLength="5.6" x="57.2" y="135.9133">1</text><text fill="#000000" font-family="sans-serif" font-size="10.4" lengthAdjust="spacing" textLength="145.6" x="66" y="135.9133">Asks to list filtered {Resources}</text><polygon fill="#181818" points="60.4,161.9563,52.4,165.1563,60.4,168.3563,57.2,165.1563" style="stroke:#181818;stroke-width:0.8000000000000002;"/><line style="stroke:#181818;stroke-width:0.8000000000000002;stroke-dasharray:2.0,2.0;" x1="55.6" x2="258.8" y1="165.1563" y2="165.1563"/><text fill="#000000" font-family="sans-serif" font-size="10.4" font-weight="bold" lengthAdjust="spacing" textLength="5.6" x="65.2" y="160.9461">2</text><text fill="#000000" font-family="sans-serif" font-size="10.4" lengthAdjust="spacing" textLength="148" x="74" y="160.9461">Asks the user to select the filter</text><polygon fill="#181818" points="250,186.9891,258,190.1891,250,193.3891,253.2,190.1891" style="stroke:#181818;stroke-width:0.8000000000000002;"/><line style="stroke:#181818;stroke-width:0.8000000000000002;" x1="51.6" x2="254.8" y1="190.1891" y2="190.1891"/><text fill="#000000" font-family="sans-serif" font-size="10.4" font-weight="bold" lengthAdjust="spacing" textLength="5.6" x="57.2" y="185.9789">3</text><text fill="#000000" font-family="sans-serif" font-size="10.4" lengthAdjust="spacing" textLength="75.2" x="66" y="185.9789">Selects the filter</text><polygon fill="#181818" points="60.4,212.0219,52.4,215.2219,60.4,218.4219,57.2,215.2219" style="stroke:#181818;stroke-width:0.8000000000000002;"/><line style="stroke:#181818;stroke-width:0.8000000000000002;stroke-dasharray:2.0,2.0;" x1="55.6" x2="258.8" y1="215.2219" y2="215.2219"/><text fill="#000000" font-family="sans-serif" font-size="10.4" font-weight="bold" lengthAdjust="spacing" textLength="5.6" x="65.2" y="211.0117">4</text><text fill="#000000" font-family="sans-serif" font-size="10.4" lengthAdjust="spacing" textLength="180" x="74" y="211.0117">Asks the user to select the filter values</text><polygon fill="#181818" points="250,237.0547,258,240.2547,250,243.4547,253.2,240.2547" style="stroke:#181818;stroke-width:0.8000000000000002;"/><line style="stroke:#181818;stroke-width:0.8000000000000002;" x1="51.6" x2="254.8" y1="240.2547" y2="240.2547"/><text fill="#000000" font-family="sans-serif" font-size="10.4" font-weight="bold" lengthAdjust="spacing" textLength="5.6" x="57.2" y="236.0445">5</text><text fill="#000000" font-family="sans-serif" font-size="10.4" lengthAdjust="spacing" textLength="125.6" x="66" y="236.0445">Input/select the filter values</text><polygon fill="#181818" points="381.2,262.0875,389.2,265.2875,381.2,268.4875,384.4,265.2875" style="stroke:#181818;stroke-width:0.8000000000000002;"/><line style="stroke:#181818;stroke-width:0.8000000000000002;" x1="267.6" x2="386" y1="265.2875" y2="265.2875"/><text fill="#000000" font-family="sans-serif" font-size="10.4" font-weight="bold" lengthAdjust="spacing" textLength="5.6" x="273.2" y="261.0773">6</text><text fill="#000000" font-family="sans-serif" font-size="10.4" lengthAdjust="spacing" textLength="95.2" x="282" y="261.0773">GET {resources}/{...}</text><polygon fill="#181818" points="276.4,287.1203,268.4,290.3203,276.4,293.5203,273.2,290.3203" style="stroke:#181818;stroke-width:0.8000000000000002;"/><line style="stroke:#181818;stroke-width:0.8000000000000002;stroke-dasharray:2.0,2.0;" x1="271.6" x2="390" y1="290.3203" y2="290.3203"/><text fill="#000000" font-family="sans-serif" font-size="10.4" font-weight="bold" lengthAdjust="spacing" textLength="5.6" x="281.2" y="286.1102">7</text><text fill="#000000" font-family="sans-serif" font-size="10.4" lengthAdjust="spacing" textLength="71.2" x="290" y="286.1102">HTTP response</text><path d="M8,302.3203 L56.8,302.3203 L56.8,309.7531 L48.8,317.7531 L8,317.7531 L8,302.3203 " fill="#EEEEEE" style="stroke:#000000;stroke-width:1.2000000000000002;"/><rect fill="none" height="117.1406" style="stroke:#000000;stroke-width:1.2000000000000002;" width="303.6" x="8" y="302.3203"/><text fill="#000000" font-family="sans-serif" font-size="10.4" font-weight="bold" lengthAdjust="spacing" textLength="12.8" x="20" y="314.343">alt</text><text fill="#000000" font-family="sans-serif" font-size="8.8" font-weight="bold" lengthAdjust="spacing" textLength="144.8" x="68.8" y="313.4164">[response contains {resources}]</text><polygon fill="#181818" points="60.4,333.1859,52.4,336.3859,60.4,339.5859,57.2,336.3859" style="stroke:#181818;stroke-width:0.8000000000000002;"/><line style="stroke:#181818;stroke-width:0.8000000000000002;stroke-dasharray:2.0,2.0;" x1="55.6" x2="258.8" y1="336.3859" y2="336.3859"/><text fill="#000000" font-family="sans-serif" font-size="10.4" font-weight="bold" lengthAdjust="spacing" textLength="5.6" x="65.2" y="332.1758">8</text><text fill="#000000" font-family="sans-serif" font-size="10.4" lengthAdjust="spacing" textLength="156.8" x="74" y="332.1758">displays the {resources} view data</text><line style="stroke:#000000;stroke-width:0.8000000000000002;stroke-dasharray:2.0,2.0;" x1="8" x2="311.6" y1="343.5859" y2="343.5859"/><text fill="#000000" font-family="sans-serif" font-size="8.8" font-weight="bold" lengthAdjust="spacing" textLength="104" x="12" y="353.082">[empty response body]</text><polygon fill="#181818" points="60.4,371.5234,52.4,374.7234,60.4,377.9234,57.2,374.7234" style="stroke:#181818;stroke-width:0.8000000000000002;"/><line style="stroke:#181818;stroke-width:0.8000000000000002;stroke-dasharray:2.0,2.0;" x1="55.6" x2="258.8" y1="374.7234" y2="374.7234"/><text fill="#000000" font-family="sans-serif" font-size="10.4" font-weight="bold" lengthAdjust="spacing" textLength="5.6" x="65.2" y="370.5133">9</text><text fill="#000000" font-family="sans-serif" font-size="10.4" lengthAdjust="spacing" textLength="148" x="74" y="370.5133">display no {resources} message</text><line style="stroke:#000000;stroke-width:0.8000000000000002;stroke-dasharray:2.0,2.0;" x1="8" x2="311.6" y1="381.9234" y2="381.9234"/><text fill="#000000" font-family="sans-serif" font-size="8.8" font-weight="bold" lengthAdjust="spacing" textLength="66.4" x="12" y="391.4195">[unsuccessful]</text><polygon fill="#181818" points="60.4,409.8609,52.4,413.0609,60.4,416.2609,57.2,413.0609" style="stroke:#181818;stroke-width:0.8000000000000002;"/><line style="stroke:#181818;stroke-width:0.8000000000000002;stroke-dasharray:2.0,2.0;" x1="55.6" x2="258.8" y1="413.0609" y2="413.0609"/><text fill="#000000" font-family="sans-serif" font-size="10.4" font-weight="bold" lengthAdjust="spacing" textLength="11.2" x="65.2" y="408.8508">10</text><text fill="#000000" font-family="sans-serif" font-size="10.4" lengthAdjust="spacing" textLength="102.4" x="79.6" y="408.8508">display error message</text><!--SRC=[ZPBFQW8n4CRlUOh1kteN4GhTROKUIdKV86R7DfXDGcPYMSHtx-nkqRKez9RCVDzl_YGwS_2vsM5ITB0-wgGRYDeSz2Tkk7K82GqhnPRb_6Q9eRIECM4Dfm-aa9D1EYkb3OS4auemJK0JLB1SFXThw0AhbH8mMsEZzWoJCWNFwEjUM1QYDA69mQDdaNOeUzICK2bLmNGbaWN04nq8E83hUjW_wc4mbaNdN4wdlNLmVY5awQL343ePgWyDe76TJP-aFzd_i-2eNKOQ8zS-Pfu_LieAHBg0bs8BftGPQ7wQpMRdBjjLNy3hTlikpq6oAKAPrl7b1aOsggsdiV_QjvXhIz7fTcX-98AZnM-eDMkbq0a9cyZj5RmBTNiF13xSO1eaaZ_p2ycUif4uxRExwyQKvBjSJRvMgiQR1nnTA_K3]--></g></svg>