<?xml version="1.0" encoding="us-ascii" standalone="no"?><svg xmlns="http://www.w3.org/2000/svg" xmlns:xlink="http://www.w3.org/1999/xlink" contentStyleType="text/css" height="453.6px" preserveAspectRatio="none" style="width:379px;height:453px;background:#FFFFFF;" version="1.1" viewBox="0 0 379 453" width="379.8px" zoomAndPan="magnify"><defs/><g><text fill="#000000" font-family="sans-serif" font-size="12.6" font-weight="bold" lengthAdjust="spacing" textLength="116.1" x="128.925" y="27.0967">Create {Resource}</text><rect fill="#FFFFFF" height="217.7631" style="stroke:#181818;stroke-width:0.9;" width="9" x="49.05" y="136.677"/><rect fill="#FFFFFF" height="181.2393" style="stroke:#181818;stroke-width:0.9;" width="9" x="240.75" y="173.2008"/><rect fill="none" height="104.2154" style="stroke:#000000;stroke-width:1.35;" width="290.25" x="9" y="243.0246"/><line style="stroke:#181818;stroke-width:0.45;stroke-dasharray:5.0,5.0;" x1="53.1" x2="53.1" y1="127.677" y2="362.54"/><line style="stroke:#181818;stroke-width:0.45;stroke-dasharray:5.0,5.0;" x1="245.25" x2="245.25" y1="127.677" y2="362.54"/><text fill="#000000" font-family="sans-serif" font-size="12.6" font-style="italic" lengthAdjust="spacing" textLength="65.7" x="18" y="107.7557">&#171;DEI User&#187;</text><text fill="#000000" font-family="sans-serif" font-size="12.6" lengthAdjust="spacing" textLength="26.1" x="37.8" y="124.5146">User</text><ellipse cx="53.55" cy="47.809" fill="#E2E2F0" rx="7.2" ry="7.2" style="stroke:#181818;stroke-width:0.45;"/><path d="M53.55,55.009 L53.55,79.309 M41.85,62.209 L65.25,62.209 M53.55,79.309 L41.85,92.809 M53.55,79.309 L65.25,92.809 " fill="none" style="stroke:#181818;stroke-width:0.45;"/><text fill="#000000" font-family="sans-serif" font-size="12.6" font-style="italic" lengthAdjust="spacing" textLength="65.7" x="18" y="375.2367">&#171;DEI User&#187;</text><text fill="#000000" font-family="sans-serif" font-size="12.6" lengthAdjust="spacing" textLength="26.1" x="37.8" y="391.9957">User</text><ellipse cx="53.55" cy="402.808" fill="#E2E2F0" rx="7.2" ry="7.2" style="stroke:#181818;stroke-width:0.45;"/><path d="M53.55,410.008 L53.55,434.308 M41.85,417.208 L65.25,417.208 M53.55,434.308 L41.85,447.808 M53.55,434.308 L65.25,447.808 " fill="none" style="stroke:#181818;stroke-width:0.45;"/><rect fill="#E2E2F0" height="46.118" rx="2.25" ry="2.25" style="stroke:#181818;stroke-width:0.45;" width="90" x="200.25" y="80.659"/><text fill="#000000" font-family="sans-serif" font-size="12.6" font-style="italic" lengthAdjust="spacing" textLength="77.4" x="206.55" y="100.5557">&#171;component&#187;</text><text fill="#000000" font-family="sans-serif" font-size="12.6" lengthAdjust="spacing" textLength="52.2" x="219.15" y="117.3146">Frontend</text><rect fill="#E2E2F0" height="46.118" rx="2.25" ry="2.25" style="stroke:#181818;stroke-width:0.45;" width="90" x="200.25" y="361.64"/><text fill="#000000" font-family="sans-serif" font-size="12.6" font-style="italic" lengthAdjust="spacing" textLength="77.4" x="206.55" y="381.5367">&#171;component&#187;</text><text fill="#000000" font-family="sans-serif" font-size="12.6" lengthAdjust="spacing" textLength="52.2" x="219.15" y="398.2957">Frontend</text><rect fill="#FFFFFF" height="217.7631" style="stroke:#181818;stroke-width:0.9;" width="9" x="49.05" y="136.677"/><rect fill="#FFFFFF" height="181.2393" style="stroke:#181818;stroke-width:0.9;" width="9" x="240.75" y="173.2008"/><polygon fill="#181818" points="229.95,169.6008,238.95,173.2008,229.95,176.8008,233.55,173.2008" style="stroke:#181818;stroke-width:0.9;"/><line style="stroke:#181818;stroke-width:0.9;" x1="58.05" x2="235.35" y1="173.2008" y2="173.2008"/><text fill="#000000" font-family="sans-serif" font-size="11.7" font-weight="bold" lengthAdjust="spacing" textLength="6.3" x="64.35" y="160.6834">1</text><text fill="#000000" font-family="sans-serif" font-size="11.7" lengthAdjust="spacing" textLength="108.9" x="74.25" y="152.9024">Fills and submits the</text><text fill="#000000" font-family="sans-serif" font-size="11.7" lengthAdjust="spacing" textLength="120.6" x="74.25" y="168.4644">{resource} Create Form</text><polygon fill="#181818" points="364.05,197.7627,373.05,201.3627,364.05,204.9627,367.65,201.3627" style="stroke:#181818;stroke-width:0.9;"/><line style="stroke:#181818;stroke-width:0.9;" x1="249.75" x2="369.45" y1="201.3627" y2="201.3627"/><text fill="#000000" font-family="sans-serif" font-size="11.7" font-weight="bold" lengthAdjust="spacing" textLength="6.3" x="256.05" y="196.6263">2</text><text fill="#000000" font-family="sans-serif" font-size="11.7" lengthAdjust="spacing" textLength="93.6" x="265.95" y="196.6263">POST {resources}</text><polygon fill="#181818" points="259.65,225.9246,250.65,229.5246,259.65,233.1246,256.05,229.5246" style="stroke:#181818;stroke-width:0.9;"/><line style="stroke:#181818;stroke-width:0.9;stroke-dasharray:2.0,2.0;" x1="254.25" x2="373.95" y1="229.5246" y2="229.5246"/><text fill="#000000" font-family="sans-serif" font-size="11.7" font-weight="bold" lengthAdjust="spacing" textLength="6.3" x="265.05" y="224.7882">3</text><text fill="#000000" font-family="sans-serif" font-size="11.7" lengthAdjust="spacing" textLength="80.1" x="274.95" y="224.7882">HTTP response</text><path d="M9,243.0246 L63.9,243.0246 L63.9,251.3865 L54.9,260.3865 L9,260.3865 L9,243.0246 " fill="#EEEEEE" style="stroke:#000000;stroke-width:1.35;"/><rect fill="none" height="104.2154" style="stroke:#000000;stroke-width:1.35;" width="290.25" x="9" y="243.0246"/><text fill="#000000" font-family="sans-serif" font-size="11.7" font-weight="bold" lengthAdjust="spacing" textLength="14.4" x="22.5" y="256.5501">alt</text><text fill="#000000" font-family="sans-serif" font-size="9.9" font-weight="bold" lengthAdjust="spacing" textLength="49.5" x="77.4" y="255.5077">[success]</text><polygon fill="#181818" points="67.95,293.3104,58.95,296.9104,67.95,300.5104,64.35,296.9104" style="stroke:#181818;stroke-width:0.9;"/><line style="stroke:#181818;stroke-width:0.9;stroke-dasharray:2.0,2.0;" x1="62.55" x2="239.85" y1="296.9104" y2="296.9104"/><text fill="#000000" font-family="sans-serif" font-size="11.7" font-weight="bold" lengthAdjust="spacing" textLength="6.3" x="73.35" y="284.393">4</text><text fill="#000000" font-family="sans-serif" font-size="11.7" lengthAdjust="spacing" textLength="142.2" x="83.25" y="276.612">displays success message</text><text fill="#000000" font-family="sans-serif" font-size="11.7" lengthAdjust="spacing" textLength="147.6" x="86.85" y="292.1739">and refreshes the listed data</text><line style="stroke:#000000;stroke-width:0.9;stroke-dasharray:2.0,2.0;" x1="9" x2="299.25" y1="305.0104" y2="305.0104"/><text fill="#000000" font-family="sans-serif" font-size="9.9" font-weight="bold" lengthAdjust="spacing" textLength="74.7" x="13.5" y="315.6935">[unsuccessful]</text><polygon fill="#181818" points="67.95,336.44,58.95,340.04,67.95,343.64,64.35,340.04" style="stroke:#181818;stroke-width:0.9;"/><line style="stroke:#181818;stroke-width:0.9;stroke-dasharray:2.0,2.0;" x1="62.55" x2="239.85" y1="340.04" y2="340.04"/><text fill="#000000" font-family="sans-serif" font-size="11.7" font-weight="bold" lengthAdjust="spacing" textLength="6.3" x="73.35" y="335.3036">5</text><text fill="#000000" font-family="sans-serif" font-size="11.7" lengthAdjust="spacing" textLength="115.2" x="83.25" y="335.3036">display error message</text><!--SRC=[RP31Ri8m38RlVWgBUry08IvRg-qq1EsDYqdDY4YJodOd8SIxpsMmNNQ9elZpvp-coKgUXWCBw3dcaOG672cSwPDtTacCmi40B9hVNuJ96AzRrZ99u1i01Ik2YqvP5aYA7QvMh_KxpW_hDRZGOeWZPSD58oKRv_uEDhMJeGnZoPpDqLaLlsP_1z1LQoUMsCIK52dtgDDXYAPe9yPzliepmZDKKsJuKpGrW4zmon8t7xiMVnlqDXTMLUMLjxRT-0VLCoXxW6G-9ZYZdk3EEBh4FkgOwABF8Wv- -8Bs-PvC-EYE4_zaIr6DU-p9282JCaxvqNUSqdzUP17VuKFgJRc7Rm00]--></g></svg>