<?xml version="1.0" encoding="us-ascii" standalone="no"?><svg xmlns="http://www.w3.org/2000/svg" xmlns:xlink="http://www.w3.org/1999/xlink" contentStyleType="text/css" height="384.3px" preserveAspectRatio="none" style="width:341px;height:384px;background:#FFFFFF;" version="1.1" viewBox="0 0 341 384" width="341.1px" zoomAndPan="magnify"><defs/><g><text fill="#000000" font-family="sans-serif" font-size="12.6" font-weight="bold" lengthAdjust="spacing" textLength="118.8" x="108" y="27.0967">List All {resources}</text><rect fill="#FFFFFF" height="194.407" style="stroke:#181818;stroke-width:0.9;" width="9" x="209.7" y="117.1389"/><rect fill="none" height="131.7832" style="stroke:#000000;stroke-width:1.35;" width="265.5" x="2.7" y="186.9627"/><line style="stroke:#181818;stroke-width:0.45;stroke-dasharray:5.0,5.0;" x1="214.2" x2="214.2" y1="87.177" y2="334.0459"/><rect fill="#E2E2F0" height="46.118" rx="2.25" ry="2.25" style="stroke:#181818;stroke-width:0.45;" width="90" x="169.2" y="40.159"/><text fill="#000000" font-family="sans-serif" font-size="12.6" font-style="italic" lengthAdjust="spacing" textLength="77.4" x="175.5" y="60.0557">&#171;component&#187;</text><text fill="#000000" font-family="sans-serif" font-size="12.6" lengthAdjust="spacing" textLength="52.2" x="188.1" y="76.8146">Frontend</text><rect fill="#E2E2F0" height="46.118" rx="2.25" ry="2.25" style="stroke:#181818;stroke-width:0.45;" width="90" x="169.2" y="333.1459"/><text fill="#000000" font-family="sans-serif" font-size="12.6" font-style="italic" lengthAdjust="spacing" textLength="77.4" x="175.5" y="353.0426">&#171;component&#187;</text><text fill="#000000" font-family="sans-serif" font-size="12.6" lengthAdjust="spacing" textLength="52.2" x="188.1" y="369.8016">Frontend</text><rect fill="#FFFFFF" height="194.407" style="stroke:#181818;stroke-width:0.9;" width="9" x="209.7" y="117.1389"/><polygon fill="#181818" points="198.9,113.5389,207.9,117.1389,198.9,120.7389,202.5,117.1389" style="stroke:#181818;stroke-width:0.9;"/><line style="stroke:#181818;stroke-width:0.9;" x1="0" x2="204.3" y1="117.1389" y2="117.1389"/><text fill="#000000" font-family="sans-serif" font-size="11.7" font-weight="bold" lengthAdjust="spacing" textLength="6.3" x="6.3" y="112.4024">1</text><text fill="#000000" font-family="sans-serif" font-size="11.7" lengthAdjust="spacing" textLength="37.8" x="16.2" y="112.4024">onLoad</text><polygon fill="#181818" points="324.9,141.7008,333.9,145.3008,324.9,148.9008,328.5,145.3008" style="stroke:#181818;stroke-width:0.9;"/><line style="stroke:#181818;stroke-width:0.9;" x1="218.7" x2="330.3" y1="145.3008" y2="145.3008"/><text fill="#000000" font-family="sans-serif" font-size="11.7" font-weight="bold" lengthAdjust="spacing" textLength="6.3" x="225" y="140.5644">2</text><text fill="#000000" font-family="sans-serif" font-size="11.7" lengthAdjust="spacing" textLength="85.5" x="234.9" y="140.5644">GET {resources}</text><polygon fill="#181818" points="228.6,169.8627,219.6,173.4627,228.6,177.0627,225,173.4627" style="stroke:#181818;stroke-width:0.9;"/><line style="stroke:#181818;stroke-width:0.9;stroke-dasharray:2.0,2.0;" x1="223.2" x2="334.8" y1="173.4627" y2="173.4627"/><text fill="#000000" font-family="sans-serif" font-size="11.7" font-weight="bold" lengthAdjust="spacing" textLength="6.3" x="234" y="168.7263">3</text><text fill="#000000" font-family="sans-serif" font-size="11.7" lengthAdjust="spacing" textLength="80.1" x="243.9" y="168.7263">HTTP response</text><path d="M2.7,186.9627 L57.6,186.9627 L57.6,195.3246 L48.6,204.3246 L2.7,204.3246 L2.7,186.9627 " fill="#EEEEEE" style="stroke:#000000;stroke-width:1.35;"/><rect fill="none" height="131.7832" style="stroke:#000000;stroke-width:1.35;" width="265.5" x="2.7" y="186.9627"/><text fill="#000000" font-family="sans-serif" font-size="11.7" font-weight="bold" lengthAdjust="spacing" textLength="14.4" x="16.2" y="200.4882">alt</text><text fill="#000000" font-family="sans-serif" font-size="9.9" font-weight="bold" lengthAdjust="spacing" textLength="162.9" x="71.1" y="199.4458">[response contains {resources}]</text><polygon fill="#181818" points="9.9,221.6865,0.9,225.2865,9.9,228.8865,6.3,225.2865" style="stroke:#181818;stroke-width:0.9;"/><line style="stroke:#181818;stroke-width:0.9;stroke-dasharray:2.0,2.0;" x1="4.5" x2="208.8" y1="225.2865" y2="225.2865"/><text fill="#000000" font-family="sans-serif" font-size="11.7" font-weight="bold" lengthAdjust="spacing" textLength="6.3" x="15.3" y="220.5501">4</text><text fill="#000000" font-family="sans-serif" font-size="11.7" lengthAdjust="spacing" textLength="176.4" x="25.2" y="220.5501">displays the {resources} view data</text><line style="stroke:#000000;stroke-width:0.9;stroke-dasharray:2.0,2.0;" x1="2.7" x2="268.2" y1="233.3865" y2="233.3865"/><text fill="#000000" font-family="sans-serif" font-size="9.9" font-weight="bold" lengthAdjust="spacing" textLength="117" x="7.2" y="244.0696">[empty response body]</text><polygon fill="#181818" points="9.9,264.8162,0.9,268.4162,9.9,272.0162,6.3,268.4162" style="stroke:#181818;stroke-width:0.9;"/><line style="stroke:#181818;stroke-width:0.9;stroke-dasharray:2.0,2.0;" x1="4.5" x2="208.8" y1="268.4162" y2="268.4162"/><text fill="#000000" font-family="sans-serif" font-size="11.7" font-weight="bold" lengthAdjust="spacing" textLength="6.3" x="15.3" y="263.6798">5</text><text fill="#000000" font-family="sans-serif" font-size="11.7" lengthAdjust="spacing" textLength="166.5" x="25.2" y="263.6798">display no {resources} message</text><line style="stroke:#000000;stroke-width:0.9;stroke-dasharray:2.0,2.0;" x1="2.7" x2="268.2" y1="276.5162" y2="276.5162"/><text fill="#000000" font-family="sans-serif" font-size="9.9" font-weight="bold" lengthAdjust="spacing" textLength="74.7" x="7.2" y="287.1993">[unsuccessful]</text><polygon fill="#181818" points="9.9,307.9459,0.9,311.5459,9.9,315.1459,6.3,311.5459" style="stroke:#181818;stroke-width:0.9;"/><line style="stroke:#181818;stroke-width:0.9;stroke-dasharray:2.0,2.0;" x1="4.5" x2="213.3" y1="311.5459" y2="311.5459"/><text fill="#000000" font-family="sans-serif" font-size="11.7" font-weight="bold" lengthAdjust="spacing" textLength="6.3" x="15.3" y="306.8095">6</text><text fill="#000000" font-family="sans-serif" font-size="11.7" lengthAdjust="spacing" textLength="115.2" x="25.2" y="306.8095">display error message</text><!--SRC=[RP11QWCn34NtEeN8VYumX40MIRl8ej2vW6AhhOb7DfQSCfJUlGgKfaExioMz9_6fMv4-dxc1Nf9KQZHZfN2XLtws9JCs3WPWoVnzIcgupna_6clfBR1-0ZXaAQHAOhWvjYB64ZT8YiS3RhUXpBK8Y-rs0CFEYoCMEHMA01GiNSdOYm0-xUqH7mxJQi7DCWpUU9oc9xz7NQViSBQV7mPVIqbqVTgDStp4cBHcMXJjZN-Fu3NnEqOo0k3i7fwhBNVjkSJbhmQbh2GpgtfWtuekseFNzQNdVrXkhRGx4daLWaS7Nm00]--></g></svg>