<?xml version="1.0" encoding="us-ascii" standalone="no"?><svg xmlns="http://www.w3.org/2000/svg" xmlns:xlink="http://www.w3.org/1999/xlink" contentStyleType="text/css" height="663px" preserveAspectRatio="none" style="width:688px;height:663px;background:#FFFFFF;" version="1.1" viewBox="0 0 688 663" width="688px" zoomAndPan="magnify"><defs/><g><text fill="#000000" font-family="sans-serif" font-size="14" font-weight="bold" lengthAdjust="spacing" textLength="129" x="280.5" y="30.1074">Create {Resource}</text><rect fill="#FFFFFF" height="400.0645" style="stroke:#181818;stroke-width:1.0;" width="10" x="54.5" y="151.8633"/><rect fill="#FFFFFF" height="361.7734" style="stroke:#181818;stroke-width:1.0;" width="10" x="358.5" y="175.1543"/><rect fill="#FFFFFF" height="323.4824" style="stroke:#181818;stroke-width:1.0;" width="10" x="566.5" y="175.1543"/><rect fill="none" height="354.7734" style="stroke:#000000;stroke-width:1.5;" width="671" x="10" y="190.1543"/><rect fill="none" height="210.9785" style="stroke:#000000;stroke-width:1.5;" width="367.5" x="303.5" y="295.6582"/><line style="stroke:#181818;stroke-width:0.5;stroke-dasharray:5.0,5.0;" x1="59" x2="59" y1="141.8633" y2="561.9277"/><line style="stroke:#181818;stroke-width:0.5;stroke-dasharray:5.0,5.0;" x1="363.5" x2="363.5" y1="141.8633" y2="561.9277"/><line style="stroke:#181818;stroke-width:0.5;stroke-dasharray:5.0,5.0;" x1="571" x2="571" y1="141.8633" y2="561.9277"/><text fill="#000000" font-family="sans-serif" font-size="14" font-style="italic" lengthAdjust="spacing" textLength="73" x="20" y="119.7285">&#171;DEI User&#187;</text><text fill="#000000" font-family="sans-serif" font-size="14" lengthAdjust="spacing" textLength="29" x="42" y="138.3496">User</text><ellipse cx="59.5" cy="53.1211" fill="#E2E2F0" rx="8" ry="8" style="stroke:#181818;stroke-width:0.5;"/><path d="M59.5,61.1211 L59.5,88.1211 M46.5,69.1211 L72.5,69.1211 M59.5,88.1211 L46.5,103.1211 M59.5,88.1211 L72.5,103.1211 " fill="none" style="stroke:#181818;stroke-width:0.5;"/><text fill="#000000" font-family="sans-serif" font-size="14" font-style="italic" lengthAdjust="spacing" textLength="73" x="20" y="576.0352">&#171;DEI User&#187;</text><text fill="#000000" font-family="sans-serif" font-size="14" lengthAdjust="spacing" textLength="29" x="42" y="594.6563">User</text><ellipse cx="59.5" cy="606.6699" fill="#E2E2F0" rx="8" ry="8" style="stroke:#181818;stroke-width:0.5;"/><path d="M59.5,614.6699 L59.5,641.6699 M46.5,622.6699 L72.5,622.6699 M59.5,641.6699 L46.5,656.6699 M59.5,641.6699 L72.5,656.6699 " fill="none" style="stroke:#181818;stroke-width:0.5;"/><rect fill="#E2E2F0" height="51.2422" rx="2.5" ry="2.5" style="stroke:#181818;stroke-width:0.5;" width="100" x="313.5" y="89.6211"/><text fill="#000000" font-family="sans-serif" font-size="14" font-style="italic" lengthAdjust="spacing" textLength="86" x="320.5" y="111.7285">&#171;component&#187;</text><text fill="#000000" font-family="sans-serif" font-size="14" lengthAdjust="spacing" textLength="83" x="322" y="130.3496">PortalModule</text><rect fill="#E2E2F0" height="51.2422" rx="2.5" ry="2.5" style="stroke:#181818;stroke-width:0.5;" width="100" x="313.5" y="560.9277"/><text fill="#000000" font-family="sans-serif" font-size="14" font-style="italic" lengthAdjust="spacing" textLength="86" x="320.5" y="583.0352">&#171;component&#187;</text><text fill="#000000" font-family="sans-serif" font-size="14" lengthAdjust="spacing" textLength="83" x="322" y="601.6563">PortalModule</text><rect fill="#E2E2F0" height="51.2422" rx="2.5" ry="2.5" style="stroke:#181818;stroke-width:0.5;" width="179" x="482" y="89.6211"/><text fill="#000000" font-family="sans-serif" font-size="14" font-style="italic" lengthAdjust="spacing" textLength="86" x="528.5" y="111.7285">&#171;component&#187;</text><text fill="#000000" font-family="sans-serif" font-size="14" lengthAdjust="spacing" textLength="165" x="489" y="130.3496">DataAdministrationModule</text><rect fill="#E2E2F0" height="51.2422" rx="2.5" ry="2.5" style="stroke:#181818;stroke-width:0.5;" width="179" x="482" y="560.9277"/><text fill="#000000" font-family="sans-serif" font-size="14" font-style="italic" lengthAdjust="spacing" textLength="86" x="528.5" y="583.0352">&#171;component&#187;</text><text fill="#000000" font-family="sans-serif" font-size="14" lengthAdjust="spacing" textLength="165" x="489" y="601.6563">DataAdministrationModule</text><rect fill="#FFFFFF" height="400.0645" style="stroke:#181818;stroke-width:1.0;" width="10" x="54.5" y="151.8633"/><rect fill="#FFFFFF" height="361.7734" style="stroke:#181818;stroke-width:1.0;" width="10" x="358.5" y="175.1543"/><rect fill="#FFFFFF" height="323.4824" style="stroke:#181818;stroke-width:1.0;" width="10" x="566.5" y="175.1543"/><polygon fill="#181818" points="346.5,171.1543,356.5,175.1543,346.5,179.1543,350.5,175.1543" style="stroke:#181818;stroke-width:1.0;"/><line style="stroke:#181818;stroke-width:1.0;" x1="64.5" x2="352.5" y1="175.1543" y2="175.1543"/><text fill="#000000" font-family="sans-serif" font-size="13" font-weight="bold" lengthAdjust="spacing" textLength="7" x="71.5" y="169.8916">1</text><text fill="#000000" font-family="sans-serif" font-size="13" lengthAdjust="spacing" textLength="264" x="82.5" y="169.8916">Fills and submits the {Resource} Create Form</text><path d="M10,190.1543 L71,190.1543 L71,199.4453 L61,209.4453 L10,209.4453 L10,190.1543 " fill="#EEEEEE" style="stroke:#000000;stroke-width:1.5;"/><rect fill="none" height="354.7734" style="stroke:#000000;stroke-width:1.5;" width="671" x="10" y="190.1543"/><text fill="#000000" font-family="sans-serif" font-size="13" font-weight="bold" lengthAdjust="spacing" textLength="16" x="25" y="205.1826">alt</text><text fill="#000000" font-family="sans-serif" font-size="11" font-weight="bold" lengthAdjust="spacing" textLength="55" x="86" y="204.0244">[success]</text><polygon fill="#181818" points="379.5,228.7363,369.5,232.7363,379.5,236.7363,375.5,232.7363" style="stroke:#181818;stroke-width:1.0;"/><line style="stroke:#181818;stroke-width:1.0;stroke-dasharray:2.0,2.0;" x1="373.5" x2="565.5" y1="232.7363" y2="232.7363"/><text fill="#000000" font-family="sans-serif" font-size="13" font-weight="bold" lengthAdjust="spacing" textLength="7" x="385.5" y="227.4736">2</text><text fill="#000000" font-family="sans-serif" font-size="13" lengthAdjust="spacing" textLength="163" x="396.5" y="227.4736">Response status code - 201</text><polygon fill="#181818" points="75.5,260.0273,65.5,264.0273,75.5,268.0273,71.5,264.0273" style="stroke:#181818;stroke-width:1.0;"/><line style="stroke:#181818;stroke-width:1.0;stroke-dasharray:2.0,2.0;" x1="69.5" x2="357.5" y1="264.0273" y2="264.0273"/><text fill="#000000" font-family="sans-serif" font-size="13" font-weight="bold" lengthAdjust="spacing" textLength="7" x="81.5" y="258.7646">3</text><text fill="#000000" font-family="sans-serif" font-size="13" lengthAdjust="spacing" textLength="158" x="92.5" y="258.7646">displays success message</text><line style="stroke:#000000;stroke-width:1.0;stroke-dasharray:2.0,2.0;" x1="10" x2="681" y1="273.0273" y2="273.0273"/><text fill="#000000" font-family="sans-serif" font-size="11" font-weight="bold" lengthAdjust="spacing" textLength="83" x="15" y="284.8975">[unsuccessful]</text><path d="M303.5,295.6582 L364.5,295.6582 L364.5,304.9492 L354.5,314.9492 L303.5,314.9492 L303.5,295.6582 " fill="#EEEEEE" style="stroke:#000000;stroke-width:1.5;"/><rect fill="none" height="210.9785" style="stroke:#000000;stroke-width:1.5;" width="367.5" x="303.5" y="295.6582"/><text fill="#000000" font-family="sans-serif" font-size="13" font-weight="bold" lengthAdjust="spacing" textLength="16" x="318.5" y="310.6865">alt</text><line style="stroke:#000000;stroke-width:1.0;stroke-dasharray:2.0,2.0;" x1="303.5" x2="671" y1="315.9492" y2="315.9492"/><text fill="#000000" font-family="sans-serif" font-size="11" font-weight="bold" lengthAdjust="spacing" textLength="69" x="308.5" y="327.8193">[invalid data]</text><polygon fill="#181818" points="379.5,350.8711,369.5,354.8711,379.5,358.8711,375.5,354.8711" style="stroke:#181818;stroke-width:1.0;"/><line style="stroke:#181818;stroke-width:1.0;stroke-dasharray:2.0,2.0;" x1="373.5" x2="565.5" y1="354.8711" y2="354.8711"/><text fill="#000000" font-family="sans-serif" font-size="13" font-weight="bold" lengthAdjust="spacing" textLength="7" x="385.5" y="349.6084">4</text><text fill="#000000" font-family="sans-serif" font-size="13" lengthAdjust="spacing" textLength="163" x="396.5" y="349.6084">Response status code - 400</text><line style="stroke:#000000;stroke-width:1.0;stroke-dasharray:2.0,2.0;" x1="303.5" x2="671" y1="363.8711" y2="363.8711"/><text fill="#000000" font-family="sans-serif" font-size="11" font-weight="bold" lengthAdjust="spacing" textLength="115" x="308.5" y="375.7412">[resource not found]</text><polygon fill="#181818" points="379.5,398.793,369.5,402.793,379.5,406.793,375.5,402.793" style="stroke:#181818;stroke-width:1.0;"/><line style="stroke:#181818;stroke-width:1.0;stroke-dasharray:2.0,2.0;" x1="373.5" x2="565.5" y1="402.793" y2="402.793"/><text fill="#000000" font-family="sans-serif" font-size="13" font-weight="bold" lengthAdjust="spacing" textLength="7" x="385.5" y="397.5303">5</text><text fill="#000000" font-family="sans-serif" font-size="13" lengthAdjust="spacing" textLength="163" x="396.5" y="397.5303">Response status code - 404</text><line style="stroke:#000000;stroke-width:1.0;stroke-dasharray:2.0,2.0;" x1="303.5" x2="671" y1="411.793" y2="411.793"/><text fill="#000000" font-family="sans-serif" font-size="11" font-weight="bold" lengthAdjust="spacing" textLength="119" x="308.5" y="423.6631">[entity already exists]</text><polygon fill="#181818" points="379.5,446.7148,369.5,450.7148,379.5,454.7148,375.5,450.7148" style="stroke:#181818;stroke-width:1.0;"/><line style="stroke:#181818;stroke-width:1.0;stroke-dasharray:2.0,2.0;" x1="373.5" x2="565.5" y1="450.7148" y2="450.7148"/><text fill="#000000" font-family="sans-serif" font-size="13" font-weight="bold" lengthAdjust="spacing" textLength="7" x="385.5" y="445.4521">6</text><text fill="#000000" font-family="sans-serif" font-size="13" lengthAdjust="spacing" textLength="163" x="396.5" y="445.4521">Response status code - 409</text><line style="stroke:#000000;stroke-width:1.0;stroke-dasharray:2.0,2.0;" x1="303.5" x2="671" y1="459.7148" y2="459.7148"/><text fill="#000000" font-family="sans-serif" font-size="11" font-weight="bold" lengthAdjust="spacing" textLength="122" x="308.5" y="471.585">[database unavailable]</text><polygon fill="#181818" points="379.5,494.6367,369.5,498.6367,379.5,502.6367,375.5,498.6367" style="stroke:#181818;stroke-width:1.0;"/><line style="stroke:#181818;stroke-width:1.0;stroke-dasharray:2.0,2.0;" x1="373.5" x2="570.5" y1="498.6367" y2="498.6367"/><text fill="#000000" font-family="sans-serif" font-size="13" font-weight="bold" lengthAdjust="spacing" textLength="7" x="385.5" y="493.374">7</text><text fill="#000000" font-family="sans-serif" font-size="13" lengthAdjust="spacing" textLength="163" x="396.5" y="493.374">Response status code - 503</text><polygon fill="#181818" points="75.5,532.9277,65.5,536.9277,75.5,540.9277,71.5,536.9277" style="stroke:#181818;stroke-width:1.0;"/><line style="stroke:#181818;stroke-width:1.0;stroke-dasharray:2.0,2.0;" x1="69.5" x2="362.5" y1="536.9277" y2="536.9277"/><text fill="#000000" font-family="sans-serif" font-size="13" font-weight="bold" lengthAdjust="spacing" textLength="7" x="81.5" y="531.665">8</text><text fill="#000000" font-family="sans-serif" font-size="13" lengthAdjust="spacing" textLength="128" x="92.5" y="531.665">display error message</text><!--SRC=[ZPB1QiCm38RlVWhHUo3RkiDAAPHrXHqAfICFeDZgPkhOmPRBmjYxpqvQbdMNN88H-Z_z-XMCx6niQl8YdBHjqMC3BSeJljCRTuR0asGXM7DwFtj29lWwK73HI_eM0YKx3xCga9y11gXWkToyl48kh5OY0LbBtQ9bcEsTPpGxfwAXllcmtwLswPhMMR9ysxz1nhLgjDM1FR9sTgJTh6-rsOi-PuEL41KKgynV06orCG7GAWYnRZG7u8_n4jUrjiutluoa7H7JD8664q5A2a7qpeiYrnUGICb480YC70D8fmWAk2_lie_SrXjHEhG6kt25G9C-AMSXo2Hnj9VwCPeyQwXgUqQZ5QYKXO0fO-TbEKZzPK6mZk7eebLJ0VC1a6BLt06Qb8_gW3xJ7S9KnjF0oBvhxDV3Csg3jQ5fYCVoGO2YFoUWlCF_I86yJt_XDS-HA5ynYyQrIlm0]--></g></svg>