<?xml version="1.0" encoding="us-ascii" standalone="no"?><svg xmlns="http://www.w3.org/2000/svg" xmlns:xlink="http://www.w3.org/1999/xlink" contentStyleType="text/css" height="1342px" preserveAspectRatio="none" style="width:654px;height:1342px;background:#FFFFFF;" version="1.1" viewBox="0 0 654 1342" width="654px" zoomAndPan="magnify"><defs/><g><text fill="#000000" font-family="sans-serif" font-size="14" font-weight="bold" lengthAdjust="spacing" textLength="110" x="273" y="30.1074">Create Elevator</text><rect fill="#FFFFFF" height="917.7207" style="stroke:#181818;stroke-width:1.0;" width="10" x="384" y="316.7734"/><rect fill="#FFFFFF" height="31.291" style="stroke:#181818;stroke-width:1.0;" width="10" x="586" y="374.3555"/><rect fill="#FFFFFF" height="31.291" style="stroke:#181818;stroke-width:1.0;" width="10" x="586" y="549.4414"/><rect fill="#FFFFFF" height="31.291" style="stroke:#181818;stroke-width:1.0;" width="10" x="586" y="724.5273"/><rect fill="#FFFFFF" height="31.291" style="stroke:#181818;stroke-width:1.0;" width="10" x="586" y="851.6914"/><rect fill="#FFFFFF" height="31.291" style="stroke:#181818;stroke-width:1.0;" width="10" x="586" y="1026.7773"/><rect fill="none" height="894.7207" style="stroke:#000000;stroke-width:1.5;" width="644" x="3" y="331.7734"/><rect fill="none" height="98.5039" style="stroke:#000000;stroke-width:1.5;" width="446" x="3" y="420.6465"/><rect fill="none" height="98.5039" style="stroke:#000000;stroke-width:1.5;" width="446" x="3" y="595.7324"/><rect fill="none" height="50.582" style="stroke:#000000;stroke-width:1.5;" width="446" x="3" y="770.8184"/><rect fill="none" height="98.5039" style="stroke:#000000;stroke-width:1.5;" width="446" x="3" y="897.9824"/><rect fill="none" height="98.5039" style="stroke:#000000;stroke-width:1.5;" width="446" x="3" y="1073.0684"/><line style="stroke:#181818;stroke-width:0.5;stroke-dasharray:5.0,5.0;" x1="389" x2="389" y1="127.8633" y2="1243.4941"/><line style="stroke:#181818;stroke-width:0.5;stroke-dasharray:5.0,5.0;" x1="591" x2="591" y1="127.8633" y2="1243.4941"/><rect fill="#E2E2F0" height="51.2422" rx="2.5" ry="2.5" style="stroke:#181818;stroke-width:0.5;" width="100" x="339" y="75.6211"/><text fill="#000000" font-family="sans-serif" font-size="14" font-style="italic" lengthAdjust="spacing" textLength="86" x="346" y="97.7285">&#171;component&#187;</text><text fill="#000000" font-family="sans-serif" font-size="14" lengthAdjust="spacing" textLength="61" x="358.5" y="116.3496">Back-End</text><rect fill="#E2E2F0" height="51.2422" rx="2.5" ry="2.5" style="stroke:#181818;stroke-width:0.5;" width="100" x="339" y="1242.4941"/><text fill="#000000" font-family="sans-serif" font-size="14" font-style="italic" lengthAdjust="spacing" textLength="86" x="346" y="1264.6016">&#171;component&#187;</text><text fill="#000000" font-family="sans-serif" font-size="14" lengthAdjust="spacing" textLength="61" x="358.5" y="1283.2227">Back-End</text><text fill="#000000" font-family="sans-serif" font-size="14" font-style="italic" lengthAdjust="spacing" textLength="86" x="545" y="105.7285">&#171;component&#187;</text><text fill="#000000" font-family="sans-serif" font-size="14" lengthAdjust="spacing" textLength="62" x="557" y="124.3496">DataBase</text><path d="M573,54.6211 C573,44.6211 591,44.6211 591,44.6211 C591,44.6211 609,44.6211 609,54.6211 L609,80.6211 C609,90.6211 591,90.6211 591,90.6211 C591,90.6211 573,90.6211 573,80.6211 L573,54.6211 " fill="#E2E2F0" style="stroke:#181818;stroke-width:1.5;"/><path d="M573,54.6211 C573,64.6211 591,64.6211 591,64.6211 C591,64.6211 609,64.6211 609,54.6211 " fill="none" style="stroke:#181818;stroke-width:1.5;"/><text fill="#000000" font-family="sans-serif" font-size="14" font-style="italic" lengthAdjust="spacing" textLength="86" x="545" y="1257.6016">&#171;component&#187;</text><text fill="#000000" font-family="sans-serif" font-size="14" lengthAdjust="spacing" textLength="62" x="557" y="1276.2227">DataBase</text><path d="M573,1289.7363 C573,1279.7363 591,1279.7363 591,1279.7363 C591,1279.7363 609,1279.7363 609,1289.7363 L609,1315.7363 C609,1325.7363 591,1325.7363 591,1325.7363 C591,1325.7363 573,1325.7363 573,1315.7363 L573,1289.7363 " fill="#E2E2F0" style="stroke:#181818;stroke-width:1.5;"/><path d="M573,1289.7363 C573,1299.7363 591,1299.7363 591,1299.7363 C591,1299.7363 609,1299.7363 609,1289.7363 " fill="none" style="stroke:#181818;stroke-width:1.5;"/><rect fill="#FFFFFF" height="917.7207" style="stroke:#181818;stroke-width:1.0;" width="10" x="384" y="316.7734"/><rect fill="#FFFFFF" height="31.291" style="stroke:#181818;stroke-width:1.0;" width="10" x="586" y="374.3555"/><rect fill="#FFFFFF" height="31.291" style="stroke:#181818;stroke-width:1.0;" width="10" x="586" y="549.4414"/><rect fill="#FFFFFF" height="31.291" style="stroke:#181818;stroke-width:1.0;" width="10" x="586" y="724.5273"/><rect fill="#FFFFFF" height="31.291" style="stroke:#181818;stroke-width:1.0;" width="10" x="586" y="851.6914"/><rect fill="#FFFFFF" height="31.291" style="stroke:#181818;stroke-width:1.0;" width="10" x="586" y="1026.7773"/><polygon fill="#181818" points="372,312.7734,382,316.7734,372,320.7734,376,316.7734" style="stroke:#181818;stroke-width:1.0;"/><line style="stroke:#181818;stroke-width:1.0;" x1="0" x2="378" y1="316.7734" y2="316.7734"/><text fill="#000000" font-family="sans-serif" font-size="13" font-weight="bold" lengthAdjust="spacing" textLength="7" x="7" y="233.7012">1</text><text fill="#000000" font-family="sans-serif" font-size="13" lengthAdjust="spacing" textLength="98" x="18" y="155.8916">POST elevators/{</text><text fill="#000000" font-family="sans-serif" font-size="13" lengthAdjust="spacing" textLength="123" x="22" y="173.1826">domainId?: domainId,</text><text fill="#000000" font-family="sans-serif" font-size="13" lengthAdjust="spacing" textLength="83" x="22" y="190.4736">brand?: brand,</text><text fill="#000000" font-family="sans-serif" font-size="13" lengthAdjust="spacing" textLength="89" x="22" y="207.7646">model?: model,</text><text fill="#000000" font-family="sans-serif" font-size="13" lengthAdjust="spacing" textLength="171" x="22" y="225.0557">serialNumber?: serialNumber,</text><text fill="#000000" font-family="sans-serif" font-size="13" lengthAdjust="spacing" textLength="145" x="22" y="242.3467">description?: description,</text><text fill="#000000" font-family="sans-serif" font-size="13" lengthAdjust="spacing" textLength="343" x="22" y="259.6377">elevatorPosition: {xposition: xposition, yposition: yposition},</text><text fill="#000000" font-family="sans-serif" font-size="13" lengthAdjust="spacing" textLength="92" x="22" y="276.9287">floors: [floorIds],</text><text fill="#000000" font-family="sans-serif" font-size="13" lengthAdjust="spacing" textLength="106" x="22" y="294.2197">building: buildingId</text><text fill="#000000" font-family="sans-serif" font-size="13" lengthAdjust="spacing" textLength="4" x="18" y="311.5107">}</text><path d="M3,331.7734 L64,331.7734 L64,341.0645 L54,351.0645 L3,351.0645 L3,331.7734 " fill="#EEEEEE" style="stroke:#000000;stroke-width:1.5;"/><rect fill="none" height="894.7207" style="stroke:#000000;stroke-width:1.5;" width="644" x="3" y="331.7734"/><text fill="#000000" font-family="sans-serif" font-size="13" font-weight="bold" lengthAdjust="spacing" textLength="16" x="18" y="346.8018">alt</text><text fill="#000000" font-family="sans-serif" font-size="11" font-weight="bold" lengthAdjust="spacing" textLength="107" x="79" y="345.6436">[user autothorized]</text><polygon fill="#181818" points="574,370.3555,584,374.3555,574,378.3555,578,374.3555" style="stroke:#181818;stroke-width:1.0;"/><line style="stroke:#181818;stroke-width:1.0;" x1="394" x2="580" y1="374.3555" y2="374.3555"/><text fill="#000000" font-family="sans-serif" font-size="13" font-weight="bold" lengthAdjust="spacing" textLength="7" x="401" y="369.0928">2</text><text fill="#000000" font-family="sans-serif" font-size="13" lengthAdjust="spacing" textLength="146" x="412" y="369.0928">find elevator by domain id</text><polygon fill="#181818" points="405,401.6465,395,405.6465,405,409.6465,401,405.6465" style="stroke:#181818;stroke-width:1.0;"/><line style="stroke:#181818;stroke-width:1.0;stroke-dasharray:2.0,2.0;" x1="399" x2="590" y1="405.6465" y2="405.6465"/><text fill="#000000" font-family="sans-serif" font-size="13" font-weight="bold" lengthAdjust="spacing" textLength="7" x="411" y="400.3838">3</text><text fill="#000000" font-family="sans-serif" font-size="13" lengthAdjust="spacing" textLength="4" x="422" y="400.3838">&#160;</text><path d="M3,420.6465 L64,420.6465 L64,429.9375 L54,439.9375 L3,439.9375 L3,420.6465 " fill="#EEEEEE" style="stroke:#000000;stroke-width:1.5;"/><rect fill="none" height="98.5039" style="stroke:#000000;stroke-width:1.5;" width="446" x="3" y="420.6465"/><text fill="#000000" font-family="sans-serif" font-size="13" font-weight="bold" lengthAdjust="spacing" textLength="16" x="18" y="435.6748">alt</text><text fill="#000000" font-family="sans-serif" font-size="11" font-weight="bold" lengthAdjust="spacing" textLength="142" x="79" y="434.5166">[domain Id already exists]</text><polygon fill="#181818" points="11,459.2285,1,463.2285,11,467.2285,7,463.2285" style="stroke:#181818;stroke-width:1.0;"/><line style="stroke:#181818;stroke-width:1.0;stroke-dasharray:2.0,2.0;" x1="5" x2="383" y1="463.2285" y2="463.2285"/><text fill="#000000" font-family="sans-serif" font-size="13" font-weight="bold" lengthAdjust="spacing" textLength="7" x="17" y="457.9658">4</text><text fill="#000000" font-family="sans-serif" font-size="13" lengthAdjust="spacing" textLength="163" x="28" y="457.9658">Response status code - 409</text><line style="stroke:#000000;stroke-width:1.0;stroke-dasharray:2.0,2.0;" x1="3" x2="449" y1="472.2285" y2="472.2285"/><text fill="#000000" font-family="sans-serif" font-size="11" font-weight="bold" lengthAdjust="spacing" textLength="122" x="8" y="484.0986">[database unavailable]</text><polygon fill="#181818" points="11,507.1504,1,511.1504,11,515.1504,7,511.1504" style="stroke:#181818;stroke-width:1.0;"/><line style="stroke:#181818;stroke-width:1.0;stroke-dasharray:2.0,2.0;" x1="5" x2="383" y1="511.1504" y2="511.1504"/><text fill="#000000" font-family="sans-serif" font-size="13" font-weight="bold" lengthAdjust="spacing" textLength="7" x="17" y="505.8877">5</text><text fill="#000000" font-family="sans-serif" font-size="13" lengthAdjust="spacing" textLength="163" x="28" y="505.8877">Response status code - 503</text><polygon fill="#181818" points="574,545.4414,584,549.4414,574,553.4414,578,549.4414" style="stroke:#181818;stroke-width:1.0;"/><line style="stroke:#181818;stroke-width:1.0;" x1="394" x2="580" y1="549.4414" y2="549.4414"/><text fill="#000000" font-family="sans-serif" font-size="13" font-weight="bold" lengthAdjust="spacing" textLength="7" x="401" y="544.1787">6</text><text fill="#000000" font-family="sans-serif" font-size="13" lengthAdjust="spacing" textLength="148" x="412" y="544.1787">find building by building id</text><polygon fill="#181818" points="405,576.7324,395,580.7324,405,584.7324,401,580.7324" style="stroke:#181818;stroke-width:1.0;"/><line style="stroke:#181818;stroke-width:1.0;stroke-dasharray:2.0,2.0;" x1="399" x2="590" y1="580.7324" y2="580.7324"/><text fill="#000000" font-family="sans-serif" font-size="13" font-weight="bold" lengthAdjust="spacing" textLength="7" x="411" y="575.4697">7</text><text fill="#000000" font-family="sans-serif" font-size="13" lengthAdjust="spacing" textLength="4" x="422" y="575.4697">&#160;</text><path d="M3,595.7324 L64,595.7324 L64,605.0234 L54,615.0234 L3,615.0234 L3,595.7324 " fill="#EEEEEE" style="stroke:#000000;stroke-width:1.5;"/><rect fill="none" height="98.5039" style="stroke:#000000;stroke-width:1.5;" width="446" x="3" y="595.7324"/><text fill="#000000" font-family="sans-serif" font-size="13" font-weight="bold" lengthAdjust="spacing" textLength="16" x="18" y="610.7607">alt</text><text fill="#000000" font-family="sans-serif" font-size="11" font-weight="bold" lengthAdjust="spacing" textLength="108" x="79" y="609.6025">[building not found]</text><polygon fill="#181818" points="11,634.3145,1,638.3145,11,642.3145,7,638.3145" style="stroke:#181818;stroke-width:1.0;"/><line style="stroke:#181818;stroke-width:1.0;stroke-dasharray:2.0,2.0;" x1="5" x2="383" y1="638.3145" y2="638.3145"/><text fill="#000000" font-family="sans-serif" font-size="13" font-weight="bold" lengthAdjust="spacing" textLength="7" x="17" y="633.0518">8</text><text fill="#000000" font-family="sans-serif" font-size="13" lengthAdjust="spacing" textLength="163" x="28" y="633.0518">Response status code - 404</text><line style="stroke:#000000;stroke-width:1.0;stroke-dasharray:2.0,2.0;" x1="3" x2="449" y1="647.3145" y2="647.3145"/><text fill="#000000" font-family="sans-serif" font-size="11" font-weight="bold" lengthAdjust="spacing" textLength="122" x="8" y="659.1846">[database unavailable]</text><polygon fill="#181818" points="11,682.2363,1,686.2363,11,690.2363,7,686.2363" style="stroke:#181818;stroke-width:1.0;"/><line style="stroke:#181818;stroke-width:1.0;stroke-dasharray:2.0,2.0;" x1="5" x2="383" y1="686.2363" y2="686.2363"/><text fill="#000000" font-family="sans-serif" font-size="13" font-weight="bold" lengthAdjust="spacing" textLength="7" x="17" y="680.9736">9</text><text fill="#000000" font-family="sans-serif" font-size="13" lengthAdjust="spacing" textLength="163" x="28" y="680.9736">Response status code - 503</text><polygon fill="#181818" points="574,720.5273,584,724.5273,574,728.5273,578,724.5273" style="stroke:#181818;stroke-width:1.0;"/><line style="stroke:#181818;stroke-width:1.0;" x1="394" x2="580" y1="724.5273" y2="724.5273"/><text fill="#000000" font-family="sans-serif" font-size="13" font-weight="bold" lengthAdjust="spacing" textLength="14" x="401" y="719.2646">10</text><text fill="#000000" font-family="sans-serif" font-size="13" lengthAdjust="spacing" textLength="155" x="419" y="719.2646">find elevators by building id</text><polygon fill="#181818" points="405,751.8184,395,755.8184,405,759.8184,401,755.8184" style="stroke:#181818;stroke-width:1.0;"/><line style="stroke:#181818;stroke-width:1.0;stroke-dasharray:2.0,2.0;" x1="399" x2="590" y1="755.8184" y2="755.8184"/><text fill="#000000" font-family="sans-serif" font-size="13" font-weight="bold" lengthAdjust="spacing" textLength="14" x="411" y="750.5557">11</text><text fill="#000000" font-family="sans-serif" font-size="13" lengthAdjust="spacing" textLength="4" x="429" y="750.5557">&#160;</text><path d="M3,770.8184 L64,770.8184 L64,780.1094 L54,790.1094 L3,790.1094 L3,770.8184 " fill="#EEEEEE" style="stroke:#000000;stroke-width:1.5;"/><rect fill="none" height="50.582" style="stroke:#000000;stroke-width:1.5;" width="446" x="3" y="770.8184"/><text fill="#000000" font-family="sans-serif" font-size="13" font-weight="bold" lengthAdjust="spacing" textLength="16" x="18" y="785.8467">alt</text><text fill="#000000" font-family="sans-serif" font-size="11" font-weight="bold" lengthAdjust="spacing" textLength="122" x="79" y="784.6885">[database unavailable]</text><polygon fill="#181818" points="11,809.4004,1,813.4004,11,817.4004,7,813.4004" style="stroke:#181818;stroke-width:1.0;"/><line style="stroke:#181818;stroke-width:1.0;stroke-dasharray:2.0,2.0;" x1="5" x2="383" y1="813.4004" y2="813.4004"/><text fill="#000000" font-family="sans-serif" font-size="13" font-weight="bold" lengthAdjust="spacing" textLength="14" x="17" y="808.1377">12</text><text fill="#000000" font-family="sans-serif" font-size="13" lengthAdjust="spacing" textLength="163" x="35" y="808.1377">Response status code - 503</text><polygon fill="#181818" points="574,847.6914,584,851.6914,574,855.6914,578,851.6914" style="stroke:#181818;stroke-width:1.0;"/><line style="stroke:#181818;stroke-width:1.0;" x1="394" x2="580" y1="851.6914" y2="851.6914"/><text fill="#000000" font-family="sans-serif" font-size="13" font-weight="bold" lengthAdjust="spacing" textLength="14" x="401" y="846.4287">13</text><text fill="#000000" font-family="sans-serif" font-size="13" lengthAdjust="spacing" textLength="108" x="419" y="846.4287">find floor by floor id</text><polygon fill="#181818" points="405,878.9824,395,882.9824,405,886.9824,401,882.9824" style="stroke:#181818;stroke-width:1.0;"/><line style="stroke:#181818;stroke-width:1.0;stroke-dasharray:2.0,2.0;" x1="399" x2="590" y1="882.9824" y2="882.9824"/><text fill="#000000" font-family="sans-serif" font-size="13" font-weight="bold" lengthAdjust="spacing" textLength="14" x="411" y="877.7197">14</text><text fill="#000000" font-family="sans-serif" font-size="13" lengthAdjust="spacing" textLength="4" x="429" y="877.7197">&#160;</text><path d="M3,897.9824 L64,897.9824 L64,907.2734 L54,917.2734 L3,917.2734 L3,897.9824 " fill="#EEEEEE" style="stroke:#000000;stroke-width:1.5;"/><rect fill="none" height="98.5039" style="stroke:#000000;stroke-width:1.5;" width="446" x="3" y="897.9824"/><text fill="#000000" font-family="sans-serif" font-size="13" font-weight="bold" lengthAdjust="spacing" textLength="16" x="18" y="913.0107">alt</text><text fill="#000000" font-family="sans-serif" font-size="11" font-weight="bold" lengthAdjust="spacing" textLength="90" x="79" y="911.8525">[floor not found]</text><polygon fill="#181818" points="11,936.5645,1,940.5645,11,944.5645,7,940.5645" style="stroke:#181818;stroke-width:1.0;"/><line style="stroke:#181818;stroke-width:1.0;stroke-dasharray:2.0,2.0;" x1="5" x2="383" y1="940.5645" y2="940.5645"/><text fill="#000000" font-family="sans-serif" font-size="13" font-weight="bold" lengthAdjust="spacing" textLength="14" x="17" y="935.3018">15</text><text fill="#000000" font-family="sans-serif" font-size="13" lengthAdjust="spacing" textLength="163" x="35" y="935.3018">Response status code - 404</text><line style="stroke:#000000;stroke-width:1.0;stroke-dasharray:2.0,2.0;" x1="3" x2="449" y1="949.5645" y2="949.5645"/><text fill="#000000" font-family="sans-serif" font-size="11" font-weight="bold" lengthAdjust="spacing" textLength="122" x="8" y="961.4346">[database unavailable]</text><polygon fill="#181818" points="11,984.4863,1,988.4863,11,992.4863,7,988.4863" style="stroke:#181818;stroke-width:1.0;"/><line style="stroke:#181818;stroke-width:1.0;stroke-dasharray:2.0,2.0;" x1="5" x2="383" y1="988.4863" y2="988.4863"/><text fill="#000000" font-family="sans-serif" font-size="13" font-weight="bold" lengthAdjust="spacing" textLength="14" x="17" y="983.2236">16</text><text fill="#000000" font-family="sans-serif" font-size="13" lengthAdjust="spacing" textLength="163" x="35" y="983.2236">Response status code - 503</text><polygon fill="#181818" points="574,1022.7773,584,1026.7773,574,1030.7773,578,1026.7773" style="stroke:#181818;stroke-width:1.0;"/><line style="stroke:#181818;stroke-width:1.0;" x1="394" x2="580" y1="1026.7773" y2="1026.7773"/><text fill="#000000" font-family="sans-serif" font-size="13" font-weight="bold" lengthAdjust="spacing" textLength="14" x="401" y="1021.5146">17</text><text fill="#000000" font-family="sans-serif" font-size="13" lengthAdjust="spacing" textLength="26" x="419" y="1021.5146">save</text><polygon fill="#181818" points="405,1054.0684,395,1058.0684,405,1062.0684,401,1058.0684" style="stroke:#181818;stroke-width:1.0;"/><line style="stroke:#181818;stroke-width:1.0;stroke-dasharray:2.0,2.0;" x1="399" x2="590" y1="1058.0684" y2="1058.0684"/><text fill="#000000" font-family="sans-serif" font-size="13" font-weight="bold" lengthAdjust="spacing" textLength="14" x="411" y="1052.8057">18</text><text fill="#000000" font-family="sans-serif" font-size="13" lengthAdjust="spacing" textLength="4" x="429" y="1052.8057">&#160;</text><path d="M3,1073.0684 L64,1073.0684 L64,1082.3594 L54,1092.3594 L3,1092.3594 L3,1073.0684 " fill="#EEEEEE" style="stroke:#000000;stroke-width:1.5;"/><rect fill="none" height="98.5039" style="stroke:#000000;stroke-width:1.5;" width="446" x="3" y="1073.0684"/><text fill="#000000" font-family="sans-serif" font-size="13" font-weight="bold" lengthAdjust="spacing" textLength="16" x="18" y="1088.0967">alt</text><text fill="#000000" font-family="sans-serif" font-size="11" font-weight="bold" lengthAdjust="spacing" textLength="110" x="79" y="1086.9385">[elevator persisted]</text><polygon fill="#181818" points="11,1111.6504,1,1115.6504,11,1119.6504,7,1115.6504" style="stroke:#181818;stroke-width:1.0;"/><line style="stroke:#181818;stroke-width:1.0;stroke-dasharray:2.0,2.0;" x1="5" x2="383" y1="1115.6504" y2="1115.6504"/><text fill="#000000" font-family="sans-serif" font-size="13" font-weight="bold" lengthAdjust="spacing" textLength="14" x="17" y="1110.3877">19</text><text fill="#000000" font-family="sans-serif" font-size="13" lengthAdjust="spacing" textLength="163" x="35" y="1110.3877">Response status code - 201</text><line style="stroke:#000000;stroke-width:1.0;stroke-dasharray:2.0,2.0;" x1="3" x2="449" y1="1124.6504" y2="1124.6504"/><text fill="#000000" font-family="sans-serif" font-size="11" font-weight="bold" lengthAdjust="spacing" textLength="123" x="8" y="1136.5205">[database unaveilable]</text><polygon fill="#181818" points="11,1159.5723,1,1163.5723,11,1167.5723,7,1163.5723" style="stroke:#181818;stroke-width:1.0;"/><line style="stroke:#181818;stroke-width:1.0;stroke-dasharray:2.0,2.0;" x1="5" x2="383" y1="1163.5723" y2="1163.5723"/><text fill="#000000" font-family="sans-serif" font-size="13" font-weight="bold" lengthAdjust="spacing" textLength="14" x="17" y="1158.3096">20</text><text fill="#000000" font-family="sans-serif" font-size="13" lengthAdjust="spacing" textLength="163" x="35" y="1158.3096">Response status code - 503</text><line style="stroke:#000000;stroke-width:1.0;stroke-dasharray:2.0,2.0;" x1="3" x2="647" y1="1179.5723" y2="1179.5723"/><text fill="#000000" font-family="sans-serif" font-size="11" font-weight="bold" lengthAdjust="spacing" textLength="110" x="8" y="1191.4424">[user unauthorized]</text><polygon fill="#181818" points="11,1214.4941,1,1218.4941,11,1222.4941,7,1218.4941" style="stroke:#181818;stroke-width:1.0;"/><line style="stroke:#181818;stroke-width:1.0;stroke-dasharray:2.0,2.0;" x1="5" x2="383" y1="1218.4941" y2="1218.4941"/><text fill="#000000" font-family="sans-serif" font-size="13" font-weight="bold" lengthAdjust="spacing" textLength="14" x="17" y="1213.2314">21</text><text fill="#000000" font-family="sans-serif" font-size="13" lengthAdjust="spacing" textLength="163" x="35" y="1213.2314">Response status code - 401</text><!--SRC=[nLJ1Rjim3BtpAuXSUecnTEiECu8Cy9m2kMp5kjlQ0sqndL1PCYmvQ5RqtqSfYPCD6vgiXvxqH97qUu-Mg0_Ezat57VXxRLlggC6Mwdkwu-kmDemTrm4Ww23uKySK6EU6LnHS1o3vGTUw9HjmL4XPDhTgXEIncEDqMhkcTPPjcCr0KQ2AFEEe55G8IdbbyKSUP3Cfpl7go_KtvEsN_9l76ulADQJjGdtC1pYMSDMHZR6qZb4YZLDi99BMcEAvqsG-9w4IFzp6OyM-xdGRjBEnztuN3tSShfpNCPRZuqCxu06ESRsF3l0fTbWQ9n9o_9x0GldRHBlNHcbxbmzeeMxi4m2PWBrGH9BXX1-kqpzP0PnTQgkmMcEPjEEYF9FSEkXLd4an1n3FnRooo74PKtV4Oyt6BzJgeAGi0CJ-R6CuWEBVZYADRTb28HcPlLeZFsWVF03YDClIeBwob-79O7sWq7kinNJCy6Bo0O2Dn8V9zvPMf0rLXezey7xoJXhOG-N5rgZdjUyiZLK3FbNzK6XTmANh8vSZT5-yekxXmhn8-8kPxwbVnb_-UTxfPiJy3JYLyARgbSO4_vJcQSMd2HdkRCkTbvl6nsXvEpd_cnR-3osfItfyf4E_VtoEyFDyq-8N]--></g></svg>