<?xml version="1.0" encoding="us-ascii" standalone="no"?><svg xmlns="http://www.w3.org/2000/svg" xmlns:xlink="http://www.w3.org/1999/xlink" contentStyleType="text/css" height="924px" preserveAspectRatio="none" style="width:640px;height:924px;background:#FFFFFF;" version="1.1" viewBox="0 0 640 924" width="640px" zoomAndPan="magnify"><defs/><g><text fill="#000000" font-family="sans-serif" font-size="14" font-weight="bold" lengthAdjust="spacing" textLength="90" x="276.75" y="30.1074">Edit Elevator</text><rect fill="#FFFFFF" height="534.2578" style="stroke:#181818;stroke-width:1.0;" width="10" x="391" y="282.1914"/><rect fill="#FFFFFF" height="31.291" style="stroke:#181818;stroke-width:1.0;" width="10" x="577" y="313.4824"/><rect fill="#FFFFFF" height="31.291" style="stroke:#181818;stroke-width:1.0;" width="10" x="577" y="488.5684"/><rect fill="#FFFFFF" height="31.291" style="stroke:#181818;stroke-width:1.0;" width="10" x="577" y="663.6543"/><rect fill="none" height="98.5039" style="stroke:#000000;stroke-width:1.5;" width="456" x="3" y="359.7734"/><rect fill="none" height="98.5039" style="stroke:#000000;stroke-width:1.5;" width="456" x="3" y="534.8594"/><rect fill="none" height="98.5039" style="stroke:#000000;stroke-width:1.5;" width="456" x="3" y="709.9453"/><line style="stroke:#181818;stroke-width:0.5;stroke-dasharray:5.0,5.0;" x1="396" x2="396" y1="127.8633" y2="825.4492"/><line style="stroke:#181818;stroke-width:0.5;stroke-dasharray:5.0,5.0;" x1="581.5" x2="581.5" y1="127.8633" y2="825.4492"/><rect fill="#E2E2F0" height="51.2422" rx="2.5" ry="2.5" style="stroke:#181818;stroke-width:0.5;" width="106" x="343" y="75.6211"/><text fill="#000000" font-family="sans-serif" font-size="14" font-style="italic" lengthAdjust="spacing" textLength="86" x="353" y="97.7285">&#171;component&#187;</text><text fill="#000000" font-family="sans-serif" font-size="14" lengthAdjust="spacing" textLength="92" x="350" y="116.3496">Node Backend</text><rect fill="#E2E2F0" height="51.2422" rx="2.5" ry="2.5" style="stroke:#181818;stroke-width:0.5;" width="106" x="343" y="824.4492"/><text fill="#000000" font-family="sans-serif" font-size="14" font-style="italic" lengthAdjust="spacing" textLength="86" x="353" y="846.5566">&#171;component&#187;</text><text fill="#000000" font-family="sans-serif" font-size="14" lengthAdjust="spacing" textLength="92" x="350" y="865.1777">Node Backend</text><text fill="#000000" font-family="sans-serif" font-size="14" font-style="italic" lengthAdjust="spacing" textLength="86" x="536" y="105.7285">&#171;component&#187;</text><text fill="#000000" font-family="sans-serif" font-size="14" lengthAdjust="spacing" textLength="109" x="524.5" y="124.3496">Mongo DataBase</text><path d="M564,54.6211 C564,44.6211 582,44.6211 582,44.6211 C582,44.6211 600,44.6211 600,54.6211 L600,80.6211 C600,90.6211 582,90.6211 582,90.6211 C582,90.6211 564,90.6211 564,80.6211 L564,54.6211 " fill="#E2E2F0" style="stroke:#181818;stroke-width:1.5;"/><path d="M564,54.6211 C564,64.6211 582,64.6211 582,64.6211 C582,64.6211 600,64.6211 600,54.6211 " fill="none" style="stroke:#181818;stroke-width:1.5;"/><text fill="#000000" font-family="sans-serif" font-size="14" font-style="italic" lengthAdjust="spacing" textLength="86" x="536" y="839.5566">&#171;component&#187;</text><text fill="#000000" font-family="sans-serif" font-size="14" lengthAdjust="spacing" textLength="109" x="524.5" y="858.1777">Mongo DataBase</text><path d="M564,871.6914 C564,861.6914 582,861.6914 582,861.6914 C582,861.6914 600,861.6914 600,871.6914 L600,897.6914 C600,907.6914 582,907.6914 582,907.6914 C582,907.6914 564,907.6914 564,897.6914 L564,871.6914 " fill="#E2E2F0" style="stroke:#181818;stroke-width:1.5;"/><path d="M564,871.6914 C564,881.6914 582,881.6914 582,881.6914 C582,881.6914 600,881.6914 600,871.6914 " fill="none" style="stroke:#181818;stroke-width:1.5;"/><rect fill="#FFFFFF" height="534.2578" style="stroke:#181818;stroke-width:1.0;" width="10" x="391" y="282.1914"/><rect fill="#FFFFFF" height="31.291" style="stroke:#181818;stroke-width:1.0;" width="10" x="577" y="313.4824"/><rect fill="#FFFFFF" height="31.291" style="stroke:#181818;stroke-width:1.0;" width="10" x="577" y="488.5684"/><rect fill="#FFFFFF" height="31.291" style="stroke:#181818;stroke-width:1.0;" width="10" x="577" y="663.6543"/><polygon fill="#181818" points="379,278.1914,389,282.1914,379,286.1914,383,282.1914" style="stroke:#181818;stroke-width:1.0;"/><line style="stroke:#181818;stroke-width:1.0;" x1="0" x2="385" y1="282.1914" y2="282.1914"/><text fill="#000000" font-family="sans-serif" font-size="13" font-weight="bold" lengthAdjust="spacing" textLength="7" x="7" y="216.4102">1</text><text fill="#000000" font-family="sans-serif" font-size="13" lengthAdjust="spacing" textLength="106" x="18" y="155.8916">PATCH elevators/{</text><text fill="#000000" font-family="sans-serif" font-size="13" lengthAdjust="spacing" textLength="83" x="22" y="173.1826">brand?: brand,</text><text fill="#000000" font-family="sans-serif" font-size="13" lengthAdjust="spacing" textLength="89" x="22" y="190.4736">model?: model,</text><text fill="#000000" font-family="sans-serif" font-size="13" lengthAdjust="spacing" textLength="171" x="22" y="207.7646">serialNumber?: serialNumber,</text><text fill="#000000" font-family="sans-serif" font-size="13" lengthAdjust="spacing" textLength="145" x="22" y="225.0557">description?: description,</text><text fill="#000000" font-family="sans-serif" font-size="13" lengthAdjust="spacing" textLength="350" x="22" y="242.3467">elevatorPosition?: {xposition: xposition, yposition: yposition},</text><text fill="#000000" font-family="sans-serif" font-size="13" lengthAdjust="spacing" textLength="99" x="22" y="259.6377">floors?: [floorIds],</text><text fill="#000000" font-family="sans-serif" font-size="13" lengthAdjust="spacing" textLength="4" x="18" y="276.9287">}</text><polygon fill="#181818" points="565,309.4824,575,313.4824,565,317.4824,569,313.4824" style="stroke:#181818;stroke-width:1.0;"/><line style="stroke:#181818;stroke-width:1.0;" x1="401" x2="571" y1="313.4824" y2="313.4824"/><text fill="#000000" font-family="sans-serif" font-size="13" font-weight="bold" lengthAdjust="spacing" textLength="7" x="408" y="308.2197">2</text><text fill="#000000" font-family="sans-serif" font-size="13" lengthAdjust="spacing" textLength="146" x="419" y="308.2197">find elevator by domain id</text><polygon fill="#181818" points="412,340.7734,402,344.7734,412,348.7734,408,344.7734" style="stroke:#181818;stroke-width:1.0;"/><line style="stroke:#181818;stroke-width:1.0;stroke-dasharray:2.0,2.0;" x1="406" x2="581" y1="344.7734" y2="344.7734"/><text fill="#000000" font-family="sans-serif" font-size="13" font-weight="bold" lengthAdjust="spacing" textLength="7" x="418" y="339.5107">3</text><text fill="#000000" font-family="sans-serif" font-size="13" lengthAdjust="spacing" textLength="4" x="429" y="339.5107">&#160;</text><path d="M3,359.7734 L64,359.7734 L64,369.0645 L54,379.0645 L3,379.0645 L3,359.7734 " fill="#EEEEEE" style="stroke:#000000;stroke-width:1.5;"/><rect fill="none" height="98.5039" style="stroke:#000000;stroke-width:1.5;" width="456" x="3" y="359.7734"/><text fill="#000000" font-family="sans-serif" font-size="13" font-weight="bold" lengthAdjust="spacing" textLength="16" x="18" y="374.8018">alt</text><text fill="#000000" font-family="sans-serif" font-size="11" font-weight="bold" lengthAdjust="spacing" textLength="109" x="79" y="373.6436">[elevator not found]</text><polygon fill="#181818" points="11,398.3555,1,402.3555,11,406.3555,7,402.3555" style="stroke:#181818;stroke-width:1.0;"/><line style="stroke:#181818;stroke-width:1.0;stroke-dasharray:2.0,2.0;" x1="5" x2="390" y1="402.3555" y2="402.3555"/><text fill="#000000" font-family="sans-serif" font-size="13" font-weight="bold" lengthAdjust="spacing" textLength="7" x="17" y="397.0928">4</text><text fill="#000000" font-family="sans-serif" font-size="13" lengthAdjust="spacing" textLength="163" x="28" y="397.0928">Response status code - 404</text><line style="stroke:#000000;stroke-width:1.0;stroke-dasharray:2.0,2.0;" x1="3" x2="459" y1="411.3555" y2="411.3555"/><text fill="#000000" font-family="sans-serif" font-size="11" font-weight="bold" lengthAdjust="spacing" textLength="122" x="8" y="423.2256">[database unavailable]</text><polygon fill="#181818" points="11,446.2773,1,450.2773,11,454.2773,7,450.2773" style="stroke:#181818;stroke-width:1.0;"/><line style="stroke:#181818;stroke-width:1.0;stroke-dasharray:2.0,2.0;" x1="5" x2="390" y1="450.2773" y2="450.2773"/><text fill="#000000" font-family="sans-serif" font-size="13" font-weight="bold" lengthAdjust="spacing" textLength="7" x="17" y="445.0146">5</text><text fill="#000000" font-family="sans-serif" font-size="13" lengthAdjust="spacing" textLength="163" x="28" y="445.0146">Response status code - 503</text><polygon fill="#181818" points="565,484.5684,575,488.5684,565,492.5684,569,488.5684" style="stroke:#181818;stroke-width:1.0;"/><line style="stroke:#181818;stroke-width:1.0;" x1="401" x2="571" y1="488.5684" y2="488.5684"/><text fill="#000000" font-family="sans-serif" font-size="13" font-weight="bold" lengthAdjust="spacing" textLength="7" x="408" y="483.3057">6</text><text fill="#000000" font-family="sans-serif" font-size="13" lengthAdjust="spacing" textLength="108" x="419" y="483.3057">find floor by floor id</text><polygon fill="#181818" points="412,515.8594,402,519.8594,412,523.8594,408,519.8594" style="stroke:#181818;stroke-width:1.0;"/><line style="stroke:#181818;stroke-width:1.0;stroke-dasharray:2.0,2.0;" x1="406" x2="581" y1="519.8594" y2="519.8594"/><text fill="#000000" font-family="sans-serif" font-size="13" font-weight="bold" lengthAdjust="spacing" textLength="7" x="418" y="514.5967">7</text><text fill="#000000" font-family="sans-serif" font-size="13" lengthAdjust="spacing" textLength="4" x="429" y="514.5967">&#160;</text><path d="M3,534.8594 L64,534.8594 L64,544.1504 L54,554.1504 L3,554.1504 L3,534.8594 " fill="#EEEEEE" style="stroke:#000000;stroke-width:1.5;"/><rect fill="none" height="98.5039" style="stroke:#000000;stroke-width:1.5;" width="456" x="3" y="534.8594"/><text fill="#000000" font-family="sans-serif" font-size="13" font-weight="bold" lengthAdjust="spacing" textLength="16" x="18" y="549.8877">alt</text><text fill="#000000" font-family="sans-serif" font-size="11" font-weight="bold" lengthAdjust="spacing" textLength="90" x="79" y="548.7295">[floor not found]</text><polygon fill="#181818" points="11,573.4414,1,577.4414,11,581.4414,7,577.4414" style="stroke:#181818;stroke-width:1.0;"/><line style="stroke:#181818;stroke-width:1.0;stroke-dasharray:2.0,2.0;" x1="5" x2="390" y1="577.4414" y2="577.4414"/><text fill="#000000" font-family="sans-serif" font-size="13" font-weight="bold" lengthAdjust="spacing" textLength="7" x="17" y="572.1787">8</text><text fill="#000000" font-family="sans-serif" font-size="13" lengthAdjust="spacing" textLength="163" x="28" y="572.1787">Response status code - 404</text><line style="stroke:#000000;stroke-width:1.0;stroke-dasharray:2.0,2.0;" x1="3" x2="459" y1="586.4414" y2="586.4414"/><text fill="#000000" font-family="sans-serif" font-size="11" font-weight="bold" lengthAdjust="spacing" textLength="122" x="8" y="598.3115">[database unavailable]</text><polygon fill="#181818" points="11,621.3633,1,625.3633,11,629.3633,7,625.3633" style="stroke:#181818;stroke-width:1.0;"/><line style="stroke:#181818;stroke-width:1.0;stroke-dasharray:2.0,2.0;" x1="5" x2="390" y1="625.3633" y2="625.3633"/><text fill="#000000" font-family="sans-serif" font-size="13" font-weight="bold" lengthAdjust="spacing" textLength="7" x="17" y="620.1006">9</text><text fill="#000000" font-family="sans-serif" font-size="13" lengthAdjust="spacing" textLength="163" x="28" y="620.1006">Response status code - 503</text><polygon fill="#181818" points="565,659.6543,575,663.6543,565,667.6543,569,663.6543" style="stroke:#181818;stroke-width:1.0;"/><line style="stroke:#181818;stroke-width:1.0;" x1="401" x2="571" y1="663.6543" y2="663.6543"/><text fill="#000000" font-family="sans-serif" font-size="13" font-weight="bold" lengthAdjust="spacing" textLength="14" x="408" y="658.3916">10</text><text fill="#000000" font-family="sans-serif" font-size="13" lengthAdjust="spacing" textLength="26" x="426" y="658.3916">save</text><polygon fill="#181818" points="412,690.9453,402,694.9453,412,698.9453,408,694.9453" style="stroke:#181818;stroke-width:1.0;"/><line style="stroke:#181818;stroke-width:1.0;stroke-dasharray:2.0,2.0;" x1="406" x2="581" y1="694.9453" y2="694.9453"/><text fill="#000000" font-family="sans-serif" font-size="13" font-weight="bold" lengthAdjust="spacing" textLength="14" x="418" y="689.6826">11</text><text fill="#000000" font-family="sans-serif" font-size="13" lengthAdjust="spacing" textLength="4" x="436" y="689.6826">&#160;</text><path d="M3,709.9453 L64,709.9453 L64,719.2363 L54,729.2363 L3,729.2363 L3,709.9453 " fill="#EEEEEE" style="stroke:#000000;stroke-width:1.5;"/><rect fill="none" height="98.5039" style="stroke:#000000;stroke-width:1.5;" width="456" x="3" y="709.9453"/><text fill="#000000" font-family="sans-serif" font-size="13" font-weight="bold" lengthAdjust="spacing" textLength="16" x="18" y="724.9736">alt</text><text fill="#000000" font-family="sans-serif" font-size="11" font-weight="bold" lengthAdjust="spacing" textLength="110" x="79" y="723.8154">[elevator persisted]</text><polygon fill="#181818" points="11,748.5273,1,752.5273,11,756.5273,7,752.5273" style="stroke:#181818;stroke-width:1.0;"/><line style="stroke:#181818;stroke-width:1.0;stroke-dasharray:2.0,2.0;" x1="5" x2="390" y1="752.5273" y2="752.5273"/><text fill="#000000" font-family="sans-serif" font-size="13" font-weight="bold" lengthAdjust="spacing" textLength="14" x="17" y="747.2646">12</text><text fill="#000000" font-family="sans-serif" font-size="13" lengthAdjust="spacing" textLength="163" x="35" y="747.2646">Response status code - 200</text><line style="stroke:#000000;stroke-width:1.0;stroke-dasharray:2.0,2.0;" x1="3" x2="459" y1="761.5273" y2="761.5273"/><text fill="#000000" font-family="sans-serif" font-size="11" font-weight="bold" lengthAdjust="spacing" textLength="123" x="8" y="773.3975">[database unaveilable]</text><polygon fill="#181818" points="11,796.4492,1,800.4492,11,804.4492,7,800.4492" style="stroke:#181818;stroke-width:1.0;"/><line style="stroke:#181818;stroke-width:1.0;stroke-dasharray:2.0,2.0;" x1="5" x2="390" y1="800.4492" y2="800.4492"/><text fill="#000000" font-family="sans-serif" font-size="13" font-weight="bold" lengthAdjust="spacing" textLength="14" x="17" y="795.1865">13</text><text fill="#000000" font-family="sans-serif" font-size="13" lengthAdjust="spacing" textLength="163" x="35" y="795.1865">Response status code - 503</text><!--SRC=[nL6nRjj03Dtv5OINB1Pg9EbY60wgoa4o933IRcq7IaS7Xvpk11rbr0Zox-59Zkq6BMftwNJa8nzvxv4w2RwhIsuXFbdVK4irDbGzqID_aOrZRBaI0B6YyS9OmONZDKbe0RHRR6KRyeAZ-s0OSsMoDoEaYFa2PxCgr4tmx6K-1qD29KN6qLtmZm4BpNFD- -uYVzSDsLn7J77vwUld6-JjqlZX-Rl7iYLlhgR3EqP5Qjtk5EdViGAHMqlklfUc-66QoePZrTf6RF1QFSXIyMtPCaIxxNZ-sMoJAUx2CMxsw2vyIIDMBkXdbVYjZsvD_A7m2y3PjVK6omqMeIRhyROu0w1Ah6vK_nO0wfjAB_8fhbBhssSInmmSQmueHGwWvcM3NG26VocHa_q87mHNeVFAHvnbMM_m0qSrNSyIXQIBMAL3PdWvkGHWf_ZkRfsdDLb7fUCZ1doSNEY0j6kd-JfvyNV9lMMfVmXEbJkm_fDM-AEqI6l-nxirt4ORXO_HSZwP_4uBdwxb5G00]--></g></svg>