<?xml version="1.0" encoding="us-ascii" standalone="no"?><svg xmlns="http://www.w3.org/2000/svg" xmlns:xlink="http://www.w3.org/1999/xlink" contentStyleType="text/css" height="820px" preserveAspectRatio="none" style="width:887px;height:820px;background:#FFFFFF;" version="1.1" viewBox="0 0 887 820" width="887px" zoomAndPan="magnify"><defs/><g><text fill="#000000" font-family="sans-serif" font-size="14" font-weight="bold" lengthAdjust="spacing" textLength="109" x="390.75" y="30.1074">Create Building</text><rect fill="#FFFFFF" height="534.2578" style="stroke:#181818;stroke-width:1.0;" width="10" x="666" y="178.4453"/><rect fill="#FFFFFF" height="31.291" style="stroke:#181818;stroke-width:1.0;" width="10" x="824" y="209.7363"/><rect fill="#FFFFFF" height="31.291" style="stroke:#181818;stroke-width:1.0;" width="10" x="824" y="384.8223"/><rect fill="#FFFFFF" height="31.291" style="stroke:#181818;stroke-width:1.0;" width="10" x="824" y="559.9082"/><rect fill="none" height="98.5039" style="stroke:#000000;stroke-width:1.5;" width="731" x="3" y="256.0273"/><rect fill="none" height="98.5039" style="stroke:#000000;stroke-width:1.5;" width="731" x="3" y="431.1133"/><rect fill="none" height="98.5039" style="stroke:#000000;stroke-width:1.5;" width="731" x="3" y="606.1992"/><line style="stroke:#181818;stroke-width:0.5;stroke-dasharray:5.0,5.0;" x1="671" x2="671" y1="127.8633" y2="721.7031"/><line style="stroke:#181818;stroke-width:0.5;stroke-dasharray:5.0,5.0;" x1="828.5" x2="828.5" y1="127.8633" y2="721.7031"/><rect fill="#E2E2F0" height="51.2422" rx="2.5" ry="2.5" style="stroke:#181818;stroke-width:0.5;" width="106" x="618" y="75.6211"/><text fill="#000000" font-family="sans-serif" font-size="14" font-style="italic" lengthAdjust="spacing" textLength="86" x="628" y="97.7285">&#171;component&#187;</text><text fill="#000000" font-family="sans-serif" font-size="14" lengthAdjust="spacing" textLength="92" x="625" y="116.3496">Node Backend</text><rect fill="#E2E2F0" height="51.2422" rx="2.5" ry="2.5" style="stroke:#181818;stroke-width:0.5;" width="106" x="618" y="720.7031"/><text fill="#000000" font-family="sans-serif" font-size="14" font-style="italic" lengthAdjust="spacing" textLength="86" x="628" y="742.8105">&#171;component&#187;</text><text fill="#000000" font-family="sans-serif" font-size="14" lengthAdjust="spacing" textLength="92" x="625" y="761.4316">Node Backend</text><text fill="#000000" font-family="sans-serif" font-size="14" font-style="italic" lengthAdjust="spacing" textLength="86" x="783" y="105.7285">&#171;component&#187;</text><text fill="#000000" font-family="sans-serif" font-size="14" lengthAdjust="spacing" textLength="109" x="771.5" y="124.3496">Mongo DataBase</text><path d="M811,54.6211 C811,44.6211 829,44.6211 829,44.6211 C829,44.6211 847,44.6211 847,54.6211 L847,80.6211 C847,90.6211 829,90.6211 829,90.6211 C829,90.6211 811,90.6211 811,80.6211 L811,54.6211 " fill="#E2E2F0" style="stroke:#181818;stroke-width:1.5;"/><path d="M811,54.6211 C811,64.6211 829,64.6211 829,64.6211 C829,64.6211 847,64.6211 847,54.6211 " fill="none" style="stroke:#181818;stroke-width:1.5;"/><text fill="#000000" font-family="sans-serif" font-size="14" font-style="italic" lengthAdjust="spacing" textLength="86" x="783" y="735.8105">&#171;component&#187;</text><text fill="#000000" font-family="sans-serif" font-size="14" lengthAdjust="spacing" textLength="109" x="771.5" y="754.4316">Mongo DataBase</text><path d="M811,767.9453 C811,757.9453 829,757.9453 829,757.9453 C829,757.9453 847,757.9453 847,767.9453 L847,793.9453 C847,803.9453 829,803.9453 829,803.9453 C829,803.9453 811,803.9453 811,793.9453 L811,767.9453 " fill="#E2E2F0" style="stroke:#181818;stroke-width:1.5;"/><path d="M811,767.9453 C811,777.9453 829,777.9453 829,777.9453 C829,777.9453 847,777.9453 847,767.9453 " fill="none" style="stroke:#181818;stroke-width:1.5;"/><rect fill="#FFFFFF" height="534.2578" style="stroke:#181818;stroke-width:1.0;" width="10" x="666" y="178.4453"/><rect fill="#FFFFFF" height="31.291" style="stroke:#181818;stroke-width:1.0;" width="10" x="824" y="209.7363"/><rect fill="#FFFFFF" height="31.291" style="stroke:#181818;stroke-width:1.0;" width="10" x="824" y="384.8223"/><rect fill="#FFFFFF" height="31.291" style="stroke:#181818;stroke-width:1.0;" width="10" x="824" y="559.9082"/><polygon fill="#181818" points="654,174.4453,664,178.4453,654,182.4453,658,178.4453" style="stroke:#181818;stroke-width:1.0;"/><line style="stroke:#181818;stroke-width:1.0;" x1="0" x2="660" y1="178.4453" y2="178.4453"/><text fill="#000000" font-family="sans-serif" font-size="13" font-weight="bold" lengthAdjust="spacing" textLength="7" x="7" y="164.5371">1</text><text fill="#000000" font-family="sans-serif" font-size="13" lengthAdjust="spacing" textLength="629" x="18" y="155.8916">POST buildings/{domainId?: domainId, buildingName: buildingName,buildingDimensions: buildingDimensions,</text><text fill="#000000" font-family="sans-serif" font-size="13" lengthAdjust="spacing" textLength="394" x="22" y="173.1826">buildingDescription: buildingDescription, buildingCode: buildingCode}</text><polygon fill="#181818" points="812,205.7363,822,209.7363,812,213.7363,816,209.7363" style="stroke:#181818;stroke-width:1.0;"/><line style="stroke:#181818;stroke-width:1.0;" x1="676" x2="818" y1="209.7363" y2="209.7363"/><text fill="#000000" font-family="sans-serif" font-size="13" font-weight="bold" lengthAdjust="spacing" textLength="7" x="683" y="204.4736">2</text><text fill="#000000" font-family="sans-serif" font-size="13" lengthAdjust="spacing" textLength="100" x="694" y="204.4736">find by building Id</text><polygon fill="#181818" points="687,237.0273,677,241.0273,687,245.0273,683,241.0273" style="stroke:#181818;stroke-width:1.0;"/><line style="stroke:#181818;stroke-width:1.0;stroke-dasharray:2.0,2.0;" x1="681" x2="828" y1="241.0273" y2="241.0273"/><text fill="#000000" font-family="sans-serif" font-size="13" font-weight="bold" lengthAdjust="spacing" textLength="7" x="693" y="235.7646">3</text><text fill="#000000" font-family="sans-serif" font-size="13" lengthAdjust="spacing" textLength="4" x="704" y="235.7646">&#160;</text><path d="M3,256.0273 L64,256.0273 L64,265.3184 L54,275.3184 L3,275.3184 L3,256.0273 " fill="#EEEEEE" style="stroke:#000000;stroke-width:1.5;"/><rect fill="none" height="98.5039" style="stroke:#000000;stroke-width:1.5;" width="731" x="3" y="256.0273"/><text fill="#000000" font-family="sans-serif" font-size="13" font-weight="bold" lengthAdjust="spacing" textLength="16" x="18" y="271.0557">alt</text><text fill="#000000" font-family="sans-serif" font-size="11" font-weight="bold" lengthAdjust="spacing" textLength="196" x="79" y="269.8975">[building with that id already exists]</text><polygon fill="#181818" points="11,294.6094,1,298.6094,11,302.6094,7,298.6094" style="stroke:#181818;stroke-width:1.0;"/><line style="stroke:#181818;stroke-width:1.0;stroke-dasharray:2.0,2.0;" x1="5" x2="665" y1="298.6094" y2="298.6094"/><text fill="#000000" font-family="sans-serif" font-size="13" font-weight="bold" lengthAdjust="spacing" textLength="7" x="17" y="293.3467">4</text><text fill="#000000" font-family="sans-serif" font-size="13" lengthAdjust="spacing" textLength="163" x="28" y="293.3467">Response status code - 409</text><line style="stroke:#000000;stroke-width:1.0;stroke-dasharray:2.0,2.0;" x1="3" x2="734" y1="307.6094" y2="307.6094"/><text fill="#000000" font-family="sans-serif" font-size="11" font-weight="bold" lengthAdjust="spacing" textLength="122" x="8" y="319.4795">[database unavailable]</text><polygon fill="#181818" points="11,342.5313,1,346.5313,11,350.5313,7,346.5313" style="stroke:#181818;stroke-width:1.0;"/><line style="stroke:#181818;stroke-width:1.0;stroke-dasharray:2.0,2.0;" x1="5" x2="665" y1="346.5313" y2="346.5313"/><text fill="#000000" font-family="sans-serif" font-size="13" font-weight="bold" lengthAdjust="spacing" textLength="7" x="17" y="341.2686">5</text><text fill="#000000" font-family="sans-serif" font-size="13" lengthAdjust="spacing" textLength="163" x="28" y="341.2686">Response status code - 503</text><polygon fill="#181818" points="812,380.8223,822,384.8223,812,388.8223,816,384.8223" style="stroke:#181818;stroke-width:1.0;"/><line style="stroke:#181818;stroke-width:1.0;" x1="676" x2="818" y1="384.8223" y2="384.8223"/><text fill="#000000" font-family="sans-serif" font-size="13" font-weight="bold" lengthAdjust="spacing" textLength="7" x="683" y="379.5596">6</text><text fill="#000000" font-family="sans-serif" font-size="13" lengthAdjust="spacing" textLength="118" x="694" y="379.5596">find by building code</text><polygon fill="#181818" points="687,412.1133,677,416.1133,687,420.1133,683,416.1133" style="stroke:#181818;stroke-width:1.0;"/><line style="stroke:#181818;stroke-width:1.0;stroke-dasharray:2.0,2.0;" x1="681" x2="828" y1="416.1133" y2="416.1133"/><text fill="#000000" font-family="sans-serif" font-size="13" font-weight="bold" lengthAdjust="spacing" textLength="7" x="693" y="410.8506">7</text><text fill="#000000" font-family="sans-serif" font-size="13" lengthAdjust="spacing" textLength="4" x="704" y="410.8506">&#160;</text><path d="M3,431.1133 L64,431.1133 L64,440.4043 L54,450.4043 L3,450.4043 L3,431.1133 " fill="#EEEEEE" style="stroke:#000000;stroke-width:1.5;"/><rect fill="none" height="98.5039" style="stroke:#000000;stroke-width:1.5;" width="731" x="3" y="431.1133"/><text fill="#000000" font-family="sans-serif" font-size="13" font-weight="bold" lengthAdjust="spacing" textLength="16" x="18" y="446.1416">alt</text><text fill="#000000" font-family="sans-serif" font-size="11" font-weight="bold" lengthAdjust="spacing" textLength="213" x="79" y="444.9834">[building with that code already exists]</text><polygon fill="#181818" points="11,469.6953,1,473.6953,11,477.6953,7,473.6953" style="stroke:#181818;stroke-width:1.0;"/><line style="stroke:#181818;stroke-width:1.0;stroke-dasharray:2.0,2.0;" x1="5" x2="665" y1="473.6953" y2="473.6953"/><text fill="#000000" font-family="sans-serif" font-size="13" font-weight="bold" lengthAdjust="spacing" textLength="7" x="17" y="468.4326">8</text><text fill="#000000" font-family="sans-serif" font-size="13" lengthAdjust="spacing" textLength="163" x="28" y="468.4326">Response status code - 409</text><line style="stroke:#000000;stroke-width:1.0;stroke-dasharray:2.0,2.0;" x1="3" x2="734" y1="482.6953" y2="482.6953"/><text fill="#000000" font-family="sans-serif" font-size="11" font-weight="bold" lengthAdjust="spacing" textLength="122" x="8" y="494.5654">[database unavailable]</text><polygon fill="#181818" points="11,517.6172,1,521.6172,11,525.6172,7,521.6172" style="stroke:#181818;stroke-width:1.0;"/><line style="stroke:#181818;stroke-width:1.0;stroke-dasharray:2.0,2.0;" x1="5" x2="665" y1="521.6172" y2="521.6172"/><text fill="#000000" font-family="sans-serif" font-size="13" font-weight="bold" lengthAdjust="spacing" textLength="7" x="17" y="516.3545">9</text><text fill="#000000" font-family="sans-serif" font-size="13" lengthAdjust="spacing" textLength="163" x="28" y="516.3545">Response status code - 503</text><polygon fill="#181818" points="812,555.9082,822,559.9082,812,563.9082,816,559.9082" style="stroke:#181818;stroke-width:1.0;"/><line style="stroke:#181818;stroke-width:1.0;" x1="676" x2="818" y1="559.9082" y2="559.9082"/><text fill="#000000" font-family="sans-serif" font-size="13" font-weight="bold" lengthAdjust="spacing" textLength="14" x="683" y="554.6455">10</text><text fill="#000000" font-family="sans-serif" font-size="13" lengthAdjust="spacing" textLength="26" x="701" y="554.6455">save</text><polygon fill="#181818" points="687,587.1992,677,591.1992,687,595.1992,683,591.1992" style="stroke:#181818;stroke-width:1.0;"/><line style="stroke:#181818;stroke-width:1.0;stroke-dasharray:2.0,2.0;" x1="681" x2="828" y1="591.1992" y2="591.1992"/><text fill="#000000" font-family="sans-serif" font-size="13" font-weight="bold" lengthAdjust="spacing" textLength="14" x="693" y="585.9365">11</text><text fill="#000000" font-family="sans-serif" font-size="13" lengthAdjust="spacing" textLength="4" x="711" y="585.9365">&#160;</text><path d="M3,606.1992 L64,606.1992 L64,615.4902 L54,625.4902 L3,625.4902 L3,606.1992 " fill="#EEEEEE" style="stroke:#000000;stroke-width:1.5;"/><rect fill="none" height="98.5039" style="stroke:#000000;stroke-width:1.5;" width="731" x="3" y="606.1992"/><text fill="#000000" font-family="sans-serif" font-size="13" font-weight="bold" lengthAdjust="spacing" textLength="16" x="18" y="621.2275">alt</text><text fill="#000000" font-family="sans-serif" font-size="11" font-weight="bold" lengthAdjust="spacing" textLength="109" x="79" y="620.0693">[building persisted]</text><polygon fill="#181818" points="11,644.7813,1,648.7813,11,652.7813,7,648.7813" style="stroke:#181818;stroke-width:1.0;"/><line style="stroke:#181818;stroke-width:1.0;stroke-dasharray:2.0,2.0;" x1="5" x2="665" y1="648.7813" y2="648.7813"/><text fill="#000000" font-family="sans-serif" font-size="13" font-weight="bold" lengthAdjust="spacing" textLength="14" x="17" y="643.5186">12</text><text fill="#000000" font-family="sans-serif" font-size="13" lengthAdjust="spacing" textLength="163" x="35" y="643.5186">Response status code - 201</text><line style="stroke:#000000;stroke-width:1.0;stroke-dasharray:2.0,2.0;" x1="3" x2="734" y1="657.7813" y2="657.7813"/><text fill="#000000" font-family="sans-serif" font-size="11" font-weight="bold" lengthAdjust="spacing" textLength="122" x="8" y="669.6514">[database unavailable]</text><polygon fill="#181818" points="11,692.7031,1,696.7031,11,700.7031,7,696.7031" style="stroke:#181818;stroke-width:1.0;"/><line style="stroke:#181818;stroke-width:1.0;stroke-dasharray:2.0,2.0;" x1="5" x2="665" y1="696.7031" y2="696.7031"/><text fill="#000000" font-family="sans-serif" font-size="13" font-weight="bold" lengthAdjust="spacing" textLength="14" x="17" y="691.4404">13</text><text fill="#000000" font-family="sans-serif" font-size="13" lengthAdjust="spacing" textLength="163" x="35" y="691.4404">Response status code - 503</text><!--SRC=[nP8zJyD038Pt_mghIvT6bA-1g2fI6f0wy25WP75ofZsHNAASKwWG_nqt498Y19KOsCxsUpu_huzgALoT9ro1VxIkf8foB2bzf0NVoZfZh3WL0B6Yvrd598nHRJDZtG90zM9JMv8J75mMHcjwbvqP87cCpd0oIOkyB1mxcKx1a512dd5mKRX5WR76aSQDEew-g26OQeiGhwzkxp3vUDFllPWY9-lcvZJ4zZZwh5zIpk5MD6g3sERil2sSxmHTRdJlkYpxjBAbQ3xyBjazDrFcS2jw1HYUMsSmMMFSZ8VpU0YKYbqrvfs1-g9eSHJYmuUmRO1pqodZ2DIJuDq5CDml06NItNgoiaHPag0rI9bkoQoHdwqN3uYJ86Xyl66ltghxNaXgZ-bcNm4UZK-0Cqr_RgTsj2ARKPBnxzUFnuUW2-zHjzy3DtRiJBvfzpVsPg3_ej_2x75wMZ5iSVN1VYGhkV8AmThzrpaEnllm0yTk80t96m00]--></g></svg>