<?xml version="1.0" encoding="us-ascii" standalone="no"?><svg xmlns="http://www.w3.org/2000/svg" xmlns:xlink="http://www.w3.org/1999/xlink" contentStyleType="text/css" height="792px" preserveAspectRatio="none" style="width:586px;height:792px;background:#FFFFFF;" version="1.1" viewBox="0 0 586 792" width="586px" zoomAndPan="magnify"><defs/><g><text fill="#000000" font-family="sans-serif" font-size="14" font-weight="bold" lengthAdjust="spacing" textLength="136" x="221.5" y="30.1074">List Task Sequence</text><rect fill="#FFFFFF" height="522.9473" style="stroke:#181818;stroke-width:1.0;" width="10" x="288" y="161.1543"/><rect fill="#FFFFFF" height="31.291" style="stroke:#181818;stroke-width:1.0;" width="10" x="428" y="247.0273"/><rect fill="#FFFFFF" height="31.291" style="stroke:#181818;stroke-width:1.0;" width="10" x="428" y="598.5195"/><rect fill="none" height="50.582" style="stroke:#000000;stroke-width:1.5;" width="353" x="3" y="293.3184"/><rect fill="none" height="232.3281" style="stroke:#000000;stroke-width:1.5;" width="399" x="171" y="412.4824"/><rect fill="none" height="81.873" style="stroke:#000000;stroke-width:1.5;" width="270.5" x="230" y="555.9375"/><line style="stroke:#181818;stroke-width:0.5;stroke-dasharray:5.0,5.0;" x1="293" x2="293" y1="127.8633" y2="693.1016"/><line style="stroke:#181818;stroke-width:0.5;stroke-dasharray:5.0,5.0;" x1="432.5" x2="432.5" y1="127.8633" y2="693.1016"/><rect fill="#E2E2F0" height="51.2422" rx="2.5" ry="2.5" style="stroke:#181818;stroke-width:0.5;" width="106" x="240" y="75.6211"/><text fill="#000000" font-family="sans-serif" font-size="14" font-style="italic" lengthAdjust="spacing" textLength="86" x="250" y="97.7285">&#171;component&#187;</text><text fill="#000000" font-family="sans-serif" font-size="14" lengthAdjust="spacing" textLength="92" x="247" y="116.3496">Node Backend</text><rect fill="#E2E2F0" height="51.2422" rx="2.5" ry="2.5" style="stroke:#181818;stroke-width:0.5;" width="106" x="240" y="692.1016"/><text fill="#000000" font-family="sans-serif" font-size="14" font-style="italic" lengthAdjust="spacing" textLength="86" x="250" y="714.209">&#171;component&#187;</text><text fill="#000000" font-family="sans-serif" font-size="14" lengthAdjust="spacing" textLength="92" x="247" y="732.8301">Node Backend</text><text fill="#000000" font-family="sans-serif" font-size="14" font-style="italic" lengthAdjust="spacing" textLength="86" x="387" y="105.7285">&#171;component&#187;</text><text fill="#000000" font-family="sans-serif" font-size="14" lengthAdjust="spacing" textLength="109" x="375.5" y="124.3496">Mongo DataBase</text><path d="M415,54.6211 C415,44.6211 433,44.6211 433,44.6211 C433,44.6211 451,44.6211 451,54.6211 L451,80.6211 C451,90.6211 433,90.6211 433,90.6211 C433,90.6211 415,90.6211 415,80.6211 L415,54.6211 " fill="#E2E2F0" style="stroke:#181818;stroke-width:1.5;"/><path d="M415,54.6211 C415,64.6211 433,64.6211 433,64.6211 C433,64.6211 451,64.6211 451,54.6211 " fill="none" style="stroke:#181818;stroke-width:1.5;"/><text fill="#000000" font-family="sans-serif" font-size="14" font-style="italic" lengthAdjust="spacing" textLength="86" x="387" y="707.209">&#171;component&#187;</text><text fill="#000000" font-family="sans-serif" font-size="14" lengthAdjust="spacing" textLength="109" x="375.5" y="725.8301">Mongo DataBase</text><path d="M415,739.3438 C415,729.3438 433,729.3438 433,729.3438 C433,729.3438 451,729.3438 451,739.3438 L451,765.3438 C451,775.3438 433,775.3438 433,775.3438 C433,775.3438 415,775.3438 415,765.3438 L415,739.3438 " fill="#E2E2F0" style="stroke:#181818;stroke-width:1.5;"/><path d="M415,739.3438 C415,749.3438 433,749.3438 433,749.3438 C433,749.3438 451,749.3438 451,739.3438 " fill="none" style="stroke:#181818;stroke-width:1.5;"/><rect fill="#FFFFFF" height="522.9473" style="stroke:#181818;stroke-width:1.0;" width="10" x="288" y="161.1543"/><rect fill="#FFFFFF" height="31.291" style="stroke:#181818;stroke-width:1.0;" width="10" x="428" y="247.0273"/><rect fill="#FFFFFF" height="31.291" style="stroke:#181818;stroke-width:1.0;" width="10" x="428" y="598.5195"/><polygon fill="#181818" points="276,157.1543,286,161.1543,276,165.1543,280,161.1543" style="stroke:#181818;stroke-width:1.0;"/><line style="stroke:#181818;stroke-width:1.0;" x1="0" x2="282" y1="161.1543" y2="161.1543"/><text fill="#000000" font-family="sans-serif" font-size="13" font-weight="bold" lengthAdjust="spacing" textLength="7" x="7" y="155.8916">1</text><text fill="#000000" font-family="sans-serif" font-size="13" lengthAdjust="spacing" textLength="251" x="18" y="155.8916">GET tasks/sequence?algorithm={algorithm}</text><path d="M195,174.1543 L195,218.1543 L391,218.1543 L391,184.1543 L381,174.1543 L195,174.1543 " fill="#FEFFDD" style="stroke:#181818;stroke-width:0.5;"/><path d="M381,174.1543 L381,184.1543 L391,184.1543 L381,174.1543 " fill="#FEFFDD" style="stroke:#181818;stroke-width:0.5;"/><text fill="#000000" font-family="sans-serif" font-size="13" lengthAdjust="spacing" textLength="136" x="201" y="193.1826">'algorithm' can either be</text><text fill="#000000" font-family="sans-serif" font-size="13" lengthAdjust="spacing" textLength="175" x="201" y="210.4736">'PERMUTATION' or 'GENETIC'</text><polygon fill="#181818" points="416,243.0273,426,247.0273,416,251.0273,420,247.0273" style="stroke:#181818;stroke-width:1.0;"/><line style="stroke:#181818;stroke-width:1.0;" x1="298" x2="422" y1="247.0273" y2="247.0273"/><text fill="#000000" font-family="sans-serif" font-size="13" font-weight="bold" lengthAdjust="spacing" textLength="7" x="305" y="241.7646">2</text><text fill="#000000" font-family="sans-serif" font-size="13" lengthAdjust="spacing" textLength="100" x="316" y="241.7646">find by task state</text><polygon fill="#181818" points="309,274.3184,299,278.3184,309,282.3184,305,278.3184" style="stroke:#181818;stroke-width:1.0;"/><line style="stroke:#181818;stroke-width:1.0;stroke-dasharray:2.0,2.0;" x1="303" x2="432" y1="278.3184" y2="278.3184"/><text fill="#000000" font-family="sans-serif" font-size="13" font-weight="bold" lengthAdjust="spacing" textLength="7" x="315" y="273.0557">3</text><text fill="#000000" font-family="sans-serif" font-size="13" lengthAdjust="spacing" textLength="4" x="326" y="273.0557">&#160;</text><path d="M3,293.3184 L64,293.3184 L64,302.6094 L54,312.6094 L3,312.6094 L3,293.3184 " fill="#EEEEEE" style="stroke:#000000;stroke-width:1.5;"/><rect fill="none" height="50.582" style="stroke:#000000;stroke-width:1.5;" width="353" x="3" y="293.3184"/><text fill="#000000" font-family="sans-serif" font-size="13" font-weight="bold" lengthAdjust="spacing" textLength="16" x="18" y="308.3467">alt</text><text fill="#000000" font-family="sans-serif" font-size="11" font-weight="bold" lengthAdjust="spacing" textLength="176" x="79" y="307.1885">[unsuccessful - no tasks found]</text><polygon fill="#181818" points="11,331.9004,1,335.9004,11,339.9004,7,335.9004" style="stroke:#181818;stroke-width:1.0;"/><line style="stroke:#181818;stroke-width:1.0;stroke-dasharray:2.0,2.0;" x1="5" x2="287" y1="335.9004" y2="335.9004"/><text fill="#000000" font-family="sans-serif" font-size="13" font-weight="bold" lengthAdjust="spacing" textLength="7" x="17" y="330.6377">4</text><text fill="#000000" font-family="sans-serif" font-size="13" lengthAdjust="spacing" textLength="163" x="28" y="330.6377">Response status code - 400</text><path d="M212,355.9004 L212,399.9004 L374,399.9004 L374,365.9004 L364,355.9004 L212,355.9004 " fill="#FEFFDD" style="stroke:#181818;stroke-width:0.5;"/><path d="M364,355.9004 L364,365.9004 L374,365.9004 L364,355.9004 " fill="#FEFFDD" style="stroke:#181818;stroke-width:0.5;"/><text fill="#000000" font-family="sans-serif" font-size="13" lengthAdjust="spacing" textLength="137" x="218" y="374.9287">For each task in the list</text><text fill="#000000" font-family="sans-serif" font-size="13" lengthAdjust="spacing" textLength="133" x="218" y="392.2197">pick unique robisep ids</text><path d="M171,412.4824 L244,412.4824 L244,421.7734 L234,431.7734 L171,431.7734 L171,412.4824 " fill="#EEEEEE" style="stroke:#000000;stroke-width:1.5;"/><rect fill="none" height="232.3281" style="stroke:#000000;stroke-width:1.5;" width="399" x="171" y="412.4824"/><text fill="#000000" font-family="sans-serif" font-size="13" font-weight="bold" lengthAdjust="spacing" textLength="28" x="186" y="427.5107">loop</text><text fill="#000000" font-family="sans-serif" font-size="11" font-weight="bold" lengthAdjust="spacing" textLength="153" x="259" y="426.3525">[for each unique robisep id]</text><polygon fill="#181818" points="568,451.0645,578,455.0645,568,459.0645,572,455.0645" style="stroke:#181818;stroke-width:1.0;"/><line style="stroke:#181818;stroke-width:1.0;" x1="298" x2="574" y1="455.0645" y2="455.0645"/><text fill="#000000" font-family="sans-serif" font-size="13" font-weight="bold" lengthAdjust="spacing" textLength="7" x="305" y="449.8018">5</text><text fill="#000000" font-family="sans-serif" font-size="13" lengthAdjust="spacing" textLength="240" x="316" y="449.8018">GET taskSequence?robisepId={robisepId}</text><polygon fill="#181818" points="309,482.3555,299,486.3555,309,490.3555,305,486.3555" style="stroke:#181818;stroke-width:1.0;"/><line style="stroke:#181818;stroke-width:1.0;stroke-dasharray:2.0,2.0;" x1="303" x2="579" y1="486.3555" y2="486.3555"/><text fill="#000000" font-family="sans-serif" font-size="13" font-weight="bold" lengthAdjust="spacing" textLength="7" x="315" y="481.0928">6</text><text fill="#000000" font-family="sans-serif" font-size="13" lengthAdjust="spacing" textLength="163" x="326" y="481.0928">Response status code - 200</text><path d="M181,499.3555 L181,543.3555 L404,543.3555 L404,509.3555 L394,499.3555 L181,499.3555 " fill="#FEFFDD" style="stroke:#181818;stroke-width:0.5;"/><path d="M394,499.3555 L394,509.3555 L404,509.3555 L394,499.3555 " fill="#FEFFDD" style="stroke:#181818;stroke-width:0.5;"/><text fill="#000000" font-family="sans-serif" font-size="13" lengthAdjust="spacing" textLength="198" x="187" y="518.3838">Alter tasks corresponding for each</text><text fill="#000000" font-family="sans-serif" font-size="13" lengthAdjust="spacing" textLength="140" x="187" y="535.6748">robisep id to 'PLANNED'</text><path d="M230,555.9375 L303,555.9375 L303,565.2285 L293,575.2285 L230,575.2285 L230,555.9375 " fill="#EEEEEE" style="stroke:#000000;stroke-width:1.5;"/><rect fill="none" height="81.873" style="stroke:#000000;stroke-width:1.5;" width="270.5" x="230" y="555.9375"/><text fill="#000000" font-family="sans-serif" font-size="13" font-weight="bold" lengthAdjust="spacing" textLength="28" x="245" y="570.9658">loop</text><text fill="#000000" font-family="sans-serif" font-size="11" font-weight="bold" lengthAdjust="spacing" textLength="134" x="318" y="569.8076">[for each task in the list]</text><polygon fill="#181818" points="416,594.5195,426,598.5195,416,602.5195,420,598.5195" style="stroke:#181818;stroke-width:1.0;"/><line style="stroke:#181818;stroke-width:1.0;" x1="298" x2="422" y1="598.5195" y2="598.5195"/><text fill="#000000" font-family="sans-serif" font-size="13" font-weight="bold" lengthAdjust="spacing" textLength="7" x="305" y="593.2568">7</text><text fill="#000000" font-family="sans-serif" font-size="13" lengthAdjust="spacing" textLength="39" x="316" y="593.2568">update</text><polygon fill="#181818" points="309,625.8105,299,629.8105,309,633.8105,305,629.8105" style="stroke:#181818;stroke-width:1.0;"/><line style="stroke:#181818;stroke-width:1.0;stroke-dasharray:2.0,2.0;" x1="303" x2="432" y1="629.8105" y2="629.8105"/><text fill="#000000" font-family="sans-serif" font-size="13" font-weight="bold" lengthAdjust="spacing" textLength="7" x="315" y="624.5479">8</text><text fill="#000000" font-family="sans-serif" font-size="13" lengthAdjust="spacing" textLength="4" x="326" y="624.5479">&#160;</text><polygon fill="#181818" points="11,671.1016,1,675.1016,11,679.1016,7,675.1016" style="stroke:#181818;stroke-width:1.0;"/><line style="stroke:#181818;stroke-width:1.0;stroke-dasharray:2.0,2.0;" x1="5" x2="287" y1="675.1016" y2="675.1016"/><text fill="#000000" font-family="sans-serif" font-size="13" font-weight="bold" lengthAdjust="spacing" textLength="7" x="17" y="669.8389">9</text><text fill="#000000" font-family="sans-serif" font-size="13" lengthAdjust="spacing" textLength="163" x="28" y="669.8389">Response status code - 200</text><!--SRC=[ZL7BRjim4BplLonyuKbeKFHaE0wiIWaC96eGgpTVA7Bj49P9LIG3147-lKjPzQieqDiGEykTXup1sRXlg0U_CxQJlTnZ9zLERcaLtbl2dbG022OmVZG-O2tz3bVqAv9L1C0hmIZJIHjmKZbDcFCwMJr1wJ4lSJPJRjyvIpRCvw1ba8tqX9CdPxSE2txd_1xOHNx5XcpENqpneQmny5t_nO-7xsIxTRq9h_lRZoFy1B0k4BetweSzSHm9LD8YCUHHGxYsuhbyUVfPB-hbZqgWwr4yb5LPBxyB075lhCRc7LT11X8WLJ1lZFXJO4kigiYdk1b9IHdwn3mHYnpOJNRG3vhE1o3RWD7wg1HvluajPcZTmI1kNBGQO9PbARmflf3dE3YmT21wL2dY3B_Tt01GObuwlcSZVEpr8CfOPCFOfjxMjZDgntSD9uYzQuod3ets0Arp7HyUD_zYmEZvrCEV-kz6qbBVVXpXvy1F1lwf_cjIVobyqGP6XmoKw_jXKHkxFGbRsvCc30x5y-EYgif2N3kuzWvdfSLEfw8kcZglwhgh8MFwdqgIgTy0]--></g></svg>