<?xml version="1.0" encoding="us-ascii" standalone="no"?><svg xmlns="http://www.w3.org/2000/svg" xmlns:xlink="http://www.w3.org/1999/xlink" contentStyleType="text/css" height="820px" preserveAspectRatio="none" style="width:664px;height:820px;background:#FFFFFF;" version="1.1" viewBox="0 0 664 820" width="664px" zoomAndPan="magnify"><defs/><g><text fill="#000000" font-family="sans-serif" font-size="14" font-weight="bold" lengthAdjust="spacing" textLength="181" x="243.25" y="30.1074">Edit Floor/Load Floor Plan</text><rect fill="#FFFFFF" height="534.2578" style="stroke:#181818;stroke-width:1.0;" width="10" x="361" y="178.4453"/><rect fill="#FFFFFF" height="31.291" style="stroke:#181818;stroke-width:1.0;" width="10" x="601" y="209.7363"/><rect fill="#FFFFFF" height="31.291" style="stroke:#181818;stroke-width:1.0;" width="10" x="601" y="384.8223"/><rect fill="#FFFFFF" height="31.291" style="stroke:#181818;stroke-width:1.0;" width="10" x="601" y="559.9082"/><rect fill="none" height="98.5039" style="stroke:#000000;stroke-width:1.5;" width="426" x="3" y="256.0273"/><rect fill="none" height="98.5039" style="stroke:#000000;stroke-width:1.5;" width="426" x="3" y="431.1133"/><rect fill="none" height="98.5039" style="stroke:#000000;stroke-width:1.5;" width="426" x="3" y="606.1992"/><line style="stroke:#181818;stroke-width:0.5;stroke-dasharray:5.0,5.0;" x1="366" x2="366" y1="127.8633" y2="721.7031"/><line style="stroke:#181818;stroke-width:0.5;stroke-dasharray:5.0,5.0;" x1="605.5" x2="605.5" y1="127.8633" y2="721.7031"/><rect fill="#E2E2F0" height="51.2422" rx="2.5" ry="2.5" style="stroke:#181818;stroke-width:0.5;" width="106" x="313" y="75.6211"/><text fill="#000000" font-family="sans-serif" font-size="14" font-style="italic" lengthAdjust="spacing" textLength="86" x="323" y="97.7285">&#171;component&#187;</text><text fill="#000000" font-family="sans-serif" font-size="14" lengthAdjust="spacing" textLength="92" x="320" y="116.3496">Node Backend</text><rect fill="#E2E2F0" height="51.2422" rx="2.5" ry="2.5" style="stroke:#181818;stroke-width:0.5;" width="106" x="313" y="720.7031"/><text fill="#000000" font-family="sans-serif" font-size="14" font-style="italic" lengthAdjust="spacing" textLength="86" x="323" y="742.8105">&#171;component&#187;</text><text fill="#000000" font-family="sans-serif" font-size="14" lengthAdjust="spacing" textLength="92" x="320" y="761.4316">Node Backend</text><text fill="#000000" font-family="sans-serif" font-size="14" font-style="italic" lengthAdjust="spacing" textLength="86" x="560" y="105.7285">&#171;component&#187;</text><text fill="#000000" font-family="sans-serif" font-size="14" lengthAdjust="spacing" textLength="109" x="548.5" y="124.3496">Mongo DataBase</text><path d="M588,54.6211 C588,44.6211 606,44.6211 606,44.6211 C606,44.6211 624,44.6211 624,54.6211 L624,80.6211 C624,90.6211 606,90.6211 606,90.6211 C606,90.6211 588,90.6211 588,80.6211 L588,54.6211 " fill="#E2E2F0" style="stroke:#181818;stroke-width:1.5;"/><path d="M588,54.6211 C588,64.6211 606,64.6211 606,64.6211 C606,64.6211 624,64.6211 624,54.6211 " fill="none" style="stroke:#181818;stroke-width:1.5;"/><text fill="#000000" font-family="sans-serif" font-size="14" font-style="italic" lengthAdjust="spacing" textLength="86" x="560" y="735.8105">&#171;component&#187;</text><text fill="#000000" font-family="sans-serif" font-size="14" lengthAdjust="spacing" textLength="109" x="548.5" y="754.4316">Mongo DataBase</text><path d="M588,767.9453 C588,757.9453 606,757.9453 606,757.9453 C606,757.9453 624,757.9453 624,767.9453 L624,793.9453 C624,803.9453 606,803.9453 606,803.9453 C606,803.9453 588,803.9453 588,793.9453 L588,767.9453 " fill="#E2E2F0" style="stroke:#181818;stroke-width:1.5;"/><path d="M588,767.9453 C588,777.9453 606,777.9453 606,777.9453 C606,777.9453 624,777.9453 624,767.9453 " fill="none" style="stroke:#181818;stroke-width:1.5;"/><rect fill="#FFFFFF" height="534.2578" style="stroke:#181818;stroke-width:1.0;" width="10" x="361" y="178.4453"/><rect fill="#FFFFFF" height="31.291" style="stroke:#181818;stroke-width:1.0;" width="10" x="601" y="209.7363"/><rect fill="#FFFFFF" height="31.291" style="stroke:#181818;stroke-width:1.0;" width="10" x="601" y="384.8223"/><rect fill="#FFFFFF" height="31.291" style="stroke:#181818;stroke-width:1.0;" width="10" x="601" y="559.9082"/><polygon fill="#181818" points="349,174.4453,359,178.4453,349,182.4453,353,178.4453" style="stroke:#181818;stroke-width:1.0;"/><line style="stroke:#181818;stroke-width:1.0;" x1="0" x2="355" y1="178.4453" y2="178.4453"/><text fill="#000000" font-family="sans-serif" font-size="13" font-weight="bold" lengthAdjust="spacing" textLength="7" x="7" y="164.5371">1</text><text fill="#000000" font-family="sans-serif" font-size="13" lengthAdjust="spacing" textLength="243" x="18" y="155.8916">PATCH floors/{floorNumber?: floorNumber,</text><text fill="#000000" font-family="sans-serif" font-size="13" lengthAdjust="spacing" textLength="320" x="22" y="173.1826">floorDescription?: floorDescription, floorPlan?: floorPlan}</text><polygon fill="#181818" points="589,205.7363,599,209.7363,589,213.7363,593,209.7363" style="stroke:#181818;stroke-width:1.0;"/><line style="stroke:#181818;stroke-width:1.0;" x1="371" x2="595" y1="209.7363" y2="209.7363"/><text fill="#000000" font-family="sans-serif" font-size="13" font-weight="bold" lengthAdjust="spacing" textLength="7" x="378" y="204.4736">2</text><text fill="#000000" font-family="sans-serif" font-size="13" lengthAdjust="spacing" textLength="80" x="389" y="204.4736">find by floor id</text><polygon fill="#181818" points="382,237.0273,372,241.0273,382,245.0273,378,241.0273" style="stroke:#181818;stroke-width:1.0;"/><line style="stroke:#181818;stroke-width:1.0;stroke-dasharray:2.0,2.0;" x1="376" x2="605" y1="241.0273" y2="241.0273"/><text fill="#000000" font-family="sans-serif" font-size="13" font-weight="bold" lengthAdjust="spacing" textLength="7" x="388" y="235.7646">3</text><text fill="#000000" font-family="sans-serif" font-size="13" lengthAdjust="spacing" textLength="4" x="399" y="235.7646">&#160;</text><path d="M3,256.0273 L64,256.0273 L64,265.3184 L54,275.3184 L3,275.3184 L3,256.0273 " fill="#EEEEEE" style="stroke:#000000;stroke-width:1.5;"/><rect fill="none" height="98.5039" style="stroke:#000000;stroke-width:1.5;" width="426" x="3" y="256.0273"/><text fill="#000000" font-family="sans-serif" font-size="13" font-weight="bold" lengthAdjust="spacing" textLength="16" x="18" y="271.0557">alt</text><text fill="#000000" font-family="sans-serif" font-size="11" font-weight="bold" lengthAdjust="spacing" textLength="90" x="79" y="269.8975">[floor not found]</text><polygon fill="#181818" points="11,294.6094,1,298.6094,11,302.6094,7,298.6094" style="stroke:#181818;stroke-width:1.0;"/><line style="stroke:#181818;stroke-width:1.0;stroke-dasharray:2.0,2.0;" x1="5" x2="360" y1="298.6094" y2="298.6094"/><text fill="#000000" font-family="sans-serif" font-size="13" font-weight="bold" lengthAdjust="spacing" textLength="7" x="17" y="293.3467">4</text><text fill="#000000" font-family="sans-serif" font-size="13" lengthAdjust="spacing" textLength="163" x="28" y="293.3467">Response status code - 404</text><line style="stroke:#000000;stroke-width:1.0;stroke-dasharray:2.0,2.0;" x1="3" x2="429" y1="307.6094" y2="307.6094"/><text fill="#000000" font-family="sans-serif" font-size="11" font-weight="bold" lengthAdjust="spacing" textLength="122" x="8" y="319.4795">[database unavailable]</text><polygon fill="#181818" points="11,342.5313,1,346.5313,11,350.5313,7,346.5313" style="stroke:#181818;stroke-width:1.0;"/><line style="stroke:#181818;stroke-width:1.0;stroke-dasharray:2.0,2.0;" x1="5" x2="360" y1="346.5313" y2="346.5313"/><text fill="#000000" font-family="sans-serif" font-size="13" font-weight="bold" lengthAdjust="spacing" textLength="7" x="17" y="341.2686">5</text><text fill="#000000" font-family="sans-serif" font-size="13" lengthAdjust="spacing" textLength="163" x="28" y="341.2686">Response status code - 503</text><polygon fill="#181818" points="589,380.8223,599,384.8223,589,388.8223,593,384.8223" style="stroke:#181818;stroke-width:1.0;"/><line style="stroke:#181818;stroke-width:1.0;" x1="371" x2="595" y1="384.8223" y2="384.8223"/><text fill="#000000" font-family="sans-serif" font-size="13" font-weight="bold" lengthAdjust="spacing" textLength="7" x="378" y="379.5596">6</text><text fill="#000000" font-family="sans-serif" font-size="13" lengthAdjust="spacing" textLength="200" x="389" y="379.5596">find by floor number and building id</text><polygon fill="#181818" points="382,412.1133,372,416.1133,382,420.1133,378,416.1133" style="stroke:#181818;stroke-width:1.0;"/><line style="stroke:#181818;stroke-width:1.0;stroke-dasharray:2.0,2.0;" x1="376" x2="605" y1="416.1133" y2="416.1133"/><text fill="#000000" font-family="sans-serif" font-size="13" font-weight="bold" lengthAdjust="spacing" textLength="7" x="388" y="410.8506">7</text><text fill="#000000" font-family="sans-serif" font-size="13" lengthAdjust="spacing" textLength="4" x="399" y="410.8506">&#160;</text><path d="M3,431.1133 L64,431.1133 L64,440.4043 L54,450.4043 L3,450.4043 L3,431.1133 " fill="#EEEEEE" style="stroke:#000000;stroke-width:1.5;"/><rect fill="none" height="98.5039" style="stroke:#000000;stroke-width:1.5;" width="426" x="3" y="431.1133"/><text fill="#000000" font-family="sans-serif" font-size="13" font-weight="bold" lengthAdjust="spacing" textLength="16" x="18" y="446.1416">alt</text><text fill="#000000" font-family="sans-serif" font-size="11" font-weight="bold" lengthAdjust="spacing" textLength="114" x="79" y="444.9834">[floor already exists]</text><polygon fill="#181818" points="11,469.6953,1,473.6953,11,477.6953,7,473.6953" style="stroke:#181818;stroke-width:1.0;"/><line style="stroke:#181818;stroke-width:1.0;stroke-dasharray:2.0,2.0;" x1="5" x2="360" y1="473.6953" y2="473.6953"/><text fill="#000000" font-family="sans-serif" font-size="13" font-weight="bold" lengthAdjust="spacing" textLength="7" x="17" y="468.4326">8</text><text fill="#000000" font-family="sans-serif" font-size="13" lengthAdjust="spacing" textLength="163" x="28" y="468.4326">Response status code - 409</text><line style="stroke:#000000;stroke-width:1.0;stroke-dasharray:2.0,2.0;" x1="3" x2="429" y1="482.6953" y2="482.6953"/><text fill="#000000" font-family="sans-serif" font-size="11" font-weight="bold" lengthAdjust="spacing" textLength="122" x="8" y="494.5654">[database unavailable]</text><polygon fill="#181818" points="11,517.6172,1,521.6172,11,525.6172,7,521.6172" style="stroke:#181818;stroke-width:1.0;"/><line style="stroke:#181818;stroke-width:1.0;stroke-dasharray:2.0,2.0;" x1="5" x2="360" y1="521.6172" y2="521.6172"/><text fill="#000000" font-family="sans-serif" font-size="13" font-weight="bold" lengthAdjust="spacing" textLength="7" x="17" y="516.3545">9</text><text fill="#000000" font-family="sans-serif" font-size="13" lengthAdjust="spacing" textLength="163" x="28" y="516.3545">Response status code - 503</text><polygon fill="#181818" points="589,555.9082,599,559.9082,589,563.9082,593,559.9082" style="stroke:#181818;stroke-width:1.0;"/><line style="stroke:#181818;stroke-width:1.0;" x1="371" x2="595" y1="559.9082" y2="559.9082"/><text fill="#000000" font-family="sans-serif" font-size="13" font-weight="bold" lengthAdjust="spacing" textLength="14" x="378" y="554.6455">10</text><text fill="#000000" font-family="sans-serif" font-size="13" lengthAdjust="spacing" textLength="26" x="396" y="554.6455">save</text><polygon fill="#181818" points="382,587.1992,372,591.1992,382,595.1992,378,591.1992" style="stroke:#181818;stroke-width:1.0;"/><line style="stroke:#181818;stroke-width:1.0;stroke-dasharray:2.0,2.0;" x1="376" x2="605" y1="591.1992" y2="591.1992"/><text fill="#000000" font-family="sans-serif" font-size="13" font-weight="bold" lengthAdjust="spacing" textLength="14" x="388" y="585.9365">11</text><text fill="#000000" font-family="sans-serif" font-size="13" lengthAdjust="spacing" textLength="4" x="406" y="585.9365">&#160;</text><path d="M3,606.1992 L64,606.1992 L64,615.4902 L54,625.4902 L3,625.4902 L3,606.1992 " fill="#EEEEEE" style="stroke:#000000;stroke-width:1.5;"/><rect fill="none" height="98.5039" style="stroke:#000000;stroke-width:1.5;" width="426" x="3" y="606.1992"/><text fill="#000000" font-family="sans-serif" font-size="13" font-weight="bold" lengthAdjust="spacing" textLength="16" x="18" y="621.2275">alt</text><text fill="#000000" font-family="sans-serif" font-size="11" font-weight="bold" lengthAdjust="spacing" textLength="91" x="79" y="620.0693">[floor persisted]</text><polygon fill="#181818" points="11,644.7813,1,648.7813,11,652.7813,7,648.7813" style="stroke:#181818;stroke-width:1.0;"/><line style="stroke:#181818;stroke-width:1.0;stroke-dasharray:2.0,2.0;" x1="5" x2="360" y1="648.7813" y2="648.7813"/><text fill="#000000" font-family="sans-serif" font-size="13" font-weight="bold" lengthAdjust="spacing" textLength="14" x="17" y="643.5186">12</text><text fill="#000000" font-family="sans-serif" font-size="13" lengthAdjust="spacing" textLength="163" x="35" y="643.5186">Response status code - 200</text><line style="stroke:#000000;stroke-width:1.0;stroke-dasharray:2.0,2.0;" x1="3" x2="429" y1="657.7813" y2="657.7813"/><text fill="#000000" font-family="sans-serif" font-size="11" font-weight="bold" lengthAdjust="spacing" textLength="122" x="8" y="669.6514">[database unavailable]</text><polygon fill="#181818" points="11,692.7031,1,696.7031,11,700.7031,7,696.7031" style="stroke:#181818;stroke-width:1.0;"/><line style="stroke:#181818;stroke-width:1.0;stroke-dasharray:2.0,2.0;" x1="5" x2="360" y1="696.7031" y2="696.7031"/><text fill="#000000" font-family="sans-serif" font-size="13" font-weight="bold" lengthAdjust="spacing" textLength="14" x="17" y="691.4404">13</text><text fill="#000000" font-family="sans-serif" font-size="13" lengthAdjust="spacing" textLength="163" x="35" y="691.4404">Response status code - 503</text><!--SRC=[hP9DIyD048Rlyok6NdffCFXnK4gbCHK55L6FNYRPiIpTxeRif5Z4_-uaQQKAGXLFcPcTTtQUTqED1Dyi2wuXBgolgAObLbGkQCwFidQCDPS285OqdXahUEb2g0zk0fa-n7j77a2bOajRaHSSt0N3cEaOzcQ0536RuNXSXcKLF7kPJC2GK46HSN0R_3nWhdccUTUTPz-w8PdeY3EydpvTNE5BUsqyUEk-TztsvsUuautmsVTvph6iRIKs-6tBJcdKLrg0xMaRlmCCBwqtMAmtYDVv481AiIiI1Pi1A93kb6SgstHsShHcfp7F09GbwRS7CFpbY9niL3ve51glOiHnadIm3npL0BKe2aaJiMnDJV0uFGPWf_LF3njFAxAE2iTx33X9ZtH0UzTtpDuzd6ejQwmpriz_WTx_HqXjRQl-cntaQYQpHdwrKU9Udfp-coS_i4PQyLzOAgwZKl0-JtkOfl-4yG40]--></g></svg>