<?xml version="1.0" encoding="us-ascii" standalone="no"?><svg xmlns="http://www.w3.org/2000/svg" xmlns:xlink="http://www.w3.org/1999/xlink" contentStyleType="text/css" height="1091px" preserveAspectRatio="none" style="width:464px;height:1091px;background:#FFFFFF;" version="1.1" viewBox="0 0 464 1091" width="464px" zoomAndPan="magnify"><defs/><g><text fill="#000000" font-family="sans-serif" font-size="14" font-weight="bold" lengthAdjust="spacing" textLength="162" x="147.5" y="30.1074">Create Backoffice User</text><rect fill="#FFFFFF" height="726.8965" style="stroke:#181818;stroke-width:1.0;" width="10" x="207" y="161.1543"/><rect fill="#FFFFFF" height="136.7949" style="stroke:#181818;stroke-width:1.0;" width="10" x="352" y="192.4453"/><rect fill="#FFFFFF" height="31.291" style="stroke:#181818;stroke-width:1.0;" width="10" x="352" y="518.9863"/><rect fill="none" height="129.7949" style="stroke:#000000;stroke-width:1.5;" width="404.5" x="3" y="207.4453"/><rect fill="none" height="592.3926" style="stroke:#000000;stroke-width:1.5;" width="445" x="3" y="382.5313"/><rect fill="none" height="210.9785" style="stroke:#000000;stroke-width:1.5;" width="269" x="3" y="685.0723"/><line style="stroke:#181818;stroke-width:0.5;stroke-dasharray:5.0,5.0;" x1="212" x2="212" y1="127.8633" y2="991.9238"/><line style="stroke:#181818;stroke-width:0.5;stroke-dasharray:5.0,5.0;" x1="356.5" x2="356.5" y1="127.8633" y2="991.9238"/><rect fill="#E2E2F0" height="51.2422" rx="2.5" ry="2.5" style="stroke:#181818;stroke-width:0.5;" width="100" x="162" y="75.6211"/><text fill="#000000" font-family="sans-serif" font-size="14" font-style="italic" lengthAdjust="spacing" textLength="86" x="169" y="97.7285">&#171;component&#187;</text><text fill="#000000" font-family="sans-serif" font-size="14" lengthAdjust="spacing" textLength="77" x="173.5" y="116.3496">C# Backend</text><rect fill="#E2E2F0" height="51.2422" rx="2.5" ry="2.5" style="stroke:#181818;stroke-width:0.5;" width="100" x="162" y="990.9238"/><text fill="#000000" font-family="sans-serif" font-size="14" font-style="italic" lengthAdjust="spacing" textLength="86" x="169" y="1013.0313">&#171;component&#187;</text><text fill="#000000" font-family="sans-serif" font-size="14" lengthAdjust="spacing" textLength="77" x="173.5" y="1031.6523">C# Backend</text><text fill="#000000" font-family="sans-serif" font-size="14" font-style="italic" lengthAdjust="spacing" textLength="75" x="316.5" y="105.7285">&#171;database&#187;</text><text fill="#000000" font-family="sans-serif" font-size="14" lengthAdjust="spacing" textLength="46" x="331" y="124.3496">MySQL</text><path d="M339,54.6211 C339,44.6211 357,44.6211 357,44.6211 C357,44.6211 375,44.6211 375,54.6211 L375,80.6211 C375,90.6211 357,90.6211 357,90.6211 C357,90.6211 339,90.6211 339,80.6211 L339,54.6211 " fill="#E2E2F0" style="stroke:#181818;stroke-width:1.5;"/><path d="M339,54.6211 C339,64.6211 357,64.6211 357,64.6211 C357,64.6211 375,64.6211 375,54.6211 " fill="none" style="stroke:#181818;stroke-width:1.5;"/><text fill="#000000" font-family="sans-serif" font-size="14" font-style="italic" lengthAdjust="spacing" textLength="75" x="316.5" y="1006.0313">&#171;database&#187;</text><text fill="#000000" font-family="sans-serif" font-size="14" lengthAdjust="spacing" textLength="46" x="331" y="1024.6523">MySQL</text><path d="M339,1038.166 C339,1028.166 357,1028.166 357,1028.166 C357,1028.166 375,1028.166 375,1038.166 L375,1064.166 C375,1074.166 357,1074.166 357,1074.166 C357,1074.166 339,1074.166 339,1064.166 L339,1038.166 " fill="#E2E2F0" style="stroke:#181818;stroke-width:1.5;"/><path d="M339,1038.166 C339,1048.166 357,1048.166 357,1048.166 C357,1048.166 375,1048.166 375,1038.166 " fill="none" style="stroke:#181818;stroke-width:1.5;"/><rect fill="#FFFFFF" height="726.8965" style="stroke:#181818;stroke-width:1.0;" width="10" x="207" y="161.1543"/><rect fill="#FFFFFF" height="136.7949" style="stroke:#181818;stroke-width:1.0;" width="10" x="352" y="192.4453"/><rect fill="#FFFFFF" height="31.291" style="stroke:#181818;stroke-width:1.0;" width="10" x="352" y="518.9863"/><polygon fill="#181818" points="195,157.1543,205,161.1543,195,165.1543,199,161.1543" style="stroke:#181818;stroke-width:1.0;"/><line style="stroke:#181818;stroke-width:1.0;" x1="0" x2="201" y1="161.1543" y2="161.1543"/><text fill="#000000" font-family="sans-serif" font-size="13" font-weight="bold" lengthAdjust="spacing" textLength="7" x="7" y="155.8916">1</text><text fill="#000000" font-family="sans-serif" font-size="13" lengthAdjust="spacing" textLength="77" x="18" y="155.8916">POST /Users</text><polygon fill="#181818" points="340,188.4453,350,192.4453,340,196.4453,344,192.4453" style="stroke:#181818;stroke-width:1.0;"/><line style="stroke:#181818;stroke-width:1.0;" x1="217" x2="346" y1="192.4453" y2="192.4453"/><text fill="#000000" font-family="sans-serif" font-size="13" font-weight="bold" lengthAdjust="spacing" textLength="7" x="224" y="187.1826">2</text><text fill="#000000" font-family="sans-serif" font-size="13" lengthAdjust="spacing" textLength="78" x="235" y="187.1826">Get role by id</text><path d="M3,207.4453 L64,207.4453 L64,216.7363 L54,226.7363 L3,226.7363 L3,207.4453 " fill="#EEEEEE" style="stroke:#000000;stroke-width:1.5;"/><rect fill="none" height="129.7949" style="stroke:#000000;stroke-width:1.5;" width="404.5" x="3" y="207.4453"/><text fill="#000000" font-family="sans-serif" font-size="13" font-weight="bold" lengthAdjust="spacing" textLength="16" x="18" y="222.4736">alt</text><text fill="#000000" font-family="sans-serif" font-size="11" font-weight="bold" lengthAdjust="spacing" textLength="86" x="79" y="221.3154">[role not found]</text><polygon fill="#181818" points="228,246.0273,218,250.0273,228,254.0273,224,250.0273" style="stroke:#181818;stroke-width:1.0;"/><line style="stroke:#181818;stroke-width:1.0;stroke-dasharray:2.0,2.0;" x1="222" x2="351" y1="250.0273" y2="250.0273"/><text fill="#000000" font-family="sans-serif" font-size="13" font-weight="bold" lengthAdjust="spacing" textLength="7" x="234" y="244.7646">3</text><text fill="#000000" font-family="sans-serif" font-size="13" lengthAdjust="spacing" textLength="20" x="245" y="244.7646">null</text><polygon fill="#181818" points="11,277.3184,1,281.3184,11,285.3184,7,281.3184" style="stroke:#181818;stroke-width:1.0;"/><line style="stroke:#181818;stroke-width:1.0;stroke-dasharray:2.0,2.0;" x1="5" x2="206" y1="281.3184" y2="281.3184"/><text fill="#000000" font-family="sans-serif" font-size="13" font-weight="bold" lengthAdjust="spacing" textLength="7" x="17" y="276.0557">4</text><text fill="#000000" font-family="sans-serif" font-size="13" lengthAdjust="spacing" textLength="163" x="28" y="276.0557">Response status code - 404</text><line style="stroke:#000000;stroke-width:1.0;stroke-dasharray:2.0,2.0;" x1="3" x2="407.5" y1="290.3184" y2="290.3184"/><text fill="#000000" font-family="sans-serif" font-size="11" font-weight="bold" lengthAdjust="spacing" textLength="55" x="8" y="302.1885">[success]</text><polygon fill="#181818" points="228,325.2402,218,329.2402,228,333.2402,224,329.2402" style="stroke:#181818;stroke-width:1.0;"/><line style="stroke:#181818;stroke-width:1.0;stroke-dasharray:2.0,2.0;" x1="222" x2="356" y1="329.2402" y2="329.2402"/><text fill="#000000" font-family="sans-serif" font-size="13" font-weight="bold" lengthAdjust="spacing" textLength="7" x="234" y="323.9775">5</text><text fill="#000000" font-family="sans-serif" font-size="13" lengthAdjust="spacing" textLength="26" x="245" y="323.9775">Role</text><polygon fill="#181818" points="446,363.5313,456,367.5313,446,371.5313,450,367.5313" style="stroke:#181818;stroke-width:1.0;"/><line style="stroke:#181818;stroke-width:1.0;" x1="217" x2="452" y1="367.5313" y2="367.5313"/><text fill="#000000" font-family="sans-serif" font-size="13" font-weight="bold" lengthAdjust="spacing" textLength="7" x="224" y="362.2686">6</text><text fill="#000000" font-family="sans-serif" font-size="13" lengthAdjust="spacing" textLength="112" x="235" y="362.2686">POST /api/v2/users</text><path d="M3,382.5313 L64,382.5313 L64,391.8223 L54,401.8223 L3,401.8223 L3,382.5313 " fill="#EEEEEE" style="stroke:#000000;stroke-width:1.5;"/><rect fill="none" height="592.3926" style="stroke:#000000;stroke-width:1.5;" width="445" x="3" y="382.5313"/><text fill="#000000" font-family="sans-serif" font-size="13" font-weight="bold" lengthAdjust="spacing" textLength="16" x="18" y="397.5596">alt</text><text fill="#000000" font-family="sans-serif" font-size="11" font-weight="bold" lengthAdjust="spacing" textLength="55" x="79" y="396.4014">[success]</text><polygon fill="#181818" points="228,421.1133,218,425.1133,228,429.1133,224,425.1133" style="stroke:#181818;stroke-width:1.0;"/><line style="stroke:#181818;stroke-width:1.0;stroke-dasharray:2.0,2.0;" x1="222" x2="457" y1="425.1133" y2="425.1133"/><text fill="#000000" font-family="sans-serif" font-size="13" font-weight="bold" lengthAdjust="spacing" textLength="7" x="234" y="419.8506">7</text><text fill="#000000" font-family="sans-serif" font-size="13" lengthAdjust="spacing" textLength="163" x="245" y="419.8506">Response status code - 201</text><polygon fill="#181818" points="446,452.4043,456,456.4043,446,460.4043,450,456.4043" style="stroke:#181818;stroke-width:1.0;"/><line style="stroke:#181818;stroke-width:1.0;" x1="217" x2="452" y1="456.4043" y2="456.4043"/><text fill="#000000" font-family="sans-serif" font-size="13" font-weight="bold" lengthAdjust="spacing" textLength="7" x="224" y="451.1416">8</text><text fill="#000000" font-family="sans-serif" font-size="13" lengthAdjust="spacing" textLength="199" x="235" y="451.1416">PATCH /api/v2/users/{userId}/roles</text><polygon fill="#181818" points="228,483.6953,218,487.6953,228,491.6953,224,487.6953" style="stroke:#181818;stroke-width:1.0;"/><line style="stroke:#181818;stroke-width:1.0;stroke-dasharray:2.0,2.0;" x1="222" x2="457" y1="487.6953" y2="487.6953"/><text fill="#000000" font-family="sans-serif" font-size="13" font-weight="bold" lengthAdjust="spacing" textLength="7" x="234" y="482.4326">9</text><text fill="#000000" font-family="sans-serif" font-size="13" lengthAdjust="spacing" textLength="163" x="245" y="482.4326">Response status code - 204</text><polygon fill="#181818" points="340,514.9863,350,518.9863,340,522.9863,344,518.9863" style="stroke:#181818;stroke-width:1.0;"/><line style="stroke:#181818;stroke-width:1.0;" x1="217" x2="346" y1="518.9863" y2="518.9863"/><text fill="#000000" font-family="sans-serif" font-size="13" font-weight="bold" lengthAdjust="spacing" textLength="14" x="224" y="513.7236">10</text><text fill="#000000" font-family="sans-serif" font-size="13" lengthAdjust="spacing" textLength="57" x="242" y="513.7236">Save user</text><polygon fill="#181818" points="228,546.2773,218,550.2773,228,554.2773,224,550.2773" style="stroke:#181818;stroke-width:1.0;"/><line style="stroke:#181818;stroke-width:1.0;stroke-dasharray:2.0,2.0;" x1="222" x2="356" y1="550.2773" y2="550.2773"/><text fill="#000000" font-family="sans-serif" font-size="13" font-weight="bold" lengthAdjust="spacing" textLength="14" x="234" y="545.0146">11</text><text fill="#000000" font-family="sans-serif" font-size="13" lengthAdjust="spacing" textLength="93" x="252" y="545.0146">returns success</text><line style="stroke:#000000;stroke-width:1.0;stroke-dasharray:2.0,2.0;" x1="3" x2="448" y1="559.2773" y2="559.2773"/><text fill="#000000" font-family="sans-serif" font-size="11" font-weight="bold" lengthAdjust="spacing" textLength="83" x="8" y="571.1475">[unsuccessful]</text><polygon fill="#181818" points="228,594.1992,218,598.1992,228,602.1992,224,598.1992" style="stroke:#181818;stroke-width:1.0;"/><line style="stroke:#181818;stroke-width:1.0;stroke-dasharray:2.0,2.0;" x1="222" x2="457" y1="598.1992" y2="598.1992"/><text fill="#000000" font-family="sans-serif" font-size="13" font-weight="bold" lengthAdjust="spacing" textLength="14" x="234" y="592.9365">12</text><text fill="#000000" font-family="sans-serif" font-size="13" lengthAdjust="spacing" textLength="163" x="252" y="592.9365">Response status code - XXX</text><path d="M72,611.1992 L72,672.1992 L352,672.1992 L352,621.1992 L342,611.1992 L72,611.1992 " fill="#FEFFDD" style="stroke:#181818;stroke-width:0.5;"/><path d="M342,611.1992 L342,621.1992 L352,621.1992 L342,611.1992 " fill="#FEFFDD" style="stroke:#181818;stroke-width:0.5;"/><text fill="#000000" font-family="sans-serif" font-size="13" lengthAdjust="spacing" textLength="249" x="78" y="630.2275">Here we have all the error handling from the</text><text fill="#000000" font-family="sans-serif" font-size="13" lengthAdjust="spacing" textLength="259" x="78" y="647.5186">User entity creation, Auth0 and the database</text><text fill="#000000" font-family="sans-serif" font-size="13" lengthAdjust="spacing" textLength="65" x="78" y="664.8096">save action</text><path d="M3,685.0723 L64,685.0723 L64,694.3633 L54,704.3633 L3,704.3633 L3,685.0723 " fill="#EEEEEE" style="stroke:#000000;stroke-width:1.5;"/><rect fill="none" height="210.9785" style="stroke:#000000;stroke-width:1.5;" width="269" x="3" y="685.0723"/><text fill="#000000" font-family="sans-serif" font-size="13" font-weight="bold" lengthAdjust="spacing" textLength="16" x="18" y="700.1006">alt</text><line style="stroke:#000000;stroke-width:1.0;stroke-dasharray:2.0,2.0;" x1="3" x2="272" y1="705.3633" y2="705.3633"/><text fill="#000000" font-family="sans-serif" font-size="11" font-weight="bold" lengthAdjust="spacing" textLength="69" x="8" y="717.2334">[invalid data]</text><polygon fill="#181818" points="11,740.2852,1,744.2852,11,748.2852,7,744.2852" style="stroke:#181818;stroke-width:1.0;"/><line style="stroke:#181818;stroke-width:1.0;stroke-dasharray:2.0,2.0;" x1="5" x2="206" y1="744.2852" y2="744.2852"/><text fill="#000000" font-family="sans-serif" font-size="13" font-weight="bold" lengthAdjust="spacing" textLength="14" x="17" y="739.0225">13</text><text fill="#000000" font-family="sans-serif" font-size="13" lengthAdjust="spacing" textLength="163" x="35" y="739.0225">Response status code - 400</text><line style="stroke:#000000;stroke-width:1.0;stroke-dasharray:2.0,2.0;" x1="3" x2="272" y1="753.2852" y2="753.2852"/><text fill="#000000" font-family="sans-serif" font-size="11" font-weight="bold" lengthAdjust="spacing" textLength="138" x="8" y="765.1553">[role not found on Auth0]</text><polygon fill="#181818" points="11,788.207,1,792.207,11,796.207,7,792.207" style="stroke:#181818;stroke-width:1.0;"/><line style="stroke:#181818;stroke-width:1.0;stroke-dasharray:2.0,2.0;" x1="5" x2="206" y1="792.207" y2="792.207"/><text fill="#000000" font-family="sans-serif" font-size="13" font-weight="bold" lengthAdjust="spacing" textLength="14" x="17" y="786.9443">14</text><text fill="#000000" font-family="sans-serif" font-size="13" lengthAdjust="spacing" textLength="163" x="35" y="786.9443">Response status code - 404</text><line style="stroke:#000000;stroke-width:1.0;stroke-dasharray:2.0,2.0;" x1="3" x2="272" y1="801.207" y2="801.207"/><text fill="#000000" font-family="sans-serif" font-size="11" font-weight="bold" lengthAdjust="spacing" textLength="114" x="8" y="813.0771">[user already exists]</text><polygon fill="#181818" points="11,836.1289,1,840.1289,11,844.1289,7,840.1289" style="stroke:#181818;stroke-width:1.0;"/><line style="stroke:#181818;stroke-width:1.0;stroke-dasharray:2.0,2.0;" x1="5" x2="206" y1="840.1289" y2="840.1289"/><text fill="#000000" font-family="sans-serif" font-size="13" font-weight="bold" lengthAdjust="spacing" textLength="14" x="17" y="834.8662">15</text><text fill="#000000" font-family="sans-serif" font-size="13" lengthAdjust="spacing" textLength="163" x="35" y="834.8662">Response status code - 409</text><line style="stroke:#000000;stroke-width:1.0;stroke-dasharray:2.0,2.0;" x1="3" x2="272" y1="849.1289" y2="849.1289"/><text fill="#000000" font-family="sans-serif" font-size="11" font-weight="bold" lengthAdjust="spacing" textLength="172" x="8" y="860.999">[database or Auth0 unavailable]</text><polygon fill="#181818" points="11,884.0508,1,888.0508,11,892.0508,7,888.0508" style="stroke:#181818;stroke-width:1.0;"/><line style="stroke:#181818;stroke-width:1.0;stroke-dasharray:2.0,2.0;" x1="5" x2="211" y1="888.0508" y2="888.0508"/><text fill="#000000" font-family="sans-serif" font-size="13" font-weight="bold" lengthAdjust="spacing" textLength="14" x="17" y="882.7881">16</text><text fill="#000000" font-family="sans-serif" font-size="13" lengthAdjust="spacing" textLength="163" x="35" y="882.7881">Response status code - 503</text><path d="M20,908.0508 L20,969.0508 L404,969.0508 L404,918.0508 L394,908.0508 L20,908.0508 " fill="#FEFFDD" style="stroke:#181818;stroke-width:0.5;"/><path d="M394,908.0508 L394,918.0508 L404,918.0508 L394,908.0508 " fill="#FEFFDD" style="stroke:#181818;stroke-width:0.5;"/><text fill="#000000" font-family="sans-serif" font-size="13" lengthAdjust="spacing" textLength="347" x="26" y="927.0791">If there exists any kind of error, when saving to the database</text><text fill="#000000" font-family="sans-serif" font-size="13" lengthAdjust="spacing" textLength="363" x="26" y="944.3701">there is a delete action that will be triggered to remove the user</text><text fill="#000000" font-family="sans-serif" font-size="13" lengthAdjust="spacing" textLength="63" x="26" y="961.6611">from Auth0</text><!--SRC=[ZLJ1Zjem4BtxAqRRwqRGBJrqXP20IjsLkcgxx4fSJJ81QusDx75eLFNVEnDl43bKS0gntxnvyzu4dSYxjDzWKF7Dk8CEUWy7NRxfBQwejGW1IrAA3F7lPK1D20k-ztLjIeJNo9MAoyYKvg0TmStoGmT0Lzs0Zl1r_WJJQUdt1-_GqMocAarweoF2pLEx-lKzenOCwYyOeugPLDx3pn-h5nX9cwXqIQOH0NoZX5T0YtluXWJ1ixvD2wOwWosKjkzNpXFKFhbASQkYPtV9MZKjYlpsZ955ih18cbA4qbS81Kp64uLMZbDPOem3XcScLnMUz-J9LI-l7q0VpAYv6wKy1uiwSOazHV7VvdVZZsTSyvVbmv1iz4SUZzNVaOnv3T_atBgLRX24OU3Q-O01AGKNJuA7iwhiJ7BlrtMo5oMirsl5SI3u1aENvGC6X2F2JjHeQu5s21Y23tpaAclS5khWztAkP1U0DybG2wKifF7k5kQ9TcDWS5VRRvAA7MCf6Cb5rW2L191r6zTeQweEhm0kRy8urmrN2hpB_HLSlKlYEO_A-giMyBU95A-f_fAhJvyGEvGdJqutsbYzuNMyoFDv_4d1UP2SWMpjC9N7MhpaPB8yDhS5_e_WSUiSpYqST-Y0FPQ0o0-jpxM6wxYLHUfpO9GcE1gEUOD0mMot3AoaFk2UktSqtKvscMTdJ-5rNzS_]--></g></svg>