<?xml version="1.0" encoding="us-ascii" standalone="no"?><svg xmlns="http://www.w3.org/2000/svg" xmlns:xlink="http://www.w3.org/1999/xlink" contentStyleType="text/css" height="868px" preserveAspectRatio="none" style="width:773px;height:868px;background:#FFFFFF;" version="1.1" viewBox="0 0 773 868" width="773px" zoomAndPan="magnify"><defs/><g><text fill="#000000" font-family="sans-serif" font-size="14" font-weight="bold" lengthAdjust="spacing" textLength="162" x="306.75" y="30.1074">Create Backoffice User</text><rect fill="#FFFFFF" height="605.1016" style="stroke:#181818;stroke-width:1.0;" width="10" x="45.5" y="151.8633"/><rect fill="#FFFFFF" height="549.5195" style="stroke:#181818;stroke-width:1.0;" width="10" x="252.5" y="192.4453"/><rect fill="#FFFFFF" height="479.9375" style="stroke:#181818;stroke-width:1.0;" width="10" x="467.5" y="223.7363"/><rect fill="#FFFFFF" height="502.9375" style="stroke:#181818;stroke-width:1.0;" width="10" x="711.5" y="255.0273"/><rect fill="none" height="479.9375" style="stroke:#000000;stroke-width:1.5;" width="756.5" x="10" y="270.0273"/><rect fill="none" height="210.9785" style="stroke:#000000;stroke-width:1.5;" width="370.5" x="197.5" y="500.6953"/><line style="stroke:#181818;stroke-width:0.5;stroke-dasharray:5.0,5.0;" x1="50" x2="50" y1="141.8633" y2="766.9648"/><line style="stroke:#181818;stroke-width:0.5;stroke-dasharray:5.0,5.0;" x1="257.5" x2="257.5" y1="141.8633" y2="766.9648"/><line style="stroke:#181818;stroke-width:0.5;stroke-dasharray:5.0,5.0;" x1="472" x2="472" y1="141.8633" y2="766.9648"/><line style="stroke:#181818;stroke-width:0.5;stroke-dasharray:5.0,5.0;" x1="716.5" x2="716.5" y1="141.8633" y2="766.9648"/><text fill="#000000" font-family="sans-serif" font-size="14" font-style="italic" lengthAdjust="spacing" textLength="55" x="20" y="119.7285">&#171;Admin&#187;</text><text fill="#000000" font-family="sans-serif" font-size="14" lengthAdjust="spacing" textLength="29" x="33" y="138.3496">User</text><ellipse cx="50.5" cy="53.1211" fill="#E2E2F0" rx="8" ry="8" style="stroke:#181818;stroke-width:0.5;"/><path d="M50.5,61.1211 L50.5,88.1211 M37.5,69.1211 L63.5,69.1211 M50.5,88.1211 L37.5,103.1211 M50.5,88.1211 L63.5,103.1211 " fill="none" style="stroke:#181818;stroke-width:0.5;"/><text fill="#000000" font-family="sans-serif" font-size="14" font-style="italic" lengthAdjust="spacing" textLength="55" x="20" y="781.0723">&#171;Admin&#187;</text><text fill="#000000" font-family="sans-serif" font-size="14" lengthAdjust="spacing" textLength="29" x="33" y="799.6934">User</text><ellipse cx="50.5" cy="811.707" fill="#E2E2F0" rx="8" ry="8" style="stroke:#181818;stroke-width:0.5;"/><path d="M50.5,819.707 L50.5,846.707 M37.5,827.707 L63.5,827.707 M50.5,846.707 L37.5,861.707 M50.5,846.707 L63.5,861.707 " fill="none" style="stroke:#181818;stroke-width:0.5;"/><rect fill="#E2E2F0" height="51.2422" rx="2.5" ry="2.5" style="stroke:#181818;stroke-width:0.5;" width="100" x="207.5" y="89.6211"/><text fill="#000000" font-family="sans-serif" font-size="14" font-style="italic" lengthAdjust="spacing" textLength="86" x="214.5" y="111.7285">&#171;component&#187;</text><text fill="#000000" font-family="sans-serif" font-size="14" lengthAdjust="spacing" textLength="83" x="216" y="130.3496">PortalModule</text><rect fill="#E2E2F0" height="51.2422" rx="2.5" ry="2.5" style="stroke:#181818;stroke-width:0.5;" width="100" x="207.5" y="765.9648"/><text fill="#000000" font-family="sans-serif" font-size="14" font-style="italic" lengthAdjust="spacing" textLength="86" x="214.5" y="788.0723">&#171;component&#187;</text><text fill="#000000" font-family="sans-serif" font-size="14" lengthAdjust="spacing" textLength="83" x="216" y="806.6934">PortalModule</text><rect fill="#E2E2F0" height="51.2422" rx="2.5" ry="2.5" style="stroke:#181818;stroke-width:0.5;" width="171" x="387" y="89.6211"/><text fill="#000000" font-family="sans-serif" font-size="14" font-style="italic" lengthAdjust="spacing" textLength="86" x="429.5" y="111.7285">&#171;component&#187;</text><text fill="#000000" font-family="sans-serif" font-size="14" lengthAdjust="spacing" textLength="157" x="394" y="130.3496">UserManagementModule</text><rect fill="#E2E2F0" height="51.2422" rx="2.5" ry="2.5" style="stroke:#181818;stroke-width:0.5;" width="171" x="387" y="765.9648"/><text fill="#000000" font-family="sans-serif" font-size="14" font-style="italic" lengthAdjust="spacing" textLength="86" x="429.5" y="788.0723">&#171;component&#187;</text><text fill="#000000" font-family="sans-serif" font-size="14" lengthAdjust="spacing" textLength="157" x="394" y="806.6934">UserManagementModule</text><rect fill="#E2E2F0" height="51.2422" rx="2.5" ry="2.5" style="stroke:#181818;stroke-width:0.5;" width="80" x="676.5" y="89.6211"/><text fill="#000000" font-family="sans-serif" font-size="14" font-style="italic" lengthAdjust="spacing" textLength="66" x="683.5" y="111.7285">&#171;external&#187;</text><text fill="#000000" font-family="sans-serif" font-size="14" lengthAdjust="spacing" textLength="37" x="698" y="130.3496">Auth0</text><rect fill="#E2E2F0" height="51.2422" rx="2.5" ry="2.5" style="stroke:#181818;stroke-width:0.5;" width="80" x="676.5" y="765.9648"/><text fill="#000000" font-family="sans-serif" font-size="14" font-style="italic" lengthAdjust="spacing" textLength="66" x="683.5" y="788.0723">&#171;external&#187;</text><text fill="#000000" font-family="sans-serif" font-size="14" lengthAdjust="spacing" textLength="37" x="698" y="806.6934">Auth0</text><rect fill="#FFFFFF" height="605.1016" style="stroke:#181818;stroke-width:1.0;" width="10" x="45.5" y="151.8633"/><rect fill="#FFFFFF" height="549.5195" style="stroke:#181818;stroke-width:1.0;" width="10" x="252.5" y="192.4453"/><rect fill="#FFFFFF" height="479.9375" style="stroke:#181818;stroke-width:1.0;" width="10" x="467.5" y="223.7363"/><rect fill="#FFFFFF" height="502.9375" style="stroke:#181818;stroke-width:1.0;" width="10" x="711.5" y="255.0273"/><polygon fill="#181818" points="240.5,188.4453,250.5,192.4453,240.5,196.4453,244.5,192.4453" style="stroke:#181818;stroke-width:1.0;"/><line style="stroke:#181818;stroke-width:1.0;" x1="55.5" x2="246.5" y1="192.4453" y2="192.4453"/><text fill="#000000" font-family="sans-serif" font-size="13" font-weight="bold" lengthAdjust="spacing" textLength="7" x="62.5" y="178.5371">1</text><text fill="#000000" font-family="sans-serif" font-size="13" lengthAdjust="spacing" textLength="99" x="73.5" y="169.8916">Fills and submits</text><text fill="#000000" font-family="sans-serif" font-size="13" lengthAdjust="spacing" textLength="167" x="73.5" y="187.1826">Create Backoffice User Form</text><polygon fill="#181818" points="455.5,219.7363,465.5,223.7363,455.5,227.7363,459.5,223.7363" style="stroke:#181818;stroke-width:1.0;"/><line style="stroke:#181818;stroke-width:1.0;" x1="262.5" x2="461.5" y1="223.7363" y2="223.7363"/><text fill="#000000" font-family="sans-serif" font-size="13" font-weight="bold" lengthAdjust="spacing" textLength="7" x="269.5" y="218.4736">2</text><text fill="#000000" font-family="sans-serif" font-size="13" lengthAdjust="spacing" textLength="77" x="280.5" y="218.4736">POST /Users</text><polygon fill="#181818" points="699.5,251.0273,709.5,255.0273,699.5,259.0273,703.5,255.0273" style="stroke:#181818;stroke-width:1.0;"/><line style="stroke:#181818;stroke-width:1.0;" x1="477.5" x2="705.5" y1="255.0273" y2="255.0273"/><text fill="#000000" font-family="sans-serif" font-size="13" font-weight="bold" lengthAdjust="spacing" textLength="7" x="484.5" y="249.7646">3</text><text fill="#000000" font-family="sans-serif" font-size="13" lengthAdjust="spacing" textLength="112" x="495.5" y="249.7646">POST /api/v2/users</text><path d="M10,270.0273 L71,270.0273 L71,279.3184 L61,289.3184 L10,289.3184 L10,270.0273 " fill="#EEEEEE" style="stroke:#000000;stroke-width:1.5;"/><rect fill="none" height="479.9375" style="stroke:#000000;stroke-width:1.5;" width="756.5" x="10" y="270.0273"/><text fill="#000000" font-family="sans-serif" font-size="13" font-weight="bold" lengthAdjust="spacing" textLength="16" x="25" y="285.0557">alt</text><text fill="#000000" font-family="sans-serif" font-size="11" font-weight="bold" lengthAdjust="spacing" textLength="55" x="86" y="283.8975">[success]</text><polygon fill="#181818" points="488.5,308.6094,478.5,312.6094,488.5,316.6094,484.5,312.6094" style="stroke:#181818;stroke-width:1.0;"/><line style="stroke:#181818;stroke-width:1.0;stroke-dasharray:2.0,2.0;" x1="482.5" x2="710.5" y1="312.6094" y2="312.6094"/><text fill="#000000" font-family="sans-serif" font-size="13" font-weight="bold" lengthAdjust="spacing" textLength="7" x="494.5" y="307.3467">4</text><text fill="#000000" font-family="sans-serif" font-size="13" lengthAdjust="spacing" textLength="163" x="505.5" y="307.3467">Response status code - 201</text><polygon fill="#181818" points="699.5,339.9004,709.5,343.9004,699.5,347.9004,703.5,343.9004" style="stroke:#181818;stroke-width:1.0;"/><line style="stroke:#181818;stroke-width:1.0;" x1="477.5" x2="705.5" y1="343.9004" y2="343.9004"/><text fill="#000000" font-family="sans-serif" font-size="13" font-weight="bold" lengthAdjust="spacing" textLength="7" x="484.5" y="338.6377">5</text><text fill="#000000" font-family="sans-serif" font-size="13" lengthAdjust="spacing" textLength="199" x="495.5" y="338.6377">PATCH /api/v2/users/{userId}/roles</text><polygon fill="#181818" points="488.5,371.1914,478.5,375.1914,488.5,379.1914,484.5,375.1914" style="stroke:#181818;stroke-width:1.0;"/><line style="stroke:#181818;stroke-width:1.0;stroke-dasharray:2.0,2.0;" x1="482.5" x2="710.5" y1="375.1914" y2="375.1914"/><text fill="#000000" font-family="sans-serif" font-size="13" font-weight="bold" lengthAdjust="spacing" textLength="7" x="494.5" y="369.9287">6</text><text fill="#000000" font-family="sans-serif" font-size="13" lengthAdjust="spacing" textLength="163" x="505.5" y="369.9287">Response status code - 204</text><polygon fill="#181818" points="273.5,402.4824,263.5,406.4824,273.5,410.4824,269.5,406.4824" style="stroke:#181818;stroke-width:1.0;"/><line style="stroke:#181818;stroke-width:1.0;stroke-dasharray:2.0,2.0;" x1="267.5" x2="466.5" y1="406.4824" y2="406.4824"/><text fill="#000000" font-family="sans-serif" font-size="13" font-weight="bold" lengthAdjust="spacing" textLength="7" x="279.5" y="401.2197">7</text><text fill="#000000" font-family="sans-serif" font-size="13" lengthAdjust="spacing" textLength="163" x="290.5" y="401.2197">Response status code - 201</text><polygon fill="#181818" points="66.5,433.7734,56.5,437.7734,66.5,441.7734,62.5,437.7734" style="stroke:#181818;stroke-width:1.0;"/><line style="stroke:#181818;stroke-width:1.0;stroke-dasharray:2.0,2.0;" x1="60.5" x2="251.5" y1="437.7734" y2="437.7734"/><text fill="#000000" font-family="sans-serif" font-size="13" font-weight="bold" lengthAdjust="spacing" textLength="7" x="72.5" y="432.5107">8</text><text fill="#000000" font-family="sans-serif" font-size="13" lengthAdjust="spacing" textLength="158" x="83.5" y="432.5107">displays success message</text><line style="stroke:#000000;stroke-width:1.0;stroke-dasharray:2.0,2.0;" x1="10" x2="766.5" y1="446.7734" y2="446.7734"/><text fill="#000000" font-family="sans-serif" font-size="11" font-weight="bold" lengthAdjust="spacing" textLength="83" x="15" y="458.6436">[unsuccessful]</text><polygon fill="#181818" points="488.5,481.6953,478.5,485.6953,488.5,489.6953,484.5,485.6953" style="stroke:#181818;stroke-width:1.0;"/><line style="stroke:#181818;stroke-width:1.0;stroke-dasharray:2.0,2.0;" x1="482.5" x2="710.5" y1="485.6953" y2="485.6953"/><text fill="#000000" font-family="sans-serif" font-size="13" font-weight="bold" lengthAdjust="spacing" textLength="7" x="494.5" y="480.4326">9</text><text fill="#000000" font-family="sans-serif" font-size="13" lengthAdjust="spacing" textLength="163" x="505.5" y="480.4326">Response status code - XXX</text><path d="M197.5,500.6953 L258.5,500.6953 L258.5,509.9863 L248.5,519.9863 L197.5,519.9863 L197.5,500.6953 " fill="#EEEEEE" style="stroke:#000000;stroke-width:1.5;"/><rect fill="none" height="210.9785" style="stroke:#000000;stroke-width:1.5;" width="370.5" x="197.5" y="500.6953"/><text fill="#000000" font-family="sans-serif" font-size="13" font-weight="bold" lengthAdjust="spacing" textLength="16" x="212.5" y="515.7236">alt</text><line style="stroke:#000000;stroke-width:1.0;stroke-dasharray:2.0,2.0;" x1="197.5" x2="568" y1="520.9863" y2="520.9863"/><text fill="#000000" font-family="sans-serif" font-size="11" font-weight="bold" lengthAdjust="spacing" textLength="69" x="202.5" y="532.8564">[invalid data]</text><polygon fill="#181818" points="273.5,555.9082,263.5,559.9082,273.5,563.9082,269.5,559.9082" style="stroke:#181818;stroke-width:1.0;"/><line style="stroke:#181818;stroke-width:1.0;stroke-dasharray:2.0,2.0;" x1="267.5" x2="466.5" y1="559.9082" y2="559.9082"/><text fill="#000000" font-family="sans-serif" font-size="13" font-weight="bold" lengthAdjust="spacing" textLength="14" x="279.5" y="554.6455">10</text><text fill="#000000" font-family="sans-serif" font-size="13" lengthAdjust="spacing" textLength="163" x="297.5" y="554.6455">Response status code - 400</text><line style="stroke:#000000;stroke-width:1.0;stroke-dasharray:2.0,2.0;" x1="197.5" x2="568" y1="568.9082" y2="568.9082"/><text fill="#000000" font-family="sans-serif" font-size="11" font-weight="bold" lengthAdjust="spacing" textLength="138" x="202.5" y="580.7783">[role not found on Auth0]</text><polygon fill="#181818" points="273.5,603.8301,263.5,607.8301,273.5,611.8301,269.5,607.8301" style="stroke:#181818;stroke-width:1.0;"/><line style="stroke:#181818;stroke-width:1.0;stroke-dasharray:2.0,2.0;" x1="267.5" x2="466.5" y1="607.8301" y2="607.8301"/><text fill="#000000" font-family="sans-serif" font-size="13" font-weight="bold" lengthAdjust="spacing" textLength="14" x="279.5" y="602.5674">11</text><text fill="#000000" font-family="sans-serif" font-size="13" lengthAdjust="spacing" textLength="163" x="297.5" y="602.5674">Response status code - 404</text><line style="stroke:#000000;stroke-width:1.0;stroke-dasharray:2.0,2.0;" x1="197.5" x2="568" y1="616.8301" y2="616.8301"/><text fill="#000000" font-family="sans-serif" font-size="11" font-weight="bold" lengthAdjust="spacing" textLength="114" x="202.5" y="628.7002">[user already exists]</text><polygon fill="#181818" points="273.5,651.752,263.5,655.752,273.5,659.752,269.5,655.752" style="stroke:#181818;stroke-width:1.0;"/><line style="stroke:#181818;stroke-width:1.0;stroke-dasharray:2.0,2.0;" x1="267.5" x2="466.5" y1="655.752" y2="655.752"/><text fill="#000000" font-family="sans-serif" font-size="13" font-weight="bold" lengthAdjust="spacing" textLength="14" x="279.5" y="650.4893">12</text><text fill="#000000" font-family="sans-serif" font-size="13" lengthAdjust="spacing" textLength="163" x="297.5" y="650.4893">Response status code - 409</text><line style="stroke:#000000;stroke-width:1.0;stroke-dasharray:2.0,2.0;" x1="197.5" x2="568" y1="664.752" y2="664.752"/><text fill="#000000" font-family="sans-serif" font-size="11" font-weight="bold" lengthAdjust="spacing" textLength="172" x="202.5" y="676.6221">[database or Auth0 unavailable]</text><polygon fill="#181818" points="273.5,699.6738,263.5,703.6738,273.5,707.6738,269.5,703.6738" style="stroke:#181818;stroke-width:1.0;"/><line style="stroke:#181818;stroke-width:1.0;stroke-dasharray:2.0,2.0;" x1="267.5" x2="471.5" y1="703.6738" y2="703.6738"/><text fill="#000000" font-family="sans-serif" font-size="13" font-weight="bold" lengthAdjust="spacing" textLength="14" x="279.5" y="698.4111">13</text><text fill="#000000" font-family="sans-serif" font-size="13" lengthAdjust="spacing" textLength="163" x="297.5" y="698.4111">Response status code - 503</text><polygon fill="#181818" points="66.5,737.9648,56.5,741.9648,66.5,745.9648,62.5,741.9648" style="stroke:#181818;stroke-width:1.0;"/><line style="stroke:#181818;stroke-width:1.0;stroke-dasharray:2.0,2.0;" x1="60.5" x2="256.5" y1="741.9648" y2="741.9648"/><text fill="#000000" font-family="sans-serif" font-size="13" font-weight="bold" lengthAdjust="spacing" textLength="14" x="72.5" y="736.7021">14</text><text fill="#000000" font-family="sans-serif" font-size="13" lengthAdjust="spacing" textLength="128" x="90.5" y="736.7021">display error message</text><!--SRC=[ZLF1Rjim3BthAuZS3NjTTbWH170x5DiXMD3MG0wxC1BJ2PKbGwA21iF-VPJJeCasRBxOilJUqtiaZPc3p_sMeahFrWyOiOS1zJC-qGCV744apKgnPLdVHa8ck97piDjPJT0bOIhK72BCoiSCC447YqLhUkkNIoMIRBKTq3FCrY4okbKmsT68l5-l1Aj3FmHFdd_75yKLUZ7Jo-aPxrFxJrwR-Nip0jj6SFJ253qwWOrcxRx4w9Jge5eM3zS0TzQv1EWDfBpjBQTl_kznuIx4_ar5sAga424nTGthhm-FK1TWUWF9YIgM1TGs9mmEjjvVrVaIsZOA7Oi9hIab9Vwha_Gz9OcR218ZvmGw688Ahfft5-Bju-tdI_NwHtbzCJ_h61nD59sFiHPLzT_BfOm5DjRHs3GuFAHJ0EZb8VrJYfoGit_TtsKtnSPcir6b7aUszNjqre11HWLJxCsRvaWjmS47Xbt8qkFWOPoHgIhpL_kb_-XaBim1wCKcJbCLFXuLYlKjoa9-cD61b0JtQ1rk7KtJ-j2yLs3eOhZ86mL_jW4eHhder8CpKXdRGZhVwzGl]--></g></svg>