<?xml version="1.0" encoding="us-ascii" standalone="no"?><svg xmlns="http://www.w3.org/2000/svg" xmlns:xlink="http://www.w3.org/1999/xlink" contentStyleType="text/css" height="516px" preserveAspectRatio="none" style="width:423px;height:516px;background:#FFFFFF;" version="1.1" viewBox="0 0 423 516" width="423px" zoomAndPan="magnify"><defs/><g><text fill="#000000" font-family="JetBrains Mono" font-size="14" font-weight="bold" lengthAdjust="spacing" textLength="104" x="160.5" y="29.2799">GET resources</text><rect fill="#FFFFFF" height="247.64" style="stroke:#181818;stroke-width:1.0;" width="10" x="246" y="160.5998"/><rect fill="#FFFFFF" height="31.16" style="stroke:#181818;stroke-width:1.0;" width="10" x="354" y="217.9198"/><rect fill="none" height="224.64" style="stroke:#000000;stroke-width:1.5;" width="413" x="3" y="175.5998"/><rect fill="none" height="50.32" style="stroke:#000000;stroke-width:1.5;" width="309" x="3" y="295.2398"/><line style="stroke:#181818;stroke-width:0.5;stroke-dasharray:5.0,5.0;" x1="251" x2="251" y1="127.4398" y2="417.2398"/><line style="stroke:#181818;stroke-width:0.5;stroke-dasharray:5.0,5.0;" x1="359" x2="359" y1="127.4398" y2="417.2398"/><rect fill="#E2E2F0" height="50.9598" rx="2.5" ry="2.5" style="stroke:#181818;stroke-width:0.5;" width="102" x="200" y="75.4799"/><text fill="#000000" font-family="JetBrains Mono" font-size="14" font-style="italic" lengthAdjust="spacing" textLength="88" x="207" y="96.7599">&#171;component&#187;</text><text fill="#000000" font-family="JetBrains Mono" font-size="14" lengthAdjust="spacing" textLength="64" x="219" y="115.2398">Back-End</text><rect fill="#E2E2F0" height="50.9598" rx="2.5" ry="2.5" style="stroke:#181818;stroke-width:0.5;" width="102" x="200" y="416.2398"/><text fill="#000000" font-family="JetBrains Mono" font-size="14" font-style="italic" lengthAdjust="spacing" textLength="88" x="207" y="437.5197">&#171;component&#187;</text><text fill="#000000" font-family="JetBrains Mono" font-size="14" lengthAdjust="spacing" textLength="64" x="219" y="455.9996">Back-End</text><text fill="#000000" font-family="JetBrains Mono" font-size="14" font-style="italic" lengthAdjust="spacing" textLength="88" x="312" y="104.7599">&#171;component&#187;</text><text fill="#000000" font-family="JetBrains Mono" font-size="14" lengthAdjust="spacing" textLength="64" x="324" y="123.2398">DataBase</text><path d="M341,54.4799 C341,44.4799 359,44.4799 359,44.4799 C359,44.4799 377,44.4799 377,54.4799 L377,80.4799 C377,90.4799 359,90.4799 359,90.4799 C359,90.4799 341,90.4799 341,80.4799 L341,54.4799 " fill="#E2E2F0" style="stroke:#181818;stroke-width:1.5;"/><path d="M341,54.4799 C341,64.4799 359,64.4799 359,64.4799 C359,64.4799 377,64.4799 377,54.4799 " fill="none" style="stroke:#181818;stroke-width:1.5;"/><text fill="#000000" font-family="JetBrains Mono" font-size="14" font-style="italic" lengthAdjust="spacing" textLength="88" x="312" y="430.5197">&#171;component&#187;</text><text fill="#000000" font-family="JetBrains Mono" font-size="14" lengthAdjust="spacing" textLength="64" x="324" y="448.9996">DataBase</text><path d="M341,463.1996 C341,453.1996 359,453.1996 359,453.1996 C359,453.1996 377,453.1996 377,463.1996 L377,489.1996 C377,499.1996 359,499.1996 359,499.1996 C359,499.1996 341,499.1996 341,489.1996 L341,463.1996 " fill="#E2E2F0" style="stroke:#181818;stroke-width:1.5;"/><path d="M341,463.1996 C341,473.1996 359,473.1996 359,473.1996 C359,473.1996 377,473.1996 377,463.1996 " fill="none" style="stroke:#181818;stroke-width:1.5;"/><rect fill="#FFFFFF" height="247.64" style="stroke:#181818;stroke-width:1.0;" width="10" x="246" y="160.5998"/><rect fill="#FFFFFF" height="31.16" style="stroke:#181818;stroke-width:1.0;" width="10" x="354" y="217.9198"/><polygon fill="#181818" points="234,156.5998,244,160.5998,234,164.5998,238,160.5998" style="stroke:#181818;stroke-width:1.0;"/><line style="stroke:#181818;stroke-width:1.0;" x1="0" x2="240" y1="160.5998" y2="160.5998"/><text fill="#000000" font-family="JetBrains Mono" font-size="13" font-weight="bold" lengthAdjust="spacing" textLength="8" x="7" y="154.6998">1</text><text fill="#000000" font-family="JetBrains Mono" font-size="13" lengthAdjust="spacing" textLength="104" x="19" y="154.6998">GET resources</text><path d="M3,175.5998 L72,175.5998 L72,184.7598 L62,194.7598 L3,194.7598 L3,175.5998 " fill="#EEEEEE" style="stroke:#000000;stroke-width:1.5;"/><rect fill="none" height="224.64" style="stroke:#000000;stroke-width:1.5;" width="413" x="3" y="175.5998"/><text fill="#000000" font-family="JetBrains Mono" font-size="13" font-weight="bold" lengthAdjust="spacing" textLength="24" x="18" y="189.8598">alt</text><text fill="#000000" font-family="JetBrains Mono" font-size="11" font-weight="bold" lengthAdjust="spacing" textLength="119" x="87" y="188.8197">[user authorized]</text><polygon fill="#181818" points="342,213.9198,352,217.9198,342,221.9198,346,217.9198" style="stroke:#181818;stroke-width:1.0;"/><line style="stroke:#181818;stroke-width:1.0;" x1="256" x2="348" y1="217.9198" y2="217.9198"/><text fill="#000000" font-family="JetBrains Mono" font-size="13" font-weight="bold" lengthAdjust="spacing" textLength="8" x="263" y="212.0198">2</text><text fill="#000000" font-family="JetBrains Mono" font-size="13" lengthAdjust="spacing" textLength="64" x="275" y="212.0198">find all</text><polygon fill="#181818" points="267,245.0798,257,249.0798,267,253.0798,263,249.0798" style="stroke:#181818;stroke-width:1.0;"/><line style="stroke:#181818;stroke-width:1.0;stroke-dasharray:2.0,2.0;" x1="261" x2="358" y1="249.0798" y2="249.0798"/><text fill="#000000" font-family="JetBrains Mono" font-size="13" font-weight="bold" lengthAdjust="spacing" textLength="8" x="273" y="243.1798">3</text><text fill="#000000" font-family="JetBrains Mono" font-size="13" lengthAdjust="spacing" textLength="8" x="285" y="243.1798">&#160;</text><polygon fill="#181818" points="11,276.2398,1,280.2398,11,284.2398,7,280.2398" style="stroke:#181818;stroke-width:1.0;"/><line style="stroke:#181818;stroke-width:1.0;stroke-dasharray:2.0,2.0;" x1="5" x2="245" y1="280.2398" y2="280.2398"/><text fill="#000000" font-family="JetBrains Mono" font-size="13" font-weight="bold" lengthAdjust="spacing" textLength="8" x="17" y="274.3398">4</text><text fill="#000000" font-family="JetBrains Mono" font-size="13" lengthAdjust="spacing" textLength="208" x="29" y="274.3398">Response status code - 200</text><path d="M3,295.2398 L72,295.2398 L72,304.3998 L62,314.3998 L3,314.3998 L3,295.2398 " fill="#EEEEEE" style="stroke:#000000;stroke-width:1.5;"/><rect fill="none" height="50.32" style="stroke:#000000;stroke-width:1.5;" width="309" x="3" y="295.2398"/><text fill="#000000" font-family="JetBrains Mono" font-size="13" font-weight="bold" lengthAdjust="spacing" textLength="24" x="18" y="309.4998">alt</text><text fill="#000000" font-family="JetBrains Mono" font-size="11" font-weight="bold" lengthAdjust="spacing" textLength="154" x="87" y="308.4598">[database unavailable]</text><polygon fill="#181818" points="11,333.5599,1,337.5599,11,341.5599,7,337.5599" style="stroke:#181818;stroke-width:1.0;"/><line style="stroke:#181818;stroke-width:1.0;stroke-dasharray:2.0,2.0;" x1="5" x2="245" y1="337.5599" y2="337.5599"/><text fill="#000000" font-family="JetBrains Mono" font-size="13" font-weight="bold" lengthAdjust="spacing" textLength="8" x="17" y="331.6599">5</text><text fill="#000000" font-family="JetBrains Mono" font-size="13" lengthAdjust="spacing" textLength="208" x="29" y="331.6599">Response status code - 503</text><line style="stroke:#000000;stroke-width:1.0;stroke-dasharray:2.0,2.0;" x1="3" x2="416" y1="353.5599" y2="353.5599"/><text fill="#000000" font-family="JetBrains Mono" font-size="11" font-weight="bold" lengthAdjust="spacing" textLength="133" x="8" y="364.7798">[user unauthorized]</text><polygon fill="#181818" points="11,388.2398,1,392.2398,11,396.2398,7,392.2398" style="stroke:#181818;stroke-width:1.0;"/><line style="stroke:#181818;stroke-width:1.0;stroke-dasharray:2.0,2.0;" x1="5" x2="245" y1="392.2398" y2="392.2398"/><text fill="#000000" font-family="JetBrains Mono" font-size="13" font-weight="bold" lengthAdjust="spacing" textLength="8" x="17" y="386.3398">6</text><text fill="#000000" font-family="JetBrains Mono" font-size="13" lengthAdjust="spacing" textLength="208" x="29" y="386.3398">Response status code - 401</text><!--SRC=[ZOzDImCn48Rlyok6NdfQMBykPIaOjXK4FQX_O9fCQsWsMP99GN-zqrPaxKLl0_C-xmTLIR4E6yvGzZwEb6d0aUoUTlmg7u4nivN9p_6MQf1rYl9C0-CZYydaOy6d51E0U57eOVMcO4arMou0YegtVgGeE3FgtgoYco4LD2liEfk6CKMEibo28w4D5SPPhvVHwwJhpOKEcgN2Yyia2eArS4Qgyfwo_sG7C5_xwF0-XBaAhFW32IiCeEbgqvi5ReyA2c4Yw0s0nZRd8037lrw8NTESAhnmqLfQkGX9BMYJOspmkctFVNucrKW7ye4sWV_1txKt01orFuSZV5ob3fDTVrhSjbVV5by0]--></g></svg>