<?xml version="1.0" encoding="us-ascii" standalone="no"?><svg xmlns="http://www.w3.org/2000/svg" xmlns:xlink="http://www.w3.org/1999/xlink" contentStyleType="text/css" height="996px" preserveAspectRatio="none" style="width:702px;height:996px;background:#FFFFFF;" version="1.1" viewBox="0 0 702 996" width="702px" zoomAndPan="magnify"><defs/><g><text fill="#000000" font-family="sans-serif" font-size="14" font-weight="bold" lengthAdjust="spacing" textLength="88" x="308.75" y="30.1074">Create Floor</text><rect fill="#FFFFFF" height="709.3438" style="stroke:#181818;stroke-width:1.0;" width="10" x="392" y="178.4453"/><rect fill="#FFFFFF" height="31.291" style="stroke:#181818;stroke-width:1.0;" width="10" x="639" y="209.7363"/><rect fill="#FFFFFF" height="31.291" style="stroke:#181818;stroke-width:1.0;" width="10" x="639" y="384.8223"/><rect fill="#FFFFFF" height="31.291" style="stroke:#181818;stroke-width:1.0;" width="10" x="639" y="559.9082"/><rect fill="#FFFFFF" height="31.291" style="stroke:#181818;stroke-width:1.0;" width="10" x="639" y="734.9941"/><rect fill="none" height="98.5039" style="stroke:#000000;stroke-width:1.5;" width="457" x="3" y="256.0273"/><rect fill="none" height="98.5039" style="stroke:#000000;stroke-width:1.5;" width="457" x="3" y="431.1133"/><rect fill="none" height="98.5039" style="stroke:#000000;stroke-width:1.5;" width="457" x="3" y="606.1992"/><rect fill="none" height="98.5039" style="stroke:#000000;stroke-width:1.5;" width="457" x="3" y="781.2852"/><line style="stroke:#181818;stroke-width:0.5;stroke-dasharray:5.0,5.0;" x1="397" x2="397" y1="127.8633" y2="896.7891"/><line style="stroke:#181818;stroke-width:0.5;stroke-dasharray:5.0,5.0;" x1="643.5" x2="643.5" y1="127.8633" y2="896.7891"/><rect fill="#E2E2F0" height="51.2422" rx="2.5" ry="2.5" style="stroke:#181818;stroke-width:0.5;" width="106" x="344" y="75.6211"/><text fill="#000000" font-family="sans-serif" font-size="14" font-style="italic" lengthAdjust="spacing" textLength="86" x="354" y="97.7285">&#171;component&#187;</text><text fill="#000000" font-family="sans-serif" font-size="14" lengthAdjust="spacing" textLength="92" x="351" y="116.3496">Node Backend</text><rect fill="#E2E2F0" height="51.2422" rx="2.5" ry="2.5" style="stroke:#181818;stroke-width:0.5;" width="106" x="344" y="895.7891"/><text fill="#000000" font-family="sans-serif" font-size="14" font-style="italic" lengthAdjust="spacing" textLength="86" x="354" y="917.8965">&#171;component&#187;</text><text fill="#000000" font-family="sans-serif" font-size="14" lengthAdjust="spacing" textLength="92" x="351" y="936.5176">Node Backend</text><text fill="#000000" font-family="sans-serif" font-size="14" font-style="italic" lengthAdjust="spacing" textLength="86" x="598" y="105.7285">&#171;component&#187;</text><text fill="#000000" font-family="sans-serif" font-size="14" lengthAdjust="spacing" textLength="109" x="586.5" y="124.3496">Mongo DataBase</text><path d="M626,54.6211 C626,44.6211 644,44.6211 644,44.6211 C644,44.6211 662,44.6211 662,54.6211 L662,80.6211 C662,90.6211 644,90.6211 644,90.6211 C644,90.6211 626,90.6211 626,80.6211 L626,54.6211 " fill="#E2E2F0" style="stroke:#181818;stroke-width:1.5;"/><path d="M626,54.6211 C626,64.6211 644,64.6211 644,64.6211 C644,64.6211 662,64.6211 662,54.6211 " fill="none" style="stroke:#181818;stroke-width:1.5;"/><text fill="#000000" font-family="sans-serif" font-size="14" font-style="italic" lengthAdjust="spacing" textLength="86" x="598" y="910.8965">&#171;component&#187;</text><text fill="#000000" font-family="sans-serif" font-size="14" lengthAdjust="spacing" textLength="109" x="586.5" y="929.5176">Mongo DataBase</text><path d="M626,943.0313 C626,933.0313 644,933.0313 644,933.0313 C644,933.0313 662,933.0313 662,943.0313 L662,969.0313 C662,979.0313 644,979.0313 644,979.0313 C644,979.0313 626,979.0313 626,969.0313 L626,943.0313 " fill="#E2E2F0" style="stroke:#181818;stroke-width:1.5;"/><path d="M626,943.0313 C626,953.0313 644,953.0313 644,953.0313 C644,953.0313 662,953.0313 662,943.0313 " fill="none" style="stroke:#181818;stroke-width:1.5;"/><rect fill="#FFFFFF" height="709.3438" style="stroke:#181818;stroke-width:1.0;" width="10" x="392" y="178.4453"/><rect fill="#FFFFFF" height="31.291" style="stroke:#181818;stroke-width:1.0;" width="10" x="639" y="209.7363"/><rect fill="#FFFFFF" height="31.291" style="stroke:#181818;stroke-width:1.0;" width="10" x="639" y="384.8223"/><rect fill="#FFFFFF" height="31.291" style="stroke:#181818;stroke-width:1.0;" width="10" x="639" y="559.9082"/><rect fill="#FFFFFF" height="31.291" style="stroke:#181818;stroke-width:1.0;" width="10" x="639" y="734.9941"/><polygon fill="#181818" points="380,174.4453,390,178.4453,380,182.4453,384,178.4453" style="stroke:#181818;stroke-width:1.0;"/><line style="stroke:#181818;stroke-width:1.0;" x1="0" x2="386" y1="178.4453" y2="178.4453"/><text fill="#000000" font-family="sans-serif" font-size="13" font-weight="bold" lengthAdjust="spacing" textLength="7" x="7" y="164.5371">1</text><text fill="#000000" font-family="sans-serif" font-size="13" lengthAdjust="spacing" textLength="325" x="18" y="155.8916">POST floors/{domainId?: domainId, buildingId: buildingId,</text><text fill="#000000" font-family="sans-serif" font-size="13" lengthAdjust="spacing" textLength="351" x="22" y="173.1826">floorNumber: floorNumber, floorDescription?: floorDescription}</text><polygon fill="#181818" points="627,205.7363,637,209.7363,627,213.7363,631,209.7363" style="stroke:#181818;stroke-width:1.0;"/><line style="stroke:#181818;stroke-width:1.0;" x1="402" x2="633" y1="209.7363" y2="209.7363"/><text fill="#000000" font-family="sans-serif" font-size="13" font-weight="bold" lengthAdjust="spacing" textLength="7" x="409" y="204.4736">2</text><text fill="#000000" font-family="sans-serif" font-size="13" lengthAdjust="spacing" textLength="100" x="420" y="204.4736">find by building id</text><polygon fill="#181818" points="413,237.0273,403,241.0273,413,245.0273,409,241.0273" style="stroke:#181818;stroke-width:1.0;"/><line style="stroke:#181818;stroke-width:1.0;stroke-dasharray:2.0,2.0;" x1="407" x2="643" y1="241.0273" y2="241.0273"/><text fill="#000000" font-family="sans-serif" font-size="13" font-weight="bold" lengthAdjust="spacing" textLength="7" x="419" y="235.7646">3</text><text fill="#000000" font-family="sans-serif" font-size="13" lengthAdjust="spacing" textLength="4" x="430" y="235.7646">&#160;</text><path d="M3,256.0273 L64,256.0273 L64,265.3184 L54,275.3184 L3,275.3184 L3,256.0273 " fill="#EEEEEE" style="stroke:#000000;stroke-width:1.5;"/><rect fill="none" height="98.5039" style="stroke:#000000;stroke-width:1.5;" width="457" x="3" y="256.0273"/><text fill="#000000" font-family="sans-serif" font-size="13" font-weight="bold" lengthAdjust="spacing" textLength="16" x="18" y="271.0557">alt</text><text fill="#000000" font-family="sans-serif" font-size="11" font-weight="bold" lengthAdjust="spacing" textLength="108" x="79" y="269.8975">[building not found]</text><polygon fill="#181818" points="11,294.6094,1,298.6094,11,302.6094,7,298.6094" style="stroke:#181818;stroke-width:1.0;"/><line style="stroke:#181818;stroke-width:1.0;stroke-dasharray:2.0,2.0;" x1="5" x2="391" y1="298.6094" y2="298.6094"/><text fill="#000000" font-family="sans-serif" font-size="13" font-weight="bold" lengthAdjust="spacing" textLength="7" x="17" y="293.3467">4</text><text fill="#000000" font-family="sans-serif" font-size="13" lengthAdjust="spacing" textLength="163" x="28" y="293.3467">Response status code - 404</text><line style="stroke:#000000;stroke-width:1.0;stroke-dasharray:2.0,2.0;" x1="3" x2="460" y1="307.6094" y2="307.6094"/><text fill="#000000" font-family="sans-serif" font-size="11" font-weight="bold" lengthAdjust="spacing" textLength="122" x="8" y="319.4795">[database unavailable]</text><polygon fill="#181818" points="11,342.5313,1,346.5313,11,350.5313,7,346.5313" style="stroke:#181818;stroke-width:1.0;"/><line style="stroke:#181818;stroke-width:1.0;stroke-dasharray:2.0,2.0;" x1="5" x2="391" y1="346.5313" y2="346.5313"/><text fill="#000000" font-family="sans-serif" font-size="13" font-weight="bold" lengthAdjust="spacing" textLength="7" x="17" y="341.2686">5</text><text fill="#000000" font-family="sans-serif" font-size="13" lengthAdjust="spacing" textLength="163" x="28" y="341.2686">Response status code - 503</text><polygon fill="#181818" points="627,380.8223,637,384.8223,627,388.8223,631,384.8223" style="stroke:#181818;stroke-width:1.0;"/><line style="stroke:#181818;stroke-width:1.0;" x1="402" x2="633" y1="384.8223" y2="384.8223"/><text fill="#000000" font-family="sans-serif" font-size="13" font-weight="bold" lengthAdjust="spacing" textLength="7" x="409" y="379.5596">6</text><text fill="#000000" font-family="sans-serif" font-size="13" lengthAdjust="spacing" textLength="80" x="420" y="379.5596">find by floor id</text><polygon fill="#181818" points="413,412.1133,403,416.1133,413,420.1133,409,416.1133" style="stroke:#181818;stroke-width:1.0;"/><line style="stroke:#181818;stroke-width:1.0;stroke-dasharray:2.0,2.0;" x1="407" x2="643" y1="416.1133" y2="416.1133"/><text fill="#000000" font-family="sans-serif" font-size="13" font-weight="bold" lengthAdjust="spacing" textLength="7" x="419" y="410.8506">7</text><text fill="#000000" font-family="sans-serif" font-size="13" lengthAdjust="spacing" textLength="4" x="430" y="410.8506">&#160;</text><path d="M3,431.1133 L64,431.1133 L64,440.4043 L54,450.4043 L3,450.4043 L3,431.1133 " fill="#EEEEEE" style="stroke:#000000;stroke-width:1.5;"/><rect fill="none" height="98.5039" style="stroke:#000000;stroke-width:1.5;" width="457" x="3" y="431.1133"/><text fill="#000000" font-family="sans-serif" font-size="13" font-weight="bold" lengthAdjust="spacing" textLength="16" x="18" y="446.1416">alt</text><text fill="#000000" font-family="sans-serif" font-size="11" font-weight="bold" lengthAdjust="spacing" textLength="114" x="79" y="444.9834">[floor already exists]</text><polygon fill="#181818" points="11,469.6953,1,473.6953,11,477.6953,7,473.6953" style="stroke:#181818;stroke-width:1.0;"/><line style="stroke:#181818;stroke-width:1.0;stroke-dasharray:2.0,2.0;" x1="5" x2="391" y1="473.6953" y2="473.6953"/><text fill="#000000" font-family="sans-serif" font-size="13" font-weight="bold" lengthAdjust="spacing" textLength="7" x="17" y="468.4326">8</text><text fill="#000000" font-family="sans-serif" font-size="13" lengthAdjust="spacing" textLength="163" x="28" y="468.4326">Response status code - 409</text><line style="stroke:#000000;stroke-width:1.0;stroke-dasharray:2.0,2.0;" x1="3" x2="460" y1="482.6953" y2="482.6953"/><text fill="#000000" font-family="sans-serif" font-size="11" font-weight="bold" lengthAdjust="spacing" textLength="122" x="8" y="494.5654">[database unavailable]</text><polygon fill="#181818" points="11,517.6172,1,521.6172,11,525.6172,7,521.6172" style="stroke:#181818;stroke-width:1.0;"/><line style="stroke:#181818;stroke-width:1.0;stroke-dasharray:2.0,2.0;" x1="5" x2="391" y1="521.6172" y2="521.6172"/><text fill="#000000" font-family="sans-serif" font-size="13" font-weight="bold" lengthAdjust="spacing" textLength="7" x="17" y="516.3545">9</text><text fill="#000000" font-family="sans-serif" font-size="13" lengthAdjust="spacing" textLength="163" x="28" y="516.3545">Response status code - 503</text><polygon fill="#181818" points="627,555.9082,637,559.9082,627,563.9082,631,559.9082" style="stroke:#181818;stroke-width:1.0;"/><line style="stroke:#181818;stroke-width:1.0;" x1="402" x2="633" y1="559.9082" y2="559.9082"/><text fill="#000000" font-family="sans-serif" font-size="13" font-weight="bold" lengthAdjust="spacing" textLength="14" x="409" y="554.6455">10</text><text fill="#000000" font-family="sans-serif" font-size="13" lengthAdjust="spacing" textLength="200" x="427" y="554.6455">find by floor number and building id</text><polygon fill="#181818" points="413,587.1992,403,591.1992,413,595.1992,409,591.1992" style="stroke:#181818;stroke-width:1.0;"/><line style="stroke:#181818;stroke-width:1.0;stroke-dasharray:2.0,2.0;" x1="407" x2="643" y1="591.1992" y2="591.1992"/><text fill="#000000" font-family="sans-serif" font-size="13" font-weight="bold" lengthAdjust="spacing" textLength="14" x="419" y="585.9365">11</text><text fill="#000000" font-family="sans-serif" font-size="13" lengthAdjust="spacing" textLength="4" x="437" y="585.9365">&#160;</text><path d="M3,606.1992 L64,606.1992 L64,615.4902 L54,625.4902 L3,625.4902 L3,606.1992 " fill="#EEEEEE" style="stroke:#000000;stroke-width:1.5;"/><rect fill="none" height="98.5039" style="stroke:#000000;stroke-width:1.5;" width="457" x="3" y="606.1992"/><text fill="#000000" font-family="sans-serif" font-size="13" font-weight="bold" lengthAdjust="spacing" textLength="16" x="18" y="621.2275">alt</text><text fill="#000000" font-family="sans-serif" font-size="11" font-weight="bold" lengthAdjust="spacing" textLength="114" x="79" y="620.0693">[floor already exists]</text><polygon fill="#181818" points="11,644.7813,1,648.7813,11,652.7813,7,648.7813" style="stroke:#181818;stroke-width:1.0;"/><line style="stroke:#181818;stroke-width:1.0;stroke-dasharray:2.0,2.0;" x1="5" x2="391" y1="648.7813" y2="648.7813"/><text fill="#000000" font-family="sans-serif" font-size="13" font-weight="bold" lengthAdjust="spacing" textLength="14" x="17" y="643.5186">12</text><text fill="#000000" font-family="sans-serif" font-size="13" lengthAdjust="spacing" textLength="163" x="35" y="643.5186">Response status code - 409</text><line style="stroke:#000000;stroke-width:1.0;stroke-dasharray:2.0,2.0;" x1="3" x2="460" y1="657.7813" y2="657.7813"/><text fill="#000000" font-family="sans-serif" font-size="11" font-weight="bold" lengthAdjust="spacing" textLength="122" x="8" y="669.6514">[database unavailable]</text><polygon fill="#181818" points="11,692.7031,1,696.7031,11,700.7031,7,696.7031" style="stroke:#181818;stroke-width:1.0;"/><line style="stroke:#181818;stroke-width:1.0;stroke-dasharray:2.0,2.0;" x1="5" x2="391" y1="696.7031" y2="696.7031"/><text fill="#000000" font-family="sans-serif" font-size="13" font-weight="bold" lengthAdjust="spacing" textLength="14" x="17" y="691.4404">13</text><text fill="#000000" font-family="sans-serif" font-size="13" lengthAdjust="spacing" textLength="163" x="35" y="691.4404">Response status code - 503</text><polygon fill="#181818" points="627,730.9941,637,734.9941,627,738.9941,631,734.9941" style="stroke:#181818;stroke-width:1.0;"/><line style="stroke:#181818;stroke-width:1.0;" x1="402" x2="633" y1="734.9941" y2="734.9941"/><text fill="#000000" font-family="sans-serif" font-size="13" font-weight="bold" lengthAdjust="spacing" textLength="14" x="409" y="729.7314">14</text><text fill="#000000" font-family="sans-serif" font-size="13" lengthAdjust="spacing" textLength="26" x="427" y="729.7314">save</text><polygon fill="#181818" points="413,762.2852,403,766.2852,413,770.2852,409,766.2852" style="stroke:#181818;stroke-width:1.0;"/><line style="stroke:#181818;stroke-width:1.0;stroke-dasharray:2.0,2.0;" x1="407" x2="643" y1="766.2852" y2="766.2852"/><text fill="#000000" font-family="sans-serif" font-size="13" font-weight="bold" lengthAdjust="spacing" textLength="14" x="419" y="761.0225">15</text><text fill="#000000" font-family="sans-serif" font-size="13" lengthAdjust="spacing" textLength="4" x="437" y="761.0225">&#160;</text><path d="M3,781.2852 L64,781.2852 L64,790.5762 L54,800.5762 L3,800.5762 L3,781.2852 " fill="#EEEEEE" style="stroke:#000000;stroke-width:1.5;"/><rect fill="none" height="98.5039" style="stroke:#000000;stroke-width:1.5;" width="457" x="3" y="781.2852"/><text fill="#000000" font-family="sans-serif" font-size="13" font-weight="bold" lengthAdjust="spacing" textLength="16" x="18" y="796.3135">alt</text><text fill="#000000" font-family="sans-serif" font-size="11" font-weight="bold" lengthAdjust="spacing" textLength="91" x="79" y="795.1553">[floor persisted]</text><polygon fill="#181818" points="11,819.8672,1,823.8672,11,827.8672,7,823.8672" style="stroke:#181818;stroke-width:1.0;"/><line style="stroke:#181818;stroke-width:1.0;stroke-dasharray:2.0,2.0;" x1="5" x2="391" y1="823.8672" y2="823.8672"/><text fill="#000000" font-family="sans-serif" font-size="13" font-weight="bold" lengthAdjust="spacing" textLength="14" x="17" y="818.6045">16</text><text fill="#000000" font-family="sans-serif" font-size="13" lengthAdjust="spacing" textLength="163" x="35" y="818.6045">Response status code - 201</text><line style="stroke:#000000;stroke-width:1.0;stroke-dasharray:2.0,2.0;" x1="3" x2="460" y1="832.8672" y2="832.8672"/><text fill="#000000" font-family="sans-serif" font-size="11" font-weight="bold" lengthAdjust="spacing" textLength="122" x="8" y="844.7373">[database unavailable]</text><polygon fill="#181818" points="11,867.7891,1,871.7891,11,875.7891,7,871.7891" style="stroke:#181818;stroke-width:1.0;"/><line style="stroke:#181818;stroke-width:1.0;stroke-dasharray:2.0,2.0;" x1="5" x2="391" y1="871.7891" y2="871.7891"/><text fill="#000000" font-family="sans-serif" font-size="13" font-weight="bold" lengthAdjust="spacing" textLength="14" x="17" y="866.5264">17</text><text fill="#000000" font-family="sans-serif" font-size="13" lengthAdjust="spacing" textLength="163" x="35" y="866.5264">Response status code - 503</text><!--SRC=[pPF1Rjim38RlV0eYbrnYB5kxmumWmJGdG0xhXdN7NcYB2OGuac7HGODXxpxQRjgiHG6twA4taY8fVJyfQYJuPfzp3N7dV4KrxR6YOaTRlfPZoLXp8G3YHErlDPCmhieGQW1D5bUuYhpWw2fOHgE5xEq8AQ9PucnMX7qLF7kPpy6IK4wHSVGz-6t0J7sZVfUTcKVPaCorHOe_Vrp_narxOVpmnuOzER-sYnHFvWJpnfNM-UtQfcVs16zyNtVLuQNdpgHtCev5xIfnmI_I9w6_0EELynRp8vgxlhZEnW1KY3kqGfWbW7BgKpEZ3UwIJuz0PyzoCmEWb4dF1M3vloCgvQ7G1y5DQBpM8ywIf5FY5qTLH_MBGj94B5h54xoSNW9mgV5xWHjF1t8bvIKFQF1vUg4DshiUUBi93uBjL7inQLz5fUwJFIBVkYXn4EkNDsOr9zP-CV1h6xiVjXtAttyXf3Rsskc_0qsUOOrquDUmL5n7fU0XQ_nf-l6DCFu1]--></g></svg>