<?xml version="1.0" encoding="us-ascii" standalone="no"?><svg xmlns="http://www.w3.org/2000/svg" xmlns:xlink="http://www.w3.org/1999/xlink" contentStyleType="text/css" height="817px" preserveAspectRatio="none" style="width:788px;height:817px;background:#FFFFFF;" version="1.1" viewBox="0 0 788 817" width="788px" zoomAndPan="magnify"><defs/><g><text fill="#000000" font-family="sans-serif" font-size="14" font-weight="bold" lengthAdjust="spacing" textLength="232" x="279.75" y="30.1074">List Passages Between Buildings</text><rect fill="#FFFFFF" height="548.5195" style="stroke:#181818;stroke-width:1.0;" width="10" x="491" y="161.1543"/><rect fill="#FFFFFF" height="31.291" style="stroke:#181818;stroke-width:1.0;" width="10" x="725" y="192.4453"/><rect fill="#FFFFFF" height="31.291" style="stroke:#181818;stroke-width:1.0;" width="10" x="725" y="367.5313"/><rect fill="#FFFFFF" height="31.291" style="stroke:#181818;stroke-width:1.0;" width="10" x="725" y="542.6172"/><rect fill="none" height="98.5039" style="stroke:#000000;stroke-width:1.5;" width="556" x="3" y="238.7363"/><rect fill="none" height="98.5039" style="stroke:#000000;stroke-width:1.5;" width="556" x="3" y="413.8223"/><rect fill="none" height="112.7656" style="stroke:#000000;stroke-width:1.5;" width="556" x="3" y="588.9082"/><line style="stroke:#181818;stroke-width:0.5;stroke-dasharray:5.0,5.0;" x1="496" x2="496" y1="127.8633" y2="718.6738"/><line style="stroke:#181818;stroke-width:0.5;stroke-dasharray:5.0,5.0;" x1="729.5" x2="729.5" y1="127.8633" y2="718.6738"/><rect fill="#E2E2F0" height="51.2422" rx="2.5" ry="2.5" style="stroke:#181818;stroke-width:0.5;" width="106" x="443" y="75.6211"/><text fill="#000000" font-family="sans-serif" font-size="14" font-style="italic" lengthAdjust="spacing" textLength="86" x="453" y="97.7285">&#171;component&#187;</text><text fill="#000000" font-family="sans-serif" font-size="14" lengthAdjust="spacing" textLength="92" x="450" y="116.3496">Node Backend</text><rect fill="#E2E2F0" height="51.2422" rx="2.5" ry="2.5" style="stroke:#181818;stroke-width:0.5;" width="106" x="443" y="717.6738"/><text fill="#000000" font-family="sans-serif" font-size="14" font-style="italic" lengthAdjust="spacing" textLength="86" x="453" y="739.7813">&#171;component&#187;</text><text fill="#000000" font-family="sans-serif" font-size="14" lengthAdjust="spacing" textLength="92" x="450" y="758.4023">Node Backend</text><text fill="#000000" font-family="sans-serif" font-size="14" font-style="italic" lengthAdjust="spacing" textLength="86" x="684" y="105.7285">&#171;component&#187;</text><text fill="#000000" font-family="sans-serif" font-size="14" lengthAdjust="spacing" textLength="109" x="672.5" y="124.3496">Mongo DataBase</text><path d="M712,54.6211 C712,44.6211 730,44.6211 730,44.6211 C730,44.6211 748,44.6211 748,54.6211 L748,80.6211 C748,90.6211 730,90.6211 730,90.6211 C730,90.6211 712,90.6211 712,80.6211 L712,54.6211 " fill="#E2E2F0" style="stroke:#181818;stroke-width:1.5;"/><path d="M712,54.6211 C712,64.6211 730,64.6211 730,64.6211 C730,64.6211 748,64.6211 748,54.6211 " fill="none" style="stroke:#181818;stroke-width:1.5;"/><text fill="#000000" font-family="sans-serif" font-size="14" font-style="italic" lengthAdjust="spacing" textLength="86" x="684" y="732.7813">&#171;component&#187;</text><text fill="#000000" font-family="sans-serif" font-size="14" lengthAdjust="spacing" textLength="109" x="672.5" y="751.4023">Mongo DataBase</text><path d="M712,764.916 C712,754.916 730,754.916 730,754.916 C730,754.916 748,754.916 748,764.916 L748,790.916 C748,800.916 730,800.916 730,800.916 C730,800.916 712,800.916 712,790.916 L712,764.916 " fill="#E2E2F0" style="stroke:#181818;stroke-width:1.5;"/><path d="M712,764.916 C712,774.916 730,774.916 730,774.916 C730,774.916 748,774.916 748,764.916 " fill="none" style="stroke:#181818;stroke-width:1.5;"/><rect fill="#FFFFFF" height="548.5195" style="stroke:#181818;stroke-width:1.0;" width="10" x="491" y="161.1543"/><rect fill="#FFFFFF" height="31.291" style="stroke:#181818;stroke-width:1.0;" width="10" x="725" y="192.4453"/><rect fill="#FFFFFF" height="31.291" style="stroke:#181818;stroke-width:1.0;" width="10" x="725" y="367.5313"/><rect fill="#FFFFFF" height="31.291" style="stroke:#181818;stroke-width:1.0;" width="10" x="725" y="542.6172"/><polygon fill="#181818" points="479,157.1543,489,161.1543,479,165.1543,483,161.1543" style="stroke:#181818;stroke-width:1.0;"/><line style="stroke:#181818;stroke-width:1.0;" x1="0" x2="485" y1="161.1543" y2="161.1543"/><text fill="#000000" font-family="sans-serif" font-size="13" font-weight="bold" lengthAdjust="spacing" textLength="7" x="7" y="155.8916">1</text><text fill="#000000" font-family="sans-serif" font-size="13" lengthAdjust="spacing" textLength="454" x="18" y="155.8916">GET passages/filter?firstBuildingId=firstBuildingId&amp;lastBuildingId=lastBuildingId</text><polygon fill="#181818" points="713,188.4453,723,192.4453,713,196.4453,717,192.4453" style="stroke:#181818;stroke-width:1.0;"/><line style="stroke:#181818;stroke-width:1.0;" x1="501" x2="719" y1="192.4453" y2="192.4453"/><text fill="#000000" font-family="sans-serif" font-size="13" font-weight="bold" lengthAdjust="spacing" textLength="7" x="508" y="187.1826">2</text><text fill="#000000" font-family="sans-serif" font-size="13" lengthAdjust="spacing" textLength="100" x="519" y="187.1826">find by building id</text><polygon fill="#181818" points="512,219.7363,502,223.7363,512,227.7363,508,223.7363" style="stroke:#181818;stroke-width:1.0;"/><line style="stroke:#181818;stroke-width:1.0;stroke-dasharray:2.0,2.0;" x1="506" x2="729" y1="223.7363" y2="223.7363"/><text fill="#000000" font-family="sans-serif" font-size="13" font-weight="bold" lengthAdjust="spacing" textLength="7" x="518" y="218.4736">3</text><text fill="#000000" font-family="sans-serif" font-size="13" lengthAdjust="spacing" textLength="4" x="529" y="218.4736">&#160;</text><path d="M3,238.7363 L64,238.7363 L64,248.0273 L54,258.0273 L3,258.0273 L3,238.7363 " fill="#EEEEEE" style="stroke:#000000;stroke-width:1.5;"/><rect fill="none" height="98.5039" style="stroke:#000000;stroke-width:1.5;" width="556" x="3" y="238.7363"/><text fill="#000000" font-family="sans-serif" font-size="13" font-weight="bold" lengthAdjust="spacing" textLength="16" x="18" y="253.7646">alt</text><text fill="#000000" font-family="sans-serif" font-size="11" font-weight="bold" lengthAdjust="spacing" textLength="108" x="79" y="252.6064">[building not found]</text><polygon fill="#181818" points="11,277.3184,1,281.3184,11,285.3184,7,281.3184" style="stroke:#181818;stroke-width:1.0;"/><line style="stroke:#181818;stroke-width:1.0;stroke-dasharray:2.0,2.0;" x1="5" x2="490" y1="281.3184" y2="281.3184"/><text fill="#000000" font-family="sans-serif" font-size="13" font-weight="bold" lengthAdjust="spacing" textLength="7" x="17" y="276.0557">4</text><text fill="#000000" font-family="sans-serif" font-size="13" lengthAdjust="spacing" textLength="163" x="28" y="276.0557">Response status code - 404</text><line style="stroke:#000000;stroke-width:1.0;stroke-dasharray:2.0,2.0;" x1="3" x2="559" y1="290.3184" y2="290.3184"/><text fill="#000000" font-family="sans-serif" font-size="11" font-weight="bold" lengthAdjust="spacing" textLength="122" x="8" y="302.1885">[database unavailable]</text><polygon fill="#181818" points="11,325.2402,1,329.2402,11,333.2402,7,329.2402" style="stroke:#181818;stroke-width:1.0;"/><line style="stroke:#181818;stroke-width:1.0;stroke-dasharray:2.0,2.0;" x1="5" x2="490" y1="329.2402" y2="329.2402"/><text fill="#000000" font-family="sans-serif" font-size="13" font-weight="bold" lengthAdjust="spacing" textLength="7" x="17" y="323.9775">5</text><text fill="#000000" font-family="sans-serif" font-size="13" lengthAdjust="spacing" textLength="163" x="28" y="323.9775">Response status code - 503</text><polygon fill="#181818" points="713,363.5313,723,367.5313,713,371.5313,717,367.5313" style="stroke:#181818;stroke-width:1.0;"/><line style="stroke:#181818;stroke-width:1.0;" x1="501" x2="719" y1="367.5313" y2="367.5313"/><text fill="#000000" font-family="sans-serif" font-size="13" font-weight="bold" lengthAdjust="spacing" textLength="7" x="508" y="362.2686">6</text><text fill="#000000" font-family="sans-serif" font-size="13" lengthAdjust="spacing" textLength="100" x="519" y="362.2686">find by building id</text><polygon fill="#181818" points="512,394.8223,502,398.8223,512,402.8223,508,398.8223" style="stroke:#181818;stroke-width:1.0;"/><line style="stroke:#181818;stroke-width:1.0;stroke-dasharray:2.0,2.0;" x1="506" x2="729" y1="398.8223" y2="398.8223"/><text fill="#000000" font-family="sans-serif" font-size="13" font-weight="bold" lengthAdjust="spacing" textLength="7" x="518" y="393.5596">7</text><text fill="#000000" font-family="sans-serif" font-size="13" lengthAdjust="spacing" textLength="4" x="529" y="393.5596">&#160;</text><path d="M3,413.8223 L64,413.8223 L64,423.1133 L54,433.1133 L3,433.1133 L3,413.8223 " fill="#EEEEEE" style="stroke:#000000;stroke-width:1.5;"/><rect fill="none" height="98.5039" style="stroke:#000000;stroke-width:1.5;" width="556" x="3" y="413.8223"/><text fill="#000000" font-family="sans-serif" font-size="13" font-weight="bold" lengthAdjust="spacing" textLength="16" x="18" y="428.8506">alt</text><text fill="#000000" font-family="sans-serif" font-size="11" font-weight="bold" lengthAdjust="spacing" textLength="108" x="79" y="427.6924">[building not found]</text><polygon fill="#181818" points="11,452.4043,1,456.4043,11,460.4043,7,456.4043" style="stroke:#181818;stroke-width:1.0;"/><line style="stroke:#181818;stroke-width:1.0;stroke-dasharray:2.0,2.0;" x1="5" x2="490" y1="456.4043" y2="456.4043"/><text fill="#000000" font-family="sans-serif" font-size="13" font-weight="bold" lengthAdjust="spacing" textLength="7" x="17" y="451.1416">8</text><text fill="#000000" font-family="sans-serif" font-size="13" lengthAdjust="spacing" textLength="163" x="28" y="451.1416">Response status code - 404</text><line style="stroke:#000000;stroke-width:1.0;stroke-dasharray:2.0,2.0;" x1="3" x2="559" y1="465.4043" y2="465.4043"/><text fill="#000000" font-family="sans-serif" font-size="11" font-weight="bold" lengthAdjust="spacing" textLength="122" x="8" y="477.2744">[database unavailable]</text><polygon fill="#181818" points="11,500.3262,1,504.3262,11,508.3262,7,504.3262" style="stroke:#181818;stroke-width:1.0;"/><line style="stroke:#181818;stroke-width:1.0;stroke-dasharray:2.0,2.0;" x1="5" x2="490" y1="504.3262" y2="504.3262"/><text fill="#000000" font-family="sans-serif" font-size="13" font-weight="bold" lengthAdjust="spacing" textLength="7" x="17" y="499.0635">9</text><text fill="#000000" font-family="sans-serif" font-size="13" lengthAdjust="spacing" textLength="163" x="28" y="499.0635">Response status code - 503</text><polygon fill="#181818" points="713,538.6172,723,542.6172,713,546.6172,717,542.6172" style="stroke:#181818;stroke-width:1.0;"/><line style="stroke:#181818;stroke-width:1.0;" x1="501" x2="719" y1="542.6172" y2="542.6172"/><text fill="#000000" font-family="sans-serif" font-size="13" font-weight="bold" lengthAdjust="spacing" textLength="14" x="508" y="537.3545">10</text><text fill="#000000" font-family="sans-serif" font-size="13" lengthAdjust="spacing" textLength="187" x="526" y="537.3545">find passages between buildings</text><polygon fill="#181818" points="512,569.9082,502,573.9082,512,577.9082,508,573.9082" style="stroke:#181818;stroke-width:1.0;"/><line style="stroke:#181818;stroke-width:1.0;stroke-dasharray:2.0,2.0;" x1="506" x2="729" y1="573.9082" y2="573.9082"/><text fill="#000000" font-family="sans-serif" font-size="13" font-weight="bold" lengthAdjust="spacing" textLength="14" x="518" y="568.6455">11</text><text fill="#000000" font-family="sans-serif" font-size="13" lengthAdjust="spacing" textLength="4" x="536" y="568.6455">&#160;</text><path d="M3,588.9082 L64,588.9082 L64,598.1992 L54,608.1992 L3,608.1992 L3,588.9082 " fill="#EEEEEE" style="stroke:#000000;stroke-width:1.5;"/><rect fill="none" height="112.7656" style="stroke:#000000;stroke-width:1.5;" width="556" x="3" y="588.9082"/><text fill="#000000" font-family="sans-serif" font-size="13" font-weight="bold" lengthAdjust="spacing" textLength="16" x="18" y="603.9365">alt</text><text fill="#000000" font-family="sans-serif" font-size="11" font-weight="bold" lengthAdjust="spacing" textLength="110" x="79" y="602.7783">[passages between</text><text fill="#000000" font-family="sans-serif" font-size="11" font-weight="bold" lengthAdjust="spacing" textLength="128" x="79" y="617.4092">buildings will be listed]</text><polygon fill="#181818" points="11,641.752,1,645.752,11,649.752,7,645.752" style="stroke:#181818;stroke-width:1.0;"/><line style="stroke:#181818;stroke-width:1.0;stroke-dasharray:2.0,2.0;" x1="5" x2="490" y1="645.752" y2="645.752"/><text fill="#000000" font-family="sans-serif" font-size="13" font-weight="bold" lengthAdjust="spacing" textLength="14" x="17" y="640.4893">12</text><text fill="#000000" font-family="sans-serif" font-size="13" lengthAdjust="spacing" textLength="163" x="35" y="640.4893">Response status code - 200</text><line style="stroke:#000000;stroke-width:1.0;stroke-dasharray:2.0,2.0;" x1="3" x2="559" y1="654.752" y2="654.752"/><text fill="#000000" font-family="sans-serif" font-size="11" font-weight="bold" lengthAdjust="spacing" textLength="122" x="8" y="666.6221">[database unavailable]</text><polygon fill="#181818" points="11,689.6738,1,693.6738,11,697.6738,7,693.6738" style="stroke:#181818;stroke-width:1.0;"/><line style="stroke:#181818;stroke-width:1.0;stroke-dasharray:2.0,2.0;" x1="5" x2="490" y1="693.6738" y2="693.6738"/><text fill="#000000" font-family="sans-serif" font-size="13" font-weight="bold" lengthAdjust="spacing" textLength="14" x="17" y="688.4111">13</text><text fill="#000000" font-family="sans-serif" font-size="13" lengthAdjust="spacing" textLength="163" x="35" y="688.4111">Response status code - 503</text><!--SRC=[tLDDImCn4BtFhnXwi7fOB5elKYiiMwMW8khHo-ncjeIcoRAPRUc_T-odhHGhUFAMoPltUE-HK2F1DvESQuXZwokgQO8L5MCQyQlC7MFDXG285Jq_s2ZuJ34g6Z5bcJ5xJ1lhZFMZ2A1yiOMjo0ksde9XJ5MBlMaXAM60lLuH9bNmxANV1qD2EKN6rcFmeu2PpgdEY-qitTk6fAyIrtW_U5EBInFdfNN2zMrfwoXh8qDpipUVEDg1TqU0zftr1lFv9WiECpoDed6gOBsSjG6e43ibqKW308sYRhBq6iiLCryphVcocwK06YHPMWSml0EHaotH1y4oD5xvYBqaMOHzuQW5Q4LgHfg8nMUf2NOxNG1sUh_fiF4q9UieTto4m5NdKWNymUmA_Vlag-Y77_GFsTUF4FCLCT_-XD_qy4tdtM-KS6QTKm2T_Zq-fg2BJkUF2le0]--></g></svg>