<?xml version="1.0" encoding="us-ascii" standalone="no"?><svg xmlns="http://www.w3.org/2000/svg" xmlns:xlink="http://www.w3.org/1999/xlink" contentStyleType="text/css" height="628px" preserveAspectRatio="none" style="width:606px;height:628px;background:#FFFFFF;" version="1.1" viewBox="0 0 606 628" width="606px" zoomAndPan="magnify"><defs/><g><text fill="#000000" font-family="sans-serif" font-size="14" font-weight="bold" lengthAdjust="spacing" textLength="242" x="183.75" y="30.1074">List Building Floors With Elevators</text><rect fill="#FFFFFF" height="359.1719" style="stroke:#181818;stroke-width:1.0;" width="10" x="297" y="161.1543"/><rect fill="#FFFFFF" height="31.291" style="stroke:#181818;stroke-width:1.0;" width="10" x="543" y="192.4453"/><rect fill="#FFFFFF" height="31.291" style="stroke:#181818;stroke-width:1.0;" width="10" x="543" y="367.5313"/><rect fill="none" height="98.5039" style="stroke:#000000;stroke-width:1.5;" width="362" x="3" y="238.7363"/><rect fill="none" height="98.5039" style="stroke:#000000;stroke-width:1.5;" width="362" x="3" y="413.8223"/><line style="stroke:#181818;stroke-width:0.5;stroke-dasharray:5.0,5.0;" x1="302" x2="302" y1="127.8633" y2="529.3262"/><line style="stroke:#181818;stroke-width:0.5;stroke-dasharray:5.0,5.0;" x1="547.5" x2="547.5" y1="127.8633" y2="529.3262"/><rect fill="#E2E2F0" height="51.2422" rx="2.5" ry="2.5" style="stroke:#181818;stroke-width:0.5;" width="106" x="249" y="75.6211"/><text fill="#000000" font-family="sans-serif" font-size="14" font-style="italic" lengthAdjust="spacing" textLength="86" x="259" y="97.7285">&#171;component&#187;</text><text fill="#000000" font-family="sans-serif" font-size="14" lengthAdjust="spacing" textLength="92" x="256" y="116.3496">Node Backend</text><rect fill="#E2E2F0" height="51.2422" rx="2.5" ry="2.5" style="stroke:#181818;stroke-width:0.5;" width="106" x="249" y="528.3262"/><text fill="#000000" font-family="sans-serif" font-size="14" font-style="italic" lengthAdjust="spacing" textLength="86" x="259" y="550.4336">&#171;component&#187;</text><text fill="#000000" font-family="sans-serif" font-size="14" lengthAdjust="spacing" textLength="92" x="256" y="569.0547">Node Backend</text><text fill="#000000" font-family="sans-serif" font-size="14" font-style="italic" lengthAdjust="spacing" textLength="86" x="502" y="105.7285">&#171;component&#187;</text><text fill="#000000" font-family="sans-serif" font-size="14" lengthAdjust="spacing" textLength="109" x="490.5" y="124.3496">Mongo DataBase</text><path d="M530,54.6211 C530,44.6211 548,44.6211 548,44.6211 C548,44.6211 566,44.6211 566,54.6211 L566,80.6211 C566,90.6211 548,90.6211 548,90.6211 C548,90.6211 530,90.6211 530,80.6211 L530,54.6211 " fill="#E2E2F0" style="stroke:#181818;stroke-width:1.5;"/><path d="M530,54.6211 C530,64.6211 548,64.6211 548,64.6211 C548,64.6211 566,64.6211 566,54.6211 " fill="none" style="stroke:#181818;stroke-width:1.5;"/><text fill="#000000" font-family="sans-serif" font-size="14" font-style="italic" lengthAdjust="spacing" textLength="86" x="502" y="543.4336">&#171;component&#187;</text><text fill="#000000" font-family="sans-serif" font-size="14" lengthAdjust="spacing" textLength="109" x="490.5" y="562.0547">Mongo DataBase</text><path d="M530,575.5684 C530,565.5684 548,565.5684 548,565.5684 C548,565.5684 566,565.5684 566,575.5684 L566,601.5684 C566,611.5684 548,611.5684 548,611.5684 C548,611.5684 530,611.5684 530,601.5684 L530,575.5684 " fill="#E2E2F0" style="stroke:#181818;stroke-width:1.5;"/><path d="M530,575.5684 C530,585.5684 548,585.5684 548,585.5684 C548,585.5684 566,585.5684 566,575.5684 " fill="none" style="stroke:#181818;stroke-width:1.5;"/><rect fill="#FFFFFF" height="359.1719" style="stroke:#181818;stroke-width:1.0;" width="10" x="297" y="161.1543"/><rect fill="#FFFFFF" height="31.291" style="stroke:#181818;stroke-width:1.0;" width="10" x="543" y="192.4453"/><rect fill="#FFFFFF" height="31.291" style="stroke:#181818;stroke-width:1.0;" width="10" x="543" y="367.5313"/><polygon fill="#181818" points="285,157.1543,295,161.1543,285,165.1543,289,161.1543" style="stroke:#181818;stroke-width:1.0;"/><line style="stroke:#181818;stroke-width:1.0;" x1="0" x2="291" y1="161.1543" y2="161.1543"/><text fill="#000000" font-family="sans-serif" font-size="13" font-weight="bold" lengthAdjust="spacing" textLength="7" x="7" y="155.8916">1</text><text fill="#000000" font-family="sans-serif" font-size="13" lengthAdjust="spacing" textLength="260" x="18" y="155.8916">GET floors/inBuilding/{buildingId}/withElevator</text><polygon fill="#181818" points="531,188.4453,541,192.4453,531,196.4453,535,192.4453" style="stroke:#181818;stroke-width:1.0;"/><line style="stroke:#181818;stroke-width:1.0;" x1="307" x2="537" y1="192.4453" y2="192.4453"/><text fill="#000000" font-family="sans-serif" font-size="13" font-weight="bold" lengthAdjust="spacing" textLength="7" x="314" y="187.1826">2</text><text fill="#000000" font-family="sans-serif" font-size="13" lengthAdjust="spacing" textLength="146" x="325" y="187.1826">find building by domain id</text><polygon fill="#181818" points="318,219.7363,308,223.7363,318,227.7363,314,223.7363" style="stroke:#181818;stroke-width:1.0;"/><line style="stroke:#181818;stroke-width:1.0;stroke-dasharray:2.0,2.0;" x1="312" x2="547" y1="223.7363" y2="223.7363"/><text fill="#000000" font-family="sans-serif" font-size="13" font-weight="bold" lengthAdjust="spacing" textLength="7" x="324" y="218.4736">3</text><text fill="#000000" font-family="sans-serif" font-size="13" lengthAdjust="spacing" textLength="4" x="335" y="218.4736">&#160;</text><path d="M3,238.7363 L64,238.7363 L64,248.0273 L54,258.0273 L3,258.0273 L3,238.7363 " fill="#EEEEEE" style="stroke:#000000;stroke-width:1.5;"/><rect fill="none" height="98.5039" style="stroke:#000000;stroke-width:1.5;" width="362" x="3" y="238.7363"/><text fill="#000000" font-family="sans-serif" font-size="13" font-weight="bold" lengthAdjust="spacing" textLength="16" x="18" y="253.7646">alt</text><text fill="#000000" font-family="sans-serif" font-size="11" font-weight="bold" lengthAdjust="spacing" textLength="108" x="79" y="252.6064">[building not found]</text><polygon fill="#181818" points="11,277.3184,1,281.3184,11,285.3184,7,281.3184" style="stroke:#181818;stroke-width:1.0;"/><line style="stroke:#181818;stroke-width:1.0;stroke-dasharray:2.0,2.0;" x1="5" x2="296" y1="281.3184" y2="281.3184"/><text fill="#000000" font-family="sans-serif" font-size="13" font-weight="bold" lengthAdjust="spacing" textLength="7" x="17" y="276.0557">4</text><text fill="#000000" font-family="sans-serif" font-size="13" lengthAdjust="spacing" textLength="163" x="28" y="276.0557">Response status code - 404</text><line style="stroke:#000000;stroke-width:1.0;stroke-dasharray:2.0,2.0;" x1="3" x2="365" y1="290.3184" y2="290.3184"/><text fill="#000000" font-family="sans-serif" font-size="11" font-weight="bold" lengthAdjust="spacing" textLength="122" x="8" y="302.1885">[database unavailable]</text><polygon fill="#181818" points="11,325.2402,1,329.2402,11,333.2402,7,329.2402" style="stroke:#181818;stroke-width:1.0;"/><line style="stroke:#181818;stroke-width:1.0;stroke-dasharray:2.0,2.0;" x1="5" x2="296" y1="329.2402" y2="329.2402"/><text fill="#000000" font-family="sans-serif" font-size="13" font-weight="bold" lengthAdjust="spacing" textLength="7" x="17" y="323.9775">5</text><text fill="#000000" font-family="sans-serif" font-size="13" lengthAdjust="spacing" textLength="163" x="28" y="323.9775">Response status code - 503</text><polygon fill="#181818" points="531,363.5313,541,367.5313,531,371.5313,535,367.5313" style="stroke:#181818;stroke-width:1.0;"/><line style="stroke:#181818;stroke-width:1.0;" x1="307" x2="537" y1="367.5313" y2="367.5313"/><text fill="#000000" font-family="sans-serif" font-size="13" font-weight="bold" lengthAdjust="spacing" textLength="7" x="314" y="362.2686">6</text><text fill="#000000" font-family="sans-serif" font-size="13" lengthAdjust="spacing" textLength="206" x="325" y="362.2686">find floors with elevator by buildingId</text><polygon fill="#181818" points="318,394.8223,308,398.8223,318,402.8223,314,398.8223" style="stroke:#181818;stroke-width:1.0;"/><line style="stroke:#181818;stroke-width:1.0;stroke-dasharray:2.0,2.0;" x1="312" x2="547" y1="398.8223" y2="398.8223"/><text fill="#000000" font-family="sans-serif" font-size="13" font-weight="bold" lengthAdjust="spacing" textLength="7" x="324" y="393.5596">7</text><text fill="#000000" font-family="sans-serif" font-size="13" lengthAdjust="spacing" textLength="4" x="335" y="393.5596">&#160;</text><path d="M3,413.8223 L64,413.8223 L64,423.1133 L54,433.1133 L3,433.1133 L3,413.8223 " fill="#EEEEEE" style="stroke:#000000;stroke-width:1.5;"/><rect fill="none" height="98.5039" style="stroke:#000000;stroke-width:1.5;" width="362" x="3" y="413.8223"/><text fill="#000000" font-family="sans-serif" font-size="13" font-weight="bold" lengthAdjust="spacing" textLength="16" x="18" y="428.8506">alt</text><text fill="#000000" font-family="sans-serif" font-size="11" font-weight="bold" lengthAdjust="spacing" textLength="75" x="79" y="427.6924">[floors listed]</text><polygon fill="#181818" points="11,452.4043,1,456.4043,11,460.4043,7,456.4043" style="stroke:#181818;stroke-width:1.0;"/><line style="stroke:#181818;stroke-width:1.0;stroke-dasharray:2.0,2.0;" x1="5" x2="296" y1="456.4043" y2="456.4043"/><text fill="#000000" font-family="sans-serif" font-size="13" font-weight="bold" lengthAdjust="spacing" textLength="7" x="17" y="451.1416">8</text><text fill="#000000" font-family="sans-serif" font-size="13" lengthAdjust="spacing" textLength="163" x="28" y="451.1416">Response status code - 200</text><line style="stroke:#000000;stroke-width:1.0;stroke-dasharray:2.0,2.0;" x1="3" x2="365" y1="465.4043" y2="465.4043"/><text fill="#000000" font-family="sans-serif" font-size="11" font-weight="bold" lengthAdjust="spacing" textLength="122" x="8" y="477.2744">[database unavailable]</text><polygon fill="#181818" points="11,500.3262,1,504.3262,11,508.3262,7,504.3262" style="stroke:#181818;stroke-width:1.0;"/><line style="stroke:#181818;stroke-width:1.0;stroke-dasharray:2.0,2.0;" x1="5" x2="296" y1="504.3262" y2="504.3262"/><text fill="#000000" font-family="sans-serif" font-size="13" font-weight="bold" lengthAdjust="spacing" textLength="7" x="17" y="499.0635">9</text><text fill="#000000" font-family="sans-serif" font-size="13" lengthAdjust="spacing" textLength="163" x="28" y="499.0635">Response status code - 503</text><!--SRC=[hP9FJyCm3CNl_XJMBZjLgs1Sfcc7gXsQ11m0YRFRU2DQcbIDEpGXlZlk_W8NXiGjJlsUdtyDTH9yLvVSGbnRtr1BDJPKhMd5Jx9rZ2rN0Y1Mz7ndes3MMMUiN-7SXT16VB7oYeNZ3OcM0EeXjh8DUS71Gp2CcVgnDmEaY5c1qsaLwYPuzZARWI6XaYBZu3xuLS1SwqphNNUU_UY6PAOM4xmjdd6vcp-o_fXez5uUJWlpCNhJNCTO0CEvzUQSlTnY7cgo7XVv480giTgeKGi0ZQXJyco2orvJVj6OlSQQBv8y0z2SoJuPWE5ldyZ9sS87mMNelEeHfqcos-MHe-wd1AAGT16hdbc2utGCm4xlJuWwJnkoZah75nZSfDTgqCywR7_wIVqg9nI_0jXpnfudyi6YTpZ3_XkDew7JryINaBXAqtyYyGa0]--></g></svg>