<?xml version="1.0" encoding="us-ascii" standalone="no"?><svg xmlns="http://www.w3.org/2000/svg" xmlns:xlink="http://www.w3.org/1999/xlink" contentStyleType="text/css" height="453px" preserveAspectRatio="none" style="width:708px;height:453px;background:#FFFFFF;" version="1.1" viewBox="0 0 708 453" width="708px" zoomAndPan="magnify"><defs/><g><text fill="#000000" font-family="sans-serif" font-size="14" font-weight="bold" lengthAdjust="spacing" textLength="288" x="211.75" y="30.1074">List Tasks by State, RobisepType, or User</text><rect fill="#FFFFFF" height="184.0859" style="stroke:#181818;stroke-width:1.0;" width="10" x="420" y="161.1543"/><rect fill="#FFFFFF" height="31.291" style="stroke:#181818;stroke-width:1.0;" width="10" x="645" y="192.4453"/><rect fill="none" height="98.5039" style="stroke:#000000;stroke-width:1.5;" width="485" x="3" y="238.7363"/><line style="stroke:#181818;stroke-width:0.5;stroke-dasharray:5.0,5.0;" x1="425" x2="425" y1="127.8633" y2="354.2402"/><line style="stroke:#181818;stroke-width:0.5;stroke-dasharray:5.0,5.0;" x1="649.5" x2="649.5" y1="127.8633" y2="354.2402"/><rect fill="#E2E2F0" height="51.2422" rx="2.5" ry="2.5" style="stroke:#181818;stroke-width:0.5;" width="106" x="372" y="75.6211"/><text fill="#000000" font-family="sans-serif" font-size="14" font-style="italic" lengthAdjust="spacing" textLength="86" x="382" y="97.7285">&#171;component&#187;</text><text fill="#000000" font-family="sans-serif" font-size="14" lengthAdjust="spacing" textLength="92" x="379" y="116.3496">Node Backend</text><rect fill="#E2E2F0" height="51.2422" rx="2.5" ry="2.5" style="stroke:#181818;stroke-width:0.5;" width="106" x="372" y="353.2402"/><text fill="#000000" font-family="sans-serif" font-size="14" font-style="italic" lengthAdjust="spacing" textLength="86" x="382" y="375.3477">&#171;component&#187;</text><text fill="#000000" font-family="sans-serif" font-size="14" lengthAdjust="spacing" textLength="92" x="379" y="393.9688">Node Backend</text><text fill="#000000" font-family="sans-serif" font-size="14" font-style="italic" lengthAdjust="spacing" textLength="86" x="604" y="105.7285">&#171;component&#187;</text><text fill="#000000" font-family="sans-serif" font-size="14" lengthAdjust="spacing" textLength="109" x="592.5" y="124.3496">Mongo DataBase</text><path d="M632,54.6211 C632,44.6211 650,44.6211 650,44.6211 C650,44.6211 668,44.6211 668,54.6211 L668,80.6211 C668,90.6211 650,90.6211 650,90.6211 C650,90.6211 632,90.6211 632,80.6211 L632,54.6211 " fill="#E2E2F0" style="stroke:#181818;stroke-width:1.5;"/><path d="M632,54.6211 C632,64.6211 650,64.6211 650,64.6211 C650,64.6211 668,64.6211 668,54.6211 " fill="none" style="stroke:#181818;stroke-width:1.5;"/><text fill="#000000" font-family="sans-serif" font-size="14" font-style="italic" lengthAdjust="spacing" textLength="86" x="604" y="368.3477">&#171;component&#187;</text><text fill="#000000" font-family="sans-serif" font-size="14" lengthAdjust="spacing" textLength="109" x="592.5" y="386.9688">Mongo DataBase</text><path d="M632,400.4824 C632,390.4824 650,390.4824 650,390.4824 C650,390.4824 668,390.4824 668,400.4824 L668,426.4824 C668,436.4824 650,436.4824 650,436.4824 C650,436.4824 632,436.4824 632,426.4824 L632,400.4824 " fill="#E2E2F0" style="stroke:#181818;stroke-width:1.5;"/><path d="M632,400.4824 C632,410.4824 650,410.4824 650,410.4824 C650,410.4824 668,410.4824 668,400.4824 " fill="none" style="stroke:#181818;stroke-width:1.5;"/><rect fill="#FFFFFF" height="184.0859" style="stroke:#181818;stroke-width:1.0;" width="10" x="420" y="161.1543"/><rect fill="#FFFFFF" height="31.291" style="stroke:#181818;stroke-width:1.0;" width="10" x="645" y="192.4453"/><polygon fill="#181818" points="408,157.1543,418,161.1543,408,165.1543,412,161.1543" style="stroke:#181818;stroke-width:1.0;"/><line style="stroke:#181818;stroke-width:1.0;" x1="0" x2="414" y1="161.1543" y2="161.1543"/><text fill="#000000" font-family="sans-serif" font-size="13" font-weight="bold" lengthAdjust="spacing" textLength="7" x="7" y="155.8916">1</text><text fill="#000000" font-family="sans-serif" font-size="13" lengthAdjust="spacing" textLength="383" x="18" y="155.8916">GET tasks?state={state}&amp;robisepType={robisepType}&amp;user={user}</text><polygon fill="#181818" points="633,188.4453,643,192.4453,633,196.4453,637,192.4453" style="stroke:#181818;stroke-width:1.0;"/><line style="stroke:#181818;stroke-width:1.0;" x1="430" x2="639" y1="192.4453" y2="192.4453"/><text fill="#000000" font-family="sans-serif" font-size="13" font-weight="bold" lengthAdjust="spacing" textLength="7" x="437" y="187.1826">2</text><text fill="#000000" font-family="sans-serif" font-size="13" lengthAdjust="spacing" textLength="185" x="448" y="187.1826">find by state and type and email</text><polygon fill="#181818" points="441,219.7363,431,223.7363,441,227.7363,437,223.7363" style="stroke:#181818;stroke-width:1.0;"/><line style="stroke:#181818;stroke-width:1.0;stroke-dasharray:2.0,2.0;" x1="435" x2="649" y1="223.7363" y2="223.7363"/><text fill="#000000" font-family="sans-serif" font-size="13" font-weight="bold" lengthAdjust="spacing" textLength="7" x="447" y="218.4736">3</text><text fill="#000000" font-family="sans-serif" font-size="13" lengthAdjust="spacing" textLength="4" x="458" y="218.4736">&#160;</text><path d="M3,238.7363 L64,238.7363 L64,248.0273 L54,258.0273 L3,258.0273 L3,238.7363 " fill="#EEEEEE" style="stroke:#000000;stroke-width:1.5;"/><rect fill="none" height="98.5039" style="stroke:#000000;stroke-width:1.5;" width="485" x="3" y="238.7363"/><text fill="#000000" font-family="sans-serif" font-size="13" font-weight="bold" lengthAdjust="spacing" textLength="16" x="18" y="253.7646">alt</text><text fill="#000000" font-family="sans-serif" font-size="11" font-weight="bold" lengthAdjust="spacing" textLength="238" x="79" y="252.6064">[tasks with state and type and email found]</text><polygon fill="#181818" points="11,277.3184,1,281.3184,11,285.3184,7,281.3184" style="stroke:#181818;stroke-width:1.0;"/><line style="stroke:#181818;stroke-width:1.0;stroke-dasharray:2.0,2.0;" x1="5" x2="419" y1="281.3184" y2="281.3184"/><text fill="#000000" font-family="sans-serif" font-size="13" font-weight="bold" lengthAdjust="spacing" textLength="7" x="17" y="276.0557">4</text><text fill="#000000" font-family="sans-serif" font-size="13" lengthAdjust="spacing" textLength="163" x="28" y="276.0557">Response status code - 200</text><line style="stroke:#000000;stroke-width:1.0;stroke-dasharray:2.0,2.0;" x1="3" x2="488" y1="290.3184" y2="290.3184"/><text fill="#000000" font-family="sans-serif" font-size="11" font-weight="bold" lengthAdjust="spacing" textLength="122" x="8" y="302.1885">[database unavailable]</text><polygon fill="#181818" points="11,325.2402,1,329.2402,11,333.2402,7,329.2402" style="stroke:#181818;stroke-width:1.0;"/><line style="stroke:#181818;stroke-width:1.0;stroke-dasharray:2.0,2.0;" x1="5" x2="419" y1="329.2402" y2="329.2402"/><text fill="#000000" font-family="sans-serif" font-size="13" font-weight="bold" lengthAdjust="spacing" textLength="7" x="17" y="323.9775">5</text><text fill="#000000" font-family="sans-serif" font-size="13" lengthAdjust="spacing" textLength="163" x="28" y="323.9775">Response status code - 503</text><!--SRC=[ZP1HIyD03CVVyod27ZO52qFnPMmLZauHr8TjVe2qpUQnzgxqSfCnzjrDEz4f2BxSvN-N_F9FA8ftiSwvXR2rhg6MQcoesDA6bxAl65ik142iQFnaW-2AmZPWliUbaF0LBdnk0pUhVQF2j_WQ50PA4blOXfpWuCMNZ4QfxCe1Ka0pn-cqy7NZ7Jj9KoX9AAV0E7ZsRkCnKsrKzzcP-PKDIQg82JxCLoYTdRlGUPaT-kiuRByjpGvduZYCQcvswCuZmEZUkhARn4HRbTPjy3732sMqqdZhv784G8NOdKAr7u3QriwPcU3wix9lYAH2bDy7N9EjpWep0w0J92VF02N_-A9AJZFWkvMtFu6uzj6L08ZJ9Ec7Nt3GXUZAkf8OiEYMdE3rU0p0bRv_xJGwsYc2yeh_0RWTtoX0Utq0]--></g></svg>