<?xml version="1.0" encoding="us-ascii" standalone="no"?><svg xmlns="http://www.w3.org/2000/svg" xmlns:xlink="http://www.w3.org/1999/xlink" contentStyleType="text/css" height="517px" preserveAspectRatio="none" style="width:517px;height:517px;background:#FFFFFF;" version="1.1" viewBox="0 0 517 517" width="517px" zoomAndPan="magnify"><defs/><g><text fill="#000000" font-family="sans-serif" font-size="14" font-weight="bold" lengthAdjust="spacing" textLength="109" x="205.25" y="30.1074">Edit {Resource}</text><rect fill="#FFFFFF" height="254.2988" style="stroke:#181818;stroke-width:1.0;" width="10" x="54.5" y="151.8633"/><rect fill="#FFFFFF" height="216.0078" style="stroke:#181818;stroke-width:1.0;" width="10" x="442.5" y="175.1543"/><rect fill="none" height="146.4258" style="stroke:#000000;stroke-width:1.5;" width="500.5" x="10" y="252.7363"/><line style="stroke:#181818;stroke-width:0.5;stroke-dasharray:5.0,5.0;" x1="59" x2="59" y1="141.8633" y2="416.1621"/><line style="stroke:#181818;stroke-width:0.5;stroke-dasharray:5.0,5.0;" x1="447.5" x2="447.5" y1="141.8633" y2="416.1621"/><text fill="#000000" font-family="sans-serif" font-size="14" font-style="italic" lengthAdjust="spacing" textLength="73" x="20" y="119.7285">&#171;DEI User&#187;</text><text fill="#000000" font-family="sans-serif" font-size="14" lengthAdjust="spacing" textLength="29" x="42" y="138.3496">User</text><ellipse cx="59.5" cy="53.1211" fill="#E2E2F0" rx="8" ry="8" style="stroke:#181818;stroke-width:0.5;"/><path d="M59.5,61.1211 L59.5,88.1211 M46.5,69.1211 L72.5,69.1211 M59.5,88.1211 L46.5,103.1211 M59.5,88.1211 L72.5,103.1211 " fill="none" style="stroke:#181818;stroke-width:0.5;"/><text fill="#000000" font-family="sans-serif" font-size="14" font-style="italic" lengthAdjust="spacing" textLength="73" x="20" y="430.2695">&#171;DEI User&#187;</text><text fill="#000000" font-family="sans-serif" font-size="14" lengthAdjust="spacing" textLength="29" x="42" y="448.8906">User</text><ellipse cx="59.5" cy="460.9043" fill="#E2E2F0" rx="8" ry="8" style="stroke:#181818;stroke-width:0.5;"/><path d="M59.5,468.9043 L59.5,495.9043 M46.5,476.9043 L72.5,476.9043 M59.5,495.9043 L46.5,510.9043 M59.5,495.9043 L72.5,510.9043 " fill="none" style="stroke:#181818;stroke-width:0.5;"/><rect fill="#E2E2F0" height="51.2422" rx="2.5" ry="2.5" style="stroke:#181818;stroke-width:0.5;" width="106" x="394.5" y="89.6211"/><text fill="#000000" font-family="sans-serif" font-size="14" font-style="italic" lengthAdjust="spacing" textLength="92" x="401.5" y="111.7285">&#171;system (C4)&#187;</text><text fill="#000000" font-family="sans-serif" font-size="14" lengthAdjust="spacing" textLength="84" x="405.5" y="130.3496">RobDroneGo</text><rect fill="#E2E2F0" height="51.2422" rx="2.5" ry="2.5" style="stroke:#181818;stroke-width:0.5;" width="106" x="394.5" y="415.1621"/><text fill="#000000" font-family="sans-serif" font-size="14" font-style="italic" lengthAdjust="spacing" textLength="92" x="401.5" y="437.2695">&#171;system (C4)&#187;</text><text fill="#000000" font-family="sans-serif" font-size="14" lengthAdjust="spacing" textLength="84" x="405.5" y="455.8906">RobDroneGo</text><rect fill="#FFFFFF" height="254.2988" style="stroke:#181818;stroke-width:1.0;" width="10" x="54.5" y="151.8633"/><rect fill="#FFFFFF" height="216.0078" style="stroke:#181818;stroke-width:1.0;" width="10" x="442.5" y="175.1543"/><polygon fill="#181818" points="430.5,171.1543,440.5,175.1543,430.5,179.1543,434.5,175.1543" style="stroke:#181818;stroke-width:1.0;"/><line style="stroke:#181818;stroke-width:1.0;" x1="64.5" x2="436.5" y1="175.1543" y2="175.1543"/><text fill="#000000" font-family="sans-serif" font-size="13" font-weight="bold" lengthAdjust="spacing" textLength="7" x="71.5" y="169.8916">1</text><text fill="#000000" font-family="sans-serif" font-size="13" lengthAdjust="spacing" textLength="130" x="82.5" y="169.8916">Ask to edit {Resource}</text><polygon fill="#181818" points="75.5,202.4453,65.5,206.4453,75.5,210.4453,71.5,206.4453" style="stroke:#181818;stroke-width:1.0;"/><line style="stroke:#181818;stroke-width:1.0;stroke-dasharray:2.0,2.0;" x1="69.5" x2="441.5" y1="206.4453" y2="206.4453"/><text fill="#000000" font-family="sans-serif" font-size="13" font-weight="bold" lengthAdjust="spacing" textLength="7" x="81.5" y="201.1826">2</text><text fill="#000000" font-family="sans-serif" font-size="13" lengthAdjust="spacing" textLength="176" x="92.5" y="201.1826">displays {Resource} Edit Form</text><polygon fill="#181818" points="430.5,233.7363,440.5,237.7363,430.5,241.7363,434.5,237.7363" style="stroke:#181818;stroke-width:1.0;"/><line style="stroke:#181818;stroke-width:1.0;" x1="64.5" x2="436.5" y1="237.7363" y2="237.7363"/><text fill="#000000" font-family="sans-serif" font-size="13" font-weight="bold" lengthAdjust="spacing" textLength="7" x="71.5" y="232.4736">3</text><text fill="#000000" font-family="sans-serif" font-size="13" lengthAdjust="spacing" textLength="227" x="82.5" y="232.4736">Fills and submits {Resource} Edit Form</text><path d="M10,252.7363 L71,252.7363 L71,262.0273 L61,272.0273 L10,272.0273 L10,252.7363 " fill="#EEEEEE" style="stroke:#000000;stroke-width:1.5;"/><rect fill="none" height="146.4258" style="stroke:#000000;stroke-width:1.5;" width="500.5" x="10" y="252.7363"/><text fill="#000000" font-family="sans-serif" font-size="13" font-weight="bold" lengthAdjust="spacing" textLength="16" x="25" y="267.7646">alt</text><polygon fill="#181818" points="75.5,291.3184,65.5,295.3184,75.5,299.3184,71.5,295.3184" style="stroke:#181818;stroke-width:1.0;"/><line style="stroke:#181818;stroke-width:1.0;stroke-dasharray:2.0,2.0;" x1="69.5" x2="441.5" y1="295.3184" y2="295.3184"/><text fill="#000000" font-family="sans-serif" font-size="13" font-weight="bold" lengthAdjust="spacing" textLength="7" x="81.5" y="290.0557">4</text><text fill="#000000" font-family="sans-serif" font-size="13" lengthAdjust="spacing" textLength="343" x="92.5" y="290.0557">displays success message and updates the {Resource} list</text><line style="stroke:#000000;stroke-width:1.0;stroke-dasharray:2.0,2.0;" x1="10" x2="510.5" y1="304.3184" y2="304.3184"/><text fill="#000000" font-family="sans-serif" font-size="11" font-weight="bold" lengthAdjust="spacing" textLength="159" x="15" y="316.1885">[required fields are missing]</text><polygon fill="#181818" points="75.5,339.2402,65.5,343.2402,75.5,347.2402,71.5,343.2402" style="stroke:#181818;stroke-width:1.0;"/><line style="stroke:#181818;stroke-width:1.0;stroke-dasharray:2.0,2.0;" x1="69.5" x2="441.5" y1="343.2402" y2="343.2402"/><text fill="#000000" font-family="sans-serif" font-size="13" font-weight="bold" lengthAdjust="spacing" textLength="7" x="81.5" y="337.9775">5</text><text fill="#000000" font-family="sans-serif" font-size="13" lengthAdjust="spacing" textLength="153" x="92.5" y="337.9775">displays warning message</text><line style="stroke:#000000;stroke-width:1.0;stroke-dasharray:2.0,2.0;" x1="10" x2="510.5" y1="352.2402" y2="352.2402"/><text fill="#000000" font-family="sans-serif" font-size="11" font-weight="bold" lengthAdjust="spacing" textLength="121" x="15" y="364.1104">[invalid data provided]</text><polygon fill="#181818" points="75.5,387.1621,65.5,391.1621,75.5,395.1621,71.5,391.1621" style="stroke:#181818;stroke-width:1.0;"/><line style="stroke:#181818;stroke-width:1.0;stroke-dasharray:2.0,2.0;" x1="69.5" x2="446.5" y1="391.1621" y2="391.1621"/><text fill="#000000" font-family="sans-serif" font-size="13" font-weight="bold" lengthAdjust="spacing" textLength="7" x="81.5" y="385.8994">6</text><text fill="#000000" font-family="sans-serif" font-size="13" lengthAdjust="spacing" textLength="135" x="92.5" y="385.8994">displays error message</text><!--SRC=[TP7DIaCn48NtUOgXArrqvqfAGUmFtLRk0qoJiGxDptLcKYdYkvlRghHmtOGmEUSxXmbMAxcc7OdJ0-SU1HFqw0-ufnSxHG8XRyuPMxil0njyRabB5KzVpg6t8Z3fb6G2gD31RBPORc0OpEUkuOmzzvWD9jkoMqZ9j2vdwNQnRc8zgL62k-U7-wOVU7n48-YSws0w7rIF04zw02j08_4NUPCDXjbqUd44rZxYIQ_Kb_Ah8ka6lU8O5J07qBfBRFzPCDfuWbRlIHLIEzhIpgZQXzPAmTxe6XTP6uIY3bjzhomKu9KfXbP021AhSjwFntoWvFRu6_E3uNp4o05Q748lvSY1mZY0HDfN_Ta3tIwFShWPTkuR]--></g></svg>