<?xml version="1.0" encoding="us-ascii" standalone="no"?><svg xmlns="http://www.w3.org/2000/svg" xmlns:xlink="http://www.w3.org/1999/xlink" contentStyleType="text/css" height="704px" preserveAspectRatio="none" style="width:569px;height:704px;background:#FFFFFF;" version="1.1" viewBox="0 0 569 704" width="569px" zoomAndPan="magnify"><defs/><g><text fill="#000000" font-family="sans-serif" font-size="14" font-weight="bold" lengthAdjust="spacing" textLength="337" x="122" y="30.1074">Get all robisep with given nickname or task type</text><rect fill="#FFFFFF" height="435.3848" style="stroke:#181818;stroke-width:1.0;" width="10" x="363" y="161.1543"/><rect fill="#FFFFFF" height="31.291" style="stroke:#181818;stroke-width:1.0;" width="10" x="501" y="245.0273"/><rect fill="#FFFFFF" height="31.291" style="stroke:#181818;stroke-width:1.0;" width="10" x="501" y="436.7441"/><rect fill="none" height="386.0938" style="stroke:#000000;stroke-width:1.5;" width="559" x="3" y="202.4453"/><rect fill="none" height="98.5039" style="stroke:#000000;stroke-width:1.5;" width="425" x="3" y="291.3184"/><rect fill="none" height="98.5039" style="stroke:#000000;stroke-width:1.5;" width="425" x="3" y="483.0352"/><line style="stroke:#181818;stroke-width:0.5;stroke-dasharray:5.0,5.0;" x1="368" x2="368" y1="127.8633" y2="605.5391"/><line style="stroke:#181818;stroke-width:0.5;stroke-dasharray:5.0,5.0;" x1="506" x2="506" y1="127.8633" y2="605.5391"/><rect fill="#E2E2F0" height="51.2422" rx="2.5" ry="2.5" style="stroke:#181818;stroke-width:0.5;" width="100" x="318" y="75.6211"/><text fill="#000000" font-family="sans-serif" font-size="14" font-style="italic" lengthAdjust="spacing" textLength="86" x="325" y="97.7285">&#171;component&#187;</text><text fill="#000000" font-family="sans-serif" font-size="14" lengthAdjust="spacing" textLength="61" x="337.5" y="116.3496">Back-End</text><rect fill="#E2E2F0" height="51.2422" rx="2.5" ry="2.5" style="stroke:#181818;stroke-width:0.5;" width="100" x="318" y="604.5391"/><text fill="#000000" font-family="sans-serif" font-size="14" font-style="italic" lengthAdjust="spacing" textLength="86" x="325" y="626.6465">&#171;component&#187;</text><text fill="#000000" font-family="sans-serif" font-size="14" lengthAdjust="spacing" textLength="61" x="337.5" y="645.2676">Back-End</text><text fill="#000000" font-family="sans-serif" font-size="14" font-style="italic" lengthAdjust="spacing" textLength="86" x="460" y="105.7285">&#171;component&#187;</text><text fill="#000000" font-family="sans-serif" font-size="14" lengthAdjust="spacing" textLength="62" x="472" y="124.3496">DataBase</text><path d="M488,54.6211 C488,44.6211 506,44.6211 506,44.6211 C506,44.6211 524,44.6211 524,54.6211 L524,80.6211 C524,90.6211 506,90.6211 506,90.6211 C506,90.6211 488,90.6211 488,80.6211 L488,54.6211 " fill="#E2E2F0" style="stroke:#181818;stroke-width:1.5;"/><path d="M488,54.6211 C488,64.6211 506,64.6211 506,64.6211 C506,64.6211 524,64.6211 524,54.6211 " fill="none" style="stroke:#181818;stroke-width:1.5;"/><text fill="#000000" font-family="sans-serif" font-size="14" font-style="italic" lengthAdjust="spacing" textLength="86" x="460" y="619.6465">&#171;component&#187;</text><text fill="#000000" font-family="sans-serif" font-size="14" lengthAdjust="spacing" textLength="62" x="472" y="638.2676">DataBase</text><path d="M488,651.7813 C488,641.7813 506,641.7813 506,641.7813 C506,641.7813 524,641.7813 524,651.7813 L524,677.7813 C524,687.7813 506,687.7813 506,687.7813 C506,687.7813 488,687.7813 488,677.7813 L488,651.7813 " fill="#E2E2F0" style="stroke:#181818;stroke-width:1.5;"/><path d="M488,651.7813 C488,661.7813 506,661.7813 506,661.7813 C506,661.7813 524,661.7813 524,651.7813 " fill="none" style="stroke:#181818;stroke-width:1.5;"/><rect fill="#FFFFFF" height="435.3848" style="stroke:#181818;stroke-width:1.0;" width="10" x="363" y="161.1543"/><rect fill="#FFFFFF" height="31.291" style="stroke:#181818;stroke-width:1.0;" width="10" x="501" y="245.0273"/><rect fill="#FFFFFF" height="31.291" style="stroke:#181818;stroke-width:1.0;" width="10" x="501" y="436.7441"/><polygon fill="#181818" points="351,157.1543,361,161.1543,351,165.1543,355,161.1543" style="stroke:#181818;stroke-width:1.0;"/><line style="stroke:#181818;stroke-width:1.0;" x1="0" x2="357" y1="161.1543" y2="161.1543"/><text fill="#000000" font-family="sans-serif" font-size="13" font-weight="bold" lengthAdjust="spacing" textLength="7" x="7" y="155.8916">1</text><text fill="#000000" font-family="sans-serif" font-size="13" lengthAdjust="spacing" textLength="326" x="18" y="155.8916">GET robisep/{nickname: nickname, taskType: taskType}</text><path d="M3,202.4453 L64,202.4453 L64,211.7363 L54,221.7363 L3,221.7363 L3,202.4453 " fill="#EEEEEE" style="stroke:#000000;stroke-width:1.5;"/><rect fill="none" height="386.0938" style="stroke:#000000;stroke-width:1.5;" width="559" x="3" y="202.4453"/><text fill="#000000" font-family="sans-serif" font-size="13" font-weight="bold" lengthAdjust="spacing" textLength="16" x="18" y="217.4736">alt</text><text fill="#000000" font-family="sans-serif" font-size="11" font-weight="bold" lengthAdjust="spacing" textLength="106" x="79" y="216.3154">[nickname not null]</text><polygon fill="#181818" points="489,241.0273,499,245.0273,489,249.0273,493,245.0273" style="stroke:#181818;stroke-width:1.0;"/><line style="stroke:#181818;stroke-width:1.0;" x1="373" x2="495" y1="245.0273" y2="245.0273"/><text fill="#000000" font-family="sans-serif" font-size="13" font-weight="bold" lengthAdjust="spacing" textLength="7" x="380" y="239.7646">2</text><text fill="#000000" font-family="sans-serif" font-size="13" lengthAdjust="spacing" textLength="98" x="391" y="239.7646">find by nickname</text><polygon fill="#181818" points="384,272.3184,374,276.3184,384,280.3184,380,276.3184" style="stroke:#181818;stroke-width:1.0;"/><line style="stroke:#181818;stroke-width:1.0;stroke-dasharray:2.0,2.0;" x1="378" x2="505" y1="276.3184" y2="276.3184"/><text fill="#000000" font-family="sans-serif" font-size="13" font-weight="bold" lengthAdjust="spacing" textLength="7" x="390" y="271.0557">3</text><text fill="#000000" font-family="sans-serif" font-size="13" lengthAdjust="spacing" textLength="4" x="401" y="271.0557">&#160;</text><path d="M3,291.3184 L64,291.3184 L64,300.6094 L54,310.6094 L3,310.6094 L3,291.3184 " fill="#EEEEEE" style="stroke:#000000;stroke-width:1.5;"/><rect fill="none" height="98.5039" style="stroke:#000000;stroke-width:1.5;" width="425" x="3" y="291.3184"/><text fill="#000000" font-family="sans-serif" font-size="13" font-weight="bold" lengthAdjust="spacing" textLength="16" x="18" y="306.3467">alt</text><text fill="#000000" font-family="sans-serif" font-size="11" font-weight="bold" lengthAdjust="spacing" textLength="55" x="79" y="305.1885">[success]</text><polygon fill="#181818" points="11,329.9004,1,333.9004,11,337.9004,7,333.9004" style="stroke:#181818;stroke-width:1.0;"/><line style="stroke:#181818;stroke-width:1.0;stroke-dasharray:2.0,2.0;" x1="5" x2="362" y1="333.9004" y2="333.9004"/><text fill="#000000" font-family="sans-serif" font-size="13" font-weight="bold" lengthAdjust="spacing" textLength="7" x="17" y="328.6377">4</text><text fill="#000000" font-family="sans-serif" font-size="13" lengthAdjust="spacing" textLength="163" x="28" y="328.6377">Response status code - 200</text><line style="stroke:#000000;stroke-width:1.0;stroke-dasharray:2.0,2.0;" x1="3" x2="428" y1="342.9004" y2="342.9004"/><text fill="#000000" font-family="sans-serif" font-size="11" font-weight="bold" lengthAdjust="spacing" textLength="122" x="8" y="354.7705">[database unavailable]</text><polygon fill="#181818" points="11,377.8223,1,381.8223,11,385.8223,7,381.8223" style="stroke:#181818;stroke-width:1.0;"/><line style="stroke:#181818;stroke-width:1.0;stroke-dasharray:2.0,2.0;" x1="5" x2="362" y1="381.8223" y2="381.8223"/><text fill="#000000" font-family="sans-serif" font-size="13" font-weight="bold" lengthAdjust="spacing" textLength="7" x="17" y="376.5596">5</text><text fill="#000000" font-family="sans-serif" font-size="13" lengthAdjust="spacing" textLength="163" x="28" y="376.5596">Response status code - 503</text><line style="stroke:#000000;stroke-width:1.0;stroke-dasharray:2.0,2.0;" x1="3" x2="562" y1="397.8223" y2="397.8223"/><text fill="#000000" font-family="sans-serif" font-size="11" font-weight="bold" lengthAdjust="spacing" textLength="103" x="8" y="409.6924">[taskType not null]</text><polygon fill="#181818" points="489,432.7441,499,436.7441,489,440.7441,493,436.7441" style="stroke:#181818;stroke-width:1.0;"/><line style="stroke:#181818;stroke-width:1.0;" x1="373" x2="495" y1="436.7441" y2="436.7441"/><text fill="#000000" font-family="sans-serif" font-size="13" font-weight="bold" lengthAdjust="spacing" textLength="7" x="380" y="431.4814">6</text><text fill="#000000" font-family="sans-serif" font-size="13" lengthAdjust="spacing" textLength="96" x="391" y="431.4814">find by task type</text><polygon fill="#181818" points="384,464.0352,374,468.0352,384,472.0352,380,468.0352" style="stroke:#181818;stroke-width:1.0;"/><line style="stroke:#181818;stroke-width:1.0;stroke-dasharray:2.0,2.0;" x1="378" x2="505" y1="468.0352" y2="468.0352"/><text fill="#000000" font-family="sans-serif" font-size="13" font-weight="bold" lengthAdjust="spacing" textLength="7" x="390" y="462.7725">7</text><text fill="#000000" font-family="sans-serif" font-size="13" lengthAdjust="spacing" textLength="4" x="401" y="462.7725">&#160;</text><path d="M3,483.0352 L64,483.0352 L64,492.3262 L54,502.3262 L3,502.3262 L3,483.0352 " fill="#EEEEEE" style="stroke:#000000;stroke-width:1.5;"/><rect fill="none" height="98.5039" style="stroke:#000000;stroke-width:1.5;" width="425" x="3" y="483.0352"/><text fill="#000000" font-family="sans-serif" font-size="13" font-weight="bold" lengthAdjust="spacing" textLength="16" x="18" y="498.0635">alt</text><text fill="#000000" font-family="sans-serif" font-size="11" font-weight="bold" lengthAdjust="spacing" textLength="55" x="79" y="496.9053">[success]</text><polygon fill="#181818" points="11,521.6172,1,525.6172,11,529.6172,7,525.6172" style="stroke:#181818;stroke-width:1.0;"/><line style="stroke:#181818;stroke-width:1.0;stroke-dasharray:2.0,2.0;" x1="5" x2="362" y1="525.6172" y2="525.6172"/><text fill="#000000" font-family="sans-serif" font-size="13" font-weight="bold" lengthAdjust="spacing" textLength="7" x="17" y="520.3545">8</text><text fill="#000000" font-family="sans-serif" font-size="13" lengthAdjust="spacing" textLength="163" x="28" y="520.3545">Response status code - 200</text><line style="stroke:#000000;stroke-width:1.0;stroke-dasharray:2.0,2.0;" x1="3" x2="428" y1="534.6172" y2="534.6172"/><text fill="#000000" font-family="sans-serif" font-size="11" font-weight="bold" lengthAdjust="spacing" textLength="122" x="8" y="546.4873">[database unavailable]</text><polygon fill="#181818" points="11,569.5391,1,573.5391,11,577.5391,7,573.5391" style="stroke:#181818;stroke-width:1.0;"/><line style="stroke:#181818;stroke-width:1.0;stroke-dasharray:2.0,2.0;" x1="5" x2="362" y1="573.5391" y2="573.5391"/><text fill="#000000" font-family="sans-serif" font-size="13" font-weight="bold" lengthAdjust="spacing" textLength="7" x="17" y="568.2764">9</text><text fill="#000000" font-family="sans-serif" font-size="13" lengthAdjust="spacing" textLength="163" x="28" y="568.2764">Response status code - 503</text><!--SRC=[nP71JiCm38RlVWfhbrsec41Sgcc7gcDts0kugHbHqwHAdA61U7UyZPMn2t3Y4ZcEy_l_RCeIVEuRZf0wwmUArED0fgCDFyhECKOs0Y1MD5wn83c7CJGsyO0lLfvnOxViqLlJUUePGqIXrA7i1WPGGR763kG59vNg5alVJf0ILakSpqteX-3Pos81BGarb1WdjKQLHeUwkhgeWsAXdqjSBTSd8zTlf_RbQEJgO6EjBienUWSW9vWJHoGbb-SGxIkt032zjxx5PZV-dnvhHouVz9ATqxGHkoLXTG6W6EgdhafykX0uAwmh0EKeZiu1MlxsjE-JiZ6S4W3Yl2WEW0-S55e7aeGa9pIXPIpmPZO3OAVvSMBPqvQieyRnBmJkPhSguFVKNzZZpgQVugUPdO7_Y7ws-FzY_mFz_lW0]--></g></svg>