<?xml version="1.0" encoding="us-ascii" standalone="no"?><svg xmlns="http://www.w3.org/2000/svg" xmlns:xlink="http://www.w3.org/1999/xlink" contentStyleType="text/css" height="757px" preserveAspectRatio="none" style="width:664px;height:757px;background:#FFFFFF;" version="1.1" viewBox="0 0 664 757" width="664px" zoomAndPan="magnify"><defs/><g><text fill="#000000" font-family="sans-serif" font-size="14" font-weight="bold" lengthAdjust="spacing" textLength="109" x="278.5" y="30.1074">Edit {Resource}</text><rect fill="#FFFFFF" height="493.9375" style="stroke:#181818;stroke-width:1.0;" width="10" x="54.5" y="151.8633"/><rect fill="#FFFFFF" height="455.6465" style="stroke:#181818;stroke-width:1.0;" width="10" x="326.5" y="175.1543"/><rect fill="#FFFFFF" height="323.4824" style="stroke:#181818;stroke-width:1.0;" width="10" x="542.5" y="269.0273"/><rect fill="none" height="354.7734" style="stroke:#000000;stroke-width:1.5;" width="647" x="10" y="284.0273"/><rect fill="none" height="210.9785" style="stroke:#000000;stroke-width:1.5;" width="375.5" x="271.5" y="389.5313"/><line style="stroke:#181818;stroke-width:0.5;stroke-dasharray:5.0,5.0;" x1="59" x2="59" y1="141.8633" y2="655.8008"/><line style="stroke:#181818;stroke-width:0.5;stroke-dasharray:5.0,5.0;" x1="331.5" x2="331.5" y1="141.8633" y2="655.8008"/><line style="stroke:#181818;stroke-width:0.5;stroke-dasharray:5.0,5.0;" x1="547" x2="547" y1="141.8633" y2="655.8008"/><text fill="#000000" font-family="sans-serif" font-size="14" font-style="italic" lengthAdjust="spacing" textLength="73" x="20" y="119.7285">&#171;DEI User&#187;</text><text fill="#000000" font-family="sans-serif" font-size="14" lengthAdjust="spacing" textLength="29" x="42" y="138.3496">User</text><ellipse cx="59.5" cy="53.1211" fill="#E2E2F0" rx="8" ry="8" style="stroke:#181818;stroke-width:0.5;"/><path d="M59.5,61.1211 L59.5,88.1211 M46.5,69.1211 L72.5,69.1211 M59.5,88.1211 L46.5,103.1211 M59.5,88.1211 L72.5,103.1211 " fill="none" style="stroke:#181818;stroke-width:0.5;"/><text fill="#000000" font-family="sans-serif" font-size="14" font-style="italic" lengthAdjust="spacing" textLength="73" x="20" y="669.9082">&#171;DEI User&#187;</text><text fill="#000000" font-family="sans-serif" font-size="14" lengthAdjust="spacing" textLength="29" x="42" y="688.5293">User</text><ellipse cx="59.5" cy="700.543" fill="#E2E2F0" rx="8" ry="8" style="stroke:#181818;stroke-width:0.5;"/><path d="M59.5,708.543 L59.5,735.543 M46.5,716.543 L72.5,716.543 M59.5,735.543 L46.5,750.543 M59.5,735.543 L72.5,750.543 " fill="none" style="stroke:#181818;stroke-width:0.5;"/><rect fill="#E2E2F0" height="51.2422" rx="2.5" ry="2.5" style="stroke:#181818;stroke-width:0.5;" width="100" x="281.5" y="89.6211"/><text fill="#000000" font-family="sans-serif" font-size="14" font-style="italic" lengthAdjust="spacing" textLength="86" x="288.5" y="111.7285">&#171;component&#187;</text><text fill="#000000" font-family="sans-serif" font-size="14" lengthAdjust="spacing" textLength="83" x="290" y="130.3496">PortalModule</text><rect fill="#E2E2F0" height="51.2422" rx="2.5" ry="2.5" style="stroke:#181818;stroke-width:0.5;" width="100" x="281.5" y="654.8008"/><text fill="#000000" font-family="sans-serif" font-size="14" font-style="italic" lengthAdjust="spacing" textLength="86" x="288.5" y="676.9082">&#171;component&#187;</text><text fill="#000000" font-family="sans-serif" font-size="14" lengthAdjust="spacing" textLength="83" x="290" y="695.5293">PortalModule</text><rect fill="#E2E2F0" height="51.2422" rx="2.5" ry="2.5" style="stroke:#181818;stroke-width:0.5;" width="179" x="458" y="89.6211"/><text fill="#000000" font-family="sans-serif" font-size="14" font-style="italic" lengthAdjust="spacing" textLength="86" x="504.5" y="111.7285">&#171;component&#187;</text><text fill="#000000" font-family="sans-serif" font-size="14" lengthAdjust="spacing" textLength="165" x="465" y="130.3496">DataAdministrationModule</text><rect fill="#E2E2F0" height="51.2422" rx="2.5" ry="2.5" style="stroke:#181818;stroke-width:0.5;" width="179" x="458" y="654.8008"/><text fill="#000000" font-family="sans-serif" font-size="14" font-style="italic" lengthAdjust="spacing" textLength="86" x="504.5" y="676.9082">&#171;component&#187;</text><text fill="#000000" font-family="sans-serif" font-size="14" lengthAdjust="spacing" textLength="165" x="465" y="695.5293">DataAdministrationModule</text><rect fill="#FFFFFF" height="493.9375" style="stroke:#181818;stroke-width:1.0;" width="10" x="54.5" y="151.8633"/><rect fill="#FFFFFF" height="455.6465" style="stroke:#181818;stroke-width:1.0;" width="10" x="326.5" y="175.1543"/><rect fill="#FFFFFF" height="323.4824" style="stroke:#181818;stroke-width:1.0;" width="10" x="542.5" y="269.0273"/><polygon fill="#181818" points="314.5,171.1543,324.5,175.1543,314.5,179.1543,318.5,175.1543" style="stroke:#181818;stroke-width:1.0;"/><line style="stroke:#181818;stroke-width:1.0;" x1="64.5" x2="320.5" y1="175.1543" y2="175.1543"/><text fill="#000000" font-family="sans-serif" font-size="13" font-weight="bold" lengthAdjust="spacing" textLength="7" x="71.5" y="169.8916">1</text><text fill="#000000" font-family="sans-serif" font-size="13" lengthAdjust="spacing" textLength="130" x="82.5" y="169.8916">Ask to edit {Resource}</text><polygon fill="#181818" points="75.5,202.4453,65.5,206.4453,75.5,210.4453,71.5,206.4453" style="stroke:#181818;stroke-width:1.0;"/><line style="stroke:#181818;stroke-width:1.0;stroke-dasharray:2.0,2.0;" x1="69.5" x2="325.5" y1="206.4453" y2="206.4453"/><text fill="#000000" font-family="sans-serif" font-size="13" font-weight="bold" lengthAdjust="spacing" textLength="7" x="81.5" y="201.1826">2</text><text fill="#000000" font-family="sans-serif" font-size="13" lengthAdjust="spacing" textLength="176" x="92.5" y="201.1826">displays {Resource} Edit Form</text><polygon fill="#181818" points="314.5,233.7363,324.5,237.7363,314.5,241.7363,318.5,237.7363" style="stroke:#181818;stroke-width:1.0;"/><line style="stroke:#181818;stroke-width:1.0;" x1="64.5" x2="320.5" y1="237.7363" y2="237.7363"/><text fill="#000000" font-family="sans-serif" font-size="13" font-weight="bold" lengthAdjust="spacing" textLength="7" x="71.5" y="232.4736">3</text><text fill="#000000" font-family="sans-serif" font-size="13" lengthAdjust="spacing" textLength="227" x="82.5" y="232.4736">Fills and submits {Resource} Edit Form</text><polygon fill="#181818" points="530.5,265.0273,540.5,269.0273,530.5,273.0273,534.5,269.0273" style="stroke:#181818;stroke-width:1.0;"/><line style="stroke:#181818;stroke-width:1.0;" x1="336.5" x2="536.5" y1="269.0273" y2="269.0273"/><text fill="#000000" font-family="sans-serif" font-size="13" font-weight="bold" lengthAdjust="spacing" textLength="7" x="343.5" y="263.7646">4</text><text fill="#000000" font-family="sans-serif" font-size="13" lengthAdjust="spacing" textLength="176" x="354.5" y="263.7646">PATCH resources/{resourceId}</text><path d="M10,284.0273 L71,284.0273 L71,293.3184 L61,303.3184 L10,303.3184 L10,284.0273 " fill="#EEEEEE" style="stroke:#000000;stroke-width:1.5;"/><rect fill="none" height="354.7734" style="stroke:#000000;stroke-width:1.5;" width="647" x="10" y="284.0273"/><text fill="#000000" font-family="sans-serif" font-size="13" font-weight="bold" lengthAdjust="spacing" textLength="16" x="25" y="299.0557">alt</text><text fill="#000000" font-family="sans-serif" font-size="11" font-weight="bold" lengthAdjust="spacing" textLength="55" x="86" y="297.8975">[success]</text><polygon fill="#181818" points="347.5,322.6094,337.5,326.6094,347.5,330.6094,343.5,326.6094" style="stroke:#181818;stroke-width:1.0;"/><line style="stroke:#181818;stroke-width:1.0;stroke-dasharray:2.0,2.0;" x1="341.5" x2="541.5" y1="326.6094" y2="326.6094"/><text fill="#000000" font-family="sans-serif" font-size="13" font-weight="bold" lengthAdjust="spacing" textLength="7" x="353.5" y="321.3467">5</text><text fill="#000000" font-family="sans-serif" font-size="13" lengthAdjust="spacing" textLength="163" x="364.5" y="321.3467">Response status code - 200</text><polygon fill="#181818" points="75.5,353.9004,65.5,357.9004,75.5,361.9004,71.5,357.9004" style="stroke:#181818;stroke-width:1.0;"/><line style="stroke:#181818;stroke-width:1.0;stroke-dasharray:2.0,2.0;" x1="69.5" x2="325.5" y1="357.9004" y2="357.9004"/><text fill="#000000" font-family="sans-serif" font-size="13" font-weight="bold" lengthAdjust="spacing" textLength="7" x="81.5" y="352.6377">6</text><text fill="#000000" font-family="sans-serif" font-size="13" lengthAdjust="spacing" textLength="158" x="92.5" y="352.6377">displays success message</text><line style="stroke:#000000;stroke-width:1.0;stroke-dasharray:2.0,2.0;" x1="10" x2="657" y1="366.9004" y2="366.9004"/><text fill="#000000" font-family="sans-serif" font-size="11" font-weight="bold" lengthAdjust="spacing" textLength="83" x="15" y="378.7705">[unsuccessful]</text><path d="M271.5,389.5313 L332.5,389.5313 L332.5,398.8223 L322.5,408.8223 L271.5,408.8223 L271.5,389.5313 " fill="#EEEEEE" style="stroke:#000000;stroke-width:1.5;"/><rect fill="none" height="210.9785" style="stroke:#000000;stroke-width:1.5;" width="375.5" x="271.5" y="389.5313"/><text fill="#000000" font-family="sans-serif" font-size="13" font-weight="bold" lengthAdjust="spacing" textLength="16" x="286.5" y="404.5596">alt</text><line style="stroke:#000000;stroke-width:1.0;stroke-dasharray:2.0,2.0;" x1="271.5" x2="647" y1="409.8223" y2="409.8223"/><text fill="#000000" font-family="sans-serif" font-size="11" font-weight="bold" lengthAdjust="spacing" textLength="69" x="276.5" y="421.6924">[invalid data]</text><polygon fill="#181818" points="347.5,444.7441,337.5,448.7441,347.5,452.7441,343.5,448.7441" style="stroke:#181818;stroke-width:1.0;"/><line style="stroke:#181818;stroke-width:1.0;stroke-dasharray:2.0,2.0;" x1="341.5" x2="541.5" y1="448.7441" y2="448.7441"/><text fill="#000000" font-family="sans-serif" font-size="13" font-weight="bold" lengthAdjust="spacing" textLength="7" x="353.5" y="443.4814">7</text><text fill="#000000" font-family="sans-serif" font-size="13" lengthAdjust="spacing" textLength="163" x="364.5" y="443.4814">Response status code - 400</text><line style="stroke:#000000;stroke-width:1.0;stroke-dasharray:2.0,2.0;" x1="271.5" x2="647" y1="457.7441" y2="457.7441"/><text fill="#000000" font-family="sans-serif" font-size="11" font-weight="bold" lengthAdjust="spacing" textLength="115" x="276.5" y="469.6143">[resource not found]</text><polygon fill="#181818" points="347.5,492.666,337.5,496.666,347.5,500.666,343.5,496.666" style="stroke:#181818;stroke-width:1.0;"/><line style="stroke:#181818;stroke-width:1.0;stroke-dasharray:2.0,2.0;" x1="341.5" x2="541.5" y1="496.666" y2="496.666"/><text fill="#000000" font-family="sans-serif" font-size="13" font-weight="bold" lengthAdjust="spacing" textLength="7" x="353.5" y="491.4033">8</text><text fill="#000000" font-family="sans-serif" font-size="13" lengthAdjust="spacing" textLength="163" x="364.5" y="491.4033">Response status code - 404</text><line style="stroke:#000000;stroke-width:1.0;stroke-dasharray:2.0,2.0;" x1="271.5" x2="647" y1="505.666" y2="505.666"/><text fill="#000000" font-family="sans-serif" font-size="11" font-weight="bold" lengthAdjust="spacing" textLength="119" x="276.5" y="517.5361">[entity already exists]</text><polygon fill="#181818" points="347.5,540.5879,337.5,544.5879,347.5,548.5879,343.5,544.5879" style="stroke:#181818;stroke-width:1.0;"/><line style="stroke:#181818;stroke-width:1.0;stroke-dasharray:2.0,2.0;" x1="341.5" x2="541.5" y1="544.5879" y2="544.5879"/><text fill="#000000" font-family="sans-serif" font-size="13" font-weight="bold" lengthAdjust="spacing" textLength="7" x="353.5" y="539.3252">9</text><text fill="#000000" font-family="sans-serif" font-size="13" lengthAdjust="spacing" textLength="163" x="364.5" y="539.3252">Response status code - 409</text><line style="stroke:#000000;stroke-width:1.0;stroke-dasharray:2.0,2.0;" x1="271.5" x2="647" y1="553.5879" y2="553.5879"/><text fill="#000000" font-family="sans-serif" font-size="11" font-weight="bold" lengthAdjust="spacing" textLength="122" x="276.5" y="565.458">[database unavailable]</text><polygon fill="#181818" points="347.5,588.5098,337.5,592.5098,347.5,596.5098,343.5,592.5098" style="stroke:#181818;stroke-width:1.0;"/><line style="stroke:#181818;stroke-width:1.0;stroke-dasharray:2.0,2.0;" x1="341.5" x2="546.5" y1="592.5098" y2="592.5098"/><text fill="#000000" font-family="sans-serif" font-size="13" font-weight="bold" lengthAdjust="spacing" textLength="14" x="353.5" y="587.2471">10</text><text fill="#000000" font-family="sans-serif" font-size="13" lengthAdjust="spacing" textLength="163" x="371.5" y="587.2471">Response status code - 503</text><polygon fill="#181818" points="75.5,626.8008,65.5,630.8008,75.5,634.8008,71.5,630.8008" style="stroke:#181818;stroke-width:1.0;"/><line style="stroke:#181818;stroke-width:1.0;stroke-dasharray:2.0,2.0;" x1="69.5" x2="330.5" y1="630.8008" y2="630.8008"/><text fill="#000000" font-family="sans-serif" font-size="13" font-weight="bold" lengthAdjust="spacing" textLength="14" x="81.5" y="625.5381">11</text><text fill="#000000" font-family="sans-serif" font-size="13" lengthAdjust="spacing" textLength="128" x="99.5" y="625.5381">display error message</text><!--SRC=[ZPBTQiCm38Nl_HIYzs5bFnSRfL3MZkrYKBRb0THO7QQE7MovB8oz- -Ia7MctGMw24UTyqf62YRrBzOQ2YZlZ6WnOGuFL3j_fbLjB4AXYfTYml5VQC7o-KFGfLFIb55Ri0qpAI6426A64sMovUe9ScC-LuDXKfa77C5dxm6YVlKwMEl7B-bdabQyRxyZnkNw9Z0jT6sSY1sJZtS2xN9nxyoncZqnGAbL2CS_yEu15t05xeBFHVzIYolfPKVG6RM9ZiOq3SP_xmOVwXFnWh8s0JaDCczhmVvQSKqmoyXsi5s_tZxBJNXOlFe_F9_qrY21QXPO5N8agTeWyOSUG9f8w4aH6JX4ghmaAk9nE_mvoW40j7pchKcJ5dDoXlaqsz-ghnktH6WrQbgzWJDjhQTjPZqd0UOQjJqwF1Lpt0BcZuHRG1aBT0dt8uUDOnctFo7Dli8k7UpGMDvR68MwcLmeqdPo0SeRVAmKAGNxxupu7flmpPTEmLgfl]--></g></svg>