<?xml version="1.0" encoding="us-ascii" standalone="no"?><svg xmlns="http://www.w3.org/2000/svg" xmlns:xlink="http://www.w3.org/1999/xlink" contentStyleType="text/css" height="661px" preserveAspectRatio="none" style="width:1073px;height:661px;background:#FFFFFF;" version="1.1" viewBox="0 0 1073 661" width="1073px" zoomAndPan="magnify"><defs/><g><text fill="#000000" font-family="sans-serif" font-size="14" font-weight="bold" lengthAdjust="spacing" textLength="241" x="417.5" y="30.1074">List path from Room 'A' to Room 'B'</text><rect fill="#FFFFFF" height="390.0742" style="stroke:#181818;stroke-width:1.0;" width="10" x="39.5" y="151.8633"/><rect fill="#FFFFFF" height="349.4922" style="stroke:#181818;stroke-width:1.0;" width="10" x="333.5" y="192.4453"/><rect fill="#FFFFFF" height="269.6191" style="stroke:#181818;stroke-width:1.0;" width="10" x="645.5" y="241.0273"/><rect fill="#FFFFFF" height="189.7461" style="stroke:#181818;stroke-width:1.0;" width="10" x="994.5" y="289.6094"/><rect fill="none" height="81.873" style="stroke:#000000;stroke-width:1.5;" width="516" x="551" y="367.1914"/><line style="stroke:#181818;stroke-width:0.5;stroke-dasharray:5.0,5.0;" x1="44" x2="44" y1="141.8633" y2="559.9375"/><line style="stroke:#181818;stroke-width:0.5;stroke-dasharray:5.0,5.0;" x1="338.5" x2="338.5" y1="141.8633" y2="559.9375"/><line style="stroke:#181818;stroke-width:0.5;stroke-dasharray:5.0,5.0;" x1="650" x2="650" y1="141.8633" y2="559.9375"/><line style="stroke:#181818;stroke-width:0.5;stroke-dasharray:5.0,5.0;" x1="999" x2="999" y1="141.8633" y2="559.9375"/><text fill="#000000" font-family="sans-serif" font-size="14" font-style="italic" lengthAdjust="spacing" textLength="73" x="5" y="119.7285">&#171;DEI User&#187;</text><text fill="#000000" font-family="sans-serif" font-size="14" lengthAdjust="spacing" textLength="29" x="27" y="138.3496">User</text><ellipse cx="44.5" cy="53.1211" fill="#E2E2F0" rx="8" ry="8" style="stroke:#181818;stroke-width:0.5;"/><path d="M44.5,61.1211 L44.5,88.1211 M31.5,69.1211 L57.5,69.1211 M44.5,88.1211 L31.5,103.1211 M44.5,88.1211 L57.5,103.1211 " fill="none" style="stroke:#181818;stroke-width:0.5;"/><text fill="#000000" font-family="sans-serif" font-size="14" font-style="italic" lengthAdjust="spacing" textLength="73" x="5" y="574.0449">&#171;DEI User&#187;</text><text fill="#000000" font-family="sans-serif" font-size="14" lengthAdjust="spacing" textLength="29" x="27" y="592.666">User</text><ellipse cx="44.5" cy="604.6797" fill="#E2E2F0" rx="8" ry="8" style="stroke:#181818;stroke-width:0.5;"/><path d="M44.5,612.6797 L44.5,639.6797 M31.5,620.6797 L57.5,620.6797 M44.5,639.6797 L31.5,654.6797 M44.5,639.6797 L57.5,654.6797 " fill="none" style="stroke:#181818;stroke-width:0.5;"/><rect fill="#E2E2F0" height="51.2422" rx="2.5" ry="2.5" style="stroke:#181818;stroke-width:0.5;" width="100" x="288.5" y="89.6211"/><text fill="#000000" font-family="sans-serif" font-size="14" font-style="italic" lengthAdjust="spacing" textLength="86" x="295.5" y="111.7285">&#171;component&#187;</text><text fill="#000000" font-family="sans-serif" font-size="14" lengthAdjust="spacing" textLength="83" x="297" y="130.3496">PortalModule</text><rect fill="#E2E2F0" height="51.2422" rx="2.5" ry="2.5" style="stroke:#181818;stroke-width:0.5;" width="100" x="288.5" y="558.9375"/><text fill="#000000" font-family="sans-serif" font-size="14" font-style="italic" lengthAdjust="spacing" textLength="86" x="295.5" y="581.0449">&#171;component&#187;</text><text fill="#000000" font-family="sans-serif" font-size="14" lengthAdjust="spacing" textLength="83" x="297" y="599.666">PortalModule</text><rect fill="#E2E2F0" height="51.2422" rx="2.5" ry="2.5" style="stroke:#181818;stroke-width:0.5;" width="179" x="561" y="89.6211"/><text fill="#000000" font-family="sans-serif" font-size="14" font-style="italic" lengthAdjust="spacing" textLength="86" x="607.5" y="111.7285">&#171;component&#187;</text><text fill="#000000" font-family="sans-serif" font-size="14" lengthAdjust="spacing" textLength="165" x="568" y="130.3496">DataAdministrationModule</text><rect fill="#E2E2F0" height="51.2422" rx="2.5" ry="2.5" style="stroke:#181818;stroke-width:0.5;" width="179" x="561" y="558.9375"/><text fill="#000000" font-family="sans-serif" font-size="14" font-style="italic" lengthAdjust="spacing" textLength="86" x="607.5" y="581.0449">&#171;component&#187;</text><text fill="#000000" font-family="sans-serif" font-size="14" lengthAdjust="spacing" textLength="165" x="568" y="599.666">DataAdministrationModule</text><rect fill="#E2E2F0" height="51.2422" rx="2.5" ry="2.5" style="stroke:#181818;stroke-width:0.5;" width="115" x="942" y="89.6211"/><text fill="#000000" font-family="sans-serif" font-size="14" font-style="italic" lengthAdjust="spacing" textLength="86" x="956.5" y="111.7285">&#171;component&#187;</text><text fill="#000000" font-family="sans-serif" font-size="14" lengthAdjust="spacing" textLength="101" x="949" y="130.3496">PlanningModule</text><rect fill="#E2E2F0" height="51.2422" rx="2.5" ry="2.5" style="stroke:#181818;stroke-width:0.5;" width="115" x="942" y="558.9375"/><text fill="#000000" font-family="sans-serif" font-size="14" font-style="italic" lengthAdjust="spacing" textLength="86" x="956.5" y="581.0449">&#171;component&#187;</text><text fill="#000000" font-family="sans-serif" font-size="14" lengthAdjust="spacing" textLength="101" x="949" y="599.666">PlanningModule</text><rect fill="#FFFFFF" height="390.0742" style="stroke:#181818;stroke-width:1.0;" width="10" x="39.5" y="151.8633"/><rect fill="#FFFFFF" height="349.4922" style="stroke:#181818;stroke-width:1.0;" width="10" x="333.5" y="192.4453"/><rect fill="#FFFFFF" height="269.6191" style="stroke:#181818;stroke-width:1.0;" width="10" x="645.5" y="241.0273"/><rect fill="#FFFFFF" height="189.7461" style="stroke:#181818;stroke-width:1.0;" width="10" x="994.5" y="289.6094"/><polygon fill="#181818" points="321.5,188.4453,331.5,192.4453,321.5,196.4453,325.5,192.4453" style="stroke:#181818;stroke-width:1.0;"/><line style="stroke:#181818;stroke-width:1.0;" x1="49.5" x2="327.5" y1="192.4453" y2="192.4453"/><text fill="#000000" font-family="sans-serif" font-size="13" font-weight="bold" lengthAdjust="spacing" textLength="7" x="56.5" y="178.5371">1</text><text fill="#000000" font-family="sans-serif" font-size="13" lengthAdjust="spacing" textLength="179" x="67.5" y="169.8916">Selects Room 'A' and Room 'B'</text><text fill="#000000" font-family="sans-serif" font-size="13" lengthAdjust="spacing" textLength="250" x="71.5" y="187.1826">and asks to consult the path between them</text><polygon fill="#181818" points="633.5,237.0273,643.5,241.0273,633.5,245.0273,637.5,241.0273" style="stroke:#181818;stroke-width:1.0;"/><line style="stroke:#181818;stroke-width:1.0;" x1="343.5" x2="639.5" y1="241.0273" y2="241.0273"/><text fill="#000000" font-family="sans-serif" font-size="13" font-weight="bold" lengthAdjust="spacing" textLength="7" x="350.5" y="227.1191">2</text><text fill="#000000" font-family="sans-serif" font-size="13" lengthAdjust="spacing" textLength="272" x="361.5" y="218.4736">GET tasks/path?originFloor=...&amp;originRoom=...</text><text fill="#000000" font-family="sans-serif" font-size="13" lengthAdjust="spacing" textLength="247" x="361.5" y="235.7646">&amp;destinationFloor=...&amp;destinationRoom=...</text><polygon fill="#181818" points="982.5,285.6094,992.5,289.6094,982.5,293.6094,986.5,289.6094" style="stroke:#181818;stroke-width:1.0;"/><line style="stroke:#181818;stroke-width:1.0;" x1="655.5" x2="988.5" y1="289.6094" y2="289.6094"/><text fill="#000000" font-family="sans-serif" font-size="13" font-weight="bold" lengthAdjust="spacing" textLength="7" x="662.5" y="275.7012">3</text><text fill="#000000" font-family="sans-serif" font-size="13" lengthAdjust="spacing" textLength="309" x="673.5" y="267.0557">GET prolog/paths?originFloor=...&amp;destinationFloor=...</text><text fill="#000000" font-family="sans-serif" font-size="13" lengthAdjust="spacing" textLength="190" x="673.5" y="284.3467">&amp;originCel=...&amp;destinationCel=...</text><polygon fill="#181818" points="666.5,316.9004,656.5,320.9004,666.5,324.9004,662.5,320.9004" style="stroke:#181818;stroke-width:1.0;"/><line style="stroke:#181818;stroke-width:1.0;" x1="660.5" x2="993.5" y1="320.9004" y2="320.9004"/><text fill="#000000" font-family="sans-serif" font-size="13" font-weight="bold" lengthAdjust="spacing" textLength="7" x="672.5" y="315.6377">4</text><text fill="#000000" font-family="sans-serif" font-size="13" lengthAdjust="spacing" textLength="115" x="683.5" y="315.6377">GET prolog/campus</text><polygon fill="#181818" points="982.5,348.1914,992.5,352.1914,982.5,356.1914,986.5,352.1914" style="stroke:#181818;stroke-width:1.0;"/><line style="stroke:#181818;stroke-width:1.0;stroke-dasharray:2.0,2.0;" x1="655.5" x2="988.5" y1="352.1914" y2="352.1914"/><text fill="#000000" font-family="sans-serif" font-size="13" font-weight="bold" lengthAdjust="spacing" textLength="7" x="662.5" y="346.9287">5</text><text fill="#000000" font-family="sans-serif" font-size="13" lengthAdjust="spacing" textLength="163" x="673.5" y="346.9287">Response status code - 200</text><path d="M551,367.1914 L624,367.1914 L624,376.4824 L614,386.4824 L551,386.4824 L551,367.1914 " fill="#EEEEEE" style="stroke:#000000;stroke-width:1.5;"/><rect fill="none" height="81.873" style="stroke:#000000;stroke-width:1.5;" width="516" x="551" y="367.1914"/><text fill="#000000" font-family="sans-serif" font-size="13" font-weight="bold" lengthAdjust="spacing" textLength="28" x="566" y="382.2197">loop</text><text fill="#000000" font-family="sans-serif" font-size="11" font-weight="bold" lengthAdjust="spacing" textLength="82" x="639" y="381.0615">[for each floor]</text><polygon fill="#181818" points="666.5,405.7734,656.5,409.7734,666.5,413.7734,662.5,409.7734" style="stroke:#181818;stroke-width:1.0;"/><line style="stroke:#181818;stroke-width:1.0;" x1="660.5" x2="993.5" y1="409.7734" y2="409.7734"/><text fill="#000000" font-family="sans-serif" font-size="13" font-weight="bold" lengthAdjust="spacing" textLength="7" x="672.5" y="404.5107">6</text><text fill="#000000" font-family="sans-serif" font-size="13" lengthAdjust="spacing" textLength="172" x="683.5" y="404.5107">GET prolog/floorPlans/{floorId}</text><polygon fill="#181818" points="982.5,437.0645,992.5,441.0645,982.5,445.0645,986.5,441.0645" style="stroke:#181818;stroke-width:1.0;"/><line style="stroke:#181818;stroke-width:1.0;stroke-dasharray:2.0,2.0;" x1="655.5" x2="988.5" y1="441.0645" y2="441.0645"/><text fill="#000000" font-family="sans-serif" font-size="13" font-weight="bold" lengthAdjust="spacing" textLength="7" x="662.5" y="435.8018">7</text><text fill="#000000" font-family="sans-serif" font-size="13" lengthAdjust="spacing" textLength="163" x="673.5" y="435.8018">Response status code - 200</text><polygon fill="#181818" points="666.5,475.3555,656.5,479.3555,666.5,483.3555,662.5,479.3555" style="stroke:#181818;stroke-width:1.0;"/><line style="stroke:#181818;stroke-width:1.0;stroke-dasharray:2.0,2.0;" x1="660.5" x2="998.5" y1="479.3555" y2="479.3555"/><text fill="#000000" font-family="sans-serif" font-size="13" font-weight="bold" lengthAdjust="spacing" textLength="7" x="672.5" y="474.0928">8</text><text fill="#000000" font-family="sans-serif" font-size="13" lengthAdjust="spacing" textLength="163" x="683.5" y="474.0928">Response status code - 200</text><polygon fill="#181818" points="354.5,506.6465,344.5,510.6465,354.5,514.6465,350.5,510.6465" style="stroke:#181818;stroke-width:1.0;"/><line style="stroke:#181818;stroke-width:1.0;stroke-dasharray:2.0,2.0;" x1="348.5" x2="649.5" y1="510.6465" y2="510.6465"/><text fill="#000000" font-family="sans-serif" font-size="13" font-weight="bold" lengthAdjust="spacing" textLength="7" x="360.5" y="505.3838">9</text><text fill="#000000" font-family="sans-serif" font-size="13" lengthAdjust="spacing" textLength="163" x="371.5" y="505.3838">Response status code - 200</text><polygon fill="#181818" points="55.5,537.9375,45.5,541.9375,55.5,545.9375,51.5,541.9375" style="stroke:#181818;stroke-width:1.0;"/><line style="stroke:#181818;stroke-width:1.0;stroke-dasharray:2.0,2.0;" x1="49.5" x2="337.5" y1="541.9375" y2="541.9375"/><text fill="#000000" font-family="sans-serif" font-size="13" font-weight="bold" lengthAdjust="spacing" textLength="14" x="61.5" y="536.6748">10</text><text fill="#000000" font-family="sans-serif" font-size="13" lengthAdjust="spacing" textLength="137" x="79.5" y="536.6748">display path information</text><!--SRC=[ZPB1Rjim38RlUWeYX-RajDYnQ3DaIpSKQ84WdM-zi1QR2f4fGw8x54FVVPJihbwwTRiO4lt__4YAs4lWlhsZQDBUSOSHM-YmsUEERkJ94qHgn1XnekShbqJ_oWFSnz32DkXdlfg3XF7yQMuCDX8YpEf4SGQOe8Qpi_N59UJ0ScaK8Qvn7RB0R1EYeByEjlTKnDlDjSgRq7Q1YULGlqR1bMqTQo4HnGMUUDUhTxqRZyoETnF76rWktZsY4DJ6c1ggPQxe5E26lCuXlRQCR7_rVClbYccVyYYQmAdt0l90mx3kIBuJSGwq4uHcDYOth1Ij_HI-Ndm3oLcEi-rZY6xd-8iF8Pul5ekZuPwX-NhBHvQIE2vZU5LDWY_I2LCvnkH1ANCp8hiOVDWLPde3_HD3qOFiC_b3qHYQ87EN1qsEn0RRhaz3EMCzMqhw68aW2KgVT9QMe88F9oT6wHtSwseHDhg0kPY_v2t_ydEdun_bV6cV_vT2R8TogvV4xuYDfT_QBDjRLV_qJMpvGUfYAejcNUeyFWrxurZRRSjOfvQyDvDhRNu2]--></g></svg>