<?xml version="1.0" encoding="us-ascii" standalone="no"?><svg xmlns="http://www.w3.org/2000/svg" xmlns:xlink="http://www.w3.org/1999/xlink" contentStyleType="text/css" height="1269px" preserveAspectRatio="none" style="width:796px;height:1269px;background:#FFFFFF;" version="1.1" viewBox="0 0 796 1269" width="796px" zoomAndPan="magnify"><defs/><g><text fill="#000000" font-family="sans-serif" font-size="14" font-weight="bold" lengthAdjust="spacing" textLength="109" x="344.5" y="30.1074">Create Robisep</text><rect fill="#FFFFFF" height="965.6426" style="stroke:#181818;stroke-width:1.0;" width="10" x="430" y="195.7363"/><rect fill="#FFFFFF" height="31.291" style="stroke:#181818;stroke-width:1.0;" width="10" x="728" y="253.3184"/><rect fill="#FFFFFF" height="31.291" style="stroke:#181818;stroke-width:1.0;" width="10" x="728" y="428.4043"/><rect fill="#FFFFFF" height="31.291" style="stroke:#181818;stroke-width:1.0;" width="10" x="728" y="603.4902"/><rect fill="#FFFFFF" height="31.291" style="stroke:#181818;stroke-width:1.0;" width="10" x="728" y="778.5762"/><rect fill="#FFFFFF" height="31.291" style="stroke:#181818;stroke-width:1.0;" width="10" x="728" y="953.6621"/><rect fill="none" height="942.6426" style="stroke:#000000;stroke-width:1.5;" width="786" x="3" y="210.7363"/><rect fill="none" height="98.5039" style="stroke:#000000;stroke-width:1.5;" width="492" x="3" y="299.6094"/><rect fill="none" height="98.5039" style="stroke:#000000;stroke-width:1.5;" width="492" x="3" y="474.6953"/><rect fill="none" height="98.5039" style="stroke:#000000;stroke-width:1.5;" width="492" x="3" y="649.7813"/><rect fill="none" height="98.5039" style="stroke:#000000;stroke-width:1.5;" width="492" x="3" y="824.8672"/><rect fill="none" height="98.5039" style="stroke:#000000;stroke-width:1.5;" width="492" x="3" y="999.9531"/><line style="stroke:#181818;stroke-width:0.5;stroke-dasharray:5.0,5.0;" x1="435" x2="435" y1="127.8633" y2="1170.3789"/><line style="stroke:#181818;stroke-width:0.5;stroke-dasharray:5.0,5.0;" x1="733" x2="733" y1="127.8633" y2="1170.3789"/><rect fill="#E2E2F0" height="51.2422" rx="2.5" ry="2.5" style="stroke:#181818;stroke-width:0.5;" width="100" x="385" y="75.6211"/><text fill="#000000" font-family="sans-serif" font-size="14" font-style="italic" lengthAdjust="spacing" textLength="86" x="392" y="97.7285">&#171;component&#187;</text><text fill="#000000" font-family="sans-serif" font-size="14" lengthAdjust="spacing" textLength="61" x="404.5" y="116.3496">Back-End</text><rect fill="#E2E2F0" height="51.2422" rx="2.5" ry="2.5" style="stroke:#181818;stroke-width:0.5;" width="100" x="385" y="1169.3789"/><text fill="#000000" font-family="sans-serif" font-size="14" font-style="italic" lengthAdjust="spacing" textLength="86" x="392" y="1191.4863">&#171;component&#187;</text><text fill="#000000" font-family="sans-serif" font-size="14" lengthAdjust="spacing" textLength="61" x="404.5" y="1210.1074">Back-End</text><text fill="#000000" font-family="sans-serif" font-size="14" font-style="italic" lengthAdjust="spacing" textLength="86" x="687" y="105.7285">&#171;component&#187;</text><text fill="#000000" font-family="sans-serif" font-size="14" lengthAdjust="spacing" textLength="62" x="699" y="124.3496">DataBase</text><path d="M715,54.6211 C715,44.6211 733,44.6211 733,44.6211 C733,44.6211 751,44.6211 751,54.6211 L751,80.6211 C751,90.6211 733,90.6211 733,90.6211 C733,90.6211 715,90.6211 715,80.6211 L715,54.6211 " fill="#E2E2F0" style="stroke:#181818;stroke-width:1.5;"/><path d="M715,54.6211 C715,64.6211 733,64.6211 733,64.6211 C733,64.6211 751,64.6211 751,54.6211 " fill="none" style="stroke:#181818;stroke-width:1.5;"/><text fill="#000000" font-family="sans-serif" font-size="14" font-style="italic" lengthAdjust="spacing" textLength="86" x="687" y="1184.4863">&#171;component&#187;</text><text fill="#000000" font-family="sans-serif" font-size="14" lengthAdjust="spacing" textLength="62" x="699" y="1203.1074">DataBase</text><path d="M715,1216.6211 C715,1206.6211 733,1206.6211 733,1206.6211 C733,1206.6211 751,1206.6211 751,1216.6211 L751,1242.6211 C751,1252.6211 733,1252.6211 733,1252.6211 C733,1252.6211 715,1252.6211 715,1242.6211 L715,1216.6211 " fill="#E2E2F0" style="stroke:#181818;stroke-width:1.5;"/><path d="M715,1216.6211 C715,1226.6211 733,1226.6211 733,1226.6211 C733,1226.6211 751,1226.6211 751,1216.6211 " fill="none" style="stroke:#181818;stroke-width:1.5;"/><rect fill="#FFFFFF" height="965.6426" style="stroke:#181818;stroke-width:1.0;" width="10" x="430" y="195.7363"/><rect fill="#FFFFFF" height="31.291" style="stroke:#181818;stroke-width:1.0;" width="10" x="728" y="253.3184"/><rect fill="#FFFFFF" height="31.291" style="stroke:#181818;stroke-width:1.0;" width="10" x="728" y="428.4043"/><rect fill="#FFFFFF" height="31.291" style="stroke:#181818;stroke-width:1.0;" width="10" x="728" y="603.4902"/><rect fill="#FFFFFF" height="31.291" style="stroke:#181818;stroke-width:1.0;" width="10" x="728" y="778.5762"/><rect fill="#FFFFFF" height="31.291" style="stroke:#181818;stroke-width:1.0;" width="10" x="728" y="953.6621"/><polygon fill="#181818" points="418,191.7363,428,195.7363,418,199.7363,422,195.7363" style="stroke:#181818;stroke-width:1.0;"/><line style="stroke:#181818;stroke-width:1.0;" x1="0" x2="424" y1="195.7363" y2="195.7363"/><text fill="#000000" font-family="sans-serif" font-size="13" font-weight="bold" lengthAdjust="spacing" textLength="7" x="7" y="173.1826">1</text><text fill="#000000" font-family="sans-serif" font-size="13" lengthAdjust="spacing" textLength="344" x="18" y="155.8916">POST robisep/{domainId?: domainId,  nickname: nickname,</text><text fill="#000000" font-family="sans-serif" font-size="13" lengthAdjust="spacing" textLength="385" x="22" y="173.1826">serialNumber: serialNumber, code: code, description?: description,</text><text fill="#000000" font-family="sans-serif" font-size="13" lengthAdjust="spacing" textLength="246" x="22" y="190.4736">state: state, robisepTypeId: robisepTypeId}</text><path d="M3,210.7363 L64,210.7363 L64,220.0273 L54,230.0273 L3,230.0273 L3,210.7363 " fill="#EEEEEE" style="stroke:#000000;stroke-width:1.5;"/><rect fill="none" height="942.6426" style="stroke:#000000;stroke-width:1.5;" width="786" x="3" y="210.7363"/><text fill="#000000" font-family="sans-serif" font-size="13" font-weight="bold" lengthAdjust="spacing" textLength="16" x="18" y="225.7646">alt</text><text fill="#000000" font-family="sans-serif" font-size="11" font-weight="bold" lengthAdjust="spacing" textLength="107" x="79" y="224.6064">[user autothorized]</text><polygon fill="#181818" points="716,249.3184,726,253.3184,716,257.3184,720,253.3184" style="stroke:#181818;stroke-width:1.0;"/><line style="stroke:#181818;stroke-width:1.0;" x1="440" x2="722" y1="253.3184" y2="253.3184"/><text fill="#000000" font-family="sans-serif" font-size="13" font-weight="bold" lengthAdjust="spacing" textLength="7" x="447" y="248.0557">2</text><text fill="#000000" font-family="sans-serif" font-size="13" lengthAdjust="spacing" textLength="98" x="458" y="248.0557">find by robisep id</text><polygon fill="#181818" points="451,280.6094,441,284.6094,451,288.6094,447,284.6094" style="stroke:#181818;stroke-width:1.0;"/><line style="stroke:#181818;stroke-width:1.0;stroke-dasharray:2.0,2.0;" x1="445" x2="732" y1="284.6094" y2="284.6094"/><text fill="#000000" font-family="sans-serif" font-size="13" font-weight="bold" lengthAdjust="spacing" textLength="7" x="457" y="279.3467">3</text><text fill="#000000" font-family="sans-serif" font-size="13" lengthAdjust="spacing" textLength="4" x="468" y="279.3467">&#160;</text><path d="M3,299.6094 L64,299.6094 L64,308.9004 L54,318.9004 L3,318.9004 L3,299.6094 " fill="#EEEEEE" style="stroke:#000000;stroke-width:1.5;"/><rect fill="none" height="98.5039" style="stroke:#000000;stroke-width:1.5;" width="492" x="3" y="299.6094"/><text fill="#000000" font-family="sans-serif" font-size="13" font-weight="bold" lengthAdjust="spacing" textLength="16" x="18" y="314.6377">alt</text><text fill="#000000" font-family="sans-serif" font-size="11" font-weight="bold" lengthAdjust="spacing" textLength="204" x="79" y="313.4795">[robisep with given id already exists]</text><polygon fill="#181818" points="11,338.1914,1,342.1914,11,346.1914,7,342.1914" style="stroke:#181818;stroke-width:1.0;"/><line style="stroke:#181818;stroke-width:1.0;stroke-dasharray:2.0,2.0;" x1="5" x2="429" y1="342.1914" y2="342.1914"/><text fill="#000000" font-family="sans-serif" font-size="13" font-weight="bold" lengthAdjust="spacing" textLength="7" x="17" y="336.9287">4</text><text fill="#000000" font-family="sans-serif" font-size="13" lengthAdjust="spacing" textLength="163" x="28" y="336.9287">Response status code - 409</text><line style="stroke:#000000;stroke-width:1.0;stroke-dasharray:2.0,2.0;" x1="3" x2="495" y1="351.1914" y2="351.1914"/><text fill="#000000" font-family="sans-serif" font-size="11" font-weight="bold" lengthAdjust="spacing" textLength="123" x="8" y="363.0615">[database unaveilable]</text><polygon fill="#181818" points="11,386.1133,1,390.1133,11,394.1133,7,390.1133" style="stroke:#181818;stroke-width:1.0;"/><line style="stroke:#181818;stroke-width:1.0;stroke-dasharray:2.0,2.0;" x1="5" x2="429" y1="390.1133" y2="390.1133"/><text fill="#000000" font-family="sans-serif" font-size="13" font-weight="bold" lengthAdjust="spacing" textLength="7" x="17" y="384.8506">5</text><text fill="#000000" font-family="sans-serif" font-size="13" lengthAdjust="spacing" textLength="163" x="28" y="384.8506">Response status code - 503</text><polygon fill="#181818" points="716,424.4043,726,428.4043,716,432.4043,720,428.4043" style="stroke:#181818;stroke-width:1.0;"/><line style="stroke:#181818;stroke-width:1.0;" x1="440" x2="722" y1="428.4043" y2="428.4043"/><text fill="#000000" font-family="sans-serif" font-size="13" font-weight="bold" lengthAdjust="spacing" textLength="7" x="447" y="423.1416">6</text><text fill="#000000" font-family="sans-serif" font-size="13" lengthAdjust="spacing" textLength="127" x="458" y="423.1416">find by robisep type id</text><polygon fill="#181818" points="451,455.6953,441,459.6953,451,463.6953,447,459.6953" style="stroke:#181818;stroke-width:1.0;"/><line style="stroke:#181818;stroke-width:1.0;stroke-dasharray:2.0,2.0;" x1="445" x2="732" y1="459.6953" y2="459.6953"/><text fill="#000000" font-family="sans-serif" font-size="13" font-weight="bold" lengthAdjust="spacing" textLength="7" x="457" y="454.4326">7</text><text fill="#000000" font-family="sans-serif" font-size="13" lengthAdjust="spacing" textLength="4" x="468" y="454.4326">&#160;</text><path d="M3,474.6953 L64,474.6953 L64,483.9863 L54,493.9863 L3,493.9863 L3,474.6953 " fill="#EEEEEE" style="stroke:#000000;stroke-width:1.5;"/><rect fill="none" height="98.5039" style="stroke:#000000;stroke-width:1.5;" width="492" x="3" y="474.6953"/><text fill="#000000" font-family="sans-serif" font-size="13" font-weight="bold" lengthAdjust="spacing" textLength="16" x="18" y="489.7236">alt</text><text fill="#000000" font-family="sans-serif" font-size="11" font-weight="bold" lengthAdjust="spacing" textLength="134" x="79" y="488.5654">[robisep type not found]</text><polygon fill="#181818" points="11,513.2773,1,517.2773,11,521.2773,7,517.2773" style="stroke:#181818;stroke-width:1.0;"/><line style="stroke:#181818;stroke-width:1.0;stroke-dasharray:2.0,2.0;" x1="5" x2="429" y1="517.2773" y2="517.2773"/><text fill="#000000" font-family="sans-serif" font-size="13" font-weight="bold" lengthAdjust="spacing" textLength="7" x="17" y="512.0146">8</text><text fill="#000000" font-family="sans-serif" font-size="13" lengthAdjust="spacing" textLength="163" x="28" y="512.0146">Response status code - 404</text><line style="stroke:#000000;stroke-width:1.0;stroke-dasharray:2.0,2.0;" x1="3" x2="495" y1="526.2773" y2="526.2773"/><text fill="#000000" font-family="sans-serif" font-size="11" font-weight="bold" lengthAdjust="spacing" textLength="123" x="8" y="538.1475">[database unaveilable]</text><polygon fill="#181818" points="11,561.1992,1,565.1992,11,569.1992,7,565.1992" style="stroke:#181818;stroke-width:1.0;"/><line style="stroke:#181818;stroke-width:1.0;stroke-dasharray:2.0,2.0;" x1="5" x2="429" y1="565.1992" y2="565.1992"/><text fill="#000000" font-family="sans-serif" font-size="13" font-weight="bold" lengthAdjust="spacing" textLength="7" x="17" y="559.9365">9</text><text fill="#000000" font-family="sans-serif" font-size="13" lengthAdjust="spacing" textLength="163" x="28" y="559.9365">Response status code - 503</text><polygon fill="#181818" points="716,599.4902,726,603.4902,716,607.4902,720,603.4902" style="stroke:#181818;stroke-width:1.0;"/><line style="stroke:#181818;stroke-width:1.0;" x1="440" x2="722" y1="603.4902" y2="603.4902"/><text fill="#000000" font-family="sans-serif" font-size="13" font-weight="bold" lengthAdjust="spacing" textLength="14" x="447" y="598.2275">10</text><text fill="#000000" font-family="sans-serif" font-size="13" lengthAdjust="spacing" textLength="70" x="465" y="598.2275">find by code</text><polygon fill="#181818" points="451,630.7813,441,634.7813,451,638.7813,447,634.7813" style="stroke:#181818;stroke-width:1.0;"/><line style="stroke:#181818;stroke-width:1.0;stroke-dasharray:2.0,2.0;" x1="445" x2="732" y1="634.7813" y2="634.7813"/><text fill="#000000" font-family="sans-serif" font-size="13" font-weight="bold" lengthAdjust="spacing" textLength="14" x="457" y="629.5186">11</text><text fill="#000000" font-family="sans-serif" font-size="13" lengthAdjust="spacing" textLength="4" x="475" y="629.5186">&#160;</text><path d="M3,649.7813 L64,649.7813 L64,659.0723 L54,669.0723 L3,669.0723 L3,649.7813 " fill="#EEEEEE" style="stroke:#000000;stroke-width:1.5;"/><rect fill="none" height="98.5039" style="stroke:#000000;stroke-width:1.5;" width="492" x="3" y="649.7813"/><text fill="#000000" font-family="sans-serif" font-size="13" font-weight="bold" lengthAdjust="spacing" textLength="16" x="18" y="664.8096">alt</text><text fill="#000000" font-family="sans-serif" font-size="11" font-weight="bold" lengthAdjust="spacing" textLength="221" x="79" y="663.6514">[robisep with given code already exists]</text><polygon fill="#181818" points="11,688.3633,1,692.3633,11,696.3633,7,692.3633" style="stroke:#181818;stroke-width:1.0;"/><line style="stroke:#181818;stroke-width:1.0;stroke-dasharray:2.0,2.0;" x1="5" x2="429" y1="692.3633" y2="692.3633"/><text fill="#000000" font-family="sans-serif" font-size="13" font-weight="bold" lengthAdjust="spacing" textLength="14" x="17" y="687.1006">12</text><text fill="#000000" font-family="sans-serif" font-size="13" lengthAdjust="spacing" textLength="163" x="35" y="687.1006">Response status code - 409</text><line style="stroke:#000000;stroke-width:1.0;stroke-dasharray:2.0,2.0;" x1="3" x2="495" y1="701.3633" y2="701.3633"/><text fill="#000000" font-family="sans-serif" font-size="11" font-weight="bold" lengthAdjust="spacing" textLength="123" x="8" y="713.2334">[database unaveilable]</text><polygon fill="#181818" points="11,736.2852,1,740.2852,11,744.2852,7,740.2852" style="stroke:#181818;stroke-width:1.0;"/><line style="stroke:#181818;stroke-width:1.0;stroke-dasharray:2.0,2.0;" x1="5" x2="429" y1="740.2852" y2="740.2852"/><text fill="#000000" font-family="sans-serif" font-size="13" font-weight="bold" lengthAdjust="spacing" textLength="14" x="17" y="735.0225">13</text><text fill="#000000" font-family="sans-serif" font-size="13" lengthAdjust="spacing" textLength="163" x="35" y="735.0225">Response status code - 503</text><polygon fill="#181818" points="716,774.5762,726,778.5762,716,782.5762,720,778.5762" style="stroke:#181818;stroke-width:1.0;"/><line style="stroke:#181818;stroke-width:1.0;" x1="440" x2="722" y1="778.5762" y2="778.5762"/><text fill="#000000" font-family="sans-serif" font-size="13" font-weight="bold" lengthAdjust="spacing" textLength="14" x="447" y="773.3135">14</text><text fill="#000000" font-family="sans-serif" font-size="13" lengthAdjust="spacing" textLength="251" x="465" y="773.3135">find by serial number withing the same type</text><polygon fill="#181818" points="451,805.8672,441,809.8672,451,813.8672,447,809.8672" style="stroke:#181818;stroke-width:1.0;"/><line style="stroke:#181818;stroke-width:1.0;stroke-dasharray:2.0,2.0;" x1="445" x2="732" y1="809.8672" y2="809.8672"/><text fill="#000000" font-family="sans-serif" font-size="13" font-weight="bold" lengthAdjust="spacing" textLength="14" x="457" y="804.6045">15</text><text fill="#000000" font-family="sans-serif" font-size="13" lengthAdjust="spacing" textLength="4" x="475" y="804.6045">&#160;</text><path d="M3,824.8672 L64,824.8672 L64,834.1582 L54,844.1582 L3,844.1582 L3,824.8672 " fill="#EEEEEE" style="stroke:#000000;stroke-width:1.5;"/><rect fill="none" height="98.5039" style="stroke:#000000;stroke-width:1.5;" width="492" x="3" y="824.8672"/><text fill="#000000" font-family="sans-serif" font-size="13" font-weight="bold" lengthAdjust="spacing" textLength="16" x="18" y="839.8955">alt</text><text fill="#000000" font-family="sans-serif" font-size="11" font-weight="bold" lengthAdjust="spacing" textLength="272" x="79" y="838.7373">[robisep with given serial number already exists]</text><polygon fill="#181818" points="11,863.4492,1,867.4492,11,871.4492,7,867.4492" style="stroke:#181818;stroke-width:1.0;"/><line style="stroke:#181818;stroke-width:1.0;stroke-dasharray:2.0,2.0;" x1="5" x2="429" y1="867.4492" y2="867.4492"/><text fill="#000000" font-family="sans-serif" font-size="13" font-weight="bold" lengthAdjust="spacing" textLength="14" x="17" y="862.1865">16</text><text fill="#000000" font-family="sans-serif" font-size="13" lengthAdjust="spacing" textLength="163" x="35" y="862.1865">Response status code - 409</text><line style="stroke:#000000;stroke-width:1.0;stroke-dasharray:2.0,2.0;" x1="3" x2="495" y1="876.4492" y2="876.4492"/><text fill="#000000" font-family="sans-serif" font-size="11" font-weight="bold" lengthAdjust="spacing" textLength="123" x="8" y="888.3193">[database unaveilable]</text><polygon fill="#181818" points="11,911.3711,1,915.3711,11,919.3711,7,915.3711" style="stroke:#181818;stroke-width:1.0;"/><line style="stroke:#181818;stroke-width:1.0;stroke-dasharray:2.0,2.0;" x1="5" x2="429" y1="915.3711" y2="915.3711"/><text fill="#000000" font-family="sans-serif" font-size="13" font-weight="bold" lengthAdjust="spacing" textLength="14" x="17" y="910.1084">17</text><text fill="#000000" font-family="sans-serif" font-size="13" lengthAdjust="spacing" textLength="163" x="35" y="910.1084">Response status code - 503</text><polygon fill="#181818" points="716,949.6621,726,953.6621,716,957.6621,720,953.6621" style="stroke:#181818;stroke-width:1.0;"/><line style="stroke:#181818;stroke-width:1.0;" x1="440" x2="722" y1="953.6621" y2="953.6621"/><text fill="#000000" font-family="sans-serif" font-size="13" font-weight="bold" lengthAdjust="spacing" textLength="14" x="447" y="948.3994">18</text><text fill="#000000" font-family="sans-serif" font-size="13" lengthAdjust="spacing" textLength="26" x="465" y="948.3994">save</text><polygon fill="#181818" points="451,980.9531,441,984.9531,451,988.9531,447,984.9531" style="stroke:#181818;stroke-width:1.0;"/><line style="stroke:#181818;stroke-width:1.0;stroke-dasharray:2.0,2.0;" x1="445" x2="732" y1="984.9531" y2="984.9531"/><text fill="#000000" font-family="sans-serif" font-size="13" font-weight="bold" lengthAdjust="spacing" textLength="14" x="457" y="979.6904">19</text><text fill="#000000" font-family="sans-serif" font-size="13" lengthAdjust="spacing" textLength="4" x="475" y="979.6904">&#160;</text><path d="M3,999.9531 L64,999.9531 L64,1009.2441 L54,1019.2441 L3,1019.2441 L3,999.9531 " fill="#EEEEEE" style="stroke:#000000;stroke-width:1.5;"/><rect fill="none" height="98.5039" style="stroke:#000000;stroke-width:1.5;" width="492" x="3" y="999.9531"/><text fill="#000000" font-family="sans-serif" font-size="13" font-weight="bold" lengthAdjust="spacing" textLength="16" x="18" y="1014.9814">alt</text><text fill="#000000" font-family="sans-serif" font-size="11" font-weight="bold" lengthAdjust="spacing" textLength="108" x="79" y="1013.8232">[robisep persisted]</text><polygon fill="#181818" points="11,1038.5352,1,1042.5352,11,1046.5352,7,1042.5352" style="stroke:#181818;stroke-width:1.0;"/><line style="stroke:#181818;stroke-width:1.0;stroke-dasharray:2.0,2.0;" x1="5" x2="429" y1="1042.5352" y2="1042.5352"/><text fill="#000000" font-family="sans-serif" font-size="13" font-weight="bold" lengthAdjust="spacing" textLength="14" x="17" y="1037.2725">20</text><text fill="#000000" font-family="sans-serif" font-size="13" lengthAdjust="spacing" textLength="163" x="35" y="1037.2725">Response status code - 201</text><line style="stroke:#000000;stroke-width:1.0;stroke-dasharray:2.0,2.0;" x1="3" x2="495" y1="1051.5352" y2="1051.5352"/><text fill="#000000" font-family="sans-serif" font-size="11" font-weight="bold" lengthAdjust="spacing" textLength="123" x="8" y="1063.4053">[database unaveilable]</text><polygon fill="#181818" points="11,1086.457,1,1090.457,11,1094.457,7,1090.457" style="stroke:#181818;stroke-width:1.0;"/><line style="stroke:#181818;stroke-width:1.0;stroke-dasharray:2.0,2.0;" x1="5" x2="429" y1="1090.457" y2="1090.457"/><text fill="#000000" font-family="sans-serif" font-size="13" font-weight="bold" lengthAdjust="spacing" textLength="14" x="17" y="1085.1943">21</text><text fill="#000000" font-family="sans-serif" font-size="13" lengthAdjust="spacing" textLength="163" x="35" y="1085.1943">Response status code - 503</text><line style="stroke:#000000;stroke-width:1.0;stroke-dasharray:2.0,2.0;" x1="3" x2="789" y1="1106.457" y2="1106.457"/><text fill="#000000" font-family="sans-serif" font-size="11" font-weight="bold" lengthAdjust="spacing" textLength="110" x="8" y="1118.3271">[user unauthorized]</text><polygon fill="#181818" points="11,1141.3789,1,1145.3789,11,1149.3789,7,1145.3789" style="stroke:#181818;stroke-width:1.0;"/><line style="stroke:#181818;stroke-width:1.0;stroke-dasharray:2.0,2.0;" x1="5" x2="429" y1="1145.3789" y2="1145.3789"/><text fill="#000000" font-family="sans-serif" font-size="13" font-weight="bold" lengthAdjust="spacing" textLength="14" x="17" y="1140.1162">22</text><text fill="#000000" font-family="sans-serif" font-size="13" lengthAdjust="spacing" textLength="163" x="35" y="1140.1162">Response status code - 401</text><!--SRC=[nPHDRzim38Rl_1L4BhtOMBfsXnb11hZEW5oweUbn5zbY4o6sP5XqDc_OVnyj9qrJz2Dh2_HYKnRvIkz3qAfbPzigfmRysjXQDQh2MXLhjQG5ToLXGmK3i669BnfIJ7ZbSkEf1f1qDeMfbMKSfL8LpwmUeVAOpd0oALnLEqkMfrFGYbMkFE4eaoYLAEHbwRqyYATIdE3tRujhR8Q3FlpHhbB6plMN17TXX6XDiRQgekGsYl27HK-DKULbS9KSh28id9Rq_XcX9byqfcRZRA-xNmqgB5QJuHNjRdBTrJJNoU7oBu0g6Liv2PNmv9Lhp6_I02TVZTMOTpjYECzE9BbWi-avfZC00IMEipJ1cstkLXkDlfEQfG32AXxe06WwsEhFtzNzDBp2fTcG5GbKfVHCTqY_Z6SFW3Y9uq3uYhnGbuxq5biVe62Cv-FF05JAzzkMjLPjo9GgB-a8WK_ZCn6m3zZlSVqN0kuBNieX55l7UEFQ_ZP7E3z_A-TRwsc75xBrlE5UuDNT3hTuptxlNI_2qE4mTU6EnYwHLr8hKnfQypoKONBHFY7oQcQ7Pxmll8KKFax5o-xBxDRKUF53nyp0n_7fMnaAAk6dA0hj_gTu1DJJGU8V]--></g></svg>