<?xml version="1.0" encoding="us-ascii" standalone="no"?><svg xmlns="http://www.w3.org/2000/svg" xmlns:xlink="http://www.w3.org/1999/xlink" contentStyleType="text/css" height="1696px" preserveAspectRatio="none" style="width:1156px;height:1696px;background:#FFFFFF;" version="1.1" viewBox="0 0 1156 1696" width="1156px" zoomAndPan="magnify"><defs/><g><text fill="#000000" font-family="sans-serif" font-size="14" font-weight="bold" lengthAdjust="spacing" textLength="90" x="534.75" y="30.1074">Edit Passage</text><rect fill="#FFFFFF" height="1409.6875" style="stroke:#181818;stroke-width:1.0;" width="10" x="786" y="178.4453"/><rect fill="#FFFFFF" height="31.291" style="stroke:#181818;stroke-width:1.0;" width="10" x="1093" y="209.7363"/><rect fill="#FFFFFF" height="31.291" style="stroke:#181818;stroke-width:1.0;" width="10" x="1093" y="384.8223"/><rect fill="#FFFFFF" height="31.291" style="stroke:#181818;stroke-width:1.0;" width="10" x="1093" y="559.9082"/><rect fill="#FFFFFF" height="31.291" style="stroke:#181818;stroke-width:1.0;" width="10" x="1093" y="734.9941"/><rect fill="#FFFFFF" height="31.291" style="stroke:#181818;stroke-width:1.0;" width="10" x="1093" y="910.0801"/><rect fill="#FFFFFF" height="31.291" style="stroke:#181818;stroke-width:1.0;" width="10" x="1093" y="1085.166"/><rect fill="#FFFFFF" height="31.291" style="stroke:#181818;stroke-width:1.0;" width="10" x="1093" y="1260.252"/><rect fill="#FFFFFF" height="31.291" style="stroke:#181818;stroke-width:1.0;" width="10" x="1093" y="1435.3379"/><rect fill="none" height="98.5039" style="stroke:#000000;stroke-width:1.5;" width="851" x="3" y="256.0273"/><rect fill="none" height="98.5039" style="stroke:#000000;stroke-width:1.5;" width="851" x="3" y="431.1133"/><rect fill="none" height="98.5039" style="stroke:#000000;stroke-width:1.5;" width="851" x="3" y="606.1992"/><rect fill="none" height="98.5039" style="stroke:#000000;stroke-width:1.5;" width="851" x="3" y="781.2852"/><rect fill="none" height="98.5039" style="stroke:#000000;stroke-width:1.5;" width="851" x="3" y="956.3711"/><rect fill="none" height="98.5039" style="stroke:#000000;stroke-width:1.5;" width="851" x="3" y="1131.457"/><rect fill="none" height="98.5039" style="stroke:#000000;stroke-width:1.5;" width="851" x="3" y="1306.543"/><rect fill="none" height="98.5039" style="stroke:#000000;stroke-width:1.5;" width="851" x="3" y="1481.6289"/><line style="stroke:#181818;stroke-width:0.5;stroke-dasharray:5.0,5.0;" x1="791" x2="791" y1="127.8633" y2="1597.1328"/><line style="stroke:#181818;stroke-width:0.5;stroke-dasharray:5.0,5.0;" x1="1097.5" x2="1097.5" y1="127.8633" y2="1597.1328"/><rect fill="#E2E2F0" height="51.2422" rx="2.5" ry="2.5" style="stroke:#181818;stroke-width:0.5;" width="106" x="738" y="75.6211"/><text fill="#000000" font-family="sans-serif" font-size="14" font-style="italic" lengthAdjust="spacing" textLength="86" x="748" y="97.7285">&#171;component&#187;</text><text fill="#000000" font-family="sans-serif" font-size="14" lengthAdjust="spacing" textLength="92" x="745" y="116.3496">Node Backend</text><rect fill="#E2E2F0" height="51.2422" rx="2.5" ry="2.5" style="stroke:#181818;stroke-width:0.5;" width="106" x="738" y="1596.1328"/><text fill="#000000" font-family="sans-serif" font-size="14" font-style="italic" lengthAdjust="spacing" textLength="86" x="748" y="1618.2402">&#171;component&#187;</text><text fill="#000000" font-family="sans-serif" font-size="14" lengthAdjust="spacing" textLength="92" x="745" y="1636.8613">Node Backend</text><text fill="#000000" font-family="sans-serif" font-size="14" font-style="italic" lengthAdjust="spacing" textLength="86" x="1052" y="105.7285">&#171;component&#187;</text><text fill="#000000" font-family="sans-serif" font-size="14" lengthAdjust="spacing" textLength="109" x="1040.5" y="124.3496">Mongo DataBase</text><path d="M1080,54.6211 C1080,44.6211 1098,44.6211 1098,44.6211 C1098,44.6211 1116,44.6211 1116,54.6211 L1116,80.6211 C1116,90.6211 1098,90.6211 1098,90.6211 C1098,90.6211 1080,90.6211 1080,80.6211 L1080,54.6211 " fill="#E2E2F0" style="stroke:#181818;stroke-width:1.5;"/><path d="M1080,54.6211 C1080,64.6211 1098,64.6211 1098,64.6211 C1098,64.6211 1116,64.6211 1116,54.6211 " fill="none" style="stroke:#181818;stroke-width:1.5;"/><text fill="#000000" font-family="sans-serif" font-size="14" font-style="italic" lengthAdjust="spacing" textLength="86" x="1052" y="1611.2402">&#171;component&#187;</text><text fill="#000000" font-family="sans-serif" font-size="14" lengthAdjust="spacing" textLength="109" x="1040.5" y="1629.8613">Mongo DataBase</text><path d="M1080,1643.375 C1080,1633.375 1098,1633.375 1098,1633.375 C1098,1633.375 1116,1633.375 1116,1643.375 L1116,1669.375 C1116,1679.375 1098,1679.375 1098,1679.375 C1098,1679.375 1080,1679.375 1080,1669.375 L1080,1643.375 " fill="#E2E2F0" style="stroke:#181818;stroke-width:1.5;"/><path d="M1080,1643.375 C1080,1653.375 1098,1653.375 1098,1653.375 C1098,1653.375 1116,1653.375 1116,1643.375 " fill="none" style="stroke:#181818;stroke-width:1.5;"/><rect fill="#FFFFFF" height="1409.6875" style="stroke:#181818;stroke-width:1.0;" width="10" x="786" y="178.4453"/><rect fill="#FFFFFF" height="31.291" style="stroke:#181818;stroke-width:1.0;" width="10" x="1093" y="209.7363"/><rect fill="#FFFFFF" height="31.291" style="stroke:#181818;stroke-width:1.0;" width="10" x="1093" y="384.8223"/><rect fill="#FFFFFF" height="31.291" style="stroke:#181818;stroke-width:1.0;" width="10" x="1093" y="559.9082"/><rect fill="#FFFFFF" height="31.291" style="stroke:#181818;stroke-width:1.0;" width="10" x="1093" y="734.9941"/><rect fill="#FFFFFF" height="31.291" style="stroke:#181818;stroke-width:1.0;" width="10" x="1093" y="910.0801"/><rect fill="#FFFFFF" height="31.291" style="stroke:#181818;stroke-width:1.0;" width="10" x="1093" y="1085.166"/><rect fill="#FFFFFF" height="31.291" style="stroke:#181818;stroke-width:1.0;" width="10" x="1093" y="1260.252"/><rect fill="#FFFFFF" height="31.291" style="stroke:#181818;stroke-width:1.0;" width="10" x="1093" y="1435.3379"/><polygon fill="#181818" points="774,174.4453,784,178.4453,774,182.4453,778,178.4453" style="stroke:#181818;stroke-width:1.0;"/><line style="stroke:#181818;stroke-width:1.0;" x1="0" x2="780" y1="178.4453" y2="178.4453"/><text fill="#000000" font-family="sans-serif" font-size="13" font-weight="bold" lengthAdjust="spacing" textLength="7" x="7" y="164.5371">1</text><text fill="#000000" font-family="sans-serif" font-size="13" lengthAdjust="spacing" textLength="745" x="18" y="155.8916">PATCH passages/{passageId}/{passageStartPoint?: {floorId?: floorId, firstCoordinates?: {x: x, y: y}, lastCoordinates?: {x: x, y: y}},</text><text fill="#000000" font-family="sans-serif" font-size="13" lengthAdjust="spacing" textLength="558" x="22" y="173.1826">passageEndPoint?: {floorId?: floorId, firstCoordinates?: {x: x, y: y}, lastCoordinates?: {x: x, y: y}}}</text><polygon fill="#181818" points="1081,205.7363,1091,209.7363,1081,213.7363,1085,209.7363" style="stroke:#181818;stroke-width:1.0;"/><line style="stroke:#181818;stroke-width:1.0;" x1="796" x2="1087" y1="209.7363" y2="209.7363"/><text fill="#000000" font-family="sans-serif" font-size="13" font-weight="bold" lengthAdjust="spacing" textLength="7" x="803" y="204.4736">2</text><text fill="#000000" font-family="sans-serif" font-size="13" lengthAdjust="spacing" textLength="105" x="814" y="204.4736">find by passage id</text><polygon fill="#181818" points="807,237.0273,797,241.0273,807,245.0273,803,241.0273" style="stroke:#181818;stroke-width:1.0;"/><line style="stroke:#181818;stroke-width:1.0;stroke-dasharray:2.0,2.0;" x1="801" x2="1097" y1="241.0273" y2="241.0273"/><text fill="#000000" font-family="sans-serif" font-size="13" font-weight="bold" lengthAdjust="spacing" textLength="7" x="813" y="235.7646">3</text><text fill="#000000" font-family="sans-serif" font-size="13" lengthAdjust="spacing" textLength="4" x="824" y="235.7646">&#160;</text><path d="M3,256.0273 L64,256.0273 L64,265.3184 L54,275.3184 L3,275.3184 L3,256.0273 " fill="#EEEEEE" style="stroke:#000000;stroke-width:1.5;"/><rect fill="none" height="98.5039" style="stroke:#000000;stroke-width:1.5;" width="851" x="3" y="256.0273"/><text fill="#000000" font-family="sans-serif" font-size="13" font-weight="bold" lengthAdjust="spacing" textLength="16" x="18" y="271.0557">alt</text><text fill="#000000" font-family="sans-serif" font-size="11" font-weight="bold" lengthAdjust="spacing" textLength="111" x="79" y="269.8975">[passage not found]</text><polygon fill="#181818" points="11,294.6094,1,298.6094,11,302.6094,7,298.6094" style="stroke:#181818;stroke-width:1.0;"/><line style="stroke:#181818;stroke-width:1.0;stroke-dasharray:2.0,2.0;" x1="5" x2="785" y1="298.6094" y2="298.6094"/><text fill="#000000" font-family="sans-serif" font-size="13" font-weight="bold" lengthAdjust="spacing" textLength="7" x="17" y="293.3467">4</text><text fill="#000000" font-family="sans-serif" font-size="13" lengthAdjust="spacing" textLength="163" x="28" y="293.3467">Response status code - 404</text><line style="stroke:#000000;stroke-width:1.0;stroke-dasharray:2.0,2.0;" x1="3" x2="854" y1="307.6094" y2="307.6094"/><text fill="#000000" font-family="sans-serif" font-size="11" font-weight="bold" lengthAdjust="spacing" textLength="122" x="8" y="319.4795">[database unavailable]</text><polygon fill="#181818" points="11,342.5313,1,346.5313,11,350.5313,7,346.5313" style="stroke:#181818;stroke-width:1.0;"/><line style="stroke:#181818;stroke-width:1.0;stroke-dasharray:2.0,2.0;" x1="5" x2="785" y1="346.5313" y2="346.5313"/><text fill="#000000" font-family="sans-serif" font-size="13" font-weight="bold" lengthAdjust="spacing" textLength="7" x="17" y="341.2686">5</text><text fill="#000000" font-family="sans-serif" font-size="13" lengthAdjust="spacing" textLength="163" x="28" y="341.2686">Response status code - 503</text><polygon fill="#181818" points="1081,380.8223,1091,384.8223,1081,388.8223,1085,384.8223" style="stroke:#181818;stroke-width:1.0;"/><line style="stroke:#181818;stroke-width:1.0;" x1="796" x2="1087" y1="384.8223" y2="384.8223"/><text fill="#000000" font-family="sans-serif" font-size="13" font-weight="bold" lengthAdjust="spacing" textLength="7" x="803" y="379.5596">6</text><text fill="#000000" font-family="sans-serif" font-size="13" lengthAdjust="spacing" textLength="80" x="814" y="379.5596">find by floor id</text><polygon fill="#181818" points="807,412.1133,797,416.1133,807,420.1133,803,416.1133" style="stroke:#181818;stroke-width:1.0;"/><line style="stroke:#181818;stroke-width:1.0;stroke-dasharray:2.0,2.0;" x1="801" x2="1097" y1="416.1133" y2="416.1133"/><text fill="#000000" font-family="sans-serif" font-size="13" font-weight="bold" lengthAdjust="spacing" textLength="7" x="813" y="410.8506">7</text><text fill="#000000" font-family="sans-serif" font-size="13" lengthAdjust="spacing" textLength="4" x="824" y="410.8506">&#160;</text><path d="M3,431.1133 L64,431.1133 L64,440.4043 L54,450.4043 L3,450.4043 L3,431.1133 " fill="#EEEEEE" style="stroke:#000000;stroke-width:1.5;"/><rect fill="none" height="98.5039" style="stroke:#000000;stroke-width:1.5;" width="851" x="3" y="431.1133"/><text fill="#000000" font-family="sans-serif" font-size="13" font-weight="bold" lengthAdjust="spacing" textLength="16" x="18" y="446.1416">alt</text><text fill="#000000" font-family="sans-serif" font-size="11" font-weight="bold" lengthAdjust="spacing" textLength="90" x="79" y="444.9834">[floor not found]</text><polygon fill="#181818" points="11,469.6953,1,473.6953,11,477.6953,7,473.6953" style="stroke:#181818;stroke-width:1.0;"/><line style="stroke:#181818;stroke-width:1.0;stroke-dasharray:2.0,2.0;" x1="5" x2="785" y1="473.6953" y2="473.6953"/><text fill="#000000" font-family="sans-serif" font-size="13" font-weight="bold" lengthAdjust="spacing" textLength="7" x="17" y="468.4326">8</text><text fill="#000000" font-family="sans-serif" font-size="13" lengthAdjust="spacing" textLength="163" x="28" y="468.4326">Response status code - 404</text><line style="stroke:#000000;stroke-width:1.0;stroke-dasharray:2.0,2.0;" x1="3" x2="854" y1="482.6953" y2="482.6953"/><text fill="#000000" font-family="sans-serif" font-size="11" font-weight="bold" lengthAdjust="spacing" textLength="122" x="8" y="494.5654">[database unavailable]</text><polygon fill="#181818" points="11,517.6172,1,521.6172,11,525.6172,7,521.6172" style="stroke:#181818;stroke-width:1.0;"/><line style="stroke:#181818;stroke-width:1.0;stroke-dasharray:2.0,2.0;" x1="5" x2="785" y1="521.6172" y2="521.6172"/><text fill="#000000" font-family="sans-serif" font-size="13" font-weight="bold" lengthAdjust="spacing" textLength="7" x="17" y="516.3545">9</text><text fill="#000000" font-family="sans-serif" font-size="13" lengthAdjust="spacing" textLength="163" x="28" y="516.3545">Response status code - 503</text><polygon fill="#181818" points="1081,555.9082,1091,559.9082,1081,563.9082,1085,559.9082" style="stroke:#181818;stroke-width:1.0;"/><line style="stroke:#181818;stroke-width:1.0;" x1="796" x2="1087" y1="559.9082" y2="559.9082"/><text fill="#000000" font-family="sans-serif" font-size="13" font-weight="bold" lengthAdjust="spacing" textLength="14" x="803" y="554.6455">10</text><text fill="#000000" font-family="sans-serif" font-size="13" lengthAdjust="spacing" textLength="260" x="821" y="554.6455">is there a passage between floor and building</text><polygon fill="#181818" points="807,587.1992,797,591.1992,807,595.1992,803,591.1992" style="stroke:#181818;stroke-width:1.0;"/><line style="stroke:#181818;stroke-width:1.0;stroke-dasharray:2.0,2.0;" x1="801" x2="1097" y1="591.1992" y2="591.1992"/><text fill="#000000" font-family="sans-serif" font-size="13" font-weight="bold" lengthAdjust="spacing" textLength="14" x="813" y="585.9365">11</text><text fill="#000000" font-family="sans-serif" font-size="13" lengthAdjust="spacing" textLength="4" x="831" y="585.9365">&#160;</text><path d="M3,606.1992 L64,606.1992 L64,615.4902 L54,625.4902 L3,625.4902 L3,606.1992 " fill="#EEEEEE" style="stroke:#000000;stroke-width:1.5;"/><rect fill="none" height="98.5039" style="stroke:#000000;stroke-width:1.5;" width="851" x="3" y="606.1992"/><text fill="#000000" font-family="sans-serif" font-size="13" font-weight="bold" lengthAdjust="spacing" textLength="16" x="18" y="621.2275">alt</text><text fill="#000000" font-family="sans-serif" font-size="11" font-weight="bold" lengthAdjust="spacing" textLength="135" x="79" y="620.0693">[passage already exists]</text><polygon fill="#181818" points="11,644.7813,1,648.7813,11,652.7813,7,648.7813" style="stroke:#181818;stroke-width:1.0;"/><line style="stroke:#181818;stroke-width:1.0;stroke-dasharray:2.0,2.0;" x1="5" x2="785" y1="648.7813" y2="648.7813"/><text fill="#000000" font-family="sans-serif" font-size="13" font-weight="bold" lengthAdjust="spacing" textLength="14" x="17" y="643.5186">12</text><text fill="#000000" font-family="sans-serif" font-size="13" lengthAdjust="spacing" textLength="163" x="35" y="643.5186">Response status code - 409</text><line style="stroke:#000000;stroke-width:1.0;stroke-dasharray:2.0,2.0;" x1="3" x2="854" y1="657.7813" y2="657.7813"/><text fill="#000000" font-family="sans-serif" font-size="11" font-weight="bold" lengthAdjust="spacing" textLength="122" x="8" y="669.6514">[database unavailable]</text><polygon fill="#181818" points="11,692.7031,1,696.7031,11,700.7031,7,696.7031" style="stroke:#181818;stroke-width:1.0;"/><line style="stroke:#181818;stroke-width:1.0;stroke-dasharray:2.0,2.0;" x1="5" x2="785" y1="696.7031" y2="696.7031"/><text fill="#000000" font-family="sans-serif" font-size="13" font-weight="bold" lengthAdjust="spacing" textLength="14" x="17" y="691.4404">13</text><text fill="#000000" font-family="sans-serif" font-size="13" lengthAdjust="spacing" textLength="163" x="35" y="691.4404">Response status code - 503</text><polygon fill="#181818" points="1081,730.9941,1091,734.9941,1081,738.9941,1085,734.9941" style="stroke:#181818;stroke-width:1.0;"/><line style="stroke:#181818;stroke-width:1.0;" x1="796" x2="1087" y1="734.9941" y2="734.9941"/><text fill="#000000" font-family="sans-serif" font-size="13" font-weight="bold" lengthAdjust="spacing" textLength="14" x="803" y="729.7314">14</text><text fill="#000000" font-family="sans-serif" font-size="13" lengthAdjust="spacing" textLength="73" x="821" y="729.7314">find by floors</text><polygon fill="#181818" points="807,762.2852,797,766.2852,807,770.2852,803,766.2852" style="stroke:#181818;stroke-width:1.0;"/><line style="stroke:#181818;stroke-width:1.0;stroke-dasharray:2.0,2.0;" x1="801" x2="1097" y1="766.2852" y2="766.2852"/><text fill="#000000" font-family="sans-serif" font-size="13" font-weight="bold" lengthAdjust="spacing" textLength="14" x="813" y="761.0225">15</text><text fill="#000000" font-family="sans-serif" font-size="13" lengthAdjust="spacing" textLength="4" x="831" y="761.0225">&#160;</text><path d="M3,781.2852 L64,781.2852 L64,790.5762 L54,800.5762 L3,800.5762 L3,781.2852 " fill="#EEEEEE" style="stroke:#000000;stroke-width:1.5;"/><rect fill="none" height="98.5039" style="stroke:#000000;stroke-width:1.5;" width="851" x="3" y="781.2852"/><text fill="#000000" font-family="sans-serif" font-size="13" font-weight="bold" lengthAdjust="spacing" textLength="16" x="18" y="796.3135">alt</text><text fill="#000000" font-family="sans-serif" font-size="11" font-weight="bold" lengthAdjust="spacing" textLength="135" x="79" y="795.1553">[passage already exists]</text><polygon fill="#181818" points="11,819.8672,1,823.8672,11,827.8672,7,823.8672" style="stroke:#181818;stroke-width:1.0;"/><line style="stroke:#181818;stroke-width:1.0;stroke-dasharray:2.0,2.0;" x1="5" x2="785" y1="823.8672" y2="823.8672"/><text fill="#000000" font-family="sans-serif" font-size="13" font-weight="bold" lengthAdjust="spacing" textLength="14" x="17" y="818.6045">16</text><text fill="#000000" font-family="sans-serif" font-size="13" lengthAdjust="spacing" textLength="163" x="35" y="818.6045">Response status code - 409</text><line style="stroke:#000000;stroke-width:1.0;stroke-dasharray:2.0,2.0;" x1="3" x2="854" y1="832.8672" y2="832.8672"/><text fill="#000000" font-family="sans-serif" font-size="11" font-weight="bold" lengthAdjust="spacing" textLength="122" x="8" y="844.7373">[database unavailable]</text><polygon fill="#181818" points="11,867.7891,1,871.7891,11,875.7891,7,871.7891" style="stroke:#181818;stroke-width:1.0;"/><line style="stroke:#181818;stroke-width:1.0;stroke-dasharray:2.0,2.0;" x1="5" x2="785" y1="871.7891" y2="871.7891"/><text fill="#000000" font-family="sans-serif" font-size="13" font-weight="bold" lengthAdjust="spacing" textLength="14" x="17" y="866.5264">17</text><text fill="#000000" font-family="sans-serif" font-size="13" lengthAdjust="spacing" textLength="163" x="35" y="866.5264">Response status code - 503</text><polygon fill="#181818" points="1081,906.0801,1091,910.0801,1081,914.0801,1085,910.0801" style="stroke:#181818;stroke-width:1.0;"/><line style="stroke:#181818;stroke-width:1.0;" x1="796" x2="1087" y1="910.0801" y2="910.0801"/><text fill="#000000" font-family="sans-serif" font-size="13" font-weight="bold" lengthAdjust="spacing" textLength="14" x="803" y="904.8174">18</text><text fill="#000000" font-family="sans-serif" font-size="13" lengthAdjust="spacing" textLength="80" x="821" y="904.8174">find by floor id</text><polygon fill="#181818" points="807,937.3711,797,941.3711,807,945.3711,803,941.3711" style="stroke:#181818;stroke-width:1.0;"/><line style="stroke:#181818;stroke-width:1.0;stroke-dasharray:2.0,2.0;" x1="801" x2="1097" y1="941.3711" y2="941.3711"/><text fill="#000000" font-family="sans-serif" font-size="13" font-weight="bold" lengthAdjust="spacing" textLength="14" x="813" y="936.1084">19</text><text fill="#000000" font-family="sans-serif" font-size="13" lengthAdjust="spacing" textLength="4" x="831" y="936.1084">&#160;</text><path d="M3,956.3711 L64,956.3711 L64,965.6621 L54,975.6621 L3,975.6621 L3,956.3711 " fill="#EEEEEE" style="stroke:#000000;stroke-width:1.5;"/><rect fill="none" height="98.5039" style="stroke:#000000;stroke-width:1.5;" width="851" x="3" y="956.3711"/><text fill="#000000" font-family="sans-serif" font-size="13" font-weight="bold" lengthAdjust="spacing" textLength="16" x="18" y="971.3994">alt</text><text fill="#000000" font-family="sans-serif" font-size="11" font-weight="bold" lengthAdjust="spacing" textLength="90" x="79" y="970.2412">[floor not found]</text><polygon fill="#181818" points="11,994.9531,1,998.9531,11,1002.9531,7,998.9531" style="stroke:#181818;stroke-width:1.0;"/><line style="stroke:#181818;stroke-width:1.0;stroke-dasharray:2.0,2.0;" x1="5" x2="785" y1="998.9531" y2="998.9531"/><text fill="#000000" font-family="sans-serif" font-size="13" font-weight="bold" lengthAdjust="spacing" textLength="14" x="17" y="993.6904">20</text><text fill="#000000" font-family="sans-serif" font-size="13" lengthAdjust="spacing" textLength="163" x="35" y="993.6904">Response status code - 404</text><line style="stroke:#000000;stroke-width:1.0;stroke-dasharray:2.0,2.0;" x1="3" x2="854" y1="1007.9531" y2="1007.9531"/><text fill="#000000" font-family="sans-serif" font-size="11" font-weight="bold" lengthAdjust="spacing" textLength="122" x="8" y="1019.8232">[database unavailable]</text><polygon fill="#181818" points="11,1042.875,1,1046.875,11,1050.875,7,1046.875" style="stroke:#181818;stroke-width:1.0;"/><line style="stroke:#181818;stroke-width:1.0;stroke-dasharray:2.0,2.0;" x1="5" x2="785" y1="1046.875" y2="1046.875"/><text fill="#000000" font-family="sans-serif" font-size="13" font-weight="bold" lengthAdjust="spacing" textLength="14" x="17" y="1041.6123">21</text><text fill="#000000" font-family="sans-serif" font-size="13" lengthAdjust="spacing" textLength="163" x="35" y="1041.6123">Response status code - 503</text><polygon fill="#181818" points="1081,1081.166,1091,1085.166,1081,1089.166,1085,1085.166" style="stroke:#181818;stroke-width:1.0;"/><line style="stroke:#181818;stroke-width:1.0;" x1="796" x2="1087" y1="1085.166" y2="1085.166"/><text fill="#000000" font-family="sans-serif" font-size="13" font-weight="bold" lengthAdjust="spacing" textLength="14" x="803" y="1079.9033">22</text><text fill="#000000" font-family="sans-serif" font-size="13" lengthAdjust="spacing" textLength="260" x="821" y="1079.9033">is there a passage between floor and building</text><polygon fill="#181818" points="807,1112.457,797,1116.457,807,1120.457,803,1116.457" style="stroke:#181818;stroke-width:1.0;"/><line style="stroke:#181818;stroke-width:1.0;stroke-dasharray:2.0,2.0;" x1="801" x2="1097" y1="1116.457" y2="1116.457"/><text fill="#000000" font-family="sans-serif" font-size="13" font-weight="bold" lengthAdjust="spacing" textLength="14" x="813" y="1111.1943">23</text><text fill="#000000" font-family="sans-serif" font-size="13" lengthAdjust="spacing" textLength="4" x="831" y="1111.1943">&#160;</text><path d="M3,1131.457 L64,1131.457 L64,1140.748 L54,1150.748 L3,1150.748 L3,1131.457 " fill="#EEEEEE" style="stroke:#000000;stroke-width:1.5;"/><rect fill="none" height="98.5039" style="stroke:#000000;stroke-width:1.5;" width="851" x="3" y="1131.457"/><text fill="#000000" font-family="sans-serif" font-size="13" font-weight="bold" lengthAdjust="spacing" textLength="16" x="18" y="1146.4854">alt</text><text fill="#000000" font-family="sans-serif" font-size="11" font-weight="bold" lengthAdjust="spacing" textLength="135" x="79" y="1145.3271">[passage already exists]</text><polygon fill="#181818" points="11,1170.0391,1,1174.0391,11,1178.0391,7,1174.0391" style="stroke:#181818;stroke-width:1.0;"/><line style="stroke:#181818;stroke-width:1.0;stroke-dasharray:2.0,2.0;" x1="5" x2="785" y1="1174.0391" y2="1174.0391"/><text fill="#000000" font-family="sans-serif" font-size="13" font-weight="bold" lengthAdjust="spacing" textLength="14" x="17" y="1168.7764">24</text><text fill="#000000" font-family="sans-serif" font-size="13" lengthAdjust="spacing" textLength="163" x="35" y="1168.7764">Response status code - 409</text><line style="stroke:#000000;stroke-width:1.0;stroke-dasharray:2.0,2.0;" x1="3" x2="854" y1="1183.0391" y2="1183.0391"/><text fill="#000000" font-family="sans-serif" font-size="11" font-weight="bold" lengthAdjust="spacing" textLength="122" x="8" y="1194.9092">[database unavailable]</text><polygon fill="#181818" points="11,1217.9609,1,1221.9609,11,1225.9609,7,1221.9609" style="stroke:#181818;stroke-width:1.0;"/><line style="stroke:#181818;stroke-width:1.0;stroke-dasharray:2.0,2.0;" x1="5" x2="785" y1="1221.9609" y2="1221.9609"/><text fill="#000000" font-family="sans-serif" font-size="13" font-weight="bold" lengthAdjust="spacing" textLength="14" x="17" y="1216.6982">25</text><text fill="#000000" font-family="sans-serif" font-size="13" lengthAdjust="spacing" textLength="163" x="35" y="1216.6982">Response status code - 503</text><polygon fill="#181818" points="1081,1256.252,1091,1260.252,1081,1264.252,1085,1260.252" style="stroke:#181818;stroke-width:1.0;"/><line style="stroke:#181818;stroke-width:1.0;" x1="796" x2="1087" y1="1260.252" y2="1260.252"/><text fill="#000000" font-family="sans-serif" font-size="13" font-weight="bold" lengthAdjust="spacing" textLength="14" x="803" y="1254.9893">26</text><text fill="#000000" font-family="sans-serif" font-size="13" lengthAdjust="spacing" textLength="73" x="821" y="1254.9893">find by floors</text><polygon fill="#181818" points="807,1287.543,797,1291.543,807,1295.543,803,1291.543" style="stroke:#181818;stroke-width:1.0;"/><line style="stroke:#181818;stroke-width:1.0;stroke-dasharray:2.0,2.0;" x1="801" x2="1097" y1="1291.543" y2="1291.543"/><text fill="#000000" font-family="sans-serif" font-size="13" font-weight="bold" lengthAdjust="spacing" textLength="14" x="813" y="1286.2803">27</text><text fill="#000000" font-family="sans-serif" font-size="13" lengthAdjust="spacing" textLength="4" x="831" y="1286.2803">&#160;</text><path d="M3,1306.543 L64,1306.543 L64,1315.834 L54,1325.834 L3,1325.834 L3,1306.543 " fill="#EEEEEE" style="stroke:#000000;stroke-width:1.5;"/><rect fill="none" height="98.5039" style="stroke:#000000;stroke-width:1.5;" width="851" x="3" y="1306.543"/><text fill="#000000" font-family="sans-serif" font-size="13" font-weight="bold" lengthAdjust="spacing" textLength="16" x="18" y="1321.5713">alt</text><text fill="#000000" font-family="sans-serif" font-size="11" font-weight="bold" lengthAdjust="spacing" textLength="135" x="79" y="1320.4131">[passage already exists]</text><polygon fill="#181818" points="11,1345.125,1,1349.125,11,1353.125,7,1349.125" style="stroke:#181818;stroke-width:1.0;"/><line style="stroke:#181818;stroke-width:1.0;stroke-dasharray:2.0,2.0;" x1="5" x2="785" y1="1349.125" y2="1349.125"/><text fill="#000000" font-family="sans-serif" font-size="13" font-weight="bold" lengthAdjust="spacing" textLength="14" x="17" y="1343.8623">28</text><text fill="#000000" font-family="sans-serif" font-size="13" lengthAdjust="spacing" textLength="163" x="35" y="1343.8623">Response status code - 409</text><line style="stroke:#000000;stroke-width:1.0;stroke-dasharray:2.0,2.0;" x1="3" x2="854" y1="1358.125" y2="1358.125"/><text fill="#000000" font-family="sans-serif" font-size="11" font-weight="bold" lengthAdjust="spacing" textLength="122" x="8" y="1369.9951">[database unavailable]</text><polygon fill="#181818" points="11,1393.0469,1,1397.0469,11,1401.0469,7,1397.0469" style="stroke:#181818;stroke-width:1.0;"/><line style="stroke:#181818;stroke-width:1.0;stroke-dasharray:2.0,2.0;" x1="5" x2="785" y1="1397.0469" y2="1397.0469"/><text fill="#000000" font-family="sans-serif" font-size="13" font-weight="bold" lengthAdjust="spacing" textLength="14" x="17" y="1391.7842">29</text><text fill="#000000" font-family="sans-serif" font-size="13" lengthAdjust="spacing" textLength="163" x="35" y="1391.7842">Response status code - 503</text><polygon fill="#181818" points="1081,1431.3379,1091,1435.3379,1081,1439.3379,1085,1435.3379" style="stroke:#181818;stroke-width:1.0;"/><line style="stroke:#181818;stroke-width:1.0;" x1="796" x2="1087" y1="1435.3379" y2="1435.3379"/><text fill="#000000" font-family="sans-serif" font-size="13" font-weight="bold" lengthAdjust="spacing" textLength="14" x="803" y="1430.0752">30</text><text fill="#000000" font-family="sans-serif" font-size="13" lengthAdjust="spacing" textLength="26" x="821" y="1430.0752">save</text><polygon fill="#181818" points="807,1462.6289,797,1466.6289,807,1470.6289,803,1466.6289" style="stroke:#181818;stroke-width:1.0;"/><line style="stroke:#181818;stroke-width:1.0;stroke-dasharray:2.0,2.0;" x1="801" x2="1097" y1="1466.6289" y2="1466.6289"/><text fill="#000000" font-family="sans-serif" font-size="13" font-weight="bold" lengthAdjust="spacing" textLength="14" x="813" y="1461.3662">31</text><text fill="#000000" font-family="sans-serif" font-size="13" lengthAdjust="spacing" textLength="4" x="831" y="1461.3662">&#160;</text><path d="M3,1481.6289 L64,1481.6289 L64,1490.9199 L54,1500.9199 L3,1500.9199 L3,1481.6289 " fill="#EEEEEE" style="stroke:#000000;stroke-width:1.5;"/><rect fill="none" height="98.5039" style="stroke:#000000;stroke-width:1.5;" width="851" x="3" y="1481.6289"/><text fill="#000000" font-family="sans-serif" font-size="13" font-weight="bold" lengthAdjust="spacing" textLength="16" x="18" y="1496.6572">alt</text><text fill="#000000" font-family="sans-serif" font-size="11" font-weight="bold" lengthAdjust="spacing" textLength="112" x="79" y="1495.499">[passage persisted]</text><polygon fill="#181818" points="11,1520.2109,1,1524.2109,11,1528.2109,7,1524.2109" style="stroke:#181818;stroke-width:1.0;"/><line style="stroke:#181818;stroke-width:1.0;stroke-dasharray:2.0,2.0;" x1="5" x2="785" y1="1524.2109" y2="1524.2109"/><text fill="#000000" font-family="sans-serif" font-size="13" font-weight="bold" lengthAdjust="spacing" textLength="14" x="17" y="1518.9482">32</text><text fill="#000000" font-family="sans-serif" font-size="13" lengthAdjust="spacing" textLength="163" x="35" y="1518.9482">Response status code - 200</text><line style="stroke:#000000;stroke-width:1.0;stroke-dasharray:2.0,2.0;" x1="3" x2="854" y1="1533.2109" y2="1533.2109"/><text fill="#000000" font-family="sans-serif" font-size="11" font-weight="bold" lengthAdjust="spacing" textLength="122" x="8" y="1545.0811">[database unavailable]</text><polygon fill="#181818" points="11,1568.1328,1,1572.1328,11,1576.1328,7,1572.1328" style="stroke:#181818;stroke-width:1.0;"/><line style="stroke:#181818;stroke-width:1.0;stroke-dasharray:2.0,2.0;" x1="5" x2="785" y1="1572.1328" y2="1572.1328"/><text fill="#000000" font-family="sans-serif" font-size="13" font-weight="bold" lengthAdjust="spacing" textLength="14" x="17" y="1566.8701">33</text><text fill="#000000" font-family="sans-serif" font-size="13" lengthAdjust="spacing" textLength="163" x="35" y="1566.8701">Response status code - 503</text><!--SRC=[xL9DRzD04BtFhnZbaaii8YW7eYXLNASY1r14U-nbx9s4LPrTopiEiQhyTyQ9Qm5IaLi5ED3RxCwRZ_VcKINULTkKImZtrXLKqXOBokvfmpTIvumbPm8WLZHU62kueX0q2w1WiPajo0aEFdl366iXEpD02XWlS3hD_BRmZftCPc18AAN0EFZatSPZekzOtqTq4l-2XcYcBIQucjzUVTIDZZF3cuSsMff35z-8BhBoridb11_MkVVbqcZOHYDSspB8bJwCTIGS6jX-WliHrXEi3oFCwNTv1TovnnKMplp9KGU0uRLr1jFwKMXS9aC0oiJkj4950L1jLPuari4jjjqEhVa1ciG0AcnqaXB0y4yfogMhSrvmxIkdvOZJA3fg_uM3taCl5eIa2fWrDuxmOdm1mBd-ToUj7Et8vfJctAF1-_4xRT3CwhXUDmBsOdgK-jayJrN_YkKouErNBXddtL5Zbc_ChYK-LsvnPNDrnMRub08se1oxK7UsjEroeaUDGcsNbzc0yfB9rCXx6oH0Bva-dDSCdK2jASAmboF2UGZ_VRwlvdyr_tze_YTe1ThnoyWKN0QbmNti_NOyFXEFxm00]--></g></svg>