<?xml version="1.0" encoding="us-ascii" standalone="no"?><svg xmlns="http://www.w3.org/2000/svg" xmlns:xlink="http://www.w3.org/1999/xlink" contentStyleType="text/css" height="902px" preserveAspectRatio="none" style="width:645px;height:902px;background:#FFFFFF;" version="1.1" viewBox="0 0 645 902" width="645px" zoomAndPan="magnify"><defs/><g><text fill="#000000" font-family="sans-serif" font-size="14" font-weight="bold" lengthAdjust="spacing" textLength="142" x="252.5" y="30.1074">Create RobisepType</text><rect fill="#FFFFFF" height="615.4707" style="stroke:#181818;stroke-width:1.0;" width="10" x="429" y="178.4453"/><rect fill="#FFFFFF" height="31.291" style="stroke:#181818;stroke-width:1.0;" width="10" x="577" y="236.0273"/><rect fill="#FFFFFF" height="31.291" style="stroke:#181818;stroke-width:1.0;" width="10" x="577" y="411.1133"/><rect fill="#FFFFFF" height="31.291" style="stroke:#181818;stroke-width:1.0;" width="10" x="577" y="586.1992"/><rect fill="none" height="592.4707" style="stroke:#000000;stroke-width:1.5;" width="635" x="3" y="193.4453"/><rect fill="none" height="98.5039" style="stroke:#000000;stroke-width:1.5;" width="491" x="3" y="282.3184"/><rect fill="none" height="98.5039" style="stroke:#000000;stroke-width:1.5;" width="491" x="3" y="457.4043"/><rect fill="none" height="98.5039" style="stroke:#000000;stroke-width:1.5;" width="491" x="3" y="632.4902"/><line style="stroke:#181818;stroke-width:0.5;stroke-dasharray:5.0,5.0;" x1="434" x2="434" y1="127.8633" y2="802.916"/><line style="stroke:#181818;stroke-width:0.5;stroke-dasharray:5.0,5.0;" x1="582" x2="582" y1="127.8633" y2="802.916"/><rect fill="#E2E2F0" height="51.2422" rx="2.5" ry="2.5" style="stroke:#181818;stroke-width:0.5;" width="100" x="384" y="75.6211"/><text fill="#000000" font-family="sans-serif" font-size="14" font-style="italic" lengthAdjust="spacing" textLength="86" x="391" y="97.7285">&#171;component&#187;</text><text fill="#000000" font-family="sans-serif" font-size="14" lengthAdjust="spacing" textLength="61" x="403.5" y="116.3496">Back-End</text><rect fill="#E2E2F0" height="51.2422" rx="2.5" ry="2.5" style="stroke:#181818;stroke-width:0.5;" width="100" x="384" y="801.916"/><text fill="#000000" font-family="sans-serif" font-size="14" font-style="italic" lengthAdjust="spacing" textLength="86" x="391" y="824.0234">&#171;component&#187;</text><text fill="#000000" font-family="sans-serif" font-size="14" lengthAdjust="spacing" textLength="61" x="403.5" y="842.6445">Back-End</text><text fill="#000000" font-family="sans-serif" font-size="14" font-style="italic" lengthAdjust="spacing" textLength="86" x="536" y="105.7285">&#171;component&#187;</text><text fill="#000000" font-family="sans-serif" font-size="14" lengthAdjust="spacing" textLength="62" x="548" y="124.3496">DataBase</text><path d="M564,54.6211 C564,44.6211 582,44.6211 582,44.6211 C582,44.6211 600,44.6211 600,54.6211 L600,80.6211 C600,90.6211 582,90.6211 582,90.6211 C582,90.6211 564,90.6211 564,80.6211 L564,54.6211 " fill="#E2E2F0" style="stroke:#181818;stroke-width:1.5;"/><path d="M564,54.6211 C564,64.6211 582,64.6211 582,64.6211 C582,64.6211 600,64.6211 600,54.6211 " fill="none" style="stroke:#181818;stroke-width:1.5;"/><text fill="#000000" font-family="sans-serif" font-size="14" font-style="italic" lengthAdjust="spacing" textLength="86" x="536" y="817.0234">&#171;component&#187;</text><text fill="#000000" font-family="sans-serif" font-size="14" lengthAdjust="spacing" textLength="62" x="548" y="835.6445">DataBase</text><path d="M564,849.1582 C564,839.1582 582,839.1582 582,839.1582 C582,839.1582 600,839.1582 600,849.1582 L600,875.1582 C600,885.1582 582,885.1582 582,885.1582 C582,885.1582 564,885.1582 564,875.1582 L564,849.1582 " fill="#E2E2F0" style="stroke:#181818;stroke-width:1.5;"/><path d="M564,849.1582 C564,859.1582 582,859.1582 582,859.1582 C582,859.1582 600,859.1582 600,849.1582 " fill="none" style="stroke:#181818;stroke-width:1.5;"/><rect fill="#FFFFFF" height="615.4707" style="stroke:#181818;stroke-width:1.0;" width="10" x="429" y="178.4453"/><rect fill="#FFFFFF" height="31.291" style="stroke:#181818;stroke-width:1.0;" width="10" x="577" y="236.0273"/><rect fill="#FFFFFF" height="31.291" style="stroke:#181818;stroke-width:1.0;" width="10" x="577" y="411.1133"/><rect fill="#FFFFFF" height="31.291" style="stroke:#181818;stroke-width:1.0;" width="10" x="577" y="586.1992"/><polygon fill="#181818" points="417,174.4453,427,178.4453,417,182.4453,421,178.4453" style="stroke:#181818;stroke-width:1.0;"/><line style="stroke:#181818;stroke-width:1.0;" x1="0" x2="423" y1="178.4453" y2="178.4453"/><text fill="#000000" font-family="sans-serif" font-size="13" font-weight="bold" lengthAdjust="spacing" textLength="7" x="7" y="164.5371">1</text><text fill="#000000" font-family="sans-serif" font-size="13" lengthAdjust="spacing" textLength="388" x="18" y="155.8916">POST robisepType/{domainId?: domainId, designation: designation,</text><text fill="#000000" font-family="sans-serif" font-size="13" lengthAdjust="spacing" textLength="298" x="22" y="173.1826">brand: brand, model: model, tasksType: tasksType}</text><path d="M3,193.4453 L64,193.4453 L64,202.7363 L54,212.7363 L3,212.7363 L3,193.4453 " fill="#EEEEEE" style="stroke:#000000;stroke-width:1.5;"/><rect fill="none" height="592.4707" style="stroke:#000000;stroke-width:1.5;" width="635" x="3" y="193.4453"/><text fill="#000000" font-family="sans-serif" font-size="13" font-weight="bold" lengthAdjust="spacing" textLength="16" x="18" y="208.4736">alt</text><text fill="#000000" font-family="sans-serif" font-size="11" font-weight="bold" lengthAdjust="spacing" textLength="107" x="79" y="207.3154">[user autothorized]</text><polygon fill="#181818" points="565,232.0273,575,236.0273,565,240.0273,569,236.0273" style="stroke:#181818;stroke-width:1.0;"/><line style="stroke:#181818;stroke-width:1.0;" x1="439" x2="571" y1="236.0273" y2="236.0273"/><text fill="#000000" font-family="sans-serif" font-size="13" font-weight="bold" lengthAdjust="spacing" textLength="7" x="446" y="230.7646">2</text><text fill="#000000" font-family="sans-serif" font-size="13" lengthAdjust="spacing" textLength="98" x="457" y="230.7646">find by domain Id</text><polygon fill="#181818" points="450,263.3184,440,267.3184,450,271.3184,446,267.3184" style="stroke:#181818;stroke-width:1.0;"/><line style="stroke:#181818;stroke-width:1.0;stroke-dasharray:2.0,2.0;" x1="444" x2="581" y1="267.3184" y2="267.3184"/><text fill="#000000" font-family="sans-serif" font-size="13" font-weight="bold" lengthAdjust="spacing" textLength="7" x="456" y="262.0557">3</text><text fill="#000000" font-family="sans-serif" font-size="13" lengthAdjust="spacing" textLength="4" x="467" y="262.0557">&#160;</text><path d="M3,282.3184 L64,282.3184 L64,291.6094 L54,301.6094 L3,301.6094 L3,282.3184 " fill="#EEEEEE" style="stroke:#000000;stroke-width:1.5;"/><rect fill="none" height="98.5039" style="stroke:#000000;stroke-width:1.5;" width="491" x="3" y="282.3184"/><text fill="#000000" font-family="sans-serif" font-size="13" font-weight="bold" lengthAdjust="spacing" textLength="16" x="18" y="297.3467">alt</text><text fill="#000000" font-family="sans-serif" font-size="11" font-weight="bold" lengthAdjust="spacing" textLength="272" x="79" y="296.1885">[robisep type with given domainId already exists]</text><polygon fill="#181818" points="11,320.9004,1,324.9004,11,328.9004,7,324.9004" style="stroke:#181818;stroke-width:1.0;"/><line style="stroke:#181818;stroke-width:1.0;stroke-dasharray:2.0,2.0;" x1="5" x2="428" y1="324.9004" y2="324.9004"/><text fill="#000000" font-family="sans-serif" font-size="13" font-weight="bold" lengthAdjust="spacing" textLength="7" x="17" y="319.6377">4</text><text fill="#000000" font-family="sans-serif" font-size="13" lengthAdjust="spacing" textLength="163" x="28" y="319.6377">Response status code - 409</text><line style="stroke:#000000;stroke-width:1.0;stroke-dasharray:2.0,2.0;" x1="3" x2="494" y1="333.9004" y2="333.9004"/><text fill="#000000" font-family="sans-serif" font-size="11" font-weight="bold" lengthAdjust="spacing" textLength="123" x="8" y="345.7705">[database unaveilable]</text><polygon fill="#181818" points="11,368.8223,1,372.8223,11,376.8223,7,372.8223" style="stroke:#181818;stroke-width:1.0;"/><line style="stroke:#181818;stroke-width:1.0;stroke-dasharray:2.0,2.0;" x1="5" x2="428" y1="372.8223" y2="372.8223"/><text fill="#000000" font-family="sans-serif" font-size="13" font-weight="bold" lengthAdjust="spacing" textLength="7" x="17" y="367.5596">5</text><text fill="#000000" font-family="sans-serif" font-size="13" lengthAdjust="spacing" textLength="163" x="28" y="367.5596">Response status code - 503</text><polygon fill="#181818" points="565,407.1133,575,411.1133,565,415.1133,569,411.1133" style="stroke:#181818;stroke-width:1.0;"/><line style="stroke:#181818;stroke-width:1.0;" x1="439" x2="571" y1="411.1133" y2="411.1133"/><text fill="#000000" font-family="sans-serif" font-size="13" font-weight="bold" lengthAdjust="spacing" textLength="7" x="446" y="405.8506">6</text><text fill="#000000" font-family="sans-serif" font-size="13" lengthAdjust="spacing" textLength="108" x="457" y="405.8506">find by designation</text><polygon fill="#181818" points="450,438.4043,440,442.4043,450,446.4043,446,442.4043" style="stroke:#181818;stroke-width:1.0;"/><line style="stroke:#181818;stroke-width:1.0;stroke-dasharray:2.0,2.0;" x1="444" x2="581" y1="442.4043" y2="442.4043"/><text fill="#000000" font-family="sans-serif" font-size="13" font-weight="bold" lengthAdjust="spacing" textLength="7" x="456" y="437.1416">7</text><text fill="#000000" font-family="sans-serif" font-size="13" lengthAdjust="spacing" textLength="4" x="467" y="437.1416">&#160;</text><path d="M3,457.4043 L64,457.4043 L64,466.6953 L54,476.6953 L3,476.6953 L3,457.4043 " fill="#EEEEEE" style="stroke:#000000;stroke-width:1.5;"/><rect fill="none" height="98.5039" style="stroke:#000000;stroke-width:1.5;" width="491" x="3" y="457.4043"/><text fill="#000000" font-family="sans-serif" font-size="13" font-weight="bold" lengthAdjust="spacing" textLength="16" x="18" y="472.4326">alt</text><text fill="#000000" font-family="sans-serif" font-size="11" font-weight="bold" lengthAdjust="spacing" textLength="286" x="79" y="471.2744">[robisep type with given designation already exists]</text><polygon fill="#181818" points="11,495.9863,1,499.9863,11,503.9863,7,499.9863" style="stroke:#181818;stroke-width:1.0;"/><line style="stroke:#181818;stroke-width:1.0;stroke-dasharray:2.0,2.0;" x1="5" x2="428" y1="499.9863" y2="499.9863"/><text fill="#000000" font-family="sans-serif" font-size="13" font-weight="bold" lengthAdjust="spacing" textLength="7" x="17" y="494.7236">8</text><text fill="#000000" font-family="sans-serif" font-size="13" lengthAdjust="spacing" textLength="163" x="28" y="494.7236">Response status code - 409</text><line style="stroke:#000000;stroke-width:1.0;stroke-dasharray:2.0,2.0;" x1="3" x2="494" y1="508.9863" y2="508.9863"/><text fill="#000000" font-family="sans-serif" font-size="11" font-weight="bold" lengthAdjust="spacing" textLength="123" x="8" y="520.8564">[database unaveilable]</text><polygon fill="#181818" points="11,543.9082,1,547.9082,11,551.9082,7,547.9082" style="stroke:#181818;stroke-width:1.0;"/><line style="stroke:#181818;stroke-width:1.0;stroke-dasharray:2.0,2.0;" x1="5" x2="428" y1="547.9082" y2="547.9082"/><text fill="#000000" font-family="sans-serif" font-size="13" font-weight="bold" lengthAdjust="spacing" textLength="7" x="17" y="542.6455">9</text><text fill="#000000" font-family="sans-serif" font-size="13" lengthAdjust="spacing" textLength="163" x="28" y="542.6455">Response status code - 503</text><polygon fill="#181818" points="565,582.1992,575,586.1992,565,590.1992,569,586.1992" style="stroke:#181818;stroke-width:1.0;"/><line style="stroke:#181818;stroke-width:1.0;" x1="439" x2="571" y1="586.1992" y2="586.1992"/><text fill="#000000" font-family="sans-serif" font-size="13" font-weight="bold" lengthAdjust="spacing" textLength="14" x="446" y="580.9365">10</text><text fill="#000000" font-family="sans-serif" font-size="13" lengthAdjust="spacing" textLength="26" x="464" y="580.9365">save</text><polygon fill="#181818" points="450,613.4902,440,617.4902,450,621.4902,446,617.4902" style="stroke:#181818;stroke-width:1.0;"/><line style="stroke:#181818;stroke-width:1.0;stroke-dasharray:2.0,2.0;" x1="444" x2="581" y1="617.4902" y2="617.4902"/><text fill="#000000" font-family="sans-serif" font-size="13" font-weight="bold" lengthAdjust="spacing" textLength="14" x="456" y="612.2275">11</text><text fill="#000000" font-family="sans-serif" font-size="13" lengthAdjust="spacing" textLength="4" x="474" y="612.2275">&#160;</text><path d="M3,632.4902 L64,632.4902 L64,641.7813 L54,651.7813 L3,651.7813 L3,632.4902 " fill="#EEEEEE" style="stroke:#000000;stroke-width:1.5;"/><rect fill="none" height="98.5039" style="stroke:#000000;stroke-width:1.5;" width="491" x="3" y="632.4902"/><text fill="#000000" font-family="sans-serif" font-size="13" font-weight="bold" lengthAdjust="spacing" textLength="16" x="18" y="647.5186">alt</text><text fill="#000000" font-family="sans-serif" font-size="11" font-weight="bold" lengthAdjust="spacing" textLength="135" x="79" y="646.3604">[robisep type persisted]</text><polygon fill="#181818" points="11,671.0723,1,675.0723,11,679.0723,7,675.0723" style="stroke:#181818;stroke-width:1.0;"/><line style="stroke:#181818;stroke-width:1.0;stroke-dasharray:2.0,2.0;" x1="5" x2="428" y1="675.0723" y2="675.0723"/><text fill="#000000" font-family="sans-serif" font-size="13" font-weight="bold" lengthAdjust="spacing" textLength="14" x="17" y="669.8096">12</text><text fill="#000000" font-family="sans-serif" font-size="13" lengthAdjust="spacing" textLength="163" x="35" y="669.8096">Response status code - 201</text><line style="stroke:#000000;stroke-width:1.0;stroke-dasharray:2.0,2.0;" x1="3" x2="494" y1="684.0723" y2="684.0723"/><text fill="#000000" font-family="sans-serif" font-size="11" font-weight="bold" lengthAdjust="spacing" textLength="123" x="8" y="695.9424">[database unaveilable]</text><polygon fill="#181818" points="11,718.9941,1,722.9941,11,726.9941,7,722.9941" style="stroke:#181818;stroke-width:1.0;"/><line style="stroke:#181818;stroke-width:1.0;stroke-dasharray:2.0,2.0;" x1="5" x2="428" y1="722.9941" y2="722.9941"/><text fill="#000000" font-family="sans-serif" font-size="13" font-weight="bold" lengthAdjust="spacing" textLength="14" x="17" y="717.7314">13</text><text fill="#000000" font-family="sans-serif" font-size="13" lengthAdjust="spacing" textLength="163" x="35" y="717.7314">Response status code - 503</text><line style="stroke:#000000;stroke-width:1.0;stroke-dasharray:2.0,2.0;" x1="3" x2="638" y1="738.9941" y2="738.9941"/><text fill="#000000" font-family="sans-serif" font-size="11" font-weight="bold" lengthAdjust="spacing" textLength="110" x="8" y="750.8643">[user unauthorized]</text><polygon fill="#181818" points="11,773.916,1,777.916,11,781.916,7,777.916" style="stroke:#181818;stroke-width:1.0;"/><line style="stroke:#181818;stroke-width:1.0;stroke-dasharray:2.0,2.0;" x1="5" x2="428" y1="777.916" y2="777.916"/><text fill="#000000" font-family="sans-serif" font-size="13" font-weight="bold" lengthAdjust="spacing" textLength="14" x="17" y="772.6533">14</text><text fill="#000000" font-family="sans-serif" font-size="13" lengthAdjust="spacing" textLength="163" x="35" y="772.6533">Response status code - 401</text><!--SRC=[nL9DIyD04BtFhnXwyT9W_JeOIeMO2fwKrgENINQiIvDDs9rKg_ZVdQRQj89OKF2qBvitR-Qz7MgaSasPiOSmjwucJoNMbCzfnbDP5eoUSm4GAuelFPCmJghC1gxlbZK3Q8dOtDRa17k9LaPZPtf80PCn3eTvLTQLOoUZ4HWIoYWmzb95YQAMboPVU12Dj3Z6svlf7VgksU6hgKgoxjfSnFW9-sWus9aZiPMBjp_wUEymy-HCl3xwM5Q6YtXzz54epCDAEExW6m0LWarWZwJXo6FbxGiR03YuiivWjiIqROtNva39kTZ5AfHa3A2ETVGqYV7XWse-gLlCD05Gpz7Q9O3XdL-hzX-cKNGYVBBoY3ExOBSnZLJeKvWbyhCD4W0GXr7KXZRXe45go458ce2vUiK8JmVd05pe_UOL6aSBjWLb1UyXS3OuKG6t6qGNzXvHTEG_2gCJ_DyylZ4ULEuNJclsGSsiLk_7OOu7Ht_bfbLfrryLccxzzqZqQ2tn3W00]--></g></svg>