<?xml version="1.0" encoding="us-ascii" standalone="no"?><svg xmlns="http://www.w3.org/2000/svg" xmlns:xlink="http://www.w3.org/1999/xlink" contentStyleType="text/css" height="533px" preserveAspectRatio="none" style="width:620px;height:533px;background:#FFFFFF;" version="1.1" viewBox="0 0 620 533" width="620px" zoomAndPan="magnify"><defs/><g><text fill="#000000" font-family="JetBrains Mono" font-size="14" font-weight="bold" lengthAdjust="spacing" textLength="296" x="163" y="29.2799">GET Buildings with min and max floors</text><rect fill="#FFFFFF" height="264.8" style="stroke:#181818;stroke-width:1.0;" width="10" x="390" y="160.5998"/><rect fill="#FFFFFF" height="31.16" style="stroke:#181818;stroke-width:1.0;" width="10" x="551" y="235.0798"/><rect fill="none" height="241.8" style="stroke:#000000;stroke-width:1.5;" width="610" x="3" y="175.5998"/><rect fill="none" height="50.32" style="stroke:#000000;stroke-width:1.5;" width="453" x="3" y="312.3998"/><line style="stroke:#181818;stroke-width:0.5;stroke-dasharray:5.0,5.0;" x1="395" x2="395" y1="127.4398" y2="434.3998"/><line style="stroke:#181818;stroke-width:0.5;stroke-dasharray:5.0,5.0;" x1="556" x2="556" y1="127.4398" y2="434.3998"/><rect fill="#E2E2F0" height="50.9598" rx="2.5" ry="2.5" style="stroke:#181818;stroke-width:0.5;" width="102" x="344" y="75.4799"/><text fill="#000000" font-family="JetBrains Mono" font-size="14" font-style="italic" lengthAdjust="spacing" textLength="88" x="351" y="96.7599">&#171;component&#187;</text><text fill="#000000" font-family="JetBrains Mono" font-size="14" lengthAdjust="spacing" textLength="64" x="363" y="115.2398">Back-End</text><rect fill="#E2E2F0" height="50.9598" rx="2.5" ry="2.5" style="stroke:#181818;stroke-width:0.5;" width="102" x="344" y="433.3998"/><text fill="#000000" font-family="JetBrains Mono" font-size="14" font-style="italic" lengthAdjust="spacing" textLength="88" x="351" y="454.6797">&#171;component&#187;</text><text fill="#000000" font-family="JetBrains Mono" font-size="14" lengthAdjust="spacing" textLength="64" x="363" y="473.1596">Back-End</text><text fill="#000000" font-family="JetBrains Mono" font-size="14" font-style="italic" lengthAdjust="spacing" textLength="88" x="509" y="104.7599">&#171;component&#187;</text><text fill="#000000" font-family="JetBrains Mono" font-size="14" lengthAdjust="spacing" textLength="64" x="521" y="123.2398">DataBase</text><path d="M538,54.4799 C538,44.4799 556,44.4799 556,44.4799 C556,44.4799 574,44.4799 574,54.4799 L574,80.4799 C574,90.4799 556,90.4799 556,90.4799 C556,90.4799 538,90.4799 538,80.4799 L538,54.4799 " fill="#E2E2F0" style="stroke:#181818;stroke-width:1.5;"/><path d="M538,54.4799 C538,64.4799 556,64.4799 556,64.4799 C556,64.4799 574,64.4799 574,54.4799 " fill="none" style="stroke:#181818;stroke-width:1.5;"/><text fill="#000000" font-family="JetBrains Mono" font-size="14" font-style="italic" lengthAdjust="spacing" textLength="88" x="509" y="447.6797">&#171;component&#187;</text><text fill="#000000" font-family="JetBrains Mono" font-size="14" lengthAdjust="spacing" textLength="64" x="521" y="466.1596">DataBase</text><path d="M538,480.3596 C538,470.3596 556,470.3596 556,470.3596 C556,470.3596 574,470.3596 574,480.3596 L574,506.3596 C574,516.3596 556,516.3596 556,516.3596 C556,516.3596 538,516.3596 538,506.3596 L538,480.3596 " fill="#E2E2F0" style="stroke:#181818;stroke-width:1.5;"/><path d="M538,480.3596 C538,490.3596 556,490.3596 556,490.3596 C556,490.3596 574,490.3596 574,480.3596 " fill="none" style="stroke:#181818;stroke-width:1.5;"/><rect fill="#FFFFFF" height="264.8" style="stroke:#181818;stroke-width:1.0;" width="10" x="390" y="160.5998"/><rect fill="#FFFFFF" height="31.16" style="stroke:#181818;stroke-width:1.0;" width="10" x="551" y="235.0798"/><polygon fill="#181818" points="378,156.5998,388,160.5998,378,164.5998,382,160.5998" style="stroke:#181818;stroke-width:1.0;"/><line style="stroke:#181818;stroke-width:1.0;" x1="0" x2="384" y1="160.5998" y2="160.5998"/><text fill="#000000" font-family="JetBrains Mono" font-size="13" font-weight="bold" lengthAdjust="spacing" textLength="8" x="7" y="154.6998">1</text><text fill="#000000" font-family="JetBrains Mono" font-size="13" lengthAdjust="spacing" textLength="352" x="19" y="154.6998">GET buildings/filter?minFloors=1&amp;maxFloors=5</text><path d="M3,175.5998 L72,175.5998 L72,184.7598 L62,194.7598 L3,194.7598 L3,175.5998 " fill="#EEEEEE" style="stroke:#000000;stroke-width:1.5;"/><rect fill="none" height="241.8" style="stroke:#000000;stroke-width:1.5;" width="610" x="3" y="175.5998"/><text fill="#000000" font-family="JetBrains Mono" font-size="13" font-weight="bold" lengthAdjust="spacing" textLength="24" x="18" y="189.8598">alt</text><text fill="#000000" font-family="JetBrains Mono" font-size="11" font-weight="bold" lengthAdjust="spacing" textLength="119" x="87" y="188.8197">[user authorized]</text><polygon fill="#181818" points="539,231.0798,549,235.0798,539,239.0798,543,235.0798" style="stroke:#181818;stroke-width:1.0;"/><line style="stroke:#181818;stroke-width:1.0;" x1="400" x2="545" y1="235.0798" y2="235.0798"/><text fill="#000000" font-family="JetBrains Mono" font-size="13" font-weight="bold" lengthAdjust="spacing" textLength="8" x="407" y="220.5998">2</text><text fill="#000000" font-family="JetBrains Mono" font-size="13" lengthAdjust="spacing" textLength="104" x="419" y="212.0198">find with min</text><text fill="#000000" font-family="JetBrains Mono" font-size="13" lengthAdjust="spacing" textLength="112" x="427" y="229.1798">and max floors</text><polygon fill="#181818" points="411,262.2398,401,266.2398,411,270.2398,407,266.2398" style="stroke:#181818;stroke-width:1.0;"/><line style="stroke:#181818;stroke-width:1.0;stroke-dasharray:2.0,2.0;" x1="405" x2="555" y1="266.2398" y2="266.2398"/><text fill="#000000" font-family="JetBrains Mono" font-size="13" font-weight="bold" lengthAdjust="spacing" textLength="8" x="417" y="260.3398">3</text><text fill="#000000" font-family="JetBrains Mono" font-size="13" lengthAdjust="spacing" textLength="8" x="429" y="260.3398">&#160;</text><polygon fill="#181818" points="11,293.3998,1,297.3998,11,301.3998,7,297.3998" style="stroke:#181818;stroke-width:1.0;"/><line style="stroke:#181818;stroke-width:1.0;stroke-dasharray:2.0,2.0;" x1="5" x2="389" y1="297.3998" y2="297.3998"/><text fill="#000000" font-family="JetBrains Mono" font-size="13" font-weight="bold" lengthAdjust="spacing" textLength="8" x="17" y="291.4998">4</text><text fill="#000000" font-family="JetBrains Mono" font-size="13" lengthAdjust="spacing" textLength="208" x="29" y="291.4998">Response status code - 200</text><path d="M3,312.3998 L72,312.3998 L72,321.5599 L62,331.5599 L3,331.5599 L3,312.3998 " fill="#EEEEEE" style="stroke:#000000;stroke-width:1.5;"/><rect fill="none" height="50.32" style="stroke:#000000;stroke-width:1.5;" width="453" x="3" y="312.3998"/><text fill="#000000" font-family="JetBrains Mono" font-size="13" font-weight="bold" lengthAdjust="spacing" textLength="24" x="18" y="326.6599">alt</text><text fill="#000000" font-family="JetBrains Mono" font-size="11" font-weight="bold" lengthAdjust="spacing" textLength="154" x="87" y="325.6198">[database unavailable]</text><polygon fill="#181818" points="11,350.7199,1,354.7199,11,358.7199,7,354.7199" style="stroke:#181818;stroke-width:1.0;"/><line style="stroke:#181818;stroke-width:1.0;stroke-dasharray:2.0,2.0;" x1="5" x2="389" y1="354.7199" y2="354.7199"/><text fill="#000000" font-family="JetBrains Mono" font-size="13" font-weight="bold" lengthAdjust="spacing" textLength="8" x="17" y="348.8199">5</text><text fill="#000000" font-family="JetBrains Mono" font-size="13" lengthAdjust="spacing" textLength="208" x="29" y="348.8199">Response status code - 503</text><line style="stroke:#000000;stroke-width:1.0;stroke-dasharray:2.0,2.0;" x1="3" x2="613" y1="370.7199" y2="370.7199"/><text fill="#000000" font-family="JetBrains Mono" font-size="11" font-weight="bold" lengthAdjust="spacing" textLength="133" x="8" y="381.9398">[user unauthorized]</text><polygon fill="#181818" points="11,405.3998,1,409.3998,11,413.3998,7,409.3998" style="stroke:#181818;stroke-width:1.0;"/><line style="stroke:#181818;stroke-width:1.0;stroke-dasharray:2.0,2.0;" x1="5" x2="389" y1="409.3998" y2="409.3998"/><text fill="#000000" font-family="JetBrains Mono" font-size="13" font-weight="bold" lengthAdjust="spacing" textLength="8" x="17" y="403.4998">6</text><text fill="#000000" font-family="JetBrains Mono" font-size="13" lengthAdjust="spacing" textLength="208" x="29" y="403.4998">Response status code - 401</text><!--SRC=[ZP1BJyD038Jl_XLM3_GKaGAzLAM8A2qI4Xo08nSdwxIhRdQZh5CUlnutVQZ00MwMF3F-njH9y5rTS0jnRNr3BTNOKBcc9J_BXsDikPIJdU6AEYUBuEMHQiPxbgmbwoC-11y0n8gQxkOlc7NM6UkN4T-ihB2s7iaRhEaTAnT26m4qKcnf6_A2Wqol9dDl1aWHipbEfsMec-3Posm6XeGAYeo3NATCfrwNPpzqaCpKFEa9YWF1UMMTS7kZ38l-zFNeJ3dsynY0d60NkKNgP1LQ-ya6OBYmodlht505fTWD2MisWCBfbJoROBLL7Egz_YvujEKPWB8cEpe0mzzMYDCawRcVE6eNxHc5f8jO1iEOu4MQxYYFV-WyRSWwAXp_mpzEBm7OQojsM_EsgoQSjFqpuYeTxIFW2m00]--></g></svg>